<?xml version="1.0" encoding="utf-8"?>
<!-- Generator: Adobe Illustrator 16.0.4, SVG Export Plug-In . SVG Version: 6.00 Build 0)  -->
<!DOCTYPE svg PUBLIC "-//W3C//DTD SVG 1.1//EN" "http://www.w3.org/Graphics/SVG/1.1/DTD/svg11.dtd">
<svg version="1.1" id="Layer_1" xmlns="http://www.w3.org/2000/svg" xmlns:xlink="http://www.w3.org/1999/xlink" x="0px" y="0px"
	 width="166.142px" height="12.103px" viewBox="0 0 166.142 12.103" enable-background="new 0 0 166.142 12.103"
	 xml:space="preserve">
<g>
	<g>
		<path d="M2.645,7.674l-1.719-3.36H0.882v5.762H0V2.617h0.947l2.027,3.899h0.022l2.017-3.899h0.936v7.458H5.014V4.347H4.969
			L3.272,7.674H2.645z"/>
		<path d="M8.221,7.508C8.254,9.062,8.859,9.47,9.785,9.47c0.462,0,1.002-0.1,1.597-0.21v0.694
			c-0.649,0.154-1.256,0.253-1.796,0.253c-1.377,0-2.303-0.66-2.303-2.875c0-2.071,0.859-2.908,2.27-2.908
			c1.301,0,2.05,0.683,2.05,2.677v0.407H8.221z M9.542,5.129c-0.649,0-1.212,0.176-1.311,1.719h2.435
			C10.654,5.459,10.192,5.129,9.542,5.129z"/>
		<path d="M16.01,10.075V5.988c0-0.584-0.231-0.815-0.693-0.815c-0.375,0-0.904,0.154-1.609,0.396v4.506h-0.903V4.534h0.738
			l0.077,0.385c0.738-0.264,1.398-0.495,1.973-0.495c0.495,0,0.881,0.165,1.112,0.562c0.76-0.342,1.487-0.562,2.082-0.562
			c0.793,0,1.333,0.386,1.333,1.354v4.297h-0.903V5.977c0-0.584-0.231-0.814-0.694-0.814c-0.375,0-0.903,0.165-1.608,0.407v4.506
			H16.01z"/>
		<path d="M22.544,2.033v2.82h0.022c0.793-0.275,1.388-0.43,1.895-0.43c1.301,0,1.719,0.98,1.719,2.854
			c0,2.038-0.826,2.93-2.126,2.93c-0.474,0-1.014-0.121-1.575-0.341h-0.012l-0.154,0.209h-0.672V2.033H22.544z M23.922,9.514
			c0.837,0,1.299-0.606,1.299-2.192c0-1.454-0.099-2.138-0.99-2.138c-0.408,0-0.926,0.144-1.687,0.386v3.592
			C23.073,9.381,23.535,9.514,23.922,9.514z"/>
		<path d="M28.064,7.508c0.033,1.554,0.639,1.962,1.564,1.962c0.463,0,1.002-0.1,1.598-0.21v0.694
			c-0.65,0.154-1.256,0.253-1.796,0.253c-1.378,0-2.303-0.66-2.303-2.875c0-2.071,0.859-2.908,2.27-2.908
			c1.3,0,2.05,0.683,2.05,2.677v0.407H28.064z M29.387,5.129c-0.65,0-1.212,0.176-1.311,1.719h2.434
			C30.499,5.459,30.037,5.129,29.387,5.129z"/>
		<path d="M35.38,5.25c-0.628,0-1.212,0.143-1.828,0.342v4.483h-0.903V4.534h0.738l0.076,0.429h0.012
			c0.617-0.319,1.311-0.528,1.905-0.528V5.25z"/>
		<path d="M43.17,7.31c0,1.808-0.694,2.897-2.522,2.897c-1.84,0-2.413-1.024-2.413-2.875c0-1.817,0.694-2.908,2.512-2.908
			C42.619,4.424,43.17,5.47,43.17,7.31z M42.212,7.354c0-1.564-0.298-2.204-1.521-2.204c-1.179,0-1.498,0.617-1.498,2.159
			c0,1.543,0.308,2.171,1.487,2.171C41.881,9.48,42.212,8.874,42.212,7.354z"/>
		<path d="M47.302,2.705c-0.275-0.044-0.539-0.088-0.782-0.088c-0.528,0-0.914,0.209-0.914,1.068v0.849h1.433v0.693h-1.433v4.848
			h-0.893V5.228h-0.782V4.534h0.782V3.719c0-1.355,0.728-1.818,1.697-1.818c0.286,0,0.584,0.044,0.892,0.11V2.705z"/>
		<path d="M52.47,3.432v6.644h-0.937V3.432h-2.06V2.617h5.057v0.814H52.47z"/>
		<path d="M55.269,7.508c0.033,1.554,0.639,1.962,1.564,1.962c0.463,0,1.003-0.1,1.598-0.21v0.694
			c-0.65,0.154-1.256,0.253-1.796,0.253c-1.377,0-2.303-0.66-2.303-2.875c0-2.071,0.859-2.908,2.27-2.908
			c1.3,0,2.049,0.683,2.049,2.677v0.407H55.269z M56.591,5.129c-0.65,0-1.212,0.176-1.312,1.719h2.435
			C57.703,5.459,57.24,5.129,56.591,5.129z"/>
		<path d="M59.854,2.033h0.903v6.853c0,0.396,0.033,0.584,0.463,0.584c0.109,0,0.242-0.012,0.407-0.033v0.639
			c-0.286,0.066-0.529,0.1-0.728,0.1c-0.782,0-1.046-0.463-1.046-1.19V2.033z"/>
		<path d="M63.356,7.508c0.033,1.554,0.639,1.962,1.564,1.962c0.463,0,1.003-0.1,1.598-0.21v0.694
			c-0.65,0.154-1.256,0.253-1.796,0.253c-1.377,0-2.303-0.66-2.303-2.875c0-2.071,0.859-2.908,2.27-2.908
			c1.3,0,2.049,0.683,2.049,2.677v0.407H63.356z M64.679,5.129c-0.65,0-1.212,0.176-1.312,1.719h2.435
			C65.791,5.459,65.328,5.129,64.679,5.129z"/>
		<path d="M67.94,10.075V2.033h0.903v4.561h0.793l1.521-2.06h0.958l-1.751,2.324l2.049,3.217h-1.047l-1.763-2.787h-0.76v2.787H67.94
			z"/>
		<path d="M77.713,7.31c0,1.808-0.694,2.897-2.522,2.897c-1.84,0-2.413-1.024-2.413-2.875c0-1.817,0.694-2.908,2.512-2.908
			C77.162,4.424,77.713,5.47,77.713,7.31z M76.755,7.354c0-1.564-0.298-2.204-1.521-2.204c-1.179,0-1.498,0.617-1.498,2.159
			c0,1.543,0.308,2.171,1.487,2.171C76.424,9.48,76.755,8.874,76.755,7.354z"/>
		<path d="M82.165,10.075V5.988c0-0.584-0.231-0.815-0.694-0.815c-0.375,0-0.903,0.154-1.608,0.396v4.506h-0.903V4.534h0.738
			l0.076,0.385c0.738-0.264,1.399-0.495,1.973-0.495c0.496,0,0.881,0.165,1.112,0.562c0.761-0.342,1.487-0.562,2.082-0.562
			c0.794,0,1.333,0.386,1.333,1.354v4.297H85.37V5.977c0-0.584-0.231-0.814-0.693-0.814c-0.375,0-0.903,0.165-1.608,0.407v4.506
			H82.165z"/>
		<path d="M93.623,8.004h-2.71l-0.661,2.071h-0.893l2.49-7.458h0.903l2.468,7.458h-0.926L93.623,8.004z M91.155,7.255h2.226
			L92.269,3.84h-0.022L91.155,7.255z"/>
		<path d="M97.007,4.534v4.108c0,0.584,0.265,0.805,0.761,0.805c0.418,0,0.991-0.154,1.696-0.386V4.534h0.903v5.541h-0.738
			l-0.077-0.353h-0.011c-0.749,0.309-1.421,0.474-1.983,0.474c-0.881,0-1.454-0.419-1.454-1.354V4.534H97.007z"/>
		<path d="M105.369,8.467c0,1.08-0.661,1.74-2.17,1.74c-0.441,0-0.959-0.055-1.554-0.176V9.293c0.628,0.132,1.146,0.198,1.542,0.198
			c0.893,0,1.256-0.319,1.256-0.903c0-1.256-2.765-0.628-2.765-2.556c0-1.212,0.914-1.608,1.994-1.608
			c0.451,0,0.925,0.065,1.377,0.176v0.728c-0.353-0.066-0.882-0.177-1.366-0.177c-0.584,0-1.091,0.166-1.091,0.761
			C102.593,7.277,105.369,6.594,105.369,8.467z"/>
		<path d="M107.42,8.753c0,0.595,0.23,0.749,0.737,0.749c0.231,0,0.519-0.032,0.871-0.077v0.65c-0.397,0.088-0.75,0.132-1.058,0.132
			c-0.926,0-1.455-0.418-1.455-1.442V5.228h-0.781V4.534h0.781V3.311l0.904-0.33v1.554h1.718v0.693h-1.718V8.753z"/>
		<path d="M112.884,5.25c-0.628,0-1.212,0.143-1.828,0.342v4.483h-0.903V4.534h0.738l0.076,0.429h0.012
			c0.617-0.319,1.311-0.528,1.905-0.528V5.25z"/>
		<path d="M115.021,4.534v5.541h-0.903V5.228h-0.683V4.534H115.021z M113.909,2.947c0-0.342,0.286-0.628,0.628-0.628
			c0.341,0,0.628,0.286,0.628,0.628s-0.287,0.628-0.628,0.628C114.195,3.575,113.909,3.289,113.909,2.947z"/>
		<path d="M120.244,10.075h-0.738l-0.088-0.396h-0.011c-0.64,0.342-1.212,0.507-1.697,0.507c-0.914,0-1.498-0.573-1.498-1.598
			c0-1.608,0.991-1.84,2.357-1.84h0.782V6.065c0-0.694-0.418-0.926-1.024-0.926c-0.463,0-1.024,0.132-1.598,0.286V4.71
			c0.684-0.188,1.289-0.286,1.785-0.286c1.091,0,1.729,0.474,1.729,1.575V10.075z M117.115,8.533c0,0.66,0.353,0.914,0.87,0.914
			c0.397,0,0.882-0.154,1.366-0.396V7.409h-0.98C117.357,7.409,117.115,7.718,117.115,8.533z"/>
		<path d="M128.861,3.465c-0.596-0.154-1.135-0.231-1.62-0.231c-1.564,0-2.501,0.871-2.501,3.096c0,2.534,1.08,3.118,2.468,3.118
			c0.353,0,0.717-0.033,1.091-0.088V6.22h0.937v3.734c-0.727,0.144-1.477,0.253-2.192,0.253c-1.784,0-3.294-0.737-3.294-3.768
			c0-2.941,1.433-3.966,3.404-3.966c0.54,0,1.112,0.077,1.708,0.209V3.465z"/>
		<path d="M133.543,5.25c-0.628,0-1.211,0.143-1.828,0.342v4.483h-0.903V4.534h0.738l0.077,0.429h0.011
			c0.617-0.319,1.311-0.528,1.905-0.528V5.25z"/>
		<path d="M139.009,7.31c0,1.808-0.694,2.897-2.522,2.897c-1.84,0-2.413-1.024-2.413-2.875c0-1.817,0.694-2.908,2.512-2.908
			C138.458,4.424,139.009,5.47,139.009,7.31z M138.051,7.354c0-1.564-0.298-2.204-1.521-2.204c-1.179,0-1.498,0.617-1.498,2.159
			c0,1.543,0.308,2.171,1.487,2.171C137.72,9.48,138.051,8.874,138.051,7.354z"/>
		<path d="M141.136,4.534v4.108c0,0.584,0.265,0.805,0.761,0.805c0.418,0,0.991-0.154,1.696-0.386V4.534h0.903v5.541h-0.738
			l-0.077-0.353h-0.011c-0.749,0.309-1.421,0.474-1.983,0.474c-0.881,0-1.454-0.419-1.454-1.354V4.534H141.136z"/>
		<path d="M146.788,4.534l0.077,0.363h0.011c0.837-0.319,1.498-0.474,2.017-0.474c1.288,0,1.686,0.991,1.686,2.854
			c0,2.082-0.782,2.919-2.094,2.919c-0.451,0-0.958-0.099-1.521-0.275h-0.021v2.182h-0.903V4.534H146.788z M148.341,9.502
			c0.827,0,1.278-0.605,1.278-2.181c0-1.454-0.099-2.159-0.991-2.159c-0.386,0-0.926,0.143-1.686,0.396v3.591
			C147.482,9.37,147.956,9.502,148.341,9.502z"/>
	</g>
	
		<rect x="158.827" y="-1.168" transform="matrix(0.709 0.7052 -0.7052 0.709 50.8528 -111.1856)" fill="#EF4E22" width="2.625" height="14.378"/>
</g>
</svg>
