<?xml version="1.0" encoding="utf-8"?>
<!-- Generator: Adobe Illustrator 16.0.0, SVG Export Plug-In . SVG Version: 6.00 Build 0)  -->
<!DOCTYPE svg PUBLIC "-//W3C//DTD SVG 1.0//EN" "http://www.w3.org/TR/2001/REC-SVG-20010904/DTD/svg10.dtd">
<svg version="1.0" id="Layer_1" xmlns="http://www.w3.org/2000/svg" xmlns:xlink="http://www.w3.org/1999/xlink" x="0px" y="0px"
	 width="64px" height="64px" viewBox="0 0 64 64" style="enable-background:new 0 0 64 64;" xml:space="preserve">
<g>
	<g>
		<path style="fill:#373179;" d="M59.59,9.702C59.426,4.96,47.141,1.13,32,1.13c-15.14,0-27.431,3.83-27.595,8.572H4.399v9.392l0,0
			C4.433,23.876,16.776,27.743,32,27.743c15.222,0,27.563-3.867,27.597-8.649h0.004V9.702H59.59z"/>
		<path style="fill:#373179;" d="M59.43,26.343c-1.514,4.336-13.217,7.711-27.43,7.711c-14.216,0-25.915-3.375-27.431-7.711
			c-0.096,0.279-0.153,0.563-0.164,0.848H4.399v9.394l0,0C4.433,41.359,16.776,45.233,32,45.233c15.222,0,27.563-3.874,27.597-8.649
			h0.004V27.19H59.59C59.58,26.905,59.522,26.622,59.43,26.343z"/>
		<path style="fill:#373179;" d="M59.43,43.982c-1.514,4.337-13.217,7.711-27.43,7.711c-14.216,0-25.915-3.374-27.431-7.711
			c-0.096,0.277-0.153,0.562-0.164,0.851H4.399v9.389l0,0C4.433,59.003,16.776,62.87,32,62.87c15.222,0,27.563-3.867,27.597-8.648
			h0.004v-9.389H59.59C59.58,44.544,59.522,44.26,59.43,43.982z"/>
	</g>
	<linearGradient id="SVGID_1_" gradientUnits="userSpaceOnUse" x1="4.4355" y1="31.1826" x2="59.5654" y2="31.1826">
		<stop  offset="0" style="stop-color:#FFFFFF"/>
		<stop  offset="1" style="stop-color:#FFFFFF;stop-opacity:0"/>
	</linearGradient>
	<path style="opacity:0.29;fill:url(#SVGID_1_);" d="M59.562,54.222h0.004v-9.389h-0.011l0.007-25.739h0.004V9.702h-0.011
		C59.391,4.96,47.105,1.13,31.965,1.13c-14.609,0-26.562,3.566-27.529,8.077l43.655,52.028
		C55.021,59.665,59.541,57.111,59.562,54.222z"/>
</g>
</svg>
