<?xml version="1.0" encoding="utf-8"?>
<!-- Generator: Adobe Illustrator 16.0.0, SVG Export Plug-In . SVG Version: 6.00 Build 0)  -->
<!DOCTYPE svg PUBLIC "-//W3C//DTD SVG 1.0//EN" "http://www.w3.org/TR/2001/REC-SVG-20010904/DTD/svg10.dtd">
<svg version="1.0" id="Layer_1" xmlns="http://www.w3.org/2000/svg" xmlns:xlink="http://www.w3.org/1999/xlink" x="0px" y="0px"
	 width="64px" height="64px" viewBox="0 0 64 64" style="enable-background:new 0 0 64 64;" xml:space="preserve">
<g>
	<linearGradient id="SVGID_1_" gradientUnits="userSpaceOnUse" x1="31.9995" y1="38.9355" x2="31.9995" y2="56.668">
		<stop  offset="0" style="stop-color:#E78601"/>
		<stop  offset="1" style="stop-color:#D27A02"/>
	</linearGradient>
	<path style="fill:url(#SVGID_1_);" d="M54.22,46.311c-3.869-1.646-12.672-4.355-12.672-4.355s-2.119-0.711-2.804-2.605
		c-0.381-1.078-2.382,0.289-2.382,0.289c-4.96,3.672-8.763,0-8.763,0s-1.975-1.355-2.356-0.289
		c-0.671,1.895-2.803,2.605-2.803,2.605s-8.803,2.709-12.659,4.355c-3.869,1.645-3.527,10.357-3.527,10.357h25.727h0.039h25.726
		C57.746,56.668,58.075,47.955,54.22,46.311z"/>
	<linearGradient id="SVGID_2_" gradientUnits="userSpaceOnUse" x1="31.9937" y1="38.5215" x2="31.9937" y2="11.2935">
		<stop  offset="0" style="stop-color:#3F3F3F"/>
		<stop  offset="1" style="stop-color:#747474"/>
	</linearGradient>
	<path style="fill:url(#SVGID_2_);" d="M41.665,17.808c0,0-1.025-6.515-9.67-6.515c-8.646,0-9.672,6.515-9.672,6.515
		s-0.132,4.908-0.132,7.934c0,3.027,0.198,2.91,0.711,3.158c0.513,0.263,1.553,1.75,1.553,1.75c1.026,8.187,7.527,7.87,7.541,7.87
		c0.012,0,6.512,0.316,7.54-7.87c0,0,1.039-1.487,1.552-1.75c0.514-0.248,0.711-0.131,0.711-3.158
		C41.797,22.716,41.665,17.808,41.665,17.808z"/>
	<linearGradient id="SVGID_3_" gradientUnits="userSpaceOnUse" x1="31.9937" y1="7.332" x2="31.9937" y2="33.9009">
		<stop  offset="0" style="stop-color:#E78601"/>
		<stop  offset="1" style="stop-color:#D27A02"/>
	</linearGradient>
	<path style="fill:url(#SVGID_3_);" d="M46.416,19.505c-1.25-6.909-7.211-12.173-14.37-12.173c-7.106,0-13.041,5.172-14.356,12.015
		c-0.277,0.367-0.447,0.815-0.447,1.314v4.291c0,1.21,0.987,2.198,2.197,2.198s2.185-0.988,2.185-2.198v-4.291
		c0-0.881-0.513-1.617-1.25-1.973c1.487-5.145,6.158-8.909,11.672-8.909c5.487,0,10.145,3.751,11.646,8.855
		c-0.776,0.345-1.33,1.119-1.33,2.026v4.291c0,0.789,0.408,1.461,1.027,1.855c-1.119,2.342-3.737,5.527-9.738,5.62
		c-0.105-0.186-0.263-0.303-0.447-0.303h-2.408c-0.329,0-0.592,0.395-0.592,0.881s0.263,0.895,0.592,0.895h2.408
		c0.158,0,0.29-0.092,0.395-0.236c6.777-0.092,9.712-3.842,10.948-6.514c0,0,0,0,0.014,0c1.211,0,2.185-0.988,2.185-2.198v-4.291
		C46.745,20.24,46.626,19.847,46.416,19.505z"/>
</g>
</svg>
