<?xml version="1.0" encoding="utf-8"?>
<!-- Generator: Adobe Illustrator 16.0.0, SVG Export Plug-In . SVG Version: 6.00 Build 0)  -->
<!DOCTYPE svg PUBLIC "-//W3C//DTD SVG 1.0//EN" "http://www.w3.org/TR/2001/REC-SVG-20010904/DTD/svg10.dtd">
<svg version="1.0" id="Layer_1" xmlns="http://www.w3.org/2000/svg" xmlns:xlink="http://www.w3.org/1999/xlink" x="0px" y="0px"
	 width="64px" height="64px" viewBox="0 0 64 64" style="enable-background:new 0 0 64 64;" xml:space="preserve">
<g>
	<path style="fill:#373179;" d="M26.977,42.339c-2.044-3.727-2.855-2.637-3.365-1.202c-0.842,2.365-3.486,3.247-3.486,3.247
		S9.186,47.748,4.391,49.79c-4.793,2.045-4.382,12.864-4.382,12.864s17.232,0,19.507,0s8.629-16.516,8.629-18.16
		C28.145,42.851,27.464,43.228,26.977,42.339z"/>
	<path style="fill:#373179;" d="M44.484,62.654c0.518,0,1.815,0,3.505,0L37.818,50.533C39.882,55.844,43.024,62.654,44.484,62.654z"
		/>
	<path style="fill:#373179;" d="M32.652,51.419c-0.119-0.543,0.072-1.333,0.428-1.758l1.424-1.702
		c0.354-0.426,0.196-0.714-0.353-0.642l-1.139,0.15c-0.549,0.073-1.448,0.071-1.997-0.001l-1.104-0.147
		c-0.548-0.073-0.706,0.214-0.352,0.64l1.422,1.7c0.354,0.425,0.548,1.216,0.428,1.757l-2.275,10.2
		c-0.121,0.541,0.233,0.983,0.789,0.983h4.217c0.556,0,0.91-0.442,0.79-0.983L32.652,51.419z"/>
	<path style="fill:#373179;" d="M39.83,6.505l0.089-0.027c-0.801-0.643-4.167-2.323-6.251-2.727
		c-2.083-0.399,0.319-2.406,0.319-2.406c-14.104,0-13.944,11.222-13.944,11.222s-0.159,6.091-0.159,9.858
		c0,3.768,0.239,3.607,0.882,3.926c0.643,0.32,1.924,2.164,1.924,2.164c1.281,10.17,9.364,9.777,9.375,9.777
		c0.01,0,8.096,0.393,9.375-9.777c0,0,1.282-1.844,1.925-2.164c0.641-0.318,0.881-0.158,0.881-3.926c0-3.767-0.16-9.858-0.16-9.858
		S43.49,8.903,39.83,6.505z"/>
	
		<linearGradient id="SVGID_1_" gradientUnits="userSpaceOnUse" x1="13.2681" y1="-7.4146" x2="92.3208" y2="-7.4146" gradientTransform="matrix(1.245 -0.0807 -0.0807 1.2165 -30.1357 32.8779)">
		<stop  offset="0" style="stop-color:#FFFFFF"/>
		<stop  offset="1" style="stop-color:#FFFFFF;stop-opacity:0"/>
	</linearGradient>
	<path style="opacity:0.29;fill:url(#SVGID_1_);" d="M39.83,6.505l0.089-0.027c-0.801-0.643-4.167-2.323-6.251-2.727
		c-2.083-0.399,0.319-2.406,0.319-2.406c-14.104,0-13.944,11.222-13.944,11.222s-0.159,6.091-0.159,9.858
		c0,3.768,0.239,3.607,0.882,3.926c0.643,0.32,1.924,2.164,1.924,2.164c1.281,10.17,9.364,9.777,9.375,9.777
		c0.01,0,8.096,0.393,9.375-9.777c0,0,1.282-1.844,1.925-2.164c0.641-0.318,0.881-0.158,0.881-3.926c0-3.767-0.16-9.858-0.16-9.858
		S43.49,8.903,39.83,6.505z"/>
	<path style="fill:#373179;" d="M59.609,49.79c-4.795-2.042-15.734-5.406-15.734-5.406s-2.645-0.882-3.486-3.247
		c-0.51-1.435-1.32-2.524-3.365,1.202c-0.486,0.889-1.169,0.512-1.169,2.155c0,0.588,0.815,3.082,1.964,6.039l10.171,12.121
		c5.729,0,16.002,0,16.002,0S64.402,51.835,59.609,49.79z"/>
	
		<linearGradient id="SVGID_2_" gradientUnits="userSpaceOnUse" x1="13.2681" y1="19.5249" x2="92.3214" y2="19.5249" gradientTransform="matrix(1.245 -0.0807 -0.0807 1.2165 -30.1357 32.8779)">
		<stop  offset="0" style="stop-color:#FFFFFF"/>
		<stop  offset="1" style="stop-color:#FFFFFF;stop-opacity:0"/>
	</linearGradient>
	<path style="opacity:0.29;fill:url(#SVGID_2_);" d="M59.609,49.79c-4.795-2.042-15.734-5.406-15.734-5.406
		s-2.645-0.882-3.486-3.247c-0.51-1.435-1.32-2.524-3.365,1.202c-0.486,0.889-1.169,0.512-1.169,2.155
		c0,0.588,0.815,3.082,1.964,6.039l10.171,12.121c5.729,0,16.002,0,16.002,0S64.402,51.835,59.609,49.79z"/>
</g>
</svg>
