<?xml version="1.0" encoding="utf-8"?>
<!-- Generator: Adobe Illustrator 16.0.0, SVG Export Plug-In . SVG Version: 6.00 Build 0)  -->
<!DOCTYPE svg PUBLIC "-//W3C//DTD SVG 1.0//EN" "http://www.w3.org/TR/2001/REC-SVG-20010904/DTD/svg10.dtd">
<svg version="1.0" id="Layer_1" xmlns="http://www.w3.org/2000/svg" xmlns:xlink="http://www.w3.org/1999/xlink" x="0px" y="0px"
	 width="64px" height="64px" viewBox="0 0 64 64" style="enable-background:new 0 0 64 64;" xml:space="preserve">
<path style="fill:#E78601;" d="M43.838,36.045h-7.633v7.857h-6.541v-7.857h-7.58v-6.343h7.58v-7.855h6.541v7.855h7.633V36.045z
	 M52.852,24.295c0.014-0.197,0.025-0.396,0.025-0.592c0-8.278-6.684-14.977-14.936-14.977c-6.631,0-12.25,4.33-14.198,10.319
	c-1.25-1.884-3.382-3.133-5.803-3.133c-3.843,0-6.961,3.118-6.961,6.974c0,0.369,0.04,0.711,0.092,1.066
	c-4.264,1.71-7.277,5.881-7.277,10.752c0,4.736,2.843,8.789,6.896,10.594c1.302,2.695,4.04,4.566,7.224,4.566
	c1.079,0,2.105-0.211,3.053-0.607c2,3.58,5.816,6.016,10.198,6.016c4.83,0,8.974-2.949,10.751-7.146
	c1.633,1.408,3.738,2.264,6.053,2.264c4.555,0,8.316-3.291,9.094-7.619c1.947-2.041,3.145-4.805,3.145-7.844
	C60.207,30.06,57.141,25.913,52.852,24.295z"/>
</svg>
