<?xml version="1.0" encoding="utf-8"?>
<!-- Generator: Adobe Illustrator 16.0.4, SVG Export Plug-In . SVG Version: 6.00 Build 0)  -->
<!DOCTYPE svg PUBLIC "-//W3C//DTD SVG 1.1//EN" "http://www.w3.org/Graphics/SVG/1.1/DTD/svg11.dtd">
<svg version="1.1" id="Layer_1" xmlns:sketch="http://www.bohemiancoding.com/sketch/ns"
	 xmlns="http://www.w3.org/2000/svg" xmlns:xlink="http://www.w3.org/1999/xlink" x="0px" y="0px" width="284px" height="247px"
	 viewBox="0 0 284 247" enable-background="new 0 0 284 247" xml:space="preserve">
<title>Simobil-korporativni-logo</title>
<desc>Created with Sketch.</desc>
<g id="Page-1" sketch:type="MSPage">
	<g id="Simobil-korporativni-logo" sketch:type="MSLayerGroup">
		<g id="Clip-2">
		</g>
		<defs>
			<filter id="Adobe_OpacityMaskFilter" filterUnits="userSpaceOnUse" x="-0.001" y="0.692" width="283.466" height="246.304">
				<feColorMatrix  type="matrix" values="1 0 0 0 0  0 1 0 0 0  0 0 1 0 0  0 0 0 1 0"/>
			</filter>
		</defs>
		<mask maskUnits="userSpaceOnUse" x="-0.001" y="0.692" width="283.466" height="246.304" id="mask-2">
			<g filter="url(#Adobe_OpacityMaskFilter)">
				<path id="path-1" fill="#FFFFFF" d="M0,0.692h283.464V247H0V0.692z"/>
			</g>
		</mask>
		<path id="Fill-1" sketch:type="MSShapeGroup" mask="url(#mask-2)" d="M261.117,142.317c0,21.373-17.488,39.354-38.863,39.354
			c-2.437,0-4.602-0.272-6.812-0.5c5.111-11.19,8.757-23.323,9.961-36.198c11.683-5.355,21.635-13.847,29.162-24.031
			C258.68,127.004,261.117,134.536,261.117,142.317L261.117,142.317z M222.254,102.713c9.229,0,17.738,3.405,24.297,8.98
			c-5.359,8.266-12.392,15.061-20.892,19.917c-0.257-9.956-1.708-19.658-4.381-28.897H222.254z M256.991,76.729
			c0,4.842-0.735,9.467-1.715,14.082c-9.466-6.317-21.117-9.965-33.255-9.965c-3.178,0-6.086,0.25-9.01,0.725
			c-12.869-24.532-34.728-43.724-60.955-53.439c10.931-9.465,25.254-15.534,41.293-15.534
			C228.561,12.599,256.991,41.491,256.991,76.729L256.991,76.729z M145.733,34.458c25.022,8.251,46.151,25.988,58.778,49.047
			c-22.095,6.565-39.348,25.274-43.242,48.595c-18.935-11.158-31.329-31.83-31.329-55.371
			C129.94,60.684,135.782,45.616,145.733,34.458L145.733,34.458z M132.859,31.056c-9.476,12.62-15.048,28.409-15.048,45.417
			c0,30.124,17.48,55.869,42.744,68.027c0.715,23.793,15.062,43.955,35.23,53.431c-18.952,24.774-49.082,40.812-82.598,40.812
			c-57.561,0-104.693-46.901-104.693-104.698c0-57.808,47.132-104.937,104.693-104.937
			C119.984,29.108,126.538,29.817,132.859,31.056L132.859,31.056z M193.35,140.603c-3.405,0-6.564-0.228-9.731-0.728
			c1.242-17.241,13.123-31.823,29.394-35.947c2.924,9.467,4.641,19.673,4.641,30.117v1.94
			C210.1,139.133,201.848,140.603,193.35,140.603L193.35,140.603z M184.596,151.532c2.929,0.484,5.832,0.484,8.754,0.484
			c8.012,0,16.025-1.207,23.324-3.638c-1.453,10.687-4.625,20.896-8.998,30.36C196.268,174.131,187.524,163.931,184.596,151.532
			L184.596,151.532z M283.465,142.317c0-16.772-6.802-32.08-17.971-43.24c2.172-7.049,3.624-14.583,3.624-22.604
			c0-41.789-33.989-75.78-75.769-75.78c-21.629,0-40.797,8.99-54.649,23.323c-8.269-1.949-17.01-2.923-25.754-2.923
			c-62.449,0-112.947,50.528-112.947,112.953c0,62.444,50.498,112.951,112.947,112.951c37.173,0,70.448-18.21,90.847-45.914
			c5.834,1.69,11.905,2.664,18.229,2.664C256.016,203.746,283.465,176.306,283.465,142.317L283.465,142.317z"/>
	</g>
</g>
</svg>
