<?xml version="1.0" encoding="utf-8"?>
<!-- Generator: Adobe Illustrator 16.0.0, SVG Export Plug-In . SVG Version: 6.00 Build 0)  -->
<!DOCTYPE svg PUBLIC "-//W3C//DTD SVG 1.0//EN" "http://www.w3.org/TR/2001/REC-SVG-20010904/DTD/svg10.dtd">
<svg version="1.0" id="Layer_1" xmlns="http://www.w3.org/2000/svg" xmlns:xlink="http://www.w3.org/1999/xlink" x="0px" y="0px"
	 width="64px" height="64px" viewBox="0 0 64 64" style="enable-background:new 0 0 64 64;" xml:space="preserve">
<g>
	<path style="fill:#231F20;" d="M20.766,24.788c0.643,0.32,1.924,2.164,1.924,2.164c1.281,10.169,9.366,9.778,9.377,9.778
		c0.008,0,8.093,0.392,9.374-9.778c0,0,1.281-1.844,1.924-2.164c0.641-0.319,0.882-0.16,0.882-3.927
		c0-3.768-0.161-9.857-0.161-9.857S42.804,2.91,32.066,2.91h-0.002c-10.738,0-12.02,8.094-12.02,8.094s-0.161,6.09-0.161,9.857
		C19.884,24.628,20.123,24.469,20.766,24.788z"/>
	<path style="fill:#231F20;" d="M59.609,48.226c-4.794-2.042-15.732-5.406-15.732-5.406s-2.645-0.882-3.486-3.246
		c-0.474-1.337-2.967,0.364-2.967,0.364c-6.167,4.556-10.889,0-10.889,0s-2.453-1.688-2.924-0.364
		c-0.842,2.364-3.486,3.246-3.486,3.246S9.186,46.184,4.393,48.226C-0.402,50.271,0.009,61.09,0.009,61.09h31.967h0.049h31.967
		C63.991,61.09,64.402,50.271,59.609,48.226z"/>
</g>
</svg>
