<?xml version="1.0" encoding="utf-8"?>
<!-- Generator: Adobe Illustrator 16.0.0, SVG Export Plug-In . SVG Version: 6.00 Build 0)  -->
<!DOCTYPE svg PUBLIC "-//W3C//DTD SVG 1.0//EN" "http://www.w3.org/TR/2001/REC-SVG-20010904/DTD/svg10.dtd">
<svg version="1.0" id="Layer_1" xmlns="http://www.w3.org/2000/svg" xmlns:xlink="http://www.w3.org/1999/xlink" x="0px" y="0px"
	 width="64px" height="64px" viewBox="0 0 64 64" style="enable-background:new 0 0 64 64;" xml:space="preserve">
<g>
	<linearGradient id="SVGID_1_" gradientUnits="userSpaceOnUse" x1="22.8267" y1="57.9063" x2="22.8267" y2="9.8232">
		<stop  offset="0" style="stop-color:#3F3F3F"/>
		<stop  offset="1" style="stop-color:#747474"/>
	</linearGradient>
	<path style="fill:url(#SVGID_1_);" d="M35.888,51.012c0,1.093-0.882,1.974-1.974,1.974H9.385c-1.093,0-1.975-0.881-1.975-1.974
		v-7.58c0-1.093,0.882-1.974,1.975-1.974h24.529c1.092,0,1.974,0.881,1.974,1.974V51.012z M7.306,16.521
		c0-1.25,1.013-2.264,2.276-2.264c1.25,0,2.263,1.014,2.263,2.264v9.75c0,1.264-1.013,2.279-2.263,2.279
		c-1.264,0-2.276-1.015-2.276-2.279V16.521z M16.082,16.521c0-1.25,1.014-2.264,2.264-2.264s2.264,1.014,2.264,2.264v9.75
		c0,1.264-1.014,2.279-2.264,2.279s-2.264-1.015-2.264-2.279V16.521z M25.241,16.521c0-1.25,1.013-2.264,2.264-2.264
		c1.263,0,2.276,1.014,2.276,2.264v9.75c0,1.264-1.014,2.279-2.276,2.279c-1.251,0-2.264-1.015-2.264-2.279V16.521z M41.506,27.653
		h1.869v-6.198L33.966,9.901l-2.421-0.079H5.437c-1.737,0-3.158,1.408-3.158,3.159v41.768c0,1.75,1.421,3.157,3.158,3.157h3.948
		h22.16h7.882c2.185,0,3.948-1.763,3.948-3.934V38.104h-1.869c-1.315,0-2.368-1.054-2.368-2.37v-5.712
		C39.138,28.719,40.19,27.653,41.506,27.653z"/>
	<linearGradient id="SVGID_2_" gradientUnits="userSpaceOnUse" x1="39.8574" y1="6.0938" x2="39.8574" y2="45.0405">
		<stop  offset="0" style="stop-color:#E78601"/>
		<stop  offset="1" style="stop-color:#D27A02"/>
	</linearGradient>
	<path style="fill:url(#SVGID_2_);" d="M61.219,19.508L48.678,30.681c-0.671,0.605-1.223,0.355-1.223-0.54v-4.646
		c0-0.894-0.737-1.631-1.633-1.631h-8.724c-0.896,0-1.633-0.737-1.633-1.631v-6.817c0-0.896,0.737-1.63,1.633-1.63h8.448
		c0.895,0,1.657-0.738,1.684-1.635l0.171-5.183c0.026-0.896,0.605-1.144,1.29-0.552l12.527,10.922
		C61.89,17.93,61.89,18.902,61.219,19.508z M42.611,37.893H33.9c-0.895,0-1.632,0.735-1.632,1.644v4.631
		c0,0.897-0.553,1.146-1.225,0.541L18.49,33.535c-0.671-0.592-0.657-1.579,0.014-2.157l12.527-10.936
		c0.672-0.593,1.25-0.341,1.29,0.553l0.157,5.184c0.027,0.895,0.79,1.632,1.685,1.632h8.448c0.908,0,1.646,0.738,1.646,1.632v6.816
		C44.257,37.154,43.52,37.893,42.611,37.893z"/>
</g>
</svg>
