<?xml version="1.0" encoding="UTF-8" standalone="no"?>
<svg width="58px" height="55px" viewBox="0 0 58 55" version="1.1" xmlns="http://www.w3.org/2000/svg" xmlns:xlink="http://www.w3.org/1999/xlink" xmlns:sketch="http://www.bohemiancoding.com/sketch/ns">
    <!-- Generator: Sketch 3.3.2 (12043) - http://www.bohemiancoding.com/sketch -->
    <title>Imported Layers</title>
    <desc>Created with Sketch.</desc>
    <defs></defs>
    <g id="Page-1" stroke="none" stroke-width="1" fill="none" fill-rule="evenodd" sketch:type="MSPage">
        <g id="Artboard-1-Copy-2" sketch:type="MSArtboardGroup" transform="translate(-330.000000, -106.000000)" stroke="#D8D0D0" stroke-width="1.8">
            <path d="M385.945886,134.946955 C386.850949,134.045258 386.850949,132.569626 385.945886,131.667929 L361.707595,107.517131 C360.802532,106.615433 360.062236,106.92367 360.062236,108.202179 L360.062236,120.057442 C360.062236,121.335951 359.017932,122.382003 357.741561,122.382003 L334.070675,122.382003 C332.794304,122.382003 331.75,123.428056 331.75,124.706565 L331.75,141.443407 C331.75,142.721916 332.794304,143.767968 334.070675,143.767968 L357.741561,143.767968 C359.017932,143.767968 360.062236,144.814021 360.062236,146.09253 L360.062236,158.412705 C360.062236,159.691214 360.802532,159.999451 361.707595,159.097753 L385.945886,134.946955" id="Imported-Layers" sketch:type="MSShapeGroup"></path>
        </g>
    </g>
</svg>