<?xml version="1.0" encoding="utf-8"?>
<!-- Generator: Adobe Illustrator 16.0.0, SVG Export Plug-In . SVG Version: 6.00 Build 0)  -->
<!DOCTYPE svg PUBLIC "-//W3C//DTD SVG 1.0//EN" "http://www.w3.org/TR/2001/REC-SVG-20010904/DTD/svg10.dtd">
<svg version="1.0" id="Layer_1" xmlns="http://www.w3.org/2000/svg" xmlns:xlink="http://www.w3.org/1999/xlink" x="0px" y="0px"
	 width="64px" height="64px" viewBox="0 0 64 64" style="enable-background:new 0 0 64 64;" xml:space="preserve">
<linearGradient id="SVGID_1_" gradientUnits="userSpaceOnUse" x1="43.1523" y1="55.5" x2="43.1523" y2="7.8339">
	<stop  offset="0" style="stop-color:#3F3F3F"/>
	<stop  offset="1" style="stop-color:#747474"/>
</linearGradient>
<path style="fill:url(#SVGID_1_);" d="M56.084,38.601h-1.293c-0.594,0-1.222-0.463-1.397-1.029l-0.743-1.806
	c-0.278-0.521-0.166-1.292,0.253-1.709l0.917-0.917c0.419-0.421,0.419-1.105,0-1.525l-1.526-1.523c-0.417-0.419-1.104-0.419-1.521,0
	l-0.921,0.917c-0.417,0.418-1.189,0.531-1.71,0.251l-1.803-0.741c-0.565-0.176-1.028-0.804-1.028-1.397v-1.293
	c0-0.592-0.487-1.078-1.08-1.078h-2.154c-0.593,0-1.079,0.486-1.079,1.078v1.293c0,0.302-0.121,0.611-0.313,0.867
	c-0.185,0.247-0.437,0.444-0.714,0.53l-0.722,0.297l-1.08,0.444c-0.525,0.282-1.293,0.169-1.713-0.251l-0.92-0.917
	c-0.419-0.419-1.104-0.419-1.522,0l-1.522,1.523c-0.422,0.417-0.422,1.104,0,1.523l0.914,0.919c0.419,0.417,0.535,1.188,0.252,1.709
	l-0.74,1.807c-0.178,0.566-0.805,1.029-1.398,1.029l-1.293-0.001c-0.594,0-1.078,0.484-1.078,1.077v1.295v0.86
	c0,0.592,0.484,1.077,1.078,1.077h1.293c0.594,0.001,1.221,0.465,1.396,1.029l0.742,1.806c0.161,0.298,0.181,0.672,0.101,1.019
	c-0.061,0.264-0.172,0.514-0.353,0.693l-0.918,0.917c-0.418,0.421-0.418,1.103,0,1.525l1.526,1.523c0.419,0.419,1.104,0.419,1.522,0
	l0.92-0.916c0.418-0.418,1.188-0.531,1.706-0.251l1.809,0.742c0.565,0.178,1.027,0.805,1.027,1.398v1.29
	c0,0.59,0.486,1.076,1.079,1.076h2.154c0.593,0,1.08-0.486,1.08-1.076v-1.29c0-0.594,0.463-1.221,1.028-1.398l1.806-0.742
	c0.522-0.28,1.293-0.167,1.714,0.251l0.914,0.916c0.418,0.419,1.104,0.419,1.521,0l1.526-1.523c0.419-0.423,0.419-1.104,0-1.525
	l-0.917-0.917c-0.419-0.417-0.531-1.188-0.253-1.712l0.743-1.806c0.176-0.564,0.808-1.028,1.397-1.028h1.293
	c0.591,0,1.075-0.485,1.075-1.076v-2.157C57.159,39.085,56.675,38.601,56.084,38.601z M43.156,46.141
	c-2.978,0-5.389-2.409-5.389-5.388c0-2.283,1.426-4.224,3.434-5.007c0.607-0.237,1.264-0.379,1.955-0.379s1.347,0.142,1.954,0.379
	c2.007,0.783,3.435,2.724,3.435,5.007C48.545,43.731,46.132,46.141,43.156,46.141z"/>
<linearGradient id="SVGID_2_" gradientUnits="userSpaceOnUse" x1="28.9165" y1="55.5" x2="28.9165" y2="7.834">
	<stop  offset="0" style="stop-color:#3F3F3F"/>
	<stop  offset="1" style="stop-color:#747474"/>
</linearGradient>
<polygon style="fill:url(#SVGID_2_);" points="40.395,20.54 33.109,20.54 33.109,9.237 24.723,9.237 24.723,20.54 17.438,20.54 
	28.916,31.312 "/>
<linearGradient id="SVGID_3_" gradientUnits="userSpaceOnUse" x1="43.1563" y1="55.5" x2="43.1562" y2="7.834">
	<stop  offset="0" style="stop-color:#3F3F3F"/>
	<stop  offset="1" style="stop-color:#747474"/>
</linearGradient>
<path style="fill:url(#SVGID_3_);" d="M43.156,37.367c-1.868,0-3.389,1.519-3.389,3.386c0,1.868,1.521,3.388,3.389,3.388
	s3.389-1.52,3.389-3.388C46.545,38.886,45.024,37.367,43.156,37.367z"/>
<linearGradient id="SVGID_4_" gradientUnits="userSpaceOnUse" x1="19.2827" y1="55.5" x2="19.2827" y2="7.834">
	<stop  offset="0" style="stop-color:#3F3F3F"/>
	<stop  offset="1" style="stop-color:#747474"/>
</linearGradient>
<path style="fill:url(#SVGID_4_);" d="M30.225,44.91c-1.697,0-3.078-1.381-3.078-3.077v-0.86H22.31l-1.804-4.935
	c-0.1-0.179-0.305-0.292-0.529-0.292h-7.823l7.506-5.759h-4.334l-7.026,4.729c-1.047,0.623-1.672,2.063-1.391,3.198L8.146,44.7
	c0.281,1.134,1.525,2.063,2.763,2.063h20.359l0.456-0.456L31.15,44.91H30.225z"/>
</svg>
