<?xml version="1.0" encoding="utf-8"?>
<!-- Generator: Adobe Illustrator 16.0.0, SVG Export Plug-In . SVG Version: 6.00 Build 0)  -->
<!DOCTYPE svg PUBLIC "-//W3C//DTD SVG 1.0//EN" "http://www.w3.org/TR/2001/REC-SVG-20010904/DTD/svg10.dtd">
<svg version="1.0" id="Layer_1" xmlns="http://www.w3.org/2000/svg" xmlns:xlink="http://www.w3.org/1999/xlink" x="0px" y="0px"
	 width="64px" height="64px" viewBox="0 0 64 64" style="enable-background:new 0 0 64 64;" xml:space="preserve">
<g>
	<linearGradient id="SVGID_1_" gradientUnits="userSpaceOnUse" x1="28.7476" y1="66.168" x2="28.7476" y2="-0.6652">
		<stop  offset="0" style="stop-color:#3F3F3F"/>
		<stop  offset="1" style="stop-color:#747474"/>
	</linearGradient>
	<path style="fill:url(#SVGID_1_);" d="M52.099,45.389c-9.436-2.592-11.304-3.961-14.331-3.791
		c-3.211,0.197-2.079,4.766-4.842,5.328c-2.659,0.555-7.922-2.998-12.001-7.354c-4.198-4.264-7.541-9.671-6.896-12.318
		c0.658-2.75,5.159-1.46,5.474-4.671c0.277-3.028-1.026-4.948-3.263-14.516C14.331-0.05,1.185,2.37,0.619,7.779
		c0,0-3.079,15.924,15.581,35.346c0.171,0.184,0.342,0.342,0.513,0.525c0.158,0.172,0.316,0.355,0.487,0.527
		C35.859,63.6,51.822,61.072,51.822,61.072C57.243,60.691,60.112,47.6,52.099,45.389z"/>
	<linearGradient id="SVGID_2_" gradientUnits="userSpaceOnUse" x1="42.8145" y1="66.168" x2="42.8144" y2="-0.6651">
		<stop  offset="0" style="stop-color:#3F3F3F"/>
		<stop  offset="1" style="stop-color:#747474"/>
	</linearGradient>
	<path style="fill:url(#SVGID_2_);" d="M61.61,22.042H28.818l8.421-8.315c0.776-0.763,0.79-2.026,0.026-2.803
		c-0.381-0.396-0.895-0.606-1.395-0.606s-0.987,0.198-1.382,0.567L22.646,22.609c-0.04,0.04-0.053,0.079-0.092,0.105
		c-0.026,0.039-0.052,0.08-0.079,0.106c-0.118,0.144-0.21,0.289-0.276,0.445c-0.066,0.173-0.092,0.344-0.119,0.515
		c-0.013,0.04-0.013,0.078-0.013,0.118c-0.014,0.171-0.014,0.342,0.026,0.513c0,0.014,0,0.014,0.013,0.025
		c0.026,0.159,0.079,0.304,0.158,0.449c0.013,0.04,0.026,0.078,0.052,0.118c0.079,0.145,0.171,0.289,0.303,0.408
		c0,0.014,0,0.014,0,0.014l11.857,12.052c0.763,0.789,2,0.789,2.776,0.014c0.763-0.764,0.776-2.025,0.013-2.803l-8.54-8.672H61.61
		c1.079,0,1.96-0.895,1.96-1.986S62.689,22.042,61.61,22.042z"/>
	<linearGradient id="SVGID_3_" gradientUnits="userSpaceOnUse" x1="57.9219" y1="66.168" x2="57.9219" y2="-0.6651">
		<stop  offset="0" style="stop-color:#3F3F3F"/>
		<stop  offset="1" style="stop-color:#747474"/>
	</linearGradient>
	<path style="fill:url(#SVGID_3_);" d="M57.763,19.388c3.385,0,5.522-1.57,5.522-5.326V5.635h-2.871v8.625
		c0,1.987-0.91,2.445-2.314,2.445c-1.327,0-2.454-0.478-2.454-2.505V5.635h-3.088v8.406C52.558,17.859,54.517,19.388,57.763,19.388z
		"/>
	<linearGradient id="SVGID_4_" gradientUnits="userSpaceOnUse" x1="46.5996" y1="66.168" x2="46.5996" y2="-0.665">
		<stop  offset="0" style="stop-color:#3F3F3F"/>
		<stop  offset="1" style="stop-color:#747474"/>
	</linearGradient>
	<polygon style="fill:url(#SVGID_4_);" points="50.815,16.407 45.472,16.407 45.472,13.425 50.063,13.425 50.063,10.802 
		45.472,10.802 45.472,8.317 50.717,8.317 50.717,5.634 42.384,5.634 42.384,19.09 50.815,19.09 	"/>
</g>
</svg>
