<?xml version="1.0" encoding="utf-8"?>
<!-- Generator: Adobe Illustrator 16.0.0, SVG Export Plug-In . SVG Version: 6.00 Build 0)  -->
<!DOCTYPE svg PUBLIC "-//W3C//DTD SVG 1.0//EN" "http://www.w3.org/TR/2001/REC-SVG-20010904/DTD/svg10.dtd">
<svg version="1.0" id="Layer_1" xmlns="http://www.w3.org/2000/svg" xmlns:xlink="http://www.w3.org/1999/xlink" x="0px" y="0px"
	 width="64px" height="64px" viewBox="0 0 64 64" style="enable-background:new 0 0 64 64;" xml:space="preserve">
<g>
	<linearGradient id="SVGID_1_" gradientUnits="userSpaceOnUse" x1="41.9004" y1="57.25" x2="41.9004" y2="5.2504">
		<stop  offset="0" style="stop-color:#3F3F3F"/>
		<stop  offset="1" style="stop-color:#747474"/>
	</linearGradient>
	<path style="fill:url(#SVGID_1_);" d="M46.604,30.053l-14.106-0.04c-0.987,0-1.974,1.013-1.974,1.974v22.766
		c0,0.976,0.368,1.987,1.354,1.987h2.225h12.501h4.447c1.238,0,2.225-0.987,2.225-2.198v-8.789h-1.054
		c-0.736,0-1.328-0.592-1.328-1.316v-3.172c0-0.724,0.592-1.316,1.328-1.316h1.054v-3.434l-5.304-6.409L46.604,30.053z
		 M32.932,33.776c0-0.697,0.566-1.264,1.277-1.264c0.71,0,1.276,0.566,1.276,1.264v5.408c0,0.697-0.566,1.264-1.276,1.264
		c-0.711,0-1.277-0.566-1.277-1.264V33.776z M33.984,54.594c-0.657,0-1.421-0.092-2.329-0.263v-1.486
		c0.974,0.195,1.685,0.289,2.198,0.289c0.882,0,1.157-0.276,1.157-0.828c0-1.382-3.303-0.752-3.303-3.58
		c0-1.605,1.237-2.198,2.816-2.198c0.618,0,1.303,0.092,1.974,0.251v1.461c-0.539-0.092-1.224-0.226-1.776-0.226
		c-0.592,0-1.053,0.158-1.053,0.727c0,1.512,3.264,0.789,3.264,3.485C36.933,53.66,36.169,54.594,33.984,54.594z M37.88,39.185
		v-5.408c0-0.697,0.565-1.264,1.276-1.264s1.276,0.566,1.276,1.264v5.408c0,0.697-0.565,1.264-1.276,1.264
		S37.88,39.882,37.88,39.185z M41.038,54.423h-1.855v-7.71h1.855V54.423z M43.051,39.185v-5.408c0-0.697,0.566-1.264,1.277-1.264
		c0.71,0,1.276,0.566,1.276,1.264v5.408c0,0.697-0.566,1.264-1.276,1.264C43.617,40.448,43.051,39.882,43.051,39.185z
		 M51.145,46.713v7.71h-1.855v-4.54h-0.026l-1.396,2.698h-1.118l-1.355-2.645h-0.026v4.486h-1.725v-7.71h1.856l1.882,3.461h0.014
		l1.868-3.461H51.145z"/>
	<linearGradient id="SVGID_2_" gradientUnits="userSpaceOnUse" x1="24.0874" y1="57.25" x2="24.0874" y2="5.2505">
		<stop  offset="0" style="stop-color:#3F3F3F"/>
		<stop  offset="1" style="stop-color:#747474"/>
	</linearGradient>
	<path style="fill:url(#SVGID_2_);" d="M28.524,46.843H13.697V16.156h20.778v11.862l2.975,0.008V11.208
		c0-1.987-1.355-3.947-3.33-3.947H14.329c-1.987,0-3.605,1.63-3.605,3.617v42.11c0,1.987,1.618,3.607,3.605,3.607H28.87
		c-0.216-0.542-0.346-1.157-0.346-1.844V46.843z M21.146,11.156h6.146c0.565,0,1.026,0.459,1.026,1.026
		c0,0.565-0.461,1.026-1.026,1.026h-6.146c-0.566,0-1.026-0.461-1.026-1.026C20.119,11.615,20.579,11.156,21.146,11.156z
		 M24.225,54.055c-1.514,0-2.737-1.223-2.737-2.737c0-1.513,1.224-2.751,2.737-2.751c1.5,0,2.737,1.238,2.737,2.751
		C26.962,52.832,25.725,54.055,24.225,54.055z"/>
</g>
</svg>
