<?xml version="1.0" encoding="utf-8"?>
<!-- Generator: Adobe Illustrator 16.0.0, SVG Export Plug-In . SVG Version: 6.00 Build 0)  -->
<!DOCTYPE svg PUBLIC "-//W3C//DTD SVG 1.1//EN" "http://www.w3.org/Graphics/SVG/1.1/DTD/svg11.dtd">
<svg version="1.1" id="Layer_1" xmlns="http://www.w3.org/2000/svg" xmlns:xlink="http://www.w3.org/1999/xlink" x="0px" y="0px"
	 width="203.045px" height="67.976px" viewBox="0 0 203.045 67.976" enable-background="new 0 0 203.045 67.976"
	 xml:space="preserve">
<g>
	<g>
		<path fill="#E31469" d="M57.908,28.914c5.438,0,6.652-2.583,7.74-5.544h4.732v44.103h-7.035V33.828h-5.438V28.914z"/>
		<path fill="#E31469" d="M78.311,33.954c0-7.056,3.774-11.088,10.683-11.088s10.683,4.032,10.683,11.088v22.933
			c0,7.057-3.774,11.089-10.683,11.089s-10.683-4.032-10.683-11.089V33.954z M85.348,57.329c0,3.15,1.406,4.348,3.646,4.348
			s3.646-1.197,3.646-4.348V33.513c0-3.15-1.406-4.347-3.646-4.347s-3.646,1.197-3.646,4.347V57.329z"/>
		<path fill="#E31469" d="M103.639,33.954c0-7.056,3.774-11.088,10.683-11.088s10.683,4.032,10.683,11.088v22.933
			c0,7.057-3.774,11.089-10.683,11.089s-10.683-4.032-10.683-11.089V33.954z M110.676,57.329c0,3.15,1.406,4.348,3.646,4.348
			s3.646-1.197,3.646-4.348V33.513c0-3.15-1.406-4.347-3.646-4.347s-3.646,1.197-3.646,4.347V57.329z"/>
	</g>
	<g>
		<path fill="#E31469" d="M140.371,31.613h3.807v2.521h-3.807v5.168h4.789v2.521h-7.563V24.177h7.563v2.521h-4.789V31.613z"/>
		<path fill="#E31469" d="M149.519,24.177v13.612c0,1.26,0.555,1.714,1.437,1.714c0.883,0,1.437-0.454,1.437-1.714V24.177h2.622
			v13.436c0,2.823-1.412,4.437-4.134,4.437c-2.723,0-4.135-1.613-4.135-4.437V24.177H149.519z"/>
		<path fill="#E31469" d="M162.698,41.823c-0.151-0.454-0.252-0.731-0.252-2.168v-2.772c0-1.639-0.555-2.244-1.814-2.244h-0.958
			v7.185H156.9V24.177h4.185c2.874,0,4.109,1.336,4.109,4.059v1.387c0,1.814-0.58,3-1.815,3.579c1.387,0.58,1.841,1.916,1.841,3.756
			v2.723c0,0.857,0.024,1.487,0.302,2.143H162.698z M159.674,26.698v5.419h1.084c1.033,0,1.663-0.454,1.663-1.865v-1.739
			c0-1.26-0.428-1.815-1.411-1.815H159.674z"/>
	</g>
	<g>
		<path fill="#E31469" d="M145.815,53.739v2.293c0,2.824-1.36,4.361-4.134,4.361h-1.311v6.629h-2.773V49.377h4.084
			C144.455,49.377,145.815,50.915,145.815,53.739z M140.371,51.898v5.974h1.311c0.883,0,1.361-0.402,1.361-1.663v-2.647
			c0-1.26-0.479-1.663-1.361-1.663H140.371z"/>
		<path fill="#E31469" d="M146.871,53.612c0-2.822,1.487-4.436,4.21-4.436s4.21,1.613,4.21,4.436v9.176
			c0,2.823-1.487,4.437-4.21,4.437s-4.21-1.613-4.21-4.437V53.612z M149.645,62.963c0,1.262,0.554,1.74,1.437,1.74
			c0.882,0,1.437-0.479,1.437-1.74v-9.527c0-1.261-0.555-1.74-1.437-1.74c-0.883,0-1.437,0.479-1.437,1.74V62.963z"/>
		<path fill="#E31469" d="M165.295,53.739v2.293c0,2.824-1.361,4.361-4.134,4.361h-1.311v6.629h-2.772V49.377h4.083
			C163.934,49.377,165.295,50.915,165.295,53.739z M159.851,51.898v5.974h1.311c0.883,0,1.361-0.402,1.361-1.663v-2.647
			c0-1.26-0.479-1.663-1.361-1.663H159.851z"/>
		<path fill="#E31469" d="M169.225,49.377v13.611c0,1.261,0.555,1.715,1.437,1.715c0.883,0,1.437-0.454,1.437-1.715V49.377h2.622
			v13.436c0,2.823-1.412,4.437-4.134,4.437c-2.723,0-4.135-1.613-4.135-4.437V49.377H169.225z"/>
		<path fill="#E31469" d="M180.339,49.176c2.697,0,4.083,1.613,4.083,4.436v0.555h-2.621v-0.73c0-1.261-0.504-1.74-1.387-1.74
			c-0.882,0-1.387,0.479-1.387,1.74c0,3.629,5.42,4.311,5.42,9.352c0,2.823-1.411,4.437-4.134,4.437s-4.134-1.613-4.134-4.437
			v-1.084h2.621v1.26c0,1.262,0.555,1.715,1.438,1.715c0.882,0,1.437-0.453,1.437-1.715c0-3.629-5.42-4.311-5.42-9.352
			C176.255,50.79,177.642,49.176,180.339,49.176z"/>
		<path fill="#E31469" d="M185.225,49.377h8.571v2.521h-2.899v15.124h-2.772V51.898h-2.899V49.377z"/>
		<path fill="#E31469" d="M203.045,67.022h-2.798l-0.479-3.201h-3.403l-0.479,3.201h-2.546l2.823-17.645h4.059L203.045,67.022z
			 M196.718,61.426h2.672l-1.336-8.924L196.718,61.426z"/>
	</g>
	<rect y="9.344" fill="#E31469" width="39.807" height="48.809"/>
	<path fill="#E31469" d="M16.57,62.86h6.667v2.223H16.57V62.86z M0,64.488c0,1.664,1.348,3.009,3.009,3.009h33.79
		c1.661,0,3.008-1.345,3.008-3.009v-4.114H0V64.488z"/>
	<path fill="#E31469" d="M39.808,7.122V3.009C39.808,1.345,38.459,0,36.799,0H3.009C1.348,0,0,1.345,0,3.009v4.113H39.808z"/>
</g>
</svg>
