<?xml version="1.0" encoding="utf-8"?>
<!-- Generator: Adobe Illustrator 16.0.4, SVG Export Plug-In . SVG Version: 6.00 Build 0)  -->
<!DOCTYPE svg PUBLIC "-//W3C//DTD SVG 1.1//EN" "http://www.w3.org/Graphics/SVG/1.1/DTD/svg11.dtd">
<svg version="1.1" id="Layer_1" xmlns="http://www.w3.org/2000/svg" xmlns:xlink="http://www.w3.org/1999/xlink" x="0px" y="0px"
	 width="64px" height="64px" viewBox="0 0 64 64" enable-background="new 0 0 64 64" xml:space="preserve">
<path fill="#E61E6B" d="M32,10.72c-13.842,0-25.104,11.262-25.104,25.104c0,6.203,2.28,12.158,6.421,16.767l0.574,0.64l36.166,0.052
	l0.577-0.638c4.171-4.617,6.47-10.593,6.47-16.819C57.104,21.981,45.841,10.72,32,10.72z M48.323,49.416L38.756,49.4
	c-0.686-2.416-2.632-4.299-5.085-4.896l-5.074-15.828c-0.133-0.269-0.456-0.38-0.725-0.249l-0.335,0.163
	c-0.27,0.131-0.381,0.456-0.25,0.725l1.87,15.583c-1.885,0.836-3.332,2.477-3.908,4.486L15.64,49.37
	c-3.154-3.804-4.881-8.581-4.881-13.547c0-11.712,9.529-21.241,21.241-21.241s21.241,9.529,21.241,21.241
	C53.241,40.811,51.502,45.605,48.323,49.416z"/>
<path fill="#E61E6B" d="M32,17.561c-0.399,0-0.723,0.322-0.723,0.722v3.865c0,0.4,0.323,0.723,0.723,0.723s0.725-0.322,0.725-0.723
	v-3.865C32.725,17.883,32.399,17.561,32,17.561z"/>
<path fill="#E61E6B" d="M44.893,22.967c-0.283-0.282-0.74-0.282-1.022,0l-2.733,2.731c-0.281,0.285-0.281,0.741,0,1.023
	c0.284,0.282,0.74,0.284,1.023,0l2.732-2.732C45.174,23.708,45.174,23.25,44.893,22.967z"/>
<path fill="#E61E6B" d="M44.872,35.905c0.002,0.399,0.323,0.724,0.726,0.725l3.863-0.001c0.398,0,0.723-0.32,0.723-0.724
	c0-0.399-0.322-0.722-0.723-0.722l-3.863-0.002C45.195,35.186,44.874,35.507,44.872,35.905z"/>
<path fill="#E61E6B" d="M18.241,35.02h-3.864c-0.401,0.004-0.722,0.324-0.725,0.726c-0.001,0.399,0.325,0.723,0.725,0.723
	l3.864,0.002c0.401-0.004,0.722-0.325,0.722-0.725C18.963,35.345,18.641,35.021,18.241,35.02z"/>
<path fill="#E61E6B" d="M19.584,29.86l-3.573-1.474c-0.371-0.151-0.789,0.022-0.945,0.393c-0.153,0.368,0.024,0.792,0.394,0.944
	l3.57,1.477c0.373,0.149,0.791-0.026,0.945-0.395C20.127,30.437,19.952,30.015,19.584,29.86z"/>
<path fill="#E61E6B" d="M20.053,22.878c-0.284-0.282-0.737-0.279-1.022,0.003c-0.282,0.281-0.281,0.741,0.003,1.022l2.738,2.729
	c0.286,0.28,0.74,0.278,1.022-0.006c0.282-0.282,0.281-0.738,0-1.021L20.053,22.878z"/>
<path fill="#E61E6B" d="M25.893,19.33c-0.156-0.369-0.575-0.54-0.946-0.39c-0.369,0.153-0.543,0.58-0.389,0.948l1.49,3.566
	c0.157,0.368,0.579,0.539,0.947,0.386c0.369-0.153,0.542-0.576,0.39-0.945L25.893,19.33z"/>
<path fill="#E61E6B" d="M38.889,18.94c-0.369-0.153-0.793,0.026-0.943,0.397l-1.459,3.579c-0.149,0.371,0.029,0.791,0.397,0.941
	c0.37,0.151,0.791-0.025,0.942-0.395l1.459-3.58C39.436,19.511,39.257,19.095,38.889,18.94z"/>
<path fill="#E61E6B" d="M43.88,30.848c0.156,0.367,0.578,0.542,0.946,0.386l3.561-1.509c0.368-0.158,0.535-0.578,0.385-0.947
	c-0.153-0.369-0.582-0.542-0.949-0.386l-3.561,1.507C43.895,30.057,43.725,30.479,43.88,30.848z"/>
</svg>
