<?xml version="1.0" encoding="utf-8"?>
<!-- Generator: Adobe Illustrator 16.0.0, SVG Export Plug-In . SVG Version: 6.00 Build 0)  -->
<!DOCTYPE svg PUBLIC "-//W3C//DTD SVG 1.0//EN" "http://www.w3.org/TR/2001/REC-SVG-20010904/DTD/svg10.dtd">
<svg version="1.0" id="Layer_1" xmlns="http://www.w3.org/2000/svg" xmlns:xlink="http://www.w3.org/1999/xlink" x="0px" y="0px"
	 width="64px" height="64px" viewBox="0 0 64 64" style="enable-background:new 0 0 64 64;" xml:space="preserve">
<g>
	<path style="fill:#231F20;" d="M20.766,26.352c0.643,0.319,1.923,2.164,1.923,2.164c1.282,10.169,9.365,9.777,9.375,9.777
		c0.01,0,8.096,0.393,9.375-9.777c0,0,1.282-1.845,1.925-2.164c0.641-0.319,0.881-0.159,0.881-3.926s-0.16-9.858-0.16-9.858
		S43.49,8.903,39.83,6.505l0.089-0.027c-0.801-0.643-4.167-2.323-6.251-2.727c-2.083-0.399,0.319-2.406,0.319-2.406
		c-14.104,0-13.944,11.222-13.944,11.222s-0.16,6.091-0.16,9.858S20.124,26.033,20.766,26.352z"/>
	<path style="fill:#231F20;" d="M26.977,42.339c-2.044-3.727-2.855-2.637-3.366-1.202c-0.842,2.365-3.486,3.247-3.486,3.247
		S9.186,47.748,4.391,49.79c-4.793,2.045-4.382,12.864-4.382,12.864s17.232,0,19.507,0c2.274,0,8.629-16.516,8.629-18.16
		C28.145,42.851,27.464,43.228,26.977,42.339z"/>
	<path style="fill:#231F20;" d="M59.609,49.79c-4.795-2.042-15.734-5.406-15.734-5.406s-2.645-0.882-3.486-3.247
		c-0.51-1.435-1.32-2.524-3.365,1.202c-0.486,0.889-1.169,0.512-1.169,2.155c0,1.645,6.356,18.16,8.63,18.16
		c2.274,0,19.507,0,19.507,0S64.402,51.835,59.609,49.79z"/>
	<path style="fill:#231F20;" d="M32.653,51.419c-0.12-0.543,0.072-1.333,0.427-1.758l1.424-1.702
		c0.354-0.426,0.196-0.714-0.353-0.642l-1.139,0.15c-0.549,0.073-1.449,0.071-1.997-0.001l-1.103-0.147
		c-0.548-0.073-0.707,0.214-0.352,0.64l1.422,1.7c0.354,0.425,0.548,1.216,0.428,1.757l-2.276,10.2
		c-0.12,0.541,0.234,0.983,0.79,0.983h4.217c0.556,0,0.91-0.442,0.79-0.983L32.653,51.419z"/>
</g>
</svg>
