<?xml version="1.0" encoding="utf-8"?>
<!-- Generator: Adobe Illustrator 16.0.0, SVG Export Plug-In . SVG Version: 6.00 Build 0)  -->
<!DOCTYPE svg PUBLIC "-//W3C//DTD SVG 1.1//EN" "http://www.w3.org/Graphics/SVG/1.1/DTD/svg11.dtd">
<svg version="1.1" id="Layer_1" xmlns="http://www.w3.org/2000/svg" xmlns:xlink="http://www.w3.org/1999/xlink" x="0px" y="0px"
	 width="64px" height="64px" viewBox="0 0 64 64" style="enable-background:new 0 0 64 64;" xml:space="preserve">
<linearGradient id="SVGID_1_" gradientUnits="userSpaceOnUse" x1="32.0005" y1="65.123" x2="32.0005" y2="-6.7363">
	<stop  offset="0" style="stop-color:#3F3F3F"/>
	<stop  offset="1" style="stop-color:#747474"/>
</linearGradient>
<path style="fill:url(#SVGID_1_);" d="M6.133,39.012c0.538,0.299,1.093,0.609,1.604,0.951c1.185,0.795,2.353,1.576,3.509,2.348
	c6.066,4.055,11.797,7.885,17.857,12.146c3.462,2.432,6.895,3.564,10.804,3.564c0.089,0,0.179,0,0.27-0.002
	c5.952-0.078,11.222-2.406,16.108-7.113c4.667-4.494,7.25-9.787,7.676-15.73c0.034-0.473,0.03-0.93,0.038-1.392v-1.182
	c-0.165-4.934-1.864-9.16-4.928-12.068c-1.368-1.299-3.124-2.208-4.981-3.17c-0.697-0.361-1.418-0.735-2.116-1.131
	c-1.931-1.093-3.972-2.21-5.945-3.291c-2.042-1.118-4.155-2.274-6.134-3.399c-0.611-0.348-1.2-0.72-1.768-1.081
	c-2.012-1.277-3.912-2.484-6.633-2.484c-0.142,0-0.288,0.003-0.435,0.01c-6.47,0.301-10.051,4.173-13.417,8.49
	c-0.874-0.524-1.751-1.063-2.602-1.586C12.199,11.145,9.26,9.339,6.06,7.863C6.035,7.852,6.008,7.846,5.982,7.846
	c-0.063,0-0.126,0.033-0.16,0.092c-2.561,4.348-5.331,9.518-5.786,15.876C0.019,24.05,0.01,24.287,0,24.523v2.166
	c0.19,4.335,1.479,8.395,3.432,10.459C4.144,37.902,5.11,38.441,6.133,39.012z M12.825,40.602c-1.073-0.744-2.181-1.51-3.333-2.211
	c-0.123-0.566-0.279-1.107-0.431-1.629c-0.291-1.004-0.591-2.041-0.652-3.291c0.331,0.219,0.661,0.436,0.991,0.652
	c1.604,1.061,3.263,2.154,4.943,3.188c-0.023,1.547,0.294,2.766,0.601,3.947c0.08,0.307,0.161,0.619,0.236,0.939
	C14.378,41.676,13.59,41.131,12.825,40.602z M8.209,30.591c-0.058-2.249,0.164-4.315,0.681-6.306
	c1.055,0.555,2.062,1.185,3.037,1.794c0.944,0.59,1.92,1.201,2.943,1.745c-0.555,2.093-0.791,4.217-0.722,6.48
	c-1.159-0.572-2.203-1.289-3.214-1.982C10.068,31.729,9.175,31.116,8.209,30.591z M16.897,29.318l0.02-0.182
	c0.807,0.429,1.574,0.917,2.318,1.39c0.971,0.617,1.975,1.255,3.081,1.773c-0.053,0.343-0.114,0.7-0.177,1.07
	c-0.319,1.875-0.678,3.986-0.403,5.83c-0.877-0.219-1.72-0.84-2.608-1.492c-0.808-0.594-1.641-1.207-2.562-1.561
	C16.413,33.928,16.659,31.585,16.897,29.318z M17.533,26.873c0.603-2.713,1.623-5.261,3.196-7.993
	c0.366,0.217,0.729,0.436,1.092,0.655c1.331,0.803,2.706,1.632,4.176,2.34c-0.271,0.637-0.559,1.267-0.838,1.879
	c-0.857,1.88-1.743,3.821-2.221,6.141c-1.024-0.398-1.903-0.972-2.754-1.527C19.365,27.832,18.518,27.279,17.533,26.873z
	 M20.645,45.834c-0.744-0.527-1.514-1.074-2.249-1.508c-0.556-1.424-1.058-3.084-1.571-5.195c0.846,0.24,1.681,0.842,2.56,1.477
	c0.822,0.594,1.672,1.207,2.597,1.566c0.398,2.498,0.941,4.262,1.735,5.602C22.744,47.32,21.68,46.566,20.645,45.834z M30.164,8.402
	c0.393-0.049,0.77-0.073,1.122-0.073c1.885,0,3.032,0.707,4.361,1.524c0.402,0.248,0.819,0.505,1.28,0.758l1.016,0.558
	c3.285,1.807,7.332,4.031,10.542,5.68c-4.352,0.653-8.207,2.352-11.181,4.93c-3.265,2.831-5.228,6.552-5.675,10.763
	c-0.412,3.865,0.626,7.498,2.847,9.968c1.973,2.193,4.705,3.352,7.902,3.352c0.561,0,1.141-0.035,1.723-0.107
	c5.028-0.621,8.933-4.932,9.083-10.027c0.124-4.236-2.795-5.949-5.616-7.606c-0.695-0.408-1.415-0.831-2.084-1.287
	c-0.513-0.349-1.085-0.743-1.756-1.206l-1.217-0.838c-2.017-1.387-2.568-1.817-2.702-1.946c0.101-0.381,1.588-1.339,3.419-2.192
	c2.006-0.935,4.044-1.389,6.228-1.389c0.602,0,1.224,0.036,1.85,0.105c7.854,0.872,10.804,8.742,10.241,16.155
	c-0.76,10.012-9.873,19.209-19.9,20.084c-0.574,0.049-1.15,0.076-1.71,0.076c-8.583,0-15.055-6.229-15.743-15.145
	c-0.607-7.877,2.042-13.804,4.994-19.034c0.047-0.084,0.023-0.19-0.057-0.244c-1.879-1.3-3.932-2.473-5.917-3.608
	c-1.065-0.608-2.164-1.236-3.225-1.877C21.862,12.692,25.607,8.972,30.164,8.402z M41.944,32.352
	c0.487,0.369,0.975,0.738,1.465,1.103c0.033,0.023,0.072,0.037,0.111,0.037c0.027,0,0.056-0.008,0.081-0.02
	c0.449-0.217,0.861-0.526,1.26-0.825c0.779-0.584,1.516-1.136,2.572-1.136c0.441,0,0.902,0.096,1.408,0.293
	c0.775,0.303,1.319,0.919,1.618,1.832c0.633,1.939-0.008,4.758-0.964,6.258c-1.608,2.521-4.805,3.65-7.259,3.65
	c-0.189,0-0.379-0.006-0.563-0.02c-2.691-0.188-4.925-1.619-6.289-4.031c-1.835-3.246-1.815-7.746,0.04-11.513
	C37.809,29.224,39.91,30.814,41.944,32.352z M16.008,16.152c0.813,0.5,1.651,1.017,2.56,1.451c-0.334,0.84-0.716,1.649-1.086,2.433
	c-0.773,1.635-1.571,3.323-1.975,5.38c-1.367-0.649-2.62-1.448-3.834-2.22c-0.691-0.439-1.404-0.894-2.134-1.318
	c0.696-2.944,2.023-5.351,3.215-7.48C13.939,14.879,14.99,15.526,16.008,16.152z M6.611,10.702c1.176,0.67,2.666,1.527,4.137,2.412
	c-1.407,2.435-2.515,4.88-3.381,7.46l-0.852-0.516c-1.021-0.617-2.074-1.255-3.104-1.892C4.181,15.247,5.455,12.789,6.611,10.702z
	 M2.762,20.561c0.642,0.311,1.234,0.688,1.808,1.055c0.667,0.425,1.355,0.863,2.13,1.208c-0.359,1.858-0.709,3.877-0.883,6.102
	c-0.886-0.459-1.706-1.006-2.502-1.537c-0.346-0.23-0.703-0.469-1.063-0.698C1.999,24.703,2.337,22.271,2.762,20.561z M2.533,29.788
	c0.574,0.087,1.157,0.533,1.77,1.002c0.483,0.369,0.981,0.75,1.506,0.973c0.173,1.692,0.392,3.194,0.666,4.583
	c-2.075-0.951-2.824-3.207-3.615-5.59C2.753,30.438,2.645,30.11,2.533,29.788z"/>
<g>
</g>
<g>
</g>
<g>
</g>
<g>
</g>
<g>
</g>
</svg>
