<?xml version="1.0" encoding="utf-8"?>
<!-- Generator: Adobe Illustrator 16.0.0, SVG Export Plug-In . SVG Version: 6.00 Build 0)  -->
<!DOCTYPE svg PUBLIC "-//W3C//DTD SVG 1.1//EN" "http://www.w3.org/Graphics/SVG/1.1/DTD/svg11.dtd">
<svg version="1.1" id="Layer_1" xmlns="http://www.w3.org/2000/svg" xmlns:xlink="http://www.w3.org/1999/xlink" x="0px" y="0px"
	 width="64px" height="64px" viewBox="0 0 64 64" style="enable-background:new 0 0 64 64;" xml:space="preserve">
<linearGradient id="SVGID_1_" gradientUnits="userSpaceOnUse" x1="32.0005" y1="54.7627" x2="32.0005" y2="9.2378">
	<stop  offset="0" style="stop-color:#3F3F3F"/>
	<stop  offset="1" style="stop-color:#747474"/>
</linearGradient>
<path style="fill-rule:evenodd;clip-rule:evenodd;fill:url(#SVGID_1_);" d="M43.179,20.569c-0.408,0.63-1.093,0.975-1.804,0.975
	c-0.407,0.013-0.829-0.106-1.197-0.345c-8.33-5.382-15.502-0.604-15.567-0.563c-0.986,0.683-2.342,0.446-3.026-0.526
	c-0.685-0.989-0.435-2.317,0.553-3.002c0.395-0.263,9.658-6.447,20.409,0.489C43.547,18.253,43.836,19.583,43.179,20.569z
	 M17.834,29.767c-1.501,0-2.711-1.197-2.711-2.67c0-1.486,1.21-2.686,2.711-2.686c1.486,0,2.697,1.199,2.697,2.686
	C20.531,28.569,19.32,29.767,17.834,29.767z M56.18,26.004C54.271,16.489,44.336,9.237,32.361,9.237
	c-9.962,0-18.516,5.016-22.213,12.174H8.451c-2.29,0-4.158,1.843-4.158,4.118v8.674c0,2.276,1.868,4.118,4.158,4.118h2.315
	c1.961,3.237,4.948,5.987,8.593,7.922c0.053,2.421,0.133,4.961,0.303,6.29c0.251,2.013,4.409,3.078,5.936,1.395
	c0.526-0.593,1.289-2.605,2.04-4.907c1.526,0.248,3.104,0.381,4.724,0.381c1.605,0,3.197-0.133,4.724-0.381
	c0.75,2.302,1.514,4.314,2.04,4.907c1.526,1.684,5.671,0.618,5.922-1.395c0.171-1.329,0.263-3.869,0.303-6.29
	c5.276-2.803,9.146-7.265,10.567-12.502c2.104-0.064,3.79-1.776,3.79-3.883C59.707,27.859,58.166,26.201,56.18,26.004z"/>
<g>
</g>
<g>
</g>
<g>
</g>
<g>
</g>
<g>
</g>
</svg>
