<?xml version="1.0" encoding="utf-8"?>
<!-- Generator: Adobe Illustrator 16.0.0, SVG Export Plug-In . SVG Version: 6.00 Build 0)  -->
<!DOCTYPE svg PUBLIC "-//W3C//DTD SVG 1.0//EN" "http://www.w3.org/TR/2001/REC-SVG-20010904/DTD/svg10.dtd">
<svg version="1.0" id="Layer_1" xmlns="http://www.w3.org/2000/svg" xmlns:xlink="http://www.w3.org/1999/xlink" x="0px" y="0px"
	 width="64px" height="64px" viewBox="0 0 64 64" style="enable-background:new 0 0 64 64;" xml:space="preserve">
<g>
	<linearGradient id="SVGID_1_" gradientUnits="userSpaceOnUse" x1="31.0005" y1="50.1992" x2="31.0005" y2="13.8013">
		<stop  offset="0" style="stop-color:#3F3F3F"/>
		<stop  offset="1" style="stop-color:#747474"/>
	</linearGradient>
	<path style="fill:url(#SVGID_1_);" d="M47.266,44.263l-3.816-0.145c-3.435-0.053-7.265,0.145-9.054,1.105
		c0,0,0.104,1.447-3.369,1.461c0,0-0.014,0-0.026,0s-0.026,0-0.039,0c-3.461-0.014-3.355-1.461-3.355-1.461
		c-1.79-0.961-5.619-1.158-9.054-1.105l-3.816,0.145c-1.724,0.105-2.895,0.224-2.895,0.224V15.023
		c13.316-3.291,17.844,1.105,17.844,1.105L31,19.141l1.316-3.013c0,0,4.514-4.396,17.844-1.105v29.463
		C50.16,44.486,48.988,44.368,47.266,44.263z M55.503,49.105v0.052c-0.014,0.581-0.474,1.041-1.052,1.041h-0.04l-17.37-1.803
		c-0.146,0-0.251-0.133-0.237-0.263c0-0.147,0.105-0.251,0.237-0.251l16.277,0.119l-0.065-27.702c0-0.631,0.513-1.158,1.145-1.158
		c0.646-0.013,1.171,0.513,1.171,1.158L55.503,49.105z M24.946,48.396L7.59,50.198c-0.579,0.026-1.065-0.408-1.093-0.986v-0.04
		v-0.066L6.432,20.299c0-0.631,0.514-1.158,1.158-1.158c0.632-0.013,1.158,0.513,1.158,1.158L8.683,48.001l16.264-0.119
		c0.146,0,0.264,0.133,0.251,0.263C25.197,48.277,25.079,48.396,24.946,48.396z"/>
	<linearGradient id="SVGID_2_" gradientUnits="userSpaceOnUse" x1="46.207" y1="40.2021" x2="46.207" y2="8.1387">
		<stop  offset="0" style="stop-color:#E78601"/>
		<stop  offset="1" style="stop-color:#D27A02"/>
	</linearGradient>
	<path style="fill:url(#SVGID_2_);" d="M62.755,15.495l-2.185,2.053c-0.224,0.106-0.46,0.172-0.724,0.158
		c-1.487-0.026-3.369-1.604-3.961-2.211c-3.013-2.842-3.145-4.317-3.106-4.711c0-0.065,0.014-0.132,0.04-0.184l2.369-2.226
		c0.329-0.315,0.895-0.315,1.237,0l6.315,5.949C63.084,14.652,63.084,15.166,62.755,15.495z M57.097,20.811l-14.266,13.41
		c-0.209,0.117-0.446,0.17-0.709,0.17c-1.487-0.025-3.37-1.617-3.962-2.209c-3.026-2.844-3.145-4.332-3.118-4.712
		c0.013-0.065,0.026-0.13,0.039-0.185l14.448-13.593c0.105-0.092,0.225-0.158,0.343-0.197c0.671,1.355,1.803,2.804,3.421,4.329
		c0,0,0,0,0.014,0c0.04,0.053,0.132,0.146,0.263,0.275c0.593,0.555,1.988,1.737,3.725,2.435
		C57.241,20.64,57.175,20.731,57.097,20.811z M38.345,37.419l-7.686,2.684c-0.921,0.316-1.447-0.145-1.171-1.025l2.448-7.739
		c0.104-0.314,0.263-0.525,0.46-0.658c0.697,1.197,1.737,2.475,3.146,3.805c0,0,0.013,0,0.013,0.014
		c0.039,0.037,0.131,0.129,0.264,0.262c0.526,0.487,1.697,1.501,3.185,2.198C38.87,37.155,38.647,37.312,38.345,37.419z"/>
</g>
</svg>
