<?xml version="1.0" encoding="UTF-8" standalone="no"?>
<svg width="32px" height="28px" viewBox="0 0 32 28" version="1.1" xmlns="http://www.w3.org/2000/svg" xmlns:xlink="http://www.w3.org/1999/xlink" xmlns:sketch="http://www.bohemiancoding.com/sketch/ns">
    <!-- Generator: Sketch 3.3 (11970) - http://www.bohemiancoding.com/sketch -->
    <title>Shape + Shape Copy</title>
    <desc>Created with Sketch.</desc>
    <defs></defs>
    <g id="Page-1" stroke="none" stroke-width="1" fill="none" fill-rule="evenodd" sketch:type="MSPage">
        <g id="Configurator" sketch:type="MSArtboardGroup" transform="translate(-449.000000, -521.000000)" fill="#AB9D80">
            <g id="Shape-+-Shape-Copy" sketch:type="MSLayerGroup" transform="translate(449.000000, 521.000000)">
                <path d="M10.5051095,0.843668089 C10.2583276,0.630353142 9.93903426,0.489064729 9.61028284,0.420627396 C9.44231794,0.386093462 9.31417376,0.371639652 9.1881637,0.371639652 C9.06385124,0.371639652 8.94113937,0.385365921 8.82080413,0.408792733 C8.77365949,0.417814238 8.72961902,0.43391714 8.68388096,0.446188327 C8.61287298,0.465395403 8.54225303,0.484311463 8.47405821,0.511327476 C8.42380939,0.531213589 8.37719828,0.556532007 8.32908359,0.580443847 C8.26918273,0.610030504 8.20996092,0.639859674 8.15311573,0.67584869 C8.10689264,0.705192833 8.06406475,0.738077675 8.02070332,0.77101102 C7.98752746,0.796086924 7.95129593,0.816215552 7.91957515,0.843668089 L0.846424007,6.9519547 C0.0356525979,7.65213991 -0.0538834167,8.87668799 0.646980837,9.68697438 C1.34711755,10.4967757 2.57263569,10.5865058 3.38364961,9.88627204 L7.24781253,6.54952766 L7.24781266,26.0017274 C7.24781266,27.0726189 8.11664182,27.9409146 9.18816384,27.9409146 C10.2597344,27.9409146 11.1285635,27.0726189 11.1285635,26.0017274 L11.1285634,6.50762131 L15.041035,9.88627204 C15.407667,10.2030433 15.8591303,10.3583005 16.308702,10.3583005 C16.8529995,10.3583005 17.3939988,10.1308227 17.7777038,9.68697438 C18.4783255,8.87668799 18.3892745,7.65213991 17.5782606,6.9519547 L10.5051095,0.843668089 Z" id="Shape" sketch:type="MSShapeGroup"></path>
                <path d="M23.7551095,0.843668089 C23.5083276,0.630353142 23.1890343,0.489064729 22.8602828,0.420627396 C22.6923179,0.386093462 22.5641738,0.371639652 22.4381637,0.371639652 C22.3138512,0.371639652 22.1911394,0.385365921 22.0708041,0.408792733 C22.0236595,0.417814238 21.979619,0.43391714 21.933881,0.446188327 C21.862873,0.465395403 21.792253,0.484311463 21.7240582,0.511327476 C21.6738094,0.531213589 21.6271983,0.556532007 21.5790836,0.580443847 C21.5191827,0.610030504 21.4599609,0.639859674 21.4031157,0.67584869 C21.3568926,0.705192833 21.3140647,0.738077675 21.2707033,0.77101102 C21.2375275,0.796086924 21.2012959,0.816215552 21.1695752,0.843668089 L14.096424,6.9519547 C13.2856526,7.65213991 13.1961166,8.87668799 13.8969808,9.68697438 C14.5971175,10.4967757 15.8226357,10.5865058 16.6336496,9.88627204 L20.4978125,6.54952766 L20.4978127,26.0017274 C20.4978127,27.0726189 21.3666418,27.9409146 22.4381638,27.9409146 C23.5097344,27.9409146 24.3785635,27.0726189 24.3785635,26.0017274 L24.3785634,6.50762131 L28.291035,9.88627204 C28.657667,10.2030433 29.1091303,10.3583005 29.558702,10.3583005 C30.1029995,10.3583005 30.6439988,10.1308227 31.0277038,9.68697438 C31.7283255,8.87668799 31.6392745,7.65213991 30.8282606,6.9519547 L23.7551095,0.843668089 Z" id="Shape-Copy" sketch:type="MSShapeGroup" transform="translate(22.462334, 14.156277) scale(1, -1) translate(-22.462334, -14.156277) "></path>
            </g>
        </g>
    </g>
</svg>