<?xml version="1.0" encoding="utf-8"?>
<!-- Generator: Adobe Illustrator 16.0.0, SVG Export Plug-In . SVG Version: 6.00 Build 0)  -->
<!DOCTYPE svg PUBLIC "-//W3C//DTD SVG 1.1//EN" "http://www.w3.org/Graphics/SVG/1.1/DTD/svg11.dtd">
<svg version="1.1" id="Layer_1" xmlns="http://www.w3.org/2000/svg" xmlns:xlink="http://www.w3.org/1999/xlink" x="0px" y="0px"
	 width="64px" height="64px" viewBox="0 0 64 64" style="enable-background:new 0 0 64 64;" xml:space="preserve">
<g>
	<linearGradient id="SVGID_1_" gradientUnits="userSpaceOnUse" x1="14.8306" y1="42.5537" x2="14.8306" y2="19.3491">
		<stop  offset="0" style="stop-color:#3F3F3F"/>
		<stop  offset="1" style="stop-color:#747474"/>
	</linearGradient>
	<path style="fill:url(#SVGID_1_);" d="M24.148,36.273c-3.764-1.026-4.514-1.579-5.724-1.513c-1.277,0.079-0.83,1.894-1.921,2.119
		c-1.066,0.224-3.171-1.186-4.803-2.923c-1.671-1.682-3-3.841-2.75-4.894c0.264-1.092,2.066-0.578,2.185-1.856
		c0.119-1.196-0.395-1.961-1.302-5.764c-0.75-3.236-6.001-2.276-6.225-0.116c0,0-1.237,6.328,6.211,14.052
		c0.066,0.067,0.145,0.131,0.211,0.197c0.065,0.079,0.131,0.145,0.197,0.211c7.448,7.726,13.817,6.725,13.817,6.725
		C26.201,42.353,27.346,37.156,24.148,36.273z"/>
	<linearGradient id="SVGID_2_" gradientUnits="userSpaceOnUse" x1="30.3335" y1="34.3525" x2="30.3335" y2="27.3662">
		<stop  offset="0" style="stop-color:#3F3F3F"/>
		<stop  offset="1" style="stop-color:#747474"/>
	</linearGradient>
	<path style="fill:url(#SVGID_2_);" d="M33.188,29.866h-1.908V28.01c0-0.355-0.276-0.645-0.631-0.645h-0.632
		c-0.355,0-0.645,0.289-0.645,0.645v1.855h-1.895c-0.355,0-0.632,0.276-0.632,0.632v0.632c0,0.355,0.277,0.646,0.632,0.646h1.895
		v1.947c0,0.342,0.289,0.631,0.645,0.631h0.632c0.355,0,0.631-0.289,0.631-0.631v-1.947h1.908c0.355,0,0.632-0.29,0.632-0.646
		v-0.632C33.82,30.142,33.544,29.866,33.188,29.866z"/>
	<linearGradient id="SVGID_3_" gradientUnits="userSpaceOnUse" x1="53.3223" y1="44.6514" x2="53.3223" y2="29.5908">
		<stop  offset="0" style="stop-color:#3F3F3F"/>
		<stop  offset="1" style="stop-color:#747474"/>
	</linearGradient>
	<path style="fill:url(#SVGID_3_);" d="M59.968,36.433l-2.974-0.093c-0.514-0.014-0.935-0.448-0.935-0.961v-4.842
		c0-0.527-0.422-0.946-0.948-0.946h-3.895c-0.526,0-0.948,0.419-0.948,0.946v4.988c0,0.526-0.421,0.946-0.934,0.946h-2.658
		c-0.514,0-0.658,0.317-0.316,0.698l6.409,7.197c0.343,0.382,0.908,0.382,1.249-0.013l6.266-7.185
		C60.625,36.788,60.481,36.459,59.968,36.433z"/>
	<linearGradient id="SVGID_4_" gradientUnits="userSpaceOnUse" x1="45.2773" y1="34.6289" x2="45.2773" y2="19.5811">
		<stop  offset="0" style="stop-color:#3F3F3F"/>
		<stop  offset="1" style="stop-color:#747474"/>
	</linearGradient>
	<path style="fill:url(#SVGID_4_);" d="M48.006,33.693v-4.841c0-0.512,0.421-0.948,0.947-0.974l2.961-0.091
		c0.513-0.014,0.658-0.344,0.328-0.737l-6.276-7.173c-0.328-0.394-0.896-0.394-1.236-0.014l-6.409,7.198
		c-0.342,0.382-0.197,0.697,0.315,0.697h2.658c0.514,0,0.935,0.423,0.935,0.934v5c0,0.515,0.422,0.936,0.935,0.936h3.908
		C47.584,34.629,48.006,34.208,48.006,33.693z"/>
</g>
<g>
</g>
<g>
</g>
<g>
</g>
<g>
</g>
<g>
</g>
</svg>
