<?xml version="1.0" encoding="utf-8"?>
<!-- Generator: Adobe Illustrator 16.0.0, SVG Export Plug-In . SVG Version: 6.00 Build 0)  -->
<!DOCTYPE svg PUBLIC "-//W3C//DTD SVG 1.0//EN" "http://www.w3.org/TR/2001/REC-SVG-20010904/DTD/svg10.dtd">
<svg version="1.0" id="Layer_1" xmlns="http://www.w3.org/2000/svg" xmlns:xlink="http://www.w3.org/1999/xlink" x="0px" y="0px"
	 width="64px" height="64px" viewBox="0 0 64 64" style="enable-background:new 0 0 64 64;" xml:space="preserve">
<path style="fill:#66BB30;" d="M25.615,50.293c0.065-0.012,0.131-0.012,0.184-0.012c1.119,0,2.264-0.407,3.29-1.422
	c8.909-8.924,17.831-17.844,26.752-26.766c4.487-4.475-2.461-11.423-6.948-6.935C41.13,22.91,33.379,30.672,25.615,38.438
	c-7.764-7.765-2.75-2.686-10.514-10.435c-4.488-4.488-11.422,2.461-6.948,6.947c8.922,8.909,5.066,4.986,13.989,13.91
	c1.026,1.015,2.171,1.422,3.276,1.422C25.483,50.281,25.549,50.281,25.615,50.293z"/>
</svg>
