<?xml version="1.0" encoding="utf-8"?>
<!-- Generator: Adobe Illustrator 16.0.0, SVG Export Plug-In . SVG Version: 6.00 Build 0)  -->
<!DOCTYPE svg PUBLIC "-//W3C//DTD SVG 1.0//EN" "http://www.w3.org/TR/2001/REC-SVG-20010904/DTD/svg10.dtd">
<svg version="1.0" id="Layer_1" xmlns="http://www.w3.org/2000/svg" xmlns:xlink="http://www.w3.org/1999/xlink" x="0px" y="0px"
	 width="64px" height="64px" viewBox="0 0 64 64" style="enable-background:new 0 0 64 64;" xml:space="preserve">
<path style="fill:#373179;" d="M32.001,7.292C18.354,7.292,7.293,18.354,7.293,32s11.062,24.708,24.708,24.708
	c13.646,0,24.706-11.063,24.706-24.708S45.646,7.292,32.001,7.292z M28.078,46.777c-0.351,0-1.755-1.228-2.062-1.974
	c0.921-4.295,2.104-9.992,2.806-13.322l-3.419-0.088c0-1.228,0-2.411,0.045-3.594c3.33-0.395,7.757-1.184,8.546-1.184
	c0.35,0,1.664,1.14,2.059,1.797c-0.787,3.682-2.717,12.447-3.067,14.069c-0.044,0.175-0.044,0.351,0.132,0.351
	c0.438,0,1.578-0.176,2.805-0.439c0.088,1.141,0.221,2.279,0.307,3.42C34.258,46.384,31.845,46.777,28.078,46.777z M33.994,24.073
	c-2.277,0-3.683-1.796-3.683-3.548c0-1.974,1.71-3.64,3.989-3.64c2.629,0,3.551,1.798,3.551,3.289
	C37.852,22.628,36.01,24.073,33.994,24.073z"/>
<linearGradient id="SVGID_1_" gradientUnits="userSpaceOnUse" x1="16.1167" y1="29.1094" x2="56.707" y2="29.1094">
	<stop  offset="0" style="stop-color:#FFFFFF"/>
	<stop  offset="1" style="stop-color:#FFFFFF;stop-opacity:0"/>
</linearGradient>
<path style="opacity:0.29;fill:url(#SVGID_1_);" d="M47.879,50.927c10.454-8.771,11.818-24.355,3.047-34.808
	C42.154,5.665,26.57,4.302,16.117,13.073L47.879,50.927z"/>
</svg>
