<?xml version="1.0" encoding="utf-8"?>
<!-- Generator: Adobe Illustrator 16.0.0, SVG Export Plug-In . SVG Version: 6.00 Build 0)  -->
<!DOCTYPE svg PUBLIC "-//W3C//DTD SVG 1.0//EN" "http://www.w3.org/TR/2001/REC-SVG-20010904/DTD/svg10.dtd">
<svg version="1.0" id="Layer_1" xmlns="http://www.w3.org/2000/svg" xmlns:xlink="http://www.w3.org/1999/xlink" x="0px" y="0px"
	 width="64px" height="64px" viewBox="0 0 64 64" style="enable-background:new 0 0 64 64;" xml:space="preserve">
<path style="fill:#9299A9;" d="M31.698,44.528c-4.632,0-8.396-3.764-8.396-8.396c0-4.618,3.763-8.382,8.396-8.382
	c4.619,0,8.382,3.764,8.382,8.382C40.08,40.765,36.316,44.528,31.698,44.528z M49.227,27.632c-1.344,0-2.422,1.079-2.422,2.422
	c0,1.327,1.078,2.408,2.422,2.408c1.328,0,2.408-1.081,2.408-2.408C51.635,28.711,50.555,27.632,49.227,27.632z M31.698,24.079
	c-6.672,0-12.067,5.396-12.067,12.054c0,6.672,5.395,12.066,12.067,12.066c6.658,0,12.068-5.395,12.068-12.066
	C43.766,29.475,38.355,24.079,31.698,24.079z M52.094,51.884H11.906c-2.027,0-3.685-1.657-3.685-3.685V24.303
	c0-2.027,1.658-3.684,3.685-3.684h4.224c2.014,0,3.671-1.646,3.671-3.673v-1.144c0-2.026,1.658-3.686,3.685-3.686h16.422
	c2.027,0,3.686,1.66,3.686,3.686v1.144c0,2.028,1.658,3.673,3.67,3.673h4.83c2.027,0,3.686,1.657,3.686,3.684v23.896
	C55.779,50.227,54.121,51.884,52.094,51.884z"/>
</svg>
