<?xml version="1.0" encoding="utf-8"?>
<!-- Generator: Adobe Illustrator 16.0.0, SVG Export Plug-In . SVG Version: 6.00 Build 0)  -->
<!DOCTYPE svg PUBLIC "-//W3C//DTD SVG 1.0//EN" "http://www.w3.org/TR/2001/REC-SVG-20010904/DTD/svg10.dtd">
<svg version="1.0" id="Layer_1" xmlns="http://www.w3.org/2000/svg" xmlns:xlink="http://www.w3.org/1999/xlink" x="0px" y="0px"
	 width="64px" height="64px" viewBox="0 0 64 64" style="enable-background:new 0 0 64 64;" xml:space="preserve">
<g>
	<linearGradient id="SVGID_1_" gradientUnits="userSpaceOnUse" x1="38.4824" y1="64.3701" x2="38.4824" y2="-0.2951">
		<stop  offset="0" style="stop-color:#3F3F3F"/>
		<stop  offset="1" style="stop-color:#747474"/>
	</linearGradient>
	<path style="fill:url(#SVGID_1_);" d="M53.38,44.685l-6.672-0.226c-1.146-0.025-2.093-1.012-2.093-2.157V31.419
		c0-1.158-0.948-2.105-2.105-2.105h-8.765c-1.145,0-2.092,0.947-2.092,2.105v11.225c0,1.159-0.947,2.104-2.105,2.104h-5.961
		c-1.158,0-1.475,0.712-0.698,1.568L37.26,62.475c0.763,0.856,2.025,0.856,2.776-0.013l14.053-16.134
		C54.854,45.46,54.523,44.723,53.38,44.685z"/>
	<linearGradient id="SVGID_2_" gradientUnits="userSpaceOnUse" x1="20.4478" y1="64.3701" x2="20.4478" y2="-0.2958">
		<stop  offset="0" style="stop-color:#3F3F3F"/>
		<stop  offset="1" style="stop-color:#747474"/>
	</linearGradient>
	<path style="fill:url(#SVGID_2_);" d="M26.573,38.524V27.655c0-1.157,0.947-2.146,2.105-2.172l6.66-0.222
		c1.145-0.041,1.474-0.777,0.724-1.646L22.006,7.482c-0.763-0.868-2.014-0.868-2.789-0.014L4.847,23.615
		c-0.763,0.869-0.447,1.579,0.697,1.579h5.962c1.158,0,2.105,0.948,2.105,2.105v11.225c0,1.16,0.947,2.106,2.104,2.106h8.765
		C25.625,40.631,26.573,39.685,26.573,38.524z"/>
	<linearGradient id="SVGID_3_" gradientUnits="userSpaceOnUse" x1="47.6641" y1="64.3721" x2="47.6641" y2="-0.2956">
		<stop  offset="0" style="stop-color:#3F3F3F"/>
		<stop  offset="1" style="stop-color:#747474"/>
	</linearGradient>
	<path style="fill:url(#SVGID_3_);" d="M53.384,21.921c1.256-0.838,2.263-1.937,2.992-3.265c0.104-0.188,0.074-0.42-0.074-0.574
		c-0.147-0.156-0.378-0.197-0.57-0.103c-3.376,1.649-7.494,0.534-9.578-2.593c-2.018-3.025-1.587-7.06,1.021-9.59
		c0.154-0.15,0.192-0.381,0.098-0.572c-0.096-0.191-0.304-0.298-0.515-0.266c-1.347,0.211-2.597,0.697-3.717,1.443
		c-4.278,2.852-5.439,8.653-2.588,12.931C43.305,23.611,49.105,24.772,53.384,21.921z"/>
	<linearGradient id="SVGID_4_" gradientUnits="userSpaceOnUse" x1="55.209" y1="64.3682" x2="55.209" y2="-0.2941">
		<stop  offset="0" style="stop-color:#3F3F3F"/>
		<stop  offset="1" style="stop-color:#747474"/>
	</linearGradient>
	<path style="fill:url(#SVGID_4_);" d="M56.559,33.628c-0.157,0-0.325-0.122-0.373-0.271l-0.889-2.735
		c-0.049-0.148-0.128-0.148-0.176,0l-0.889,2.735c-0.049,0.149-0.217,0.271-0.373,0.271h-2.875c-0.157,0-0.182,0.075-0.056,0.167
		l2.327,1.69c0.127,0.092,0.19,0.289,0.143,0.438l-0.889,2.734c-0.049,0.149,0.016,0.196,0.143,0.104l2.326-1.689
		c0.126-0.092,0.334-0.092,0.461,0l2.326,1.689c0.127,0.093,0.191,0.046,0.143-0.104l-0.889-2.734
		c-0.048-0.149,0.016-0.347,0.143-0.438l2.326-1.69c0.127-0.092,0.103-0.167-0.055-0.167H56.559z"/>
	<linearGradient id="SVGID_5_" gradientUnits="userSpaceOnUse" x1="33.083" y1="64.3662" x2="33.083" y2="-0.296">
		<stop  offset="0" style="stop-color:#3F3F3F"/>
		<stop  offset="1" style="stop-color:#747474"/>
	</linearGradient>
	<path style="fill:url(#SVGID_5_);" d="M31.13,5.86c0.127,0.092,0.19,0.289,0.143,0.438l-0.889,2.734
		c-0.049,0.149,0.016,0.196,0.143,0.104l2.326-1.689c0.126-0.092,0.334-0.092,0.461,0l2.326,1.689
		c0.127,0.093,0.191,0.046,0.143-0.104l-0.889-2.734c-0.048-0.149,0.016-0.347,0.143-0.438l2.326-1.69
		c0.127-0.092,0.103-0.167-0.055-0.167h-2.875c-0.157,0-0.325-0.122-0.373-0.271l-0.889-2.735c-0.049-0.148-0.128-0.148-0.176,0
		l-0.889,2.735c-0.049,0.149-0.217,0.271-0.373,0.271h-2.875c-0.157,0-0.182,0.075-0.056,0.167L31.13,5.86z"/>
</g>
</svg>
