<?xml version="1.0" encoding="utf-8"?>
<!-- Generator: Adobe Illustrator 16.0.0, SVG Export Plug-In . SVG Version: 6.00 Build 0)  -->
<!DOCTYPE svg PUBLIC "-//W3C//DTD SVG 1.0//EN" "http://www.w3.org/TR/2001/REC-SVG-20010904/DTD/svg10.dtd">
<svg version="1.0" id="Layer_1" xmlns="http://www.w3.org/2000/svg" xmlns:xlink="http://www.w3.org/1999/xlink" x="0px" y="0px"
	 width="64px" height="64px" viewBox="0 0 64 64" style="enable-background:new 0 0 64 64;" xml:space="preserve">
<path style="fill:#C0B193;" d="M26.993,46.333c0.053,0,0.105,0,0.157,0c0.869,0,1.764-0.316,2.566-1.12
	c6.988-6.987,13.975-13.974,20.976-20.975c3.514-3.514-1.935-8.948-5.447-5.435c-6.08,6.08-12.173,12.159-18.252,18.239
	c-6.08-6.08-2.158-2.093-8.238-8.171c-3.513-3.516-8.961,1.921-5.448,5.448c7.001,6.987,3.974,3.907,10.961,10.895
	c0.803,0.804,1.711,1.12,2.58,1.12C26.9,46.333,26.94,46.333,26.993,46.333z"/>
</svg>
