<?xml version="1.0" encoding="utf-8"?>
<!-- Generator: Adobe Illustrator 16.0.0, SVG Export Plug-In . SVG Version: 6.00 Build 0)  -->
<!DOCTYPE svg PUBLIC "-//W3C//DTD SVG 1.0//EN" "http://www.w3.org/TR/2001/REC-SVG-20010904/DTD/svg10.dtd">
<svg version="1.0" id="Layer_1" xmlns="http://www.w3.org/2000/svg" xmlns:xlink="http://www.w3.org/1999/xlink" x="0px" y="0px"
	 width="64px" height="64px" viewBox="0 0 64 64" style="enable-background:new 0 0 64 64;" xml:space="preserve">
<g>
	<linearGradient id="SVGID_1_" gradientUnits="userSpaceOnUse" x1="37.9346" y1="27.2148" x2="56.9268" y2="27.2148">
		<stop  offset="0" style="stop-color:#3F3F3F"/>
		<stop  offset="1" style="stop-color:#747474"/>
	</linearGradient>
	<path style="fill:url(#SVGID_1_);" d="M47.488,18.431c-0.487-0.422-0.882-0.249-0.882,0.408v3.343c0,0.658-0.54,1.184-1.185,1.184
		h-6.304c-0.657,0-1.184,0.54-1.184,1.185v0.002v4.933v0.001c0,0.644,0.526,1.171,1.184,1.171h6.594
		c0.644,0,1.197,0.539,1.224,1.183l-0.369,3.751c0.026,0.66,0.435,0.83,0.935,0.408l9.054-7.907c0.244-0.217,0.369-0.5,0.372-0.784
		s-0.115-0.566-0.358-0.783L47.488,18.431z"/>
	<linearGradient id="SVGID_2_" gradientUnits="userSpaceOnUse" x1="47.4307" y1="55.1523" x2="47.4307" y2="7.7505">
		<stop  offset="0" style="stop-color:#3F3F3F"/>
		<stop  offset="1" style="stop-color:#747474"/>
	</linearGradient>
	<path style="fill:url(#SVGID_2_);" d="M47.488,18.431c-0.487-0.422-0.882-0.249-0.882,0.408v3.343c0,0.658-0.54,1.184-1.185,1.184
		h-6.304c-0.657,0-1.184,0.54-1.184,1.185v0.002v4.933v0.001c0,0.644,0.526,1.171,1.184,1.171h6.594
		c0.644,0,1.197,0.539,1.224,1.183l-0.369,3.751c0.026,0.66,0.435,0.83,0.935,0.408l9.054-7.907c0.244-0.217,0.369-0.5,0.372-0.784
		s-0.115-0.566-0.358-0.783L47.488,18.431z"/>
	<linearGradient id="SVGID_3_" gradientUnits="userSpaceOnUse" x1="26.6934" y1="17.8604" x2="45.6855" y2="17.8604">
		<stop  offset="0" style="stop-color:#3F3F3F"/>
		<stop  offset="1" style="stop-color:#747474"/>
	</linearGradient>
	<path style="fill:url(#SVGID_3_);" d="M36.132,26.642c0.487,0.422,0.882,0.252,0.882-0.394v-3.356c0-0.657,0.539-1.184,1.185-1.184
		h6.303c0.657,0,1.185-0.541,1.185-1.186v-4.934v-0.001c0-0.646-0.527-1.172-1.185-1.172h-6.105c-0.646,0-1.198-0.538-1.224-1.184
		l-0.119-3.75c-0.026-0.646-0.434-0.83-0.934-0.408l-9.054,7.91c-0.487,0.434-0.5,1.131-0.013,1.565L36.132,26.642z"/>
	<linearGradient id="SVGID_4_" gradientUnits="userSpaceOnUse" x1="36.1895" y1="55.1523" x2="36.1894" y2="7.7505">
		<stop  offset="0" style="stop-color:#3F3F3F"/>
		<stop  offset="1" style="stop-color:#747474"/>
	</linearGradient>
	<path style="fill:url(#SVGID_4_);" d="M36.132,26.642c0.487,0.422,0.882,0.252,0.882-0.394v-3.356c0-0.657,0.539-1.184,1.185-1.184
		h6.303c0.657,0,1.185-0.541,1.185-1.186v-4.934v-0.001c0-0.646-0.527-1.172-1.185-1.172h-6.105c-0.646,0-1.198-0.538-1.224-1.184
		l-0.119-3.75c-0.026-0.646-0.434-0.83-0.934-0.408l-9.054,7.91c-0.487,0.434-0.5,1.131-0.013,1.565L36.132,26.642z"/>
	<linearGradient id="SVGID_5_" gradientUnits="userSpaceOnUse" x1="11.9595" y1="45.9824" x2="27.0923" y2="45.9824">
		<stop  offset="0" style="stop-color:#3F3F3F"/>
		<stop  offset="1" style="stop-color:#747474"/>
	</linearGradient>
	<path style="fill:url(#SVGID_5_);" d="M26.487,36.895l-6.593,7.407c-0.25,0.29-0.605,0.434-0.96,0.434
		c-0.237,0-0.487-0.064-0.698-0.208l-6.276-4.002v5.659c0,0.711,0.513,1.553,1.131,1.895l12.87,6.935
		c0.619,0.342,1.132,0.026,1.132-0.671v-16.16c0-0.461-0.237-0.973-0.553-1.369C26.513,36.841,26.513,36.866,26.487,36.895z"/>
	<linearGradient id="SVGID_6_" gradientUnits="userSpaceOnUse" x1="19.5259" y1="55.1523" x2="19.5259" y2="7.7504">
		<stop  offset="0" style="stop-color:#3F3F3F"/>
		<stop  offset="1" style="stop-color:#747474"/>
	</linearGradient>
	<path style="fill:url(#SVGID_6_);" d="M26.487,36.895l-6.593,7.407c-0.25,0.29-0.605,0.434-0.96,0.434
		c-0.237,0-0.487-0.064-0.698-0.208l-6.276-4.002v5.659c0,0.711,0.513,1.553,1.131,1.895l12.87,6.935
		c0.619,0.342,1.132,0.026,1.132-0.671v-16.16c0-0.461-0.237-0.973-0.553-1.369C26.513,36.841,26.513,36.866,26.487,36.895z"/>
	<linearGradient id="SVGID_7_" gradientUnits="userSpaceOnUse" x1="7.5303" y1="35.25" x2="25.2485" y2="35.25">
		<stop  offset="0" style="stop-color:#3F3F3F"/>
		<stop  offset="1" style="stop-color:#747474"/>
	</linearGradient>
	<path style="fill:url(#SVGID_7_);" d="M19.355,41.67l5.75-6.435c0.237-0.263,0.171-0.619-0.131-0.79l-10.514-5.776
		c-0.315-0.157-0.776-0.105-1.04,0.146l-5.725,5.448c-0.25,0.235-0.21,0.591,0.08,0.775l10.619,6.777
		C18.684,41.999,19.131,41.934,19.355,41.67z"/>
	<linearGradient id="SVGID_8_" gradientUnits="userSpaceOnUse" x1="16.3892" y1="55.1523" x2="16.3892" y2="7.7505">
		<stop  offset="0" style="stop-color:#3F3F3F"/>
		<stop  offset="1" style="stop-color:#747474"/>
	</linearGradient>
	<path style="fill:url(#SVGID_8_);" d="M19.355,41.67l5.75-6.435c0.237-0.263,0.171-0.619-0.131-0.79l-10.514-5.776
		c-0.315-0.157-0.776-0.105-1.04,0.146l-5.725,5.448c-0.25,0.235-0.21,0.591,0.08,0.775l10.619,6.777
		C18.684,41.999,19.131,41.934,19.355,41.67z"/>
	<linearGradient id="SVGID_9_" gradientUnits="userSpaceOnUse" x1="7.0728" y1="22.5381" x2="25.666" y2="22.5381">
		<stop  offset="0" style="stop-color:#3F3F3F"/>
		<stop  offset="1" style="stop-color:#747474"/>
	</linearGradient>
	<path style="fill:url(#SVGID_9_);" d="M12.736,26.983c0.671,0.226,1.724,0.119,2.329-0.235l10.185-6.053
		c0.605-0.355,0.54-0.83-0.131-1.041l-5.185-1.578c-0.671-0.211-1.737-0.079-2.342,0.263l-10.08,5.804
		c-0.618,0.355-0.579,0.828,0.092,1.065L12.736,26.983z"/>
	<linearGradient id="SVGID_10_" gradientUnits="userSpaceOnUse" x1="16.3696" y1="55.1523" x2="16.3696" y2="7.7505">
		<stop  offset="0" style="stop-color:#3F3F3F"/>
		<stop  offset="1" style="stop-color:#747474"/>
	</linearGradient>
	<path style="fill:url(#SVGID_10_);" d="M12.736,26.983c0.671,0.226,1.724,0.119,2.329-0.235l10.185-6.053
		c0.605-0.355,0.54-0.83-0.131-1.041l-5.185-1.578c-0.671-0.211-1.737-0.079-2.342,0.263l-10.08,5.804
		c-0.618,0.355-0.579,0.828,0.092,1.065L12.736,26.983z"/>
	<linearGradient id="SVGID_11_" gradientUnits="userSpaceOnUse" x1="29.9873" y1="45.9443" x2="45.1201" y2="45.9443">
		<stop  offset="0" style="stop-color:#3F3F3F"/>
		<stop  offset="1" style="stop-color:#747474"/>
	</linearGradient>
	<path style="fill:url(#SVGID_11_);" d="M38.251,44.735c-0.355,0-0.711-0.144-0.961-0.434l-6.605-7.407
		c-0.039-0.04-0.052-0.106-0.079-0.158c-0.369,0.407-0.619,0.96-0.619,1.446v16.16c0,0.697,0.513,1.013,1.132,0.671l12.869-6.935
		c0.618-0.342,1.132-1.184,1.132-1.895v-5.594l-6.172,3.937C38.725,44.671,38.488,44.735,38.251,44.735z"/>
	<linearGradient id="SVGID_12_" gradientUnits="userSpaceOnUse" x1="37.5537" y1="55.1523" x2="37.5537" y2="7.7504">
		<stop  offset="0" style="stop-color:#3F3F3F"/>
		<stop  offset="1" style="stop-color:#747474"/>
	</linearGradient>
	<path style="fill:url(#SVGID_12_);" d="M38.251,44.735c-0.355,0-0.711-0.144-0.961-0.434l-6.605-7.407
		c-0.039-0.04-0.052-0.106-0.079-0.158c-0.369,0.407-0.619,0.96-0.619,1.446v16.16c0,0.697,0.513,1.013,1.132,0.671l12.869-6.935
		c0.618-0.342,1.132-1.184,1.132-1.895v-5.594l-6.172,3.937C38.725,44.671,38.488,44.735,38.251,44.735z"/>
	<linearGradient id="SVGID_13_" gradientUnits="userSpaceOnUse" x1="31.936" y1="36.8711" x2="45.3955" y2="36.8711">
		<stop  offset="0" style="stop-color:#3F3F3F"/>
		<stop  offset="1" style="stop-color:#747474"/>
	</linearGradient>
	<path style="fill:url(#SVGID_13_);" d="M44.576,35.394l0.27-2.738h-5.728c-0.823,0-1.566-0.321-2.133-0.833l-4.774,2.623
		c-0.303,0.171-0.368,0.527-0.131,0.79l5.738,6.435c0.236,0.264,0.671,0.329,0.974,0.146l6.604-4.221
		c-0.465-0.43-0.793-1.073-0.827-1.925C44.564,35.578,44.567,35.485,44.576,35.394z"/>
	<linearGradient id="SVGID_14_" gradientUnits="userSpaceOnUse" x1="38.666" y1="55.1523" x2="38.666" y2="7.7505">
		<stop  offset="0" style="stop-color:#3F3F3F"/>
		<stop  offset="1" style="stop-color:#747474"/>
	</linearGradient>
	<path style="fill:url(#SVGID_14_);" d="M44.576,35.394l0.27-2.738h-5.728c-0.823,0-1.566-0.321-2.133-0.833l-4.774,2.623
		c-0.303,0.171-0.368,0.527-0.131,0.79l5.738,6.435c0.236,0.264,0.671,0.329,0.974,0.146l6.604-4.221
		c-0.465-0.43-0.793-1.073-0.827-1.925C44.564,35.578,44.567,35.485,44.576,35.394z"/>
</g>
</svg>
