<?xml version="1.0" encoding="utf-8"?>
<!-- Generator: Adobe Illustrator 16.0.0, SVG Export Plug-In . SVG Version: 6.00 Build 0)  -->
<!DOCTYPE svg PUBLIC "-//W3C//DTD SVG 1.1//EN" "http://www.w3.org/Graphics/SVG/1.1/DTD/svg11.dtd">
<svg version="1.1" id="Layer_1" xmlns="http://www.w3.org/2000/svg" xmlns:xlink="http://www.w3.org/1999/xlink" x="0px" y="0px"
	 width="64px" height="64px" viewBox="0 0 64 64" style="enable-background:new 0 0 64 64;" xml:space="preserve">
<linearGradient id="SVGID_1_" gradientUnits="userSpaceOnUse" x1="32.0005" y1="56.6143" x2="32.0005" y2="7.3862">
	<stop  offset="0" style="stop-color:#3F3F3F"/>
	<stop  offset="1" style="stop-color:#747474"/>
</linearGradient>
<path style="fill:url(#SVGID_1_);" d="M38.221,34.15H7.625c-0.461,0-0.83-0.367-0.83-0.815v-1.776c0-0.46,0.369-0.815,0.83-0.815
	h8.316l-0.552-10.449c-0.079-0.763,0.448-1.579,1.145-1.895c1.171-0.553,3.974-0.882,6.882-0.868c0.027,0,0.04,0,0.053,0
	c0.027,0,0.04,0,0.066,0c2.908-0.014,5.711,0.315,6.882,0.868c0.697,0.315,1.224,1.132,1.145,1.895l-0.553,10.449h6.975
	L38.221,34.15z M23.469,15.741c-2.303,0-4.171-1.868-4.171-4.185c0-2.303,1.869-4.171,4.171-4.171c2.316,0,4.185,1.868,4.185,4.171
	C27.653,13.873,25.785,15.741,23.469,15.741z M56.459,34.231c-0.053,0.538,0.04,1.946-1,2.499c-0.632,0.328-1.093,0.685-1.315,2.658
	L52.814,55.22c-0.065,0.763-0.75,1.395-1.514,1.395h-2.132h-0.118h-2.133c-0.763,0-1.446-0.632-1.512-1.395l-1.33-15.831
	c-0.21-1.974-0.684-2.33-1.303-2.658c-1.04-0.553-0.96-1.961-1.014-2.499l-0.736-13.938c-0.079-0.763,0.447-1.579,1.145-1.895
	c1.171-0.553,3.975-0.882,6.883-0.868c0.026,0,0.039,0,0.065,0c0.013,0,0.026,0,0.053,0c2.908-0.014,5.711,0.315,6.882,0.868
	c0.697,0.315,1.224,1.132,1.146,1.895L56.459,34.231z M49.116,15.741c-2.303,0-4.172-1.868-4.172-4.185
	c0-2.303,1.869-4.171,4.172-4.171s4.171,1.868,4.171,4.171C53.287,13.873,51.419,15.741,49.116,15.741z"/>
<g>
</g>
<g>
</g>
<g>
</g>
<g>
</g>
<g>
</g>
</svg>
