<?xml version="1.0" encoding="UTF-8" standalone="no"?>
<svg width="38px" height="38px" viewBox="0 0 38 38" version="1.1" xmlns="http://www.w3.org/2000/svg" xmlns:xlink="http://www.w3.org/1999/xlink" xmlns:sketch="http://www.bohemiancoding.com/sketch/ns">
    <!-- Generator: Sketch 3.3 (11970) - http://www.bohemiancoding.com/sketch -->
    <title>icon-slide6-ekskluzivne</title>
    <desc>Created with Sketch.</desc>
    <defs></defs>
    <g id="Page-1" stroke="none" stroke-width="1" fill="none" fill-rule="evenodd" sketch:type="MSPage">
        <g id="1.-Vztopna-stran" sketch:type="MSArtboardGroup" transform="translate(-1017.000000, -959.000000)" fill="#C0B193">
            <g id="Group" sketch:type="MSLayerGroup" transform="translate(182.000000, 955.000000)">
                <g id="icon-slide6-ekskluzivne-+-Ekskluzivne" transform="translate(835.000000, 4.000000)" sketch:type="MSShapeGroup">
                    <path d="M34.6895552,21.7794649 L37.9345173,18.963398 L34.6895552,16.1473311 L36.7951433,12.3768796 L32.7945008,10.8622174 L33.4971565,6.58734448 L29.2271334,6.55055184 L28.4532356,2.28800669 L24.4281779,3.73334114 L22.2600494,0 L18.9673213,2.76084615 L15.6745931,0 L13.506402,3.73334114 L9.48140692,2.28794314 L8.70744646,6.55055184 L4.4376112,6.58721739 L5.14014168,10.8620903 L1.13943657,12.3768161 L3.24489951,16.1473311 L0,18.963398 L3.24489951,21.7793378 L1.13937397,25.5499164 L5.14014168,27.0645786 L4.4375486,31.3395151 L8.70732125,31.3761806 L9.48134432,35.6387893 L13.506402,34.1933913 L15.6746557,37.926796 L18.9673213,35.1659498 L22.2599868,37.926796 L24.4282405,34.1934548 L28.4532356,35.6387893 L29.2271334,31.3762441 L33.4969687,31.3395151 L32.7943756,27.0645786 L36.7950807,25.5499164 L34.6895552,21.7794649 L34.6895552,21.7794649 Z M21.4666194,9.56017726 L20.7485008,22.6819331 L17.1575321,22.6819331 L16.4106161,9.56017726 L21.4666194,9.56017726 L21.4666194,9.56017726 Z M18.9099769,29.7094548 C17.4735519,29.7094548 16.2669423,28.4846856 16.2669423,27.0268328 C16.2669423,25.4521204 17.4735519,24.2274147 18.9099769,24.2274147 C20.4610906,24.2274147 21.6677002,25.4521204 21.6677002,27.0268328 C21.6677002,28.4846856 20.4610906,29.7094548 18.9099769,29.7094548 L18.9099769,29.7094548 Z" id="icon-slide6-ekskluzivne"></path>
                </g>
            </g>
        </g>
    </g>
</svg>