<?xml version="1.0" encoding="utf-8"?>
<!-- Generator: Adobe Illustrator 16.0.0, SVG Export Plug-In . SVG Version: 6.00 Build 0)  -->
<!DOCTYPE svg PUBLIC "-//W3C//DTD SVG 1.0//EN" "http://www.w3.org/TR/2001/REC-SVG-20010904/DTD/svg10.dtd">
<svg version="1.0" id="Layer_1" xmlns="http://www.w3.org/2000/svg" xmlns:xlink="http://www.w3.org/1999/xlink" x="0px" y="0px"
	 width="64px" height="64px" viewBox="0 0 64 64" style="enable-background:new 0 0 64 64;" xml:space="preserve">
<linearGradient id="SVGID_1_" gradientUnits="userSpaceOnUse" x1="20.1265" y1="62.25" x2="20.1265" y2="1.1255">
	<stop  offset="0" style="stop-color:#3F3F3F"/>
	<stop  offset="1" style="stop-color:#747474"/>
</linearGradient>
<polygon style="fill:url(#SVGID_1_);" points="23.89,23.278 23.89,20.853 16.272,20.853 16.272,33.014 23.98,33.014 23.98,30.588 
	19.095,30.588 19.095,27.895 23.293,27.895 23.293,25.523 19.095,25.523 19.095,23.278 "/>
<linearGradient id="SVGID_2_" gradientUnits="userSpaceOnUse" x1="30.4766" y1="62.25" x2="30.4766" y2="1.1255">
	<stop  offset="0" style="stop-color:#3F3F3F"/>
	<stop  offset="1" style="stop-color:#747474"/>
</linearGradient>
<path style="fill:url(#SVGID_2_);" d="M25.573,20.853v7.598c0,3.449,1.792,4.832,4.759,4.832c3.094,0,5.048-1.418,5.048-4.813
	v-7.618h-2.624v7.795c0,1.797-0.833,2.211-2.117,2.211c-1.212,0-2.244-0.432-2.244-2.264v-7.743H25.573z"/>
<linearGradient id="SVGID_3_" gradientUnits="userSpaceOnUse" x1="25.8257" y1="62.25" x2="25.8257" y2="1.1255">
	<stop  offset="0" style="stop-color:#3F3F3F"/>
	<stop  offset="1" style="stop-color:#747474"/>
</linearGradient>
<path style="fill:url(#SVGID_3_);" d="M30.147,45.347c0-0.691,0.063-1.391,0.153-2.09c-1.445,0.372-2.942,0.582-4.475,0.582
	c-4.737,0-9.198-1.814-12.541-5.131c-3.355-3.305-5.198-7.699-5.198-12.383c0-4.674,1.842-9.067,5.198-12.385
	c3.342-3.303,7.803-5.119,12.541-5.119c4.738,0,9.2,1.816,12.541,5.119c3.355,3.317,5.198,7.711,5.198,12.385
	c0,1.053-0.106,2.087-0.291,3.1c1.001-0.193,1.995-0.291,2.968-0.291c0.459,0,0.909,0.03,1.359,0.067
	c0.063,0.005,0.124,0.019,0.187,0.025c0.133-0.955,0.212-1.921,0.212-2.902c0-5.845-2.304-11.346-6.488-15.477
	C37.313,6.717,31.748,4.44,25.826,4.44c-5.921,0-11.501,2.276-15.686,6.408c-4.185,4.131-6.488,9.632-6.488,15.477
	c0,5.855,2.303,11.342,6.488,15.488c4.198,4.131,9.764,6.408,15.686,6.408c1.539,0,3.051-0.164,4.524-0.464
	c-0.01-0.07-0.028-0.139-0.038-0.209C30.2,46.724,30.147,46.023,30.147,45.347z"/>
<linearGradient id="SVGID_4_" gradientUnits="userSpaceOnUse" x1="51.2275" y1="62.25" x2="51.2275" y2="1.1254">
	<stop  offset="0" style="stop-color:#3F3F3F"/>
	<stop  offset="1" style="stop-color:#747474"/>
</linearGradient>
<path style="fill:url(#SVGID_4_);" d="M51.769,43.12c-1.817,0-2.668,1.173-3.818,2.507c1.242,1.402,2.116,2.667,3.91,2.667
	c2.092,0,2.645-1.035,2.645-2.575C54.505,44.108,54.021,43.12,51.769,43.12z"/>
<linearGradient id="SVGID_5_" gradientUnits="userSpaceOnUse" x1="46.2471" y1="62.25" x2="46.2471" y2="1.1255">
	<stop  offset="0" style="stop-color:#3F3F3F"/>
	<stop  offset="1" style="stop-color:#747474"/>
</linearGradient>
<path style="fill:url(#SVGID_5_);" d="M47.433,31.195c-0.395-0.033-0.789-0.061-1.191-0.061c-1.209,0-2.376,0.17-3.496,0.458
	c-5.22,1.347-9.278,5.616-10.328,10.995c-0.174,0.894-0.27,1.814-0.27,2.759c0,0.657,0.06,1.3,0.146,1.934
	c0.939,6.927,6.822,12.279,13.948,12.279c7.79,0,14.106-6.371,14.106-14.213C60.348,37.895,54.663,31.805,47.433,31.195z
	 M51.813,49.835c-2.322,0.046-3.679-1.312-5.104-2.852c-1.426,1.54-2.621,2.852-5.059,2.852c-3.496,0-4.438-1.449-4.438-4.024
	c0-2.621,1.104-4.231,4.6-4.231c2.438,0,3.656,1.38,5.059,2.806c1.38-1.495,2.598-2.806,5.059-2.806
	c3.519,0,4.438,1.495,4.438,4.024C56.367,48.225,55.263,49.742,51.813,49.835z"/>
<linearGradient id="SVGID_6_" gradientUnits="userSpaceOnUse" x1="42.375" y1="62.25" x2="42.375" y2="1.1254">
	<stop  offset="0" style="stop-color:#3F3F3F"/>
	<stop  offset="1" style="stop-color:#747474"/>
</linearGradient>
<path style="fill:url(#SVGID_6_);" d="M41.72,43.12c-2.07,0-2.646,1.012-2.646,2.529c0,1.633,0.507,2.645,2.737,2.645
	c1.793,0,2.621-1.195,3.863-2.529C44.387,44.408,43.536,43.12,41.72,43.12z"/>
<path style="fill:#FFFFFF;" d="M51.929,41.579c-2.461,0-3.679,1.311-5.059,2.806c-1.402-1.426-2.621-2.806-5.059-2.806
	c-3.495,0-4.6,1.61-4.6,4.231c0,2.575,0.942,4.024,4.438,4.024c2.438,0,3.633-1.312,5.059-2.852c1.426,1.54,2.782,2.897,5.104,2.852
	c3.449-0.093,4.554-1.61,4.554-4.231C56.367,43.074,55.447,41.579,51.929,41.579z M41.812,48.294c-2.23,0-2.737-1.012-2.737-2.645
	c0-1.518,0.575-2.529,2.646-2.529c1.816,0,2.667,1.288,3.955,2.645C44.433,47.099,43.604,48.294,41.812,48.294z M51.86,48.294
	c-1.794,0-2.668-1.265-3.91-2.667c1.15-1.334,2.001-2.507,3.818-2.507c2.253,0,2.736,0.988,2.736,2.599
	C54.505,47.259,53.952,48.294,51.86,48.294z"/>
</svg>
