<?xml version="1.0" encoding="utf-8"?>
<!-- Generator: Adobe Illustrator 16.0.0, SVG Export Plug-In . SVG Version: 6.00 Build 0)  -->
<!DOCTYPE svg PUBLIC "-//W3C//DTD SVG 1.0//EN" "http://www.w3.org/TR/2001/REC-SVG-20010904/DTD/svg10.dtd">
<svg version="1.0" id="Layer_1" xmlns="http://www.w3.org/2000/svg" xmlns:xlink="http://www.w3.org/1999/xlink" x="0px" y="0px"
	 width="64px" height="64px" viewBox="0 0 64 64" style="enable-background:new 0 0 64 64;" xml:space="preserve">
<g>
	<linearGradient id="SVGID_1_" gradientUnits="userSpaceOnUse" x1="38.0137" y1="61.1719" x2="38.0137" y2="-0.3131">
		<stop  offset="0" style="stop-color:#3F3F3F"/>
		<stop  offset="1" style="stop-color:#747474"/>
	</linearGradient>
	<path style="fill:url(#SVGID_1_);" d="M47.387,29.226V24.36c0-0.645-0.522-1.168-1.167-1.168h-6.223
		c-0.646,0-1.168-0.522-1.168-1.167v-3.313c0-0.637-0.394-0.811-0.871-0.386l-8.959,7.981c-0.478,0.424-0.478,1.122,0.007,1.546
		l8.945,7.808c0.478,0.417,0.895,0.234,0.915-0.401l0.122-3.699c0.017-0.645,0.563-1.167,1.198-1.167h6.033
		C46.864,30.395,47.387,29.871,47.387,29.226z"/>
	<linearGradient id="SVGID_2_" gradientUnits="userSpaceOnUse" x1="50.4863" y1="61.1709" x2="50.4863" y2="-0.3126">
		<stop  offset="0" style="stop-color:#3F3F3F"/>
		<stop  offset="1" style="stop-color:#747474"/>
	</linearGradient>
	<path style="fill:url(#SVGID_2_);" d="M50.548,28.347c-0.485-0.432-0.871-0.258-0.871,0.387v3.313c0,0.639-0.532,1.169-1.167,1.169
		h-6.23c-0.637,0-1.168,0.522-1.168,1.167v4.865c0,0.636,0.523,1.166,1.168,1.158l6.032,0.008c0.645-0.008,1.182,0.524,1.205,1.16
		l0.121,3.699c0.023,0.644,0.432,0.826,0.916,0.402l8.946-7.807c0.477-0.419,0.484-1.116,0.008-1.548L50.548,28.347z"/>
	<linearGradient id="SVGID_3_" gradientUnits="userSpaceOnUse" x1="19.9995" y1="61.1719" x2="19.9995" y2="-0.3132">
		<stop  offset="0" style="stop-color:#3F3F3F"/>
		<stop  offset="1" style="stop-color:#747474"/>
	</linearGradient>
	<path style="fill:url(#SVGID_3_);" d="M31.8,34.596v14.486H8.198V14.123H31.8v5.348l4.001-3.564
		c0.02-0.018,0.039-0.025,0.059-0.043V7.309c0-2.327-1.903-4.23-4.231-4.23H8.371c-2.328,0-4.232,1.903-4.232,4.23V56.69
		c0,2.327,1.904,4.231,4.232,4.231h23.258c2.328,0,4.231-1.904,4.231-4.231V38.134c-0.014-0.012-0.028-0.019-0.041-0.03L31.8,34.596
		z M16.383,7.639h7.23c0.666,0,1.205,0.539,1.205,1.206c0,0.665-0.54,1.203-1.205,1.203h-7.23c-0.665,0-1.205-0.538-1.205-1.203
		C15.178,8.178,15.718,7.639,16.383,7.639z M19.998,57.944c-1.774,0-3.213-1.437-3.213-3.213c0-1.777,1.439-3.215,3.213-3.215
		c1.777,0,3.217,1.438,3.217,3.215C23.215,56.508,21.774,57.944,19.998,57.944z"/>
</g>
</svg>
