<?xml version="1.0" encoding="utf-8"?>
<!-- Generator: Adobe Illustrator 16.0.0, SVG Export Plug-In . SVG Version: 6.00 Build 0)  -->
<!DOCTYPE svg PUBLIC "-//W3C//DTD SVG 1.1//EN" "http://www.w3.org/Graphics/SVG/1.1/DTD/svg11.dtd">
<svg version="1.1" id="Layer_1" xmlns="http://www.w3.org/2000/svg" xmlns:xlink="http://www.w3.org/1999/xlink" x="0px" y="0px"
	 width="92.877px" height="63.499px" viewBox="0 0 92.877 63.499" enable-background="new 0 0 92.877 63.499" xml:space="preserve">
<polygon fill="#E31469" points="92.807,17.436 87.828,10.626 88.645,9.323 85.824,1.669 76.43,0 70.994,4.665 69.822,10.773 
	53.313,11.319 37.319,19.518 4.812,10.523 0,14.517 8.705,31.149 6.473,36.965 12.276,50.457 3.36,58.246 4.277,63.499 
	14.733,62.863 19.748,59.871 25.298,61.322 36.133,53.019 45.91,62.482 49.898,59.391 60.076,62.371 58.295,53.348 61.976,46.396 
	66.134,46.488 68.984,37.267 65.869,33.423 85.365,21.268 83.529,17.308 92.877,18.075 "/>
</svg>
