<?xml version="1.0" encoding="utf-8"?>
<!-- Generator: Adobe Illustrator 16.0.0, SVG Export Plug-In . SVG Version: 6.00 Build 0)  -->
<!DOCTYPE svg PUBLIC "-//W3C//DTD SVG 1.0//EN" "http://www.w3.org/TR/2001/REC-SVG-20010904/DTD/svg10.dtd">
<svg version="1.0" id="Layer_1" xmlns="http://www.w3.org/2000/svg" xmlns:xlink="http://www.w3.org/1999/xlink" x="0px" y="0px"
	 width="64px" height="64px" viewBox="0 0 64 64" style="enable-background:new 0 0 64 64;" xml:space="preserve">
<g>
	<linearGradient id="SVGID_1_" gradientUnits="userSpaceOnUse" x1="15.522" y1="58.1709" x2="15.522" y2="4.7184">
		<stop  offset="0" style="stop-color:#4A4A4A"/>
		<stop  offset="1" style="stop-color:#666666"/>
	</linearGradient>
	<path style="fill:url(#SVGID_1_);" d="M21.939,16.191H2.708c-1.286,0-2.326,0.988-2.326,2.208v29.185
		c0,1.225,1.04,2.201,2.326,2.201h2.898h16.333h5.81c1.611,0,2.913-1.234,2.913-2.757v-11.07h-1.379
		c-0.962,0-1.739-0.741-1.739-1.652v-4.003c0-0.905,0.776-1.646,1.739-1.646h1.379v-4.343l-6.942-8.069L21.939,16.191z
		 M8.024,29.381c0,0.973-0.859,1.77-1.915,1.77c-1.05,0-1.909-0.797-1.909-1.77v-7.616C4.2,20.792,5.06,20,6.109,20
		c1.055,0,1.915,0.792,1.915,1.765V29.381z M15.547,29.381c0,0.973-0.859,1.77-1.909,1.77c-1.055,0-1.914-0.797-1.914-1.77v-7.616
		c0-0.973,0.859-1.765,1.914-1.765c1.05,0,1.909,0.792,1.909,1.765V29.381z M23.123,29.381c0,0.973-0.86,1.77-1.909,1.77
		c-1.055,0-1.899-0.797-1.899-1.77v-7.616c0-0.973,0.844-1.765,1.899-1.765c1.049,0,1.909,0.792,1.909,1.765V29.381z"/>
	<linearGradient id="SVGID_2_" gradientUnits="userSpaceOnUse" x1="56.6758" y1="58.1699" x2="56.6758" y2="4.7199">
		<stop  offset="0" style="stop-color:#4A4A4A"/>
		<stop  offset="1" style="stop-color:#666666"/>
	</linearGradient>
	<path style="fill:url(#SVGID_2_);" d="M53.15,7l-3.417,3.412c0.041,0.036,0.082,0.073,0.124,0.108
		c11.865,11.867,11.896,31.155,0.102,43.073L53.377,57c13.688-13.813,13.658-36.115-0.114-49.887C53.223,7.072,53.181,7.036,53.15,7
		z"/>
	<linearGradient id="SVGID_3_" gradientUnits="userSpaceOnUse" x1="35.8213" y1="58.1738" x2="35.8213" y2="4.7133">
		<stop  offset="0" style="stop-color:#4A4A4A"/>
		<stop  offset="1" style="stop-color:#666666"/>
	</linearGradient>
	<path style="fill:url(#SVGID_3_);" d="M35.869,24.276l-3.412,3.412c0.042,0.036,0.083,0.072,0.119,0.108
		c2.347,2.342,2.377,6.129,0.108,8.517l3.412,3.412c4.153-4.277,4.122-11.111-0.107-15.341
		C35.946,24.348,35.906,24.317,35.869,24.276z"/>
	<linearGradient id="SVGID_4_" gradientUnits="userSpaceOnUse" x1="46.7988" y1="58.168" x2="46.7988" y2="4.7201">
		<stop  offset="0" style="stop-color:#4A4A4A"/>
		<stop  offset="1" style="stop-color:#666666"/>
	</linearGradient>
	<path style="fill:url(#SVGID_4_);" d="M45.081,15.291c-0.041-0.036-0.082-0.072-0.124-0.108l-3.406,3.412
		c0.036,0.041,0.083,0.072,0.118,0.108c7.354,7.358,7.386,19.298,0.108,26.708l3.417,3.406
		C54.365,39.519,54.334,24.548,45.081,15.291z"/>
</g>
</svg>
