<?xml version="1.0" encoding="UTF-8" standalone="no"?>
<svg
   xmlns:dc="http://purl.org/dc/elements/1.1/"
   xmlns:cc="http://creativecommons.org/ns#"
   xmlns:rdf="http://www.w3.org/1999/02/22-rdf-syntax-ns#"
   xmlns:svg="http://www.w3.org/2000/svg"
   xmlns="http://www.w3.org/2000/svg"
   viewBox="0 0 85.333336 85.333336"
   height="85.333336"
   width="85.333336"
   xml:space="preserve"
   version="1.1"
   id="svg2"><metadata
     id="metadata8"><rdf:RDF><cc:Work
         rdf:about=""><dc:format>image/svg+xml</dc:format><dc:type
           rdf:resource="http://purl.org/dc/dcmitype/StillImage" /></cc:Work></rdf:RDF></metadata><defs
     id="defs6"><clipPath
       id="clipPath16"
       clipPathUnits="userSpaceOnUse"><path
         id="path18"
         d="M 0,64 64,64 64,0 0,0 0,64 Z" /></clipPath></defs><g
     transform="matrix(1.3333333,0,0,-1.3333333,0,85.333333)"
     id="g10"><g
       id="g12"><g
         clip-path="url(#clipPath16)"
         id="g14"><g
           transform="translate(55.3936,49.1577)"
           id="g20"><path
             id="path22"
             style="fill:#ffffff;fill-opacity:1;fill-rule:nonzero;stroke:none"
             d="m 0,0 -13.927,13.334 c -0.993,0.951 -2.312,1.482 -3.687,1.482 l -25.483,0 c -2.945,0 -5.333,-2.388 -5.333,-5.334 l 0,-53.331 c 0,-2.949 2.388,-5.334 5.333,-5.334 l 39.406,0 c 2.948,0 5.334,2.385 5.334,5.334 l 0,39.999 C 1.643,-2.395 1.049,-1.006 0,0" /></g><g
           transform="translate(55.3936,49.1577)"
           id="g24"><path
             id="path26"
             style="fill:#dd1f26;fill-opacity:1;fill-rule:nonzero;stroke:none"
             d="m 0,0 -13.927,13.334 c -0.993,0.951 -2.312,1.482 -3.687,1.482 l -25.483,0 c -2.945,0 -5.333,-2.388 -5.333,-5.334 l 0,-53.331 c 0,-2.949 2.388,-5.334 5.333,-5.334 l 39.406,0 c 2.948,0 5.334,2.385 5.334,5.334 l 0,39.999 C 1.643,-2.395 1.049,-1.006 0,0" /></g><g
           transform="translate(47.9121,22.957)"
           id="g28"><path
             id="path30"
             style="fill:#ffffff;fill-opacity:1;fill-rule:nonzero;stroke:none"
             d="m 0,0 -0.194,-0.119 -0.158,-0.162 c -0.152,-0.156 -0.443,-0.178 -0.603,-0.178 -0.416,0 -0.889,0.141 -1.337,0.385 C -1.375,0.051 -0.566,0.1 0.113,0.084 0.073,0.049 0.035,0.021 0,0 m -17.975,-1.016 0.074,0.127 -0.511,-0.218 c 0.024,0.08 0.042,0.148 0.056,0.205 0.84,2.293 2.204,7.672 3.223,11.886 l 0.017,-0.035 0.112,0.483 c 1.396,-2.262 4.041,-6.155 6.236,-9.237 L -8.796,2.19 -8.754,2.133 c -3.167,-0.897 -6.435,-2.067 -9.221,-3.149 m 1.893,27.038 c 0.121,-0.787 0.138,-1.841 -0.008,-3.03 -0.144,1.022 -0.166,2.055 0.008,3.03 m -12,-36.616 -0.075,-0.097 c -0.703,-0.989 -1.813,-2.164 -3.102,-2.164 -0.394,0 -0.72,0.107 -0.951,0.218 0.403,0.627 1.363,1.651 2.72,2.465 l 0.168,0.113 c 0.229,0.172 1.14,0.672 2.637,1.401 -0.574,-0.852 -1.068,-1.535 -1.397,-1.936 M 2.121,3.391 1.86,3.463 C 0.19,3.795 -2.083,3.662 -5.011,3.061 -7.729,6.805 -11.356,12.174 -12.458,14.1 l -0.093,0.146 c -0.213,0.3 -0.722,1.102 -1.292,2.204 0.543,2.362 0.993,4.4 1.15,5.217 0.319,1.876 0.797,6.459 -1.66,8.474 l -0.206,0.146 c -0.447,0.271 -0.926,0.409 -1.426,0.409 -0.731,0 -2.111,-0.317 -3.158,-2.437 l -0.095,-0.235 c -1.324,-4.054 0.095,-8.665 1.646,-12.004 -1.439,-6.184 -3.239,-13.401 -4.133,-15.78 l -0.068,-0.226 c -0.032,-0.143 -0.255,-0.936 -1.535,-3.231 -3.321,-1.441 -6.966,-3.172 -8.062,-3.949 -1.675,-1.023 -4.692,-3.525 -4.574,-5.975 0.046,-0.943 0.537,-1.73 1.358,-2.193 0.947,-0.686 2.157,-1.076 3.347,-1.076 1.539,0 3.82,0.627 5.962,3.605 1.049,1.291 2.943,4.174 4.466,6.791 3.4,1.442 9.182,3.742 14.353,5.08 0.258,-0.338 0.492,-0.636 0.698,-0.892 l 0.14,-0.125 c 1.303,-1.274 3.054,-2.006 4.685,-2.006 l 0.001,0 c 1.163,0 2.217,0.361 2.993,1.072 0.967,0.674 2.255,2.177 2.09,3.853 -0.11,1.125 -0.842,1.997 -2.008,2.423" /></g></g></g></g></svg>