<?xml version="1.0" encoding="utf-8"?>
<!-- Generator: Adobe Illustrator 16.0.0, SVG Export Plug-In . SVG Version: 6.00 Build 0)  -->
<!DOCTYPE svg PUBLIC "-//W3C//DTD SVG 1.0//EN" "http://www.w3.org/TR/2001/REC-SVG-20010904/DTD/svg10.dtd">
<svg version="1.0" id="Layer_1" xmlns="http://www.w3.org/2000/svg" xmlns:xlink="http://www.w3.org/1999/xlink" x="0px" y="0px"
	 width="64px" height="64px" viewBox="0 0 64 64" style="enable-background:new 0 0 64 64;" xml:space="preserve">
<linearGradient id="SVGID_1_" gradientUnits="userSpaceOnUse" x1="32.0005" y1="58.7646" x2="32.0005" y2="5.2354">
	<stop  offset="0" style="stop-color:#3F3F3F"/>
	<stop  offset="1" style="stop-color:#747474"/>
</linearGradient>
<path style="fill:url(#SVGID_1_);" d="M16.197,52.191c-1.002-0.782-2.453-0.57-3.229,0.461c-0.792,1.04-0.615,2.51,0.401,3.294
	c0.998,0.794,2.462,0.586,3.241-0.458C17.387,54.456,17.211,52.977,16.197,52.191z M53.385,18.303L49.76,23.11
	c-0.315,0.413-0.986,0.819-1.505,0.896l-5.074-0.119L18.452,56.63c-1.897,2.524-3.819,2.799-6.268,0.884
	c-2.448-1.914-2.691-3.855-0.782-6.375l24.719-32.761l-1.429-4.947c-0.065-0.514,0.14-1.289,0.455-1.703l3.622-4.795
	c0.319-0.427,1.003-0.826,1.504-0.896l5.538-0.785c0.514-0.064,0.951,0.079,0.989,0.322c0.032,0.258-0.215,0.803-0.517,1.22
	l-3.554,4.706c-0.319,0.426-0.251,1.023,0.162,1.34l3.81,2.968c0.4,0.313,1.001,0.231,1.317-0.182l3.553-4.705
	c0.32-0.426,0.775-0.797,1.017-0.822c0.242-0.036,0.496,0.355,0.563,0.869l0.702,5.637C53.915,17.131,53.701,17.89,53.385,18.303z"
	/>
</svg>
