<?xml version="1.0" encoding="UTF-8" standalone="no"?>
<svg width="38px" height="38px" viewBox="0 0 38 38" version="1.1" xmlns="http://www.w3.org/2000/svg" xmlns:xlink="http://www.w3.org/1999/xlink" xmlns:sketch="http://www.bohemiancoding.com/sketch/ns">
    <!-- Generator: Sketch 3.3 (11970) - http://www.bohemiancoding.com/sketch -->
    <title>icon-slide1-20prihranka</title>
    <desc>Created with Sketch.</desc>
    <defs></defs>
    <g id="Page-1" stroke="none" stroke-width="1" fill="none" fill-rule="evenodd" sketch:type="MSPage">
        <g id="1.-Vztopna-stran" sketch:type="MSArtboardGroup" transform="translate(-182.000000, -958.000000)" fill="#C0B193">
            <g id="Group" sketch:type="MSLayerGroup" transform="translate(182.000000, 955.000000)">
                <g id="icon-slide1-20prihranka-+-20€-prihranka-" transform="translate(0.000000, 3.000000)" sketch:type="MSShapeGroup">
                    <g id="icon-slide1-20prihranka">
                        <path d="M11.6995597,11.1305157 C10.5438618,11.1305157 10.1791025,11.5785 10.1791025,13.9301113 C10.1791025,16.5198292 10.6040283,16.9665863 11.668223,16.9665863 C12.9755905,16.9665863 13.2501001,16.5198292 13.2501001,14.168218 C13.2501001,11.5785 12.8239208,11.1305157 11.6995597,11.1305157" id="Fill-1"></path>
                        <path d="M26.1106861,20.6290121 C24.9562417,20.6290121 24.5914823,21.0757691 24.5914823,23.4273803 C24.5914823,26.0170983 25.0164081,26.4650827 26.0818563,26.4650827 C27.3892239,26.4650827 27.6612265,26.0170983 27.6612265,23.6654871 C27.6612265,21.0757691 27.2363007,20.6290121 26.1106861,20.6290121" id="Fill-2"></path>
                        <path d="M18.9207912,0.28683871 C8.47187849,0.28683871 0.00093891558,8.58130037 0.00093891558,18.8125274 C0.00093891558,29.0437545 8.47187849,37.3382161 18.9207912,37.3382161 C29.369704,37.3382161 37.8393901,29.0437545 37.8393901,18.8125274 C37.8393901,8.58130037 29.369704,0.28683871 18.9207912,0.28683871 L18.9207912,0.28683871 Z M6.43875271,14.0197081 C6.43875271,10.2382289 7.56436735,8.45242815 11.7910629,8.45242815 C15.9864217,8.45242815 16.9904499,10.1793159 16.9904499,14.0197081 C16.9904499,17.8601003 15.8949185,19.676585 11.7910629,19.676585 C7.53303064,19.676585 6.43875271,17.8895568 6.43875271,14.0197081 L6.43875271,14.0197081 Z M16.2295945,28.8461504 L12.398995,28.8461504 L21.6734079,8.66107842 L25.4739241,8.66107842 L16.2295945,28.8461504 L16.2295945,28.8461504 Z M26.2021893,29.1738541 C21.9454105,29.1738541 20.8511326,27.3880533 20.8511326,23.5169772 C20.8511326,19.735498 21.9767472,17.9496972 26.2021893,17.9496972 C30.3988015,17.9496972 31.4028297,19.676585 31.4028297,23.5169772 C31.4028297,27.3573694 30.3072983,29.1738541 26.2021893,29.1738541 L26.2021893,29.1738541 Z" id="Fill-3"></path>
                    </g>
                </g>
            </g>
        </g>
    </g>
</svg>