<?xml version="1.0" encoding="utf-8"?>
<!-- Generator: Adobe Illustrator 16.0.0, SVG Export Plug-In . SVG Version: 6.00 Build 0)  -->
<!DOCTYPE svg PUBLIC "-//W3C//DTD SVG 1.0//EN" "http://www.w3.org/TR/2001/REC-SVG-20010904/DTD/svg10.dtd">
<svg version="1.0" id="Layer_1" xmlns="http://www.w3.org/2000/svg" xmlns:xlink="http://www.w3.org/1999/xlink" x="0px" y="0px"
	 width="64px" height="64px" viewBox="0 0 64 64" style="enable-background:new 0 0 64 64;" xml:space="preserve">
<g>
	<path style="fill:none;" d="M38.22,20.294c0.254,0.06,0.507,0.122,0.757,0.193v-0.193H38.22z"/>
	<path style="fill:none;" d="M39.937,29.36c-3.104-2.646-7.763-2.619-10.83,0.041c-0.316,0.275-0.619,0.578-0.895,0.906
		c-2.974,3.501-2.54,8.751,0.96,11.724c3.093,2.633,7.752,2.621,10.817-0.053c0.316-0.275,0.619-0.578,0.896-0.906
		c1.446-1.684,2.131-3.844,1.96-6.055C42.661,32.808,41.622,30.795,39.937,29.36z M34.687,39.242h-5.352
		c-0.359-0.525-0.636-1.101-0.821-1.711h6.173c0.473,0,0.855,0.381,0.855,0.857C35.542,38.861,35.159,39.242,34.687,39.242z
		 M34.687,35.809h-6.442c-0.012-0.589,0.057-1.167,0.203-1.725h6.239c0.473,0,0.855,0.381,0.855,0.855
		C35.542,35.426,35.159,35.809,34.687,35.809z M34.687,32.36h-5.495c0.165-0.264,0.344-0.522,0.549-0.764
		c0.199-0.237,0.428-0.468,0.676-0.684c0.114-0.099,0.244-0.172,0.364-0.262h3.905c0.473,0,0.855,0.382,0.855,0.856
		C35.542,31.979,35.159,32.36,34.687,32.36z"/>
	<path style="fill:#C0B193;" d="M21.172,27.203H17.5c-0.474,0-0.855,0.382-0.855,0.854c0,0.475,0.382,0.87,0.855,0.87h2.724
		C20.501,28.337,20.817,27.763,21.172,27.203z"/>
	<path style="fill:#C0B193;" d="M17.5,35.809h1.211c-0.005-0.575,0.015-1.15,0.073-1.725H17.5c-0.474,0-0.855,0.381-0.855,0.855
		C16.645,35.426,17.026,35.809,17.5,35.809z"/>
	<path style="fill:#C0B193;" d="M17.5,30.65c-0.474,0-0.855,0.382-0.855,0.856c0,0.473,0.382,0.854,0.855,0.854h1.55
		c0.123-0.577,0.287-1.146,0.475-1.71H17.5z"/>
	<path style="fill:#C0B193;" d="M34.687,30.65h-3.905c-0.12,0.089-0.25,0.163-0.364,0.262c-0.248,0.216-0.477,0.447-0.676,0.684
		c-0.206,0.242-0.384,0.5-0.549,0.764h5.495c0.473,0,0.855-0.381,0.855-0.854C35.542,31.032,35.159,30.65,34.687,30.65z"/>
	<path style="fill:#C0B193;" d="M34.687,34.084h-6.239c-0.146,0.558-0.215,1.136-0.203,1.725h6.442c0.473,0,0.855-0.383,0.855-0.869
		C35.542,34.465,35.159,34.084,34.687,34.084z"/>
	<path style="fill:#C0B193;" d="M34.687,37.531h-6.173c0.185,0.61,0.462,1.186,0.821,1.711h5.352c0.473,0,0.855-0.381,0.855-0.854
		C35.542,37.912,35.159,37.531,34.687,37.531z"/>
	<path style="fill:#C0B193;" d="M17.5,39.242h1.618c-0.129-0.565-0.229-1.136-0.296-1.711H17.5c-0.474,0-0.855,0.381-0.855,0.857
		C16.645,38.861,17.026,39.242,17.5,39.242z"/>
	<path style="fill:#C0B193;" d="M22.462,25.42c0.5-0.585,1.054-1.143,1.647-1.665H17.5c-0.474,0-0.855,0.394-0.855,0.867
		s0.382,0.855,0.855,0.855h4.918C22.434,25.459,22.447,25.439,22.462,25.42z"/>
	<path style="fill:#C0B193;" d="M13.197,42.664V9.962h15.462v8.607c0,0.921,0.79,1.725,1.724,1.725h0.493h7.344h0.757v0.193
		c1.193,0.344,2.342,0.823,3.421,1.435V17.82c0-0.907-0.369-1.777-1.04-2.408l-8.856-8.317c-0.631-0.592-1.25-0.579-2.119-0.579
		H13.197c-1.882,0-3.435,1.605-3.435,3.447v32.702c0,1.842,1.316,3.434,3.185,3.434h9.658c-0.923-1.059-1.694-2.21-2.291-3.434
		H13.197z M31.843,11.095l5.396,5.066h-5.396V11.095z"/>
	<path style="fill:#C0B193;" d="M53.175,50.824l-7.04-7.541c1.685-2.568,2.487-5.607,2.237-8.711
		c-0.303-3.699-2.026-7.042-4.843-9.436c-5.172-4.409-12.936-4.369-18.055,0.079c-0.527,0.46-1.027,0.96-1.487,1.499
		c-4.948,5.83-4.237,14.594,1.592,19.543c4.08,3.473,9.779,4.158,14.515,2.117c0.053,0.066,0.105,0.146,0.157,0.211l7.134,7.631
		c0.854,0.936,2.065,1.357,3.236,1.252c0.855-0.08,1.685-0.422,2.355-1.053C54.583,54.928,54.662,52.416,53.175,50.824z
		 M40.885,41.072c-0.276,0.328-0.579,0.631-0.896,0.906c-3.065,2.674-7.724,2.686-10.817,0.053c-3.5-2.973-3.935-8.223-0.96-11.724
		c0.276-0.328,0.579-0.631,0.895-0.906c3.067-2.66,7.726-2.687,10.83-0.041c1.686,1.436,2.725,3.448,2.908,5.658
		C43.016,37.229,42.331,39.389,40.885,41.072z"/>
</g>
</svg>
