<?xml version="1.0" encoding="utf-8"?>
<!-- Generator: Adobe Illustrator 16.0.0, SVG Export Plug-In . SVG Version: 6.00 Build 0)  -->
<!DOCTYPE svg PUBLIC "-//W3C//DTD SVG 1.0//EN" "http://www.w3.org/TR/2001/REC-SVG-20010904/DTD/svg10.dtd">
<svg version="1.0" id="Layer_1" xmlns="http://www.w3.org/2000/svg" xmlns:xlink="http://www.w3.org/1999/xlink" x="0px" y="0px"
	 width="64px" height="64px" viewBox="0 0 64 64" style="enable-background:new 0 0 64 64;" xml:space="preserve">
<linearGradient id="SVGID_1_" gradientUnits="userSpaceOnUse" x1="32" y1="57.8086" x2="32" y2="6.1914">
	<stop  offset="0" style="stop-color:#3F3F3F"/>
	<stop  offset="1" style="stop-color:#747474"/>
</linearGradient>
<path style="fill:url(#SVGID_1_);" d="M7.02,10.579c0,0-2.737,14.082,13.843,31.267c0.146,0.158,0.303,0.303,0.447,0.447
	c0.158,0.157,0.29,0.316,0.448,0.473c16.567,17.174,30.74,14.949,30.74,14.949c4.802-0.342,7.355-11.936,0.249-13.868
	c-8.383-2.305-10.054-3.513-12.738-3.356c-2.842,0.17-1.842,4.211-4.289,4.711c-2.369,0.475-7.04-2.658-10.672-6.514
	c-3.71-3.764-6.685-8.553-6.119-10.895c0.592-2.423,4.593-1.277,4.856-4.119c0.263-2.687-0.895-4.384-2.895-12.845
	C19.205,3.657,7.533,5.789,7.02,10.579z"/>
</svg>
