<?xml version="1.0" encoding="UTF-8" standalone="no"?>
<svg width="67px" height="61px" viewBox="0 0 67 61" version="1.1" xmlns="http://www.w3.org/2000/svg" xmlns:xlink="http://www.w3.org/1999/xlink" xmlns:sketch="http://www.bohemiancoding.com/sketch/ns">
    <!-- Generator: Sketch 3.3.2 (12043) - http://www.bohemiancoding.com/sketch -->
    <title>Imported Layers</title>
    <desc>Created with Sketch.</desc>
    <defs></defs>
    <g id="Final" stroke="none" stroke-width="1" fill="none" fill-rule="evenodd" sketch:type="MSPage">
        <g id="poslovni-landing-page-copy-6" sketch:type="MSArtboardGroup" transform="translate(-227.000000, -649.000000)" fill="#6E7683">
            <g id="Group-+-Group" sketch:type="MSLayerGroup" transform="translate(227.500000, 643.000000)">
                <g id="Group" transform="translate(0.000000, 6.000000)" sketch:type="MSShapeGroup">
                    <g id="Imported-Layers" transform="translate(0.000000, 0.500000)">
                        <path d="M62.4655704,0 L3.56552425,0 L0.150900693,20.880303 C0.137487298,21.0242424 0.129713626,21.1174242 0.129713626,21.264697 C0.129713626,23.8419697 2.23150115,25.905303 4.82440185,25.905303 C7.41730254,25.905303 9.51924249,23.8360606 9.51924249,21.2586364 C9.51924249,21.2362121 9.51787067,21.3636364 9.51741339,21.2121212 L9.52137644,21.2121212 C9.52107159,21.3636364 9.51969977,21.2231818 9.51969977,21.2456061 C9.51969977,23.8228788 11.6214873,25.8957576 14.214388,25.8957576 C16.8071363,25.8957576 18.9092286,23.8312121 18.9092286,21.2537879 C18.9092286,21.2315152 18.9078568,21.3636364 18.907552,21.2121212 L18.9112102,21.2121212 C18.9109053,21.3636364 18.9095335,21.2231818 18.9095335,21.2456061 C18.9095335,23.8228788 21.0114734,25.8957576 23.6043741,25.8957576 C26.19697,25.8957576 28.2989099,23.8312121 28.2989099,21.2537879 C28.2989099,21.2315152 28.2976905,21.3636364 28.2973857,21.2121212 L28.3011963,21.2121212 C28.3008915,21.3636364 28.2995196,21.2231818 28.2995196,21.2456061 C28.2995196,23.8228788 30.4013072,25.8957576 32.9940554,25.8957576 C35.5871085,25.8957576 37.6890485,23.8312121 37.6890485,21.2537879 C37.6890485,21.2315152 37.6875242,21.3636364 37.6873718,21.2121212 L37.6908776,21.2121212 C37.6908776,21.3636364 37.6895058,21.2231818 37.6895058,21.2456061 C37.6895058,23.8228788 39.7912933,25.8957576 42.3840416,25.8957576 C44.9769423,25.8957576 47.0788822,23.8312121 47.0788822,21.2537879 C47.0788822,21.2315152 47.077358,21.3636364 47.0770531,21.2121212 L47.0810162,21.2121212 C47.0805589,21.3636364 47.0791871,21.2231818 47.0791871,21.2456061 C47.0791871,23.8228788 49.181127,25.8957576 51.7738753,25.8957576 C54.366776,25.8957576 56.4687159,23.8312121 56.4687159,21.2537879 C56.4687159,21.2315152 56.4671917,21.3636364 56.4671917,21.2121212 L56.4706975,21.2121212 C56.4706975,21.3636364 56.4691732,21.2231818 56.4691732,21.2456061 C56.4691732,23.8228788 58.5709607,25.8957576 61.163709,25.8957576 C63.7566097,25.8957576 65.8585497,23.8312121 65.8585497,21.2537879 C65.8585497,21.2315152 65.8573303,21.3636364 65.8567206,21.2121212 L65.880194,21.2121212 L62.4655704,0" id="Fill-1"></path>
                        <path id="Fill-2" d="M28.1972425,20.9554545 L28.1972425,20.9554545 C28.1972425,20.9554545 28.1978522,20.9539394 28.198157,20.9537879 L28.1973949,20.9522727 C28.1973949,20.9533333 28.1972425,20.9543939 28.1972425,20.9554545"></path>
                        <path id="Fill-3" d="M28.198157,20.9537879 C28.1983095,20.9542424 28.199224,20.9560606 28.199224,20.9560606 C28.199224,20.9560606 28.1998337,20.954697 28.1998337,20.9545455 L28.1998337,20.9504545 C28.1993764,20.9513636 28.1983095,20.9533333 28.198157,20.9537879"></path>
                        <path d="M56.3353441,24.2222727 C55.289709,25.6812121 53.5782818,26.6343939 51.6437044,26.6343939 C49.7089746,26.6343939 47.9957182,25.6813636 46.9502356,24.2224242 C45.9047529,25.6813636 44.1907344,26.6343939 42.2563095,26.6343939 C40.3217321,26.6343939 38.6069515,25.6812121 37.5616212,24.2222727 C36.5159861,25.6812121 34.801358,26.6343939 32.866933,26.6343939 C30.9323557,26.6343939 29.2174226,25.6812121 28.17194,24.2222727 C27.1266097,25.6812121 25.4118291,26.6343939 23.4772517,26.6343939 C21.5425219,26.6343939 19.8275889,25.6813636 18.7822587,24.2225758 C17.7366236,25.6815152 16.021843,26.634697 14.087418,26.634697 C12.1560416,26.634697 10.4435473,25.685 9.39760739,24.2304545 C8.35273441,25.6959091 6.62240647,26.6545455 4.68462818,26.6545455 C4.06517321,26.6545455 3.50577367,26.5559091 2.8960739,26.3757576 L2.8960739,60 L63.1039261,60 L63.1039261,26.2692424 C62.4942263,26.5272727 61.7621293,26.6722727 61.0240878,26.6722727 C59.089358,26.6722727 57.3808268,25.6812121 56.3353441,24.2222727 L56.3353441,24.2222727 Z M59.9030023,48.7878788 L38.8683603,48.7878788 L38.8683603,56.969697 L27.1316397,56.969697 L27.1316397,48.7878788 L6.24942263,48.7878788 L6.24942263,29.5454545 L59.9030023,29.5454545 L59.9030023,48.7878788 L59.9030023,48.7878788 Z" id="Fill-4"></path>
                    </g>
                </g>
            </g>
        </g>
    </g>
</svg>