<?xml version="1.0" encoding="utf-8"?>
<!-- Generator: Adobe Illustrator 16.0.0, SVG Export Plug-In . SVG Version: 6.00 Build 0)  -->
<!DOCTYPE svg PUBLIC "-//W3C//DTD SVG 1.0//EN" "http://www.w3.org/TR/2001/REC-SVG-20010904/DTD/svg10.dtd">
<svg version="1.0" id="Layer_1" xmlns="http://www.w3.org/2000/svg" xmlns:xlink="http://www.w3.org/1999/xlink" x="0px" y="0px"
	 width="64px" height="64px" viewBox="0 0 64 64" style="enable-background:new 0 0 64 64;" xml:space="preserve">
<g>
	<linearGradient id="SVGID_1_" gradientUnits="userSpaceOnUse" x1="32.0005" y1="40.6816" x2="32.0005" y2="9.4614">
		<stop  offset="0" style="stop-color:#3F3F3F"/>
		<stop  offset="1" style="stop-color:#747474"/>
	</linearGradient>
	<path style="fill:url(#SVGID_1_);" d="M51.055,38.944c-1.646,1.842-4.475,2.014-6.317,0.382
		c-13.37-11.829-24.002-1.289-25.173-0.052c-0.882,0.934-2.066,1.407-3.264,1.407c-1.092,0-2.184-0.395-3.039-1.196
		c-1.803-1.672-1.921-4.476-0.25-6.291c5.948-6.461,21.476-14.897,37.662-0.566C52.515,34.272,52.686,37.089,51.055,38.944z
		 M62.622,28.536c-1.646,1.855-4.476,2.026-6.317,0.381c-26.24-23.239-47.4-0.854-48.282,0.105c-0.881,0.961-2.079,1.447-3.29,1.447
		c-1.079,0-2.171-0.394-3.027-1.184c-1.829-1.672-1.934-4.5-0.263-6.316c0.276-0.303,28.056-29.74,60.796-0.75
		C64.082,23.864,64.253,26.693,62.622,28.536z"/>
	<linearGradient id="SVGID_2_" gradientUnits="userSpaceOnUse" x1="31.5688" y1="40.0518" x2="31.5688" y2="54.5391">
		<stop  offset="0" style="stop-color:#E78601"/>
		<stop  offset="1" style="stop-color:#D27A02"/>
	</linearGradient>
	<path style="fill:url(#SVGID_2_);" d="M38.813,47.302c0,4-3.251,7.237-7.251,7.237s-7.237-3.237-7.237-7.237
		c0-4.002,3.237-7.25,7.237-7.25S38.813,43.3,38.813,47.302z"/>
</g>
</svg>
