<?xml version="1.0" encoding="utf-8"?>
<!-- Generator: Adobe Illustrator 16.0.0, SVG Export Plug-In . SVG Version: 6.00 Build 0)  -->
<!DOCTYPE svg PUBLIC "-//W3C//DTD SVG 1.0//EN" "http://www.w3.org/TR/2001/REC-SVG-20010904/DTD/svg10.dtd">
<svg version="1.0" id="Layer_1" xmlns="http://www.w3.org/2000/svg" xmlns:xlink="http://www.w3.org/1999/xlink" x="0px" y="0px"
	 width="64px" height="64px" viewBox="0 0 64 64" style="enable-background:new 0 0 64 64;" xml:space="preserve">
<g>
	<path style="fill:#DF0B0B;" d="M55.394,14.842L41.467,1.508c-0.993-0.951-2.313-1.482-3.688-1.482H12.297
		c-2.945,0-5.333,2.389-5.333,5.334v53.332c0,2.949,2.388,5.334,5.333,5.334h39.406c2.947,0,5.333-2.385,5.333-5.334v-40
		C57.036,17.237,56.442,15.848,55.394,14.842z"/>
	<g id="layer1" transform="translate(-49.029146,-85.581398)" inkscape:label="Layer 1" inkscape:groupmode="layer">
		<g id="text4094" transform="matrix(1.3439872,0,0,1.1300249,-350.23524,1330.8032)">
		</g>
		<g id="g3200" transform="matrix(1,0,0,0.85449392,23.322305,107.72234)">
		</g>
		<g id="g3215">
			<g id="g3244" transform="matrix(0.28604021,0,0,0.28604021,35.004839,61.101677)">
				<g id="text4138" transform="matrix(0.24239178,0,0,0.24239178,28.202375,338.50218)">
					<path style="fill:#FFFFFF;" d="M326.112-214.789c-17.17,0-34.621-5.634-48.283-15.522
						c-11.831-6.676-18.916-18.029-19.578-31.635c-1.704-35.325,41.804-71.411,65.974-86.172
						c15.803-11.212,68.368-36.17,116.271-56.959c18.465-33.1,21.677-44.537,22.142-46.593l0.986-3.268
						c12.888-34.311,38.846-138.399,59.607-227.591c-22.381-48.156-42.832-114.658-23.747-173.132l1.38-3.387
						c15.099-30.585,35.001-35.149,45.537-35.149c7.211,0,14.127,1.986,20.578,5.895l2.972,2.106
						c35.424,29.064,28.536,95.165,23.93,122.229c-2.254,11.775-8.747,41.17-16.578,75.242
						c8.226,15.888,15.564,27.452,18.634,31.783l1.338,2.113c15.888,27.776,68.213,105.214,107.412,159.216
						c42.227-8.676,75.002-10.592,99.102-5.803l3.761,1.042c16.818,6.141,27.367,18.93,28.959,35.156
						c2.38,24.17-16.198,46.058-30.142,55.776c-11.198,10.254-26.395,15.888-43.17,15.888c-0.014,0-0.014,0-0.014,0
						c-23.522,0-48.776-10.986-67.565-29.353l-2.028-2.225c-2.972-3.69-6.338-8-10.057-12.874
						c-74.594,19.296-157.977,52.48-207.02,73.27c-21.973,37.748-49.283,79.326-64.41,97.947
						C381.199-223.832,348.31-214.789,326.112-214.789z M312.394-269.214c3.338,1.606,8.028,3.155,13.719,3.155
						c18.592,0,34.593-16.958,44.734-31.212l1.085-1.409c4.747-5.775,11.874-15.634,20.156-27.916
						c-21.592,10.507-34.733,17.719-38.043,20.198l-2.423,1.634C332.056-293.017,318.211-278.256,312.394-269.214z M512.217-438.458
						c-0.211,0.817-0.465,1.803-0.817,2.958l7.366-3.155l-1.056,1.831c40.17-15.606,87.313-32.48,132.99-45.41l-0.606-0.817
						l0.409-0.085c-31.663-44.452-69.819-100.595-89.946-133.215l-1.62,6.958l-0.239-0.507
						C543.992-549.109,524.33-471.53,512.217-438.458z M743.9-450.402c6.465,3.521,13.282,5.549,19.282,5.549l0,0
						c2.31,0,6.507-0.31,8.704-2.563l2.268-2.338l2.803-1.718c0.507-0.31,1.056-0.704,1.634-1.211
						C768.788-452.909,757.126-452.205,743.9-450.402z M545.006-826.787c-2.507,14.064-2.197,28.959-0.113,43.699
						C546.992-800.237,546.753-815.435,545.006-826.787z"/>
				</g>
			</g>
		</g>
	</g>
</g>
</svg>
