<?xml version="1.0" encoding="utf-8"?>
<!-- Generator: Adobe Illustrator 15.1.0, SVG Export Plug-In . SVG Version: 6.00 Build 0)  -->
<!DOCTYPE svg PUBLIC "-//W3C//DTD SVG 1.1//EN" "http://www.w3.org/Graphics/SVG/1.1/DTD/svg11.dtd">
<svg version="1.1" id="Layer_1" xmlns="http://www.w3.org/2000/svg" xmlns:xlink="http://www.w3.org/1999/xlink" x="0px" y="0px"
	 width="64px" height="64px" viewBox="0 0 64 64" enable-background="new 0 0 64 64" xml:space="preserve">
<g>
	<g>
		<defs>
			<path id="SVGID_1_" d="M40.455,63.146c-7.125,0-10.901-5.775-10.901-12.9s5.776-12.9,12.901-12.9
				c4.146,0,7.836,0.957,10.195,3.998L51.105,3.518L17.353,1L8.855,13.75L7.98,49l6.5,12L40.455,63.146z"/>
		</defs>
		<clipPath id="SVGID_2_">
			<use xlink:href="#SVGID_1_"  overflow="visible"/>
		</clipPath>
		<g clip-path="url(#SVGID_2_)">
			<path fill="#C1BDB7" d="M44.327,3.518H24.916c-1.943,0-3.532,1.578-3.532,3.51v2.879l21.753,1.5l-1.25,36.874
				c0,1.937-0.943,3.242,1,3.242h1.44c1.942,0,4.06-1.063,4.06-2.996V6.529C48.387,4.596,46.271,3.518,44.327,3.518L44.327,3.518z
				 M45.387,42.527h-3.375l0.375-30h3V42.527L45.387,42.527z"/>
			<path fill="#A19F9C" d="M40.297,7.611H20.885c-1.943,0-3.532,1.578-3.532,3.51V14l21.752,1.5l-1.25,36.875
				c0,1.936-0.943,3.242,1,3.242h1.44c1.942,0,4.06-1.064,4.06-2.996V10.623C44.355,8.689,42.24,7.611,40.297,7.611L40.297,7.611z
				 M41.355,46.621H37.98l0.375-30h3V46.621L41.355,46.621z"/>
			<path fill="#7C7C7C" d="M36.047,11.861H16.635c-1.943,0-3.532,1.578-3.532,3.51v40.98c0,1.936,1.589,3.516,3.532,3.516h19.412
				c1.943,0,4.059-1.064,4.059-2.996V14.873C40.105,12.939,37.99,11.861,36.047,11.861L36.047,11.861z M23.322,15.645h6.036
				c0.555,0,1.006,0.447,1.006,1.002c0,0.551-0.451,0.998-1.006,0.998h-6.036c-0.555,0-1.004-0.447-1.004-0.998
				C22.318,16.092,22.768,15.645,23.322,15.645L23.322,15.645z M26.339,57.395c-1.48,0-2.682-1.192-2.682-2.668
				c0-1.473,1.202-2.666,2.682-2.666c1.484,0,2.686,1.193,2.686,2.666C29.025,56.201,27.824,57.395,26.339,57.395L26.339,57.395z
				 M37.105,50.871H16.104v-30h21.001V50.871L37.105,50.871z"/>
		</g>
	</g>
</g>
<g>
	<g>
		<g>
			<path fill="#7C7C7C" d="M52.533,59.764L34.627,59.74l-0.284-0.317c-2.05-2.282-3.179-5.229-3.179-8.301
				c0-6.854,5.576-12.429,12.428-12.429S56.02,44.268,56.02,51.121c0,3.084-1.137,6.041-3.201,8.326L52.533,59.764z M35.492,57.827
				l16.182,0.022c1.572-1.887,2.436-4.26,2.436-6.729c0-5.799-4.719-10.516-10.518-10.516s-10.516,4.717-10.516,10.516
				C33.076,53.579,33.932,55.943,35.492,57.827z"/>
		</g>
		<path fill="#7C7C7C" d="M40.111,58.796c0-1.923,1.559-3.479,3.479-3.479s3.479,1.558,3.479,3.479"/>
		<path fill="#7C7C7C" d="M48.227,49.563c0.143,0.041,0.226,0.188,0.185,0.332l-3.946,8.824c-0.099,0.109-0.27,0.119-0.38,0.02
			L42.6,57.406c-0.109-0.1-0.119-0.27-0.021-0.381l5.138-7.328c0.04-0.143,0.189-0.225,0.331-0.186L48.227,49.563z"/>
		<path fill="#7C7C7C" d="M43.951,44.352c0,0.197-0.16,0.357-0.359,0.357c-0.197,0-0.357-0.16-0.357-0.357v-1.914
			c0-0.197,0.16-0.356,0.357-0.356c0.199,0,0.359,0.159,0.359,0.356V44.352z"/>
		<path fill="#7C7C7C" d="M48.622,46.615c-0.142,0.141-0.366,0.14-0.507,0c-0.141-0.141-0.141-0.365,0-0.508l1.354-1.353
			c0.141-0.14,0.365-0.14,0.506,0c0.142,0.142,0.142,0.367,0,0.507L48.622,46.615z"/>
		<path fill="#7C7C7C" d="M50.324,51.521c-0.199-0.002-0.358-0.162-0.359-0.358c0.001-0.197,0.16-0.358,0.359-0.358h1.912
			c0.199,0,0.356,0.16,0.356,0.358c0,0.196-0.157,0.356-0.356,0.356L50.324,51.521z"/>
		<path fill="#7C7C7C" d="M36.781,50.723c0.197,0.002,0.357,0.161,0.357,0.359c0,0.197-0.16,0.357-0.357,0.357h-1.914
			c-0.198,0-0.358-0.16-0.357-0.357c0-0.198,0.159-0.357,0.357-0.357L36.781,50.723z"/>
		<path fill="#7C7C7C" d="M37.445,48.168c0.183,0.077,0.27,0.286,0.193,0.469c-0.076,0.184-0.283,0.271-0.469,0.196l-1.768-0.731
			c-0.184-0.074-0.271-0.285-0.194-0.468s0.284-0.271,0.468-0.194L37.445,48.168z"/>
		<path fill="#7C7C7C" d="M39.035,46.063c0.139,0.141,0.14,0.365,0,0.506c-0.141,0.141-0.364,0.143-0.506,0.002l-1.356-1.35
			c-0.142-0.141-0.142-0.367-0.002-0.506c0.142-0.141,0.366-0.143,0.507-0.003L39.035,46.063z"/>
		<path fill="#7C7C7C" d="M41.309,44.721c0.074,0.184-0.012,0.393-0.193,0.469c-0.184,0.076-0.391-0.008-0.469-0.191l-0.737-1.766
			c-0.076-0.183,0.01-0.394,0.19-0.469c0.185-0.076,0.393,0.01,0.469,0.191L41.309,44.721z"/>
		<path fill="#7C7C7C" d="M46.477,45.002c-0.074,0.184-0.283,0.271-0.467,0.197c-0.182-0.076-0.271-0.284-0.197-0.469l0.724-1.771
			c0.073-0.184,0.284-0.271,0.468-0.197c0.184,0.078,0.271,0.284,0.196,0.469L46.477,45.002z"/>
		<path fill="#7C7C7C" d="M49.941,48.85c-0.183,0.078-0.391-0.009-0.467-0.19c-0.078-0.183,0.006-0.394,0.188-0.47l1.764-0.748
			c0.182-0.076,0.395,0.01,0.469,0.191c0.076,0.182-0.008,0.391-0.188,0.469L49.941,48.85z"/>
	</g>
</g>
</svg>
