<?xml version="1.0" encoding="utf-8"?>
<!-- Generator: Adobe Illustrator 16.0.0, SVG Export Plug-In . SVG Version: 6.00 Build 0)  -->
<!DOCTYPE svg PUBLIC "-//W3C//DTD SVG 1.0//EN" "http://www.w3.org/TR/2001/REC-SVG-20010904/DTD/svg10.dtd">
<svg version="1.0" id="Layer_1" xmlns="http://www.w3.org/2000/svg" xmlns:xlink="http://www.w3.org/1999/xlink" x="0px" y="0px"
	 width="64px" height="64px" viewBox="0 0 64 64" style="enable-background:new 0 0 64 64;" xml:space="preserve">
<g>
	<linearGradient id="SVGID_1_" gradientUnits="userSpaceOnUse" x1="32.0005" y1="85.165" x2="32.0005" y2="-66.5554">
		<stop  offset="0" style="stop-color:#3F3F3F"/>
		<stop  offset="1" style="stop-color:#747474"/>
	</linearGradient>
	<path style="fill:url(#SVGID_1_);" d="M41.797,7.261H22.203c-1.961,0-3.566,1.617-3.566,3.604V53.12
		c0,1.988,1.605,3.619,3.566,3.619h19.594c1.961,0,3.566-1.631,3.566-3.619V10.865C45.363,8.878,43.758,7.261,41.797,7.261z
		 M28.953,11.156h6.094c0.552,0,1.013,0.46,1.013,1.024c0,0.58-0.461,1.041-1.013,1.041h-6.094c-0.565,0-1.013-0.461-1.013-1.041
		C27.94,11.616,28.388,11.156,28.953,11.156z M31.993,54.2c-1.487,0-2.697-1.236-2.697-2.75c0-1.525,1.21-2.75,2.697-2.75
		c1.5,0,2.711,1.225,2.711,2.75C34.704,52.964,33.493,54.2,31.993,54.2z M41.941,46.606H22.059V16.71h19.883V46.606z"/>
	<linearGradient id="SVGID_2_" gradientUnits="userSpaceOnUse" x1="30.3833" y1="85.165" x2="30.3833" y2="-66.5556">
		<stop  offset="0" style="stop-color:#3F3F3F"/>
		<stop  offset="1" style="stop-color:#747474"/>
	</linearGradient>
	<path style="fill:url(#SVGID_2_);" d="M25.856,33.065v0.619h-1.132l-0.75,2.197h2.146c0.395,2.014,1.185,3.488,2.355,4.408
		c1.171,0.922,2.605,1.383,4.303,1.383c0.343,0,0.697-0.027,1.066-0.066c0.381-0.039,0.736-0.092,1.092-0.172
		c0.355-0.078,0.697-0.184,1.026-0.314c0.329-0.133,0.605-0.277,0.829-0.447l-0.618-2.355c-0.368,0.209-0.79,0.393-1.264,0.539
		c-0.474,0.145-1.04,0.211-1.685,0.211c-1.118,0-2.013-0.264-2.685-0.805c-0.671-0.539-1.171-1.328-1.474-2.381h4.369l0.592-2.197
		h-5.342v-0.619c0-0.145,0-0.275,0-0.395c0-0.117,0.013-0.236,0.025-0.369h5.791l0.604-2.196h-6.026
		c0.342-1.066,0.855-1.842,1.513-2.33c0.672-0.474,1.461-0.711,2.396-0.711c0.605,0,1.131,0.027,1.579,0.106
		c0.447,0.066,0.842,0.171,1.185,0.314l0.815-2.395c-0.421-0.171-0.947-0.328-1.565-0.447c-0.633-0.119-1.343-0.183-2.158-0.183
		c-0.751,0-1.487,0.104-2.185,0.302c-0.711,0.21-1.355,0.539-1.948,0.986c-0.578,0.447-1.105,1.025-1.539,1.736
		c-0.447,0.712-0.776,1.579-1.014,2.62h-1.435l-0.75,2.196h1.908c-0.013,0.133-0.026,0.264-0.026,0.383
		C25.856,32.817,25.856,32.935,25.856,33.065z"/>
</g>
</svg>
