<?xml version="1.0" encoding="utf-8"?>
<!-- Generator: Adobe Illustrator 16.0.0, SVG Export Plug-In . SVG Version: 6.00 Build 0)  -->
<!DOCTYPE svg PUBLIC "-//W3C//DTD SVG 1.1 Basic//EN" "http://www.w3.org/Graphics/SVG/1.1/DTD/svg11-basic.dtd">
<svg version="1.1" baseProfile="basic" id="Layer_1"
	 xmlns="http://www.w3.org/2000/svg" xmlns:xlink="http://www.w3.org/1999/xlink" x="0px" y="0px" width="64px" height="64px"
	 viewBox="0 0 64 64" xml:space="preserve">
<g>
	
		<radialGradient id="SVGID_1_" cx="-42.6484" cy="-431.5879" r="10.6287" gradientTransform="matrix(1.9404 0 0 0.3223 114.7549 199.6748)" gradientUnits="userSpaceOnUse">
		<stop  offset="0.0545" style="stop-color:#231F20"/>
		<stop  offset="0.5455" style="stop-color:#919396"/>
		<stop  offset="0.6128" style="stop-color:#B1B2B4;stop-opacity:0.8207"/>
		<stop  offset="0.6999" style="stop-color:#D3D3D5;stop-opacity:0.5889"/>
		<stop  offset="0.7827" style="stop-color:#EBEBEC;stop-opacity:0.3686"/>
		<stop  offset="0.8586" style="stop-color:#FAFAFA;stop-opacity:0.1666"/>
		<stop  offset="0.9212" style="stop-color:#FFFFFF;stop-opacity:0"/>
	</radialGradient>
	<ellipse fill="url(#SVGID_1_)" cx="32" cy="60.574" rx="20.623" ry="3.426"/>
	<g>
		<g>
			<g>
				<linearGradient id="SVGID_2_" gradientUnits="userSpaceOnUse" x1="31.9995" y1="-49.2241" x2="31.9995" y2="59.3984">
					<stop  offset="0.2182" style="stop-color:#231F20"/>
					<stop  offset="0.3908" style="stop-color:#272325"/>
					<stop  offset="0.5812" style="stop-color:#333032"/>
					<stop  offset="0.7794" style="stop-color:#474548"/>
					<stop  offset="0.92" style="stop-color:#59595C"/>
				</linearGradient>
				<circle fill="url(#SVGID_2_)" cx="32" cy="30.287" r="30.288"/>
				<linearGradient id="SVGID_3_" gradientUnits="userSpaceOnUse" x1="31.9995" y1="-43.4668" x2="31.9995" y2="59.2538">
					<stop  offset="0.2182" style="stop-color:#231F20"/>
					<stop  offset="0.3934" style="stop-color:#272325"/>
					<stop  offset="0.5883" style="stop-color:#333032"/>
					<stop  offset="0.792" style="stop-color:#474648"/>
					<stop  offset="0.92" style="stop-color:#57575A"/>
				</linearGradient>
				<circle fill="url(#SVGID_3_)" cx="32" cy="30.129" r="29.869"/>
				<linearGradient id="SVGID_4_" gradientUnits="userSpaceOnUse" x1="31.9995" y1="-37.8442" x2="31.9995" y2="59.0979">
					<stop  offset="0.2182" style="stop-color:#231F20"/>
					<stop  offset="0.3979" style="stop-color:#272425"/>
					<stop  offset="0.5996" style="stop-color:#333132"/>
					<stop  offset="0.8112" style="stop-color:#484748"/>
					<stop  offset="0.92" style="stop-color:#555557"/>
				</linearGradient>
				<circle fill="url(#SVGID_4_)" cx="32" cy="29.972" r="29.45"/>
				<linearGradient id="SVGID_5_" gradientUnits="userSpaceOnUse" x1="31.9995" y1="-32.3564" x2="31.9995" y2="58.9297">
					<stop  offset="0.2182" style="stop-color:#231F20"/>
					<stop  offset="0.401" style="stop-color:#272325"/>
					<stop  offset="0.608" style="stop-color:#333132"/>
					<stop  offset="0.826" style="stop-color:#474649"/>
					<stop  offset="0.92" style="stop-color:#525255"/>
				</linearGradient>
				<circle fill="url(#SVGID_5_)" cx="32" cy="29.814" r="29.031"/>
				<linearGradient id="SVGID_6_" gradientUnits="userSpaceOnUse" x1="31.9995" y1="-27.0039" x2="31.9995" y2="58.7505">
					<stop  offset="0.2182" style="stop-color:#231F20"/>
					<stop  offset="0.4065" style="stop-color:#272425"/>
					<stop  offset="0.6216" style="stop-color:#343133"/>
					<stop  offset="0.8489" style="stop-color:#484749"/>
					<stop  offset="0.92" style="stop-color:#505052"/>
				</linearGradient>
				<circle fill="url(#SVGID_6_)" cx="32" cy="29.657" r="28.612"/>
				<linearGradient id="SVGID_7_" gradientUnits="userSpaceOnUse" x1="31.9995" y1="-21.7861" x2="31.9995" y2="58.5591">
					<stop  offset="0.2182" style="stop-color:#231F20"/>
					<stop  offset="0.4104" style="stop-color:#272425"/>
					<stop  offset="0.6317" style="stop-color:#343133"/>
					<stop  offset="0.8667" style="stop-color:#48484A"/>
					<stop  offset="0.92" style="stop-color:#4E4E50"/>
				</linearGradient>
				<circle fill="url(#SVGID_7_)" cx="32" cy="29.5" r="28.193"/>
				<linearGradient id="SVGID_8_" gradientUnits="userSpaceOnUse" x1="31.9995" y1="-16.7036" x2="31.9995" y2="58.3553">
					<stop  offset="0.2182" style="stop-color:#231F20"/>
					<stop  offset="0.417" style="stop-color:#272425"/>
					<stop  offset="0.648" style="stop-color:#343233"/>
					<stop  offset="0.8942" style="stop-color:#49494A"/>
					<stop  offset="0.92" style="stop-color:#4C4C4D"/>
				</linearGradient>
				<circle fill="url(#SVGID_8_)" cx="32" cy="29.342" r="27.774"/>
				<linearGradient id="SVGID_9_" gradientUnits="userSpaceOnUse" x1="31.9995" y1="-11.7563" x2="31.9995" y2="58.141">
					<stop  offset="0.2182" style="stop-color:#231F20"/>
					<stop  offset="0.4218" style="stop-color:#272425"/>
					<stop  offset="0.6604" style="stop-color:#343233"/>
					<stop  offset="0.9157" style="stop-color:#4A4A4B"/>
					<stop  offset="0.92" style="stop-color:#4A4A4B"/>
				</linearGradient>
				<circle fill="url(#SVGID_9_)" cx="32" cy="29.185" r="27.355"/>
				<linearGradient id="SVGID_10_" gradientUnits="userSpaceOnUse" x1="31.9995" y1="-6.9443" x2="31.9995" y2="57.9149">
					<stop  offset="0.2182" style="stop-color:#231F20"/>
					<stop  offset="0.4271" style="stop-color:#272425"/>
					<stop  offset="0.6736" style="stop-color:#343233"/>
					<stop  offset="0.92" style="stop-color:#484848"/>
				</linearGradient>
				<circle fill="url(#SVGID_10_)" cx="32" cy="29.027" r="26.937"/>
				<linearGradient id="SVGID_11_" gradientUnits="userSpaceOnUse" x1="31.9995" y1="-2.2671" x2="31.9995" y2="57.6762">
					<stop  offset="0.2182" style="stop-color:#231F20"/>
					<stop  offset="0.4362" style="stop-color:#272425"/>
					<stop  offset="0.6955" style="stop-color:#343233"/>
					<stop  offset="0.92" style="stop-color:#454546"/>
				</linearGradient>
				<circle fill="url(#SVGID_11_)" cx="32" cy="28.87" r="26.518"/>
				<linearGradient id="SVGID_12_" gradientUnits="userSpaceOnUse" x1="31.9995" y1="2.2754" x2="31.9995" y2="57.4267">
					<stop  offset="0.2182" style="stop-color:#231F20"/>
					<stop  offset="0.4429" style="stop-color:#282425"/>
					<stop  offset="0.7126" style="stop-color:#353333"/>
					<stop  offset="0.92" style="stop-color:#434343"/>
				</linearGradient>
				<circle fill="url(#SVGID_12_)" cx="32" cy="28.712" r="26.099"/>
				<linearGradient id="SVGID_13_" gradientUnits="userSpaceOnUse" x1="31.9995" y1="6.6821" x2="31.9995" y2="57.1655">
					<stop  offset="0.2182" style="stop-color:#231F20"/>
					<stop  offset="0.4504" style="stop-color:#282425"/>
					<stop  offset="0.7315" style="stop-color:#353333"/>
					<stop  offset="0.92" style="stop-color:#414141"/>
				</linearGradient>
				<circle fill="url(#SVGID_13_)" cx="32" cy="28.555" r="25.68"/>
			</g>
			<g>
				<linearGradient id="SVGID_14_" gradientUnits="userSpaceOnUse" x1="32.0005" y1="30.7979" x2="32.0005" y2="9.7573">
					<stop  offset="0" style="stop-color:#231F20"/>
					<stop  offset="0.2517" style="stop-color:#393638"/>
					<stop  offset="0.7458" style="stop-color:#5E5F61"/>
					<stop  offset="1" style="stop-color:#6D6F71"/>
				</linearGradient>
				<path fill="url(#SVGID_14_)" d="M55.232,18.398c0,3.584-10.402,10.663-23.233,10.663c-12.829,0-23.231-7.079-23.231-10.663
					C8.768,8.237,19.17,0,31.999,0C44.83,0,55.232,8.237,55.232,18.398z"/>
				<linearGradient id="SVGID_15_" gradientUnits="userSpaceOnUse" x1="32.0005" y1="31.3784" x2="32.0005" y2="8.9257">
					<stop  offset="0" style="stop-color:#231F20"/>
					<stop  offset="0.0714" style="stop-color:#292527"/>
					<stop  offset="0.696" style="stop-color:#5A5A5C"/>
					<stop  offset="1" style="stop-color:#6D6F71"/>
				</linearGradient>
				<path fill="url(#SVGID_15_)" d="M55.079,18.499c0,3.603-10.334,10.721-23.081,10.721c-12.744,0-23.078-7.118-23.078-10.721
					C8.921,8.282,19.254,0,31.999,0C44.745,0,55.079,8.282,55.079,18.499z"/>
				<linearGradient id="SVGID_16_" gradientUnits="userSpaceOnUse" x1="32" y1="31.9639" x2="32" y2="8.0846">
					<stop  offset="0" style="stop-color:#231F20"/>
					<stop  offset="0.5972" style="stop-color:#525153"/>
					<stop  offset="1" style="stop-color:#6D6F71"/>
				</linearGradient>
				<path fill="url(#SVGID_16_)" d="M54.925,18.599c0,3.623-10.265,10.779-22.926,10.779c-12.659,0-22.924-7.156-22.924-10.779
					C9.075,8.327,19.34,0,31.999,0C44.66,0,54.925,8.327,54.925,18.599z"/>
				<linearGradient id="SVGID_17_" gradientUnits="userSpaceOnUse" x1="32" y1="32.5532" x2="32" y2="7.2337">
					<stop  offset="0" style="stop-color:#231F20"/>
					<stop  offset="0.343" style="stop-color:#3D3C3D"/>
					<stop  offset="1" style="stop-color:#6D6F71"/>
				</linearGradient>
				<path fill="url(#SVGID_17_)" d="M54.771,18.698c0,3.643-10.196,10.837-22.772,10.837c-12.575,0-22.771-7.194-22.771-10.837
					C9.228,8.371,19.424,0,31.999,0C44.575,0,54.771,8.371,54.771,18.698z"/>
				<linearGradient id="SVGID_18_" gradientUnits="userSpaceOnUse" x1="32.0005" y1="33.1475" x2="32.0005" y2="6.3738">
					<stop  offset="0" style="stop-color:#231F20"/>
					<stop  offset="1" style="stop-color:#6D6F71"/>
				</linearGradient>
				<path fill="url(#SVGID_18_)" d="M54.618,18.799c0,3.661-10.127,10.894-22.619,10.894c-12.49,0-22.617-7.233-22.617-10.894
					C9.382,8.416,19.509,0,31.999,0C44.491,0,54.618,8.416,54.618,18.799z"/>
				<linearGradient id="SVGID_19_" gradientUnits="userSpaceOnUse" x1="32.0005" y1="33.7461" x2="32.0005" y2="5.5042">
					<stop  offset="0" style="stop-color:#231F20"/>
					<stop  offset="1" style="stop-color:#6D6F71"/>
				</linearGradient>
				<path fill="url(#SVGID_19_)" d="M54.465,18.899c0,3.68-10.059,10.951-22.466,10.951c-12.405,0-22.463-7.271-22.463-10.951
					C9.536,8.461,19.594,0,31.999,0C44.406,0,54.465,8.461,54.465,18.899z"/>
				<linearGradient id="SVGID_20_" gradientUnits="userSpaceOnUse" x1="32" y1="34.3496" x2="32" y2="4.625">
					<stop  offset="0" style="stop-color:#231F20"/>
					<stop  offset="0.5488" style="stop-color:#4A494B"/>
					<stop  offset="1" style="stop-color:#6D6F71"/>
				</linearGradient>
				<path fill="url(#SVGID_20_)" d="M54.311,18.999c0,3.7-9.989,11.01-22.312,11.01c-12.32,0-22.31-7.31-22.31-11.01
					C9.689,8.505,19.679,0,31.999,0C44.321,0,54.311,8.505,54.311,18.999z"/>
				<linearGradient id="SVGID_21_" gradientUnits="userSpaceOnUse" x1="32.0005" y1="34.957" x2="32.0005" y2="3.7361">
					<stop  offset="0" style="stop-color:#231F20"/>
					<stop  offset="0.3656" style="stop-color:#3B393B"/>
					<stop  offset="1" style="stop-color:#6D6F71"/>
				</linearGradient>
				<path fill="url(#SVGID_21_)" d="M54.157,19.099c0,3.719-9.921,11.067-22.158,11.067c-12.235,0-22.156-7.348-22.156-11.067
					C9.843,8.55,19.764,0,31.999,0C44.236,0,54.157,8.55,54.157,19.099z"/>
				<linearGradient id="SVGID_22_" gradientUnits="userSpaceOnUse" x1="32.0005" y1="35.5684" x2="32.0005" y2="2.8372">
					<stop  offset="0" style="stop-color:#231F20"/>
					<stop  offset="0.2862" style="stop-color:#343233"/>
					<stop  offset="0.8648" style="stop-color:#626365"/>
					<stop  offset="1" style="stop-color:#6D6F71"/>
				</linearGradient>
				<path fill="url(#SVGID_22_)" d="M54.004,19.199c0,3.738-9.853,11.125-22.005,11.125c-12.15,0-22.003-7.387-22.003-11.125
					C9.996,8.595,19.849,0,31.999,0C44.151,0,54.004,8.595,54.004,19.199z"/>
				<linearGradient id="SVGID_23_" gradientUnits="userSpaceOnUse" x1="32.0005" y1="36.1846" x2="32.0005" y2="1.9285">
					<stop  offset="0" style="stop-color:#231F20"/>
					<stop  offset="0.2443" style="stop-color:#312E2F"/>
					<stop  offset="0.7117" style="stop-color:#545456"/>
					<stop  offset="1" style="stop-color:#6D6F71"/>
				</linearGradient>
				<path fill="url(#SVGID_23_)" d="M53.851,19.299c0,3.758-9.784,11.184-21.852,11.184c-12.066,0-21.849-7.426-21.849-11.184
					C10.15,8.639,19.933,0,31.999,0C44.066,0,53.851,8.639,53.851,19.299z"/>
				<linearGradient id="SVGID_24_" gradientUnits="userSpaceOnUse" x1="32" y1="36.8057" x2="32" y2="1.0113">
					<stop  offset="0" style="stop-color:#231F20"/>
					<stop  offset="0.22" style="stop-color:#2E2B2C"/>
					<stop  offset="0.6179" style="stop-color:#4C4B4C"/>
					<stop  offset="1" style="stop-color:#6D6F71"/>
				</linearGradient>
				<path fill="url(#SVGID_24_)" d="M53.696,19.399c0,3.777-9.714,11.241-21.697,11.241c-11.981,0-21.696-7.463-21.696-11.241
					C10.303,8.684,20.018,0,31.999,0C43.982,0,53.696,8.684,53.696,19.399z"/>
				<linearGradient id="SVGID_25_" gradientUnits="userSpaceOnUse" x1="32.0005" y1="37.4307" x2="32.0005" y2="0.084">
					<stop  offset="0" style="stop-color:#231F20"/>
					<stop  offset="0.2053" style="stop-color:#2C292A"/>
					<stop  offset="0.558" style="stop-color:#464446"/>
					<stop  offset="1" style="stop-color:#6D6F71"/>
				</linearGradient>
				<path fill="url(#SVGID_25_)" d="M53.543,19.499c0,3.797-9.646,11.299-21.544,11.299c-11.896,0-21.542-7.502-21.542-11.299
					C10.457,8.729,20.103,0,31.999,0C43.897,0,53.543,8.729,53.543,19.499z"/>
			</g>
			<radialGradient id="SVGID_26_" cx="31.9492" cy="22.5039" r="38.0504" gradientUnits="userSpaceOnUse">
				<stop  offset="0.9239" style="stop-color:#59595C"/>
				<stop  offset="1" style="stop-color:#231F20"/>
			</radialGradient>
			<path fill="url(#SVGID_26_)" d="M32.001,58.372c-8.95,0-17.05-3.16-22.902-8.265c5.553,6.411,13.754,10.467,22.902,10.467
				c9.146,0,17.348-4.056,22.9-10.467C49.049,55.212,40.949,58.372,32.001,58.372z"/>
		</g>
		<g>
			<linearGradient id="SVGID_27_" gradientUnits="userSpaceOnUse" x1="18.4463" y1="31.5239" x2="46.2578" y2="31.5239">
				<stop  offset="0" style="stop-color:#A3CD39"/>
				<stop  offset="0.2273" style="stop-color:#9ECA3A"/>
				<stop  offset="0.5003" style="stop-color:#8FC13C"/>
				<stop  offset="0.7955" style="stop-color:#77B240"/>
				<stop  offset="1" style="stop-color:#62A544"/>
			</linearGradient>
			<path fill="url(#SVGID_27_)" d="M46.258,39.694c-0.158,0.635-0.438,1.561-0.833,2.774c-1.352,1.351-2.951,2.338-4.8,2.961
				c-3.541-1.656-7.563-4.736-12.069-9.241c-1.667-1.669-3.499-3.74-5.497-6.214c-2.349-2.915-3.886-5.157-4.612-6.723
				c0.623-1.85,1.605-3.454,2.944-4.817c0.579-0.237,1.51-0.51,2.791-0.816l4.511,5.294l-0.901,4.203
				c0.284,1.374,0.783,2.543,1.498,3.506c0.34,0.478,1.219,1.425,2.637,2.844c1.59,1.588,2.979,2.434,4.171,2.536
				c0.533,0.057,2.15-0.223,4.851-0.836L46.258,39.694z"/>
		</g>
	</g>
</g>
<g>
</g>
<g>
</g>
<g>
</g>
<g>
</g>
<g>
</g>
</svg>
