<?xml version="1.0" encoding="utf-8"?>
<!-- Generator: Adobe Illustrator 16.0.0, SVG Export Plug-In . SVG Version: 6.00 Build 0)  -->
<!DOCTYPE svg PUBLIC "-//W3C//DTD SVG 1.0//EN" "http://www.w3.org/TR/2001/REC-SVG-20010904/DTD/svg10.dtd">
<svg version="1.0" id="Layer_1" xmlns="http://www.w3.org/2000/svg" xmlns:xlink="http://www.w3.org/1999/xlink" x="0px" y="0px"
	 width="64px" height="64px" viewBox="0 0 64 64" style="enable-background:new 0 0 64 64;" xml:space="preserve">
<path style="fill:#ACACAC;" d="M37.852,31.999l10.176-10.607c1.605-1.671,1.605-4.382,0-6.054c-1.605-1.683-4.21-1.683-5.815,0
	l-10.217,10.65l-10.207-10.65c-1.605-1.683-4.21-1.683-5.816,0c-1.605,1.672-1.605,4.383,0,6.054l10.177,10.607L15.972,42.605
	c-1.605,1.671-1.605,4.381,0,6.064c1.606,1.673,4.211,1.673,5.816,0l10.207-10.658L42.212,48.67c1.605,1.673,4.21,1.673,5.815,0
	c1.605-1.684,1.605-4.394,0-6.064L37.852,31.999z"/>
</svg>
