<?xml version="1.0" encoding="UTF-8" standalone="no"?>
<svg width="58px" height="58px" viewBox="0 0 58 58" version="1.1" xmlns="http://www.w3.org/2000/svg" xmlns:xlink="http://www.w3.org/1999/xlink" xmlns:sketch="http://www.bohemiancoding.com/sketch/ns">
    <!-- Generator: Sketch 3.3.2 (12043) - http://www.bohemiancoding.com/sketch -->
    <title>Imported Layers</title>
    <desc>Created with Sketch.</desc>
    <defs></defs>
    <g id="Page-1" stroke="none" stroke-width="1" fill="none" fill-rule="evenodd" sketch:type="MSPage">
        <g id="zakaj-simobil-copy-4" sketch:type="MSArtboardGroup" transform="translate(-317.000000, -339.000000)" fill="#4F4A8A">
            <g id="Imported-Layers" sketch:type="MSLayerGroup" transform="translate(317.000000, 339.000000)">
                <path d="M9.32677419,29.0781671 C9.41704839,29.0511213 9.76723118,28.880248 9.92906989,28.4473585 C10.1939677,27.7390081 9.82367204,26.6681186 8.88616129,25.4319838 L8.86386559,25.4005606 C8.32549462,24.5913747 8.01662903,23.4817143 8.01662903,22.3561078 C8.01662903,19.377628 10.4479516,16.9542911 13.4363548,16.9542911 C16.4241344,16.9542911 18.8549892,19.4196819 18.8549892,22.4499084 C18.8549892,23.6203827 18.5501774,24.7226954 18.0186667,25.4740377 L17.9932527,25.5076496 C17.1062581,26.5980809 16.7489032,27.553283 16.9598548,28.2700755 C17.1062581,28.768 17.4907419,29.0182911 17.6181237,29.0781671 L27.5967742,29.0781671 L27.5967742,17.5130296 C27.5967742,17.0274555 28.1320269,16.2528194 28.9285914,15.8733962 C29.772086,15.4719299 31.1999462,15.3382642 33.2132634,16.9771159 C33.7499194,17.3512237 34.6065108,17.574 35.5106559,17.574 C37.8501452,17.574 39.753543,15.6976765 39.753543,13.391434 C39.753543,11.084566 37.8986344,9.20792992 35.6185484,9.20792992 C34.7476129,9.20792992 33.8437796,9.44868464 33.2541129,9.8371752 C31.0761505,11.4918167 29.6401828,11.3526792 28.8180484,10.9440216 C28.0536022,10.563973 27.5967742,9.80966038 27.5967742,9.30001078 L27.5967742,0 L0,0 L0,29.0781671 L9.32677419,29.0781671" id="Fill-1" sketch:type="MSShapeGroup"></path>
                <path d="M28.844086,9.26843127 C28.873086,9.36066846 29.0498925,9.71148248 29.4898817,9.87438275 C30.2086452,10.1404636 31.2828925,9.76916981 32.5157043,8.82913208 L32.547043,8.80661995 C33.3422043,8.27477089 34.4903548,7.95725606 35.6185484,7.95725606 C38.586371,7.95725606 41.0008548,10.3949757 41.0008548,13.391434 C41.0008548,16.3872668 38.5378817,18.8246739 35.5106559,18.8246739 C34.3314785,18.8246739 33.2255806,18.5190404 32.4761022,17.9862534 L32.4425806,17.9607709 C31.3560161,17.0718544 30.3968333,16.7136927 29.6715215,16.9242749 C29.1644892,17.0713854 28.9067634,17.4578437 28.844086,17.5877574 L28.844086,29.0781671 L40.906371,29.0781671 C41.3800376,29.0781671 42.2799731,29.2851536 42.6473065,30.0607278 C43.0528387,30.9174394 42.6582204,32.0639946 41.4406882,33.5654286 C41.0407688,34.1385499 40.8463441,34.8145391 40.8463441,35.6309164 C40.8463441,37.9562318 42.7177796,39.8480323 45.0181344,39.8480323 C47.3585591,39.8480323 49.1919516,38.0389326 49.1919516,35.729407 C49.1919516,34.9374178 48.9934731,34.2667439 48.5675161,33.6206146 C47.3272204,31.9809811 46.9442957,30.8234825 47.3623011,29.978496 C47.645129,29.4063127 48.2854677,29.0781671 49.1191398,29.0781671 L58,29.0781671 L58,0 L28.844086,0 L28.844086,9.26843127" id="Fill-2" sketch:type="MSShapeGroup"></path>
                <path d="M49.1191398,30.328841 C48.8024785,30.328841 48.5392957,30.4132615 48.4797366,30.5341078 C48.4519839,30.5900755 48.2471129,31.1320863 49.5725376,32.8797466 L49.5948333,32.9111698 C50.1629839,33.7652237 50.4392634,34.6869704 50.4392634,35.729407 C50.4392634,38.6899084 48.0073172,41.0987062 45.0181344,41.0987062 C42.030043,41.0987062 39.5990323,38.6458221 39.5990323,35.6309164 C39.5990323,34.5387655 39.8723495,33.6212399 40.4345753,32.8258113 L40.4601452,32.7921995 C41.7233602,31.2394879 41.5649516,30.6912237 41.5203602,30.5971105 C41.4299301,30.4060701 41.0496559,30.328841 40.906371,30.328841 L28.844086,30.328841 L28.844086,40.9356496 C28.844086,41.0675957 28.816957,42.2366631 27.8783548,42.6836226 C27.0336129,43.0847763 25.8976237,42.6887817 24.4039677,41.4712507 C23.8175753,41.05931 23.1920484,40.8753046 22.3791129,40.8753046 C20.0577097,40.8753046 18.1688118,42.7519407 18.1688118,45.058496 C18.1688118,47.4052291 19.9688387,49.2435633 22.2668548,49.2435633 C23.0548441,49.2435633 23.6986129,49.0503342 24.3514247,48.6174447 C25.9818172,47.3774016 27.1288763,46.9929757 27.9606774,47.4061671 C28.5302312,47.6892884 28.844086,48.3160323 28.844086,49.1705553 L28.844086,58 L58,58 L58,30.328841 L49.1191398,30.328841" id="Fill-3" sketch:type="MSShapeGroup"></path>
                <path d="M27.5967742,49.1705553 C27.5967742,48.7909757 27.5011989,48.5736712 27.4065591,48.5264582 C27.352457,48.5000377 26.8265591,48.3013369 25.0903011,49.6250189 L25.0589624,49.6473747 C24.1953548,50.225186 23.3080484,50.4940809 22.2668548,50.4940809 C19.3193011,50.4940809 16.9216559,48.0557358 16.9216559,45.058496 C16.9216559,42.0623504 19.3699731,39.6246307 22.3791129,39.6246307 C23.4595968,39.6246307 24.3375484,39.8908679 25.1417527,40.4625822 L25.1752742,40.488221 C26.7509409,41.7770404 27.2869731,41.580841 27.3432581,41.5536388 C27.5202204,41.469531 27.5967742,41.1037089 27.5967742,40.9356496 L27.5967742,30.328841 L17.5467151,30.328841 C17.1229409,30.328841 16.3173333,29.867655 15.9074355,29.0015633 C15.511414,28.1653315 15.3827849,26.7472237 17.0122419,24.7348895 C17.3853441,24.1969434 17.6076774,23.3449218 17.6076774,22.4499084 C17.6076774,20.1092722 15.7363978,18.2051213 13.4363548,18.2051213 C11.1356882,18.2051213 9.26394086,20.067062 9.26394086,22.3561078 C9.26394086,23.2204798 9.49827957,24.0918868 9.89149462,24.6914286 C11.536543,26.8686954 11.4026129,28.2963396 10.9995753,29.11131 C10.6227312,29.8734394 9.86795161,30.328841 9.35593011,30.328841 L0,30.328841 L0,58 L27.5967742,58 L27.5967742,49.1705553" id="Fill-4" sketch:type="MSShapeGroup"></path>
            </g>
        </g>
    </g>
</svg>