<?xml version="1.0" encoding="utf-8"?>
<!-- Generator: Adobe Illustrator 16.0.0, SVG Export Plug-In . SVG Version: 6.00 Build 0)  -->
<!DOCTYPE svg PUBLIC "-//W3C//DTD SVG 1.0//EN" "http://www.w3.org/TR/2001/REC-SVG-20010904/DTD/svg10.dtd">
<svg version="1.0" id="Layer_1" xmlns="http://www.w3.org/2000/svg" xmlns:xlink="http://www.w3.org/1999/xlink" x="0px" y="0px"
	 width="64px" height="64px" viewBox="0 0 64 64" style="enable-background:new 0 0 64 64;" xml:space="preserve">
<path style="fill:#231F20;" d="M27.933,15.304l-13.278,7.883c-0.803,0.475-2.158,0.619-3.04,0.316L4.93,21.186
	c-0.882-0.301-0.935-0.934-0.131-1.395l13.146-7.554c0.802-0.46,2.171-0.619,3.066-0.356l6.75,2.068
	C28.643,14.225,28.722,14.831,27.933,15.304z M28.854,60.071l-16.778-9.054c-0.816-0.434-1.474-1.552-1.474-2.474v-7.382
	l8.186,5.224c0.29,0.185,0.592,0.263,0.908,0.263c0.46,0,0.921-0.183,1.25-0.553l8.606-9.657c0.039-0.04,0.039-0.08,0.066-0.118
	c0.421,0.538,0.723,1.196,0.723,1.802v21.055C30.34,60.098,29.67,60.506,28.854,60.071z M27.748,34.267l-7.487,8.396
	c-0.316,0.356-0.881,0.435-1.276,0.184l-13.831-8.83c-0.395-0.248-0.447-0.709-0.105-1.025l7.461-7.106
	c0.329-0.317,0.935-0.396,1.342-0.173l13.712,7.515C27.972,33.451,28.051,33.912,27.748,34.267z M58.344,21.186l-6.698,2.317
	c-0.868,0.303-2.237,0.159-3.026-0.316l-13.292-7.883c-0.789-0.473-0.723-1.079,0.172-1.354l6.751-2.068
	c0.882-0.263,2.263-0.104,3.065,0.356l13.16,7.554C59.265,20.252,59.212,20.884,58.344,21.186z M59.449,34.016l-13.844,8.83
	c-0.395,0.251-0.961,0.173-1.276-0.184l-7.488-8.396c-0.303-0.354-0.223-0.815,0.185-1.04l13.713-7.515
	c0.408-0.223,1.012-0.144,1.342,0.173l7.461,7.106C59.884,33.307,59.83,33.768,59.449,34.016z M52.383,51.018l-16.791,9.054
	c-0.816,0.435-1.474,0.026-1.474-0.895V38.122c0-0.645,0.328-1.368,0.803-1.909c0.038,0.082,0.052,0.159,0.117,0.226l8.606,9.657
	c0.329,0.37,0.79,0.553,1.25,0.553c0.316,0,0.619-0.078,0.908-0.263l8.054-5.132v7.29C53.856,49.466,53.186,50.584,52.383,51.018z"
	/>
</svg>
