<?xml version="1.0" encoding="UTF-8" standalone="no"?>
<svg width="67px" height="67px" viewBox="0 0 67 67" version="1.1" xmlns="http://www.w3.org/2000/svg" xmlns:xlink="http://www.w3.org/1999/xlink" xmlns:sketch="http://www.bohemiancoding.com/sketch/ns">
    <!-- Generator: Sketch 3.3.2 (12043) - http://www.bohemiancoding.com/sketch -->
    <title>Imported Layers</title>
    <desc>Created with Sketch.</desc>
    <defs></defs>
    <g id="Page-1" stroke="none" stroke-width="1" fill="none" fill-rule="evenodd" sketch:type="MSPage">
        <g id="zakaj-simobil-copy-4" sketch:type="MSArtboardGroup" transform="translate(-904.000000, -664.000000)" fill="#4F4A8A">
            <g id="Imported-Layers" sketch:type="MSLayerGroup" transform="translate(904.000000, 664.000000)">
                <path d="M23.4738026,12.7348647 C23.4738026,12.7076667 23.4799737,12.6817954 23.4819572,12.6550396 C23.1866283,13.0928614 23.0623257,13.4738548 23.8400987,13.7493729 C23.9566875,13.7858581 24.0726151,13.805538 24.1865592,13.8137195 C23.76825,13.6352739 23.4738026,13.218901 23.4738026,12.7348647" id="Fill-1" sketch:type="MSShapeGroup"></path>
                <path d="M25.3403257,11.8021716 L25.6859046,11.5569472 C25.6643059,11.4401947 25.6464539,11.3333927 25.6376382,11.2445017 C25.5377993,10.4427129 25.3383421,8.63924092 24.439352,8.43912541 C23.0411678,8.03823102 23.2410658,9.84192409 23.7402599,10.5433234 L24.0399967,10.9435545 C24.2035296,11.201604 24.1854572,11.4594323 24.085398,11.7112904 C24.2515757,11.619967 24.4391316,11.5633597 24.6414539,11.5633597 C24.9043849,11.5633597 25.1448355,11.6542409 25.3403257,11.8021716" id="Fill-2" sketch:type="MSShapeGroup"></path>
                <path id="Fill-3" sketch:type="MSShapeGroup" d="M25.8091053,12.7348647 C25.8091053,12.7547657 25.8042566,12.7733399 25.8031546,12.7927987 L25.8624408,12.8126997 C25.8697138,12.7293366 25.8659671,12.6298317 25.8549474,12.519934 L25.7916941,12.5646007 C25.8000691,12.6207657 25.8091053,12.6764884 25.8091053,12.7348647"></path>
                <path d="M24.6414539,13.0218812 C24.7992566,13.0218812 24.9275263,12.8931881 24.9275263,12.7348647 C24.9275263,12.5765413 24.7992566,12.4478482 24.6414539,12.4478482 C24.4836513,12.4478482 24.3553816,12.5765413 24.3553816,12.7348647 C24.3553816,12.8931881 24.4836513,13.0218812 24.6414539,13.0218812" id="Fill-4" sketch:type="MSShapeGroup"></path>
                <path d="M21.8426612,13.1421716 C23.0411678,12.7414983 22.4159079,10.8349835 21.4924539,11.0561056 L21.3077632,11.0561056 C20.6091118,11.4983498 20.3452993,13.543066 21.8426612,13.1421716" id="Fill-5" sketch:type="MSShapeGroup"></path>
                <path d="M44.6685033,26.3893762 L51.8258224,33.5694323 C52.0755296,33.3487525 52.3785724,33.1886601 52.7140132,33.1112673 L52.5775888,29.6697228 C52.470477,29.3050924 52.3893717,28.9665545 52.3217105,28.7164653 C52.395102,28.7107162 52.4676118,28.710495 52.5401217,28.7135908 L51.9371217,13.4860165 C51.2878388,13.3712541 50.7267138,12.9991056 50.3621809,12.4776997 L37.116898,17.5000462 C37.1285789,17.5803135 37.1365132,17.6616865 37.1365132,17.7450495 C37.1365132,18.0572739 37.0514408,18.3491551 36.9055395,18.6016766 L43.0225954,24.7382574 C44.0901875,25.0053729 45.0336974,25.3841551 44.6685033,26.3893762" id="Fill-6" sketch:type="MSShapeGroup"></path>
                <path id="Fill-7" sketch:type="MSShapeGroup" d="M34.7419243,19.9480891 L34.6969638,19.2911353 C34.6537664,19.2703498 34.6114507,19.2484587 34.5700164,19.2241353 L34.2876908,19.4996535 C34.4430691,19.6369703 34.5947007,19.7875545 34.7419243,19.9480891"></path>
                <path d="M32.9267533,24.7933168 C31.8327138,23.9539373 30.6271546,24.0101023 29.3960296,24.2716898 L26.0079013,27.576802 C26.298602,27.9230792 26.474477,28.3693036 26.474477,28.8564356 C26.474477,29.8963729 25.6748849,30.751231 24.6604079,30.8379109 L23.4394211,40.5365479 C24.1731151,40.7505941 24.7113191,41.4298812 24.7113191,42.2343234 C24.7113191,42.6595413 24.5610099,43.0498218 24.3110822,43.3551914 L25.2118355,44.5844092 C25.2208717,44.582198 25.2299079,44.5799868 25.2391645,44.5779967 C27.4675757,44.1311089 27.9132138,44.0192211 29.5846875,45.360769 C30.5870428,46.1428779 30.3642237,45.2488812 30.8096414,46.7018746 C31.1442007,47.5960924 30.6987829,48.7138647 30.9211612,49.7201914 C31.5896184,51.6202937 33.4836908,52.7378449 33.2606513,54.9736106 C33.2474276,55.1359142 33.2185559,55.2964488 33.1793257,55.4563201 L36.8942993,60.5253234 C37.0701743,60.3829208 37.2751414,60.2756766 37.4981809,60.2119934 L35.2748388,27.7318086 C34.0675164,27.1955875 33.9859704,25.679132 32.9267533,24.7933168" id="Fill-8" sketch:type="MSShapeGroup"></path>
                <path d="M33.4466645,22.5000594 C33.7814441,22.9469472 32.4670099,23.3533696 32.7764441,23.6894752 C33.0360691,23.9718482 33.9220559,23.3896337 34.1417895,23.3527063 C34.7811546,23.2450198 34.9204441,23.2054389 34.7674901,22.7258251 C34.4527664,21.7371881 33.7843092,21.1171617 33.2326612,20.5289769 L32.460398,21.2821188 C32.8233882,21.7524455 33.4466645,22.5000594 33.4466645,22.5000594" id="Fill-9" sketch:type="MSShapeGroup"></path>
                <path d="M32.4641447,19.4151848 C31.9971283,19.5938515 31.4668586,19.797505 30.902648,20.0146469 C31.2495493,20.1477624 31.5131414,20.3162574 31.8560757,20.6382112 L32.6726382,19.8415083 C32.5862434,19.7055182 32.5159375,19.564 32.4641447,19.4151848" id="Fill-10" sketch:type="MSShapeGroup"></path>
                <path d="M25.8981447,22.1122112 C25.8981447,22.9655215 25.2061053,23.660066 24.3553816,23.660066 C23.5048783,23.660066 22.8126184,22.9655215 22.8126184,22.1122112 C22.8126184,21.2586799 23.5048783,20.5643564 24.3553816,20.5643564 C24.8358421,20.5643564 25.2653914,20.7861419 25.5485987,21.1326403 C26.2532007,20.8602178 27.9539868,20.2028218 29.6574178,19.5465314 C30.7699704,19.1179967 31.8827434,18.6901254 32.7184803,18.3712673 C33.1370099,18.211396 33.4863355,18.0789439 33.7311941,17.9871782 C33.7338388,17.9860726 33.7362632,17.9851881 33.7389079,17.9843036 C33.7281086,17.9058053 33.7203947,17.8264224 33.7203947,17.7450495 C33.7203947,17.6294026 33.7322961,17.5164092 33.7538947,17.4071749 L32.5739013,16.587033 C32.3120724,16.7922343 31.9839046,16.9158416 31.6266447,16.9158416 C30.7761414,16.9158416 30.0838816,16.221297 30.0838816,15.3679868 C30.0838816,15.3005446 30.0896118,15.234429 30.0982072,15.169198 L28.1880461,14.5272805 C27.8347533,14.8777591 27.4400263,15.1913102 26.9106382,15.4038086 C26.1306612,15.8511386 24.6824474,15.8511386 24.3478882,16.8570231 C24.0142105,18.3102376 25.5735033,17.8633498 25.6848026,18.6454587 C26.0191414,20.2101188 23.6796513,19.315901 22.7885954,20.098231 C19.2232697,22.6696601 24.6824474,26.0229769 27.2447566,22.5577723 C27.5907763,22.0951848 27.8043388,21.5799703 28.0315658,21.1211419 C27.2923618,21.4063894 26.5630757,21.6883201 25.8893289,21.9490231 C25.8950592,22.0025347 25.8981447,22.0569307 25.8981447,22.1122112" id="Fill-11" sketch:type="MSShapeGroup"></path>
                <path d="M22.9481612,44.0033003 C21.976,44.0033003 21.1850033,43.2096931 21.1850033,42.2343234 C21.1850033,41.395165 21.7712533,40.6919967 22.5536546,40.5115611 L23.7872039,30.7147459 C23.0402862,30.428835 22.5073717,29.7048812 22.5073717,28.8564356 C22.5073717,27.7590066 23.3971053,26.8663366 24.4909243,26.8663366 C24.7772171,26.8663366 25.0489638,26.9286931 25.2949243,27.0385908 L27.7000921,24.6924851 C27.3609046,24.7762904 27.0228191,24.8516931 26.6878191,24.9047624 C23.0114145,25.575868 19.8915066,27.587637 18.1089539,31.276396 C15.7696842,36.306703 15.5468651,41.672231 21.2286414,44.46633 C22.3394309,45.0666766 23.2545099,45.0087426 24.2738355,44.7977921 L23.5989868,43.8770396 C23.3973257,43.9575281 23.1780329,44.0033003 22.9481612,44.0033003" id="Fill-12" sketch:type="MSShapeGroup"></path>
                <path d="M22.9481612,41.349835 C22.4619704,41.349835 22.0665822,41.7465281 22.0665822,42.2343234 C22.0665822,42.7221188 22.4619704,43.1188119 22.9481612,43.1188119 C23.434352,43.1188119 23.8297401,42.7221188 23.8297401,42.2343234 C23.8297401,41.7465281 23.434352,41.349835 22.9481612,41.349835" id="Fill-13" sketch:type="MSShapeGroup"></path>
                <path d="M25.592898,28.8564356 C25.592898,28.246802 25.0985526,27.7508251 24.4909243,27.7508251 C23.8832961,27.7508251 23.3889507,28.246802 23.3889507,28.8564356 C23.3889507,29.4660693 23.8832961,29.9620462 24.4909243,29.9620462 C25.0985526,29.9620462 25.592898,29.4660693 25.592898,28.8564356" id="Fill-14" sketch:type="MSShapeGroup"></path>
                <path d="M28.8483487,13.8163729 L30.4600954,14.3581221 C30.743523,14.0293135 31.1607303,13.820132 31.6266447,13.820132 C32.4773684,13.820132 33.1694079,14.5146766 33.1694079,15.3679868 C33.1694079,15.5426733 33.1389934,15.7098416 33.0856579,15.8666172 L34.1534704,16.6084818 C34.2125362,16.5419241 34.2753487,16.4789043 34.3436711,16.422297 L33.3441809,11.8249472 C32.4509211,11.9149439 31.5603059,12.0095842 30.8096414,12.385934 C29.9053618,12.7063399 29.3567993,13.2562706 28.8483487,13.8163729" id="Fill-15" sketch:type="MSShapeGroup"></path>
                <path d="M32.6631612,7.93938944 C32.9915493,7.93938944 33.2586678,7.67138944 33.2586678,7.34191749 C33.2586678,7.01244554 32.9915493,6.74422442 32.6631612,6.74422442 C32.334773,6.74422442 32.0674342,7.01244554 32.0674342,7.34191749 C32.0674342,7.67138944 32.334773,7.93938944 32.6631612,7.93938944" id="Fill-16" sketch:type="MSShapeGroup"></path>
                <path d="M34.2572763,7.91993069 L34.0410691,7.87172607 C33.9383651,8.14016832 33.7598454,8.37079868 33.5317368,8.537967 L33.9557763,10.4889274 C34.1431118,10.2246865 34.2865888,9.7950462 34.3751875,9.14450495 C34.4086875,8.80751485 34.3405855,8.37875908 34.2572763,7.91993069" id="Fill-17" sketch:type="MSShapeGroup"></path>
                <path d="M52.3622632,12.64133 C53.223125,12.64133 53.9237599,11.9383828 53.9237599,11.0746799 C53.9237599,10.2109769 53.223125,9.50825083 52.3622632,9.50825083 C51.5014013,9.50825083 50.8009868,10.2109769 50.8009868,11.0746799 C50.8009868,11.9383828 51.5014013,12.64133 52.3622632,12.64133" id="Fill-18" sketch:type="MSShapeGroup"></path>
                <path d="M37.9656382,61.029703 C37.5085395,61.029703 37.1365132,61.402736 37.1365132,61.8615644 C37.1365132,62.3201716 37.5085395,62.6932046 37.9656382,62.6932046 C38.4227368,62.6932046 38.7947632,62.3201716 38.7947632,61.8615644 C38.7947632,61.402736 38.4227368,61.029703 37.9656382,61.029703" id="Fill-19" sketch:type="MSShapeGroup"></path>
                <path d="M55.9789408,8.76992409 L55.9789408,8.76970297 C55.9778388,8.76859736 55.9769572,8.76771287 55.9756349,8.76660726 C55.510602,8.34028383 55.0327862,7.92722772 54.5441711,7.52743894 C54.5137566,7.50267327 54.4826809,7.47790759 54.4520461,7.45314191 C54.2389243,7.27978218 54.0233783,7.10907591 53.8056283,6.9410231 C53.7712467,6.91426733 53.7366447,6.8879538 53.7022632,6.86164026 C53.4706283,6.68407921 53.2370099,6.50939274 53.0005263,6.3380231 C52.988625,6.32917822 52.9765033,6.32033333 52.9643816,6.31148845 C47.4765526,2.3410198 40.7395263,0 33.4565822,0 C15.0159342,0 0.0667796053,14.9984917 0.0667796053,33.5 C0.0667796053,52.0015083 15.0159342,67 33.4565822,67 C34.1254803,67 34.7890888,66.9778878 35.4482895,66.9391914 C35.5203586,66.934769 35.5924276,66.9301254 35.6642763,66.9252607 C35.9776776,66.9046964 36.2901974,66.8801518 36.6011743,66.8509637 C36.6476776,66.8465413 36.6944013,66.8432244 36.7406842,66.8383597 C37.0999276,66.8034224 37.4576283,66.762736 37.8135658,66.7163003 C37.8563224,66.7105512 37.8986382,66.7039175 37.9411743,66.6981683 C38.2457599,66.6572607 38.5488026,66.6117096 38.8507434,66.5623993 C38.9325099,66.549132 39.0147171,66.5356436 39.0964836,66.5217129 C39.4026118,66.4693069 39.7076382,66.4135842 40.0109013,66.3529967 C40.0474868,66.3456997 40.0845132,66.3392871 40.1210987,66.331769 C40.459625,66.263 40.7959474,66.1884818 41.1305066,66.1093201 C41.2069836,66.0914092 41.2827993,66.0721716 41.3588355,66.0538185 C41.6202237,65.9899142 41.8807303,65.9233564 42.1396941,65.8532607 C42.2280724,65.8296007 42.3166711,65.8059406 42.4050493,65.781396 C42.7268257,65.6918416 43.0477204,65.5989703 43.36575,65.4999076 C43.3681743,65.4992442 43.3703783,65.4983597 43.373023,65.4976964 C56.9713783,61.2601122 66.8463849,48.5371881 66.8463849,33.5 C66.8463849,23.7065017 62.6571217,14.8952277 55.9789408,8.76992409 L55.9789408,8.76992409 Z M42.9540526,3.68367327 C44.0549243,4.03525743 45.133977,4.4469868 46.187023,4.91974587 C46.0750625,4.9500396 45.9617796,4.97679538 45.8502599,5.00863696 C44.179227,5.34363696 42.0623355,7.2439604 40.8369408,5.00863696 C42.1039901,4.81294389 43.4565526,5.04467987 42.9540526,3.68367327 L42.9540526,3.68367327 Z M55.5081776,55.6245941 C52.3869474,58.7563465 48.7202401,61.142033 44.7229408,62.6932046 C44.8194737,62.5558878 44.9102763,62.4163597 44.9867533,62.270198 C45.3697993,61.5407162 45.2483618,60.8362211 45.5134967,60.1127096 C45.8035362,59.322198 46.2024507,59.2401617 46.8726711,58.7550198 C47.8721612,58.0308449 47.9962434,57.3993201 48.1866645,56.1674488 C48.4954375,54.1687261 47.7760691,52.3004653 47.7443322,50.3309307 C47.7070855,48.0325875 48.9346842,47.4729274 50.2517632,45.9195446 C50.9907467,45.0483234 51.7817434,44.1737855 52.5656875,43.3156106 C53.105875,42.7241089 54.2122566,42.0866139 54.4399243,41.3142343 C54.6977862,40.4394752 54.0535724,39.7133102 53.2035099,39.68567 C52.3721809,39.6584719 51.9060461,40.669 51.0833125,40.5637459 C50.9671645,40.5491518 50.8516776,40.5097921 50.736852,40.4551749 L39.2194638,60.6980198 C39.5020099,61.0042739 39.6761217,61.4122442 39.6761217,61.8615644 C39.6761217,62.807967 38.9089276,63.5776931 37.9656382,63.5776931 C37.0223487,63.5776931 36.2549342,62.807967 36.2549342,61.8615644 C36.2549342,61.6590165 36.2919605,61.4650924 36.3565362,61.2844356 L32.8209638,56.4602145 C32.4678914,57.2732805 32.035477,58.0920957 32.035477,58.9973696 C32.035477,60.4508053 33.0380526,62.0156865 33.3723914,63.3570132 C33.4973553,63.8264554 33.61725,64.3054059 33.7406711,64.7852409 C33.6459013,64.7861254 33.5515724,64.7887789 33.4565822,64.7887789 C25.1265428,64.7887789 17.2950362,61.5340825 11.4047664,55.6245941 C5.51449671,49.7148845 2.27072697,41.8575314 2.27072697,33.5 C2.27072697,25.1424686 5.51449671,17.2851155 11.4047664,11.3754059 C17.2950362,5.46591749 25.1265428,2.21122112 33.4565822,2.21122112 C34.1986513,2.21122112 34.9365329,2.23819802 35.6695658,2.28927723 C33.4460033,3.25823432 31.0924079,4.88923102 30.2531447,6.57307591 C29.9487796,7.18293069 29.8326316,7.88433003 29.9805164,8.51076898 L31.2151678,7.63512541 C31.1962138,7.54026403 31.1858553,7.44230693 31.1858553,7.34191749 C31.1858553,6.52465017 31.8485822,5.85973597 32.6631612,5.85973597 C33.3518947,5.85973597 33.9304309,6.33581188 34.0933026,6.97706601 L34.094625,6.97750825 C33.9855296,6.20048515 33.9886151,5.45287129 34.4867072,5.00863696 C34.932125,4.56108581 36.1577401,4.56108581 36.6033783,5.11986139 C37.0492368,5.790967 36.1577401,6.12618812 36.2692599,6.79685149 C36.3801184,7.2050429 36.4180263,7.40184158 36.4709211,7.50974917 L49.9806776,10.5364686 C50.2261974,9.44346205 51.1999013,8.62376238 52.3622632,8.62376238 C53.7095362,8.62376238 54.8053388,9.72340264 54.8053388,11.0746799 C54.8053388,12.2694026 53.9484441,13.2657789 52.8189211,13.4813729 L53.4307368,28.9395776 C54.0815625,29.2197393 54.7070428,29.6907294 55.3184178,29.9604983 C56.6540099,30.5497888 57.5884836,30.5128614 59.0911349,30.7173993 C60.6552763,30.9296766 62.9204934,31.8851452 64.6338421,32.7855545 C64.6389112,33.0232607 64.6424375,33.2614092 64.6424375,33.5 C64.6424375,41.8575314 61.3984474,49.7148845 55.5081776,55.6245941 L55.5081776,55.6245941 Z" id="Fill-20" sketch:type="MSShapeGroup"></path>
                <path d="M39.1661283,9.70328053 C38.8315691,10.374165 36.0464408,11.2683828 35.3777632,11.4917162 C35.0108059,11.6049307 34.62225,11.6750264 34.2253191,11.7276535 L35.1659638,16.0539076 C35.251477,16.0404191 35.3389737,16.0313531 35.4284539,16.0313531 C35.9719474,16.0313531 36.4559342,16.2880759 36.7688947,16.6863168 L49.9956645,11.6710462 C49.9762697,11.5938746 49.9608421,11.5155974 49.9489408,11.4357723 L39.3018914,9.05030693 C39.336273,9.22189769 39.3007895,9.43262706 39.1661283,9.70328053" id="Fill-21" sketch:type="MSShapeGroup"></path>
                <path d="M35.4284539,16.9158416 C34.972898,16.9158416 34.6019737,17.2879901 34.6019737,17.7450495 C34.6019737,18.2021089 34.972898,18.5742574 35.4284539,18.5742574 C35.8842303,18.5742574 36.2549342,18.2021089 36.2549342,17.7450495 C36.2549342,17.2879901 35.8842303,16.9158416 35.4284539,16.9158416" id="Fill-22" sketch:type="MSShapeGroup"></path>
                <path d="M51.1315789,35.1031353 C51.1315789,34.8150132 51.1919671,34.5410429 51.2995197,34.2920594 L44.2052336,27.1750231 C44.1302993,27.2718746 44.0491941,27.3711584 43.9568487,27.4761914 C43.1768717,28.2587426 40.8369408,28.5937426 39.9454441,28.2587426 C39.2769868,28.034967 39.0541678,27.2524158 38.3857105,27.1405281 C37.6057336,27.0286403 37.2718355,27.8111914 36.4920789,27.9230792 C36.3790164,27.9283861 36.2734474,27.9272805 36.1711842,27.9230792 L38.3808618,60.1982838 C38.4121579,60.2062442 38.4438947,60.2133201 38.4745296,60.2228284 L50.031148,39.9112145 C49.420875,39.2821221 48.8751776,38.3629175 48.4855197,37.8861782 C47.6319309,36.8413762 46.8499704,35.9761254 46.1854803,34.8322607 C45.5271612,33.699231 44.4943914,32.7939571 44.0928322,31.6173663 C43.8611974,30.9391848 43.8217467,30.2963828 43.8642829,29.5027756 C44.5774803,29.7926667 45.3982303,30.986505 46.0728586,31.5647393 C47.1071711,32.4514389 48.5254112,33.3100561 49.4852303,34.2936073 C50.4452697,35.2778218 49.7673355,36.3511485 50.0847039,37.5604653 C50.2158388,38.0606436 50.4831776,38.3443432 50.8415395,38.4874092 L51.8710033,36.6777459 C51.4196349,36.3025017 51.1315789,35.7357657 51.1315789,35.1031353" id="Fill-23" sketch:type="MSShapeGroup"></path>
                <path d="M40.9482401,24.1228746 C41.0588783,24.1934125 41.1953026,24.2544422 41.3489178,24.3099439 L40.408273,23.3661947 C40.6454178,23.7370165 40.8380428,24.0397327 40.9482401,24.1228746" id="Fill-24" sketch:type="MSShapeGroup"></path>
                <path d="M55.2088816,35.1031353 C55.2088816,36.2308581 54.2944638,37.1485149 53.1702303,37.1485149 C52.9925921,37.1485149 52.8213454,37.1233069 52.6571513,37.0801881 L51.7932039,38.5988548 C51.9922204,38.5851452 52.201375,38.5563993 52.4182434,38.5170396 C53.5854539,38.3056469 56.1257237,36.9393333 56.8876283,35.9745776 C57.2634013,35.4987228 57.200148,35.2599109 57.3198224,34.716835 C57.4132697,34.2942706 57.870148,33.4190693 57.8690461,33.0924719 C57.8661809,32.2630429 57.3645625,31.9501551 56.5455757,31.7155446 C55.7863158,31.4975182 54.6911743,32.1044983 54.2096118,31.9742574 C53.9491053,31.9037195 53.7276086,31.756231 53.5345428,31.5634125 L53.5955921,33.1033069 C54.5161809,33.3001056 55.2088816,34.1215743 55.2088816,35.1031353" id="Fill-25" sketch:type="MSShapeGroup"></path>
                <path d="M38.0511513,24.2343201 C39.2769868,23.8993201 37.828773,23.0046601 38.0511513,22.3339967 C38.19,21.8249736 38.3764539,21.5919109 38.5884737,21.5408317 L36.2822632,19.2270099 C36.0753125,19.3475215 35.8412533,19.426462 35.5913257,19.4505644 L35.7094572,21.179297 C36.020875,21.6239736 36.2875526,22.0407888 36.4920789,22.3339967 C36.8264178,23.0046601 36.9377171,24.5697624 38.0511513,24.2343201" id="Fill-26" sketch:type="MSShapeGroup"></path>
                <path d="M52.0131579,35.1031353 C52.0131579,35.7430627 52.5324079,36.2640264 53.1702303,36.2640264 C53.808273,36.2640264 54.3273026,35.7430627 54.3273026,35.1031353 C54.3273026,34.4629868 53.808273,33.9422442 53.1702303,33.9422442 C52.5324079,33.9422442 52.0131579,34.4629868 52.0131579,35.1031353" id="Fill-27" sketch:type="MSShapeGroup"></path>
                <path d="M31.6266447,14.7046205 C31.2621118,14.7046205 30.9654605,15.0022508 30.9654605,15.3679868 C30.9654605,15.7337228 31.2621118,16.0313531 31.6266447,16.0313531 C31.991398,16.0313531 32.2878289,15.7337228 32.2878289,15.3679868 C32.2878289,15.0022508 31.991398,14.7046205 31.6266447,14.7046205" id="Fill-28" sketch:type="MSShapeGroup"></path>
                <path d="M24.3553816,21.4488449 C23.9908487,21.4488449 23.6941974,21.7464752 23.6941974,22.1122112 C23.6941974,22.4779472 23.9908487,22.7755776 24.3553816,22.7755776 C24.7199145,22.7755776 25.0165658,22.4779472 25.0165658,22.1122112 C25.0165658,21.7464752 24.7199145,21.4488449 24.3553816,21.4488449" id="Fill-29" sketch:type="MSShapeGroup"></path>
                <path d="M31.5896184,9.92683498 C32.1549309,10.3520528 32.6799112,10.716462 33.1233454,10.8106601 L32.6911513,8.82233003 C32.6816743,8.82255116 32.6726382,8.82387789 32.6631612,8.82387789 C32.2684342,8.82387789 31.9102928,8.66688119 31.6451579,8.41325413 L30.3551875,9.3280363 C30.7034112,9.76143564 31.0822697,9.58719142 31.5896184,9.92683498" id="Fill-30" sketch:type="MSShapeGroup"></path>
                <path d="M25.8624408,12.8126997 C25.8556086,12.8909769 25.8392993,12.9559868 25.8091053,12.9986634 C25.5065033,13.4245446 24.8814638,13.8623663 24.1865592,13.8137195 C24.3265099,13.8732013 24.4803454,13.9063696 24.6414539,13.9063696 C24.9433947,13.9063696 25.2162434,13.7876271 25.4238553,13.5983465 L28.1880461,14.5272805 C28.4172566,14.299967 28.6292763,14.057396 28.8483487,13.8163729 L25.8624408,12.8126997" id="Fill-31" sketch:type="MSShapeGroup"></path>
                <path d="M23.4819572,12.6550396 C23.6800921,12.3611683 23.9538224,12.041868 24.085398,11.7112904 C23.7453289,11.8981386 23.5099474,12.2466271 23.4819572,12.6550396" id="Fill-32" sketch:type="MSShapeGroup"></path>
                <path d="M34.2253191,11.7276535 L33.9557763,10.4889274 C33.7347204,10.8011518 33.4512928,10.8803135 33.1233454,10.8106601 L33.3441809,11.8249472 C33.6392895,11.795538 33.9346184,11.7661287 34.2253191,11.7276535" id="Fill-33" sketch:type="MSShapeGroup"></path>
                <path d="M29.7014967,19.8072343 C29.9150592,19.9708647 29.7420493,20.2116667 29.5024803,20.1022112 C29.3964704,20.0491419 29.3464408,19.9354851 29.3689211,19.8479208 C28.6643191,19.9943036 28.3354901,20.5068647 28.0315658,21.1211419 C29.0085757,20.7439076 29.9999112,20.3618086 30.902648,20.0146469 C30.7743783,19.9653366 30.6355296,19.9208911 30.4759638,19.8751188 C30.1812961,19.8187327 29.9254178,19.7981683 29.7014967,19.8072343" id="Fill-34" sketch:type="MSShapeGroup"></path>
                <path d="M39.3018914,9.05030693 C39.195,8.51253795 38.3929836,8.36571287 37.7176941,8.02651155 C36.7499408,7.57829703 36.5782533,7.72689109 36.4709211,7.50974917 L34.094625,6.97750825 C34.1389243,7.2930495 34.2012961,7.6130132 34.2572763,7.91993069 L39.3018914,9.05030693" id="Fill-35" sketch:type="MSShapeGroup"></path>
                <path d="M25.8549474,12.519934 L30.3551875,9.3280363 C30.2449901,9.19027723 30.1374375,8.99325743 30.0301053,8.69717492 C30.0098289,8.63636634 29.9955033,8.57334653 29.9805164,8.51076898 L25.6859046,11.5569472 C25.7418849,11.8578944 25.8245329,12.2238515 25.8549474,12.519934" id="Fill-36" sketch:type="MSShapeGroup"></path>
                <path d="M44.6685033,26.3893762 L43.0225954,24.7382574 C42.4345822,24.5912112 41.8113059,24.47667 41.3489178,24.3099439 L44.2052336,27.1750231 C44.4364276,26.8767294 44.5858553,26.617132 44.6685033,26.3893762" id="Fill-37" sketch:type="MSShapeGroup"></path>
                <path d="M52.5775888,29.6697228 C52.7744013,30.3381749 53.0635592,31.0926436 53.5345428,31.5634125 L53.4307368,28.9395776 C53.139375,28.8142013 52.8427237,28.7268581 52.5401217,28.7135908 L52.5775888,29.6697228" id="Fill-38" sketch:type="MSShapeGroup"></path>
                <path d="M50.8415395,38.4874092 L50.031148,39.9112145 C50.2590362,40.1462673 50.4957401,40.3401914 50.736852,40.4551749 L51.7932039,38.5988548 C51.4352829,38.6229571 51.1124046,38.5953168 50.8415395,38.4874092" id="Fill-39" sketch:type="MSShapeGroup"></path>
                <path d="M32.6726382,19.8415083 C32.8236086,20.0785512 33.0195395,20.3016634 33.2326612,20.5289769 L34.2876908,19.4996535 C33.6844704,18.9665281 33.0272533,18.6489967 32.3695954,18.8687921 C32.3695954,19.0658119 32.4050789,19.245363 32.4641447,19.4151848 C32.8703322,19.2595149 33.2297961,19.1219769 33.5253454,19.009868 L32.6726382,19.8415083" id="Fill-40" sketch:type="MSShapeGroup"></path>
                <path d="M25.2118355,44.5844092 C24.8847697,44.6604752 24.5748947,44.7352145 24.2738355,44.7977921 L32.8209638,56.4602145 C32.9657632,56.1265413 33.0966776,55.7935314 33.1793257,55.4563201 L25.2118355,44.5844092" id="Fill-41" sketch:type="MSShapeGroup"></path>
                <path d="M34.7419243,19.9480891 L35.2748388,27.7318086 C35.5205789,27.8410429 35.8139243,27.9089274 36.1711842,27.9230792 L35.7094572,21.179297 C35.4214013,20.7677888 35.0947763,20.3326205 34.7419243,19.9480891" id="Fill-42" sketch:type="MSShapeGroup"></path>
                <path d="M32.460398,21.2821188 C32.4264572,21.2376733 32.3938388,21.1949967 32.3649671,21.1565215 C32.1707993,20.9475611 32.0059441,20.7786238 31.8560757,20.6382112 L27.7000921,24.6924851 C28.2651842,24.5529571 28.8333618,24.3910957 29.3960296,24.2716898 L32.460398,21.2821188" id="Fill-43" sketch:type="MSShapeGroup"></path>
                <path d="M38.5884737,21.5408317 L40.408273,23.3661947 C39.8863783,22.5495908 39.1476151,21.4059472 38.5884737,21.5408317" id="Fill-44" sketch:type="MSShapeGroup"></path>
            </g>
        </g>
    </g>
</svg>