<?xml version="1.0" encoding="utf-8"?>
<!-- Generator: Adobe Illustrator 16.0.0, SVG Export Plug-In . SVG Version: 6.00 Build 0)  -->
<!DOCTYPE svg PUBLIC "-//W3C//DTD SVG 1.0//EN" "http://www.w3.org/TR/2001/REC-SVG-20010904/DTD/svg10.dtd">
<svg version="1.0" id="Layer_1" xmlns="http://www.w3.org/2000/svg" xmlns:xlink="http://www.w3.org/1999/xlink" x="0px" y="0px"
	 width="64px" height="64px" viewBox="0 0 64 64" style="enable-background:new 0 0 64 64;" xml:space="preserve">
<path style="fill:#9299A9;" d="M37.587,40.949l-4.29,3.396l6.817,2.487L37.587,40.949z M37.18,40.107l-4.093-2.619v5.908
	l4.132-3.199L37.18,40.107z M33.126,30.83l-0.066,5.737l3.515,2.184L33.126,30.83z M30.481,37.777l-3.843,2.303l3.869,3.198
	L30.481,37.777z M30.376,30.724l-3.329,8.054l3.382-2.079l0.013-5.975H30.376z M23.77,46.923l6.553-2.5l-4.119-3.447L23.77,46.923z
	 M43.798,51.91c-0.671,0.304-1.474-0.014-1.763-0.684l-0.474-1.066c-0.119-0.014-0.251-0.025-0.382-0.065l-9.277-3.407l-8.948,3.434
	c-0.171,0.065-0.355,0.092-0.526,0.078l-0.447,1.106c-0.211,0.527-0.724,0.843-1.25,0.843c-0.171,0-0.342-0.041-0.514-0.107
	c-0.684-0.275-1.013-1.064-0.737-1.75l8.751-21.41c0.21-0.513,0.697-0.842,1.25-0.842h4.474c0.54,0,1.026,0.316,1.237,0.804
	l9.303,21.304C44.798,50.832,44.483,51.621,43.798,51.91z M31.994,26.356c-2.974,0-5.381-2.409-5.381-5.383
	c0-2.961,2.408-5.383,5.381-5.383s5.383,2.422,5.383,5.383C37.377,23.947,34.968,26.356,31.994,26.356z M13.887,20.959
	c0.119,3.817,3.422,6.62,3.461,6.646c0.566,0.474,0.645,1.329,0.171,1.895c-0.263,0.317-0.645,0.487-1.04,0.487
	c-0.303,0-0.605-0.106-0.855-0.317c-0.171-0.144-4.25-3.578-4.421-8.592c-0.118-3.118,1.29-6.106,4.159-8.856
	c0.54-0.513,1.395-0.486,1.908,0.041c0.513,0.539,0.487,1.395-0.04,1.908C14.927,16.366,13.809,18.644,13.887,20.959z
	 M21.388,20.921c0.065,2.053,1.882,3.604,1.895,3.618c0.566,0.475,0.646,1.316,0.171,1.895c-0.263,0.316-0.645,0.488-1.026,0.488
	c-0.303,0-0.619-0.106-0.869-0.317c-0.105-0.092-2.737-2.302-2.855-5.579c-0.066-2.027,0.829-3.96,2.671-5.724
	c0.54-0.527,1.395-0.5,1.908,0.04c0.514,0.539,0.487,1.381-0.039,1.895C21.98,18.446,21.362,19.684,21.388,20.921z M48.377,29.67
	c-0.263,0.21-0.565,0.317-0.868,0.317c-0.381,0-0.763-0.17-1.026-0.487c-0.474-0.565-0.407-1.42,0.172-1.895
	c0.026-0.027,3.328-2.829,3.461-6.646c0.065-2.315-1.053-4.593-3.343-6.789c-0.54-0.514-0.553-1.37-0.04-1.908
	c0.514-0.527,1.355-0.553,1.896-0.041c2.882,2.75,4.276,5.738,4.171,8.856C52.615,26.092,48.549,29.526,48.377,29.67z M42.43,26.604
	c-0.25,0.211-0.553,0.317-0.855,0.317c-0.395,0-0.775-0.172-1.04-0.488c-0.473-0.578-0.395-1.419,0.172-1.895
	c0.026-0.014,1.829-1.564,1.896-3.618c0.039-1.238-0.58-2.475-1.843-3.686c-0.54-0.513-0.565-1.356-0.053-1.895
	c0.513-0.54,1.368-0.567,1.907-0.04c1.843,1.764,2.751,3.697,2.673,5.724C45.167,24.302,42.535,26.513,42.43,26.604z"/>
</svg>
