<?xml version="1.0" encoding="utf-8"?>
<!-- Generator: Adobe Illustrator 16.0.0, SVG Export Plug-In . SVG Version: 6.00 Build 0)  -->
<!DOCTYPE svg PUBLIC "-//W3C//DTD SVG 1.0//EN" "http://www.w3.org/TR/2001/REC-SVG-20010904/DTD/svg10.dtd">
<svg version="1.0" id="Layer_1" xmlns="http://www.w3.org/2000/svg" xmlns:xlink="http://www.w3.org/1999/xlink" x="0px" y="0px"
	 width="64px" height="64px" viewBox="0 0 64 64" style="enable-background:new 0 0 64 64;" xml:space="preserve">
<path style="fill:#9299A9;" d="M35.645,15.309H18.814v24.948h16.831V15.309z M29.815,10.675h-5.158
	c-0.474,0-0.869,0.396-0.869,0.867c0,0.476,0.395,0.856,0.869,0.856h5.158c0.474,0,0.855-0.381,0.855-0.856
	C30.671,11.07,30.29,10.675,29.815,10.675z M27.236,46.573c1.264,0,2.29-1.026,2.29-2.288c0-1.265-1.026-2.291-2.29-2.291
	c-1.276,0-2.303,1.026-2.303,2.291C24.933,45.547,25.96,46.573,27.236,46.573z M35.527,48.705H18.933
	c-1.658,0-3.014-1.368-3.014-3.026v-35.24c0-1.658,1.355-3.014,3.014-3.014h16.595c1.657,0,3.025,1.355,3.025,3.014v35.24
	C38.553,47.337,37.185,48.705,35.527,48.705z M37.579,56.575c-0.5,0-0.895-0.395-0.895-0.896v-0.881H17.657v0.881
	c0,0.501-0.408,0.896-0.908,0.896c-0.487,0-0.895-0.395-0.895-0.896v-3.499c0-0.501,0.408-0.908,0.895-0.908
	c0.5,0,0.908,0.407,0.908,0.908v0.88h19.028v-0.88c0-0.501,0.395-0.908,0.895-0.908s0.908,0.407,0.908,0.908v3.499
	C38.487,56.181,38.079,56.575,37.579,56.575z M47.238,9.808H46.37v37.068h0.868c0.5,0,0.908,0.408,0.908,0.908
	c0,0.501-0.408,0.895-0.908,0.895h-3.487c-0.5,0-0.908-0.394-0.908-0.895c0-0.5,0.408-0.908,0.908-0.908h0.868V9.808h-0.868
	c-0.5,0-0.908-0.409-0.908-0.908c0-0.488,0.408-0.896,0.908-0.896h3.487c0.5,0,0.908,0.407,0.908,0.896
	C48.146,9.398,47.738,9.808,47.238,9.808z"/>
</svg>
