<?xml version="1.0" encoding="utf-8"?>
<!-- Generator: Adobe Illustrator 16.0.0, SVG Export Plug-In . SVG Version: 6.00 Build 0)  -->
<!DOCTYPE svg PUBLIC "-//W3C//DTD SVG 1.0//EN" "http://www.w3.org/TR/2001/REC-SVG-20010904/DTD/svg10.dtd">
<svg version="1.0" id="Layer_1" xmlns="http://www.w3.org/2000/svg" xmlns:xlink="http://www.w3.org/1999/xlink" x="0px" y="0px"
	 width="64px" height="64px" viewBox="0 0 64 64" style="enable-background:new 0 0 64 64;" xml:space="preserve">
<path style="fill-rule:evenodd;clip-rule:evenodd;fill:#49921A;" d="M31.999,0.372c-17.462,0-31.62,14.159-31.62,31.621
	c0,17.477,14.158,31.635,31.62,31.635c17.463,0,31.622-14.158,31.622-31.635C63.621,14.531,49.462,0.372,31.999,0.372z"/>
<g>
	<path style="fill:#5FB22A;" d="M51.555,51.561C46.33,56.785,39.382,59.668,32,59.668c-7.383,0-14.33-2.883-19.555-8.107
		C7.207,46.338,4.34,39.389,4.34,31.994h55.32C59.66,39.389,56.791,46.338,51.555,51.561z"/>
	<path style="fill:#66BB30;" d="M32,4.333c7.382,0,14.33,2.87,19.555,8.107c5.236,5.223,8.105,12.173,8.105,19.554H4.34
		c0-7.381,2.867-14.331,8.105-19.554C17.67,7.203,24.617,4.333,32,4.333z"/>
</g>
<path style="fill-rule:evenodd;clip-rule:evenodd;fill:none;" d="M51.555,51.561c5.236-5.223,8.105-12.172,8.105-19.567
	c0-7.381-2.869-14.331-8.105-19.554C46.33,7.202,39.382,4.332,32,4.332s-14.33,2.87-19.554,8.107
	C7.207,17.662,4.34,24.612,4.34,31.993c0,7.396,2.867,14.345,8.105,19.567C17.67,56.785,24.617,59.667,32,59.667
	S46.33,56.785,51.555,51.561"/>
<polygon style="fill-rule:evenodd;clip-rule:evenodd;fill:#FFFFFF;" points="38.93,47.324 25.336,32.901 38.759,18.638 
	33.021,18.638 19.6,32.901 33.192,47.324 "/>
<rect x="0.379" y="0.372" style="fill-rule:evenodd;clip-rule:evenodd;fill:none;" width="62.236" height="31.621"/>
</svg>
