<?xml version="1.0" encoding="utf-8"?>
<!-- Generator: Adobe Illustrator 16.0.0, SVG Export Plug-In . SVG Version: 6.00 Build 0)  -->
<!DOCTYPE svg PUBLIC "-//W3C//DTD SVG 1.0//EN" "http://www.w3.org/TR/2001/REC-SVG-20010904/DTD/svg10.dtd">
<svg version="1.0" id="Layer_1" xmlns="http://www.w3.org/2000/svg" xmlns:xlink="http://www.w3.org/1999/xlink" x="0px" y="0px"
	 width="64px" height="64px" viewBox="0 0 64 64" style="enable-background:new 0 0 64 64;" xml:space="preserve">
<g>
	<linearGradient id="SVGID_1_" gradientUnits="userSpaceOnUse" x1="22.3608" y1="38.1875" x2="22.3608" y2="5.6445">
		<stop  offset="0" style="stop-color:#3F3F3F"/>
		<stop  offset="1" style="stop-color:#747474"/>
	</linearGradient>
	<path style="fill:url(#SVGID_1_);" d="M28.27,36.161V25.686c0-1.104,0.908-2.052,2.026-2.079l6.422-0.211
		c1.105-0.037,1.421-0.763,0.697-1.59L23.861,6.277c-0.737-0.842-1.947-0.842-2.685-0.013L7.32,21.817
		c-0.737,0.83-0.434,1.514,0.671,1.514h5.75c1.118,0,2.026,0.907,2.026,2.027v10.803c0,1.118,0.908,2.026,2.026,2.026h8.449
		C27.361,38.188,28.27,37.279,28.27,36.161z"/>
	<linearGradient id="SVGID_2_" gradientUnits="userSpaceOnUse" x1="22.3608" y1="61" x2="22.3608" y2="1.1255">
		<stop  offset="0" style="stop-color:#3F3F3F"/>
		<stop  offset="1" style="stop-color:#747474"/>
	</linearGradient>
	<path style="fill:url(#SVGID_2_);" d="M28.27,36.161V25.686c0-1.104,0.908-2.052,2.026-2.079l6.422-0.211
		c1.105-0.037,1.421-0.763,0.697-1.59L23.861,6.277c-0.737-0.842-1.947-0.842-2.685-0.013L7.32,21.817
		c-0.737,0.83-0.434,1.514,0.671,1.514h5.75c1.118,0,2.026,0.907,2.026,2.027v10.803c0,1.118,0.908,2.026,2.026,2.026h8.449
		C27.361,38.188,28.27,37.279,28.27,36.161z"/>
	<linearGradient id="SVGID_3_" gradientUnits="userSpaceOnUse" x1="39.75" y1="59.8438" x2="39.75" y2="27.292">
		<stop  offset="0" style="stop-color:#3F3F3F"/>
		<stop  offset="1" style="stop-color:#747474"/>
	</linearGradient>
	<path style="fill:url(#SVGID_3_);" d="M54.101,42.096l-6.421-0.21c-1.105-0.04-2.027-0.975-2.014-2.093l-0.014-10.474
		c0.014-1.119-0.908-2.027-2.014-2.027h-8.447c-1.118,0-2.026,0.923-2.026,2.027v10.817c0,1.104-0.921,2.025-2.027,2.025h-5.75
		c-1.119,0-1.421,0.672-0.671,1.515L38.56,59.229c0.751,0.828,1.961,0.815,2.685-0.014l13.554-15.528
		C55.535,42.846,55.22,42.136,54.101,42.096z"/>
	<linearGradient id="SVGID_4_" gradientUnits="userSpaceOnUse" x1="39.75" y1="61" x2="39.75" y2="1.1256">
		<stop  offset="0" style="stop-color:#3F3F3F"/>
		<stop  offset="1" style="stop-color:#747474"/>
	</linearGradient>
	<path style="fill:url(#SVGID_4_);" d="M54.101,42.096l-6.421-0.21c-1.105-0.04-2.027-0.975-2.014-2.093l-0.014-10.474
		c0.014-1.119-0.908-2.027-2.014-2.027h-8.447c-1.118,0-2.026,0.923-2.026,2.027v10.817c0,1.104-0.921,2.025-2.027,2.025h-5.75
		c-1.119,0-1.421,0.672-0.671,1.515L38.56,59.229c0.751,0.828,1.961,0.815,2.685-0.014l13.554-15.528
		C55.535,42.846,55.22,42.136,54.101,42.096z"/>
	<linearGradient id="SVGID_5_" gradientUnits="userSpaceOnUse" x1="48.0254" y1="22.4858" x2="48.0254" y2="4.1558">
		<stop  offset="0" style="stop-color:#3F3F3F"/>
		<stop  offset="1" style="stop-color:#747474"/>
	</linearGradient>
	<polygon style="fill:url(#SVGID_5_);" points="50.726,4.156 45.283,4.156 45.283,10.687 38.969,10.687 38.969,15.956 
		45.283,15.956 45.283,22.486 50.726,22.486 50.726,15.956 57.083,15.956 57.083,10.687 50.726,10.687 	"/>
	<linearGradient id="SVGID_6_" gradientUnits="userSpaceOnUse" x1="48.0254" y1="61" x2="48.0254" y2="1.1255">
		<stop  offset="0" style="stop-color:#3F3F3F"/>
		<stop  offset="1" style="stop-color:#747474"/>
	</linearGradient>
	<polygon style="fill:url(#SVGID_6_);" points="50.726,4.156 45.283,4.156 45.283,10.687 38.969,10.687 38.969,15.956 
		45.283,15.956 45.283,22.486 50.726,22.486 50.726,15.956 57.083,15.956 57.083,10.687 50.726,10.687 	"/>
</g>
</svg>
