<?xml version="1.0" encoding="utf-8"?>
<!-- Generator: Adobe Illustrator 16.0.0, SVG Export Plug-In . SVG Version: 6.00 Build 0)  -->
<!DOCTYPE svg PUBLIC "-//W3C//DTD SVG 1.0//EN" "http://www.w3.org/TR/2001/REC-SVG-20010904/DTD/svg10.dtd">
<svg version="1.0" id="Layer_1" xmlns="http://www.w3.org/2000/svg" xmlns:xlink="http://www.w3.org/1999/xlink" x="0px" y="0px"
	 width="64px" height="64px" viewBox="0 0 64 64" style="enable-background:new 0 0 64 64;" xml:space="preserve">
<path style="fill:#A3A3A3;" d="M53.646,45.994H10.353c-1.697,0-3.092-1.406-3.092-3.104V21.822l22.595,12.225
	c0.5,0.275,1.263,0.631,1.395,0.645c0.145,0.025,0.368,0.025,0.5,0c0.145-0.014,0.895-0.369,1.395-0.631l23.595-12.384v21.214
	C56.739,44.588,55.345,45.994,53.646,45.994z M55.147,18.848L32.421,30.927c-0.5,0.275-1.315,0.264-1.815,0L8.392,18.729
	c0.54-0.448,1.211-0.724,1.961-0.724h42.991c0.698,0,1.33,0.249,1.856,0.632C55.174,18.651,55.16,18.833,55.147,18.848z"/>
</svg>
