<?xml version="1.0" encoding="utf-8"?>
<!-- Generator: Adobe Illustrator 16.0.0, SVG Export Plug-In . SVG Version: 6.00 Build 0)  -->
<!DOCTYPE svg PUBLIC "-//W3C//DTD SVG 1.0//EN" "http://www.w3.org/TR/2001/REC-SVG-20010904/DTD/svg10.dtd">
<svg version="1.0" id="Layer_1" xmlns="http://www.w3.org/2000/svg" xmlns:xlink="http://www.w3.org/1999/xlink" x="0px" y="0px"
	 width="64px" height="64px" viewBox="0 0 64 64" style="enable-background:new 0 0 64 64;" xml:space="preserve">
<linearGradient id="SVGID_1_" gradientUnits="userSpaceOnUse" x1="31.6548" y1="64" x2="31.6548" y2="5.187988e-004">
	<stop  offset="0" style="stop-color:#3F3F3F"/>
	<stop  offset="1" style="stop-color:#747474"/>
</linearGradient>
<path style="fill:url(#SVGID_1_);" d="M26.684,26.197h1.895c0.37,2.038,1.756,3.924,4.44,3.924c1.109,0,2.126-0.405,2.773-0.869
	v-2.035c-0.74,0.703-1.388,1.056-2.406,1.056c-1.202,0-2.124-0.778-2.401-2.075h2.034l0.849-1.851h-3.125
	c-0.018-0.185-0.036-0.387-0.036-0.664c0-0.184,0.019-0.351,0.036-0.536h3.681l0.852-1.85h-4.29
	c0.277-1.482,1.199-2.312,2.496-2.312c1.017,0,1.851,0.461,2.293,1.201l0.852-1.85c-0.554-0.646-1.666-1.202-3.053-1.202
	c-2.866,0-4.624,1.941-4.994,4.162h-0.972l-0.923,1.85h1.655c-0.02,0.169-0.037,0.333-0.037,0.517c0,0.169,0.018,0.429,0.037,0.684
	h-0.732L26.684,26.197z"/>
<linearGradient id="SVGID_2_" gradientUnits="userSpaceOnUse" x1="31.8813" y1="64" x2="31.8813" y2="5.493164e-004">
	<stop  offset="0" style="stop-color:#3F3F3F"/>
	<stop  offset="1" style="stop-color:#747474"/>
</linearGradient>
<path style="fill:url(#SVGID_2_);" d="M31.883,37.281c1.729,0,3.38-0.532,4.776-1.542c0.477-0.345,0.583-1.009,0.242-1.484
	c-0.347-0.476-1.009-0.582-1.485-0.239c-1.034,0.747-2.255,1.143-3.533,1.143c-1.281,0-2.503-0.396-3.534-1.145
	c-0.477-0.345-1.138-0.238-1.483,0.236s-0.238,1.14,0.234,1.484C28.499,36.747,30.151,37.281,31.883,37.281z"/>
<linearGradient id="SVGID_3_" gradientUnits="userSpaceOnUse" x1="31.9995" y1="64" x2="31.9995" y2="5.264282e-004">
	<stop  offset="0" style="stop-color:#3F3F3F"/>
	<stop  offset="1" style="stop-color:#747474"/>
</linearGradient>
<path style="fill:url(#SVGID_3_);" d="M27.729,42.615h8.542c2.594,0,4.705-2.109,4.705-4.704V16.154
	c0-1.831-1.053-3.422-2.582-4.198V6.567c0-1.017-0.826-1.843-1.847-1.843c-1.016,0-1.842,0.826-1.842,1.843v4.883h-6.977
	c-2.595,0-4.705,2.11-4.705,4.704v21.757C23.023,40.506,25.134,42.615,27.729,42.615z M25.478,16.154
	c0-1.241,1.011-2.251,2.251-2.251h8.542c1.24,0,2.25,1.01,2.25,2.251v21.757c0,1.241-1.01,2.252-2.25,2.252h-8.542
	c-1.24,0-2.251-1.011-2.251-2.252V16.154z"/>
<linearGradient id="SVGID_4_" gradientUnits="userSpaceOnUse" x1="11.5991" y1="64" x2="11.5991" y2="4.806519e-004">
	<stop  offset="0" style="stop-color:#3F3F3F"/>
	<stop  offset="1" style="stop-color:#747474"/>
</linearGradient>
<path style="fill:url(#SVGID_4_);" d="M14.585,48.327c-0.672,0-2.097,0.449-2.739,0.803c-0.354-0.482-0.993-0.803-2.177-0.803
	c-0.561,0-1.618,0.306-2.341,0.609v-0.133l-1.297-0.448v6.541h1.297v-4.79c0.674-0.32,1.571-0.609,2.228-0.609
	c1.219,0,1.394,0.529,1.394,1.313v4.086h1.298v-4.197c0-0.193,0-0.385-0.033-0.577c0.672-0.336,1.587-0.625,2.261-0.625
	c1.216,0,1.394,0.529,1.394,1.313v4.086h1.299v-4.197C17.167,49.529,16.86,48.327,14.585,48.327z"/>
<linearGradient id="SVGID_5_" gradientUnits="userSpaceOnUse" x1="22.3267" y1="64" x2="22.3267" y2="5.149841e-004">
	<stop  offset="0" style="stop-color:#3F3F3F"/>
	<stop  offset="1" style="stop-color:#747474"/>
</linearGradient>
<path style="fill:url(#SVGID_5_);" d="M25.933,51.691c0-2.002-1.25-3.364-3.606-3.364c-2.355,0-3.605,1.362-3.605,3.364
	c0,2.003,1.25,3.364,3.605,3.364C24.683,55.056,25.933,53.694,25.933,51.691z M22.326,53.889c-1.666,0-2.306-0.963-2.306-2.197
	c0-1.232,0.64-2.194,2.306-2.194c1.667,0,2.311,0.962,2.311,2.194C24.637,52.926,23.993,53.889,22.326,53.889z"/>
<linearGradient id="SVGID_6_" gradientUnits="userSpaceOnUse" x1="30.8374" y1="64" x2="30.8374" y2="4.806519e-004">
	<stop  offset="0" style="stop-color:#3F3F3F"/>
	<stop  offset="1" style="stop-color:#747474"/>
</linearGradient>
<path style="fill:url(#SVGID_6_);" d="M34.058,54.896c0,0,0-3.62,0-4.197c0-1.17-0.322-2.372-2.58-2.372
	c-0.705,0-1.891,0.32-2.564,0.625v-0.56h-1.297v6.504h1.297v-4.71c0.514-0.289,1.619-0.641,2.453-0.641
	c1.201,0,1.393,0.48,1.393,1.265c0,0.609,0,4.086,0,4.086H34.058z"/>
<linearGradient id="SVGID_7_" gradientUnits="userSpaceOnUse" x1="39.0703" y1="64" x2="39.0703" y2="5.149841e-004">
	<stop  offset="0" style="stop-color:#3F3F3F"/>
	<stop  offset="1" style="stop-color:#747474"/>
</linearGradient>
<path style="fill:url(#SVGID_7_);" d="M39.364,48.327c-2.146,0-3.669,1.202-3.669,3.364c0,2.197,1.522,3.364,3.716,3.364
	c1.232,0,2.338-0.351,2.979-0.655v-1.266c-0.641,0.481-1.859,0.802-2.689,0.802c-1.717,0-2.629-0.609-2.692-1.924h4.995
	C42.966,50.906,42.47,48.327,39.364,48.327z M41.11,50.956h-4.021c0.238-1.042,1.215-1.475,2.275-1.475
	C40.772,49.481,41.396,50.314,41.11,50.956z"/>
<linearGradient id="SVGID_8_" gradientUnits="userSpaceOnUse" x1="46.2061" y1="64" x2="46.2061" y2="4.768372e-004">
	<stop  offset="0" style="stop-color:#3F3F3F"/>
	<stop  offset="1" style="stop-color:#747474"/>
</linearGradient>
<path style="fill:url(#SVGID_8_);" d="M46.079,46.822l-1.301,0.433v1.185h-1.455v1.17h1.455v2.772c0,1.634,0.371,2.674,2.582,2.674
	c0.447,0,1.119-0.142,1.729-0.318v-1.154c-0.496,0.161-1.217,0.289-1.57,0.289c-1.232,0-1.439-0.48-1.439-1.49v-2.772h3.01v-1.17
	h-3.01V46.822z"/>
<linearGradient id="SVGID_9_" gradientUnits="userSpaceOnUse" x1="53.9951" y1="64" x2="53.9951" y2="5.149841e-004">
	<stop  offset="0" style="stop-color:#3F3F3F"/>
	<stop  offset="1" style="stop-color:#747474"/>
</linearGradient>
<path style="fill:url(#SVGID_9_);" d="M56.878,53.487v-5.132l-1.297,0.629c-0.451-0.287-1.346-0.657-2.146-0.657
	c-2.166,0-3.412,1.362-3.412,3.364c0,2.003,1.246,3.364,3.412,3.364c0.766,0,1.617-0.271,2.178-0.688
	c0.127,0.417,0.592,0.688,1.232,0.688c0.387,0,0.77-0.079,1.123-0.223v-0.85c-0.146,0.065-0.305,0.096-0.465,0.096
	C57.103,54.079,56.878,53.969,56.878,53.487z M55.581,53.039c-0.402,0.463-1.123,0.85-2.066,0.85c-1.555,0-2.197-0.947-2.197-2.197
	c0-1.232,0.643-2.194,2.197-2.194c0.943,0,1.73,0.417,2.066,0.85V53.039z"/>
<linearGradient id="SVGID_10_" gradientUnits="userSpaceOnUse" x1="31.9331" y1="64" x2="31.9331" y2="5.302429e-004">
	<stop  offset="0" style="stop-color:#3F3F3F"/>
	<stop  offset="1" style="stop-color:#747474"/>
</linearGradient>
<path style="fill:url(#SVGID_10_);" d="M40.19,57.77H23.677c-0.417,0-0.756,0.336-0.756,0.753c0,0.416,0.339,0.753,0.756,0.753
	H40.19c0.416,0,0.754-0.337,0.754-0.753C40.944,58.105,40.606,57.77,40.19,57.77z"/>
<g>
</g>
<g>
</g>
<g>
</g>
<g>
</g>
<g>
</g>
</svg>
