<?xml version="1.0" encoding="utf-8"?>
<!-- Generator: Adobe Illustrator 16.0.0, SVG Export Plug-In . SVG Version: 6.00 Build 0)  -->
<!DOCTYPE svg PUBLIC "-//W3C//DTD SVG 1.0//EN" "http://www.w3.org/TR/2001/REC-SVG-20010904/DTD/svg10.dtd">
<svg version="1.0" id="Layer_1" xmlns="http://www.w3.org/2000/svg" xmlns:xlink="http://www.w3.org/1999/xlink" x="0px" y="0px"
	 width="64px" height="64px" viewBox="0 0 64 64" style="enable-background:new 0 0 64 64;" xml:space="preserve">
<path style="fill:#C0B193;" d="M53.332,45.363L43.764,31.02h5.658c-0.209-3.684-1.578-7.224-3.934-10.092
	c-1.789-2.172-4.066-3.882-6.619-4.976c-0.553-0.236-0.986-0.394-1.434-0.54l-0.369-0.116c-0.383-0.118-0.777-0.211-1.172-0.303
	l-0.539-0.119c-0.408-0.078-0.816-0.145-1.225-0.185l-0.473-0.066c-0.5-0.052-1.013-0.079-1.527-0.079c0,0,0,0-0.013,0
	c-3.738,0-7.185,1.094-10.133,3.147c-1.685,1.197-4.211,0.736-5.395-0.962c-0.593-0.829-0.83-1.868-0.646-2.882
	c0.185-1.026,0.75-1.919,1.592-2.512c4.25-2.975,9.225-4.542,14.396-4.542h0.316c0.775,0.014,1.447,0.041,2.105,0.106
	c0.197,0.014,0.381,0.039,0.58,0.065l0.643,0.08c0.264,0.026,0.527,0.065,0.803,0.104l0.277,0.067
	c0.369,0.078,0.566,0.13,0.764,0.17l0.275,0.066c0.541,0.131,1.066,0.25,1.594,0.408l0.486,0.171c0.75,0.238,1.355,0.46,1.922,0.697
	l0.303,0.132c3.697,1.591,6.869,3.974,9.422,7.078l0.131,0.172c0.434,0.527,0.777,0.961,1.105,1.421l0.131,0.223
	c2.697,3.922,4.211,8.502,4.396,13.265h5.711L53.332,45.363z M48.055,50.127c-0.184,1.027-0.752,1.908-1.592,2.514
	c-4.277,2.987-9.252,4.566-14.423,4.566c-0.83,0-1.671-0.052-2.514-0.131l-0.75-0.105c-0.382-0.039-0.776-0.08-1.158-0.157
	c-0.092-0.015-0.185-0.04-0.277-0.066c-0.368-0.067-0.592-0.119-0.815-0.171l-0.29-0.066c-0.513-0.133-1-0.25-1.487-0.396
	c-0.25-0.064-0.5-0.156-0.75-0.249c-0.58-0.186-1.119-0.383-1.658-0.594l-0.461-0.21c-0.631-0.276-1.237-0.565-1.842-0.894
	l-0.171-0.104c-2.08-1.134-3.987-2.554-5.659-4.227l-0.145-0.156c-0.5-0.514-0.987-1.041-1.447-1.593l-0.565-0.724
	c-0.237-0.303-0.487-0.606-0.711-0.921l-0.119-0.213c-2.71-3.919-4.237-8.499-4.421-13.275H1.102l9.567-14.357l9.566,14.357h-5.671
	c0.197,3.631,1.513,7.025,3.803,9.908l0.21,0.264c0.329,0.395,0.671,0.776,1.04,1.144c1.237,1.238,2.566,2.238,4.027,3.042
	c0.487,0.249,0.934,0.472,1.395,0.656l0.25,0.119c0.395,0.171,0.79,0.303,1.184,0.434l0.5,0.172c0.342,0.106,0.697,0.184,1.04,0.263
	c0.263,0.065,0.461,0.106,0.671,0.159c0.355,0.065,0.724,0.117,1.092,0.17l0.579,0.066c0.474,0.053,0.96,0.066,1.435,0.078h0.25
	c3.58,0,7.027-1.093,9.974-3.158c1.686-1.171,4.211-0.723,5.395,0.961C48.002,48.088,48.238,49.115,48.055,50.127z"/>
</svg>
