<?xml version="1.0" encoding="utf-8"?>
<!-- Generator: Adobe Illustrator 15.1.0, SVG Export Plug-In . SVG Version: 6.00 Build 0)  -->
<!DOCTYPE svg PUBLIC "-//W3C//DTD SVG 1.1//EN" "http://www.w3.org/Graphics/SVG/1.1/DTD/svg11.dtd">
<svg version="1.1" id="Layer_1" xmlns="http://www.w3.org/2000/svg" xmlns:xlink="http://www.w3.org/1999/xlink" x="0px" y="0px"
	 width="64px" height="64px" viewBox="0 0 64 64" enable-background="new 0 0 64 64" xml:space="preserve">
<path fill="#7C7C7C" d="M41.484,61.7c-6.398,0-11.604-5.205-11.604-11.604c0-6.396,5.205-11.598,11.604-11.598
	c6.396,0,11.598,5.201,11.598,11.598C53.082,56.495,47.881,61.7,41.484,61.7L41.484,61.7z M41.484,42.227
	c-4.342,0-7.877,3.53-7.877,7.871c0,4.344,3.535,7.875,7.877,7.875c4.34,0,7.869-3.531,7.869-7.875
	C49.354,45.757,45.824,42.227,41.484,42.227L41.484,42.227z M46.154,52.113h-5.787v-7.313c0-0.631,0.514-1.143,1.146-1.143
	c0.631,0,1.145,0.512,1.145,1.143v5.023h3.496c0.631,0,1.145,0.514,1.145,1.145C47.299,51.604,46.785,52.113,46.154,52.113
	L46.154,52.113z"/>
<g>
	<g>
		<defs>
			<path id="SVGID_1_" d="M41.482,63c-7.125,0-12.902-5.775-12.902-12.9S34.357,37.2,41.482,37.2c4.146,0,7.836,1.956,10.195,4.997
				L50.133,3.372L16.38,0.854l-8.498,12.75l-0.875,35.25l6.5,12L41.482,63z"/>
		</defs>
		<clipPath id="SVGID_2_">
			<use xlink:href="#SVGID_1_"  overflow="visible"/>
		</clipPath>
		<g clip-path="url(#SVGID_2_)">
			<path fill="#C1BDB7" d="M43.354,3.372H23.943c-1.943,0-3.532,1.578-3.532,3.51v2.879l21.751,1.5l-1.25,36.875
				c0,1.936-0.941,3.241,1,3.241h1.441c1.942,0,4.059-1.063,4.059-2.996V6.384C47.412,4.45,45.297,3.372,43.354,3.372L43.354,3.372z
				 M44.412,42.382h-3.375l0.375-30h3V42.382L44.412,42.382z"/>
			<path fill="#A19F9C" d="M39.324,7.466H19.912c-1.943,0-3.532,1.578-3.532,3.51v2.879l21.753,1.5l-1.25,36.875
				c0,1.936-0.943,3.242,1,3.242h1.441c1.943,0,4.059-1.064,4.059-2.996V10.478C43.383,8.544,41.268,7.466,39.324,7.466
				L39.324,7.466z M40.383,46.477h-3.375l0.375-30h3V46.477L40.383,46.477z"/>
			<path fill="#7C7C7C" d="M35.074,11.716H15.662c-1.943,0-3.532,1.578-3.532,3.51v40.98c0,1.937,1.589,3.517,3.532,3.517h19.412
				c1.943,0,4.059-1.064,4.059-2.996V14.728C39.133,12.794,37.018,11.716,35.074,11.716L35.074,11.716z M22.349,15.499h6.036
				c0.555,0,1.006,0.447,1.006,1.002c0,0.551-0.451,0.998-1.006,0.998h-6.036c-0.555,0-1.004-0.447-1.004-0.998
				C21.345,15.946,21.794,15.499,22.349,15.499L22.349,15.499z M25.366,57.249c-1.48,0-2.682-1.192-2.682-2.668
				c0-1.474,1.202-2.666,2.682-2.666c1.484,0,2.686,1.192,2.686,2.666C28.052,56.057,26.851,57.249,25.366,57.249L25.366,57.249z
				 M36.133,50.727H15.131v-30h21.001L36.133,50.727L36.133,50.727z"/>
		</g>
	</g>
</g>
</svg>
