<?xml version="1.0" encoding="utf-8"?>
<!-- Generator: Adobe Illustrator 16.0.0, SVG Export Plug-In . SVG Version: 6.00 Build 0)  -->
<!DOCTYPE svg PUBLIC "-//W3C//DTD SVG 1.0//EN" "http://www.w3.org/TR/2001/REC-SVG-20010904/DTD/svg10.dtd">
<svg version="1.0" id="Layer_1" xmlns="http://www.w3.org/2000/svg" xmlns:xlink="http://www.w3.org/1999/xlink" x="0px" y="0px"
	 width="64px" height="64px" viewBox="0 0 64 64" style="enable-background:new 0 0 64 64;" xml:space="preserve">
<path style="fill:#E78601;" d="M37.982,32.208c-3.475,0-4.396,1.5-4.396,4.674c0,3.264,0.908,4.764,4.396,4.764
	c3.381,0,4.275-1.527,4.275-4.764C42.258,33.658,41.441,32.208,37.982,32.208z M34.258,24.395l-7.62,16.974h3.158l7.592-16.974
	H34.258z M26.138,24.224c-3.474,0-4.396,1.499-4.396,4.671c0,3.262,0.895,4.763,4.396,4.763c3.382,0,4.277-1.527,4.277-4.763
	C30.415,25.67,29.586,24.224,26.138,24.224z M60.207,34.934c0,3.041-1.197,5.805-3.145,7.83c-0.777,4.344-4.539,7.631-9.094,7.631
	c-2.314,0-4.42-0.854-6.053-2.262c-1.777,4.197-5.922,7.133-10.751,7.133c-4.382,0-8.198-2.422-10.198-6.002
	c-0.947,0.383-1.974,0.605-3.053,0.605c-3.185,0-5.922-1.867-7.224-4.578c-4.053-1.791-6.896-5.842-6.896-10.58
	c0-4.882,3.014-9.041,7.277-10.765c-0.053-0.342-0.092-0.697-0.092-1.052c0-3.855,3.119-6.975,6.961-6.975
	c2.421,0,4.553,1.251,5.803,3.119c1.948-5.987,7.567-10.305,14.198-10.305c8.252,0,14.936,6.698,14.936,14.964
	c0,0.209-0.012,0.394-0.025,0.591C57.141,25.919,60.207,30.065,60.207,34.934z M26.046,31.382c-0.881,0-1.224-0.382-1.224-2.554
	c0-1.987,0.29-2.354,1.25-2.354c0.921,0,1.263,0.367,1.263,2.551C27.335,31,27.112,31.382,26.046,31.382z M37.889,39.369
	c-0.881,0-1.223-0.381-1.223-2.553c0-1.988,0.303-2.357,1.25-2.357c0.92,0,1.275,0.369,1.275,2.555
	C39.191,38.988,38.969,39.369,37.889,39.369z"/>
</svg>
