<?xml version="1.0" encoding="utf-8"?>
<!-- Generator: Adobe Illustrator 16.0.0, SVG Export Plug-In . SVG Version: 6.00 Build 0)  -->
<!DOCTYPE svg PUBLIC "-//W3C//DTD SVG 1.1//EN" "http://www.w3.org/Graphics/SVG/1.1/DTD/svg11.dtd">
<svg version="1.1" id="Layer_1" xmlns="http://www.w3.org/2000/svg" xmlns:xlink="http://www.w3.org/1999/xlink" x="0px" y="0px"
	 width="64px" height="64px" viewBox="0 0 64 64" style="enable-background:new 0 0 64 64;" xml:space="preserve">
<path style="fill-rule:evenodd;clip-rule:evenodd;fill:#49921A;" d="M32.001,0.372c17.462,0,31.62,14.159,31.62,31.621
	c0,17.477-14.158,31.635-31.62,31.635c-17.463,0-31.622-14.158-31.622-31.635C0.379,14.531,14.538,0.372,32.001,0.372z"/>
<g>
	<path style="fill:#5FB22A;" d="M12.445,51.561C17.67,56.785,24.618,59.668,32,59.668c7.383,0,14.33-2.883,19.555-8.107
		c5.238-5.223,8.105-12.172,8.105-19.567H4.34C4.34,39.389,7.209,46.338,12.445,51.561z"/>
	<path style="fill:#66BB30;" d="M32,4.333c-7.382,0-14.33,2.87-19.555,8.107C7.209,17.663,4.34,24.613,4.34,31.994h55.32
		c0-7.381-2.867-14.331-8.105-19.554C46.33,7.203,39.383,4.333,32,4.333z"/>
</g>
<path style="fill-rule:evenodd;clip-rule:evenodd;fill:none;" d="M12.446,51.561C7.208,46.338,4.34,39.389,4.34,31.993
	c0-7.381,2.869-14.331,8.106-19.554C17.67,7.202,24.618,4.332,32,4.332s14.33,2.87,19.554,8.107
	c5.238,5.223,8.105,12.173,8.105,19.554c0,7.396-2.867,14.345-8.105,19.567C46.33,56.785,39.383,59.667,32,59.667
	S17.67,56.785,12.446,51.561"/>
<polygon style="fill-rule:evenodd;clip-rule:evenodd;fill:#FFFFFF;" points="25.07,47.324 38.664,32.901 25.241,18.638 
	30.979,18.638 44.4,32.901 30.808,47.324 "/>
<rect x="1.385" y="0.372" style="fill-rule:evenodd;clip-rule:evenodd;fill:none;" width="62.236" height="31.621"/>
<g>
</g>
<g>
</g>
<g>
</g>
<g>
</g>
<g>
</g>
</svg>
