<?xml version="1.0" encoding="UTF-8" standalone="no"?>
<svg width="128px" height="128px" viewBox="0 0 128 128" version="1.1" xmlns="http://www.w3.org/2000/svg" xmlns:xlink="http://www.w3.org/1999/xlink" xmlns:sketch="http://www.bohemiancoding.com/sketch/ns">
    <!-- Generator: Sketch 3.3 (11970) - http://www.bohemiancoding.com/sketch -->
    <title>ico-dostava-avtomobil</title>
    <desc>Created with Sketch.</desc>
    <defs></defs>
    <g id="Page-1" stroke="none" stroke-width="1" fill="none" fill-rule="evenodd" sketch:type="MSPage">
        <g id="ico-dostava-avtomobil" sketch:type="MSArtboardGroup" fill="#C1B294">
            <g id="Imported-Layers" sketch:type="MSLayerGroup" transform="translate(3.000000, 28.000000)">
                <path d="M26.7294662,58.9964211 C30.8250121,58.9964211 34.1570208,62.3416842 34.1570208,66.4532632 C34.1570208,70.5650526 30.8250121,73.9098947 26.7294662,73.9098947 C22.6339203,73.9098947 19.3017019,70.5650526 19.3017019,66.4532632 C19.3017019,62.3416842 22.6339203,58.9964211 26.7294662,58.9964211 M26.7294662,53.9437895 C19.847565,53.9437895 14.268773,59.5444211 14.268773,66.4532632 C14.268773,73.3618947 19.847565,78.9625263 26.7294662,78.9625263 C33.610948,78.9625263 39.1899497,73.3618947 39.1899497,66.4532632 C39.1899497,59.5444211 33.610948,53.9437895 26.7294662,53.9437895" id="Fill-1" sketch:type="MSShapeGroup"></path>
                <path d="M89.7425754,59.8385263 C93.838331,59.8385263 97.17013,63.1837895 97.17013,67.2953684 C97.17013,71.4071579 93.838331,74.752 89.7425754,74.752 C85.6470295,74.752 82.3148111,71.4071579 82.3148111,67.2953684 C82.3148111,63.1837895 85.6470295,59.8385263 89.7425754,59.8385263 M89.7425754,54.7858947 C82.8606742,54.7858947 77.2818821,60.3865263 77.2818821,67.2953684 C77.2818821,74.204 82.8606742,79.8046316 89.7425754,79.8046316 C96.6242669,79.8046316 102.203059,74.204 102.203059,67.2953684 C102.203059,60.3865263 96.6242669,54.7858947 89.7425754,54.7858947" id="Fill-2" sketch:type="MSShapeGroup"></path>
                <path d="M119.614896,34.1597895 L91.5334593,1.66042105 C90.7778908,0.785684211 89.2157955,0.0701052632 88.0624159,0.0701052632 L2.28390121,0.0701052632 C1.13052166,0.0701052632 0.186847487,1.01747368 0.186847487,2.17536842 L0.186847487,63.3844211 C0.186847487,64.5423158 1.13052166,65.4896842 2.28390121,65.4896842 L12.3510173,65.4896842 C12.3510173,58.0574737 19.4006828,52.0330526 26.8037019,52.0330526 C34.2065113,52.0330526 41.2561768,58.0574737 41.2563865,65.4896842 L75.2689203,65.4896842 C75.26913,58.0574737 82.3185858,52.0330526 89.7218146,52.0330526 C97.1246239,52.0330526 104.174499,58.0574737 104.174499,65.4896842 L118.892042,65.4896842 C120.045421,65.4896842 120.989095,64.5423158 120.989095,63.3844211 L120.989095,37.8551579 C120.989095,36.6974737 120.370884,35.0343158 119.614896,34.1597895 L119.614896,34.1597895 Z M111.044657,35.5168421 L91.8186586,35.5168421 C90.665279,35.5168421 89.7216049,34.5694737 89.7216049,33.4115789 L89.7216049,8.75789474 C89.7216049,7.6 90.3173778,7.38694737 91.0458943,8.28484211 L111.817421,33.8844211 C112.545728,34.7823158 112.198036,35.5168421 111.044657,35.5168421 L111.044657,35.5168421 Z" id="Fill-3" sketch:type="MSShapeGroup"></path>
            </g>
        </g>
    </g>
</svg>