<?xml version="1.0" encoding="utf-8"?>
<!-- Generator: Adobe Illustrator 16.0.0, SVG Export Plug-In . SVG Version: 6.00 Build 0)  -->
<!DOCTYPE svg PUBLIC "-//W3C//DTD SVG 1.0//EN" "http://www.w3.org/TR/2001/REC-SVG-20010904/DTD/svg10.dtd">
<svg version="1.0" id="Layer_1" xmlns="http://www.w3.org/2000/svg" xmlns:xlink="http://www.w3.org/1999/xlink" x="0px" y="0px"
	 width="64px" height="64px" viewBox="0 0 64 64" style="enable-background:new 0 0 64 64;" xml:space="preserve">
<g>
	<linearGradient id="SVGID_1_" gradientUnits="userSpaceOnUse" x1="24.2007" y1="59.6992" x2="24.2007" y2="4.3013">
		<stop  offset="0" style="stop-color:#3F3F3F"/>
		<stop  offset="1" style="stop-color:#747474"/>
	</linearGradient>
	<path style="fill:url(#SVGID_1_);" d="M35.34,48.357H13.075V14.88H35.34V48.357z M24.207,56.846c-1.671,0-3.026-1.383-3.026-3.08
		s1.355-3.08,3.026-3.08c1.671,0,3.027,1.383,3.027,3.08S25.878,56.846,24.207,56.846z M20.799,8.656h6.816
		c0.631,0,1.132,0.526,1.132,1.156c0,0.646-0.5,1.158-1.132,1.158h-6.816c-0.632,0-1.145-0.513-1.145-1.158
		C19.654,9.183,20.167,8.656,20.799,8.656z M35.169,4.301H13.245c-2.197,0-4,1.816-4,4.052v47.294c0,2.223,1.803,4.053,4,4.053
		h21.924c2.197,0,3.986-1.83,3.986-4.053V8.353C39.155,6.117,37.366,4.301,35.169,4.301z"/>
	<linearGradient id="SVGID_2_" gradientUnits="userSpaceOnUse" x1="42.3926" y1="32.0518" x2="42.3926" y2="59.0239">
		<stop  offset="0" style="stop-color:#E78601"/>
		<stop  offset="1" style="stop-color:#D27A02"/>
	</linearGradient>
	<path style="fill:url(#SVGID_2_);" d="M33.674,36.395c-0.039,0.027-0.079,0.053-0.118,0.078c-0.631,0.449-0.987,0.961-1.079,1.568
		c-0.211,1.223,0.67,2.643,0.96,3.064l2.803,4.383l8.014-5.291l-2.802-4.381c-0.04-0.053-0.08-0.133-0.146-0.211
		c0-0.883,0-1.605,0-3.554c1.237,0.844,1.922,2.04,2.25,2.554l2.725,4.25l0.118-0.08c0.789-0.527,1.855-0.289,2.368,0.5l5.712,8.922
		c0.513,0.805,0.289,1.885-0.5,2.41l-12.33,8.131c-0.791,0.527-1.856,0.303-2.369-0.498l-5.711-8.924
		c-0.5-0.803-0.277-1.881,0.513-2.408l0.132-0.078l-2.724-4.252c-0.276-0.434-1.79-2.564-1.395-4.945
		c0.21-1.316,1.014-2.408,2.264-3.291c0,0,0.566-0.381,1.25-0.83C33.608,34.092,33.674,36.395,33.674,36.395z"/>
</g>
</svg>
