<?xml version="1.0" encoding="utf-8"?>
<!-- Generator: Adobe Illustrator 16.0.0, SVG Export Plug-In . SVG Version: 6.00 Build 0)  -->
<!DOCTYPE svg PUBLIC "-//W3C//DTD SVG 1.0//EN" "http://www.w3.org/TR/2001/REC-SVG-20010904/DTD/svg10.dtd">
<svg version="1.0" id="Layer_1" xmlns="http://www.w3.org/2000/svg" xmlns:xlink="http://www.w3.org/1999/xlink" x="0px" y="0px"
	 width="64px" height="64px" viewBox="0 0 64 64" style="enable-background:new 0 0 64 64;" xml:space="preserve">
<path style="fill:#9299A9;" d="M37.961,32.834c-0.959-0.445-10.961-0.445-11.922,0c0,0-0.71,0.318-0.71,1.699s0.71,1.697,0.71,1.697
	c0.961,0.434,10.963,0.434,11.922,0c0,0,0.711-0.316,0.711-1.697S37.961,32.834,37.961,32.834z M47.318,47.836H16.683
	c-0.908,0-1.645-0.748-1.645-1.672V28.926c0-0.919,0.737-1.671,1.645-1.671h30.635c0.908,0,1.645,0.752,1.645,1.671v17.238
	C48.963,47.088,48.227,47.836,47.318,47.836z M49.594,24.571H14.406c-1.21,0-2.198-1-2.198-2.236v-3.948
	c0-1.224,0.987-2.223,2.198-2.223h35.188c1.211,0,2.197,0.999,2.197,2.223v3.948C51.791,23.571,50.805,24.571,49.594,24.571z"/>
</svg>
