<?xml version="1.0" encoding="utf-8"?>
<!-- Generator: Adobe Illustrator 16.0.0, SVG Export Plug-In . SVG Version: 6.00 Build 0)  -->
<!DOCTYPE svg PUBLIC "-//W3C//DTD SVG 1.0//EN" "http://www.w3.org/TR/2001/REC-SVG-20010904/DTD/svg10.dtd">
<svg version="1.0" id="Layer_1" xmlns="http://www.w3.org/2000/svg" xmlns:xlink="http://www.w3.org/1999/xlink" x="0px" y="0px"
	 width="64px" height="64px" viewBox="0 0 64 64" style="enable-background:new 0 0 64 64;" xml:space="preserve">
<linearGradient id="SVGID_1_" gradientUnits="userSpaceOnUse" x1="32.0005" y1="45.9883" x2="32.0005" y2="18.0122">
	<stop  offset="0" style="stop-color:#3F3F3F"/>
	<stop  offset="1" style="stop-color:#747474"/>
</linearGradient>
<path style="fill:url(#SVGID_1_);" d="M53.646,45.988H10.353c-1.697,0-3.092-1.395-3.092-3.093v-21.08l22.595,12.236
	c0.5,0.263,1.263,0.634,1.395,0.645c0.145,0.014,0.368,0.014,0.5,0c0.145-0.011,0.895-0.367,1.394-0.631l23.595-12.384v21.214
	C56.739,44.594,55.345,45.988,53.646,45.988z M55.147,18.854l-22.727,12.08c-0.5,0.263-1.315,0.263-1.815-0.012L8.392,18.734
	c0.54-0.446,1.211-0.723,1.961-0.723h42.991c0.698,0,1.33,0.236,1.856,0.631C55.174,18.656,55.16,18.841,55.147,18.854z"/>
</svg>
