<?xml version="1.0" encoding="UTF-8" standalone="no"?>
<svg width="40px" height="40px" viewBox="0 0 40 40" version="1.1" xmlns="http://www.w3.org/2000/svg" xmlns:xlink="http://www.w3.org/1999/xlink" xmlns:sketch="http://www.bohemiancoding.com/sketch/ns">
    <!-- Generator: Sketch 3.3 (11970) - http://www.bohemiancoding.com/sketch -->
    <title>Shape</title>
    <desc>Created with Sketch.</desc>
    <defs></defs>
    <g id="Page-1" stroke="none" stroke-width="1" fill="none" fill-rule="evenodd" sketch:type="MSPage">
        <g id="1.-Vztopna-stran" sketch:type="MSArtboardGroup" transform="translate(-515.000000, -955.000000)" fill="#C0B193">
            <g id="Group" sketch:type="MSLayerGroup" transform="translate(182.000000, 955.000000)">
                <g id="Shape-+-Dostava-po-" transform="translate(333.000000, 0.000000)" sketch:type="MSShapeGroup">
                    <path d="M36.6666667,31.6666667 L35,31.6666667 L35,35 L36.6666667,35 L36.6666667,31.6666667 L36.6666667,31.6666667 Z M36.6666667,26.6666667 L35,26.6666667 L35,30 L36.6666667,30 L36.6666667,26.6666667 L36.6666667,26.6666667 Z M36.6666667,21.6666667 L35,21.6666667 L35,25 L36.6666667,25 L36.6666667,21.6666667 L36.6666667,21.6666667 Z M36.6666667,16.6666667 L35,16.6666667 L35,20 L36.6666667,20 L36.6666667,16.6666667 L36.6666667,16.6666667 Z M36.6666667,11.6666667 L35,11.6666667 L35,15 L36.6666667,15 L36.6666667,11.6666667 L36.6666667,11.6666667 Z M36.6666667,6.66666667 L35,6.66666667 L35,10 L36.6666667,10 L36.6666667,6.66666667 L36.6666667,6.66666667 Z M36.6666667,1.66666667 L35,1.66666667 L35,5 L36.6666667,5 L36.6666667,1.66666667 L36.6666667,1.66666667 Z M33.3333333,31.6666667 L30,31.6666667 L30,38.3333333 L33.3333333,38.3333333 L33.3333333,31.6666667 L33.3333333,31.6666667 Z M33.3333333,26.6666667 L31.6666667,26.6666667 L31.6666667,30 L33.3333333,30 L33.3333333,26.6666667 L33.3333333,26.6666667 Z M33.3333333,21.6666667 L31.6666667,21.6666667 L31.6666667,25 L33.3333333,25 L33.3333333,21.6666667 L33.3333333,21.6666667 Z M33.3333333,16.6666667 L31.6666667,16.6666667 L31.6666667,20 L33.3333333,20 L33.3333333,16.6666667 L33.3333333,16.6666667 Z M33.3333333,11.6666667 L31.6666667,11.6666667 L31.6666667,15 L33.3333333,15 L33.3333333,11.6666667 L33.3333333,11.6666667 Z M33.3333333,6.66666667 L31.6666667,6.66666667 L31.6666667,10 L33.3333333,10 L33.3333333,6.66666667 L33.3333333,6.66666667 Z M33.3333333,1.66666667 L31.6666667,1.66666667 L31.6666667,5 L33.3333333,5 L33.3333333,1.66666667 L33.3333333,1.66666667 Z M30,26.6666667 L28.3333333,26.6666667 L28.3333333,30 L30,30 L30,26.6666667 L30,26.6666667 Z M30,21.6666667 L28.3333333,21.6666667 L28.3333333,25 L30,25 L30,21.6666667 L30,21.6666667 Z M30,16.6666667 L28.3333333,16.6666667 L28.3333333,20 L30,20 L30,16.6666667 L30,16.6666667 Z M30,11.6666667 L28.3333333,11.6666667 L28.3333333,15 L30,15 L30,11.6666667 L30,11.6666667 Z M30,6.66666667 L28.3333333,6.66666667 L28.3333333,10 L30,10 L30,6.66666667 L30,6.66666667 Z M30,1.66666667 L28.3333333,1.66666667 L28.3333333,5 L30,5 L30,1.66666667 L30,1.66666667 Z M26.6666667,26.6666667 L25,26.6666667 L25,30 L26.6666667,30 L26.6666667,26.6666667 L26.6666667,26.6666667 Z M26.6666667,21.6666667 L25,21.6666667 L25,25 L26.6666667,25 L26.6666667,21.6666667 L26.6666667,21.6666667 Z M26.6666667,16.6666667 L25,16.6666667 L25,20 L26.6666667,20 L26.6666667,16.6666667 L26.6666667,16.6666667 Z M26.6666667,11.6666667 L25,11.6666667 L25,15 L26.6666667,15 L26.6666667,11.6666667 L26.6666667,11.6666667 Z M26.6666667,6.66666667 L25,6.66666667 L25,10 L26.6666667,10 L26.6666667,6.66666667 L26.6666667,6.66666667 Z M26.6666667,1.66666667 L25,1.66666667 L25,5 L26.6666667,5 L26.6666667,1.66666667 L26.6666667,1.66666667 Z M23.3333333,31.6666667 L21.6666667,31.6666667 L21.6666667,35 L23.3333333,35 L23.3333333,31.6666667 L23.3333333,31.6666667 Z M23.3333333,26.6666667 L21.6666667,26.6666667 L21.6666667,30 L23.3333333,30 L23.3333333,26.6666667 L23.3333333,26.6666667 Z M23.3333333,21.6666667 L21.6666667,21.6666667 L21.6666667,25 L23.3333333,25 L23.3333333,21.6666667 L23.3333333,21.6666667 Z M23.3333333,16.6666667 L21.6666667,16.6666667 L21.6666667,20 L23.3333333,20 L23.3333333,16.6666667 L23.3333333,16.6666667 Z M23.3333333,11.6666667 L21.6666667,11.6666667 L21.6666667,15 L23.3333333,15 L23.3333333,11.6666667 L23.3333333,11.6666667 Z M23.3333333,6.66666667 L21.6666667,6.66666667 L21.6666667,10 L23.3333333,10 L23.3333333,6.66666667 L23.3333333,6.66666667 Z M23.3333333,1.66666667 L21.6666667,1.66666667 L21.6666667,5 L23.3333333,5 L23.3333333,1.66666667 L23.3333333,1.66666667 Z M25,38.3333333 L28.3333333,38.3333333 L28.3333333,31.6666667 L25,31.6666667 L25,38.3333333 L25,38.3333333 Z M15,31.6666667 L13.3333333,31.6666667 L13.3333333,33.3333333 L15,33.3333333 L15,31.6666667 L15,31.6666667 Z M15,25 L13.3333333,25 L13.3333333,30 L15,30 L15,25 L15,25 Z M15,20 L13.3333333,20 L13.3333333,23.3333333 L15,23.3333333 L15,20 L15,20 Z M11.6666667,31.6666667 L8.33333333,31.6666667 L8.33333333,38.3333333 L11.6666667,38.3333333 L11.6666667,31.6666667 L11.6666667,31.6666667 Z M11.6666667,25 L8.33333333,25 L8.33333333,30 L11.6666667,30 L11.6666667,25 L11.6666667,25 Z M11.6666667,20 L8.33333333,20 L8.33333333,23.3333333 L11.6666667,23.3333333 L11.6666667,20 L11.6666667,20 Z M6.66666667,31.6666667 L5,31.6666667 L5,33.3333333 L6.66666667,33.3333333 L6.66666667,31.6666667 L6.66666667,31.6666667 Z M6.66666667,25 L5,25 L5,30 L6.66666667,30 L6.66666667,25 L6.66666667,25 Z M6.66666667,20 L5,20 L5,23.3333333 L6.66666667,23.3333333 L6.66666667,20 L6.66666667,20 Z M38.3333333,40 L20,40 L18.3333333,40 L1.66666667,40 L0,40 L0,36.6666667 L1.66666667,36.6666667 L1.66666667,16.6666667 L18.3333333,16.6666667 L18.3333333,36.6666667 L20,36.6666667 L20,0 L38.3333333,0 L38.3333333,36.6666667 L40,36.6666667 L40,40 L38.3333333,40 L38.3333333,40 Z" id="Shape"></path>
                </g>
            </g>
        </g>
    </g>
</svg>