<?xml version="1.0" encoding="utf-8"?>
<!-- Generator: Adobe Illustrator 16.0.0, SVG Export Plug-In . SVG Version: 6.00 Build 0)  -->
<!DOCTYPE svg PUBLIC "-//W3C//DTD SVG 1.0//EN" "http://www.w3.org/TR/2001/REC-SVG-20010904/DTD/svg10.dtd">
<svg version="1.0" id="Layer_1" xmlns="http://www.w3.org/2000/svg" xmlns:xlink="http://www.w3.org/1999/xlink" x="0px" y="0px"
	 width="64px" height="64px" viewBox="0 0 64 64" style="enable-background:new 0 0 64 64;" xml:space="preserve">
<path style="fill:none;" d="M20.799,10.971h6.816c0.631,0,1.132-0.513,1.132-1.158c0-0.63-0.5-1.156-1.132-1.156h-6.816
	c-0.632,0-1.145,0.526-1.145,1.156C19.654,10.458,20.167,10.971,20.799,10.971z"/>
<g>
	<linearGradient id="SVGID_1_" gradientUnits="userSpaceOnUse" x1="24.2007" y1="59.6992" x2="24.2007" y2="4.3013">
		<stop  offset="0" style="stop-color:#3F3F3F"/>
		<stop  offset="1" style="stop-color:#747474"/>
	</linearGradient>
	<path style="fill:url(#SVGID_1_);" d="M31.319,48.357H13.075V14.88H35.34v17.64v4.955v2.895l1.491,2.332l2.324-1.534V8.353
		c0-2.235-1.789-4.052-3.986-4.052H13.245c-2.197,0-4,1.816-4,4.052v47.294c0,2.223,1.803,4.053,4,4.053h21.924
		c0.823,0,1.589-0.257,2.226-0.695l-5.51-8.609C31.491,49.763,31.313,49.056,31.319,48.357z M20.799,8.656h6.816
		c0.631,0,1.132,0.526,1.132,1.156c0,0.646-0.5,1.158-1.132,1.158h-6.816c-0.632,0-1.145-0.513-1.145-1.158
		C19.654,9.183,20.167,8.656,20.799,8.656z"/>
	<linearGradient id="SVGID_2_" gradientUnits="userSpaceOnUse" x1="42.3926" y1="59.0234" x2="42.3926" y2="32.0522">
		<stop  offset="0" style="stop-color:#3F3F3F"/>
		<stop  offset="1" style="stop-color:#747474"/>
	</linearGradient>
	<path style="fill:url(#SVGID_2_);" d="M54.479,48.197l-5.712-8.922c-0.513-0.789-1.579-1.027-2.368-0.5l-0.118,0.08l-2.725-4.25
		c-0.328-0.514-1.013-1.71-2.25-2.554c0,1.948,0,2.671,0,3.554c0.065,0.078,0.105,0.158,0.146,0.211l2.802,4.381l-8.014,5.291
		l-2.803-4.383c-0.29-0.422-1.171-1.842-0.96-3.064c0.092-0.607,0.447-1.119,1.079-1.568c0.039-0.025,0.079-0.051,0.118-0.078
		c0,0-0.065-2.303-0.065-2.883c-0.684,0.449-1.25,0.83-1.25,0.83c-1.25,0.883-2.053,1.975-2.264,3.291
		c-0.395,2.381,1.119,4.512,1.395,4.945l2.724,4.252l-0.132,0.078c-0.79,0.527-1.013,1.605-0.513,2.408l5.711,8.924
		c0.513,0.801,1.578,1.025,2.369,0.498l12.33-8.131C54.769,50.082,54.992,49.002,54.479,48.197z"/>
</g>
</svg>
