<?xml version="1.0" encoding="utf-8"?>
<!-- Generator: Adobe Illustrator 16.0.0, SVG Export Plug-In . SVG Version: 6.00 Build 0)  -->
<!DOCTYPE svg PUBLIC "-//W3C//DTD SVG 1.0//EN" "http://www.w3.org/TR/2001/REC-SVG-20010904/DTD/svg10.dtd">
<svg version="1.0" id="Layer_1" xmlns="http://www.w3.org/2000/svg" xmlns:xlink="http://www.w3.org/1999/xlink" x="0px" y="0px"
	 width="64px" height="64px" viewBox="0 0 64 64" style="enable-background:new 0 0 64 64;" xml:space="preserve">
<g>
	<polygon style="fill:#78C246;" points="29.793,45.002 27.318,59.371 32.253,59.713 37.162,59.371 34.701,45.002 35.201,44.014 
		32.253,41.566 29.306,44.014 	"/>
	<path style="fill:#E7E7E7;" d="M63.661,60.701H32.025h-0.052H0.339c0,0-0.408-10.672,4.343-12.699
		c4.737-2.014,15.567-5.33,15.567-5.33s2.618-0.867,3.447-3.197c0.513-1.422,1.315-2.486,3.329,1.184
		c0.369,0.66,0.672,1.211,0.935,1.697l-1.145,3.594l3.421,7.869c0,0,0.236,1.867,1.764,1.895c1.526-0.027,1.764-1.895,1.764-1.895
		l3.211-7.869l-1.054-3.355c0.277-0.527,0.619-1.156,1.054-1.936c2.025-3.67,2.815-2.605,3.328-1.184
		c0.83,2.33,3.449,3.197,3.449,3.197s10.829,3.316,15.566,5.33C64.068,50.029,63.661,60.701,63.661,60.701z M43.252,24.881
		c-0.646,0.315-1.909,2.144-1.909,2.144c-1.264,10.028-9.264,9.646-9.277,9.646c-0.013,0-8.014,0.383-9.276-9.646
		c0,0-1.277-1.828-1.908-2.144c-0.632-0.315-0.869-0.158-0.869-3.869c0-3.712,0.158-9.724,0.158-9.724s1.264-7.989,11.896-7.989
		c10.619,0,11.896,7.989,11.896,7.989s0.159,6.012,0.159,9.724C44.12,24.723,43.883,24.565,43.252,24.881z"/>
</g>
</svg>
