<?xml version="1.0" encoding="utf-8"?>
<!-- Generator: Adobe Illustrator 16.0.0, SVG Export Plug-In . SVG Version: 6.00 Build 0)  -->
<!DOCTYPE svg PUBLIC "-//W3C//DTD SVG 1.0//EN" "http://www.w3.org/TR/2001/REC-SVG-20010904/DTD/svg10.dtd">
<svg version="1.0" id="Layer_1" xmlns="http://www.w3.org/2000/svg" xmlns:xlink="http://www.w3.org/1999/xlink" x="0px" y="0px"
	 width="64px" height="64px" viewBox="0 0 64 64" style="enable-background:new 0 0 64 64;" xml:space="preserve">
<path style="fill:#C0B193;" d="M52.312,27.026h-3.263v9.948h3.263V27.026z M45.653,25.789c-0.079-0.237-0.263-0.434-0.514-0.525
	h-32.99c-0.263,0.092-0.46,0.301-0.526,0.578v12.172c0.066,0.265,0.264,0.486,0.539,0.58h32.965c0.25-0.094,0.447-0.277,0.526-0.526
	V25.789z M54.418,38.619h-5.369v1.961c0,0.736-0.605,1.329-1.356,1.329H9.597c-0.75,0-1.369-0.593-1.369-1.329V23.406
	c0-0.723,0.619-1.316,1.369-1.316h38.096c0.751,0,1.356,0.593,1.356,1.316v1.896h5.369c0.749,0,1.354,0.592,1.354,1.329v10.672
	C55.772,38.04,55.167,38.619,54.418,38.619z M43.192,36.947H14.11c-0.421,0-0.764-0.328-0.764-0.736v-8.487
	c0-0.407,0.343-0.737,0.764-0.737h29.082c0.408,0,0.75,0.33,0.75,0.737v8.487C43.942,36.619,43.601,36.947,43.192,36.947z"/>
</svg>
