<?xml version="1.0" encoding="utf-8"?>
<!-- Generator: Adobe Illustrator 16.0.0, SVG Export Plug-In . SVG Version: 6.00 Build 0)  -->
<!DOCTYPE svg PUBLIC "-//W3C//DTD SVG 1.0//EN" "http://www.w3.org/TR/2001/REC-SVG-20010904/DTD/svg10.dtd">
<svg version="1.0" id="Layer_1" xmlns="http://www.w3.org/2000/svg" xmlns:xlink="http://www.w3.org/1999/xlink" x="0px" y="0px"
	 width="64px" height="64px" viewBox="0 0 64 64" style="enable-background:new 0 0 64 64;" xml:space="preserve">
<g>
	<linearGradient id="SVGID_1_" gradientUnits="userSpaceOnUse" x1="29.5864" y1="55.7529" x2="29.5864" y2="8.2476">
		<stop  offset="0" style="stop-color:#3F3F3F"/>
		<stop  offset="1" style="stop-color:#747474"/>
	</linearGradient>
	<path style="fill:url(#SVGID_1_);" d="M39.982,46.856H19.19V17.168h20.792v11.476h2.961v-17.41c0-1.907-2.093-2.986-4.014-2.986
		H19.717c-1.921,0-3.487,1.565-3.487,3.475v40.557c0,1.921,1.566,3.475,3.487,3.475H38.93c1.921,0,4.014-1.054,4.014-2.963V37.474
		h-2.961V46.856z M26.336,11.997h5.974c0.553,0,1,0.447,1,0.988c0,0.552-0.448,0.986-1,0.986h-5.974
		c-0.553,0-0.987-0.435-0.987-0.986C25.349,12.444,25.783,11.997,26.336,11.997z M29.323,53.305c-1.461,0-2.658-1.171-2.658-2.631
		c0-1.462,1.197-2.646,2.658-2.646c1.474,0,2.658,1.185,2.658,2.646C31.981,52.134,30.797,53.305,29.323,53.305z"/>
	
		<linearGradient id="SVGID_2_" gradientUnits="userSpaceOnUse" x1="46.2051" y1="22.3901" x2="46.2051" y2="44.2095" gradientTransform="matrix(-1 0 0 1 82.4102 0)">
		<stop  offset="0" style="stop-color:#E78601"/>
		<stop  offset="1" style="stop-color:#D27A02"/>
	</linearGradient>
	<path style="fill:url(#SVGID_2_);" d="M25.083,32.461l11.041-9.792c0.592-0.513,1.079-0.302,1.079,0.487v4.053
		c0,0.79,0.646,1.435,1.448,1.435h0.815h2.961h3.896c0.789,0,1.434,0.646,1.446,1.435v5.962c-0.013,0.789-0.657,1.434-1.446,1.434
		h-3.896h-2.961h-0.578c-0.791,0-1.462,0.646-1.488,1.421l-0.145,4.54c-0.026,0.789-0.54,1.014-1.132,0.5l-11.041-9.579
		C24.491,33.842,24.491,32.987,25.083,32.461z"/>
</g>
</svg>
