<?xml version="1.0" encoding="utf-8"?>
<!-- Generator: Adobe Illustrator 16.0.0, SVG Export Plug-In . SVG Version: 6.00 Build 0)  -->
<!DOCTYPE svg PUBLIC "-//W3C//DTD SVG 1.0//EN" "http://www.w3.org/TR/2001/REC-SVG-20010904/DTD/svg10.dtd">
<svg version="1.0" id="Layer_1" xmlns="http://www.w3.org/2000/svg" xmlns:xlink="http://www.w3.org/1999/xlink" x="0px" y="0px"
	 width="64px" height="64px" viewBox="0 0 64 64" style="enable-background:new 0 0 64 64;" xml:space="preserve">
<linearGradient id="SVGID_1_" gradientUnits="userSpaceOnUse" x1="32.0005" y1="63.6533" x2="32.0005" y2="0.3472">
	<stop  offset="0" style="stop-color:#3F3F3F"/>
	<stop  offset="1" style="stop-color:#747474"/>
</linearGradient>
<path style="fill:url(#SVGID_1_);" d="M44.837,49.786H19.084V12.149h25.753V49.786z M31.954,60.403c-1.935,0-3.5-1.565-3.5-3.5
	c0-1.946,1.565-3.513,3.5-3.513c1.947,0,3.514,1.566,3.514,3.513C35.468,58.838,33.901,60.403,31.954,60.403z M28.007,6.018h7.896
	c0.724,0,1.316,0.329,1.316,1.064c0,0.724-0.593,1.053-1.316,1.053h-7.896c-0.725,0-1.316-0.329-1.316-1.053
	C26.69,6.346,27.282,6.018,28.007,6.018z M44.311,0.347H19.703c-2.54,0-4.619,2.077-4.619,4.619v54.07
	c0,2.54,2.079,4.618,4.619,4.618h24.607c2.54,0,4.605-2.078,4.605-4.618V4.965C48.916,2.424,46.851,0.347,44.311,0.347z"/>
</svg>
