<?xml version="1.0" encoding="UTF-8" standalone="no"?>
<svg width="71px" height="66px" viewBox="0 0 71 66" version="1.1" xmlns="http://www.w3.org/2000/svg" xmlns:xlink="http://www.w3.org/1999/xlink" xmlns:sketch="http://www.bohemiancoding.com/sketch/ns">
    <!-- Generator: Sketch 3.3.2 (12043) - http://www.bohemiancoding.com/sketch -->
    <title>Imported Layers</title>
    <desc>Created with Sketch.</desc>
    <defs></defs>
    <g id="Final" stroke="none" stroke-width="1" fill="none" fill-rule="evenodd" sketch:type="MSPage">
        <g id="poslovni-landing-page-copy-6" sketch:type="MSArtboardGroup" transform="translate(-713.000000, -643.000000)" fill="#6E7683">
            <g id="Group-+-Group" sketch:type="MSLayerGroup" transform="translate(227.500000, 643.000000)">
                <g id="Group" transform="translate(486.000000, 0.000000)" sketch:type="MSShapeGroup">
                    <g id="Imported-Layers">
                        <path d="M33.8095238,0 L66.984127,0 L66.984127,5.7253012 L33.8095238,5.7253012 L33.8095238,0 Z" id="Fill-1"></path>
                        <path d="M46.4307937,25.8386024 L46.4307937,22.4240964 L3.8868254,22.4240964 L3.8868254,25.8386024 L0.0793650794,25.8386024 L0.0793650794,66 L50.2380952,66 L50.2380952,25.8386024 L46.4307937,25.8386024 L46.4307937,25.8386024 Z M4.38333333,31.5295518 L12.3293651,31.5295518 L12.3293651,39.1715566 L4.38333333,39.1715566 L4.38333333,31.5295518 Z M4.38333333,41.7730699 L12.3293651,41.7730699 L12.3293651,49.4152337 L4.38333333,49.4152337 L4.38333333,41.7730699 Z M4.54888889,51.854212 L12.3293651,51.854212 L12.3293651,59.4962169 L4.54888889,59.4962169 L4.54888889,51.854212 Z M15.6403175,52.016588 L23.5860317,52.016588 L23.5860317,59.4960578 L15.6403175,59.4960578 L15.6403175,52.016588 Z M15.6403175,41.7730699 L23.5860317,41.7730699 L23.5860317,49.4152337 L15.6403175,49.4152337 L15.6403175,41.7730699 Z M15.6403175,31.5295518 L23.5860317,31.5295518 L23.5860317,39.1715566 L15.6403175,39.1715566 L15.6403175,31.5295518 Z M26.565873,41.6105349 L34.511746,41.6105349 L34.511746,49.2526988 L26.565873,49.2526988 L26.565873,41.6105349 Z M26.7314286,52.016588 L34.511746,52.016588 L34.511746,59.4960578 L26.7314286,59.4960578 L26.7314286,52.016588 Z M26.7314286,31.5295518 L34.511746,31.5295518 L34.511746,39.1715566 L26.7314286,39.1715566 L26.7314286,31.5295518 Z M37.8226984,41.6105349 L45.7685714,41.6105349 L45.7685714,49.2526988 L37.8226984,49.2526988 L37.8226984,41.6105349 Z M37.9880952,52.016588 L45.7684127,52.016588 L45.7684127,59.4960578 L37.9880952,59.4960578 L37.9880952,52.016588 Z M37.9880952,31.5295518 L45.7684127,31.5295518 L45.7684127,39.1715566 L37.9880952,39.1715566 L37.9880952,31.5295518 Z" id="Fill-2"></path>
                        <path d="M29.8412698,3.33975904 L29.8412698,21.6289157 L47.3015873,21.6289157 L47.3015873,24.9686747 L51.1111111,24.9686747 L51.1111111,66 L70,66 L70,3.33975904 L29.8412698,3.33975904 L29.8412698,3.33975904 Z M34.9206349,14.1542169 L39.5238095,14.1542169 L39.5238095,18.9253012 L34.9206349,18.9253012 L34.9206349,14.1542169 Z M34.9206349,6.67951807 L39.5238095,6.67951807 L39.5238095,11.4506024 L34.9206349,11.4506024 L34.9206349,6.67951807 Z M43.3333333,14.1542169 L47.9365079,14.1542169 L47.9365079,18.9253012 L43.3333333,18.9253012 L43.3333333,14.1542169 Z M43.3333333,6.67951807 L47.9365079,6.67951807 L47.9365079,11.4506024 L43.3333333,11.4506024 L43.3333333,6.67951807 Z M51.9047619,53.913253 L56.5079365,53.913253 L56.5079365,58.6843373 L51.9047619,58.6843373 L51.9047619,53.913253 Z M51.9047619,46.1204819 L56.5079365,46.1204819 L56.5079365,50.8915663 L51.9047619,50.8915663 L51.9047619,46.1204819 Z M51.9047619,38.3277108 L56.5079365,38.3277108 L56.5079365,43.0987952 L51.9047619,43.0987952 L51.9047619,38.3277108 Z M51.9047619,30.3759036 L56.5079365,30.3759036 L56.5079365,35.146988 L51.9047619,35.146988 L51.9047619,30.3759036 Z M51.9047619,22.5831325 L56.5079365,22.5831325 L56.5079365,27.3542169 L51.9047619,27.3542169 L51.9047619,22.5831325 Z M51.9047619,14.1542169 L56.5079365,14.1542169 L56.5079365,18.9253012 L51.9047619,18.9253012 L51.9047619,14.1542169 Z M51.9047619,6.67951807 L56.5079365,6.67951807 L56.5079365,11.4506024 L51.9047619,11.4506024 L51.9047619,6.67951807 Z M60.3174603,53.913253 L64.9206349,53.913253 L64.9206349,58.6843373 L60.3174603,58.6843373 L60.3174603,53.913253 Z M60.3174603,46.1204819 L64.9206349,46.1204819 L64.9206349,50.8915663 L60.3174603,50.8915663 L60.3174603,46.1204819 Z M60.3174603,38.3277108 L64.9206349,38.3277108 L64.9206349,43.0987952 L60.3174603,43.0987952 L60.3174603,38.3277108 Z M60.3174603,30.3759036 L64.9206349,30.3759036 L64.9206349,35.146988 L60.3174603,35.146988 L60.3174603,30.3759036 Z M60.3174603,22.5831325 L64.9206349,22.5831325 L64.9206349,27.3542169 L60.3174603,27.3542169 L60.3174603,22.5831325 Z M60.3174603,14.1542169 L64.9206349,14.1542169 L64.9206349,18.9253012 L60.3174603,18.9253012 L60.3174603,14.1542169 Z M60.3174603,6.67951807 L64.9206349,6.67951807 L64.9206349,11.4506024 L60.3174603,11.4506024 L60.3174603,6.67951807 Z" id="Fill-3"></path>
                    </g>
                </g>
            </g>
        </g>
    </g>
</svg>