<?xml version="1.0" encoding="utf-8"?>
<!-- Generator: Adobe Illustrator 16.0.0, SVG Export Plug-In . SVG Version: 6.00 Build 0)  -->
<!DOCTYPE svg PUBLIC "-//W3C//DTD SVG 1.0//EN" "http://www.w3.org/TR/2001/REC-SVG-20010904/DTD/svg10.dtd">
<svg version="1.0" id="Layer_1" xmlns="http://www.w3.org/2000/svg" xmlns:xlink="http://www.w3.org/1999/xlink" x="0px" y="0px"
	 width="64px" height="64px" viewBox="0 0 64 64" style="enable-background:new 0 0 64 64;" xml:space="preserve">
<g>
	<linearGradient id="SVGID_1_" gradientUnits="userSpaceOnUse" x1="25.061" y1="57.916" x2="25.061" y2="4.7501">
		<stop  offset="0" style="stop-color:#3F3F3F"/>
		<stop  offset="1" style="stop-color:#747474"/>
	</linearGradient>
	<path style="fill:url(#SVGID_1_);" d="M26.801,53.534c-0.473,0.406-1.077,0.659-1.746,0.659c-1.487,0-2.698-1.224-2.698-2.75
		c0-1.514,1.211-2.751,2.698-2.751c0.669,0,1.273,0.256,1.746,0.664c0-0.918,0-1.865,0-2.309v-0.435H15.133V16.702h19.856v14.369
		c1.127,0,2.787,0,3.417,0h0.005V10.874c0-1.988-1.605-3.62-3.566-3.62H15.277c-1.961,0-3.566,1.632-3.566,3.62v42.253
		c0,1.987,1.605,3.619,3.566,3.619H27.01c-0.13-0.341-0.209-0.707-0.209-1.093V53.534z M22.015,11.163h6.093
		c0.553,0,1.013,0.46,1.013,1.026c0,0.565-0.46,1.025-1.013,1.025h-6.093c-0.553,0-1.014-0.46-1.014-1.025
		C21.001,11.623,21.462,11.163,22.015,11.163z"/>
	<linearGradient id="SVGID_2_" gradientUnits="userSpaceOnUse" x1="23.3389" y1="57.916" x2="23.3389" y2="4.75">
		<stop  offset="0" style="stop-color:#3F3F3F"/>
		<stop  offset="1" style="stop-color:#747474"/>
	</linearGradient>
	<path style="fill:url(#SVGID_2_);" d="M23.655,27.782c0.671-0.487,1.46-0.723,2.395-0.723c0.605,0,1.132,0.04,1.579,0.104
		c0.448,0.079,0.843,0.185,1.185,0.317l0.815-2.396c-0.421-0.172-0.946-0.316-1.579-0.435c-0.618-0.132-1.342-0.184-2.145-0.184
		c-0.75,0-1.487,0.091-2.185,0.302c-0.71,0.199-1.354,0.527-1.935,0.975c-0.592,0.46-1.105,1.039-1.553,1.738
		c-0.434,0.708-0.776,1.591-1,2.631h-1.447l-0.737,2.196h1.896c-0.014,0.133-0.014,0.252-0.014,0.382c0,0.118,0,0.251,0,0.381v0.607
		h-1.145l-0.737,2.196h2.133c0.407,2.027,1.184,3.487,2.354,4.409c1.172,0.921,2.606,1.381,4.304,1.381
		c0.309,0,0.631-0.016,0.961-0.047c0-0.837,0-1.859,0-2.576c-0.17,0.012-0.331,0.031-0.514,0.031c-1.119,0-2.014-0.275-2.685-0.802
		c-0.671-0.54-1.171-1.344-1.474-2.396h4.355l0.316-1.146l0.289-1.05h-0.243h-5.086v-0.607c0-0.144,0-0.274,0-0.394
		c0-0.117,0-0.236,0.025-0.369h5.635h0.143l0.069-0.256l0.522-1.94h-6C22.497,29.032,22.997,28.257,23.655,27.782z"/>
	<linearGradient id="SVGID_3_" gradientUnits="userSpaceOnUse" x1="32.0054" y1="57.916" x2="32.0054" y2="4.75">
		<stop  offset="0" style="stop-color:#3F3F3F"/>
		<stop  offset="1" style="stop-color:#747474"/>
	</linearGradient>
	<path style="fill:url(#SVGID_3_);" d="M34.13,41.665h-4.264c-0.592,0-1.065,0.487-1.065,1.079v4.304
		c0,0.592,0.474,1.078,1.065,1.078h4.264c0.592,0,1.079-0.486,1.079-1.078v-4.304C35.209,42.152,34.722,41.665,34.13,41.665z"/>
	<linearGradient id="SVGID_4_" gradientUnits="userSpaceOnUse" x1="32.0054" y1="57.916" x2="32.0054" y2="4.75">
		<stop  offset="0" style="stop-color:#3F3F3F"/>
		<stop  offset="1" style="stop-color:#747474"/>
	</linearGradient>
	<path style="fill:url(#SVGID_4_);" d="M34.13,33.071h-4.264c-0.592,0-1.065,0.476-1.065,1.067v4.303c0,0.592,0.474,1.08,1.065,1.08
		h4.264c0.592,0,1.079-0.488,1.079-1.08v-4.303C35.209,33.547,34.722,33.071,34.13,33.071z"/>
	<linearGradient id="SVGID_5_" gradientUnits="userSpaceOnUse" x1="32.0054" y1="57.916" x2="32.0054" y2="4.75">
		<stop  offset="0" style="stop-color:#3F3F3F"/>
		<stop  offset="1" style="stop-color:#747474"/>
	</linearGradient>
	<path style="fill:url(#SVGID_5_);" d="M34.13,50.271h-4.264c-0.592,0-1.065,0.487-1.065,1.079v4.303c0,0.593,0.474,1.08,1.065,1.08
		h4.264c0.592,0,1.079-0.487,1.079-1.08v-4.303C35.209,50.759,34.722,50.271,34.13,50.271z"/>
	<linearGradient id="SVGID_6_" gradientUnits="userSpaceOnUse" x1="49.085" y1="57.916" x2="49.085" y2="4.75">
		<stop  offset="0" style="stop-color:#3F3F3F"/>
		<stop  offset="1" style="stop-color:#747474"/>
	</linearGradient>
	<path style="fill:url(#SVGID_6_);" d="M51.224,50.271h-4.277c-0.592,0-1.065,0.487-1.065,1.079v4.303
		c0,0.593,0.474,1.08,1.065,1.08h4.277c0.579,0,1.065-0.487,1.065-1.08v-4.303C52.289,50.759,51.803,50.271,51.224,50.271z"/>
	<linearGradient id="SVGID_7_" gradientUnits="userSpaceOnUse" x1="49.085" y1="57.916" x2="49.085" y2="4.75">
		<stop  offset="0" style="stop-color:#3F3F3F"/>
		<stop  offset="1" style="stop-color:#747474"/>
	</linearGradient>
	<path style="fill:url(#SVGID_7_);" d="M51.224,41.665h-4.277c-0.592,0-1.065,0.487-1.065,1.079v4.304
		c0,0.592,0.474,1.078,1.065,1.078h4.277c0.579,0,1.065-0.486,1.065-1.078v-4.304C52.289,42.152,51.803,41.665,51.224,41.665z"/>
	<linearGradient id="SVGID_8_" gradientUnits="userSpaceOnUse" x1="49.085" y1="57.916" x2="49.085" y2="4.75">
		<stop  offset="0" style="stop-color:#3F3F3F"/>
		<stop  offset="1" style="stop-color:#747474"/>
	</linearGradient>
	<path style="fill:url(#SVGID_8_);" d="M51.224,33.071h-4.277c-0.592,0-1.065,0.476-1.065,1.067v4.303
		c0,0.592,0.474,1.08,1.065,1.08h4.277c0.579,0,1.065-0.488,1.065-1.08v-4.303C52.289,33.547,51.803,33.071,51.224,33.071z"/>
	<linearGradient id="SVGID_9_" gradientUnits="userSpaceOnUse" x1="40.5449" y1="57.916" x2="40.5449" y2="4.75">
		<stop  offset="0" style="stop-color:#3F3F3F"/>
		<stop  offset="1" style="stop-color:#747474"/>
	</linearGradient>
	<path style="fill:url(#SVGID_9_);" d="M42.684,41.665h-4.277c-0.592,0-1.065,0.487-1.065,1.079v4.304
		c0,0.592,0.474,1.078,1.065,1.078h4.277c0.578,0,1.065-0.486,1.065-1.078v-4.304C43.749,42.152,43.262,41.665,42.684,41.665z"/>
	<linearGradient id="SVGID_10_" gradientUnits="userSpaceOnUse" x1="40.5449" y1="57.916" x2="40.5449" y2="4.75">
		<stop  offset="0" style="stop-color:#3F3F3F"/>
		<stop  offset="1" style="stop-color:#747474"/>
	</linearGradient>
	<path style="fill:url(#SVGID_10_);" d="M42.684,33.071h-4.277c-0.592,0-1.065,0.476-1.065,1.067v4.303
		c0,0.592,0.474,1.08,1.065,1.08h4.277c0.578,0,1.065-0.488,1.065-1.08v-4.303C43.749,33.547,43.262,33.071,42.684,33.071z"/>
	<linearGradient id="SVGID_11_" gradientUnits="userSpaceOnUse" x1="40.5449" y1="57.916" x2="40.5449" y2="4.75">
		<stop  offset="0" style="stop-color:#3F3F3F"/>
		<stop  offset="1" style="stop-color:#747474"/>
	</linearGradient>
	<path style="fill:url(#SVGID_11_);" d="M42.684,50.271h-4.277c-0.592,0-1.065,0.487-1.065,1.079v4.303
		c0,0.593,0.474,1.08,1.065,1.08h4.277c0.578,0,1.065-0.487,1.065-1.08v-4.303C43.749,50.759,43.262,50.271,42.684,50.271z"/>
</g>
</svg>
