<?xml version="1.0" encoding="UTF-8" standalone="no"?>
<svg width="128px" height="128px" viewBox="0 0 128 128" version="1.1" xmlns="http://www.w3.org/2000/svg" xmlns:xlink="http://www.w3.org/1999/xlink" xmlns:sketch="http://www.bohemiancoding.com/sketch/ns">
    <!-- Generator: Sketch 3.3 (11970) - http://www.bohemiancoding.com/sketch -->
    <title>ico-clovek</title>
    <desc>Created with Sketch.</desc>
    <defs></defs>
    <g id="Page-1" stroke="none" stroke-width="1" fill="none" fill-rule="evenodd" sketch:type="MSPage">
        <g id="ico-clovek" sketch:type="MSArtboardGroup" fill="#C1B294">
            <path d="M125.593649,117.093099 C125.577708,116.959635 125.558513,116.827148 125.54127,116.69401 C125.237734,113.94987 125.09719,111.127604 124.275073,108.533854 C122.350401,102.464844 120.206454,96.4417318 116.012582,91.4319661 C115.340118,90.6289063 114.613324,89.9023438 113.847814,89.2314453 C113.759324,89.1529948 113.671809,89.0751953 113.582342,88.9983724 C113.484742,88.9156901 113.387142,88.8326823 113.287916,88.7519531 C112.495078,88.0973307 111.646934,87.5029297 110.737953,86.9742839 C109.93991,86.4967448 109.111937,86.0592448 108.249153,85.6676432 C106.440625,84.8473307 104.628518,84.0338542 102.817713,83.21875 C101.859932,82.7792969 100.901174,82.3427734 99.9375369,81.9160156 C99.9134623,81.9052734 99.8897129,81.8948568 99.8653129,81.8841146 C99.7446143,81.828776 99.6229396,81.7750651 99.5022409,81.7197266 L95.3685556,79.7373047 C95.3389503,79.773112 95.3070676,79.8069661 95.2774623,79.8427734 C91.3380009,78.0732422 87.4297716,76.2412109 83.6249983,74.1914063 C83.6454943,74.172526 83.6672916,74.1542969 83.6874623,74.1354167 L82.8542836,73.7356771 C82.8308596,73.7216797 82.8126409,73.7083333 82.7875903,73.6940104 C82.5884863,73.578125 82.3646569,73.4726563 82.1333449,73.3704427 C81.6427423,73.0960286 81.1505129,72.8251953 80.6641396,72.5423177 C80.3645076,72.3678385 80.1436063,72.2148438 80.0004596,72.0611979 C79.9292116,71.9414062 79.8732543,71.8141276 79.8530836,71.6699219 C79.8377929,71.5625 79.8478783,71.4521484 79.8771583,71.3388672 C79.9568649,71.1546224 80.1045663,70.9440104 80.3277449,70.688151 C80.6277023,70.344401 80.9205023,69.953125 81.2077716,69.5345052 C81.4192383,69.2972005 81.6206196,69.0592448 81.7800329,68.8242188 C82.8087369,67.3089193 83.5134089,65.6419271 84.2223103,63.9684245 C84.5931903,63.1904297 84.9432489,62.4488932 85.2702089,61.7942708 C86.8877663,58.5576172 88.0967049,55.4003906 88.9484276,51.5582682 C90.0343903,47.3033854 90.7419903,42.1272786 90.6170623,35.4326172 C90.5438623,31.4960938 90.7367849,27.5455729 90.3837983,23.624349 C90.1973823,20.3766276 89.3980383,17.3463542 88.0739316,14.6464844 C88.0723049,14.6419271 88.0697023,14.6376953 88.0677503,14.633138 C88.0130943,14.5224609 87.9597396,14.4111328 87.9037823,14.3017578 C85.7852116,10.0322266 82.4258196,6.74153646 78.0507369,4.66634115 C77.0487103,4.22167969 75.9923529,3.83040365 74.8917503,3.48470052 C74.4902889,3.34407552 74.0891529,3.21028646 73.6886676,3.08723958 C73.5087583,3.04003906 73.3308009,2.9905599 73.1489396,2.94726563 C70.4519263,2.3046875 67.7337663,2.00260417 65.0090996,2.00097656 C64.9469609,2.00032552 64.8854729,2.00032552 64.8236596,2 C64.7618463,2.00032552 64.7000329,2.00032552 64.6385449,2.00097656 C61.9138783,2.00260417 59.1950676,2.3046875 56.4983796,2.94726563 C56.3165183,2.9905599 56.1385609,3.04003906 55.9586516,3.08723958 C55.5578409,3.21028646 55.1570303,3.34407552 54.7558943,3.48470052 C53.6546409,3.83040365 52.5982836,4.22167969 51.5965823,4.66634115 C47.2214996,6.74153646 43.8621076,10.0322266 41.7435369,14.3017578 C41.6872543,14.4111328 41.6342249,14.5224609 41.5798943,14.633138 C41.5776169,14.6376953 41.5756649,14.6419271 41.5730623,14.6464844 C40.2489556,17.3463542 39.4499369,20.3766276 39.2635209,23.624349 C38.9105343,27.5455729 39.1037823,31.4960938 39.0302569,35.4326172 C38.9053289,42.1272786 39.6129289,47.3033854 40.6985663,51.5582682 C41.5506143,55.4003906 42.7598783,58.5576172 44.3771103,61.7942708 C44.7040703,62.4488932 45.0541289,63.1904297 45.4253343,63.9684245 C46.1339103,65.6419271 46.8385823,67.3089193 47.8669609,68.8242188 C48.0266996,69.0592448 48.2277556,69.2972005 48.4392223,69.5345052 C48.7264916,69.953125 49.0196169,70.344401 49.3195743,70.688151 C49.5427529,70.9440104 49.6904543,71.1546224 49.7704863,71.3388672 C49.7997663,71.4521484 49.8095263,71.5625 49.7942356,71.6699219 C49.7737396,71.8141276 49.7181076,71.9414062 49.6471849,72.0611979 C49.5037129,72.2148438 49.2824863,72.3678385 48.9831796,72.5423177 C48.4968063,72.8251953 48.0045769,73.0960286 47.5139743,73.3704427 C47.2829876,73.4726563 47.0591583,73.578125 46.8597289,73.6940104 C46.8343529,73.7083333 46.8164596,73.7216797 46.7927103,73.7356771 L45.9598569,74.1354167 C45.9800276,74.1542969 46.0018249,74.172526 46.0219956,74.1914063 C42.2178729,76.2412109 38.3093183,78.0732422 34.3698569,79.8427734 C34.3399263,79.8069661 34.3083689,79.773112 34.2787636,79.7373047 L30.1450783,81.7197266 C30.0243796,81.7750651 29.9030303,81.828776 29.7816809,81.8841146 C29.7579316,81.8948568 29.7338569,81.9052734 29.7097823,81.9160156 C28.7464703,82.3427734 27.7873876,82.7792969 26.8292809,83.21875 C25.0184756,84.0338542 23.2070196,84.8473307 21.3981663,85.6676432 C20.5357076,86.0592448 19.7077343,86.4967448 18.9096916,86.9742839 C18.0003849,87.5029297 17.1519156,88.0973307 16.3590783,88.7519531 C16.2601769,88.8326823 16.1625769,88.9156901 16.0653023,88.9983724 C15.9758356,89.0751953 15.8876703,89.1529948 15.7998303,89.2314453 C15.0336703,89.9023438 14.3072009,90.6289063 13.6347369,91.4319661 C9.44086494,96.4417318 7.29691828,102.464844 5.37224628,108.533854 C4.54980361,111.127604 4.40958494,113.94987 4.10604894,116.69401 C4.08913161,116.827148 4.06961161,116.959635 4.05367028,117.093099 C4.01300361,117.424479 3.99641161,117.740885 4.00064094,118.042969 C3.97298761,120.211914 4.86602761,121.344727 7.11733428,122.466471 C8.67242761,123.241536 10.3072276,123.817708 11.9794409,124.186523 C14.0745876,124.77181 16.2165823,125.161784 18.3813503,125.343424 C30.0061609,126.317383 47.3096649,126.742513 64.8236596,126.647786 C82.3379796,126.742513 99.6411583,126.317383 111.265644,125.343424 C113.430737,125.161784 115.572406,124.77181 117.667878,124.186523 C119.340417,123.817708 120.974892,123.241536 122.53031,122.466471 C124.781292,121.344727 125.674006,120.211914 125.646028,118.042969 C125.651233,117.740885 125.63399,117.424479 125.593649,117.093099" id="Imported-Layers" sketch:type="MSShapeGroup"></path>
        </g>
    </g>
</svg>