<?xml version="1.0" encoding="utf-8"?>
<!-- Generator: Adobe Illustrator 16.0.0, SVG Export Plug-In . SVG Version: 6.00 Build 0)  -->
<!DOCTYPE svg PUBLIC "-//W3C//DTD SVG 1.1//EN" "http://www.w3.org/Graphics/SVG/1.1/DTD/svg11.dtd">
<svg version="1.1" id="Layer_1" xmlns="http://www.w3.org/2000/svg" xmlns:xlink="http://www.w3.org/1999/xlink" x="0px" y="0px"
	 width="172.755px" height="50.907px" viewBox="0 0 172.755 50.907" enable-background="new 0 0 172.755 50.907"
	 xml:space="preserve">
<g>
	<path fill="#E31469" d="M0,6.048c5.437,0,6.652-2.583,7.74-5.544h4.733v44.102H5.437V10.962H0V6.048z"/>
	<path fill="#E31469" d="M41.639,33.644c0,7.435-3.454,11.466-10.746,11.466c-6.908,0-10.49-4.031-10.49-11.088v-1.135h6.652v1.576
		c0,3.15,1.407,4.347,3.646,4.347c2.495,0,3.902-1.196,3.902-5.419v-8.064c-1.215,2.521-3.39,3.906-6.524,3.906
		c-5.181,0-7.804-3.59-7.804-10.08v-8.064C20.275,4.032,24.049,0,30.957,0s10.682,4.032,10.682,11.088V33.644z M34.603,18.586
		v-7.938c0-3.15-1.407-4.284-3.646-4.284s-3.646,1.134-3.646,4.284v7.938c0,3.15,1.407,4.347,3.646,4.347
		S34.603,21.736,34.603,18.586z"/>
	<path fill="#E31469" d="M46.307,44.606v-6.678h6.78v5.985l-3.07,6.993h-2.878l1.855-6.301H46.307z"/>
	<path fill="#E31469" d="M78.863,33.644c0,7.435-3.454,11.466-10.746,11.466c-6.908,0-10.49-4.031-10.49-11.088v-1.135h6.652v1.576
		c0,3.15,1.407,4.347,3.646,4.347c2.495,0,3.902-1.196,3.902-5.419v-8.064c-1.215,2.521-3.39,3.906-6.524,3.906
		c-5.181,0-7.804-3.59-7.804-10.08v-8.064C57.499,4.032,61.273,0,68.181,0s10.682,4.032,10.682,11.088V33.644z M71.827,18.586
		v-7.938c0-3.15-1.407-4.284-3.646-4.284s-3.646,1.134-3.646,4.284v7.938c0,3.15,1.407,4.347,3.646,4.347
		S71.827,21.736,71.827,18.586z"/>
	<path fill="#E31469" d="M104.192,33.644c0,7.435-3.455,11.466-10.746,11.466c-6.909,0-10.491-4.031-10.491-11.088v-1.135h6.653
		v1.576c0,3.15,1.406,4.347,3.646,4.347c2.495,0,3.901-1.196,3.901-5.419v-8.064c-1.215,2.521-3.39,3.906-6.523,3.906
		c-5.182,0-7.804-3.59-7.804-10.08v-8.064C82.828,4.032,86.602,0,93.51,0s10.683,4.032,10.683,11.088V33.644z M97.155,18.586v-7.938
		c0-3.15-1.406-4.284-3.646-4.284s-3.646,1.134-3.646,4.284v7.938c0,3.15,1.406,4.347,3.646,4.347S97.155,21.736,97.155,18.586z"/>
</g>
<g>
	<path fill="#E31469" d="M125.883,8.747h3.806v2.521h-3.806v5.168h4.789v2.521h-7.562V1.311h7.562v2.521h-4.789V8.747z"/>
	<path fill="#E31469" d="M135.03,1.311v13.612c0,1.26,0.555,1.714,1.437,1.714s1.437-0.454,1.437-1.714V1.311h2.622v13.436
		c0,2.823-1.411,4.437-4.134,4.437s-4.135-1.613-4.135-4.437V1.311H135.03z"/>
	<path fill="#E31469" d="M148.21,18.956c-0.15-0.454-0.252-0.731-0.252-2.168v-2.772c0-1.639-0.555-2.244-1.814-2.244h-0.958v7.184
		h-2.772V1.311h4.184c2.874,0,4.109,1.336,4.109,4.059v1.387c0,1.814-0.58,3-1.814,3.579c1.386,0.58,1.84,1.916,1.84,3.756v2.723
		c0,0.857,0.025,1.487,0.303,2.143H148.21z M145.186,3.832v5.419h1.084c1.033,0,1.663-0.454,1.663-1.865V5.646
		c0-1.26-0.428-1.815-1.411-1.815H145.186z"/>
	<path fill="#E31469" d="M158.618,1.311h2.395l-6.957,17.646h-2.395L158.618,1.311z"/>
</g>
<g>
	<path fill="#E31469" d="M128.983,39.04l1.891-12.529h3.856v17.646h-2.622V31.502l-1.915,12.654h-2.622l-2.066-12.479v12.479h-2.42
		V26.51h3.856L128.983,39.04z"/>
	<path fill="#E31469" d="M139.516,33.948h3.806v2.52h-3.806v5.168h4.789v2.521h-7.562V26.51h7.562v2.521h-4.789V33.948z"/>
	<path fill="#E31469" d="M149.747,26.309c2.697,0,4.084,1.613,4.084,4.438V31.3h-2.622v-0.731c0-1.26-0.505-1.738-1.387-1.738
		s-1.386,0.479-1.386,1.738c0,3.631,5.419,4.311,5.419,9.353c0,2.823-1.411,4.437-4.134,4.437s-4.135-1.613-4.135-4.437v-1.084
		h2.622v1.261c0,1.26,0.555,1.714,1.437,1.714c0.883,0,1.438-0.454,1.438-1.714c0-3.631-5.42-4.311-5.42-9.352
		C145.663,27.922,147.05,26.309,149.747,26.309z"/>
	<path fill="#E31469" d="M158.214,33.948h3.807v2.52h-3.807v5.168h4.789v2.521h-7.563V26.51h7.563v2.521h-4.789V33.948z"/>
	<path fill="#E31469" d="M172.755,37.577v2.345c0,2.823-1.411,4.437-4.133,4.437c-2.723,0-4.135-1.613-4.135-4.437v-9.175
		c0-2.824,1.412-4.438,4.135-4.438c2.722,0,4.133,1.613,4.133,4.438v1.713h-2.621v-1.891c0-1.26-0.555-1.738-1.437-1.738
		s-1.437,0.479-1.437,1.738v9.529c0,1.26,0.555,1.714,1.437,1.714s1.437-0.454,1.437-1.714v-2.521H172.755z"/>
</g>
</svg>
