<?xml version="1.0" encoding="utf-8"?>
<!-- Generator: Adobe Illustrator 16.0.0, SVG Export Plug-In . SVG Version: 6.00 Build 0)  -->
<!DOCTYPE svg PUBLIC "-//W3C//DTD SVG 1.1//EN" "http://www.w3.org/Graphics/SVG/1.1/DTD/svg11.dtd">
<svg version="1.1" id="Layer_1" xmlns="http://www.w3.org/2000/svg" xmlns:xlink="http://www.w3.org/1999/xlink" x="0px" y="0px"
	 width="64px" height="64px" viewBox="0 0 64 64" style="enable-background:new 0 0 64 64;" xml:space="preserve">
<path style="fill:#EFEFEF;" d="M51.298,27.172c0-1.541-1.276-2.804-2.842-2.804c-1.58,0-2.856,1.263-2.856,2.804v10.843
	c0,1.538,1.276,2.791,2.856,2.791c1.565,0,2.842-1.253,2.842-2.806V27.172z M19.61,24.46l0.014,17.845
	c0,1.645,1.355,2.987,3.04,2.987h1.5v6.658c0,1.539,1.276,2.803,2.842,2.803c1.58,0,3.303-1.264,3.303-2.815v-6.646h3.382
	l0.013,6.658c0,1.539,1.276,2.803,2.842,2.79c1.567,0,3.185-1.251,3.185-2.803v-6.646h1.619c1.685,0,3.039-1.343,3.039-3V24.447
	L19.61,24.46z M37.836,19.131c-0.592,0-1.079-0.475-1.079-1.053c0.014-0.578,0.487-1.066,1.079-1.066s1.08,0.488,1.08,1.066
	S38.428,19.131,37.836,19.131 M26.164,19.025c-0.592,0-1.079-0.473-1.079-1.054c0-0.591,0.487-1.064,1.079-1.064
	c0.592,0,1.08,0.474,1.08,1.064C27.243,18.553,26.756,19.025,26.164,19.025 M38.284,13.394l1.986-3.566
	c0.105-0.197,0.039-0.434-0.158-0.539c-0.184-0.092-0.434-0.027-0.525,0.158l-2.014,3.605c-1.685-0.737-3.579-1.146-5.58-1.146
	c-2,0-3.882,0.408-5.566,1.146l-2.013-3.593c-0.105-0.198-0.343-0.263-0.527-0.158c-0.197,0.093-0.263,0.342-0.158,0.526
	l1.987,3.566c-3.908,1.974-6.092,5.75-6.092,10.094l24.739-0.015C44.363,19.144,42.192,15.38,38.284,13.394 M15.544,24.381
	c-1.566-0.013-2.842,1.25-2.842,2.804v10.711c0,1.553,1.276,2.804,2.855,2.804c1.566,0,2.843-1.251,2.843-2.804V27.172
	C18.4,25.631,17.124,24.368,15.544,24.381"/>
<g>
</g>
<g>
</g>
<g>
</g>
<g>
</g>
<g>
</g>
</svg>
