<?xml version="1.0" encoding="utf-8"?>
<!-- Generator: Adobe Illustrator 16.0.0, SVG Export Plug-In . SVG Version: 6.00 Build 0)  -->
<!DOCTYPE svg PUBLIC "-//W3C//DTD SVG 1.0//EN" "http://www.w3.org/TR/2001/REC-SVG-20010904/DTD/svg10.dtd">
<svg version="1.0" id="Layer_1" xmlns="http://www.w3.org/2000/svg" xmlns:xlink="http://www.w3.org/1999/xlink" x="0px" y="0px"
	 width="64px" height="64px" viewBox="0 0 64 64" style="enable-background:new 0 0 64 64;" xml:space="preserve">
<g>
	<linearGradient id="SVGID_1_" gradientUnits="userSpaceOnUse" x1="32.0005" y1="57.1748" x2="32.0005" y2="6.8262">
		<stop  offset="0" style="stop-color:#3F3F3F"/>
		<stop  offset="1" style="stop-color:#747474"/>
	</linearGradient>
	<path style="fill:url(#SVGID_1_);" d="M25.472,16.327l-7.83,7.831c-0.79,0.789-2.066,0.789-2.855,0l-0.355-0.356
		c-0.79-0.775-0.79-2.064,0-2.842l7.83-7.844c0.79-0.775,2.08-0.775,2.856,0l0.355,0.355C26.261,14.26,26.261,15.538,25.472,16.327z
		 M19.773,10.63l-7.83,7.828c-0.79,0.792-2.066,0.792-2.856,0l-0.355-0.354c-0.79-0.789-0.79-2.064,0-2.842l7.83-7.845
		c0.79-0.789,2.066-0.789,2.855,0l0.355,0.356C20.563,8.551,20.563,9.841,19.773,10.63z M55.277,15.618l-8.197,8.184
		c-0.777,0.791-2.067,0.791-2.844,0l-5.355-5.343c-0.776-0.776-0.776-2.066,0-2.841l8.199-8.2c0.789-0.789,2.065-0.789,2.854,0
		l5.343,5.345C56.054,13.551,56.054,14.827,55.277,15.618z M37.552,57.175H26.458c-1.105,0-2.014-0.908-2.014-2.014v-0.5
		c0-1.105,0.908-2.012,2.014-2.012h11.093c1.105,0,2.014,0.906,2.014,2.012v0.5C39.565,56.267,38.657,57.175,37.552,57.175z
		 M37.552,49.121H26.458c-1.105,0-2.014-0.908-2.014-2.014v-0.513c0-1.105,0.908-2.014,2.014-2.014h11.093
		c1.105,0,2.014,0.908,2.014,2.014v0.513C39.565,48.213,38.657,49.121,37.552,49.121z"/>
	<linearGradient id="SVGID_2_" gradientUnits="userSpaceOnUse" x1="32.0044" y1="22.1831" x2="32.0044" y2="41.8296">
		<stop  offset="0" style="stop-color:#E78601"/>
		<stop  offset="1" style="stop-color:#D27A02"/>
	</linearGradient>
	<path style="fill:url(#SVGID_2_);" d="M31.999,26.209c-3.198,0-5.79,2.594-5.79,5.791c0,3.198,2.592,5.803,5.79,5.803
		s5.803-2.605,5.803-5.803C37.802,28.803,35.196,26.209,31.999,26.209z M31.999,41.829c-5.421,0-9.817-4.406-9.817-9.829
		c0-5.408,4.396-9.817,9.817-9.817c5.422,0,9.83,4.409,9.83,9.817C41.828,37.423,37.421,41.829,31.999,41.829z"/>
</g>
</svg>
