<?xml version="1.0" encoding="utf-8"?>
<!-- Generator: Adobe Illustrator 16.0.0, SVG Export Plug-In . SVG Version: 6.00 Build 0)  -->
<!DOCTYPE svg PUBLIC "-//W3C//DTD SVG 1.0//EN" "http://www.w3.org/TR/2001/REC-SVG-20010904/DTD/svg10.dtd">
<svg version="1.0" id="Layer_1" xmlns="http://www.w3.org/2000/svg" xmlns:xlink="http://www.w3.org/1999/xlink" x="0px" y="0px"
	 width="64px" height="64px" viewBox="0 0 64 64" style="enable-background:new 0 0 64 64;" xml:space="preserve">
<g>
	<linearGradient id="SVGID_1_" gradientUnits="userSpaceOnUse" x1="31.6714" y1="27.9668" x2="31.6714" y2="36.2173">
		<stop  offset="0" style="stop-color:#E78601"/>
		<stop  offset="1" style="stop-color:#D27A02"/>
	</linearGradient>
	<polygon style="fill:url(#SVGID_1_);" points="27.618,33.086 30.592,33.086 30.592,36.217 32.737,36.217 32.737,33.086 
		35.725,33.086 35.725,31.072 32.737,31.072 32.737,27.967 30.592,27.967 30.592,31.072 27.618,31.072 	"/>
	<g>
		<linearGradient id="SVGID_2_" gradientUnits="userSpaceOnUse" x1="12.9653" y1="44.4434" x2="12.9653" y2="19.5576">
			<stop  offset="0" style="stop-color:#3F3F3F"/>
			<stop  offset="1" style="stop-color:#747474"/>
		</linearGradient>
		<path style="fill:url(#SVGID_2_);" d="M17.473,19.557H3.972c-0.908,0-1.633,0.725-1.633,1.633v21.62
			c0,0.896,0.725,1.634,1.633,1.634h2.039h11.462h4.079c1.132,0,2.04-0.924,2.04-2.042v-8.21h-0.961
			c-0.685,0-1.224-0.554-1.224-1.225v-2.961c0-0.671,0.539-1.223,1.224-1.223h0.961v-3.211l-4.869-5.976L17.473,19.557z
			 M14.209,23.019c0-0.645,0.526-1.172,1.185-1.172c0.645,0,1.171,0.527,1.171,1.172v5.053c0,0.645-0.526,1.171-1.171,1.171
			c-0.658,0-1.185-0.526-1.185-1.171V23.019z M9.472,23.019c0-0.645,0.526-1.172,1.171-1.172s1.172,0.527,1.172,1.172v5.053
			c0,0.645-0.527,1.171-1.172,1.171s-1.171-0.526-1.171-1.171V23.019z M4.932,23.019c0-0.645,0.526-1.172,1.171-1.172
			c0.658,0,1.172,0.527,1.172,1.172v5.053c0,0.645-0.514,1.171-1.172,1.171c-0.645,0-1.171-0.526-1.171-1.171V23.019z
			 M19.723,36.941v3.92c0,0.567-0.461,1.027-1.026,1.027H6.011c-0.565,0-1.026-0.46-1.026-1.027v-3.92
			c0-0.566,0.461-1.027,1.026-1.027h12.686C19.262,35.914,19.723,36.375,19.723,36.941z"/>
		<linearGradient id="SVGID_3_" gradientUnits="userSpaceOnUse" x1="51.0293" y1="44.4434" x2="51.0293" y2="19.5576">
			<stop  offset="0" style="stop-color:#3F3F3F"/>
			<stop  offset="1" style="stop-color:#747474"/>
		</linearGradient>
		<path style="fill:url(#SVGID_3_);" d="M60.701,28.782h0.96v-3.211l-4.869-5.976l-1.249-0.039H42.028
			c-0.895,0-1.632,0.725-1.632,1.633v21.62c0,0.896,0.737,1.634,1.632,1.634h2.039h11.476h4.079c1.131,0,2.039-0.924,2.039-2.042
			v-8.21h-0.96c-0.685,0-1.225-0.554-1.225-1.225v-2.961C59.477,29.334,60.017,28.782,60.701,28.782z M52.279,23.019
			c0-0.645,0.525-1.172,1.171-1.172c0.658,0,1.171,0.527,1.171,1.172v5.053c0,0.645-0.513,1.171-1.171,1.171
			c-0.646,0-1.171-0.526-1.171-1.171V23.019z M47.541,23.019c0-0.645,0.527-1.172,1.171-1.172c0.646,0,1.173,0.527,1.173,1.172
			v5.053c0,0.645-0.527,1.171-1.173,1.171c-0.644,0-1.171-0.526-1.171-1.171V23.019z M43.002,23.019
			c0-0.645,0.526-1.172,1.171-1.172c0.646,0,1.171,0.527,1.171,1.172v5.053c0,0.645-0.525,1.171-1.171,1.171
			c-0.645,0-1.171-0.526-1.171-1.171V23.019z M57.793,40.861c0,0.567-0.461,1.027-1.027,1.027H44.067
			c-0.552,0-1.014-0.46-1.014-1.027v-3.92c0-0.566,0.462-1.027,1.014-1.027h12.698c0.566,0,1.027,0.461,1.027,1.027V40.861z"/>
	</g>
</g>
</svg>
