<?xml version="1.0" encoding="utf-8"?>
<!-- Generator: Adobe Illustrator 16.0.0, SVG Export Plug-In . SVG Version: 6.00 Build 0)  -->
<!DOCTYPE svg PUBLIC "-//W3C//DTD SVG 1.0//EN" "http://www.w3.org/TR/2001/REC-SVG-20010904/DTD/svg10.dtd">
<svg version="1.0" id="Layer_1" xmlns="http://www.w3.org/2000/svg" xmlns:xlink="http://www.w3.org/1999/xlink" x="0px" y="0px"
	 width="64px" height="64px" viewBox="0 0 64 64" style="enable-background:new 0 0 64 64;" xml:space="preserve">
<linearGradient id="SVGID_1_" gradientUnits="userSpaceOnUse" x1="32.0005" y1="54.5996" x2="32.0005" y2="14.9375">
	<stop  offset="0" style="stop-color:#3F3F3F"/>
	<stop  offset="1" style="stop-color:#747474"/>
</linearGradient>
<path style="fill:url(#SVGID_1_);" d="M16.966,33.018h4.461c-0.026,0.291-0.053,0.579-0.053,0.883c0,0.289,0,0.578,0,0.868v1.408
	h-2.671l-1.737,5.066h5.014c0.948,4.657,2.79,8.041,5.527,10.157c2.737,2.132,6.106,3.199,10.106,3.199
	c0.803,0,1.632-0.053,2.501-0.132c0.881-0.092,1.724-0.224,2.565-0.408c0.829-0.183,1.632-0.421,2.396-0.724s1.421-0.645,1.96-1.039
	l-1.474-5.434c-0.868,0.512-1.855,0.92-2.961,1.249c-1.118,0.329-2.434,0.487-3.947,0.487c-2.619,0-4.725-0.605-6.304-1.844
	c-1.579-1.238-2.724-3.078-3.447-5.513H39.14l1.408-5.066H28.02v-1.408c0-0.329,0-0.631,0-0.895c0-0.277,0.026-0.565,0.053-0.856
	H41.64l1.421-5.066H28.954c0.79-2.473,1.974-4.263,3.54-5.369c1.553-1.104,3.434-1.658,5.606-1.658c1.421,0,2.658,0.091,3.711,0.25
	c1.052,0.159,1.974,0.408,2.776,0.737l1.908-5.527c-0.986-0.395-2.211-0.736-3.685-1.013c-1.474-0.29-3.145-0.435-5.04-0.435
	c-1.777,0-3.487,0.237-5.145,0.711c-1.658,0.474-3.172,1.223-4.553,2.263c-1.369,1.026-2.58,2.369-3.619,4
	c-1.026,1.631-1.829,3.645-2.368,6.04h-3.382L16.966,33.018z"/>
</svg>
