<?xml version="1.0" encoding="utf-8"?>
<!-- Generator: Adobe Illustrator 16.0.0, SVG Export Plug-In . SVG Version: 6.00 Build 0)  -->
<!DOCTYPE svg PUBLIC "-//W3C//DTD SVG 1.0//EN" "http://www.w3.org/TR/2001/REC-SVG-20010904/DTD/svg10.dtd">
<svg version="1.0" id="Layer_1" xmlns="http://www.w3.org/2000/svg" xmlns:xlink="http://www.w3.org/1999/xlink" x="0px" y="0px"
	 width="64px" height="64px" viewBox="0 0 64 64" style="enable-background:new 0 0 64 64;" xml:space="preserve">
<path style="fill:#C0B193;" d="M41.077,31.998l15.749-16.435c2.485-2.591,2.485-6.79,0-9.382c-2.487-2.594-6.515-2.594-9.002,0
	L32,22.683L16.176,6.182c-2.487-2.594-6.514-2.594-9.001,0c-2.487,2.592-2.487,6.791,0,9.382l15.748,16.435L7.175,48.421
	c-2.487,2.607-2.487,6.805,0,9.398c2.487,2.592,6.514,2.592,9.001,0L32,41.316l15.824,16.503c2.487,2.592,6.515,2.592,9.002,0
	c2.485-2.594,2.485-6.791,0-9.398L41.077,31.998z"/>
</svg>
