<?xml version="1.0" encoding="utf-8"?>
<!-- Generator: Adobe Illustrator 16.0.0, SVG Export Plug-In . SVG Version: 6.00 Build 0)  -->
<!DOCTYPE svg PUBLIC "-//W3C//DTD SVG 1.0//EN" "http://www.w3.org/TR/2001/REC-SVG-20010904/DTD/svg10.dtd">
<svg version="1.0" id="Layer_1" xmlns="http://www.w3.org/2000/svg" xmlns:xlink="http://www.w3.org/1999/xlink" x="0px" y="0px"
	 width="64px" height="64px" viewBox="0 0 64 64" style="enable-background:new 0 0 64 64;" xml:space="preserve">
<linearGradient id="SVGID_1_" gradientUnits="userSpaceOnUse" x1="6.9204" y1="32" x2="57.0791" y2="32">
	<stop  offset="0" style="stop-color:#747474"/>
	<stop  offset="1" style="stop-color:#3F3F3F"/>
</linearGradient>
<path style="fill:url(#SVGID_1_);" d="M56.667,43.369L42.588,59.503c-0.751,0.869-2.014,0.869-2.778,0.014l-14.396-16.16
	c-0.776-0.869-0.46-1.566,0.697-1.566h5.975c1.158,0,2.105-0.96,2.105-2.118V28.447c0-1.158,0.947-2.105,2.105-2.105h8.776
	c1.146,0,2.106,0.947,2.093,2.105l0.014,10.882c-0.014,1.159,0.947,2.131,2.092,2.172l6.672,0.211
	C57.102,41.752,57.431,42.502,56.667,43.369z M37.876,22.288l-6.672,0.211c-1.145,0.04-2.092,1.027-2.092,2.171v10.883
	c0,1.171-0.961,2.105-2.105,2.105h-8.777c-1.158,0-2.105-0.947-2.105-2.105V24.328c0-1.158-0.947-2.105-2.105-2.105H8.044
	c-1.158,0-1.474-0.711-0.697-1.579l14.396-16.16c0.763-0.855,2.026-0.855,2.776,0.014L38.6,20.631
	C39.363,21.512,39.034,22.247,37.876,22.288z"/>
</svg>
