<?xml version="1.0" encoding="utf-8"?>
<!-- Generator: Adobe Illustrator 16.0.4, SVG Export Plug-In . SVG Version: 6.00 Build 0)  -->
<!DOCTYPE svg PUBLIC "-//W3C//DTD SVG 1.1//EN" "http://www.w3.org/Graphics/SVG/1.1/DTD/svg11.dtd">
<svg version="1.1" id="Layer_1" xmlns="http://www.w3.org/2000/svg" xmlns:xlink="http://www.w3.org/1999/xlink" x="0px" y="0px"
	 width="64px" height="64px" viewBox="0 0 64 64" enable-background="new 0 0 64 64" xml:space="preserve">
<path fill="#E61E6B" d="M56.667,43.374L42.588,59.493c-0.751,0.882-2.014,0.882-2.777,0.015L25.414,43.359
	c-0.776-0.867-0.46-1.578,0.697-1.578h5.975c1.158,0,2.105-0.947,2.105-2.105V28.451c0-1.157,0.947-2.105,2.104-2.105h8.777
	c1.146,0,2.105,0.935,2.093,2.105l0.015,10.884c-0.015,1.146,0.946,2.131,2.092,2.157l6.672,0.224
	C57.102,41.755,57.432,42.492,56.667,43.374z M37.876,22.293l-6.672,0.21c-1.145,0.04-2.092,1.015-2.092,2.171v10.885
	c0,1.156-0.961,2.104-2.105,2.104H18.23c-1.158,0-2.105-0.948-2.105-2.104V24.333c0-1.172-0.947-2.12-2.105-2.12H8.044
	c-1.158,0-1.474-0.696-0.697-1.564l14.396-16.16c0.763-0.87,2.026-0.855,2.776,0.012L38.6,20.635
	C39.363,21.504,39.034,22.254,37.876,22.293z"/>
</svg>
