<?xml version="1.0" encoding="utf-8"?>
<!-- Generator: Adobe Illustrator 16.0.0, SVG Export Plug-In . SVG Version: 6.00 Build 0)  -->
<!DOCTYPE svg PUBLIC "-//W3C//DTD SVG 1.0//EN" "http://www.w3.org/TR/2001/REC-SVG-20010904/DTD/svg10.dtd">
<svg version="1.0" id="Layer_1" xmlns="http://www.w3.org/2000/svg" xmlns:xlink="http://www.w3.org/1999/xlink" x="0px" y="0px"
	 width="64px" height="64px" viewBox="0 0 64 64" style="enable-background:new 0 0 64 64;" xml:space="preserve">
<g>
	<linearGradient id="SVGID_1_" gradientUnits="userSpaceOnUse" x1="31.9995" y1="35.9219" x2="31.9995" y2="50.5801">
		<stop  offset="0" style="stop-color:#E78601"/>
		<stop  offset="1" style="stop-color:#D27A02"/>
	</linearGradient>
	<path style="fill:url(#SVGID_1_);" d="M31.96,50.58h-0.025H11.419c0,0-0.264-6.935,2.815-8.251
		c3.08-1.315,10.093-3.474,10.093-3.474s1.698-0.565,2.237-2.079c0.329-0.92,0.855-1.618,2.158,0.775
		c1.315,2.383,1.46,2.765,1.46,2.765s0.697,1.632,0.697,3.251c0,1.617-0.079,2.539-0.079,2.539s0.158,1.211,1.144,1.238
		c0.988-0.027,1.146-1.238,1.146-1.238s-0.079-0.922-0.079-2.539c0-1.619,0.698-3.251,0.698-3.251s0.144-0.382,1.46-2.765
		c1.316-2.394,1.83-1.695,2.158-0.775c0.54,1.514,2.237,2.079,2.237,2.079s7.014,2.158,10.093,3.474
		c3.079,1.316,2.816,8.251,2.816,8.251H31.96z M9.208,50.58H0.339c0,0-0.185-4.921,2-5.856c2.172-0.934,7.159-2.46,7.159-2.46
		s1.198-0.395,1.58-1.474c0.224-0.632,0.592-1.104,1.46,0.421C9.168,43.212,9.155,49.186,9.208,50.58z M54.792,50.58
		c0.052-1.395,0.039-7.368-3.33-9.369c0.869-1.525,1.237-1.053,1.461-0.421c0.382,1.079,1.579,1.474,1.579,1.474
		s4.988,1.526,7.159,2.46c2.185,0.936,2,5.856,2,5.856H54.792z"/>
	<linearGradient id="SVGID_2_" gradientUnits="userSpaceOnUse" x1="31.9976" y1="38.9746" x2="31.9976" y2="13.4204">
		<stop  offset="0" style="stop-color:#3F3F3F"/>
		<stop  offset="1" style="stop-color:#747474"/>
	</linearGradient>
	<path style="fill:url(#SVGID_2_);" d="M39.419,28.617c-0.131,0.093-0.46,0.475-0.75,0.856c-0.921,6.409-6.001,6.592-6.58,6.592
		c0,0-0.118,0-0.132,0c-0.657,0-5.684-0.209-6.605-6.592c-0.29-0.382-0.618-0.764-0.737-0.856c-0.974-0.447-1.026-1.183-1.026-3.236
		c0-2.316,0.092-6.067,0.092-6.067c0.026-0.183,1.013-5.894,8.33-5.894c7.316,0,8.303,5.711,8.316,5.775
		c0,0.118,0.105,3.869,0.105,6.186C40.433,27.435,40.38,28.17,39.419,28.617z M20.035,33.539c-0.29,0.146-0.868,0.987-0.868,0.987
		c-0.579,4.633-4.264,4.447-4.264,4.447c-0.013,0-3.685,0.186-4.276-4.447c0,0-0.579-0.842-0.869-0.987
		C9.469,33.396,9.35,33.474,9.35,31.75c0-1.712,0.079-4.488,0.079-4.488s0.58-3.685,5.474-3.685c4.882,0,5.462,3.685,5.462,3.685
		s0.079,2.776,0.079,4.488C20.443,33.474,20.338,33.396,20.035,33.539z M54.249,33.539c-0.303,0.146-0.881,0.987-0.881,0.987
		c-0.579,4.633-4.264,4.447-4.264,4.447c-0.014,0-3.685,0.186-4.264-4.447c0,0-0.592-0.842-0.883-0.987
		c-0.289-0.144-0.406-0.065-0.406-1.789c0-1.712,0.078-4.488,0.078-4.488s0.579-3.685,5.475-3.685c4.882,0,5.475,3.685,5.475,3.685
		s0.065,2.776,0.065,4.488C54.645,33.474,54.539,33.396,54.249,33.539z"/>
</g>
</svg>
