<?xml version="1.0" encoding="utf-8"?>
<!-- Generator: Adobe Illustrator 16.0.0, SVG Export Plug-In . SVG Version: 6.00 Build 0)  -->
<!DOCTYPE svg PUBLIC "-//W3C//DTD SVG 1.0//EN" "http://www.w3.org/TR/2001/REC-SVG-20010904/DTD/svg10.dtd">
<svg version="1.0" id="Layer_1" xmlns="http://www.w3.org/2000/svg" xmlns:xlink="http://www.w3.org/1999/xlink" x="0px" y="0px"
	 width="64px" height="64px" viewBox="0 0 64 64" style="enable-background:new 0 0 64 64;" xml:space="preserve">
<g>
	<linearGradient id="SVGID_1_" gradientUnits="userSpaceOnUse" x1="23.4634" y1="9.4126" x2="23.4634" y2="53.8296">
		<stop  offset="0" style="stop-color:#E78601"/>
		<stop  offset="1" style="stop-color:#D27A02"/>
	</linearGradient>
	<path style="fill:url(#SVGID_1_);" d="M35.79,39.508l-15.331,6.434l-9.554-22.726l15.344-6.434L35.79,39.508z M30.54,48.494
		c-1.145,0.474-2.474-0.063-2.961-1.224c-0.487-1.145,0.052-2.474,1.21-2.96c1.158-0.487,2.487,0.053,2.975,1.211
		C32.237,46.68,31.697,48.008,30.54,48.494z M14.458,16.767l4.711-1.973c0.421-0.186,0.921,0.026,1.105,0.459
		c0.185,0.434-0.026,0.922-0.447,1.105l-4.711,1.975c-0.421,0.185-0.921-0.014-1.105-0.448
		C13.827,17.452,14.038,16.952,14.458,16.767z M23.131,9.649l-15.12,6.343c-1.514,0.631-2.237,2.394-1.592,3.908l13.475,32.096
		c0.631,1.513,2.395,2.236,3.909,1.604l15.12-6.356c1.513-0.631,2.224-2.381,1.593-3.896L27.039,11.241
		C26.394,9.728,24.644,9.004,23.131,9.649z"/>
	<linearGradient id="SVGID_2_" gradientUnits="userSpaceOnUse" x1="32.0005" y1="54.5869" x2="32.0005" y2="14.2671">
		<stop  offset="0" style="stop-color:#3F3F3F"/>
		<stop  offset="1" style="stop-color:#747474"/>
	</linearGradient>
	<path style="fill:url(#SVGID_2_);" d="M59.227,33.717H42.527l-2.237,3.171h15.345c1.275,0,1.908,0.962,1.408,2.146l-5.752,13.408
		c-0.5,1.172-1.96,2.146-3.25,2.146H15.959c-1.29,0-2.75-0.974-3.25-2.146L6.958,39.033c-0.5-1.184,0.132-2.146,1.408-2.146h22.515
		l-2.671,3.817c-0.29,0.408-0.435,0.855-0.461,1.315c-0.263,0.619-0.408,1.289-0.408,2c0,2.815,2.277,5.092,5.093,5.092
		c2.816,0,5.105-2.276,5.105-5.092c0-0.854-0.224-1.658-0.592-2.369l-2.605,3.698c-0.448,0.657-1.171,1.001-1.908,1.001
		c-0.461,0-0.922-0.133-1.329-0.422c-1.066-0.737-1.316-2.197-0.58-3.251l19.252-27.424c0.736-1.052,2.197-1.301,3.25-0.564
		c1.053,0.736,1.316,2.196,0.565,3.248l-7.789,11.108h13.422c1.29,0,2.329,1.04,2.329,2.341
		C61.556,32.665,60.517,33.717,59.227,33.717z M33.118,33.717H4.773c-1.29,0-2.329-1.052-2.329-2.33c0-1.302,1.04-2.341,2.329-2.341
		h31.622L33.118,33.717z"/>
</g>
</svg>
