<?xml version="1.0" encoding="utf-8"?>
<!-- Generator: Adobe Illustrator 16.0.0, SVG Export Plug-In . SVG Version: 6.00 Build 0)  -->
<!DOCTYPE svg PUBLIC "-//W3C//DTD SVG 1.0//EN" "http://www.w3.org/TR/2001/REC-SVG-20010904/DTD/svg10.dtd">
<svg version="1.0" id="Layer_1" xmlns="http://www.w3.org/2000/svg" xmlns:xlink="http://www.w3.org/1999/xlink" x="0px" y="0px"
	 width="64px" height="64px" viewBox="0 0 64 64" style="enable-background:new 0 0 64 64;" xml:space="preserve">
<path style="fill:#A3A3A3;" d="M43.146,33.941L27.46,43.678c-1.829,1.134-3.33,0.304-3.33-1.854l0.026-19.647
	c0-2.145,1.5-2.987,3.329-1.868l15.659,9.539C44.976,30.967,44.976,32.809,43.146,33.941z M52.187,11.819H11.813
	c-6.276,0-11.422,5.133-11.422,11.424v17.514c0,6.29,5.146,11.424,11.422,11.424h40.373c6.276,0,11.422-5.134,11.422-11.424V23.243
	C63.608,16.952,58.463,11.819,52.187,11.819z"/>
</svg>
