<?xml version="1.0" encoding="utf-8"?>
<!-- Generator: Adobe Illustrator 16.0.4, SVG Export Plug-In . SVG Version: 6.00 Build 0)  -->
<!DOCTYPE svg PUBLIC "-//W3C//DTD SVG 1.1//EN" "http://www.w3.org/Graphics/SVG/1.1/DTD/svg11.dtd">
<svg version="1.1" id="Layer_1" xmlns:sketch="http://www.bohemiancoding.com/sketch/ns"
	 xmlns="http://www.w3.org/2000/svg" xmlns:xlink="http://www.w3.org/1999/xlink" x="0px" y="0px" width="26px" height="26px"
	 viewBox="-1.5 0 26 26" enable-background="new -1.5 0 26 26" xml:space="preserve">
<title>ico-popolna-pisarna-internet-no-circle</title>
<desc>Created with Sketch.</desc>
<g id="Page-1" sketch:type="MSPage">
	<g id="ico-popolna-pisarna-internet-no-circle" sketch:type="MSLayerGroup">
		
			<linearGradient id="Shape_1_" gradientUnits="userSpaceOnUse" x1="-281.1519" y1="393.1426" x2="-280.3513" y2="392.4279" gradientTransform="matrix(22.43 0 0 -25.126 6309.2637 9881.5967)">
			<stop  offset="0" style="stop-color:#EE5B9D"/>
			<stop  offset="1" style="stop-color:#C31F78"/>
		</linearGradient>
		<path id="Shape" sketch:type="MSShapeGroup" fill="url(#Shape_1_)" d="M14.454,18.689l-0.195-0.416
			c-0.475,0.229-0.942,0.408-1.407,0.537c-0.467,0.131-0.959,0.195-1.481,0.195c-1.045,0-1.914-0.154-2.607-0.465
			c-0.694-0.312-1.249-0.747-1.665-1.312c-0.417-0.562-0.707-1.238-0.869-2.03c-0.164-0.792-0.245-1.669-0.245-2.633
			c0-0.963,0.081-1.84,0.245-2.632C6.39,9.142,6.68,8.464,7.097,7.902c0.416-0.563,0.971-1,1.665-1.312
			c0.693-0.31,1.563-0.465,2.607-0.465c0.522,0,1.018,0.065,1.48,0.196c0.463,0.131,0.935,0.31,1.408,0.538l0.146-0.416h2.301v9.136
			c0.523-0.082,0.959-0.253,1.311-0.517c0.354-0.26,0.633-0.604,0.846-1.026c0.212-0.425,0.361-0.927,0.453-1.506
			c0.088-0.579,0.134-1.236,0.134-1.972c0-0.995-0.085-1.942-0.257-2.84c-0.172-0.898-0.52-1.686-1.041-2.363
			s-1.275-1.216-2.266-1.616c-0.986-0.399-2.305-0.6-3.954-0.6S8.923,3.42,7.854,3.984C6.786,4.548,5.941,5.279,5.321,6.176
			C4.7,7.074,4.272,8.082,4.035,9.2c-0.236,1.118-0.354,2.24-0.354,3.366c0,1.127,0.118,2.249,0.354,3.368
			c0.237,1.116,0.665,2.127,1.286,3.023c0.62,0.896,1.465,1.628,2.534,2.191c1.069,0.562,2.428,0.845,4.077,0.845
			c1.173,0,2.296-0.127,3.366-0.38c1.07-0.254,2.07-0.608,3-1.064l0.025,3.551c-0.898,0.326-1.888,0.578-2.964,0.76
			c-1.077,0.18-2.221,0.27-3.427,0.27c-1.535,0-2.89-0.167-4.064-0.502c-1.176-0.334-2.192-0.8-3.049-1.396
			c-0.857-0.596-1.571-1.295-2.143-2.094c-0.572-0.801-1.028-1.666-1.371-2.596c-0.343-0.932-0.588-1.906-0.735-2.927
			c-0.146-1.021-0.22-2.036-0.22-3.048c0-1.013,0.073-2.028,0.22-3.049S0.963,7.521,1.305,6.59c0.343-0.93,0.8-1.795,1.371-2.595
			c0.571-0.8,1.285-1.498,2.143-2.094c0.856-0.596,1.873-1.062,3.049-1.396c1.175-0.335,2.529-0.502,4.064-0.502
			c2.3,0,4.159,0.285,5.571,0.856c1.412,0.572,2.511,1.339,3.293,2.302c0.783,0.964,1.312,2.081,1.58,3.354s0.403,2.62,0.403,4.04
			c0,1.225-0.11,2.339-0.331,3.343c-0.222,1.004-0.589,1.86-1.103,2.569c-0.515,0.712-1.195,1.259-2.046,1.642
			c-0.848,0.385-1.901,0.576-3.157,0.576h-1.688V18.689L14.454,18.689z M13.499,9.581c-0.278-0.099-0.597-0.188-0.955-0.27
			s-0.751-0.123-1.176-0.123c-0.457,0-0.824,0.095-1.102,0.282c-0.278,0.188-0.49,0.438-0.637,0.746
			c-0.147,0.312-0.245,0.67-0.294,1.078s-0.073,0.832-0.073,1.272s0.024,0.865,0.073,1.272c0.049,0.408,0.146,0.77,0.294,1.078
			c0.146,0.311,0.358,0.561,0.637,0.746c0.277,0.188,0.645,0.281,1.102,0.281s0.856-0.036,1.2-0.109s0.652-0.167,0.931-0.279V9.581
			L13.499,9.581z"/>
	</g>
</g>
</svg>
