<?xml version="1.0" encoding="utf-8"?>
<!-- Generator: Adobe Illustrator 16.0.0, SVG Export Plug-In . SVG Version: 6.00 Build 0)  -->
<!DOCTYPE svg PUBLIC "-//W3C//DTD SVG 1.0//EN" "http://www.w3.org/TR/2001/REC-SVG-20010904/DTD/svg10.dtd">
<svg version="1.0" id="Layer_1" xmlns="http://www.w3.org/2000/svg" xmlns:xlink="http://www.w3.org/1999/xlink" x="0px" y="0px"
	 width="64px" height="64px" viewBox="0 0 64 64" style="enable-background:new 0 0 64 64;" xml:space="preserve">
<g>
	<path style="fill:#231F20;" d="M63.307,26.218C59.881,9.763,43.71-0.836,27.251,2.588C15.4,5.056,6.325,14.09,3.726,25.799
		L0.26,25.756l6.827,12.176l7.133-12l-3.301-0.042c2.396-8.319,9.119-14.649,17.759-16.448c12.683-2.644,25.137,5.528,27.775,18.203
		c2.639,12.676-5.525,25.136-18.199,27.776c-10.041,2.091-20.18-2.497-25.227-11.411c-0.952-1.681-3.088-2.275-4.77-1.321
		c-1.682,0.952-2.274,3.088-1.322,4.771c5.497,9.709,15.645,15.464,26.467,15.464c2.077,0,4.18-0.212,6.278-0.648
		C56.134,58.847,66.731,42.672,63.307,26.218z"/>
	<path style="fill:#231F20;" d="M47.117,49.464V16.885c0-0.82-0.672-1.492-1.492-1.492H21.842c-0.82,0-1.491,0.672-1.491,1.492
		v32.579h2.937V19.839c0-0.855,0.672-1.556,1.492-1.556h17.907c0.821,0,1.492,0.701,1.492,1.556v29.625H47.117z"/>
	<path style="fill:#231F20;" d="M30.042,32.191c-0.411-0.412-1.079-0.412-1.493,0l-2.439,2.44c-0.41,0.411-0.41,1.079,0,1.491
		c0.207,0.205,0.477,0.309,0.746,0.309s0.541-0.104,0.747-0.309l2.439-2.439C30.454,33.271,30.454,32.604,30.042,32.191z"/>
	<circle style="fill:#231F20;" cx="33.534" cy="22.15" r="2.374"/>
	<path style="fill:#231F20;" d="M40.583,49.273c0.502-0.248,0.72-0.844,0.508-1.354l-4.346-10.41l-2.522,1.219l4.947,10.063
		C39.427,49.313,40.059,49.529,40.583,49.273z"/>
	<path style="fill:#231F20;" d="M28.915,49.464c0.015,0.001,0.027,0.01,0.042,0.011c0.025,0.001,0.047-0.01,0.072-0.011
		c0.549-0.011,1.007-0.433,1.036-0.989l0.294-5.811l3.177-5.334l0.018,0.016l2.648-1.281v-7.643l2.116,2.367v5.205
		c0,0.582,0.472,1.054,1.055,1.054s1.055-0.472,1.055-1.054V30.39c0-0.229-0.073-0.44-0.198-0.612l-0.035-0.051l-3.357-4.658
		c-0.379-0.524-1.052-0.674-1.622-0.431c-0.072,0.027-0.144,0.052-0.22,0.1c-0.018,0.009-0.037,0.012-0.053,0.023
		c-0.023,0.017-0.036,0.043-0.059,0.063c-0.064,0.048-0.132,0.089-0.195,0.152l-2.746,2.749c-0.442,0.439-0.803,1.313-0.803,1.937
		c0,0,0.003,5.284-0.008,5.312l-2.761,6.919l-0.039,0.1c-0.039,0.101-0.062,0.208-0.067,0.311l-0.309,6.065
		C27.929,48.936,28.353,49.412,28.915,49.464z"/>
</g>
</svg>
