<?xml version="1.0" encoding="utf-8"?>
<!-- Generator: Adobe Illustrator 16.0.0, SVG Export Plug-In . SVG Version: 6.00 Build 0)  -->
<!DOCTYPE svg PUBLIC "-//W3C//DTD SVG 1.0//EN" "http://www.w3.org/TR/2001/REC-SVG-20010904/DTD/svg10.dtd">
<svg version="1.0" id="Layer_1" xmlns="http://www.w3.org/2000/svg" xmlns:xlink="http://www.w3.org/1999/xlink" x="0px" y="0px"
	 width="64px" height="64px" viewBox="0 0 64 64" style="enable-background:new 0 0 64 64;" xml:space="preserve">
<linearGradient id="SVGID_1_" gradientUnits="userSpaceOnUse" x1="32.0005" y1="61.7793" x2="32.0005" y2="2.2207">
	<stop  offset="0" style="stop-color:#3F3F3F"/>
	<stop  offset="1" style="stop-color:#747474"/>
</linearGradient>
<path style="fill:url(#SVGID_1_);" d="M40.572,25.881c-0.632,1.342-1.815,2.947-3.553,4.816c-1.789,1.882-2.697,4.039-2.697,6.475
	v0.882h-6.975c-0.039-1.054-0.053-1.646-0.053-1.789c0-2.737,1.014-5.264,3.053-7.581c1.329-1.513,2.172-2.645,2.54-3.381
	c0.381-0.75,0.566-1.408,0.566-1.987c0-2.04-1.264-3.066-3.777-3.066c-2,0-3.803,0.539-5.382,1.605l-1.815-5.687
	C25.045,14.722,28.032,14,31.427,14c3.158,0,5.632,0.75,7.422,2.236c1.776,1.486,2.671,3.435,2.671,5.831
	C41.52,23.275,41.205,24.539,40.572,25.881z M34.059,48.674c-0.868,0.881-2.013,1.328-3.408,1.328c-1.382,0-2.5-0.447-3.382-1.342
	s-1.315-2.039-1.315-3.422c0-1.395,0.434-2.539,1.315-3.42c0.882-0.895,2-1.33,3.382-1.33s2.513,0.436,3.396,1.33
	c0.882,0.881,1.315,2.025,1.315,3.42S34.928,47.779,34.059,48.674z M32.006,2.22c-16.448,0-29.792,13.331-29.792,29.781
	c0,16.448,13.344,29.778,29.792,29.778c16.449,0,29.78-13.33,29.78-29.778C61.786,15.551,48.455,2.22,32.006,2.22z"/>
</svg>
