<?xml version="1.0" encoding="utf-8"?>
<!-- Generator: Adobe Illustrator 16.0.4, SVG Export Plug-In . SVG Version: 6.00 Build 0)  -->
<!DOCTYPE svg PUBLIC "-//W3C//DTD SVG 1.1//EN" "http://www.w3.org/Graphics/SVG/1.1/DTD/svg11.dtd">
<svg version="1.1" id="Layer_1" xmlns:sketch="http://www.bohemiancoding.com/sketch/ns"
	 xmlns="http://www.w3.org/2000/svg" xmlns:xlink="http://www.w3.org/1999/xlink" x="0px" y="0px" width="64px" height="64px"
	 viewBox="-24 -23.5 64 64" enable-background="new -24 -23.5 64 64" xml:space="preserve">
<title>ico-calls-brown</title>
<desc>Created with Sketch.</desc>
<g id="Page-1_1_" sketch:type="MSPage">
	<g id="ico-calls-brown" sketch:type="MSLayerGroup">
		<g id="Page-1" sketch:type="MSShapeGroup">
			<g id="Configurator">
				<path id="Shape" fill="#AB9D80" d="M-22.962-18.061c0,0-3.394,17.455,17.157,38.753c0.181,0.197,0.376,0.378,0.555,0.555
					c0.197,0.197,0.36,0.394,0.555,0.587c20.533,21.288,38.104,18.527,38.104,18.527c5.952-0.422,9.115-14.79,0.306-17.186
					c-10.389-2.861-12.459-4.356-15.786-4.163c-3.521,0.213-2.283,5.225-5.317,5.844c-2.938,0.587-8.725-3.296-13.227-8.078
					c-4.6-4.662-8.287-10.601-7.586-13.502c0.736-3.004,5.693-1.583,6.021-5.106c0.326-3.33-1.109-5.434-3.589-15.921
					C-7.858-26.641-22.327-23.999-22.962-18.061L-22.962-18.061L-22.962-18.061z"/>
			</g>
		</g>
	</g>
</g>
</svg>
