<?xml version="1.0" encoding="utf-8"?>
<!-- Generator: Adobe Illustrator 16.0.0, SVG Export Plug-In . SVG Version: 6.00 Build 0)  -->
<!DOCTYPE svg PUBLIC "-//W3C//DTD SVG 1.0//EN" "http://www.w3.org/TR/2001/REC-SVG-20010904/DTD/svg10.dtd">
<svg version="1.0" id="Layer_1" xmlns="http://www.w3.org/2000/svg" xmlns:xlink="http://www.w3.org/1999/xlink" x="0px" y="0px"
	 width="64px" height="64px" viewBox="0 0 64 64" style="enable-background:new 0 0 64 64;" xml:space="preserve">
<linearGradient id="SVGID_1_" gradientUnits="userSpaceOnUse" x1="32.0005" y1="54.7549" x2="32.0005" y2="9.2461">
	<stop  offset="0" style="stop-color:#3F3F3F"/>
	<stop  offset="1" style="stop-color:#747474"/>
</linearGradient>
<path style="fill:url(#SVGID_1_);" d="M31.567,54.755c-3.988,0-7.225-3.277-7.225-7.304c0-4.04,3.237-7.317,7.225-7.317
	c4,0,7.225,3.277,7.225,7.317C38.792,51.478,35.567,54.755,31.567,54.755z M51.003,39.002c-1.631,1.869-4.447,2.04-6.29,0.396
	c-13.329-11.949-23.949-1.315-25.107-0.066c-0.881,0.949-2.066,1.435-3.264,1.435c-1.092,0-2.185-0.408-3.04-1.212
	c-1.79-1.697-1.908-4.526-0.25-6.354c5.935-6.528,21.422-15.041,37.57-0.565C52.465,34.291,52.636,37.133,51.003,39.002z
	 M62.544,28.5c-1.631,1.87-4.447,2.042-6.303,0.382C30.067,5.42,8.973,28.028,8.091,28.988c-0.881,0.974-2.092,1.46-3.29,1.46
	c-1.079,0-2.171-0.396-3.027-1.196c-1.816-1.686-1.921-4.541-0.263-6.369c0.276-0.303,28.003-30.029,60.65-0.751
	C64.004,23.777,64.176,26.632,62.544,28.5z"/>
</svg>
