<?xml version="1.0" encoding="UTF-8" standalone="no"?>
<svg width="128px" height="128px" viewBox="0 0 128 128" version="1.1" xmlns="http://www.w3.org/2000/svg" xmlns:xlink="http://www.w3.org/1999/xlink" xmlns:sketch="http://www.bohemiancoding.com/sketch/ns">
    <!-- Generator: Sketch 3.3 (11970) - http://www.bohemiancoding.com/sketch -->
    <title>ico-obdelavanarocila</title>
    <desc>Created with Sketch.</desc>
    <defs></defs>
    <g id="Page-1" stroke="none" stroke-width="1" fill="none" fill-rule="evenodd" sketch:type="MSPage">
        <g id="ico-obdelavanarocila" sketch:type="MSArtboardGroup" fill="#C1B294">
            <g id="Imported-Layers" sketch:type="MSLayerGroup" transform="translate(8.000000, 12.000000)">
                <path d="M69.4374727,38.0758824 L69.4374727,0.275882353 L44.4418727,0.275882353 L44.4418727,38.0758824 L29.8998,38.0758824 L56.9376182,66.3105882 L83.9795455,38.0758824 L69.4374727,38.0758824" id="Fill-1" sketch:type="MSShapeGroup"></path>
                <path d="M97.7511636,25.1814706 L73.5465636,25.1814706 L73.5465636,29.2970588 L95.1275091,29.2970588 L105.7002,52.1870588 L76.8215091,52.1870588 C76.2503455,62.7076471 67.5801636,71.0705882 56.9376182,71.0705882 C46.2991818,71.0705882 37.629,62.7076471 37.0537273,52.1870588 L8.17298182,52.1870588 L18.7518364,29.2970588 L40.3327818,29.2970588 L40.3327818,25.1814706 L16.1281818,25.1814706 L1.74430909,56.3047059 L1.74430909,104.252647 L112.132982,104.252647 L112.132982,56.3047059 L97.7511636,25.1814706" id="Fill-2" sketch:type="MSShapeGroup"></path>
            </g>
        </g>
    </g>
</svg>