<?xml version="1.0" encoding="utf-8"?>
<!-- Generator: Adobe Illustrator 16.0.0, SVG Export Plug-In . SVG Version: 6.00 Build 0)  -->
<!DOCTYPE svg PUBLIC "-//W3C//DTD SVG 1.0//EN" "http://www.w3.org/TR/2001/REC-SVG-20010904/DTD/svg10.dtd">
<svg version="1.0" id="Layer_1" xmlns="http://www.w3.org/2000/svg" xmlns:xlink="http://www.w3.org/1999/xlink" x="0px" y="0px"
	 width="64px" height="64px" viewBox="0 0 64 64" style="enable-background:new 0 0 64 64;" xml:space="preserve">
<linearGradient id="SVGID_1_" gradientUnits="userSpaceOnUse" x1="32" y1="56.2461" x2="32" y2="7.7544">
	<stop  offset="0" style="stop-color:#4A4A4A"/>
	<stop  offset="1" style="stop-color:#666666"/>
</linearGradient>
<path style="fill:url(#SVGID_1_);" d="M45.33,18.677c-3.553-3.566-8.291-5.527-13.33-5.527c-5.041,0-9.777,1.961-13.344,5.527
	c-3.553,3.552-5.514,8.289-5.514,13.33c0,5.026,1.961,9.778,5.514,13.33c3.566,3.566,8.303,5.526,13.344,5.526
	c5.039,0,9.777-1.96,13.33-5.526c3.566-3.552,5.527-8.29,5.527-13.33C50.857,26.966,48.896,22.229,45.33,18.677z M49.146,49.153
	C44.408,53.878,38.211,56.246,32,56.246c-6.211,0-12.409-2.368-17.146-7.093c-9.475-9.474-9.475-24.818,0-34.294
	C19.591,10.122,25.789,7.754,32,7.754c6.21,0,12.408,2.368,17.146,7.105C58.621,24.322,58.621,39.68,49.146,49.153z M31.631,29.27
	l3.105,3.093l4.277-7.384L31.631,29.27z M43.949,20.504l-8.541,14.739c-0.014,0.014-0.025,0.04-0.053,0.066
	c-0.039,0.052-0.078,0.079-0.145,0.104l-14.712,8.542c-0.053,0.04-0.105,0.054-0.171,0.054c-0.079,0-0.171-0.04-0.237-0.106
	c-0.105-0.104-0.132-0.275-0.053-0.408l8.554-14.725c0.013-0.025,0.026-0.039,0.039-0.065c0.04-0.04,0.092-0.093,0.145-0.104
	l14.712-8.555c0.053-0.027,0.117-0.04,0.172-0.04c0.092,0,0.17,0.04,0.236,0.093C44.014,20.215,44.027,20.374,43.949,20.504z"/>
</svg>
