<?xml version="1.0" encoding="utf-8"?>
<!-- Generator: Adobe Illustrator 16.0.0, SVG Export Plug-In . SVG Version: 6.00 Build 0)  -->
<!DOCTYPE svg PUBLIC "-//W3C//DTD SVG 1.0//EN" "http://www.w3.org/TR/2001/REC-SVG-20010904/DTD/svg10.dtd">
<svg version="1.0" id="Layer_1" xmlns="http://www.w3.org/2000/svg" xmlns:xlink="http://www.w3.org/1999/xlink" x="0px" y="0px"
	 width="64px" height="64px" viewBox="0 0 64 64" style="enable-background:new 0 0 64 64;" xml:space="preserve">
<g>
	<path style="fill:#66BB30;" d="M27.887,43.783c0.042-0.007,0.085-0.007,0.119-0.007c0.721,0,1.458-0.263,2.119-0.916
		c5.739-5.749,11.487-11.495,17.233-17.242c2.891-2.882-1.586-7.357-4.477-4.467c-5,4.993-9.992,9.993-14.994,14.995
		c-5.001-5.002-1.772-1.729-6.773-6.722c-2.89-2.891-7.357,1.585-4.475,4.475c5.747,5.739,3.264,3.212,9.011,8.961
		c0.661,0.653,1.398,0.916,2.111,0.916C27.802,43.776,27.845,43.776,27.887,43.783z"/>
	<path style="fill:#66BB30;" d="M32,62.49C15.188,62.49,1.51,48.813,1.51,32S15.188,1.51,32,1.51c16.812,0,30.49,13.678,30.49,30.49
		S48.813,62.49,32,62.49z M32,6.398C17.883,6.398,6.398,17.883,6.398,32S17.883,57.602,32,57.602
		c14.117,0,25.601-11.484,25.601-25.602S46.117,6.398,32,6.398z"/>
</g>
</svg>
