<?xml version="1.0" encoding="utf-8"?>
<!-- Generator: Adobe Illustrator 16.0.0, SVG Export Plug-In . SVG Version: 6.00 Build 0)  -->
<!DOCTYPE svg PUBLIC "-//W3C//DTD SVG 1.0//EN" "http://www.w3.org/TR/2001/REC-SVG-20010904/DTD/svg10.dtd">
<svg version="1.0" id="Layer_1" xmlns="http://www.w3.org/2000/svg" xmlns:xlink="http://www.w3.org/1999/xlink" x="0px" y="0px"
	 width="64px" height="64px" viewBox="0 0 64 64" style="enable-background:new 0 0 64 64;" xml:space="preserve">
<g>
	<linearGradient id="SVGID_1_" gradientUnits="userSpaceOnUse" x1="29.9175" y1="58.2012" x2="29.9175" y2="3.9998">
		<stop  offset="0" style="stop-color:#3F3F3F"/>
		<stop  offset="1" style="stop-color:#747474"/>
	</linearGradient>
	<path style="fill:url(#SVGID_1_);" d="M51.483,44.023c-8.724-2.328-10.448-3.566-13.238-3.408c-2.96,0.172-1.92,4.275-4.46,4.791
		c-2.461,0.486-7.317-2.699-11.094-6.621c-3.869-3.814-6.948-8.671-6.356-11.055c0.605-2.46,4.764-1.301,5.053-4.184
		c0.264-2.723-0.947-4.446-3.013-13.041C16.611,3.229,4.479,5.387,3.953,10.257c0,0-2.843,14.29,14.383,31.728
		c0.158,0.17,0.315,0.316,0.473,0.475c0.158,0.156,0.303,0.314,0.461,0.471c17.225,17.438,31.951,15.176,31.951,15.176
		C56.221,57.762,58.866,45.998,51.483,44.023z"/>
	<linearGradient id="SVGID_2_" gradientUnits="userSpaceOnUse" x1="56.1221" y1="58.2012" x2="56.1221" y2="4.0005">
		<stop  offset="0" style="stop-color:#3F3F3F"/>
		<stop  offset="1" style="stop-color:#747474"/>
	</linearGradient>
	<path style="fill:url(#SVGID_2_);" d="M58.878,29.824c-1.461-0.617-4.803-1.63-4.803-1.63s-0.816-0.265-1.066-0.976
		c-0.158-0.421-0.395-0.736-0.986,0.276c2.263,1.329,2.276,5.289,2.236,6.212h5.961C60.22,33.707,60.339,30.443,58.878,29.824z"/>
	<linearGradient id="SVGID_3_" gradientUnits="userSpaceOnUse" x1="38.9746" y1="58.2002" x2="38.9746" y2="3.9995">
		<stop  offset="0" style="stop-color:#3F3F3F"/>
		<stop  offset="1" style="stop-color:#747474"/>
	</linearGradient>
	<path style="fill:url(#SVGID_3_);" d="M34.021,17.612c0.078,0.065,0.289,0.316,0.486,0.58c0.618,4.224,4,4.367,4.435,4.367h0.092
		c0.382,0,3.79-0.13,4.409-4.367c0.197-0.264,0.421-0.515,0.514-0.58c0.644-0.302,0.671-0.79,0.671-2.144
		c0-1.541-0.066-4.029-0.066-4.106c-0.013-0.04-0.671-3.831-5.579-3.831s-5.579,3.791-5.593,3.908c0,0-0.065,2.488-0.065,4.029
		C33.323,16.822,33.362,17.311,34.021,17.612z"/>
	<linearGradient id="SVGID_4_" gradientUnits="userSpaceOnUse" x1="50.4434" y1="58.2002" x2="50.4434" y2="3.9995">
		<stop  offset="0" style="stop-color:#3F3F3F"/>
		<stop  offset="1" style="stop-color:#747474"/>
	</linearGradient>
	<path style="fill:url(#SVGID_4_);" d="M46.995,20.876c0.197,0.105,0.592,0.658,0.592,0.658c0.382,3.065,2.855,2.947,2.855,2.947
		s2.475,0.118,2.869-2.947c0,0,0.396-0.553,0.579-0.658c0.197-0.092,0.276-0.039,0.276-1.185c0-1.131-0.054-2.974-0.054-2.974
		s-0.395-2.447-3.671-2.447s-3.671,2.447-3.671,2.447s-0.053,1.843-0.053,2.974C46.719,20.837,46.798,20.784,46.995,20.876z"/>
	<linearGradient id="SVGID_5_" gradientUnits="userSpaceOnUse" x1="38.9336" y1="58.2012" x2="38.9336" y2="4.0005">
		<stop  offset="0" style="stop-color:#3F3F3F"/>
		<stop  offset="1" style="stop-color:#747474"/>
	</linearGradient>
	<path style="fill:url(#SVGID_5_);" d="M38.929,33.707h0.013h13.765c0,0,0.171-4.607-1.881-5.476
		c-2.067-0.868-6.777-2.303-6.777-2.303s-1.146-0.367-1.5-1.382c-0.225-0.605-0.567-1.064-1.448,0.514
		c-0.882,1.592-0.987,1.844-0.987,1.844s-0.46,1.078-0.46,2.144c0,1.078,0.052,1.697,0.052,1.697s-0.105,0.804-0.775,0.816
		c-0.658-0.013-0.764-0.816-0.764-0.816s0.053-0.619,0.053-1.697c0-1.065-0.461-2.144-0.461-2.144s-0.104-0.252-0.986-1.844
		c-0.882-1.578-1.225-1.119-1.448-0.514c-0.368,1.015-1.499,1.382-1.499,1.382s-4.711,1.435-6.778,2.303
		c-2.066,0.868-1.882,5.476-1.882,5.476H38.929z"/>
</g>
</svg>
