<?xml version="1.0" encoding="utf-8"?>
<!-- Generator: Adobe Illustrator 16.0.0, SVG Export Plug-In . SVG Version: 6.00 Build 0)  -->
<!DOCTYPE svg PUBLIC "-//W3C//DTD SVG 1.0//EN" "http://www.w3.org/TR/2001/REC-SVG-20010904/DTD/svg10.dtd">
<svg version="1.0" id="Layer_1" xmlns="http://www.w3.org/2000/svg" xmlns:xlink="http://www.w3.org/1999/xlink" x="0px" y="0px"
	 width="64px" height="64px" viewBox="0 0 64 64" style="enable-background:new 0 0 64 64;" xml:space="preserve">
<g>
	<linearGradient id="SVGID_1_" gradientUnits="userSpaceOnUse" x1="26.8755" y1="58.7734" x2="26.8755" y2="1.1353">
		<stop  offset="0" style="stop-color:#3F3F3F"/>
		<stop  offset="1" style="stop-color:#747474"/>
	</linearGradient>
	<path style="fill:url(#SVGID_1_);" d="M42.528,50.508c0,1.304-1.054,2.356-2.369,2.356H10.761c-1.302,0-2.368-1.053-2.368-2.356
		v-9.093c0-1.316,1.066-2.368,2.368-2.368h29.398c1.315,0,2.369,1.052,2.369,2.368V50.508z M8.273,9.162
		c0-1.499,1.225-2.71,2.725-2.71s2.711,1.211,2.711,2.71V20.86c0,1.501-1.211,2.71-2.711,2.71s-2.725-1.209-2.725-2.71V9.162z
		 M18.788,9.162c0-1.499,1.211-2.71,2.711-2.71s2.725,1.211,2.725,2.71V20.86c0,1.501-1.225,2.71-2.725,2.71
		s-2.711-1.209-2.711-2.71V9.162z M29.776,9.162c0-1.499,1.211-2.71,2.711-2.71s2.724,1.211,2.724,2.71V20.86
		c0,1.501-1.224,2.71-2.724,2.71s-2.711-1.209-2.711-2.71V9.162z M49.266,22.519h2.237V15.07L40.225,1.228L37.33,1.135H6.037
		c-2.093,0-3.79,1.698-3.79,3.777v50.084c0,2.08,1.697,3.777,3.79,3.777h4.724H37.33h9.448c2.605,0,4.725-2.12,4.725-4.725V35.032
		h-2.237c-1.566,0-2.843-1.275-2.843-2.828v-6.855C46.423,23.781,47.699,22.519,49.266,22.519z"/>
	<linearGradient id="SVGID_2_" gradientUnits="userSpaceOnUse" x1="45.0547" y1="23.7705" x2="45.0547" y2="62.8657">
		<stop  offset="0" style="stop-color:#E78601"/>
		<stop  offset="1" style="stop-color:#D27A02"/>
	</linearGradient>
	<path style="fill:url(#SVGID_2_);" d="M55.674,57.258c0,0.883-0.724,1.606-1.605,1.606H34.119c-0.882,0-1.606-0.724-1.606-1.606
		v-6.171c0-0.881,0.725-1.605,1.606-1.605h19.949c0.882,0,1.605,0.725,1.605,1.605V57.258z M32.435,29.217
		c0-1.014,0.829-1.843,1.843-1.843s1.842,0.829,1.842,1.843v7.936c0,1.013-0.828,1.843-1.842,1.843s-1.843-0.83-1.843-1.843V29.217z
		 M39.567,29.217c0-1.014,0.828-1.843,1.842-1.843s1.843,0.829,1.843,1.843v7.936c0,1.013-0.829,1.843-1.843,1.843
		s-1.842-0.83-1.842-1.843V29.217z M47.016,29.217c0-1.014,0.828-1.843,1.842-1.843s1.843,0.829,1.843,1.843v7.936
		c0,1.013-0.829,1.843-1.843,1.843s-1.842-0.83-1.842-1.843V29.217z M60.24,38.271h1.513v-5.04l-7.646-9.396l-1.96-0.063H30.908
		c-1.408,0-2.553,1.144-2.553,2.565v33.963c0,1.421,1.145,2.566,2.553,2.566h3.211h18.028h6.408c1.764,0,3.197-1.434,3.197-3.198
		v-12.91H60.24c-1.066,0-1.935-0.854-1.935-1.92v-4.646C58.306,39.125,59.174,38.271,60.24,38.271z"/>
</g>
</svg>
