<?xml version="1.0" encoding="utf-8"?>
<!-- Generator: Adobe Illustrator 16.0.0, SVG Export Plug-In . SVG Version: 6.00 Build 0)  -->
<!DOCTYPE svg PUBLIC "-//W3C//DTD SVG 1.0//EN" "http://www.w3.org/TR/2001/REC-SVG-20010904/DTD/svg10.dtd">
<svg version="1.0" id="Layer_1" xmlns="http://www.w3.org/2000/svg" xmlns:xlink="http://www.w3.org/1999/xlink" x="0px" y="0px"
	 width="64px" height="64px" viewBox="0 0 64 64" style="enable-background:new 0 0 64 64;" xml:space="preserve">
<g>
	<linearGradient id="SVGID_1_" gradientUnits="userSpaceOnUse" x1="32.0005" y1="63.6816" x2="32.0005" y2="0.3188">
		<stop  offset="0" style="stop-color:#3F3F3F"/>
		<stop  offset="1" style="stop-color:#747474"/>
	</linearGradient>
	<path style="fill:url(#SVGID_1_);" d="M32,0.318c-17.502,0-31.675,14.187-31.675,31.688c0,17.488,14.173,31.676,31.675,31.676
		s31.675-14.188,31.675-31.676C63.675,14.505,49.502,0.318,32,0.318z M32,5.2c14.777,0,26.807,12.027,26.807,26.806
		c0,14.779-12.029,26.807-26.807,26.807c-14.778,0-26.806-12.027-26.806-26.807C5.194,17.228,17.222,5.2,32,5.2"/>
	<linearGradient id="SVGID_2_" gradientUnits="userSpaceOnUse" x1="32.4292" y1="49.7051" x2="32.4292" y2="14.2944">
		<stop  offset="0" style="stop-color:#E78601"/>
		<stop  offset="1" style="stop-color:#D27A02"/>
	</linearGradient>
	<path style="fill:url(#SVGID_2_);" d="M28.106,48.68c0.724,0.685,1.657,1.025,2.829,1.025c1.236,0,2.225-0.341,2.934-1.025
		c0.711-0.684,1.079-1.605,1.079-2.736c0-1.146-0.368-2.04-1.079-2.711c-0.709-0.67-1.697-1-2.934-1c-1.172,0-2.105,0.33-2.829,1
		c-0.711,0.671-1.066,1.565-1.066,2.711C27.04,47.074,27.396,47.996,28.106,48.68z M33.436,39.008c0-1.368,0.224-2.487,0.685-3.369
		c0.447-0.883,1-1.658,1.657-2.316c0.646-0.671,1.369-1.303,2.146-1.881c0.776-0.592,1.501-1.264,2.145-2.027
		c0.658-0.763,1.198-1.698,1.645-2.789c0.435-1.093,0.659-2.461,0.659-4.119c0-2.514-0.868-4.501-2.593-5.988
		c-1.724-1.472-4.119-2.224-7.172-2.224c-2.29,0-4.225,0.289-5.843,0.829c-1.605,0.566-3.04,1.264-4.276,2.105l2.447,4.686
		c0.421-0.289,0.908-0.58,1.434-0.855c0.54-0.277,1.105-0.515,1.698-0.724c0.579-0.225,1.171-0.382,1.75-0.5
		c0.592-0.106,1.145-0.171,1.658-0.171c1.632,0,2.764,0.342,3.396,1.039c0.632,0.685,0.961,1.593,0.961,2.724
		c0,0.883-0.224,1.646-0.646,2.277c-0.421,0.63-0.947,1.236-1.579,1.827c-0.646,0.581-1.329,1.199-2.052,1.831
		c-0.738,0.631-1.383,1.381-1.962,2.25c-0.565,0.856-1.014,1.882-1.342,3.065c-0.316,1.197-0.408,2.633-0.237,4.33H33.436z"/>
</g>
</svg>
