<?xml version="1.0" encoding="UTF-8" standalone="no"?>
<svg width="13px" height="14px" viewBox="0 0 13 14" version="1.1" xmlns="http://www.w3.org/2000/svg" xmlns:xlink="http://www.w3.org/1999/xlink" xmlns:sketch="http://www.bohemiancoding.com/sketch/ns">
    <!-- Generator: Sketch 3.3 (11970) - http://www.bohemiancoding.com/sketch -->
    <title>Imported Layers</title>
    <desc>Created with Sketch.</desc>
    <defs></defs>
    <g id="Deliverables-2" stroke="none" stroke-width="1" fill="none" fill-rule="evenodd" sketch:type="MSPage">
        <g id="2---Nakup-naprave---izbira-paketa" sketch:type="MSArtboardGroup" transform="translate(-426.000000, -318.750000)" fill="#E78601">
            <g id="Imported-Layers" sketch:type="MSLayerGroup" transform="translate(426.000000, 319.000000)">
                <path d="M3.91425806,3.83583871 C3.5276129,3.83583871 3.40558065,3.98890323 3.40558065,4.7923871 C3.40558065,5.67722581 3.54774194,5.82987097 3.90377419,5.82987097 C4.34116129,5.82987097 4.433,5.67722581 4.433,4.87374194 C4.433,3.98890323 4.29041935,3.83583871 3.91425806,3.83583871" id="Fill-1" sketch:type="MSShapeGroup"></path>
                <path d="M8.73558065,7.08122581 C8.34935484,7.08122581 8.22732258,7.23387097 8.22732258,8.03735484 C8.22732258,8.92219355 8.36948387,9.07525806 8.72593548,9.07525806 C9.16332258,9.07525806 9.25432258,8.92219355 9.25432258,8.11870968 C9.25432258,7.23387097 9.11216129,7.08122581 8.73558065,7.08122581" id="Fill-2" sketch:type="MSShapeGroup"></path>
                <path d="M6.33016129,0.13083871 C2.83441935,0.13083871 0.000419354839,2.96483871 0.000419354839,6.46058065 C0.000419354839,9.95632258 2.83441935,12.7903226 6.33016129,12.7903226 C9.82590323,12.7903226 12.6594839,9.95632258 12.6594839,6.46058065 C12.6594839,2.96483871 9.82590323,0.13083871 6.33016129,0.13083871 L6.33016129,0.13083871 Z M2.15422581,4.823 C2.15422581,3.53096774 2.53080645,2.92080645 3.94487097,2.92080645 C5.34845161,2.92080645 5.68435484,3.51083871 5.68435484,4.823 C5.68435484,6.13516129 5.31783871,6.75580645 3.94487097,6.75580645 C2.52032258,6.75580645 2.15422581,6.14522581 2.15422581,4.823 L2.15422581,4.823 Z M5.42980645,9.88880645 L4.14825806,9.88880645 L7.25106452,2.99209677 L8.52254839,2.99209677 L5.42980645,9.88880645 L5.42980645,9.88880645 Z M8.76619355,10.0007742 C7.34206452,10.0007742 6.97596774,9.3906129 6.97596774,8.06796774 C6.97596774,6.77593548 7.35254839,6.16577419 8.76619355,6.16577419 C10.1701935,6.16577419 10.5060968,6.75580645 10.5060968,8.06796774 C10.5060968,9.38012903 10.1395806,10.0007742 8.76619355,10.0007742 L8.76619355,10.0007742 Z" id="Fill-3" sketch:type="MSShapeGroup"></path>
            </g>
        </g>
    </g>
</svg>