<?xml version="1.0" encoding="utf-8"?>
<!-- Generator: Adobe Illustrator 16.0.0, SVG Export Plug-In . SVG Version: 6.00 Build 0)  -->
<!DOCTYPE svg PUBLIC "-//W3C//DTD SVG 1.0//EN" "http://www.w3.org/TR/2001/REC-SVG-20010904/DTD/svg10.dtd">
<svg version="1.0" id="Layer_1" xmlns="http://www.w3.org/2000/svg" xmlns:xlink="http://www.w3.org/1999/xlink" x="0px" y="0px"
	 width="64px" height="64px" viewBox="0 0 64 64" style="enable-background:new 0 0 64 64;" xml:space="preserve">
<g id="_x30_2_x5F_icn-search-header_1_" style="enable-background:new    ;">
	<g id="_x30_2_x5F_icn-search-header">
		<g>
			<path style="fill:#999999;" d="M50.863,46.623l-8.729-9.357c2.095-3.183,3.08-6.945,2.767-10.806
				c-0.371-4.579-2.506-8.739-6.006-11.712c-6.42-5.452-16.049-5.406-22.397,0.105c-0.657,0.574-1.278,1.198-1.845,1.867
				c-6.141,7.225-5.254,18.098,1.972,24.239c5.069,4.307,12.136,5.168,18.015,2.628c0.07,0.089,0.123,0.185,0.201,0.269l8.836,9.474
				c1.075,1.147,2.57,1.669,4.025,1.541c1.053-0.095,2.087-0.522,2.92-1.302C52.605,51.717,52.713,48.607,50.863,46.623z
				 M35.623,34.535c-0.344,0.402-0.717,0.779-1.113,1.123c-3.807,3.305-9.582,3.33-13.43,0.059
				c-4.338-3.684-4.868-10.207-1.186-14.544c0.344-0.402,0.717-0.779,1.111-1.122c3.805-3.308,9.583-3.33,13.434-0.062
				c2.1,1.784,3.381,4.28,3.604,7.029C38.266,29.766,37.407,32.432,35.623,34.535z"/>
		</g>
	</g>
</g>
<g>
</g>
<g>
</g>
<g>
</g>
<g>
</g>
<g>
</g>
</svg>
