<?xml version="1.0" encoding="utf-8"?>
<!-- Generator: Adobe Illustrator 16.0.4, SVG Export Plug-In . SVG Version: 6.00 Build 0)  -->
<!DOCTYPE svg PUBLIC "-//W3C//DTD SVG 1.1//EN" "http://www.w3.org/Graphics/SVG/1.1/DTD/svg11.dtd">
<svg version="1.1" id="Layer_1" xmlns:sketch="http://www.bohemiancoding.com/sketch/ns"
	 xmlns="http://www.w3.org/2000/svg" xmlns:xlink="http://www.w3.org/1999/xlink" x="0px" y="0px" width="37px" height="37px"
	 viewBox="0 -5.5 37 37" enable-background="new 0 -5.5 37 37" xml:space="preserve">
<title>ico-popolna-pisarna-pr-no-circle</title>
<desc>Created with Sketch.</desc>
<g id="Page-1" sketch:type="MSPage">
	<g id="ico-popolna-pisarna-pr-no-circle" transform="translate(-1.000000, 0.000000)" sketch:type="MSLayerGroup">
		
			<linearGradient id="Shape_1_" gradientUnits="userSpaceOnUse" x1="-278.356" y1="392.5664" x2="-277.356" y2="392.5664" gradientTransform="matrix(36.433 0 0 -24.796 10142.3379 9747.2754)">
			<stop  offset="0" style="stop-color:#62C8F3"/>
			<stop  offset="0.187" style="stop-color:#5CC5F0"/>
			<stop  offset="0.4115" style="stop-color:#4DBAE5"/>
			<stop  offset="0.6554" style="stop-color:#33A7D4"/>
			<stop  offset="0.9115" style="stop-color:#158DBD"/>
			<stop  offset="1" style="stop-color:#0A83B4"/>
		</linearGradient>
		<path id="Shape" sketch:type="MSShapeGroup" fill="url(#Shape_1_)" d="M28.165,25.613H9.411c-4.639,0-8.413-3.773-8.413-8.412
			c0-4.209,3.106-7.705,7.148-8.318c0.776-4.577,4.766-8.066,9.553-8.066c4.164,0,7.742,2.591,9.102,6.376
			c0.457-0.074,0.915-0.111,1.363-0.111c5.109,0,9.268,4.157,9.268,9.268C37.432,21.458,33.277,25.613,28.165,25.613L28.165,25.613z
			 M9.348,12.191c-2.734,0.033-4.949,2.269-4.949,5.011c0,2.764,2.249,5.013,5.013,5.013h18.752c3.234,0,5.865-2.632,5.865-5.865
			c0-3.234-2.631-5.867-5.865-5.867c-0.646,0-1.303,0.124-2,0.38l-1.941,0.71l-0.32-2.045c-0.48-3.076-3.09-5.309-6.202-5.309
			c-3.469,0-6.291,2.82-6.291,6.288v1.771l-1.771-0.059C9.54,12.214,9.445,12.204,9.348,12.191L9.348,12.191z"/>
	</g>
</g>
</svg>
