<?xml version="1.0" encoding="utf-8"?>
<!-- Generator: Adobe Illustrator 16.0.0, SVG Export Plug-In . SVG Version: 6.00 Build 0)  -->
<!DOCTYPE svg PUBLIC "-//W3C//DTD SVG 1.0//EN" "http://www.w3.org/TR/2001/REC-SVG-20010904/DTD/svg10.dtd">
<svg version="1.0" id="Layer_1" xmlns="http://www.w3.org/2000/svg" xmlns:xlink="http://www.w3.org/1999/xlink" x="0px" y="0px"
	 width="64px" height="64px" viewBox="0 0 64 64" style="enable-background:new 0 0 64 64;" xml:space="preserve">
<path style="fill:#231F20;" d="M56.667,43.374L42.588,59.493c-0.751,0.882-2.014,0.882-2.778,0.015L25.414,43.36
	c-0.776-0.868-0.46-1.579,0.697-1.579h5.975c1.158,0,2.105-0.947,2.105-2.105V28.451c0-1.157,0.947-2.105,2.104-2.105h8.777
	c1.146,0,2.106,0.935,2.093,2.105l0.014,10.884c-0.014,1.145,0.947,2.131,2.092,2.157l6.672,0.224
	C57.102,41.755,57.431,42.492,56.667,43.374z M37.876,22.293l-6.672,0.21c-1.145,0.04-2.092,1.015-2.092,2.171v10.884
	c0,1.157-0.961,2.105-2.105,2.105h-8.777c-1.158,0-2.105-0.948-2.105-2.105V24.333c0-1.172-0.947-2.12-2.105-2.12H8.044
	c-1.158,0-1.474-0.696-0.697-1.564L21.743,4.489c0.763-0.87,2.026-0.855,2.776,0.012L38.6,20.635
	C39.363,21.504,39.034,22.254,37.876,22.293z"/>
</svg>
