<?xml version="1.0" encoding="utf-8"?>
<!-- Generator: Adobe Illustrator 16.0.0, SVG Export Plug-In . SVG Version: 6.00 Build 0)  -->
<!DOCTYPE svg PUBLIC "-//W3C//DTD SVG 1.0//EN" "http://www.w3.org/TR/2001/REC-SVG-20010904/DTD/svg10.dtd">
<svg version="1.0" id="Layer_1" xmlns="http://www.w3.org/2000/svg" xmlns:xlink="http://www.w3.org/1999/xlink" x="0px" y="0px"
	 width="64px" height="64px" viewBox="0 0 64 64" style="enable-background:new 0 0 64 64;" xml:space="preserve">
<path d="M36.632,46.734c0,2.565-2.065,4.632-4.632,4.632c-2.566,0-4.631-2.066-4.631-4.632V36.641H17.262
	c-2.566,0-4.632-2.079-4.632-4.644c0-2.567,2.066-4.632,4.632-4.632h10.106V17.259c0-2.553,2.079-4.633,4.631-4.633
	c2.567,0,4.632,2.08,4.645,4.633l-0.013,10.106h10.105c2.566,0,4.646,2.064,4.646,4.632c0,2.564-2.079,4.644-4.646,4.644H36.645
	L36.632,46.734z M54.488,9.52C42.066-2.902,21.933-2.902,9.511,9.52c-12.409,12.409-12.409,32.543,0,44.966
	c12.422,12.408,32.556,12.423,44.978,0C66.897,42.063,66.897,21.929,54.488,9.52z"/>
</svg>
