<?xml version="1.0" encoding="utf-8"?>
<!-- Generator: Adobe Illustrator 16.0.0, SVG Export Plug-In . SVG Version: 6.00 Build 0)  -->
<!DOCTYPE svg PUBLIC "-//W3C//DTD SVG 1.1//EN" "http://www.w3.org/Graphics/SVG/1.1/DTD/svg11.dtd">
<svg version="1.1" id="Layer_1" xmlns="http://www.w3.org/2000/svg" xmlns:xlink="http://www.w3.org/1999/xlink" x="0px" y="0px"
	 width="64px" height="64px" viewBox="88 18 64 64" style="enable-background:new 88 18 64 64;" xml:space="preserve">
<g>
	<g>
		<g>
			<path style="fill:#FF0000;" d="M150,71.563c0,4.66-3.777,8.438-8.438,8.438H98.438C93.777,80,90,76.223,90,71.563V28.438
				C90,23.777,93.777,20,98.438,20h43.125c4.66,0,8.438,3.777,8.438,8.438V71.563z"/>
		</g>
		<g>
			<path style="opacity:0.5;" d="M141.563,19.999H98.438c-4.66,0-8.438,3.778-8.438,8.438v43.125C90,76.223,93.777,80,98.438,80
				h43.125c4.66,0,8.438-3.777,8.438-8.438V28.438C150,23.777,146.223,19.999,141.563,19.999z M149.399,71.131
				c0,4.567-3.701,8.27-8.269,8.27H98.868c-4.566,0-8.269-3.702-8.269-8.27V28.868c0-4.566,3.702-8.269,8.269-8.269h42.263
				c4.567,0,8.269,3.702,8.269,8.269V71.131z"/>
			<path style="opacity:0.4;" d="M141.131,20.6H98.868c-4.566,0-8.269,3.702-8.269,8.269v42.263c0,4.567,3.702,8.27,8.269,8.27
				h42.263c4.567,0,8.269-3.702,8.269-8.27V28.868C149.399,24.302,145.698,20.6,141.131,20.6z M148.812,70.708
				c0,4.476-3.627,8.104-8.104,8.104H99.291c-4.476,0-8.104-3.629-8.104-8.104V29.291c0-4.476,3.628-8.104,8.104-8.104h41.417
				c4.477,0,8.104,3.628,8.104,8.104V70.708z"/>
			<path style="opacity:0.3;" d="M140.708,21.188H99.291c-4.476,0-8.104,3.628-8.104,8.104v41.417c0,4.476,3.628,8.104,8.104,8.104
				h41.417c4.477,0,8.104-3.629,8.104-8.104V29.291C148.812,24.815,145.185,21.188,140.708,21.188z M148.235,70.294
				c0,4.386-3.555,7.942-7.941,7.942H99.705c-4.386,0-7.941-3.557-7.941-7.942V29.705c0-4.386,3.556-7.941,7.941-7.941h40.589
				c4.387,0,7.941,3.556,7.941,7.941V70.294z"/>
			<path style="opacity:0.2;" d="M140.294,21.764H99.705c-4.386,0-7.941,3.556-7.941,7.941v40.589c0,4.386,3.556,7.942,7.941,7.942
				h40.589c4.387,0,7.941-3.557,7.941-7.942V29.705C148.235,25.319,144.681,21.764,140.294,21.764z M147.671,69.889
				c0,4.297-3.483,7.783-7.783,7.783h-39.776c-4.298,0-7.783-3.486-7.783-7.783V30.11c0-4.298,3.485-7.782,7.783-7.782h39.776
				c4.3,0,7.783,3.484,7.783,7.782V69.889z"/>
			<path style="opacity:0.1;" d="M139.888,22.328h-39.776c-4.298,0-7.783,3.484-7.783,7.782v39.778c0,4.297,3.485,7.783,7.783,7.783
				h39.776c4.3,0,7.783-3.486,7.783-7.783V30.11C147.671,25.813,144.188,22.328,139.888,22.328z M147.117,69.49
				c0,4.211-3.413,7.628-7.627,7.628h-38.981c-4.212,0-7.627-3.417-7.627-7.628V30.509c0-4.212,3.415-7.628,7.627-7.628h38.981
				c4.214,0,7.627,3.416,7.627,7.628V69.49z"/>
		</g>
	</g>
	<radialGradient id="SVGID_1_" cx="120" cy="50" r="30" gradientUnits="userSpaceOnUse">
		<stop  offset="0" style="stop-color:#000000;stop-opacity:0"/>
		<stop  offset="1" style="stop-color:#000000;stop-opacity:0.2"/>
	</radialGradient>
	<path style="opacity:0.6;fill:url(#SVGID_1_);" d="M150,71.563c0,4.66-3.777,8.438-8.438,8.438H98.438
		C93.777,80,90,76.223,90,71.563V28.438C90,23.777,93.777,20,98.438,20h43.125c4.66,0,8.438,3.777,8.438,8.438V71.563z"/>
</g>
<g>
	<g>
		<g style="enable-background:new    ;">
			<path d="M109.186,39.436l-2.52,20.72h-6.56l1.72-14.2l-4.44,0.16l0.56-4.56l7.96-2.12H109.186z"/>
			<path d="M124.985,39.436l-2.521,20.72h-6.56l1.72-14.2l-4.44,0.16l0.56-4.56l7.96-2.12H124.985z"/>
			<path d="M128.104,60.155l0.48-4.24l9.561-7.76c0.239-0.213,0.466-0.434,0.68-0.66c0.213-0.227,0.346-0.5,0.399-0.82
				c0.026-0.213-0.026-0.439-0.159-0.68c-0.134-0.24-0.507-0.386-1.12-0.439c-0.8-0.054-1.574-0.04-2.32,0.04
				c-0.747,0.079-1.427,0.193-2.04,0.34s-1.174,0.307-1.68,0.479c-0.507,0.174-0.92,0.34-1.24,0.5l0.76-6.319
				c0.613-0.267,1.533-0.526,2.76-0.78c1.227-0.253,2.653-0.38,4.28-0.38c1.84,0,3.307,0.174,4.4,0.52
				c1.093,0.347,1.913,0.807,2.46,1.38c0.546,0.574,0.873,1.24,0.979,2c0.106,0.761,0.106,1.567,0,2.42
				c-0.134,1.12-0.453,2.08-0.96,2.881c-0.507,0.8-1.12,1.514-1.84,2.14c-0.72,0.627-1.507,1.193-2.359,1.7
				c-0.854,0.507-1.694,1.026-2.521,1.56h6.92l-0.72,6.12H128.104z"/>
		</g>
		<path d="M143.246,64.271c-0.452,1.908-0.713,2.292-0.654,2.897c0.061,0.641,0.963,0.383,1.097,0.93
			c0.127,0.528-0.544,1.608-1.381,2.458c-0.819,0.87-1.874,1.577-2.408,1.471c-0.552-0.113-0.326-1.025-0.968-1.063
			c-0.605-0.035-0.981,0.236-2.874,0.758c-1.604,0.436-1.027,3.052,0.056,3.129c0,0,3.198,0.502,6.938-3.374
			c0.034-0.034,0.064-0.071,0.101-0.106c0.032-0.032,0.067-0.065,0.101-0.101c3.741-3.878,3.124-7.055,3.124-7.055
			C146.26,63.133,143.626,62.651,143.246,64.271z"/>
		<g style="enable-background:new    ;">
			<path d="M123.359,66.72c-0.096-0.048-0.228-0.098-0.396-0.15c-0.168-0.052-0.349-0.102-0.54-0.149
				c-0.191-0.049-0.383-0.086-0.57-0.114s-0.354-0.042-0.498-0.042c-0.256,0-0.443,0.032-0.564,0.096
				c-0.119,0.064-0.184,0.141-0.191,0.229c-0.016,0.071,0.016,0.13,0.096,0.174s0.221,0.074,0.42,0.09
				c0.448,0.04,0.824,0.102,1.129,0.186c0.304,0.084,0.545,0.198,0.726,0.343c0.181,0.144,0.3,0.326,0.36,0.546
				c0.06,0.22,0.07,0.485,0.029,0.798c-0.031,0.288-0.113,0.563-0.246,0.822c-0.131,0.26-0.317,0.485-0.558,0.678
				c-0.239,0.192-0.536,0.346-0.888,0.462c-0.353,0.116-0.772,0.174-1.26,0.174c-0.168,0-0.358-0.012-0.57-0.036
				c-0.212-0.023-0.42-0.056-0.624-0.096s-0.39-0.082-0.558-0.126s-0.296-0.09-0.384-0.138l0.24-1.933
				c0.12,0.057,0.27,0.114,0.45,0.174c0.18,0.061,0.37,0.114,0.57,0.162c0.2,0.049,0.402,0.087,0.606,0.114
				c0.204,0.028,0.394,0.042,0.569,0.042c0.257,0,0.445-0.032,0.564-0.096c0.12-0.064,0.184-0.14,0.192-0.229
				c0.016-0.071-0.017-0.13-0.097-0.174s-0.22-0.073-0.42-0.09c-0.448-0.04-0.824-0.102-1.127-0.186
				c-0.304-0.084-0.546-0.198-0.726-0.343c-0.18-0.144-0.3-0.325-0.36-0.546c-0.06-0.22-0.07-0.485-0.03-0.798
				c0.04-0.288,0.124-0.562,0.252-0.822c0.128-0.26,0.312-0.485,0.552-0.678c0.24-0.192,0.536-0.346,0.888-0.462
				c0.353-0.116,0.772-0.174,1.261-0.174c0.16,0,0.332,0.01,0.516,0.03c0.184,0.02,0.365,0.046,0.546,0.077
				c0.181,0.032,0.349,0.07,0.504,0.114c0.156,0.044,0.282,0.086,0.378,0.126L123.359,66.72z"/>
			<path d="M130.002,68.934c-0.133,0.396-0.324,0.736-0.576,1.02c-0.252,0.284-0.572,0.507-0.96,0.666
				c-0.388,0.16-0.866,0.24-1.435,0.24c-0.56,0-1.016-0.08-1.367-0.24c-0.353-0.159-0.618-0.382-0.799-0.666
				c-0.18-0.283-0.287-0.624-0.324-1.02c-0.035-0.396-0.025-0.826,0.031-1.29c0.055-0.472,0.151-0.904,0.287-1.296
				c0.137-0.392,0.33-0.73,0.582-1.014c0.252-0.284,0.572-0.506,0.961-0.666c0.387-0.16,0.861-0.24,1.422-0.24
				c0.567,0,1.025,0.08,1.373,0.24c0.349,0.16,0.612,0.382,0.793,0.666c0.18,0.283,0.287,0.622,0.324,1.014
				c0.035,0.392,0.025,0.824-0.031,1.296C130.228,68.107,130.134,68.537,130.002,68.934z M128.4,67.104
				c0-0.176-0.024-0.33-0.072-0.462c-0.049-0.132-0.129-0.238-0.24-0.318c-0.112-0.079-0.271-0.12-0.48-0.12
				c-0.208,0-0.377,0.041-0.51,0.12c-0.132,0.08-0.24,0.187-0.324,0.318s-0.146,0.286-0.186,0.462
				c-0.04,0.176-0.072,0.356-0.096,0.54c-0.024,0.185-0.037,0.364-0.037,0.54s0.025,0.33,0.072,0.462
				c0.049,0.132,0.129,0.238,0.24,0.318c0.112,0.08,0.271,0.12,0.48,0.12c0.207,0,0.378-0.04,0.51-0.12s0.24-0.187,0.324-0.318
				s0.146-0.286,0.186-0.462s0.072-0.355,0.096-0.54C128.388,67.46,128.4,67.279,128.4,67.104z"/>
			<path d="M136.152,66.72c-0.097-0.048-0.229-0.098-0.396-0.15c-0.168-0.052-0.348-0.102-0.54-0.149
				c-0.192-0.049-0.382-0.086-0.57-0.114s-0.354-0.042-0.497-0.042c-0.257,0-0.445,0.032-0.564,0.096
				c-0.12,0.064-0.185,0.141-0.192,0.229c-0.017,0.071,0.017,0.13,0.097,0.174c0.079,0.044,0.219,0.074,0.42,0.09
				c0.447,0.04,0.823,0.102,1.127,0.186c0.305,0.084,0.547,0.198,0.727,0.343c0.18,0.144,0.3,0.326,0.359,0.546
				c0.061,0.22,0.07,0.485,0.031,0.798c-0.033,0.288-0.115,0.563-0.246,0.822c-0.133,0.26-0.318,0.485-0.559,0.678
				s-0.536,0.346-0.888,0.462c-0.353,0.116-0.772,0.174-1.261,0.174c-0.168,0-0.357-0.012-0.569-0.036
				c-0.212-0.023-0.42-0.056-0.624-0.096s-0.391-0.082-0.559-0.126s-0.295-0.09-0.383-0.138l0.239-1.933
				c0.12,0.057,0.271,0.114,0.45,0.174c0.18,0.061,0.369,0.114,0.57,0.162c0.199,0.049,0.401,0.087,0.605,0.114
				c0.204,0.028,0.395,0.042,0.57,0.042c0.256,0,0.443-0.032,0.564-0.096c0.119-0.064,0.184-0.14,0.191-0.229
				c0.016-0.071-0.016-0.13-0.096-0.174s-0.221-0.073-0.42-0.09c-0.449-0.04-0.824-0.102-1.129-0.186
				c-0.304-0.084-0.545-0.198-0.726-0.343c-0.181-0.144-0.3-0.325-0.36-0.546c-0.06-0.22-0.07-0.485-0.029-0.798
				c0.039-0.288,0.123-0.562,0.252-0.822c0.127-0.26,0.312-0.485,0.552-0.678c0.239-0.192,0.536-0.346,0.888-0.462
				s0.771-0.174,1.26-0.174c0.16,0,0.332,0.01,0.517,0.03c0.184,0.02,0.366,0.046,0.546,0.077c0.18,0.032,0.348,0.07,0.504,0.114
				s0.282,0.086,0.378,0.126L136.152,66.72z"/>
		</g>
	</g>
	<circle cx="119.052" cy="74.529" r="0.683"/>
	<circle cx="121.683" cy="73.164" r="0.683"/>
	<circle cx="124.632" cy="72.839" r="0.683"/>
	<circle cx="127.687" cy="73.521" r="0.683"/>
	<circle cx="129.875" cy="74.871" r="0.683"/>
	<circle cx="132.278" cy="75.554" r="0.683"/>
	<circle cx="134.382" cy="74.529" r="0.683"/>
</g>
<g>
	<g>
		<g style="enable-background:new    ;">
			<path style="fill:#FFFFFF;" d="M108.186,38.436l-2.52,20.72h-6.56l1.72-14.2l-4.44,0.16l0.56-4.56l7.96-2.12H108.186z"/>
			<path style="fill:#FFFFFF;" d="M123.985,38.436l-2.521,20.72h-6.56l1.72-14.2l-4.44,0.16l0.56-4.56l7.96-2.12H123.985z"/>
			<path style="fill:#FFFFFF;" d="M127.104,59.155l0.48-4.24l9.561-7.76c0.239-0.213,0.466-0.434,0.68-0.66
				c0.213-0.227,0.346-0.5,0.399-0.82c0.026-0.213-0.026-0.439-0.159-0.68c-0.134-0.24-0.507-0.386-1.12-0.439
				c-0.8-0.054-1.574-0.04-2.32,0.04c-0.747,0.079-1.427,0.193-2.04,0.34s-1.174,0.307-1.68,0.479c-0.507,0.174-0.92,0.34-1.24,0.5
				l0.76-6.319c0.613-0.267,1.533-0.526,2.76-0.78c1.227-0.253,2.653-0.38,4.28-0.38c1.84,0,3.307,0.174,4.4,0.52
				c1.093,0.347,1.913,0.807,2.46,1.38c0.546,0.574,0.873,1.24,0.979,2c0.106,0.761,0.106,1.567,0,2.42
				c-0.134,1.12-0.453,2.08-0.96,2.881c-0.507,0.8-1.12,1.514-1.84,2.14c-0.72,0.627-1.507,1.193-2.359,1.7
				c-0.854,0.507-1.694,1.026-2.521,1.56h6.92l-0.72,6.12H127.104z"/>
		</g>
		<path style="fill:#FFFFFF;" d="M142.246,63.271c-0.452,1.908-0.713,2.292-0.654,2.897c0.061,0.641,0.963,0.383,1.097,0.93
			c0.127,0.528-0.544,1.608-1.381,2.458c-0.819,0.87-1.874,1.577-2.408,1.471c-0.552-0.113-0.326-1.025-0.968-1.063
			c-0.605-0.035-0.981,0.236-2.874,0.758c-1.604,0.436-1.027,3.052,0.056,3.129c0,0,3.198,0.502,6.938-3.374
			c0.034-0.034,0.064-0.071,0.101-0.106c0.032-0.032,0.067-0.065,0.101-0.101c3.741-3.878,3.124-7.055,3.124-7.055
			C145.26,62.133,142.626,61.651,142.246,63.271z"/>
		<g style="enable-background:new    ;">
			<path style="fill:#FFFFFF;" d="M122.359,65.72c-0.096-0.048-0.228-0.098-0.396-0.15c-0.168-0.052-0.349-0.102-0.54-0.149
				c-0.191-0.049-0.383-0.086-0.57-0.114s-0.354-0.042-0.498-0.042c-0.256,0-0.444,0.032-0.564,0.096
				c-0.12,0.064-0.184,0.141-0.192,0.229c-0.016,0.071,0.016,0.13,0.096,0.174c0.08,0.044,0.22,0.074,0.42,0.09
				c0.448,0.04,0.824,0.102,1.128,0.186c0.304,0.084,0.545,0.198,0.726,0.343c0.181,0.144,0.3,0.326,0.36,0.546
				c0.06,0.22,0.07,0.485,0.029,0.798c-0.031,0.288-0.113,0.563-0.246,0.822c-0.131,0.26-0.317,0.485-0.558,0.678
				c-0.239,0.192-0.536,0.346-0.888,0.462c-0.353,0.116-0.772,0.174-1.26,0.174c-0.168,0-0.358-0.012-0.57-0.036
				c-0.212-0.023-0.42-0.056-0.624-0.096s-0.39-0.082-0.558-0.126s-0.296-0.09-0.384-0.138l0.24-1.933
				c0.12,0.057,0.27,0.114,0.45,0.174c0.18,0.061,0.37,0.114,0.57,0.162c0.2,0.049,0.402,0.087,0.606,0.114
				c0.204,0.028,0.394,0.042,0.57,0.042c0.256,0,0.444-0.032,0.564-0.096c0.12-0.064,0.184-0.14,0.192-0.229
				c0.016-0.071-0.016-0.13-0.096-0.174s-0.22-0.073-0.42-0.09c-0.448-0.04-0.824-0.102-1.128-0.186
				c-0.304-0.084-0.546-0.198-0.726-0.343c-0.18-0.144-0.3-0.325-0.36-0.546c-0.06-0.22-0.07-0.485-0.03-0.798
				c0.04-0.288,0.124-0.562,0.252-0.822c0.128-0.26,0.312-0.485,0.552-0.678c0.24-0.192,0.536-0.346,0.888-0.462
				s0.772-0.174,1.261-0.174c0.16,0,0.332,0.01,0.516,0.03c0.184,0.02,0.365,0.046,0.546,0.077c0.181,0.032,0.349,0.07,0.504,0.114
				c0.156,0.044,0.282,0.086,0.378,0.126L122.359,65.72z"/>
			<path style="fill:#FFFFFF;" d="M129.002,67.934c-0.133,0.396-0.324,0.736-0.576,1.02c-0.252,0.284-0.572,0.507-0.96,0.666
				c-0.388,0.16-0.866,0.24-1.435,0.24c-0.56,0-1.016-0.08-1.367-0.24c-0.353-0.159-0.618-0.382-0.799-0.666
				c-0.18-0.283-0.287-0.624-0.324-1.02c-0.035-0.396-0.025-0.826,0.031-1.29c0.055-0.472,0.151-0.904,0.287-1.296
				c0.137-0.392,0.33-0.73,0.582-1.014c0.252-0.284,0.572-0.506,0.961-0.666c0.387-0.16,0.861-0.24,1.422-0.24
				c0.567,0,1.025,0.08,1.373,0.24c0.349,0.16,0.612,0.382,0.793,0.666c0.18,0.283,0.287,0.622,0.324,1.014
				c0.035,0.392,0.025,0.824-0.031,1.296C129.228,67.107,129.134,67.537,129.002,67.934z M127.4,66.104
				c0-0.176-0.024-0.33-0.072-0.462c-0.049-0.132-0.129-0.238-0.24-0.318c-0.112-0.079-0.271-0.12-0.48-0.12
				c-0.208,0-0.377,0.041-0.51,0.12c-0.132,0.08-0.24,0.187-0.324,0.318s-0.146,0.286-0.186,0.462
				c-0.04,0.176-0.072,0.356-0.096,0.54c-0.024,0.185-0.037,0.364-0.037,0.54s0.025,0.33,0.072,0.462
				c0.049,0.132,0.129,0.238,0.24,0.318c0.112,0.08,0.271,0.12,0.48,0.12c0.207,0,0.378-0.04,0.51-0.12s0.24-0.187,0.324-0.318
				s0.146-0.286,0.186-0.462s0.072-0.355,0.096-0.54C127.388,66.46,127.4,66.279,127.4,66.104z"/>
			<path style="fill:#FFFFFF;" d="M135.152,65.72c-0.097-0.048-0.229-0.098-0.396-0.15c-0.168-0.052-0.348-0.102-0.54-0.149
				c-0.192-0.049-0.382-0.086-0.57-0.114s-0.354-0.042-0.497-0.042c-0.257,0-0.445,0.032-0.564,0.096
				c-0.12,0.064-0.185,0.141-0.192,0.229c-0.017,0.071,0.017,0.13,0.097,0.174c0.079,0.044,0.219,0.074,0.42,0.09
				c0.447,0.04,0.823,0.102,1.127,0.186c0.305,0.084,0.547,0.198,0.727,0.343c0.18,0.144,0.3,0.326,0.359,0.546
				c0.061,0.22,0.07,0.485,0.031,0.798c-0.033,0.288-0.115,0.563-0.246,0.822c-0.133,0.26-0.318,0.485-0.559,0.678
				s-0.536,0.346-0.888,0.462c-0.353,0.116-0.772,0.174-1.261,0.174c-0.168,0-0.357-0.012-0.569-0.036
				c-0.212-0.023-0.42-0.056-0.624-0.096s-0.391-0.082-0.559-0.126s-0.295-0.09-0.383-0.138l0.239-1.933
				c0.12,0.057,0.271,0.114,0.45,0.174c0.18,0.061,0.369,0.114,0.57,0.162c0.199,0.049,0.401,0.087,0.605,0.114
				c0.204,0.028,0.395,0.042,0.57,0.042c0.256,0,0.443-0.032,0.564-0.096c0.119-0.064,0.184-0.14,0.191-0.229
				c0.016-0.071-0.016-0.13-0.096-0.174s-0.221-0.073-0.42-0.09c-0.449-0.04-0.824-0.102-1.129-0.186
				c-0.304-0.084-0.545-0.198-0.726-0.343c-0.181-0.144-0.3-0.325-0.36-0.546c-0.06-0.22-0.07-0.485-0.029-0.798
				c0.039-0.288,0.123-0.562,0.252-0.822c0.127-0.26,0.312-0.485,0.552-0.678c0.239-0.192,0.536-0.346,0.888-0.462
				s0.771-0.174,1.26-0.174c0.16,0,0.332,0.01,0.517,0.03c0.184,0.02,0.366,0.046,0.546,0.077c0.18,0.032,0.348,0.07,0.504,0.114
				s0.282,0.086,0.378,0.126L135.152,65.72z"/>
		</g>
	</g>
	<circle style="fill:#FFFD17;" cx="118.052" cy="73.529" r="0.683"/>
	<circle style="fill:#FFFD17;" cx="120.683" cy="72.164" r="0.683"/>
	<circle style="fill:#FFFD17;" cx="123.632" cy="71.839" r="0.683"/>
	<circle style="fill:#FFFD17;" cx="126.687" cy="72.521" r="0.683"/>
	<circle style="fill:#FFFD17;" cx="128.875" cy="73.871" r="0.683"/>
	<circle style="fill:#FFFD17;" cx="131.278" cy="74.554" r="0.683"/>
	<circle style="fill:#FFFD17;" cx="133.382" cy="73.529" r="0.683"/>
</g>
</svg>
