<?xml version="1.0" encoding="UTF-8" standalone="no"?>
<svg width="128px" height="128px" viewBox="0 0 128 128" version="1.1" xmlns="http://www.w3.org/2000/svg" xmlns:xlink="http://www.w3.org/1999/xlink" xmlns:sketch="http://www.bohemiancoding.com/sketch/ns">
    <!-- Generator: Sketch 3.3 (11970) - http://www.bohemiancoding.com/sketch -->
    <title>ico-placila-gotovina</title>
    <desc>Created with Sketch.</desc>
    <defs></defs>
    <g id="Page-1" stroke="none" stroke-width="1" fill="none" fill-rule="evenodd" sketch:type="MSPage">
        <g id="ico-placila-gotovina" sketch:type="MSArtboardGroup">
            <g id="Imported-Layers" sketch:type="MSLayerGroup" transform="translate(4.000000, 30.000000)">
                <path d="M115.304348,14.3532308 L19.6278261,14.3532308 C17.6608696,14.3532308 16.053913,15.9643077 16.053913,17.9363077 L16.053913,60.3787692 C16.053913,62.3455385 17.6608696,63.9566154 19.6278261,63.9566154 L115.304348,63.9566154 C117.266087,63.9566154 118.878261,62.3455385 118.878261,60.3787692 L118.878261,17.9363077 C118.878261,15.9643077 117.266087,14.3532308 115.304348,14.3532308" id="Fill-1" fill="#FFFFFF" sketch:type="MSShapeGroup"></path>
                <path d="M115.304348,16.9267692 C115.982609,16.9267692 116.551304,17.4969231 116.551304,18.1821538 L116.551304,60.6193846 C116.551304,61.2993846 115.982609,61.8747692 115.304348,61.8747692 L19.6278261,61.8747692 C18.9495652,61.8747692 18.3756522,61.2993846 18.3756522,60.6193846 L18.3756522,18.1821538 C18.3756522,17.4969231 18.9495652,16.9267692 19.6278261,16.9267692 L115.304348,16.9267692 M115.304348,14.5938462 L19.6278261,14.5938462 C17.6608696,14.5938462 16.053913,16.2049231 16.053913,18.1821538 L16.053913,60.6193846 C16.053913,62.5861538 17.6608696,64.1972308 19.6278261,64.1972308 L115.304348,64.1972308 C117.266087,64.1972308 118.878261,62.5861538 118.878261,60.6193846 L118.878261,18.1821538 C118.878261,16.2049231 117.266087,14.5938462 115.304348,14.5938462" id="Fill-2" fill="#C1B294" sketch:type="MSShapeGroup"></path>
                <path d="M68.0817391,20.7713846 C57.7304348,20.7713846 49.3095652,29.2138462 49.3095652,39.5812308 C49.3095652,49.9590769 57.7304348,58.4015385 68.0817391,58.4015385 C78.4278261,58.4015385 86.8486957,49.9590769 86.8486957,39.5812308 C86.8486957,29.2138462 78.4278261,20.7713846 68.0817391,20.7713846 L68.0817391,20.7713846 Z M73.6069565,49.7132308 C71.88,50.1578462 70.3095652,50.3984615 68.9113043,50.3984615 C64.5130435,50.3984615 61.8991304,48.1596923 61.1530435,43.4258462 L59.133913,43.4258462 L59.133913,41.0458462 L60.9495652,41.0458462 C60.9182609,40.7686154 60.9182609,40.4495385 60.9182609,40.1513846 C60.9182609,39.7329231 60.9495652,39.3144615 60.9495652,38.9012308 L59.133913,38.9012308 L59.133913,36.516 L61.2156522,36.516 C62.133913,31.3898462 65.1652174,29.3916923 69.2086957,29.3916923 C70.4556522,29.3916923 71.8226087,29.6009231 73.2208696,29.9618462 L73.2208696,32.6766154 C71.8226087,32.3470769 70.5756522,32.1378462 69.4486957,32.1378462 C66.8921739,32.1378462 65.1965217,33.2415385 64.5756522,36.516 L71.253913,36.516 L71.253913,38.9012308 L64.3356522,38.9012308 C64.3043478,39.2255385 64.3043478,39.5236923 64.3043478,39.8166154 C64.3043478,40.2664615 64.3043478,40.6587692 64.3356522,41.0458462 L71.253913,41.0458462 L71.253913,43.4258462 L64.6017391,43.4258462 C65.1965217,46.4649231 66.7721739,47.6261538 69.2973913,47.6261538 C70.5130435,47.6261538 71.9426087,47.3907692 73.6069565,46.9461538 L73.6069565,49.7132308 L73.6069565,49.7132308 Z" id="Fill-3" fill="#C1B294" sketch:type="MSShapeGroup"></path>
                <path d="M20.973913,23.7895385 C18.6469565,23.7895385 16.7530435,21.9012308 16.7530435,19.5630769 C16.7530435,17.2301538 18.6469565,15.3366154 20.973913,15.3366154 C23.3008696,15.3366154 25.1947826,17.2301538 25.1947826,19.5630769 C25.1947826,21.9012308 23.3008696,23.7895385 20.973913,23.7895385" id="Fill-4" fill="#C1B294" sketch:type="MSShapeGroup"></path>
                <path d="M20.8069565,63.6741538 C18.4852174,63.6741538 16.586087,61.7753846 16.586087,59.4372308 C16.586087,57.1043077 18.4852174,55.2055385 20.8069565,55.2055385 C23.1391304,55.2055385 25.0278261,57.1043077 25.0278261,59.4372308 C25.0278261,61.7753846 23.1391304,63.6741538 20.8069565,63.6741538" id="Fill-5" fill="#C1B294" sketch:type="MSShapeGroup"></path>
                <path d="M113.916522,63.6741538 C111.594783,63.6741538 109.70087,61.7753846 109.70087,59.4372308 C109.70087,57.1043077 111.594783,55.2055385 113.916522,55.2055385 C116.248696,55.2055385 118.142609,57.1043077 118.142609,59.4372308 C118.142609,61.7753846 116.248696,63.6741538 113.916522,63.6741538" id="Fill-6" fill="#C1B294" sketch:type="MSShapeGroup"></path>
                <path d="M113.916522,23.7895385 C111.594783,23.7895385 109.70087,21.9012308 109.70087,19.5630769 C109.70087,17.2301538 111.594783,15.3366154 113.916522,15.3366154 C116.248696,15.3366154 118.142609,17.2301538 118.142609,19.5630769 C118.142609,21.9012308 116.248696,23.7895385 113.916522,23.7895385" id="Fill-7" fill="#C1B294" sketch:type="MSShapeGroup"></path>
                <path d="M40.5182609,42.296 C38.7913043,42.296 37.3930435,40.8836923 37.3930435,39.1575385 C37.3930435,37.4261538 38.7913043,36.0190769 40.5182609,36.0190769 C42.24,36.0190769 43.6434783,37.4261538 43.6434783,39.1575385 C43.6434783,40.8836923 42.24,42.296 40.5182609,42.296" id="Fill-8" fill="#C1B294" sketch:type="MSShapeGroup"></path>
                <path d="M94.4817391,42.9446154 C92.76,42.9446154 91.3565217,41.5323077 91.3565217,39.8061538 C91.3565217,38.0695385 92.76,36.6729231 94.4817391,36.6729231 C96.2086957,36.6729231 97.6173913,38.0695385 97.6173913,39.8061538 C97.6173913,41.5323077 96.2086957,42.9446154 94.4817391,42.9446154" id="Fill-9" fill="#C1B294" sketch:type="MSShapeGroup"></path>
                <path d="M102.422609,1.28676923 L6.75130435,1.28676923 C4.78434783,1.28676923 3.17217391,2.89784615 3.17217391,4.86984615 L3.17217391,47.3123077 C3.17217391,49.2790769 4.78434783,50.8953846 6.75130435,50.8953846 L102.422609,50.8953846 C104.384348,50.8953846 105.991304,49.2790769 105.991304,47.3123077 L105.991304,4.86984615 C105.991304,2.89784615 104.384348,1.28676923 102.422609,1.28676923" id="Fill-10" fill="#FFFFFF" sketch:type="MSShapeGroup"></path>
                <path d="M102.422609,3.86030769 C103.10087,3.86030769 103.674783,4.43046154 103.674783,5.11046154 L103.674783,47.5529231 C103.674783,48.2329231 103.10087,48.8083077 102.422609,48.8083077 L6.75130435,48.8083077 C6.07304348,48.8083077 5.49391304,48.2329231 5.49391304,47.5529231 L5.49391304,5.11046154 C5.49391304,4.43046154 6.07304348,3.86030769 6.75130435,3.86030769 L102.422609,3.86030769 M102.422609,1.52738462 L6.75130435,1.52738462 C4.78434783,1.52738462 3.17217391,3.13846154 3.17217391,5.11046154 L3.17217391,47.5529231 C3.17217391,49.5196923 4.78434783,51.1307692 6.75130435,51.1307692 L102.422609,51.1307692 C104.384348,51.1307692 105.991304,49.5196923 105.991304,47.5529231 L105.991304,5.11046154 C105.991304,3.13846154 104.384348,1.52738462 102.422609,1.52738462" id="Fill-11" fill="#C1B294" sketch:type="MSShapeGroup"></path>
                <path d="M55.2,7.70492308 C44.8486957,7.70492308 36.4278261,16.1473846 36.4278261,26.5147692 C36.4278261,36.8926154 44.8486957,45.3350769 55.2,45.3350769 C65.546087,45.3350769 73.9669565,36.8926154 73.9669565,26.5147692 C73.9669565,16.1473846 65.546087,7.70492308 55.2,7.70492308 L55.2,7.70492308 Z M60.7252174,36.6467692 C59.0034783,37.0913846 57.4226087,37.332 56.0295652,37.332 C51.6313043,37.332 49.0173913,35.0932308 48.2713043,30.3593846 L46.2573913,30.3593846 L46.2573913,27.9793846 L48.0678261,27.9793846 C48.0365217,27.7021538 48.0365217,27.3830769 48.0365217,27.0849231 C48.0365217,26.6664615 48.0678261,26.248 48.0678261,25.8295385 L46.2573913,25.8295385 L46.2573913,23.4443077 L48.333913,23.4443077 C49.2521739,18.3233846 52.2886957,16.3252308 56.3269565,16.3252308 C57.573913,16.3252308 58.9408696,16.5344615 60.3391304,16.8901538 L60.3391304,19.6101538 C58.9408696,19.2806154 57.693913,19.0713846 56.5669565,19.0713846 C54.0104348,19.0713846 52.3147826,20.1698462 51.693913,23.4443077 L58.3721739,23.4443077 L58.3721739,25.8295385 L51.453913,25.8295385 C51.4226087,26.1590769 51.4226087,26.4572308 51.4226087,26.7501538 C51.4226087,27.2 51.4226087,27.5870769 51.453913,27.9793846 L58.3721739,27.9793846 L58.3721739,30.3593846 L51.7252174,30.3593846 C52.3147826,33.3984615 53.8904348,34.5544615 56.4156522,34.5544615 C57.6313043,34.5544615 59.0608696,34.3243077 60.7252174,33.8796923 L60.7252174,36.6467692 L60.7252174,36.6467692 Z" id="Fill-12" fill="#C1B294" sketch:type="MSShapeGroup"></path>
                <path d="M8.09217391,10.7230769 C5.77043478,10.7230769 3.87130435,8.82953846 3.87130435,6.49661538 C3.87130435,4.16369231 5.77043478,2.27015385 8.09217391,2.27015385 C10.4191304,2.27015385 12.3130435,4.16369231 12.3130435,6.49661538 C12.3130435,8.82953846 10.4191304,10.7230769 8.09217391,10.7230769" id="Fill-13" fill="#C1B294" sketch:type="MSShapeGroup"></path>
                <path d="M7.93043478,50.6076923 C5.60347826,50.6076923 3.70434783,48.7089231 3.70434783,46.3707692 C3.70434783,44.0378462 5.60347826,42.1390769 7.93043478,42.1390769 C10.2521739,42.1390769 12.1513043,44.0378462 12.1513043,46.3707692 C12.1513043,48.7089231 10.2521739,50.6076923 7.93043478,50.6076923" id="Fill-14" fill="#C1B294" sketch:type="MSShapeGroup"></path>
                <path d="M101.04,50.6076923 C98.7130435,50.6076923 96.8191304,48.7089231 96.8191304,46.3707692 C96.8191304,44.0378462 98.7130435,42.1390769 101.04,42.1390769 C103.366957,42.1390769 105.26087,44.0378462 105.26087,46.3707692 C105.26087,48.7089231 103.366957,50.6076923 101.04,50.6076923" id="Fill-15" fill="#C1B294" sketch:type="MSShapeGroup"></path>
                <path d="M101.04,10.7230769 C98.7130435,10.7230769 96.8191304,8.82953846 96.8191304,6.49661538 C96.8191304,4.16369231 98.7130435,2.27015385 101.04,2.27015385 C103.366957,2.27015385 105.26087,4.16369231 105.26087,6.49661538 C105.26087,8.82953846 103.366957,10.7230769 101.04,10.7230769" id="Fill-16" fill="#C1B294" sketch:type="MSShapeGroup"></path>
                <path d="M27.6365217,29.2295385 C25.9095652,29.2295385 24.5113043,27.8172308 24.5113043,26.0910769 C24.5113043,24.3596923 25.9095652,22.9526154 27.6365217,22.9526154 C29.3582609,22.9526154 30.7617391,24.3596923 30.7617391,26.0910769 C30.7617391,27.8172308 29.3582609,29.2295385 27.6365217,29.2295385" id="Fill-17" fill="#C1B294" sketch:type="MSShapeGroup"></path>
                <path d="M81.6052174,29.8781538 C79.8782609,29.8781538 78.48,28.4658462 78.48,26.7396923 C78.48,25.0030769 79.8782609,23.6064615 81.6052174,23.6064615 C83.3269565,23.6064615 84.7304348,25.0030769 84.7304348,26.7396923 C84.7304348,28.4658462 83.3269565,29.8781538 81.6052174,29.8781538" id="Fill-18" fill="#C1B294" sketch:type="MSShapeGroup"></path>
            </g>
        </g>
    </g>
</svg>