<?xml version="1.0" encoding="utf-8"?>
<!-- Generator: Adobe Illustrator 16.0.0, SVG Export Plug-In . SVG Version: 6.00 Build 0)  -->
<!DOCTYPE svg PUBLIC "-//W3C//DTD SVG 1.0//EN" "http://www.w3.org/TR/2001/REC-SVG-20010904/DTD/svg10.dtd">
<svg version="1.0" id="Layer_1" xmlns="http://www.w3.org/2000/svg" xmlns:xlink="http://www.w3.org/1999/xlink" x="0px" y="0px"
	 width="64px" height="64px" viewBox="0 0 64 64" style="enable-background:new 0 0 64 64;" xml:space="preserve">
<path style="fill:#E78601;" d="M53.646,11.859c-6.268-6.266-15.103-5.21-21.46-0.555c-5.513-4.223-12.466-4.99-19.269-1.218
	c-7.277,4.034-10.277,15.133-5.93,22.25c5.305,8.687,14.582,15.642,21.729,22.792c1.851,1.851,4.948,1.851,6.799,0
	c6.25-6.251,12.949-12.25,18.833-18.843C60.685,28.772,60.721,18.932,53.646,11.859z M32.152,44.962
	c-3.408-3.407-6.817-6.816-10.226-10.228c-1.716-1.715-3.433-3.431-5.148-5.148c-7.152-7.153,4.746-17.701,11.187-9.339
	c2.353,3.053,5.949,3.052,8.303,0c6.331-8.209,17.793,1.521,11.284,9.239C42.73,34.887,37.371,39.895,32.152,44.962z"/>
</svg>
