<?xml version="1.0" encoding="utf-8"?>
<!-- Generator: Adobe Illustrator 16.0.0, SVG Export Plug-In . SVG Version: 6.00 Build 0)  -->
<!DOCTYPE svg PUBLIC "-//W3C//DTD SVG 1.0//EN" "http://www.w3.org/TR/2001/REC-SVG-20010904/DTD/svg10.dtd">
<svg version="1.0" id="Layer_1" xmlns="http://www.w3.org/2000/svg" xmlns:xlink="http://www.w3.org/1999/xlink" x="0px" y="0px"
	 width="64px" height="64px" viewBox="0 0 64 64" style="enable-background:new 0 0 64 64;" xml:space="preserve">
<linearGradient id="SVGID_1_" gradientUnits="userSpaceOnUse" x1="32.0005" y1="47.3242" x2="32.0005" y2="16.6768">
	<stop  offset="0" style="stop-color:#4A4A4A"/>
	<stop  offset="1" style="stop-color:#666666"/>
</linearGradient>
<path style="fill:url(#SVGID_1_);" d="M14.939,47.324h-1.605c-1.435,0-2.605-1.146-2.605-2.539v-1.053
	c0-1.395,1.171-2.539,2.605-2.539h1.605c1.435,0,2.605,1.145,2.605,2.539v1.053C17.545,46.178,16.374,47.324,14.939,47.324z
	 M14.939,35.072h-1.605c-1.435,0-2.605-1.156-2.605-2.552v-1.04c0-1.395,1.171-2.553,2.605-2.553h1.605
	c1.435,0,2.605,1.158,2.605,2.553v1.04C17.545,33.916,16.374,35.072,14.939,35.072z M14.939,22.807h-1.605
	c-1.435,0-2.605-1.144-2.605-2.539v-1.039c0-1.408,1.171-2.553,2.605-2.553h1.605c1.435,0,2.605,1.145,2.605,2.553v1.039
	C17.545,21.664,16.374,22.807,14.939,22.807z M50.666,47.324H23.729c-1.435,0-2.605-1.146-2.605-2.539v-1.053
	c0-1.395,1.171-2.539,2.605-2.539h26.937c1.435,0,2.605,1.145,2.605,2.539v1.053C53.271,46.178,52.101,47.324,50.666,47.324z
	 M50.666,35.072H23.729c-1.435,0-2.605-1.156-2.605-2.552v-1.04c0-1.395,1.171-2.553,2.605-2.553h26.937
	c1.435,0,2.605,1.158,2.605,2.553v1.04C53.271,33.916,52.101,35.072,50.666,35.072z M50.666,22.807H23.729
	c-1.435,0-2.605-1.144-2.605-2.539v-1.039c0-1.408,1.171-2.553,2.605-2.553h26.937c1.435,0,2.605,1.145,2.605,2.553v1.039
	C53.271,21.664,52.101,22.807,50.666,22.807z"/>
</svg>
