<?xml version="1.0" encoding="utf-8"?>
<!-- Generator: Adobe Illustrator 16.0.0, SVG Export Plug-In . SVG Version: 6.00 Build 0)  -->
<!DOCTYPE svg PUBLIC "-//W3C//DTD SVG 1.0//EN" "http://www.w3.org/TR/2001/REC-SVG-20010904/DTD/svg10.dtd">
<svg version="1.0" id="Layer_1" xmlns="http://www.w3.org/2000/svg" xmlns:xlink="http://www.w3.org/1999/xlink" x="0px" y="0px"
	 width="64px" height="64px" viewBox="0 0 64 64" style="enable-background:new 0 0 64 64;" xml:space="preserve">
<g>
	<linearGradient id="SVGID_1_" gradientUnits="userSpaceOnUse" x1="26.103" y1="52.168" x2="26.103" y2="11.1099">
		<stop  offset="0" style="stop-color:#3F3F3F"/>
		<stop  offset="1" style="stop-color:#747474"/>
	</linearGradient>
	<path style="fill:url(#SVGID_1_);" d="M29.333,42.75h-2.158v-2.105c0-0.395-0.316-0.711-0.711-0.711h-0.724
		c-0.395,0-0.723,0.316-0.723,0.711v2.105h-2.145c-0.395,0-0.724,0.328-0.724,0.725v0.711c0,0.395,0.329,0.723,0.724,0.723h2.145
		v2.197c0,0.395,0.329,0.725,0.723,0.725h0.724c0.395,0,0.711-0.33,0.711-0.725v-2.197h2.158c0.395,0,0.724-0.328,0.724-0.723
		v-0.711C30.058,43.078,29.729,42.75,29.333,42.75z"/>
	<linearGradient id="SVGID_2_" gradientUnits="userSpaceOnUse" x1="45.1523" y1="52.168" x2="45.1523" y2="11.1099">
		<stop  offset="0" style="stop-color:#3F3F3F"/>
		<stop  offset="1" style="stop-color:#747474"/>
	</linearGradient>
	<path style="fill:url(#SVGID_2_);" d="M45.06,19.668l11.844-5.118c0.013-0.013,0.013-0.093,0.026-0.093
		c-0.264-0.171-0.605-0.275-0.962-0.275H34.4c-0.396,0-0.737,0.118-1.026,0.315l10.737,5.171
		C44.362,19.788,44.797,19.788,45.06,19.668z"/>
	<linearGradient id="SVGID_3_" gradientUnits="userSpaceOnUse" x1="12.7251" y1="52.168" x2="12.7251" y2="11.1098">
		<stop  offset="0" style="stop-color:#3F3F3F"/>
		<stop  offset="1" style="stop-color:#747474"/>
	</linearGradient>
	<path style="fill:url(#SVGID_3_);" d="M13.424,13.603c0,0-6.645,4.382-7.106,17.751c0,0.132,0,0.236,0,0.369
		c-0.013,0.119-0.013,0.237-0.026,0.355c-0.46,13.382,5.869,18.224,5.869,18.224c1.987,1.805,7.566-1.684,5.606-5.303
		c-2.303-4.277-2.461-5.422-3.553-6.447c-1.158-1.08-2.382,0.895-3.513,0.105c-1.105-0.764-1.658-3.869-1.514-6.842
		c0.066-2.961,0.83-6.027,1.975-6.713c1.184-0.709,2.276,1.356,3.513,0.356c1.158-0.935,1.381-2.065,3.987-6.172
		C20.859,15.814,15.53,11.932,13.424,13.603z"/>
	<linearGradient id="SVGID_4_" gradientUnits="userSpaceOnUse" x1="26.103" y1="52.168" x2="26.103" y2="11.1099">
		<stop  offset="0" style="stop-color:#3F3F3F"/>
		<stop  offset="1" style="stop-color:#747474"/>
	</linearGradient>
	<path style="fill:url(#SVGID_4_);" d="M29.333,18.998h-2.158v-2.105c0-0.394-0.316-0.711-0.711-0.711h-0.724
		c-0.395,0-0.723,0.317-0.723,0.711v2.105h-2.145c-0.395,0-0.724,0.33-0.724,0.724v0.711c0,0.407,0.329,0.724,0.724,0.724h2.145
		v2.197c0,0.408,0.329,0.725,0.723,0.725h0.724c0.395,0,0.711-0.316,0.711-0.725v-2.197h2.158c0.395,0,0.724-0.316,0.724-0.724
		v-0.711C30.058,19.328,29.729,18.998,29.333,18.998z"/>
	<linearGradient id="SVGID_5_" gradientUnits="userSpaceOnUse" x1="42.9551" y1="52.168" x2="42.9551" y2="11.1099">
		<stop  offset="0" style="stop-color:#3F3F3F"/>
		<stop  offset="1" style="stop-color:#747474"/>
	</linearGradient>
	<path style="fill:url(#SVGID_5_);" d="M45.257,42.58v-3.633c0-0.381,0.354-0.711,0.789-0.723l2.514-0.066
		c0.435-0.014,0.553-0.264,0.276-0.553l-5.29-5.396c-0.289-0.289-0.763-0.289-1.053,0l-5.408,5.396
		c-0.29,0.289-0.171,0.525,0.263,0.525h2.237c0.435,0,0.79,0.316,0.803,0.711l-0.013,3.738c0,0.395,0.368,0.709,0.803,0.709h3.29
		C44.902,43.289,45.257,42.975,45.257,42.58z"/>
	<linearGradient id="SVGID_6_" gradientUnits="userSpaceOnUse" x1="45.375" y1="52.168" x2="45.375" y2="11.1098">
		<stop  offset="0" style="stop-color:#3F3F3F"/>
		<stop  offset="1" style="stop-color:#747474"/>
	</linearGradient>
	<path style="fill:url(#SVGID_6_);" d="M44.704,21.274c-0.066,0-0.185,0-0.264,0c-0.065-0.013-0.078-0.223-0.341-0.329L33.019,15.84
		v8.5c0,0.725,0.816,1.697,1.697,1.697l21.411,0.026c0.881,0,1.605-0.591,1.605-1.316v-9.001l-12.305,5.265
		C45.165,21.118,44.783,21.261,44.704,21.274z"/>
	<linearGradient id="SVGID_7_" gradientUnits="userSpaceOnUse" x1="49.7461" y1="52.168" x2="49.7461" y2="11.1099">
		<stop  offset="0" style="stop-color:#3F3F3F"/>
		<stop  offset="1" style="stop-color:#747474"/>
	</linearGradient>
	<path style="fill:url(#SVGID_7_);" d="M55.351,44.646l-2.501-0.08c-0.435-0.014-0.803-0.342-0.789-0.725l-0.014-3.631
		c0.014-0.395-0.355-0.697-0.789-0.697h-3.29c-0.435,0-0.789,0.303-0.789,0.697v3.75c0,0.381-0.356,0.697-0.803,0.697h-2.238
		c-0.434,0-0.552,0.236-0.263,0.527l5.409,5.395c0.289,0.289,0.763,0.289,1.052,0l5.291-5.395
		C55.902,44.895,55.784,44.646,55.351,44.646z"/>
</g>
</svg>
