<?xml version="1.0" encoding="utf-8"?>
<!-- Generator: Adobe Illustrator 16.0.0, SVG Export Plug-In . SVG Version: 6.00 Build 0)  -->
<!DOCTYPE svg PUBLIC "-//W3C//DTD SVG 1.0//EN" "http://www.w3.org/TR/2001/REC-SVG-20010904/DTD/svg10.dtd">
<svg version="1.0" id="Layer_1" xmlns="http://www.w3.org/2000/svg" xmlns:xlink="http://www.w3.org/1999/xlink" x="0px" y="0px"
	 width="64px" height="64px" viewBox="0 0 64 64" style="enable-background:new 0 0 64 64;" xml:space="preserve">
<linearGradient id="SVGID_1_" gradientUnits="userSpaceOnUse" x1="32.0005" y1="100.1201" x2="32.0005" y2="-7.98">
	<stop  offset="0" style="stop-color:#3F3F3F"/>
	<stop  offset="1" style="stop-color:#747474"/>
</linearGradient>
<path style="fill:url(#SVGID_1_);" d="M50.904,16.417c-0.063-0.062-0.129-0.111-0.201-0.155C45.816,11.65,39.234,8.813,32,8.813
	c-0.292,0-0.581,0.014-0.872,0.022c-0.071-0.015-0.145-0.022-0.219-0.022c-0.09,0-0.176,0.014-0.26,0.035
	c-7.105,0.348-13.5,3.429-18.164,8.21c-0.056,0.037-0.11,0.081-0.16,0.13c-0.062,0.062-0.111,0.129-0.155,0.2
	c-4.613,4.888-7.449,11.469-7.449,18.704c0,0.295,0.011,0.592,0.021,0.885c-0.014,0.068-0.021,0.137-0.021,0.205
	c0,0.092,0.014,0.178,0.035,0.26c0.314,6.416,2.862,12.486,7.257,17.215c0.286,0.342,0.66,0.531,1.074,0.531
	c0.162,0,0.326-0.031,0.484-0.096l6.183-2.547c0.65-0.268,0.96-1.012,0.693-1.662c-0.269-0.65-1.011-0.959-1.663-0.693l-5.726,2.223
	C9.565,48.393,7.458,44,7.001,38h3.903c0.603,0,1.091-0.396,1.091-1c0-0.602-0.488-1-1.091-1h-4c0-6,2.362-12.072,6.243-16.493
	l2.779,2.803c0.213,0.213,0.492,0.33,0.771,0.33c0.279,0,0.558-0.1,0.771-0.313c0.426-0.427,0.426-1.115,0-1.541l-2.721-2.808
	C18.765,14.13,24,11.604,30,11.096v3.9c0,0.603,0.397,1.091,1,1.091s1-0.488,1-1.091v-4.001c6,0,12.117,2.361,16.539,6.243
	l-2.78,2.779c-0.426,0.425-0.425,1.116,0,1.542c0.214,0.213,0.493,0.32,0.772,0.32s0.558-0.107,0.772-0.32l2.812-2.811
	C54.199,23.014,56.799,29,57.068,35h-3.973c-0.604,0-1.092,0.398-1.092,1c0,0.604,0.488,1,1.092,1h3.975
	c-0.244,6-2.395,11.162-6.129,15.457l-5.727-2.311c-0.65-0.27-1.395,0.063-1.662,0.713s0.043,1.406,0.693,1.674l6.184,2.553
	c0.158,0.064,0.322,0.099,0.484,0.099c0.412,0,0.736-0.237,1.047-0.554c4.701-5.059,7.318-11.627,7.318-18.539
	c0-7.642-3.164-14.557-8.244-19.513C50.996,16.522,50.953,16.467,50.904,16.417z"/>
<linearGradient id="SVGID_2_" gradientUnits="userSpaceOnUse" x1="32.0005" y1="100.1201" x2="32.0005" y2="-7.9803">
	<stop  offset="0" style="stop-color:#3F3F3F"/>
	<stop  offset="1" style="stop-color:#747474"/>
</linearGradient>
<path style="fill:url(#SVGID_2_);" d="M38.273,48H25.727C25.325,48,25,48.139,25,48.539v2.547C25,51.488,25.325,52,25.727,52h12.547
	C38.675,52,39,51.488,39,51.086v-2.547C39,48.139,38.675,48,38.273,48z"/>
<linearGradient id="SVGID_3_" gradientUnits="userSpaceOnUse" x1="36.9219" y1="100.1201" x2="36.9219" y2="-7.9802">
	<stop  offset="0" style="stop-color:#3F3F3F"/>
	<stop  offset="1" style="stop-color:#747474"/>
</linearGradient>
<path style="fill:url(#SVGID_3_);" d="M31.818,31.423c-2.578,0-4.667,2.09-4.667,4.668s2.089,4.668,4.667,4.668
	c0.994,0,1.913-0.313,2.67-0.842l10.887,5.455c0.453,0.227,0.924,0.268,1.166,0.072c0.314-0.254,0.125-0.811-0.422-1.242
	l-9.658-7.637c0.018-0.156,0.025-0.314,0.025-0.475C36.486,33.514,34.396,31.423,31.818,31.423z"/>
</svg>
