<?xml version="1.0" encoding="utf-8"?>
<!-- Generator: Adobe Illustrator 16.0.0, SVG Export Plug-In . SVG Version: 6.00 Build 0)  -->
<!DOCTYPE svg PUBLIC "-//W3C//DTD SVG 1.0//EN" "http://www.w3.org/TR/2001/REC-SVG-20010904/DTD/svg10.dtd">
<svg version="1.0" id="Layer_1" xmlns="http://www.w3.org/2000/svg" xmlns:xlink="http://www.w3.org/1999/xlink" x="0px" y="0px"
	 width="64px" height="64px" viewBox="0 0 64 64" style="enable-background:new 0 0 64 64;" xml:space="preserve">
<path style="fill:#9299A9;" d="M37.822,23.763l-4.986,7.501l-0.422,0.631l-4.987,7.487l1.276,0.816l-3.566,1.277l-0.25-3.726
	l1.276,0.816l4.988-7.5l0.42-0.618l4.989-7.502l-1.277-0.816l3.566-1.275l0.25,3.725L37.822,23.763z M41.047,18.815H22.953v24.87
	h18.094V18.815z M34.48,14.379H29.52c-0.46,0-0.829,0.37-0.829,0.83s0.369,0.815,0.829,0.815h4.961c0.461,0,0.83-0.355,0.83-0.815
	S34.941,14.379,34.48,14.379z M31.994,49.753c1.223,0,2.211-0.988,2.211-2.198c0-1.211-0.988-2.197-2.211-2.197
	c-1.211,0-2.198,0.986-2.198,2.197C29.796,48.765,30.783,49.753,31.994,49.753z M39.98,51.791H24.019
	c-1.592,0-2.908-1.303-2.908-2.895V15.104c0-1.593,1.315-2.896,2.908-2.896H39.98c1.594,0,2.908,1.303,2.908,2.896v33.792
	C42.889,50.488,41.574,51.791,39.98,51.791z"/>
</svg>
