<?xml version="1.0" encoding="utf-8"?>
<!-- Generator: Adobe Illustrator 16.0.0, SVG Export Plug-In . SVG Version: 6.00 Build 0)  -->
<!DOCTYPE svg PUBLIC "-//W3C//DTD SVG 1.0//EN" "http://www.w3.org/TR/2001/REC-SVG-20010904/DTD/svg10.dtd">
<svg version="1.0" id="Layer_1" xmlns="http://www.w3.org/2000/svg" xmlns:xlink="http://www.w3.org/1999/xlink" x="0px" y="0px"
	 width="64px" height="64px" viewBox="0 0 64 64" style="enable-background:new 0 0 64 64;" xml:space="preserve">
<g>
	<linearGradient id="SVGID_1_" gradientUnits="userSpaceOnUse" x1="32.0005" y1="59.6367" x2="32.0005" y2="4.3638">
		<stop  offset="0" style="stop-color:#E78601"/>
		<stop  offset="1" style="stop-color:#D27A02"/>
	</linearGradient>
	<path style="fill:url(#SVGID_1_);" d="M32,4.363C14.327,4.363,0,15.6,0,29.457c0,5.735,2.485,11.006,6.616,15.236L5.092,59.637
		l14.63-7.011c3.783,1.233,7.929,1.921,12.278,1.921c17.676,0,32-11.236,32-25.09C64,15.6,49.676,4.363,32,4.363z"/>
	<path style="fill:#FFFFFF;" d="M29.127,39.653c-0.284,0-1.42-0.993-1.669-1.597c0.746-3.477,1.704-8.089,2.271-10.785l-2.767-0.07
		c0-0.994,0-1.952,0.036-2.91c2.695-0.319,6.279-0.958,6.918-0.958c0.283,0,1.348,0.923,1.668,1.454
		c-0.639,2.981-2.199,10.077-2.484,11.39c-0.035,0.143-0.035,0.284,0.107,0.284c0.354,0,1.277-0.142,2.271-0.355
		c0.071,0.924,0.178,1.845,0.247,2.769C34.129,39.335,32.176,39.653,29.127,39.653z M33.916,21.274
		c-1.844,0-2.981-1.454-2.981-2.872c0-1.598,1.384-2.946,3.229-2.946c2.129,0,2.875,1.455,2.875,2.662
		C37.039,20.104,35.549,21.274,33.916,21.274z"/>
</g>
</svg>
