<?xml version="1.0" encoding="utf-8"?>
<!-- Generator: Adobe Illustrator 16.0.0, SVG Export Plug-In . SVG Version: 6.00 Build 0)  -->
<!DOCTYPE svg PUBLIC "-//W3C//DTD SVG 1.0//EN" "http://www.w3.org/TR/2001/REC-SVG-20010904/DTD/svg10.dtd">
<svg version="1.0" id="Layer_1" xmlns="http://www.w3.org/2000/svg" xmlns:xlink="http://www.w3.org/1999/xlink" x="0px" y="0px"
	 width="64px" height="64px" viewBox="0 0 64 64" style="enable-background:new 0 0 64 64;" xml:space="preserve">
<g>
	<path style="fill:#1E7043;" d="M36.031,16.707c0,0.758,0,1.515,0,2.273c1.997,0,3.995,0,5.993,0c0,1.377,0,2.756,0,4.134
		c-1.998,0-3.996,0-5.993,0c0,0.413,0,0.826,0,1.239c1.997,0,3.995,0,5.993,0c0,1.377,0,2.756,0,4.134c-1.998,0-3.996,0-5.993,0
		c0,0.413,0,0.826,0,1.239c1.997,0,3.995,0,5.993,0c0,1.379,0,2.758,0,4.133c-1.998,0-3.996,0-5.993,0c0,0.414,0,0.828,0,1.24
		c1.997,0,3.995,0,5.993,0c0,1.377,0,2.756,0,4.135c-1.998,0-3.996,0-5.993,0c0,0.412,0,0.824,0,1.238c1.997,0,3.995,0,5.993,0
		c0,1.377,0,2.756,0,4.135c-1.998,0-3.996,0-5.993,0c0,0.895,0,1.791,0,2.688c5.51,0,11.021,0,16.532,0
		c0.069-10.127,0.139-20.256,0.206-30.381C47.191,16.845,41.609,16.775,36.031,16.707z M50.085,44.607c-2.274,0-4.548,0-6.82,0
		c0-1.379,0-2.758,0-4.135c2.272,0,4.546,0,6.82,0C50.085,41.85,50.085,43.229,50.085,44.607z M50.085,39.234
		c-2.274,0-4.548,0-6.82,0c0-1.379,0-2.758,0-4.135c2.272,0,4.546,0,6.82,0C50.085,36.477,50.085,37.855,50.085,39.234z
		 M50.085,33.859c-2.274,0-4.548,0-6.82,0c0-1.375,0-2.754,0-4.133c2.272,0,4.546,0,6.82,0
		C50.085,31.105,50.085,32.484,50.085,33.859z M50.085,28.487c-2.274,0-4.548,0-6.82,0c0-1.378,0-2.757,0-4.134
		c2.272,0,4.546,0,6.82,0C50.085,25.73,50.085,27.109,50.085,28.487z M50.085,23.114c-2.274,0-4.548,0-6.82,0
		c0-1.378,0-2.757,0-4.134c2.272,0,4.546,0,6.82,0C50.085,20.357,50.085,21.736,50.085,23.114z"/>
	<path style="fill:#1E7043;" d="M11.23,47.912c7.921,1.309,15.845,2.619,23.767,3.928c0-13.227,0-26.454,0-39.68
		c-7.922,1.309-15.846,2.618-23.767,3.927C11.23,26.694,11.23,37.307,11.23,47.912z M18.545,25.242l2.645-0.278
		c0,0,1.603,4.15,1.855,4.896h0.031c0.252-0.847,1.885-5.311,1.885-5.311l2.919-0.259l-3.431,7.417l3.521,7.587l-2.92-0.25
		c0,0-1.833-4.568-2.133-5.334h-0.031c-0.221,0.766-1.791,5.004-1.791,5.004l-2.66-0.229l3.078-6.702L18.545,25.242z"/>
</g>
</svg>
