<?xml version="1.0" encoding="utf-8"?>
<!-- Generator: Adobe Illustrator 16.0.0, SVG Export Plug-In . SVG Version: 6.00 Build 0)  -->
<!DOCTYPE svg PUBLIC "-//W3C//DTD SVG 1.0//EN" "http://www.w3.org/TR/2001/REC-SVG-20010904/DTD/svg10.dtd">
<svg version="1.0" id="Layer_1" xmlns="http://www.w3.org/2000/svg" xmlns:xlink="http://www.w3.org/1999/xlink" x="0px" y="0px"
	 width="64px" height="64px" viewBox="0 0 64 64" style="enable-background:new 0 0 64 64;" xml:space="preserve">
<g>
	<path style="fill:#231F20;" d="M29.333,42.754h-2.158V40.65c0-0.396-0.316-0.711-0.711-0.711h-0.724
		c-0.395,0-0.723,0.314-0.723,0.711v2.104h-2.145c-0.395,0-0.724,0.316-0.724,0.725v0.709c0,0.396,0.329,0.725,0.724,0.725h2.145
		v2.199c0,0.395,0.329,0.723,0.723,0.723h0.724c0.395,0,0.711-0.328,0.711-0.723v-2.199h2.158c0.395,0,0.725-0.328,0.725-0.725
		v-0.709C30.058,43.07,29.728,42.754,29.333,42.754z"/>
	<path style="fill:#231F20;" d="M29.333,19.002h-2.158v-2.105c0-0.396-0.316-0.71-0.711-0.71h-0.724
		c-0.395,0-0.723,0.314-0.723,0.71v2.105h-2.145c-0.395,0-0.724,0.33-0.724,0.724v0.711c0,0.395,0.329,0.725,0.724,0.725h2.145
		v2.196c0,0.395,0.329,0.724,0.723,0.724h0.724c0.395,0,0.711-0.329,0.711-0.724v-2.196h2.158c0.395,0,0.725-0.33,0.725-0.725
		v-0.711C30.058,19.332,29.728,19.002,29.333,19.002z"/>
	<path style="fill:#231F20;" d="M13.424,13.595c0,0-6.645,4.395-7.106,17.764c0,0.118,0,0.237,0,0.369
		c-0.013,0.118-0.013,0.237-0.026,0.355c-0.46,13.368,5.869,18.212,5.869,18.212c1.987,1.816,7.566-1.672,5.606-5.303
		c-2.303-4.277-2.461-5.424-3.553-6.436c-1.158-1.078-2.382,0.895-3.513,0.105c-1.105-0.764-1.658-3.883-1.514-6.843
		c0.066-2.961,0.83-6.026,1.975-6.711c1.184-0.712,2.276,1.355,3.513,0.354c1.158-0.934,1.381-2.064,3.987-6.172
		C20.859,15.817,15.53,11.936,13.424,13.595z"/>
	<path style="fill:#231F20;" d="M45.06,19.674l11.844-5.119c0.013-0.015,0.013-0.093,0.026-0.093
		c-0.264-0.171-0.605-0.275-0.962-0.275H34.4c-0.395,0-0.736,0.119-1.026,0.316l10.737,5.171
		C44.362,19.792,44.797,19.792,45.06,19.674z"/>
	<path style="fill:#231F20;" d="M45.428,21.002c-0.263,0.118-0.645,0.263-0.724,0.276c-0.066,0-0.185,0-0.264,0
		c-0.065-0.014-0.078-0.223-0.341-0.341l-11.081-5.094v8.5c0,0.724,0.816,1.698,1.698,1.698l21.41,0.026
		c0.881,0,1.605-0.593,1.605-1.316v-9L45.428,21.002z"/>
	<path style="fill:#231F20;" d="M45.257,42.582v-3.631c0-0.381,0.354-0.711,0.789-0.725l2.514-0.064
		c0.435-0.014,0.553-0.264,0.276-0.555l-5.29-5.394c-0.289-0.289-0.763-0.289-1.053,0l-5.408,5.394
		c-0.29,0.291-0.171,0.527,0.263,0.527h2.237c0.435,0,0.79,0.316,0.803,0.699l-0.013,3.748c0,0.396,0.368,0.699,0.803,0.711h3.29
		C44.902,43.281,45.257,42.979,45.257,42.582z"/>
	<path style="fill:#231F20;" d="M55.351,44.635L52.85,44.57c-0.435-0.014-0.803-0.342-0.789-0.725l-0.014-3.631
		c0.014-0.383-0.355-0.711-0.789-0.711h-3.29c-0.435,0-0.789,0.328-0.789,0.711v3.75c0,0.381-0.356,0.697-0.803,0.697h-2.238
		c-0.434,0-0.552,0.236-0.263,0.525l5.409,5.396c0.289,0.289,0.763,0.289,1.052,0l5.291-5.396
		C55.902,44.898,55.784,44.648,55.351,44.635z"/>
</g>
</svg>
