<?xml version="1.0" encoding="utf-8"?>
<!-- Generator: Adobe Illustrator 16.0.0, SVG Export Plug-In . SVG Version: 6.00 Build 0)  -->
<!DOCTYPE svg PUBLIC "-//W3C//DTD SVG 1.0//EN" "http://www.w3.org/TR/2001/REC-SVG-20010904/DTD/svg10.dtd">
<svg version="1.0" id="Layer_1" xmlns="http://www.w3.org/2000/svg" xmlns:xlink="http://www.w3.org/1999/xlink" x="0px" y="0px"
	 width="64px" height="64px" viewBox="0 0 64 64" style="enable-background:new 0 0 64 64;" xml:space="preserve">
<g>
	<g>
		<path style="fill:none;" d="M50.914,41.952v0.531C50.914,42.483,50.921,42.275,50.914,41.952z"/>
		<linearGradient id="SVGID_1_" gradientUnits="userSpaceOnUse" x1="37.8457" y1="15.9941" x2="37.8457" y2="42.4834">
			<stop  offset="0" style="stop-color:#E78601"/>
			<stop  offset="1" style="stop-color:#D27A02"/>
		</linearGradient>
		<path style="fill:url(#SVGID_1_);" d="M33.221,27.625c0.261,0.13,0.787,0.884,0.787,0.884c0.524,4.163,3.832,4.003,3.838,4.003
			c0.005,0,3.314,0.16,3.838-4.003c0,0,0.525-0.754,0.786-0.884c0.263-0.133,0.362-0.066,0.362-1.608
			c0-1.541-0.065-4.037-0.065-4.037s-0.526-3.312-4.921-3.312c-4.396,0-4.922,3.312-4.922,3.312s-0.064,2.496-0.064,4.037
			C32.859,27.559,32.956,27.492,33.221,27.625z"/>
		<linearGradient id="SVGID_2_" gradientUnits="userSpaceOnUse" x1="37.8174" y1="15.9961" x2="37.8174" y2="42.4839">
			<stop  offset="0" style="stop-color:#E78601"/>
			<stop  offset="1" style="stop-color:#D27A02"/>
		</linearGradient>
		<path style="fill:url(#SVGID_2_);" d="M49.122,37.218c-1.964-0.836-6.44-2.213-6.44-2.213s-1.083-0.36-1.429-1.329
			c-0.194-0.547-1.214,0.15-1.214,0.15c-2.523,1.863-4.457,0-4.457,0s-1.005-0.692-1.196-0.15c-0.346,0.969-1.428,1.329-1.428,1.329
			s-4.479,1.377-6.44,2.213c-1.962,0.838-1.794,5.266-1.794,5.266h13.085h0.021h13.085v-0.531
			C50.889,40.755,50.667,37.878,49.122,37.218z"/>
	</g>
	<g>
		<linearGradient id="SVGID_3_" gradientUnits="userSpaceOnUse" x1="10.1348" y1="58.4893" x2="10.1348" y2="3.1612">
			<stop  offset="0" style="stop-color:#3F3F3F"/>
			<stop  offset="1" style="stop-color:#747474"/>
		</linearGradient>
		<path style="fill:url(#SVGID_3_);" d="M6.539,17.965c0,1.147,0.885,2.083,2.009,2.181h3.173c1.124-0.098,2.01-1.033,2.01-2.181
			c0-1.154-0.886-2.087-2.01-2.188H8.548C7.424,15.878,6.539,16.811,6.539,17.965z"/>
		<linearGradient id="SVGID_4_" gradientUnits="userSpaceOnUse" x1="10.5483" y1="58.4883" x2="10.5483" y2="3.1601">
			<stop  offset="0" style="stop-color:#3F3F3F"/>
			<stop  offset="1" style="stop-color:#747474"/>
		</linearGradient>
		<path style="fill:url(#SVGID_4_);" d="M6.953,46.292c0,1.148,0.885,2.084,2.009,2.182h3.173c1.123-0.098,2.009-1.033,2.009-2.182
			c0-1.154-0.886-2.087-2.009-2.188H8.962C7.838,44.205,6.953,45.138,6.953,46.292z"/>
		<linearGradient id="SVGID_5_" gradientUnits="userSpaceOnUse" x1="10.5483" y1="58.4854" x2="10.5483" y2="3.1634">
			<stop  offset="0" style="stop-color:#3F3F3F"/>
			<stop  offset="1" style="stop-color:#747474"/>
		</linearGradient>
		<path style="fill:url(#SVGID_5_);" d="M6.953,31.944c0,1.148,0.885,2.084,2.009,2.182h3.173c1.123-0.098,2.009-1.033,2.009-2.182
			c0-1.154-0.886-2.087-2.009-2.188H8.962C7.838,29.857,6.953,30.79,6.953,31.944z"/>
		<linearGradient id="SVGID_6_" gradientUnits="userSpaceOnUse" x1="33.3809" y1="58.4883" x2="33.3809" y2="3.1606">
			<stop  offset="0" style="stop-color:#3F3F3F"/>
			<stop  offset="1" style="stop-color:#747474"/>
		</linearGradient>
		<path style="fill:url(#SVGID_6_);" d="M57.461,54.877V9.123c0-1.982-1.627-3.611-3.61-3.611H12.91
			c-1.982,0-3.609,1.629-3.609,3.611v4.4h4.969c2.409,0,4.363,1.952,4.363,4.363c0,2.408-1.954,4.363-4.363,4.363H9.301v5.3h4.832
			c2.408,0,4.362,1.951,4.362,4.362c0,2.409-1.954,4.363-4.362,4.363H9.301v5.476h4.969c2.409,0,4.363,1.954,4.363,4.362
			c0,2.412-1.954,4.363-4.363,4.363H9.301v4.4c0,1.983,1.627,3.611,3.609,3.611h40.94C55.834,58.488,57.461,56.86,57.461,54.877z
			 M52.945,53.521H22.246V10.479h30.699V53.521z"/>
	</g>
</g>
</svg>
