<?xml version="1.0" encoding="utf-8"?>
<!-- Generator: Adobe Illustrator 16.0.0, SVG Export Plug-In . SVG Version: 6.00 Build 0)  -->
<!DOCTYPE svg PUBLIC "-//W3C//DTD SVG 1.0//EN" "http://www.w3.org/TR/2001/REC-SVG-20010904/DTD/svg10.dtd">
<svg version="1.0" id="Layer_1" xmlns="http://www.w3.org/2000/svg" xmlns:xlink="http://www.w3.org/1999/xlink" x="0px" y="0px"
	 width="64px" height="64px" viewBox="0 0 64 64" style="enable-background:new 0 0 64 64;" xml:space="preserve">
<path style="fill:#C0B193;" d="M41.376,36.047H29.77V21.386c0-1.276,1.026-2.303,2.289-2.303c1.277,0,2.304,1.026,2.304,2.303
	v10.067h7.014c1.264,0,2.29,1.027,2.29,2.291C43.666,35.02,42.64,36.047,41.376,36.047z M32.007,16.214
	c-8.698,0-15.792,7.081-15.792,15.78c0,8.711,7.093,15.791,15.792,15.791c8.697,0,15.777-7.08,15.777-15.791
	C47.784,23.295,40.704,16.214,32.007,16.214z M32.007,55.26c-12.831,0-23.266-10.436-23.266-23.266
	c0-12.817,10.435-23.254,23.266-23.254c12.816,0,23.252,10.437,23.252,23.254C55.259,44.824,44.823,55.26,32.007,55.26z"/>
</svg>
