<?xml version="1.0" encoding="utf-8"?>
<!-- Generator: Adobe Illustrator 16.0.0, SVG Export Plug-In . SVG Version: 6.00 Build 0)  -->
<!DOCTYPE svg PUBLIC "-//W3C//DTD SVG 1.0//EN" "http://www.w3.org/TR/2001/REC-SVG-20010904/DTD/svg10.dtd">
<svg version="1.0" id="Layer_1" xmlns="http://www.w3.org/2000/svg" xmlns:xlink="http://www.w3.org/1999/xlink" x="0px" y="0px"
	 width="64px" height="64px" viewBox="0 0 64 64" style="enable-background:new 0 0 64 64;" xml:space="preserve">
<g>
	<linearGradient id="SVGID_1_" gradientUnits="userSpaceOnUse" x1="30.6279" y1="43.458" x2="30.6279" y2="11.7041">
		<stop  offset="0" style="stop-color:#4A4A4A"/>
		<stop  offset="1" style="stop-color:#666666"/>
	</linearGradient>
	<path style="fill:url(#SVGID_1_);" d="M33.638,39.446c1.779-0.719,2.853-1.152,4.32-1.164c2.304,0,3.151,1.865,3.514,2.661
		c0.03,0.066,0.065,0.146,0.103,0.223c0.814-0.315,2.761-1.681,4.68-4.031c1.997-2.306,3.004-4.449,3.174-5.369
		c-0.081-0.022-0.163-0.043-0.231-0.062c-0.851-0.222-2.84-0.742-3.221-2.998c-0.238-1.449,0.002-2.58,0.401-4.454
		c0.238-1.122,0.565-2.658,0.926-4.861c0.313-1.921,1.44-3.417,3.097-4.273v-2.155c-13.752-3.382-18.422,1.119-18.422,1.119
		l-1.355,18.449l-1.355-18.449c0,0-4.658-4.501-18.41-1.119v30.148c0,0,10.652-1.076,15.254,0.347
		c0.681-1.022,1.656-1.821,2.911-2.261C31.125,40.462,32.577,39.875,33.638,39.446z"/>
	<linearGradient id="SVGID_2_" gradientUnits="userSpaceOnUse" x1="14.9614" y1="48.9541" x2="14.9614" y2="17.1743">
		<stop  offset="0" style="stop-color:#4A4A4A"/>
		<stop  offset="1" style="stop-color:#666666"/>
	</linearGradient>
	<path style="fill:url(#SVGID_2_);" d="M24.384,46.585L7.593,46.703l0.079-28.344v-0.015c0-0.645-0.54-1.183-1.197-1.171
		c-0.658,0-1.198,0.526-1.198,1.186l0.066,29.477v0.065l0.013,0.039c0.026,0.593,0.526,1.041,1.119,1.013l17.91-1.842
		c0.132-0.013,0.25-0.119,0.263-0.25C24.647,46.703,24.528,46.585,24.384,46.585z"/>
	<linearGradient id="SVGID_3_" gradientUnits="userSpaceOnUse" x1="50.9033" y1="48.9531" x2="50.9033" y2="36.583">
		<stop  offset="0" style="stop-color:#4A4A4A"/>
		<stop  offset="1" style="stop-color:#666666"/>
	</linearGradient>
	<path style="fill:url(#SVGID_3_);" d="M53.649,46.703l-6.16-0.043c-0.542,0.49-1.078,0.948-1.608,1.379l8.888,0.914h0.053
		c0.592,0,1.079-0.472,1.079-1.064v-0.053l0.025-11.253c-0.67,1.071-1.431,2.172-2.292,3.299L53.649,46.703z"/>
	<linearGradient id="SVGID_4_" gradientUnits="userSpaceOnUse" x1="42.8906" y1="52.2959" x2="42.8906" y2="16.3213">
		<stop  offset="0" style="stop-color:#4A4A4A"/>
		<stop  offset="1" style="stop-color:#666666"/>
	</linearGradient>
	<path style="fill:url(#SVGID_4_);" d="M58.462,18.924c-0.448-2.556-5.669-3.626-8.063-1.375c-0.563,0.53-0.973,1.242-1.123,2.165
		c-0.935,5.712-1.619,6.896-1.329,8.659c0.216,1.277,1.501,1.245,2.452,1.605c0.441,0.167,0.811,0.417,0.969,0.921
		c0.27,0.842-0.158,2.234-0.969,3.755c-0.658,1.235-1.564,2.555-2.597,3.745c-1.518,1.859-3.371,3.521-4.902,4.322
		c-0.712,0.374-1.355,0.563-1.861,0.496c-0.358-0.049-0.613-0.222-0.817-0.454c-0.73-0.834-0.767-2.493-2.249-2.481
		c-1.79,0.014-2.829,0.894-8.29,2.803c-0.949,0.333-1.596,0.924-2.018,1.642c-1.633,2.775,0.28,7.547,2.82,7.558
		c0,0,5.432,0.477,12.49-4.544c0.479-0.342,0.967-0.708,1.46-1.102c1.293-1.032,2.628-2.251,3.985-3.691
		c0.585-0.619,1.173-1.276,1.764-1.98c0.071-0.092,0.144-0.178,0.215-0.267c0.021-0.025,0.041-0.05,0.062-0.076
		c0.092-0.105,0.184-0.211,0.275-0.315c1.109-1.322,2.061-2.607,2.89-3.853c0.921-1.383,1.683-2.713,2.309-3.979
		C59.924,24.402,58.462,18.924,58.462,18.924z"/>
</g>
</svg>
