<?xml version="1.0" encoding="UTF-8" standalone="no"?>
<svg width="76px" height="61px" viewBox="0 0 76 61" version="1.1" xmlns="http://www.w3.org/2000/svg" xmlns:xlink="http://www.w3.org/1999/xlink" xmlns:sketch="http://www.bohemiancoding.com/sketch/ns">
    <!-- Generator: Sketch 3.3.2 (12043) - http://www.bohemiancoding.com/sketch -->
    <title>Imported Layers</title>
    <desc>Created with Sketch.</desc>
    <defs></defs>
    <g id="Page-1" stroke="none" stroke-width="1" fill="none" fill-rule="evenodd" sketch:type="MSPage">
        <g id="zakaj-simobil-copy-4" sketch:type="MSArtboardGroup" transform="translate(-903.000000, -333.000000)" fill="#4F4A8A">
            <g id="Imported-Layers" sketch:type="MSLayerGroup" transform="translate(903.000000, 333.000000)">
                <path d="M58.7362907,25.6021898 C49.2800349,25.6021898 41.6141977,33.326927 41.6141977,42.8558394 C41.6141977,52.3847518 49.2800349,60.1094891 58.7362907,60.1094891 C68.1923256,60.1094891 75.8583837,52.3847518 75.8583837,42.8558394 C75.8583837,33.326927 68.1923256,25.6021898 58.7362907,25.6021898 L58.7362907,25.6021898 Z M58.3255814,27.6058394 L58.9883721,27.6058394 L58.9883721,31.8357664 L58.3255814,31.8357664 L58.3255814,27.6058394 Z M43.5232558,42.5218978 L47.7209302,42.5218978 L47.7209302,43.189781 L43.5232558,43.189781 L43.5232558,42.5218978 Z M58.3255814,53.8759124 L58.9883721,53.8759124 L58.9883721,58.1058394 L58.3255814,58.1058394 L58.3255814,53.8759124 Z M58.5670581,44.3518978 L51.220686,34.598354 L52.1008721,33.925573 L58.7793721,42.7923905 L63.1787558,39.4273723 L63.8466279,40.3140985 L58.5670581,44.3518978 L58.5670581,44.3518978 Z M69.5930233,42.5218978 L73.7906977,42.5218978 L73.7906977,43.189781 L69.5930233,43.189781 L69.5930233,42.5218978 Z" id="Fill-1" sketch:type="MSShapeGroup"></path>
                <path d="M39.4048953,42.8558394 C39.4048953,32.0975766 48.0596163,23.3759124 58.7362907,23.3759124 C59.0681279,23.3759124 59.3979767,23.3843723 59.7258372,23.4010693 C56.5506279,9.98040146 44.5751047,0 30.2844535,0 C13.5682093,0 0.0170116279,13.6553175 0.0170116279,30.5 C0.0170116279,47.3446825 13.5682093,61 30.2844535,61 C35.7827442,61 40.9381512,59.5224197 45.3819419,56.9401606 C41.6992558,53.3932555 39.4048953,48.3945949 39.4048953,42.8558394 L39.4048953,42.8558394 Z M28.4264302,41.3437518 C27.7713721,41.9951606 27.0407558,42.2583066 26.3267093,42.2583066 C26.2940116,42.2583066 26.2511512,42.2583066 26.2089535,42.2649854 C26.1678605,42.2583066 26.1243372,42.2583066 26.0850116,42.2583066 C25.3773721,42.2583066 24.6467558,41.9951606 23.9928023,41.3437518 C18.2972209,35.6035182 20.7590465,38.1261131 15.063686,32.3965657 C12.2083837,29.5104197 16.6351628,25.0416131 19.497314,27.9277591 C24.4536628,32.9135073 21.2543721,29.6448869 26.2089535,34.640208 C31.1646395,29.6448869 36.1114884,24.6526825 41.0656279,19.6682701 C43.9297674,16.7821241 48.3662674,21.250708 45.5010233,24.1281715 C39.8076512,29.8661788 34.1122907,35.6035182 28.4264302,41.3437518 L28.4264302,41.3437518 Z" id="Fill-2" sketch:type="MSShapeGroup"></path>
            </g>
        </g>
    </g>
</svg>