<?xml version="1.0" encoding="utf-8"?>
<!-- Generator: Adobe Illustrator 16.0.0, SVG Export Plug-In . SVG Version: 6.00 Build 0)  -->
<!DOCTYPE svg PUBLIC "-//W3C//DTD SVG 1.0//EN" "http://www.w3.org/TR/2001/REC-SVG-20010904/DTD/svg10.dtd">
<svg version="1.0" id="Layer_1" xmlns="http://www.w3.org/2000/svg" xmlns:xlink="http://www.w3.org/1999/xlink" x="0px" y="0px"
	 width="64px" height="64px" viewBox="0 0 64 64" style="enable-background:new 0 0 64 64;" xml:space="preserve">
<path style="fill:#9299A9;" d="M17.917,51.049c-0.158,0.264-0.342,0.475-0.579,0.633c-1.263,0.879-3.553,0.223-4.224-0.066
	c-3.355-1.264-3.632-2.725-3.711-3.172c-0.013-0.078-0.013-0.145-0.013-0.223l13.633-37.214c0.053-0.171,0.145-0.304,0.237-0.435
	c0,0,0,0.013,0.013,0.013l4.645,12.54L17.917,51.049z M30.327,16.348l-0.092-0.25c0.04-0.013,0.092-0.013,0.145-0.013
	C30.366,16.164,30.34,16.255,30.327,16.348z M31.077,5.517C30.629,4.293,29.3,3.69,28.103,4.149c-1.184,0.46-1.79,1.816-1.329,3.039
	c0.448,1.225,1.776,1.831,2.974,1.37C30.932,8.097,31.538,6.729,31.077,5.517z M55.592,53.457l-2.276,5.197
	c-0.224,0.475-0.578,0.777-0.803,0.686c-0.224-0.105-0.553-0.592-0.737-1.078l-2.053-5.541c-0.184-0.488-0.724-0.738-1.21-0.553
	l-4.501,1.75c-0.474,0.186-0.724,0.75-0.539,1.236l2.053,5.527c0.184,0.502,0.25,1.08,0.145,1.316
	c-0.104,0.223-0.566,0.236-1.04,0.025l-5.079-2.342c-0.46-0.211-1-0.789-1.185-1.275l-2.092-5.646
	c-0.185-0.486-0.158-1.289,0.053-1.764l2.803-4.33L24.839,8.189c-1.105-2.961-0.316-4.751,2.579-5.882
	c2.895-1.118,4.658-0.315,5.763,2.646L47.46,43.43l4.895,1.342c0.475,0.211,1.014,0.791,1.197,1.277l2.093,5.645
	C55.828,52.18,55.803,52.971,55.592,53.457z M15.377,56.234l-5.277,5.355c-0.697,0.92-1.276,0.736-1.29-0.406l-0.579-7.688
	c0-0.395,0.079-0.736,0.21-0.998c0.921,0.895,2.158,1.643,3.737,2.225v0.01c0.053,0.014,0.158,0.068,0.303,0.119
	c0.592,0.223,1.869,0.605,3.329,0.461C15.746,55.602,15.602,55.918,15.377,56.234z"/>
</svg>
