<?xml version="1.0" encoding="utf-8"?>
<!-- Generator: Adobe Illustrator 16.0.0, SVG Export Plug-In . SVG Version: 6.00 Build 0)  -->
<!DOCTYPE svg PUBLIC "-//W3C//DTD SVG 1.0//EN" "http://www.w3.org/TR/2001/REC-SVG-20010904/DTD/svg10.dtd">
<svg version="1.0" id="Layer_1" xmlns="http://www.w3.org/2000/svg" xmlns:xlink="http://www.w3.org/1999/xlink" x="0px" y="0px"
	 width="64px" height="64px" viewBox="0 0 64 64" style="enable-background:new 0 0 64 64;" xml:space="preserve">
<g>
	<linearGradient id="SVGID_1_" gradientUnits="userSpaceOnUse" x1="38.3428" y1="29.626" x2="38.3428" y2="54.4058">
		<stop  offset="0" style="stop-color:#E78601"/>
		<stop  offset="1" style="stop-color:#D27A02"/>
	</linearGradient>
	<path style="fill:url(#SVGID_1_);" d="M38.342,29.626c-6.843,0-12.389,5.547-12.389,12.39s5.546,12.39,12.389,12.39
		s12.39-5.547,12.39-12.39S45.185,29.626,38.342,29.626z M29.116,42.016c0-5.095,4.131-9.226,9.226-9.226
		c1.977,0,3.807,0.624,5.308,1.681L30.797,47.323C29.74,45.821,29.116,43.992,29.116,42.016z M38.342,51.242
		c-1.977,0-3.806-0.624-5.308-1.683l12.852-12.851c1.059,1.501,1.682,3.331,1.682,5.307C47.567,47.112,43.438,51.242,38.342,51.242z
		"/>
	<linearGradient id="SVGID_2_" gradientUnits="userSpaceOnUse" x1="26.6323" y1="85.165" x2="26.6323" y2="-66.5554">
		<stop  offset="0" style="stop-color:#3F3F3F"/>
		<stop  offset="1" style="stop-color:#747474"/>
	</linearGradient>
	<path style="fill:url(#SVGID_2_);" d="M26.626,54.2c-1.488,0-2.697-1.236-2.697-2.75c0-1.189,0.739-2.188,1.769-2.573
		c-0.393-0.721-0.714-1.482-0.98-2.271H16.69V16.71h19.884v11.036c0.581-0.072,1.168-0.12,1.768-0.12c0.561,0,1.11,0.04,1.654,0.103
		V10.865c0-1.987-1.605-3.604-3.566-3.604H16.835c-1.961,0-3.566,1.617-3.566,3.604V53.12c0,1.988,1.605,3.619,3.566,3.619H36.43
		c0.54,0,1.048-0.134,1.509-0.354c-3.439-0.096-6.576-1.399-9.006-3.508C28.457,53.666,27.607,54.2,26.626,54.2z M23.585,11.156
		h6.095c0.551,0,1.012,0.46,1.012,1.024c0,0.58-0.461,1.041-1.012,1.041h-6.095c-0.564,0-1.012-0.461-1.012-1.041
		C22.573,11.616,23.021,11.156,23.585,11.156z"/>
	<linearGradient id="SVGID_3_" gradientUnits="userSpaceOnUse" x1="24.9038" y1="80.167" x2="24.9038" y2="-71.558">
		<stop  offset="0" style="stop-color:#3F3F3F"/>
		<stop  offset="1" style="stop-color:#747474"/>
	</linearGradient>
	<path style="fill:url(#SVGID_3_);" d="M23.7,30.882h4.369l0.592-2.197h-5.342v-0.619c0-0.145,0-0.275,0-0.395
		c0-0.117,0.012-0.236,0.025-0.369h5.791l0.604-2.196h-6.026c0.342-1.066,0.855-1.842,1.512-2.33
		c0.672-0.474,1.461-0.711,2.396-0.711c0.605,0,1.131,0.027,1.578,0.106c0.448,0.066,0.843,0.171,1.185,0.314l0.816-2.395
		c-0.422-0.171-0.947-0.328-1.566-0.447c-0.632-0.119-1.343-0.183-2.157-0.183c-0.752,0-1.488,0.104-2.186,0.302
		c-0.711,0.21-1.355,0.539-1.947,0.986c-0.578,0.447-1.105,1.025-1.539,1.736c-0.447,0.712-0.777,1.579-1.014,2.62h-1.436
		l-0.75,2.196h1.908c-0.012,0.133-0.025,0.264-0.025,0.383c0,0.133,0,0.25,0,0.381v0.619h-1.133l-0.75,2.197h2.146
		c0.395,2.014,1.184,3.488,2.355,4.408c0.601,0.474,1.274,0.821,2.016,1.052c0.371-0.863,0.825-1.682,1.351-2.447
		c-0.498-0.133-0.936-0.338-1.302-0.632C24.503,32.724,24.003,31.935,23.7,30.882z"/>
</g>
</svg>
