<?xml version="1.0" encoding="utf-8"?>
<!-- Generator: Adobe Illustrator 16.0.0, SVG Export Plug-In . SVG Version: 6.00 Build 0)  -->
<!DOCTYPE svg PUBLIC "-//W3C//DTD SVG 1.0//EN" "http://www.w3.org/TR/2001/REC-SVG-20010904/DTD/svg10.dtd">
<svg version="1.0" id="Layer_1" xmlns="http://www.w3.org/2000/svg" xmlns:xlink="http://www.w3.org/1999/xlink" x="0px" y="0px"
	 width="64px" height="64px" viewBox="0 0 64 64" style="enable-background:new 0 0 64 64;" xml:space="preserve">
<g>
	<linearGradient id="SVGID_1_" gradientUnits="userSpaceOnUse" x1="31.9966" y1="37.8037" x2="31.9966" y2="12.3403">
		<stop  offset="0" style="stop-color:#3F3F3F"/>
		<stop  offset="1" style="stop-color:#747474"/>
	</linearGradient>
	<path style="fill:url(#SVGID_1_);" d="M39.398,27.486c-0.145,0.091-0.461,0.46-0.75,0.854c-0.921,6.382-5.975,6.567-6.553,6.567
		h-0.132c-0.659,0-5.672-0.225-6.594-6.567c-0.276-0.395-0.604-0.764-0.723-0.854c-0.974-0.463-1.026-1.185-1.026-3.225
		c0-2.317,0.092-6.054,0.092-6.054c0.026-0.185,1.013-5.868,8.303-5.868s8.264,5.684,8.277,5.75
		c0.014,0.118,0.105,3.854,0.105,6.172C40.398,26.302,40.358,27.023,39.398,27.486z M20.081,32.381
		c-0.29,0.144-0.869,0.986-0.869,0.986c-0.579,4.619-4.25,4.436-4.25,4.436s-3.671,0.184-4.251-4.436c0,0-0.579-0.843-0.868-0.986
		c-0.303-0.132-0.408-0.067-0.408-1.777s0.079-4.474,0.079-4.474s0.579-3.672,5.448-3.672c4.869,0,5.447,3.672,5.447,3.672
		s0.08,2.764,0.08,4.474S20.383,32.249,20.081,32.381z M54.163,32.381c-0.289,0.144-0.869,0.986-0.869,0.986
		c-0.579,4.619-4.25,4.436-4.25,4.436c-0.014,0-3.672,0.184-4.25-4.436c0,0-0.593-0.843-0.882-0.986
		c-0.289-0.132-0.395-0.067-0.395-1.777s0.065-4.474,0.065-4.474s0.592-3.672,5.461-3.672s5.447,3.672,5.447,3.672
		s0.066,2.764,0.066,4.474S54.453,32.249,54.163,32.381z"/>
	<linearGradient id="SVGID_2_" gradientUnits="userSpaceOnUse" x1="32" y1="37.0498" x2="32" y2="51.6602">
		<stop  offset="0" style="stop-color:#E78601"/>
		<stop  offset="1" style="stop-color:#D27A02"/>
	</linearGradient>
	<path style="fill:url(#SVGID_2_);" d="M31.961,51.66h-0.026H11.498c0,0-0.264-6.922,2.803-8.227
		c3.066-1.301,10.053-3.461,10.053-3.461s1.698-0.564,2.237-2.076c0.316-0.908,0.842-1.607,2.145,0.773
		c1.303,2.383,1.461,2.766,1.461,2.766s0.684,1.617,0.684,3.223c0,1.619-0.066,2.541-0.066,2.541s0.145,1.209,1.132,1.225
		c0.987-0.016,1.145-1.225,1.145-1.225s-0.079-0.922-0.079-2.541c0-1.605,0.685-3.223,0.685-3.223s0.158-0.383,1.461-2.766
		c1.304-2.381,1.829-1.682,2.158-0.773c0.539,1.512,2.225,2.076,2.225,2.076s6.986,2.16,10.053,3.461
		c3.066,1.305,2.803,8.227,2.803,8.227H31.961z M9.287,51.66h-8.83c0,0-0.197-4.908,1.987-5.832
		c2.171-0.932,7.132-2.461,7.132-2.461s1.198-0.393,1.579-1.471c0.224-0.633,0.579-1.094,1.46,0.434
		C9.248,44.316,9.248,50.266,9.287,51.66z M54.713,51.66c0.052-1.395,0.04-7.344-3.316-9.33c0.869-1.527,1.224-1.066,1.448-0.434
		c0.381,1.078,1.579,1.471,1.579,1.471s4.961,1.529,7.132,2.461c2.185,0.924,1.987,5.832,1.987,5.832H54.713z"/>
</g>
</svg>
