<?xml version="1.0" encoding="utf-8"?>
<!-- Generator: Adobe Illustrator 16.0.0, SVG Export Plug-In . SVG Version: 6.00 Build 0)  -->
<!DOCTYPE svg PUBLIC "-//W3C//DTD SVG 1.0//EN" "http://www.w3.org/TR/2001/REC-SVG-20010904/DTD/svg10.dtd">
<svg version="1.0" id="Layer_1" xmlns="http://www.w3.org/2000/svg" xmlns:xlink="http://www.w3.org/1999/xlink" x="0px" y="0px"
	 width="64px" height="64px" viewBox="0 0 64 64" style="enable-background:new 0 0 64 64;" xml:space="preserve">
<g>
	<defs>
		<path id="SVGID_1_" d="M16.301-2545.013c-2.725,0-4.935-2.21-4.935-4.935c0-2.724,2.21-4.936,4.935-4.936
			c2.724,0,4.934,2.212,4.934,4.936C21.235-2547.224,19.025-2545.002,16.301-2545.013z M50.778-2544.843h-9.146
			c0.829-7.949-1.776-16.185-7.856-22.265c-6.132-6.133-14.475-8.738-22.489-7.831v-9.146c10.356-0.882,21.029,2.619,28.938,10.528
			C48.08-2565.701,51.581-2555.133,50.778-2544.843z M36.132-2544.936h-8.277c0.882-4.38-0.355-9.105-3.75-12.5
			c-3.448-3.447-8.277-4.672-12.725-3.699v-8.317c6.58-0.895,13.475,1.185,18.515,6.226
			C34.882-2558.251,36.961-2551.436,36.132-2544.936z"/>
	</defs>
	<clipPath id="SVGID_2_">
		<use xlink:href="#SVGID_1_"  style="overflow:visible;"/>
	</clipPath>
	<g style="clip-path:url(#SVGID_2_);">
		<defs>
			<rect id="SVGID_3_" x="-0.667" y="-7663" width="63.334" height="15391.063"/>
		</defs>
		<clipPath id="SVGID_4_">
			<use xlink:href="#SVGID_3_"  style="overflow:visible;"/>
		</clipPath>
		<g transform="matrix(1 0 0 1 5.960464e-008 0)" style="clip-path:url(#SVGID_4_);">
			
				<image style="overflow:visible;" width="64" height="15553" xlink:href="4B11893E.jpg"  transform="matrix(0.9896 0 0 0.9896 -0.667 -7663)">
			</image>
		</g>
	</g>
</g>
<path style="fill:#9299A9;" d="M17.212,51.518c-2.725,0-4.935-2.211-4.935-4.936s2.21-4.936,4.935-4.936
	c2.724,0,4.934,2.211,4.934,4.936S19.936,51.528,17.212,51.518z M51.689,51.688h-9.146c0.829-7.949-1.776-16.186-7.856-22.265
	c-6.132-6.133-14.475-8.738-22.489-7.831v-9.146c10.356-0.882,21.029,2.619,28.938,10.528
	C48.991,30.829,52.492,41.397,51.689,51.688z M37.043,51.594h-8.277c0.882-4.381-0.355-9.104-3.75-12.499
	c-3.448-3.447-8.277-4.672-12.725-3.698v-8.317c6.58-0.895,13.475,1.185,18.515,6.226C35.793,38.279,37.872,45.095,37.043,51.594z"
	/>
</svg>
