<?xml version="1.0" encoding="utf-8"?>
<!-- Generator: Adobe Illustrator 16.0.0, SVG Export Plug-In . SVG Version: 6.00 Build 0)  -->
<!DOCTYPE svg PUBLIC "-//W3C//DTD SVG 1.1//EN" "http://www.w3.org/Graphics/SVG/1.1/DTD/svg11.dtd">
<svg version="1.1" id="Layer_1" xmlns="http://www.w3.org/2000/svg" xmlns:xlink="http://www.w3.org/1999/xlink" x="0px" y="0px"
	 width="123.863px" height="47.299px" viewBox="0 0 123.863 47.299" enable-background="new 0 0 123.863 47.299"
	 xml:space="preserve">
<rect x="-680.153" y="-1754.631" fill="none" width="1920" height="7510.021"/>
<g>
	<polygon fill="#E4156A" points="21.155,15.236 14.514,26.573 21.155,26.573 	"/>
	<path fill="#E4156A" d="M0,0v47.299h104.679L123.864,0H0z M52.795,38.127c0,0.826-0.654,1.472-1.488,1.472H8.782
		c-0.836,0-1.488-0.646-1.488-1.472V9.172c0-0.789,0.652-1.47,1.488-1.47h42.524c0.834,0,1.488,0.681,1.488,1.47V38.127z
		 M69.954,34.362H57.939V12.566h2.768v19.414h9.248V34.362z M83.79,14.948h-6.088v19.415h-2.77V14.948h-6.089v-2.383H83.79V14.948z
		 M98.765,34.362H86.62V12.566h12.015v2.382h-9.246v6.923h8.139v2.351h-8.139v7.758h9.376V34.362z"/>
	<path fill="#E4156A" d="M8.782,38.091h42.524V9.208H8.782V38.091z M40.167,12.115c1.598,0,3.339,0.214,5.081,0.608v2.405
		c-1.742-0.466-3.339-0.681-4.789-0.681c-4.573,0-7.367,2.475-7.367,8.97c0,7.355,3.157,9.006,7.221,9.006
		c1.017,0,2.068-0.072,3.193-0.216v-6.853h-3.592v-2.333h6.458v10.979c-2.141,0.43-4.391,0.753-6.567,0.753
		c-5.298,0-9.797-2.116-9.797-11.015C30.008,15.092,34.326,12.115,40.167,12.115z M11.793,26.753l8.346-14.243h3.592v14.063h3.229
		v2.476h-3.229v5.312h-2.648v-5.312h-9.289V26.753z"/>
</g>
<rect x="-680.153" y="-1754.63" fill="none" width="1920" height="7510.02"/>
</svg>
