<?xml version="1.0" encoding="utf-8"?>
<!-- Generator: Adobe Illustrator 16.0.0, SVG Export Plug-In . SVG Version: 6.00 Build 0)  -->
<!DOCTYPE svg PUBLIC "-//W3C//DTD SVG 1.1//EN" "http://www.w3.org/Graphics/SVG/1.1/DTD/svg11.dtd">
<svg version="1.1" id="Layer_1" xmlns="http://www.w3.org/2000/svg" xmlns:xlink="http://www.w3.org/1999/xlink" x="0px" y="0px"
	 width="64px" height="64px" viewBox="0 0 64 64" style="enable-background:new 0 0 64 64;" xml:space="preserve">
<g>
	<linearGradient id="SVGID_1_" gradientUnits="userSpaceOnUse" x1="32.0972" y1="56.3418" x2="32.0972" y2="5.9221">
		<stop  offset="0" style="stop-color:#3F3F3F"/>
		<stop  offset="1" style="stop-color:#747474"/>
	</linearGradient>
	<polygon style="fill:url(#SVGID_1_);" points="36.091,27.597 36.091,24.677 28.011,24.677 28.011,39.323 36.183,39.323 
		36.183,36.401 31.011,36.401 31.011,33.151 35.459,33.151 35.459,30.295 31.011,30.295 31.011,27.597 	"/>
	<linearGradient id="SVGID_2_" gradientUnits="userSpaceOnUse" x1="12.7793" y1="56.3418" x2="12.7793" y2="5.9221">
		<stop  offset="0" style="stop-color:#3F3F3F"/>
		<stop  offset="1" style="stop-color:#747474"/>
	</linearGradient>
	<polygon style="fill:url(#SVGID_2_);" points="11.746,24.677 8.759,24.677 8.759,39.323 16.799,39.323 16.799,36.401 
		11.746,36.401 	"/>
	<linearGradient id="SVGID_3_" gradientUnits="userSpaceOnUse" x1="21.8989" y1="56.3418" x2="21.8989" y2="5.9221">
		<stop  offset="0" style="stop-color:#3F3F3F"/>
		<stop  offset="1" style="stop-color:#747474"/>
	</linearGradient>
	<polygon style="fill:url(#SVGID_3_);" points="17.01,27.597 20.405,27.597 20.405,39.323 23.392,39.323 23.392,27.597 
		26.788,27.597 26.788,24.677 17.01,24.677 	"/>
	<linearGradient id="SVGID_4_" gradientUnits="userSpaceOnUse" x1="22.4946" y1="56.3428" x2="22.4946" y2="5.9218">
		<stop  offset="0" style="stop-color:#3F3F3F"/>
		<stop  offset="1" style="stop-color:#747474"/>
	</linearGradient>
	<path style="fill:url(#SVGID_4_);" d="M22.495,10.109c-5.921,0-11.501,2.276-15.686,6.408c-4.185,4.131-6.488,9.632-6.488,15.477
		c0,5.855,2.303,11.342,6.488,15.488c4.198,4.131,9.764,6.408,15.686,6.408c5.922,0,11.488-2.277,15.685-6.408
		c4.185-4.133,6.488-9.633,6.488-15.488c0-5.845-2.304-11.346-6.488-15.477C33.982,12.386,28.417,10.109,22.495,10.109z
		 M35.035,44.377c-3.341,3.316-7.802,5.131-12.541,5.131c-4.737,0-9.198-1.814-12.541-5.131c-3.355-3.305-5.198-7.699-5.198-12.383
		c0-4.674,1.842-9.067,5.198-12.385c3.342-3.303,7.803-5.119,12.541-5.119c4.738,0,9.199,1.816,12.541,5.119
		c3.355,3.317,5.198,7.711,5.198,12.385C40.233,36.678,38.391,41.072,35.035,44.377z"/>
	<linearGradient id="SVGID_5_" gradientUnits="userSpaceOnUse" x1="60.293" y1="56.3428" x2="60.293" y2="5.9224">
		<stop  offset="0" style="stop-color:#3F3F3F"/>
		<stop  offset="1" style="stop-color:#747474"/>
	</linearGradient>
	<path style="fill:url(#SVGID_5_);" d="M58.575,19.813l-1.666,1.662c0.021,0.02,0.04,0.037,0.061,0.055
		c5.784,5.785,5.8,15.188,0.049,20.998l1.667,1.66c6.674-6.732,6.658-17.605-0.056-24.32C58.61,19.848,58.591,19.83,58.575,19.813z"
		/>
	<linearGradient id="SVGID_6_" gradientUnits="userSpaceOnUse" x1="50.127" y1="56.3418" x2="50.1269" y2="5.9236">
		<stop  offset="0" style="stop-color:#3F3F3F"/>
		<stop  offset="1" style="stop-color:#747474"/>
	</linearGradient>
	<path style="fill:url(#SVGID_6_);" d="M50.149,28.234l-1.663,1.664c0.021,0.018,0.041,0.035,0.059,0.051
		c1.144,1.143,1.158,2.99,0.053,4.154l1.662,1.662c2.025-2.084,2.011-5.416-0.052-7.479C50.188,28.27,50.168,28.254,50.149,28.234z"
		/>
	<linearGradient id="SVGID_7_" gradientUnits="userSpaceOnUse" x1="55.4785" y1="56.3428" x2="55.4785" y2="5.9229">
		<stop  offset="0" style="stop-color:#3F3F3F"/>
		<stop  offset="1" style="stop-color:#747474"/>
	</linearGradient>
	<path style="fill:url(#SVGID_7_);" d="M54.642,23.854c-0.021-0.018-0.041-0.035-0.061-0.053l-1.661,1.664
		c0.018,0.021,0.041,0.035,0.059,0.053c3.585,3.588,3.6,9.408,0.052,13.021l1.666,1.66C59.167,35.666,59.152,28.367,54.642,23.854z"
		/>
</g>
<g>
</g>
<g>
</g>
<g>
</g>
<g>
</g>
<g>
</g>
</svg>
