<?xml version="1.0" encoding="utf-8"?>
<!-- Generator: Adobe Illustrator 16.0.0, SVG Export Plug-In . SVG Version: 6.00 Build 0)  -->
<!DOCTYPE svg PUBLIC "-//W3C//DTD SVG 1.0//EN" "http://www.w3.org/TR/2001/REC-SVG-20010904/DTD/svg10.dtd">
<svg version="1.0" id="Layer_1" xmlns="http://www.w3.org/2000/svg" xmlns:xlink="http://www.w3.org/1999/xlink" x="0px" y="0px"
	 width="64px" height="64px" viewBox="0 0 64 64" style="enable-background:new 0 0 64 64;" xml:space="preserve">
<path style="fill:#C0B193;" d="M53.034,31.653H33.612l-0.014-11.225l7.619-0.014c1.803,0,3.751-2.475,4.475-4.396
	c0.486-1.302,0.553-3.053-1.947-4.104c-1.396-0.593-2.698-0.606-3.987-0.066c-3.869,1.657-6.186,7.659-6.212,7.726
	c-0.25,0.656-0.882,1.026-1.539,1.013c-0.671,0.014-1.304-0.356-1.554-1.013c-0.025-0.066-2.342-6.068-6.211-7.726
	c-1.289-0.54-2.592-0.526-3.987,0.066c-2.487,1.052-2.435,2.803-1.947,4.104c0.658,1.738,2.079,4.04,4.658,4.396h7.409l0.013,11.238
	H10.965c-1.764,0-3.211-1.435-3.211-3.211v-4.817c0-1.762,1.447-3.21,3.211-3.21h6.58c-0.987-0.908-1.79-2.04-2.251-3.264
	c-1.303-3.476,0.145-6.686,3.711-8.198c2.211-0.935,4.408-0.948,6.514-0.053c3.014,1.289,5.172,4.237,6.488,6.527
	c1.303-2.29,3.461-5.238,6.475-6.527c2.105-0.896,4.303-0.882,6.513,0.053c3.567,1.513,5.015,4.723,3.712,8.198
	c-0.461,1.224-1.264,2.355-2.264,3.264h6.592c1.765,0,3.212,1.448,3.212,3.21v4.817C56.246,30.219,54.799,31.653,53.034,31.653z
	 M49.009,55.76H33.612V34.863h15.396c1.776,0,3.224,1.447,3.224,3.225v14.461C52.232,54.313,50.785,55.76,49.009,55.76z
	 M14.991,55.76c-1.763,0-3.21-1.446-3.21-3.211V38.088c0-1.777,1.447-3.225,3.21-3.225h15.396V55.76H14.991z"/>
</svg>
