<?xml version="1.0" encoding="utf-8"?>
<!-- Generator: Adobe Illustrator 16.0.0, SVG Export Plug-In . SVG Version: 6.00 Build 0)  -->
<!DOCTYPE svg PUBLIC "-//W3C//DTD SVG 1.0//EN" "http://www.w3.org/TR/2001/REC-SVG-20010904/DTD/svg10.dtd">
<svg version="1.0" id="Layer_1" xmlns="http://www.w3.org/2000/svg" xmlns:xlink="http://www.w3.org/1999/xlink" x="0px" y="0px"
	 width="64px" height="64px" viewBox="0 0 64 64" style="enable-background:new 0 0 64 64;" xml:space="preserve">
<g>
	<path style="fill:none;" d="M38.366,13.94c-3.341-3.303-7.802-5.119-12.541-5.119c-4.737,0-9.198,1.816-12.541,5.119
		c-3.355,3.317-5.198,7.711-5.198,12.385c0,4.684,1.842,9.078,5.198,12.383c3.342,3.316,7.803,5.131,12.541,5.131
		c2.295,0,4.522-0.435,6.592-1.251c1.049-5.379,5.108-9.648,10.328-10.995c0.535-1.683,0.819-3.452,0.819-5.268
		C43.564,21.651,41.722,17.258,38.366,13.94z M23.98,33.014h-7.708V20.853h7.618v2.425h-4.795v2.246h4.198v2.371h-4.198v2.693h4.886
		V33.014z M35.38,28.471c0,3.395-1.954,4.813-5.048,4.813c-2.967,0-4.759-1.383-4.759-4.832v-7.598h2.823v7.743
		c0,1.832,1.031,2.264,2.244,2.264c1.285,0,2.117-0.414,2.117-2.211v-7.795h2.624V28.471z"/>
	<linearGradient id="SVGID_1_" gradientUnits="userSpaceOnUse" x1="20.1265" y1="50.6719" x2="20.1265" y2="0.2549">
		<stop  offset="0" style="stop-color:#3F3F3F"/>
		<stop  offset="1" style="stop-color:#747474"/>
	</linearGradient>
	<polygon style="fill:url(#SVGID_1_);" points="19.095,27.895 23.293,27.895 23.293,25.523 19.095,25.523 19.095,23.278 
		23.89,23.278 23.89,20.853 16.272,20.853 16.272,33.014 23.98,33.014 23.98,30.588 19.095,30.588 	"/>
	<linearGradient id="SVGID_2_" gradientUnits="userSpaceOnUse" x1="30.4766" y1="50.6719" x2="30.4766" y2="0.2548">
		<stop  offset="0" style="stop-color:#3F3F3F"/>
		<stop  offset="1" style="stop-color:#747474"/>
	</linearGradient>
	<path style="fill:url(#SVGID_2_);" d="M32.756,28.648c0,1.797-0.833,2.211-2.117,2.211c-1.212,0-2.244-0.432-2.244-2.264v-7.743
		h-2.823v7.598c0,3.449,1.792,4.832,4.759,4.832c3.094,0,5.048-1.418,5.048-4.813v-7.618h-2.624V28.648z"/>
	<linearGradient id="SVGID_3_" gradientUnits="userSpaceOnUse" x1="25.8257" y1="50.6738" x2="25.8257" y2="0.2528">
		<stop  offset="0" style="stop-color:#3F3F3F"/>
		<stop  offset="1" style="stop-color:#747474"/>
	</linearGradient>
	<path style="fill:url(#SVGID_3_);" d="M32.417,42.588c-2.069,0.816-4.296,1.251-6.592,1.251c-4.737,0-9.198-1.814-12.541-5.131
		c-3.355-3.305-5.198-7.699-5.198-12.383c0-4.674,1.842-9.067,5.198-12.385c3.342-3.303,7.803-5.119,12.541-5.119
		c4.738,0,9.2,1.816,12.541,5.119c3.355,3.317,5.198,7.711,5.198,12.385c0,1.815-0.284,3.585-0.819,5.268
		c1.12-0.288,2.287-0.458,3.496-0.458c0.402,0,0.797,0.027,1.191,0.061c0.361-1.582,0.566-3.209,0.566-4.87
		c0-5.845-2.304-11.346-6.488-15.477C37.313,6.717,31.748,4.44,25.826,4.44c-5.921,0-11.501,2.276-15.686,6.408
		c-4.185,4.131-6.488,9.632-6.488,15.477c0,5.855,2.303,11.342,6.488,15.488c4.198,4.131,9.764,6.408,15.686,6.408
		c2.224,0,4.397-0.321,6.468-0.941c-0.086-0.634-0.146-1.276-0.146-1.934C32.147,44.402,32.244,43.481,32.417,42.588z"/>
	<linearGradient id="SVGID_4_" gradientUnits="userSpaceOnUse" x1="46.248" y1="31.1348" x2="46.248" y2="81.1772">
		<stop  offset="0" style="stop-color:#E78601"/>
		<stop  offset="1" style="stop-color:#D27A02"/>
	</linearGradient>
	<path style="fill:url(#SVGID_4_);" d="M47.433,31.195c-0.395-0.033-0.789-0.061-1.191-0.061c-1.209,0-2.376,0.17-3.496,0.458
		c-5.22,1.347-9.278,5.616-10.328,10.995c-0.174,0.894-0.27,1.814-0.27,2.759c0,0.657,0.06,1.3,0.146,1.934
		c0.939,6.927,6.822,12.279,13.948,12.279c7.79,0,14.106-6.371,14.106-14.213C60.348,37.895,54.663,31.805,47.433,31.195z"/>
	<g>
		<path style="fill:#FFFFFF;" d="M46.87,44.385c1.38-1.495,2.598-2.806,5.059-2.806c3.519,0,4.438,1.495,4.438,4.024
			c0,2.621-1.104,4.139-4.554,4.231c-2.322,0.046-3.679-1.312-5.104-2.852c-1.426,1.54-2.621,2.852-5.059,2.852
			c-3.496,0-4.438-1.449-4.438-4.024c0-2.621,1.104-4.231,4.6-4.231C44.249,41.579,45.468,42.959,46.87,44.385z M45.675,45.765
			c-1.288-1.356-2.139-2.645-3.955-2.645c-2.07,0-2.646,1.012-2.646,2.529c0,1.633,0.507,2.645,2.737,2.645
			C43.604,48.294,44.433,47.099,45.675,45.765z M47.95,45.627c1.242,1.402,2.116,2.667,3.91,2.667c2.092,0,2.645-1.035,2.645-2.575
			c0-1.61-0.483-2.599-2.736-2.599C49.951,43.12,49.101,44.293,47.95,45.627z"/>
	</g>
</g>
</svg>
