<?xml version="1.0" encoding="utf-8"?>
<!-- Generator: Adobe Illustrator 16.0.0, SVG Export Plug-In . SVG Version: 6.00 Build 0)  -->
<!DOCTYPE svg PUBLIC "-//W3C//DTD SVG 1.0//EN" "http://www.w3.org/TR/2001/REC-SVG-20010904/DTD/svg10.dtd">
<svg version="1.0" id="Layer_1" xmlns="http://www.w3.org/2000/svg" xmlns:xlink="http://www.w3.org/1999/xlink" x="0px" y="0px"
	 width="64px" height="64px" viewBox="0 0 64 64" style="enable-background:new 0 0 64 64;" xml:space="preserve">
<path style="fill:#9299A9;" d="M15.637,47.034h-1.54c-1.382,0-2.5-1.132-2.5-2.501v-1.026c0-1.368,1.118-2.499,2.5-2.499h1.54
	c1.368,0,2.5,1.131,2.5,2.499v1.026C18.137,45.902,17.005,47.034,15.637,47.034z M15.637,35.006h-1.54c-1.382,0-2.5-1.131-2.5-2.501
	v-1.025c0-1.369,1.118-2.5,2.5-2.5h1.54c1.368,0,2.5,1.131,2.5,2.5v1.025C18.137,33.875,17.005,35.006,15.637,35.006z
	 M15.637,22.979h-1.54c-1.382,0-2.5-1.119-2.5-2.5v-1.013c0-1.381,1.118-2.5,2.5-2.5h1.54c1.368,0,2.5,1.119,2.5,2.5v1.013
	C18.137,21.86,17.005,22.979,15.637,22.979z M49.903,47.034H24.059c-1.369,0-2.501-1.132-2.501-2.501v-1.026
	c0-1.368,1.132-2.499,2.501-2.499h25.845c1.368,0,2.5,1.131,2.5,2.499v1.026C52.403,45.902,51.271,47.034,49.903,47.034z
	 M49.903,35.006H24.059c-1.369,0-2.501-1.131-2.501-2.501v-1.025c0-1.369,1.132-2.5,2.501-2.5h25.845c1.368,0,2.5,1.131,2.5,2.5
	v1.025C52.403,33.875,51.271,35.006,49.903,35.006z M49.903,22.979H24.059c-1.369,0-2.501-1.119-2.501-2.5v-1.013
	c0-1.381,1.132-2.5,2.501-2.5h25.845c1.368,0,2.5,1.119,2.5,2.5v1.013C52.403,21.86,51.271,22.979,49.903,22.979z"/>
</svg>
