<?xml version="1.0" encoding="utf-8"?>
<!-- Generator: Adobe Illustrator 16.0.0, SVG Export Plug-In . SVG Version: 6.00 Build 0)  -->
<!DOCTYPE svg PUBLIC "-//W3C//DTD SVG 1.0//EN" "http://www.w3.org/TR/2001/REC-SVG-20010904/DTD/svg10.dtd">
<svg version="1.0" id="Layer_1" xmlns="http://www.w3.org/2000/svg" xmlns:xlink="http://www.w3.org/1999/xlink" x="0px" y="0px"
	 width="64px" height="64px" viewBox="0 0 64 64" style="enable-background:new 0 0 64 64;" xml:space="preserve">
<path style="fill:#C0B193;" d="M31.999,0C14.325,0,0,14.326,0,32s14.325,32,31.999,32S64,49.674,64,32S49.673,0,31.999,0z
	 M26.92,51.139c-0.455,0-2.272-1.59-2.671-2.556c1.192-5.563,2.726-12.94,3.634-17.255l-4.427-0.113c0-1.59,0-3.123,0.057-4.654
	c4.313-0.512,10.048-1.533,11.067-1.533c0.454,0,2.157,1.476,2.669,2.326c-1.021,4.77-3.519,16.122-3.974,18.223
	c-0.057,0.228-0.057,0.455,0.172,0.455c0.565,0,2.044-0.228,3.632-0.569c0.115,1.477,0.285,2.951,0.396,4.429
	C34.924,50.628,31.798,51.139,26.92,51.139z M34.58,21.734c-2.949,0-4.768-2.326-4.768-4.596c0-2.556,2.215-4.714,5.166-4.714
	c3.406,0,4.6,2.329,4.6,4.259C39.578,19.861,37.194,21.734,34.58,21.734z"/>
</svg>
