<?xml version="1.0" encoding="utf-8"?>
<!-- Generator: Adobe Illustrator 16.0.0, SVG Export Plug-In . SVG Version: 6.00 Build 0)  -->
<!DOCTYPE svg PUBLIC "-//W3C//DTD SVG 1.0//EN" "http://www.w3.org/TR/2001/REC-SVG-20010904/DTD/svg10.dtd">
<svg version="1.0" id="Layer_1" xmlns="http://www.w3.org/2000/svg" xmlns:xlink="http://www.w3.org/1999/xlink" x="0px" y="0px"
	 width="64px" height="64px" viewBox="0 0 64 64" style="enable-background:new 0 0 64 64;" xml:space="preserve">
<g>
	<linearGradient id="SVGID_1_" gradientUnits="userSpaceOnUse" x1="31.9927" y1="20.2295" x2="31.9927" y2="43.77">
		<stop  offset="0" style="stop-color:#E78601"/>
		<stop  offset="1" style="stop-color:#D27A02"/>
	</linearGradient>
	<path style="fill:url(#SVGID_1_);" d="M36.454,30.796h-8.922v-4.79c0-0.475,0.014-2.027,0.79-2.854
		c0.407-0.448,0.986-0.659,1.764-0.659h3.829c0.775,0,1.354,0.211,1.763,0.645c0.763,0.829,0.776,2.409,0.789,2.869L36.454,30.796z
		 M38.862,30.796h-0.146v-4.658c0-0.777,0.119-2.882-1.382-4.515c-0.828-0.907-2.012-1.394-3.42-1.394h-3.829
		c-1.422,0.053-2.593,0.486-3.435,1.394c-1.487,1.633-1.383,4.041-1.369,4.515v4.658h-0.145c-0.882,0-1.605,0.723-1.605,1.605v9.777
		c0,0.883,0.724,1.591,1.605,1.591h13.725c0.882,0,1.592-0.708,1.592-1.591v-9.777C40.454,31.519,39.744,30.796,38.862,30.796z"/>
	<linearGradient id="SVGID_2_" gradientUnits="userSpaceOnUse" x1="32.0005" y1="63.4453" x2="32.0005" y2="0.5552">
		<stop  offset="0" style="stop-color:#3F3F3F"/>
		<stop  offset="1" style="stop-color:#747474"/>
	</linearGradient>
	<path style="fill:url(#SVGID_2_);" d="M44.823,50.574h-25.66V12.571h25.66V50.574z M31.993,60.207
		c-1.921,0-3.487-1.566-3.487-3.486c0-1.935,1.566-3.502,3.487-3.502c1.935,0,3.5,1.567,3.5,3.502
		C35.493,58.641,33.928,60.207,31.993,60.207z M28.072,5.517h7.855c0.724,0,1.303,0.594,1.303,1.317
		c0,0.723-0.579,1.302-1.303,1.302h-7.855c-0.724,0-1.316-0.579-1.316-1.302C26.756,6.11,27.349,5.517,28.072,5.517z M44.64,0.555
		H19.36c-2.54,0-4.605,2.08-4.605,4.607v53.689c0,2.525,2.065,4.594,4.605,4.594H44.64c2.526,0,4.605-2.068,4.605-4.594V5.162
		C49.245,2.635,47.166,0.555,44.64,0.555z"/>
</g>
</svg>
