<?xml version="1.0" encoding="utf-8"?>
<!-- Generator: Adobe Illustrator 16.0.0, SVG Export Plug-In . SVG Version: 6.00 Build 0)  -->
<!DOCTYPE svg PUBLIC "-//W3C//DTD SVG 1.1//EN" "http://www.w3.org/Graphics/SVG/1.1/DTD/svg11.dtd">
<svg version="1.1" id="Layer_1" xmlns="http://www.w3.org/2000/svg" xmlns:xlink="http://www.w3.org/1999/xlink" x="0px" y="0px"
	 width="64px" height="64px" viewBox="0 0 64 64" style="enable-background:new 0 0 64 64;" xml:space="preserve">
<g>
	<linearGradient id="SVGID_1_" gradientUnits="userSpaceOnUse" x1="39.5752" y1="45.7051" x2="39.5752" y2="6.1626">
		<stop  offset="0" style="stop-color:#3F3F3F"/>
		<stop  offset="1" style="stop-color:#747474"/>
	</linearGradient>
	<path style="fill:url(#SVGID_1_);" d="M57.817,30.993c-0.184-4.881-1.749-9.566-4.513-13.581l-0.132-0.236
		c-0.329-0.474-0.685-0.908-1.132-1.462l-0.131-0.17c-2.619-3.185-5.869-5.618-9.659-7.251l-0.303-0.144
		c-0.593-0.237-1.198-0.462-1.987-0.712l-0.486-0.171c-0.54-0.157-1.079-0.289-1.633-0.42L37.566,6.78
		c-0.211-0.04-0.422-0.093-0.79-0.171l-0.289-0.065c-0.276-0.053-0.554-0.079-0.83-0.104L35,6.359
		c-0.184-0.039-0.382-0.066-0.579-0.079c-0.684-0.066-1.369-0.092-2.158-0.104l-0.328-0.015c-5.29,0.015-10.396,1.619-14.752,4.671
		c-0.869,0.606-1.447,1.513-1.632,2.566c-0.185,1.039,0.053,2.104,0.657,2.96c1.211,1.739,3.804,2.198,5.541,0.987
		c3.013-2.118,6.54-3.237,10.383-3.237c0.525,0.015,1.052,0.04,1.565,0.079l0.486,0.066c0.422,0.053,0.843,0.105,1.25,0.196
		l0.554,0.119c0.407,0.092,0.815,0.198,1.211,0.317l0.381,0.118c0.447,0.156,0.895,0.315,1.474,0.552
		c2.593,1.118,4.935,2.869,6.777,5.106c2.408,2.934,3.816,6.565,4.026,10.329h-5.803l9.803,14.712l9.805-14.712H57.817z"/>
	<linearGradient id="SVGID_2_" gradientUnits="userSpaceOnUse" x1="24.4282" y1="57.8379" x2="24.4282" y2="18.269">
		<stop  offset="0" style="stop-color:#3F3F3F"/>
		<stop  offset="1" style="stop-color:#747474"/>
	</linearGradient>
	<path style="fill:url(#SVGID_2_);" d="M42.264,46.627c-3.014,2.117-6.553,3.234-10.225,3.234h-0.25
		c-0.486-0.012-0.986-0.025-1.46-0.076l-0.605-0.08c-0.369-0.053-0.75-0.092-1.132-0.172c-0.198-0.039-0.408-0.092-0.671-0.156
		c-0.355-0.078-0.724-0.158-1.079-0.264l-0.5-0.172c-0.408-0.145-0.816-0.275-1.225-0.447l-0.25-0.119
		c-0.46-0.195-0.921-0.42-1.421-0.682c-1.5-0.832-2.868-1.844-4.132-3.121c-0.369-0.367-0.737-0.764-1.066-1.172l-0.21-0.275
		c-2.355-2.936-3.698-6.434-3.896-10.145h5.803l-9.804-14.712L0.339,32.98h5.843c0.184,4.895,1.75,9.58,4.526,13.605l0.132,0.211
		c0.224,0.33,0.474,0.646,0.724,0.949l0.579,0.748c0.474,0.566,0.974,1.105,1.486,1.633l0.146,0.145
		c1.711,1.723,3.658,3.184,5.79,4.342l0.184,0.105c0.605,0.328,1.237,0.633,1.882,0.922l0.475,0.211
		c0.553,0.223,1.105,0.42,1.697,0.617c0.25,0.092,0.514,0.172,0.776,0.25c0.486,0.145,0.986,0.264,1.514,0.395l0.303,0.08
		c0.236,0.039,0.46,0.092,0.828,0.172c0.105,0.037,0.197,0.051,0.29,0.064c0.395,0.078,0.789,0.119,1.184,0.158l0.777,0.107
		c0.855,0.076,1.724,0.143,2.578,0.143c5.29,0,10.396-1.619,14.766-4.684c0.868-0.605,1.46-1.529,1.632-2.566
		c0.197-1.055-0.04-2.105-0.646-2.977C46.58,45.889,44.001,45.416,42.264,46.627z"/>
	<linearGradient id="SVGID_3_" gradientUnits="userSpaceOnUse" x1="32.9878" y1="40.8994" x2="32.9878" y2="21.1084">
		<stop  offset="0" style="stop-color:#3F3F3F"/>
		<stop  offset="1" style="stop-color:#747474"/>
	</linearGradient>
	<path style="fill:url(#SVGID_3_);" d="M30.079,27.81c0.092-1.027-0.316-1.672-1.027-4.923c-0.604-2.75-4.736-1.935-4.921-0.092
		c0,0-0.961,5.396,4.908,11.988c0.053,0.053,0.105,0.105,0.158,0.17c0.053,0.053,0.104,0.119,0.157,0.186
		c5.882,6.58,10.896,5.725,10.896,5.725c1.711-0.133,2.605-4.58,0.092-5.318c-2.974-0.881-3.566-1.342-4.513-1.289
		c-1.014,0.066-0.659,1.619-1.527,1.803c-0.829,0.184-2.487-1.014-3.776-2.486c-1.316-1.448-2.369-3.276-2.172-4.184
		C28.565,28.467,29.986,28.901,30.079,27.81z"/>
</g>
<g>
</g>
<g>
</g>
<g>
</g>
<g>
</g>
<g>
</g>
</svg>
