<?xml version="1.0" encoding="UTF-8" standalone="no"?>
<svg width="63px" height="55px" viewBox="0 0 63 55" version="1.1" xmlns="http://www.w3.org/2000/svg" xmlns:xlink="http://www.w3.org/1999/xlink" xmlns:sketch="http://www.bohemiancoding.com/sketch/ns">
    <!-- Generator: Sketch 3.3 (11970) - http://www.bohemiancoding.com/sketch -->
    <title>Shape</title>
    <desc>Created with Sketch.</desc>
    <defs></defs>
    <g id="Page-1" stroke="none" stroke-width="1" fill="none" fill-rule="evenodd" sketch:type="MSPage">
        <g id="Artboard-1" sketch:type="MSArtboardGroup" transform="translate(0.000000, -5.000000)" fill="#AB9D80">
            <path d="M43.3128706,5 L19.6871294,5 C8.81407059,5 0,13.7947053 0,24.6429628 C0,33.4376681 5.79451765,40.8798537 13.7814353,43.3837528 L13.7814353,60 L29.5314353,44.2859256 L43.3128706,44.2859256 C54.1859294,44.2859256 63,35.4919598 63,24.6437023 C63,13.7947053 54.1859294,5 43.3128706,5 L43.3128706,5 Z M17.7185647,28.5718511 C15.5439529,28.5718511 13.7814353,26.8126143 13.7814353,24.6437023 C13.7814353,22.4740508 15.5446941,20.7155534 17.7185647,20.7155534 C19.8924353,20.7155534 21.6556941,22.4740508 21.6556941,24.6437023 C21.6564353,26.8126143 19.8931765,28.5718511 17.7185647,28.5718511 L17.7185647,28.5718511 Z M31.5,28.5718511 C29.3253882,28.5718511 27.5628706,26.8126143 27.5628706,24.6437023 C27.5628706,22.4740508 29.3261294,20.7155534 31.5,20.7155534 C33.6738706,20.7155534 35.4371294,22.4740508 35.4371294,24.6437023 C35.4371294,26.8126143 33.6746118,28.5718511 31.5,28.5718511 L31.5,28.5718511 Z M45.2814353,28.5718511 C43.1068235,28.5718511 41.3443059,26.8126143 41.3443059,24.6437023 C41.3443059,22.4740508 43.1075647,20.7155534 45.2814353,20.7155534 C47.4553059,20.7155534 49.2185647,22.4740508 49.2185647,24.6437023 C49.2185647,26.8126143 47.4560471,28.5718511 45.2814353,28.5718511 L45.2814353,28.5718511 Z" id="Shape" sketch:type="MSShapeGroup"></path>
        </g>
    </g>
</svg>