<?xml version="1.0" encoding="utf-8"?>
<!-- Generator: Adobe Illustrator 16.0.0, SVG Export Plug-In . SVG Version: 6.00 Build 0)  -->
<!DOCTYPE svg PUBLIC "-//W3C//DTD SVG 1.1//EN" "http://www.w3.org/Graphics/SVG/1.1/DTD/svg11.dtd">
<svg version="1.1" id="Layer_1" xmlns="http://www.w3.org/2000/svg" xmlns:xlink="http://www.w3.org/1999/xlink" x="0px" y="0px"
	 width="64px" height="64px" viewBox="0 0 64 64" style="enable-background:new 0 0 64 64;" xml:space="preserve">
<path style="fill:#C0B193;" d="M13.38,44.555c0,0.065,0.026,0.117,0.039,0.184c-0.013,0.065-0.039,0.119-0.039,0.184V44.555z
	 M35.935,45.804H14.801c-0.711,0-1.289-0.407-1.382-1.065c0.093-0.658,0.671-1.066,1.382-1.066h21.134
	c0.724,0,1.303,0.408,1.395,1.066C37.237,45.396,36.658,45.804,35.935,45.804z M37.369,44.922c0-0.064-0.026-0.118-0.04-0.184
	c0.014-0.066,0.04-0.118,0.04-0.184V44.922z M13.38,40.592c0,0.067,0.026,0.133,0.039,0.199c-0.013,0.064-0.039,0.119-0.039,0.182
	V40.592z M35.935,41.856H14.801c-0.711,0-1.276-0.408-1.382-1.065c0.105-0.659,0.671-1.078,1.382-1.078h21.134
	c0.724,0,1.289,0.419,1.395,1.078C37.224,41.448,36.658,41.856,35.935,41.856z M37.369,40.973c0-0.063-0.026-0.117-0.04-0.182
	c0.014-0.066,0.04-0.132,0.04-0.199V40.973z M13.38,36.633c0,0.066,0.026,0.13,0.039,0.195c-0.013,0.068-0.039,0.12-0.039,0.186
	V36.633z M35.935,37.896H14.801c-0.711,0-1.276-0.41-1.382-1.068c0.105-0.656,0.671-1.078,1.382-1.078h21.134
	c0.724,0,1.289,0.422,1.395,1.078C37.224,37.486,36.658,37.896,35.935,37.896z M37.369,37.014c0-0.065-0.026-0.117-0.04-0.186
	c0.014-0.065,0.04-0.129,0.04-0.195V37.014z M13.38,32.67c0,0.067,0.026,0.133,0.039,0.199c-0.013,0.065-0.039,0.118-0.039,0.184
	V32.67z M35.935,33.934H14.801c-0.711,0-1.276-0.408-1.382-1.064c0.105-0.658,0.671-1.08,1.382-1.08h21.134
	c0.724,0,1.289,0.422,1.395,1.08C37.224,33.525,36.658,33.934,35.935,33.934z M37.369,33.053c0-0.065-0.026-0.119-0.04-0.184
	c0.014-0.066,0.04-0.132,0.04-0.199V33.053z M13.38,28.71c0,0.067,0.026,0.131,0.039,0.197c-0.013,0.066-0.039,0.118-0.039,0.185
	V28.71z M35.935,29.974H14.801c-0.711,0-1.276-0.396-1.382-1.067c0.105-0.657,0.671-1.079,1.382-1.079h21.134
	c0.724,0,1.289,0.422,1.395,1.079C37.224,29.578,36.658,29.974,35.935,29.974z M37.369,29.092c0-0.066-0.026-0.119-0.04-0.185
	c0.014-0.066,0.04-0.13,0.04-0.197V29.092z M13.38,24.762c0,0.066,0.026,0.132,0.039,0.197c-0.013,0.066-0.039,0.119-0.039,0.185
	V24.762z M35.935,26.012H14.801c-0.711,0-1.276-0.394-1.382-1.052c0.105-0.671,0.671-1.078,1.382-1.078h21.134
	c0.724,0,1.289,0.407,1.395,1.078C37.224,25.618,36.658,26.012,35.935,26.012z M37.369,25.145c0-0.066-0.026-0.119-0.04-0.185
	c0.014-0.065,0.04-0.131,0.04-0.197V25.145z M39.014,8.3H23.17v9.658c0,1.067-0.868,1.935-1.934,1.935H11.155v27.845h27.858V8.3z
	 M19.301,10.155l-6.132,5.87h6.132V10.155z M39.014,51.608H11.155c-2.145,0-3.868-1.725-3.868-3.87v-29.78
	c0-1.053,0.434-2.052,1.197-2.789l10.08-9.659c0.724-0.683,1.685-1.065,2.672-1.065h17.777c2.145,0,3.868,1.724,3.868,3.855v39.438
	C42.882,49.884,41.158,51.608,39.014,51.608z M52.857,59.556H25.104c-2.132,0-3.855-1.737-3.855-3.87v-5.578l3.855-0.211v5.789
	h27.753V18.039H42.172l0.105-3.856h10.58c2.131,0,3.855,1.723,3.855,3.856v37.647C56.713,57.818,54.988,59.556,52.857,59.556z"/>
<g>
</g>
<g>
</g>
<g>
</g>
<g>
</g>
<g>
</g>
</svg>
