<?xml version="1.0" encoding="utf-8"?>
<!-- Generator: Adobe Illustrator 16.0.0, SVG Export Plug-In . SVG Version: 6.00 Build 0)  -->
<!DOCTYPE svg PUBLIC "-//W3C//DTD SVG 1.1//EN" "http://www.w3.org/Graphics/SVG/1.1/DTD/svg11.dtd">
<svg version="1.1" id="Layer_1" xmlns="http://www.w3.org/2000/svg" xmlns:xlink="http://www.w3.org/1999/xlink" x="0px" y="0px"
	 width="64px" height="64px" viewBox="0 0 64 64" style="enable-background:new 0 0 64 64;" xml:space="preserve">
<g>
	<rect x="12.315" y="15.19" style="fill:none;" width="39.368" height="25.283"/>
	<path style="fill:#EFEFEF;" d="M59.674,46.368l-3.732-2.947V13.163c0-1.188-0.973-2.163-2.162-2.163H10.223
		c-1.191,0-2.165,0.975-2.165,2.163v30.258l-3.73,2.947c-2.165,1.558-2.165,2.448-2.165,3.637v0.832C2.164,52.026,3.136,53,4.328,53
		h5.895h43.557h5.895c1.189,0,2.162-0.974,2.162-2.163v-0.832C61.836,48.816,61.836,47.926,59.674,46.368z M32,12.485
		c0.32,0,0.579,0.258,0.579,0.577S32.32,13.642,32,13.642c-0.319,0-0.578-0.26-0.578-0.579S31.68,12.485,32,12.485z M12.315,15.19
		h39.368v25.283H12.315V15.19z M15.297,45.389h2.903c0.306,0,0.553,0.247,0.553,0.552c0,0.306-0.247,0.553-0.553,0.553h-2.903
		c-0.306,0-0.553-0.247-0.553-0.553C14.745,45.636,14.992,45.389,15.297,45.389z M14.369,44.474c-0.305,0-0.552-0.248-0.552-0.553
		c0-0.306,0.248-0.553,0.552-0.553h1.475c0.305,0,0.553,0.247,0.553,0.553c0,0.305-0.248,0.553-0.553,0.553H14.369z M17.998,44.474
		c-0.306,0-0.553-0.248-0.553-0.553c0-0.306,0.247-0.553,0.553-0.553h2.872c0.306,0,0.553,0.247,0.553,0.553
		c0,0.305-0.247,0.553-0.553,0.553H17.998z M20.38,45.389h2.906c0.305,0,0.552,0.247,0.552,0.552c0,0.306-0.247,0.553-0.552,0.553
		H20.38c-0.305,0-0.553-0.247-0.553-0.553C19.828,45.636,20.076,45.389,20.38,45.389z M23.024,44.474
		c-0.306,0-0.553-0.248-0.553-0.553c0-0.306,0.247-0.553,0.553-0.553h2.872c0.306,0,0.553,0.247,0.553,0.553
		c0,0.305-0.247,0.553-0.553,0.553H23.024z M25.464,45.389h2.904c0.305,0,0.553,0.247,0.553,0.552c0,0.306-0.248,0.553-0.553,0.553
		h-2.904c-0.305,0-0.553-0.247-0.553-0.553C24.912,45.636,25.16,45.389,25.464,45.389z M28.05,44.474
		c-0.305,0-0.553-0.248-0.553-0.553c0-0.306,0.248-0.553,0.553-0.553h2.873c0.306,0,0.553,0.247,0.553,0.553
		c0,0.305-0.247,0.553-0.553,0.553H28.05z M30.548,45.389h2.903c0.307,0,0.553,0.247,0.553,0.552c0,0.306-0.246,0.553-0.553,0.553
		h-2.903c-0.306,0-0.553-0.247-0.553-0.553C29.996,45.636,30.243,45.389,30.548,45.389z M33.078,44.474
		c-0.305,0-0.553-0.248-0.553-0.553c0-0.306,0.248-0.553,0.553-0.553h2.871c0.305,0,0.553,0.247,0.553,0.553
		c0,0.305-0.248,0.553-0.553,0.553H33.078z M35.631,45.389h2.906c0.305,0,0.553,0.247,0.553,0.552c0,0.306-0.248,0.553-0.553,0.553
		h-2.906c-0.305,0-0.553-0.247-0.553-0.553C35.078,45.636,35.326,45.389,35.631,45.389z M38.104,44.474
		c-0.305,0-0.553-0.248-0.553-0.553c0-0.306,0.248-0.553,0.553-0.553h2.873c0.305,0,0.553,0.247,0.553,0.553
		c0,0.305-0.248,0.553-0.553,0.553H38.104z M40.715,45.389h2.904c0.305,0,0.553,0.247,0.553,0.552c0,0.306-0.248,0.553-0.553,0.553
		h-2.904c-0.305,0-0.553-0.247-0.553-0.553C40.162,45.636,40.41,45.389,40.715,45.389z M43.131,44.474
		c-0.307,0-0.553-0.248-0.553-0.553c0-0.306,0.246-0.553,0.553-0.553h2.871c0.307,0,0.553,0.247,0.553,0.553
		c0,0.305-0.246,0.553-0.553,0.553H43.131z M45.799,45.389h2.904c0.305,0,0.553,0.247,0.553,0.552c0,0.306-0.248,0.553-0.553,0.553
		h-2.904c-0.305,0-0.553-0.247-0.553-0.553C45.246,45.636,45.494,45.389,45.799,45.389z M48.156,44.474
		c-0.305,0-0.551-0.248-0.551-0.553c0-0.306,0.246-0.553,0.551-0.553h1.475c0.305,0,0.553,0.247,0.553,0.553
		c0,0.305-0.248,0.553-0.553,0.553H48.156z M10.128,48.515H8.654c-0.305,0-0.553-0.248-0.553-0.553s0.248-0.553,0.553-0.553h1.474
		c0.305,0,0.553,0.248,0.553,0.553S10.433,48.515,10.128,48.515z M11.092,45.94c0-0.305,0.248-0.552,0.553-0.552h1.474
		c0.305,0,0.553,0.247,0.553,0.552c0,0.306-0.248,0.553-0.553,0.553h-1.474C11.339,46.493,11.092,46.246,11.092,45.94z
		 M15.319,48.515h-2.966c-0.305,0-0.552-0.248-0.552-0.553s0.248-0.553,0.552-0.553h2.966c0.306,0,0.553,0.248,0.553,0.553
		S15.625,48.515,15.319,48.515z M20.508,48.515h-2.966c-0.305,0-0.553-0.248-0.553-0.553s0.248-0.553,0.553-0.553h2.966
		c0.306,0,0.553,0.248,0.553,0.553S20.814,48.515,20.508,48.515z M41.268,48.515h-0.832h-2.133h-2.225h-2.965h-2.225h-2.965h-2.226
		h-1.491h-1.473c-0.306,0-0.553-0.248-0.553-0.553s0.247-0.553,0.553-0.553h1.473h1.491h2.226h2.965h2.225h2.965h2.225h2.133h0.832
		c0.305,0,0.553,0.248,0.553,0.553S41.572,48.515,41.268,48.515z M46.459,48.515h-2.967c-0.305,0-0.553-0.248-0.553-0.553
		s0.248-0.553,0.553-0.553h2.967c0.305,0,0.553,0.248,0.553,0.553S46.764,48.515,46.459,48.515z M51.648,48.515h-2.967
		c-0.305,0-0.553-0.248-0.553-0.553s0.248-0.553,0.553-0.553h2.967c0.305,0,0.553,0.248,0.553,0.553S51.953,48.515,51.648,48.515z
		 M52.355,46.493h-1.475c-0.305,0-0.553-0.247-0.553-0.553c0-0.305,0.248-0.552,0.553-0.552h1.475c0.305,0,0.553,0.247,0.553,0.552
		C52.908,46.246,52.66,46.493,52.355,46.493z M55.346,48.515h-1.475c-0.305,0-0.551-0.248-0.551-0.553s0.246-0.553,0.551-0.553
		h1.475c0.305,0,0.553,0.248,0.553,0.553S55.65,48.515,55.346,48.515z"/>
	<circle style="fill:#FFFFFF;" cx="32" cy="13.063" r="0.578"/>
	<path style="fill:#FFFFFF;" d="M16.396,43.921c0-0.306-0.248-0.553-0.553-0.553h-1.475c-0.305,0-0.552,0.247-0.552,0.553
		c0,0.305,0.248,0.553,0.552,0.553h1.475C16.148,44.474,16.396,44.226,16.396,43.921z"/>
	<path style="fill:#FFFFFF;" d="M21.422,43.921c0-0.306-0.247-0.553-0.553-0.553h-2.872c-0.306,0-0.553,0.247-0.553,0.553
		c0,0.305,0.247,0.553,0.553,0.553h2.872C21.175,44.474,21.422,44.226,21.422,43.921z"/>
	<path style="fill:#FFFFFF;" d="M31.476,43.921c0-0.306-0.247-0.553-0.553-0.553H28.05c-0.305,0-0.553,0.247-0.553,0.553
		c0,0.305,0.248,0.553,0.553,0.553h2.873C31.229,44.474,31.476,44.226,31.476,43.921z"/>
	<path style="fill:#FFFFFF;" d="M36.502,43.921c0-0.306-0.248-0.553-0.553-0.553h-2.871c-0.305,0-0.553,0.247-0.553,0.553
		c0,0.305,0.248,0.553,0.553,0.553h2.871C36.254,44.474,36.502,44.226,36.502,43.921z"/>
	<path style="fill:#FFFFFF;" d="M46.555,43.921c0-0.306-0.246-0.553-0.553-0.553h-2.871c-0.307,0-0.553,0.247-0.553,0.553
		c0,0.305,0.246,0.553,0.553,0.553h2.871C46.309,44.474,46.555,44.226,46.555,43.921z"/>
	<path style="fill:#FFFFFF;" d="M41.529,43.921c0-0.306-0.248-0.553-0.553-0.553h-2.873c-0.305,0-0.553,0.247-0.553,0.553
		c0,0.305,0.248,0.553,0.553,0.553h2.873C41.281,44.474,41.529,44.226,41.529,43.921z"/>
	<path style="fill:#FFFFFF;" d="M26.449,43.921c0-0.306-0.247-0.553-0.553-0.553h-2.872c-0.306,0-0.553,0.247-0.553,0.553
		c0,0.305,0.247,0.553,0.553,0.553h2.872C26.202,44.474,26.449,44.226,26.449,43.921z"/>
	<path style="fill:#FFFFFF;" d="M50.184,43.921c0-0.306-0.248-0.553-0.553-0.553h-1.475c-0.305,0-0.551,0.247-0.551,0.553
		c0,0.305,0.246,0.553,0.551,0.553h1.475C49.936,44.474,50.184,44.226,50.184,43.921z"/>
	<path style="fill:#FFFFFF;" d="M13.671,45.94c0-0.305-0.248-0.552-0.553-0.552h-1.474c-0.305,0-0.553,0.247-0.553,0.552
		c0,0.306,0.248,0.553,0.553,0.553h1.474C13.423,46.493,13.671,46.246,13.671,45.94z"/>
	<path style="fill:#FFFFFF;" d="M25.464,46.493h2.904c0.305,0,0.553-0.247,0.553-0.553c0-0.305-0.248-0.552-0.553-0.552h-2.904
		c-0.305,0-0.553,0.247-0.553,0.552C24.912,46.246,25.16,46.493,25.464,46.493z"/>
	<path style="fill:#FFFFFF;" d="M40.715,46.493h2.904c0.305,0,0.553-0.247,0.553-0.553c0-0.305-0.248-0.552-0.553-0.552h-2.904
		c-0.305,0-0.553,0.247-0.553,0.552C40.162,46.246,40.41,46.493,40.715,46.493z"/>
	<path style="fill:#FFFFFF;" d="M35.631,46.493h2.906c0.305,0,0.553-0.247,0.553-0.553c0-0.305-0.248-0.552-0.553-0.552h-2.906
		c-0.305,0-0.553,0.247-0.553,0.552C35.078,46.246,35.326,46.493,35.631,46.493z"/>
	<path style="fill:#FFFFFF;" d="M15.297,46.493h2.903c0.306,0,0.553-0.247,0.553-0.553c0-0.305-0.247-0.552-0.553-0.552h-2.903
		c-0.306,0-0.553,0.247-0.553,0.552C14.745,46.246,14.992,46.493,15.297,46.493z"/>
	<path style="fill:#FFFFFF;" d="M20.38,46.493h2.906c0.305,0,0.552-0.247,0.552-0.553c0-0.305-0.247-0.552-0.552-0.552H20.38
		c-0.305,0-0.553,0.247-0.553,0.552C19.828,46.246,20.076,46.493,20.38,46.493z"/>
	<path style="fill:#FFFFFF;" d="M30.548,46.493h2.903c0.307,0,0.553-0.247,0.553-0.553c0-0.305-0.246-0.552-0.553-0.552h-2.903
		c-0.306,0-0.553,0.247-0.553,0.552C29.996,46.246,30.243,46.493,30.548,46.493z"/>
	<path style="fill:#FFFFFF;" d="M45.799,46.493h2.904c0.305,0,0.553-0.247,0.553-0.553c0-0.305-0.248-0.552-0.553-0.552h-2.904
		c-0.305,0-0.553,0.247-0.553,0.552C45.246,46.246,45.494,46.493,45.799,46.493z"/>
	<path style="fill:#FFFFFF;" d="M52.355,45.389h-1.475c-0.305,0-0.553,0.247-0.553,0.552c0,0.306,0.248,0.553,0.553,0.553h1.475
		c0.305,0,0.553-0.247,0.553-0.553C52.908,45.636,52.66,45.389,52.355,45.389z"/>
	<path style="fill:#FFFFFF;" d="M10.128,47.409H8.654c-0.305,0-0.553,0.248-0.553,0.553s0.248,0.553,0.553,0.553h1.474
		c0.305,0,0.553-0.248,0.553-0.553S10.433,47.409,10.128,47.409z"/>
	<path style="fill:#FFFFFF;" d="M51.648,47.409h-2.967c-0.305,0-0.553,0.248-0.553,0.553s0.248,0.553,0.553,0.553h2.967
		c0.305,0,0.553-0.248,0.553-0.553S51.953,47.409,51.648,47.409z"/>
	<path style="fill:#FFFFFF;" d="M46.459,47.409h-2.967c-0.305,0-0.553,0.248-0.553,0.553s0.248,0.553,0.553,0.553h2.967
		c0.305,0,0.553-0.248,0.553-0.553S46.764,47.409,46.459,47.409z"/>
	<path style="fill:#FFFFFF;" d="M20.508,47.409h-2.966c-0.305,0-0.553,0.248-0.553,0.553s0.248,0.553,0.553,0.553h2.966
		c0.306,0,0.553-0.248,0.553-0.553S20.814,47.409,20.508,47.409z"/>
	<path style="fill:#FFFFFF;" d="M15.319,47.409h-2.966c-0.305,0-0.552,0.248-0.552,0.553s0.248,0.553,0.552,0.553h2.966
		c0.306,0,0.553-0.248,0.553-0.553S15.625,47.409,15.319,47.409z"/>
	<path style="fill:#FFFFFF;" d="M41.268,47.409h-0.832h-2.133h-2.225h-2.965h-2.225h-2.965h-2.226h-1.491h-1.473
		c-0.306,0-0.553,0.248-0.553,0.553s0.247,0.553,0.553,0.553h1.473h1.491h2.226h2.965h2.225h2.965h2.225h2.133h0.832
		c0.305,0,0.553-0.248,0.553-0.553S41.572,47.409,41.268,47.409z"/>
	<path style="fill:#FFFFFF;" d="M55.346,47.409h-1.475c-0.305,0-0.551,0.248-0.551,0.553s0.246,0.553,0.551,0.553h1.475
		c0.305,0,0.553-0.248,0.553-0.553S55.65,47.409,55.346,47.409z"/>
</g>
<g>
</g>
<g>
</g>
<g>
</g>
<g>
</g>
<g>
</g>
</svg>
