<?xml version="1.0" encoding="utf-8"?>
<!-- Generator: Adobe Illustrator 16.0.0, SVG Export Plug-In . SVG Version: 6.00 Build 0)  -->
<!DOCTYPE svg PUBLIC "-//W3C//DTD SVG 1.1//EN" "http://www.w3.org/Graphics/SVG/1.1/DTD/svg11.dtd">
<svg version="1.1" id="Layer_1" xmlns="http://www.w3.org/2000/svg" xmlns:xlink="http://www.w3.org/1999/xlink" x="0px" y="0px"
	 width="64px" height="64px" viewBox="0 0 64 64" style="enable-background:new 0 0 64 64;" xml:space="preserve">
<path style="fill:#EFEFEF;" d="M42.35,46.908H21.663V16.985H42.35V46.908z M32.006,52.791c-1.053,0-1.908-0.867-1.908-1.934
	c0-1.08,0.855-1.947,1.908-1.947c1.052,0,1.908,0.867,1.908,1.947C33.914,51.924,33.059,52.791,32.006,52.791z M28.69,12.024h6.618
	c0.303,0,0.539,0.25,0.539,0.539c0,0.303-0.236,0.554-0.539,0.554H28.69c-0.29,0-0.54-0.251-0.54-0.554
	C28.15,12.274,28.4,12.024,28.69,12.024z M40.809,9.235H23.189c-1.96,0-3.566,1.631-3.566,3.631v38.279
	c0,2.002,1.605,3.621,3.566,3.621h17.619c1.975,0,3.568-1.619,3.568-3.621V12.866C44.377,10.866,42.783,9.235,40.809,9.235z"/>
<g>
</g>
<g>
</g>
<g>
</g>
<g>
</g>
<g>
</g>
</svg>
