<?xml version="1.0" encoding="utf-8"?>
<!-- Generator: Adobe Illustrator 16.0.0, SVG Export Plug-In . SVG Version: 6.00 Build 0)  -->
<!DOCTYPE svg PUBLIC "-//W3C//DTD SVG 1.0//EN" "http://www.w3.org/TR/2001/REC-SVG-20010904/DTD/svg10.dtd">
<svg version="1.0" id="Layer_1" xmlns="http://www.w3.org/2000/svg" xmlns:xlink="http://www.w3.org/1999/xlink" x="0px" y="0px"
	 width="64px" height="64px" viewBox="0 0 64 64" style="enable-background:new 0 0 64 64;" xml:space="preserve">
<g>
	<linearGradient id="SVGID_1_" gradientUnits="userSpaceOnUse" x1="44.0605" y1="64" x2="44.0605" y2="3.128052e-004">
		<stop  offset="0" style="stop-color:#3F3F3F"/>
		<stop  offset="1" style="stop-color:#747474"/>
	</linearGradient>
	<path style="fill:url(#SVGID_1_);" d="M44.061,1.135c-10.396,0-18.87,8.528-18.87,19.016c0,10.488,8.475,19.016,18.87,19.016
		s18.871-8.527,18.871-19.016C62.932,9.663,54.456,1.135,44.061,1.135z M44.061,35.323c-8.29,0-15.041-6.803-15.041-15.173
		c0-8.356,6.75-15.158,15.041-15.158s15.041,6.802,15.041,15.158C59.102,28.521,52.351,35.323,44.061,35.323z"/>
	<linearGradient id="SVGID_2_" gradientUnits="userSpaceOnUse" x1="28.5845" y1="64" x2="28.5845" y2="4.005432e-004">
		<stop  offset="0" style="stop-color:#3F3F3F"/>
		<stop  offset="1" style="stop-color:#747474"/>
	</linearGradient>
	<path style="fill:url(#SVGID_2_);" d="M51.283,47.456c-9.172-2.526-10.988-3.867-13.936-3.697
		c-3.106,0.184-2.014,4.645-4.698,5.198c-2.579,0.54-7.698-2.936-11.672-7.186c-4.066-4.146-7.316-9.421-6.698-12.001
		c0.645-2.686,5.027-1.421,5.316-4.554c0.276-2.96-0.987-4.828-3.158-14.159c-1.855-7.908-14.62-5.554-15.186-0.276
		c0,0-2.987,15.528,15.146,34.464c0.158,0.186,0.329,0.342,0.487,0.514c0.171,0.171,0.316,0.342,0.487,0.514
		c18.133,18.95,33.634,16.488,33.634,16.488C56.27,62.38,59.06,49.602,51.283,47.456z"/>
	<linearGradient id="SVGID_3_" gradientUnits="userSpaceOnUse" x1="44.1768" y1="64" x2="44.1768" y2="5.035400e-004">
		<stop  offset="0" style="stop-color:#3F3F3F"/>
		<stop  offset="1" style="stop-color:#747474"/>
	</linearGradient>
	<path style="fill:url(#SVGID_3_);" d="M53.548,19.217c-0.013-0.013-0.039-0.04-0.053-0.053c-0.013-0.026-0.025-0.041-0.052-0.065
		l-6.777-6.685c-0.211-0.211-0.5-0.316-0.776-0.316c-0.289,0-0.579,0.105-0.803,0.329c-0.435,0.446-0.422,1.171,0.013,1.605
		l4.816,4.751H35.704c-0.618,0-1.131,0.499-1.131,1.131c0,0.618,0.513,1.132,1.131,1.132h14.265l-4.882,4.947
		c-0.435,0.434-0.435,1.159,0.013,1.594c0.436,0.446,1.145,0.434,1.579,0l6.777-6.883c0.079-0.08,0.132-0.158,0.185-0.238
		c0-0.025,0.013-0.037,0.026-0.064c0.039-0.079,0.065-0.172,0.092-0.251c0-0.013,0-0.013,0-0.025
		c0.026-0.094,0.026-0.198,0.014-0.29c0-0.025,0-0.052,0-0.066c-0.014-0.104-0.04-0.196-0.08-0.289
		C53.653,19.388,53.601,19.31,53.548,19.217z"/>
</g>
</svg>
