<?xml version="1.0" encoding="utf-8"?>
<!-- Generator: Adobe Illustrator 16.0.0, SVG Export Plug-In . SVG Version: 6.00 Build 0)  -->
<!DOCTYPE svg PUBLIC "-//W3C//DTD SVG 1.0//EN" "http://www.w3.org/TR/2001/REC-SVG-20010904/DTD/svg10.dtd">
<svg version="1.0" id="Layer_1" xmlns="http://www.w3.org/2000/svg" xmlns:xlink="http://www.w3.org/1999/xlink" x="0px" y="0px"
	 width="64px" height="64px" viewBox="0 0 64 64" style="enable-background:new 0 0 64 64;" xml:space="preserve">
<g>
	<linearGradient id="SVGID_1_" gradientUnits="userSpaceOnUse" x1="46.248" y1="31.1348" x2="46.248" y2="81.1772">
		<stop  offset="0" style="stop-color:#E78601"/>
		<stop  offset="1" style="stop-color:#D27A02"/>
	</linearGradient>
	<path style="fill:url(#SVGID_1_);" d="M47.433,31.195c-0.395-0.033-0.789-0.061-1.191-0.061c-1.209,0-2.376,0.17-3.496,0.458
		c-5.22,1.347-9.278,5.616-10.328,10.995c-0.174,0.894-0.27,1.814-0.27,2.759c0,0.657,0.06,1.3,0.146,1.934
		c0.939,6.927,6.822,12.279,13.948,12.279c7.79,0,14.106-6.371,14.106-14.213C60.348,37.895,54.663,31.805,47.433,31.195z"/>
	<g>
		<path style="fill:#FFFFFF;" d="M46.87,44.385c1.38-1.495,2.598-2.806,5.059-2.806c3.519,0,4.438,1.495,4.438,4.024
			c0,2.621-1.104,4.139-4.554,4.231c-2.322,0.046-3.679-1.312-5.104-2.852c-1.426,1.54-2.621,2.852-5.059,2.852
			c-3.496,0-4.438-1.449-4.438-4.024c0-2.621,1.104-4.231,4.6-4.231C44.249,41.579,45.468,42.959,46.87,44.385z M45.675,45.765
			c-1.288-1.356-2.139-2.645-3.955-2.645c-2.07,0-2.646,1.012-2.646,2.529c0,1.633,0.507,2.645,2.737,2.645
			C43.604,48.294,44.433,47.099,45.675,45.765z M47.95,45.627c1.242,1.402,2.116,2.667,3.91,2.667c2.092,0,2.645-1.035,2.645-2.575
			c0-1.61-0.483-2.599-2.736-2.599C49.951,43.12,49.101,44.293,47.95,45.627z"/>
	</g>
	<linearGradient id="SVGID_2_" gradientUnits="userSpaceOnUse" x1="25.8257" y1="67.585" x2="25.8257" y2="-6.1213">
		<stop  offset="0" style="stop-color:#3F3F3F"/>
		<stop  offset="1" style="stop-color:#747474"/>
	</linearGradient>
	<path style="fill:url(#SVGID_2_);" d="M25.826,4.44c-5.921,0-11.501,2.276-15.686,6.408c-4.185,4.131-6.488,9.632-6.488,15.477
		c0,5.855,2.303,11.342,6.488,15.488c4.198,4.131,9.764,6.408,15.686,6.408c2.224,0,4.397-0.321,6.468-0.941
		c-0.086-0.634-0.146-1.276-0.146-1.934c0-0.944,0.096-1.865,0.27-2.759c-2.069,0.816-4.296,1.251-6.592,1.251
		c-4.737,0-9.198-1.814-12.541-5.131c-3.355-3.305-5.198-7.699-5.198-12.383c0-4.674,1.842-9.067,5.198-12.385
		c3.342-3.303,7.803-5.119,12.541-5.119c4.738,0,9.2,1.816,12.541,5.119c3.355,3.317,5.198,7.711,5.198,12.385
		c0,1.815-0.284,3.585-0.819,5.268c1.12-0.288,2.287-0.458,3.496-0.458c0.402,0,0.797,0.027,1.191,0.061
		c0.361-1.582,0.566-3.209,0.566-4.87c0-5.845-2.304-11.346-6.488-15.477C37.313,6.717,31.748,4.44,25.826,4.44z"/>
	<linearGradient id="SVGID_3_" gradientUnits="userSpaceOnUse" x1="17.7383" y1="67.585" x2="17.7383" y2="-6.1212">
		<stop  offset="0" style="stop-color:#3F3F3F"/>
		<stop  offset="1" style="stop-color:#747474"/>
	</linearGradient>
	<path style="fill:url(#SVGID_3_);" d="M15.366,32.795h1.244l0.303-1.077H18.5l0.311,1.077h1.3l-1.651-5.361h-1.443L15.366,32.795z
		 M17.702,28.939h0.016l0.486,1.733h-0.997L17.702,28.939z"/>
	<linearGradient id="SVGID_4_" gradientUnits="userSpaceOnUse" x1="13.2246" y1="67.585" x2="13.2246" y2="-6.1212">
		<stop  offset="0" style="stop-color:#3F3F3F"/>
		<stop  offset="1" style="stop-color:#747474"/>
	</linearGradient>
	<path style="fill:url(#SVGID_4_);" d="M14.935,28.781c0-0.902-0.438-1.347-1.746-1.347h-1.978v5.361h2.073
		c1.787,0,1.954-0.855,1.954-1.679c0-0.854-0.606-1.164-1.108-1.187v-0.017C14.608,29.787,14.935,29.454,14.935,28.781z
		 M12.447,28.472h0.662c0.446,0,0.558,0.15,0.558,0.483c0,0.316-0.056,0.53-0.431,0.53h-0.79V28.472z M13.348,31.741h-0.901V30.5
		h0.813c0.559,0,0.71,0.165,0.71,0.632C13.97,31.528,13.787,31.741,13.348,31.741z"/>
	<linearGradient id="SVGID_5_" gradientUnits="userSpaceOnUse" x1="22.2759" y1="67.585" x2="22.2759" y2="-6.1212">
		<stop  offset="0" style="stop-color:#3F3F3F"/>
		<stop  offset="1" style="stop-color:#747474"/>
	</linearGradient>
	<polygon style="fill:url(#SVGID_5_);" points="23.947,31.725 21.85,31.725 21.85,27.434 20.605,27.434 20.605,32.795 
		23.947,32.795 	"/>
	<linearGradient id="SVGID_6_" gradientUnits="userSpaceOnUse" x1="36.2002" y1="67.585" x2="36.2002" y2="-6.1212">
		<stop  offset="0" style="stop-color:#3F3F3F"/>
		<stop  offset="1" style="stop-color:#747474"/>
	</linearGradient>
	<polygon style="fill:url(#SVGID_6_);" points="37.201,30.5 37.16,30.5 35.559,27.434 34.043,27.434 34.043,32.795 35.199,32.795 
		35.199,29.367 35.23,29.367 37.018,32.795 38.357,32.795 38.357,27.434 37.201,27.434 	"/>
	<linearGradient id="SVGID_7_" gradientUnits="userSpaceOnUse" x1="26.6333" y1="67.585" x2="26.6333" y2="-6.1212">
		<stop  offset="0" style="stop-color:#3F3F3F"/>
		<stop  offset="1" style="stop-color:#747474"/>
	</linearGradient>
	<polygon style="fill:url(#SVGID_7_);" points="25.693,30.539 26.228,30.539 27.416,32.795 28.803,32.795 28.818,32.747 
		27.241,29.841 28.692,27.434 27.392,27.434 26.196,29.47 25.693,29.47 25.693,27.434 24.449,27.434 24.449,32.795 25.693,32.795 	
		"/>
	<linearGradient id="SVGID_8_" gradientUnits="userSpaceOnUse" x1="31.1836" y1="67.585" x2="31.1836" y2="-6.1212">
		<stop  offset="0" style="stop-color:#3F3F3F"/>
		<stop  offset="1" style="stop-color:#747474"/>
	</linearGradient>
	<path style="fill:url(#SVGID_8_);" d="M30.047,32.795l0.303-1.077h1.588l0.311,1.077h1.3l-1.651-5.361h-1.443l-1.637,5.313
		l0.026,0.048H30.047z M31.14,28.939h0.016l0.486,1.733h-0.997L31.14,28.939z"/>
	<linearGradient id="SVGID_9_" gradientUnits="userSpaceOnUse" x1="28.8237" y1="67.585" x2="28.8237" y2="-6.1214">
		<stop  offset="0" style="stop-color:#3F3F3F"/>
		<stop  offset="1" style="stop-color:#747474"/>
	</linearGradient>
	<polygon style="fill:url(#SVGID_9_);" points="28.844,32.795 28.818,32.747 28.803,32.795 	"/>
	<linearGradient id="SVGID_10_" gradientUnits="userSpaceOnUse" x1="18.1802" y1="67.585" x2="18.1802" y2="-6.1214">
		<stop  offset="0" style="stop-color:#3F3F3F"/>
		<stop  offset="1" style="stop-color:#747474"/>
	</linearGradient>
	<polygon style="fill:url(#SVGID_10_);" points="21.365,21.883 17.328,21.883 17.328,19.658 20.797,19.658 20.797,17.698 
		17.328,17.698 17.328,15.842 21.291,15.842 21.291,13.839 14.995,13.839 14.995,23.888 21.365,23.888 	"/>
	<linearGradient id="SVGID_11_" gradientUnits="userSpaceOnUse" x1="35.5107" y1="67.585" x2="35.5107" y2="-6.1216">
		<stop  offset="0" style="stop-color:#3F3F3F"/>
		<stop  offset="1" style="stop-color:#747474"/>
	</linearGradient>
	<polygon style="fill:url(#SVGID_11_);" points="36.438,15.828 34.568,15.828 34.568,18.054 32.401,18.054 32.401,19.85 
		34.568,19.85 34.568,22.077 36.438,22.077 36.438,19.85 38.621,19.85 38.621,18.054 36.438,18.054 	"/>
	<linearGradient id="SVGID_12_" gradientUnits="userSpaceOnUse" x1="26.7334" y1="67.585" x2="26.7334" y2="-6.1214">
		<stop  offset="0" style="stop-color:#3F3F3F"/>
		<stop  offset="1" style="stop-color:#747474"/>
	</linearGradient>
	<path style="fill:url(#SVGID_12_);" d="M30.786,20.132v-6.293h-2.168v6.442c0,1.484-0.688,1.825-1.75,1.825
		c-1.002,0-1.854-0.356-1.854-1.87v-6.397h-2.333v6.278c0,2.851,1.48,3.993,3.933,3.993C29.17,24.111,30.786,22.938,30.786,20.132z"
		/>
</g>
</svg>
