<?xml version="1.0" encoding="UTF-8" standalone="no"?>
<svg width="128px" height="128px" viewBox="0 0 128 128" version="1.1" xmlns="http://www.w3.org/2000/svg" xmlns:xlink="http://www.w3.org/1999/xlink" xmlns:sketch="http://www.bohemiancoding.com/sketch/ns">
    <!-- Generator: Sketch 3.3 (11970) - http://www.bohemiancoding.com/sketch -->
    <title>ico-placila-kartica</title>
    <desc>Created with Sketch.</desc>
    <defs></defs>
    <g id="Page-1" stroke="none" stroke-width="1" fill="none" fill-rule="evenodd" sketch:type="MSPage">
        <g id="ico-placila-kartica" sketch:type="MSArtboardGroup" fill="#C1B294">
            <g id="Imported-Layers" sketch:type="MSLayerGroup" transform="translate(-1.000000, 22.000000)">
                <path d="M6.36825,20.003 L123.05475,20.003 L123.05475,38.7039375 L6.36825,38.7039375 L6.36825,20.003 Z" id="Fill-1" sketch:type="MSShapeGroup"></path>
                <path d="M16.23825,42.8020625 L112.14525,42.8020625 L112.14525,54.582875 L16.23825,54.582875 L16.23825,42.8020625 Z M17.15175,53.6854375 L111.24225,53.6854375 L111.24225,43.6995 L17.15175,43.6995 L17.15175,53.6854375 Z" id="Fill-2" sketch:type="MSShapeGroup"></path>
                <path d="M118.50825,4.056625 L10.9095,4.056625 C8.72025,4.056625 6.783,5.1615625 5.6385,6.82675 C4.95075,7.833125 4.55175,9.047 4.55175,10.343875 L4.55175,75.8464375 C4.55175,79.3116875 7.4025,82.1285 10.9095,82.1285 L118.50825,82.1285 C120.70275,82.1285 122.63475,81.02875 123.77925,79.358375 C124.467,78.3571875 124.87125,77.1433125 124.87125,75.8464375 L124.87125,10.343875 C124.87125,6.8734375 122.01525,4.056625 118.50825,4.056625 L118.50825,4.056625 Z M123.0495,36.4629375 L120.32475,36.4629375 L120.32475,75.8464375 C120.32475,76.7335 119.65275,77.4441875 118.797,77.58425 C118.69725,77.5998125 118.608,77.6413125 118.50825,77.6413125 L10.9095,77.6413125 C9.912,77.6413125 9.093,76.83725 9.093,75.8464375 L9.093,10.343875 C9.093,9.6331875 9.52875,9.015875 10.13775,8.73575 C10.15875,8.725375 10.17975,8.6994375 10.206,8.6890625 C10.29525,8.6475625 10.4055,8.65275 10.5,8.632 C10.64175,8.5956875 10.76775,8.549 10.9095,8.549 L118.50825,8.549 C119.511,8.549 120.32475,9.3530625 120.32475,10.343875 L120.32475,20.137875 L123.0495,20.137875 L123.0495,36.4629375 L123.0495,36.4629375 Z" id="Fill-3" sketch:type="MSShapeGroup"></path>
            </g>
        </g>
    </g>
</svg>