<?xml version="1.0" encoding="utf-8"?>
<!-- Generator: Adobe Illustrator 16.0.0, SVG Export Plug-In . SVG Version: 6.00 Build 0)  -->
<!DOCTYPE svg PUBLIC "-//W3C//DTD SVG 1.0//EN" "http://www.w3.org/TR/2001/REC-SVG-20010904/DTD/svg10.dtd">
<svg version="1.0" id="Layer_1" xmlns="http://www.w3.org/2000/svg" xmlns:xlink="http://www.w3.org/1999/xlink" x="0px" y="0px"
	 width="64px" height="64px" viewBox="0 0 64 64" style="enable-background:new 0 0 64 64;" xml:space="preserve">
<g>
	<path style="fill:#C0B193;" d="M54.541,48.01H39.146V25.242h15.396V48.01z M46.936,53.352c-1.118,0-2.014-0.908-2.014-2.027
		s0.896-2.025,2.014-2.025c1.131,0,2.039,0.906,2.039,2.025S48.066,53.352,46.936,53.352z M44.659,21.531h4.566
		c0.421,0,0.749,0.342,0.749,0.764s-0.328,0.764-0.749,0.764h-4.566c-0.408,0-0.751-0.342-0.751-0.764S44.251,21.531,44.659,21.531z
		 M54.278,18.649h-14.66c-1.474,0-2.671,1.198-2.671,2.67v31.241c0,1.475,1.197,2.686,2.671,2.686h14.66
		c1.461,0,2.461-1.369,2.461-2.842V21.571C56.739,20.097,55.739,18.649,54.278,18.649z"/>
	<path style="fill:#C0B193;" d="M32.947,45.785h-5.5c-0.54,0-1.105,0.42-1.25,0.934l-0.922,3.145
		c-0.158,0.527-0.724,0.949-1.263,0.949H22.67c-0.54,0-0.987,0.434-0.987,0.971v0.502c0,0.539,0.447,0.973,0.987,0.973h7.237
		c0.54,0,1.04,0,1.105,0s0.565,0,1.105,0h0.866c-0.024-0.229-0.037-0.462-0.037-0.697V45.785z"/>
	<path style="fill:#C0B193;" d="M11.222,36.455L11.13,12.557h39.753l-0.007,2.093h3.402c0.16,0,0.316,0.014,0.474,0.026v-3.962
		c0-1.078-0.882-1.96-1.961-1.96H9.234c-1.079,0-1.974,0.882-1.974,1.96v30.163c0,1.078,0.895,1.514,1.974,1.514h23.713v-5.936
		H11.222z"/>
</g>
</svg>
