<?xml version="1.0" encoding="utf-8"?>
<!-- Generator: Adobe Illustrator 16.0.0, SVG Export Plug-In . SVG Version: 6.00 Build 0)  -->
<!DOCTYPE svg PUBLIC "-//W3C//DTD SVG 1.0//EN" "http://www.w3.org/TR/2001/REC-SVG-20010904/DTD/svg10.dtd">
<svg version="1.0" id="Layer_1" xmlns="http://www.w3.org/2000/svg" xmlns:xlink="http://www.w3.org/1999/xlink" x="0px" y="0px"
	 width="64px" height="64px" viewBox="0 0 64 64" style="enable-background:new 0 0 64 64;" xml:space="preserve">
<path style="fill:#4F4A8A;" d="M43.838,36.053h-7.633v7.855h-6.541v-7.855h-7.58V29.71h7.58v-7.857h6.541v7.857h7.633V36.053z
	 M52.852,24.288c0.014-0.197,0.025-0.394,0.025-0.592c0-8.265-6.684-14.962-14.936-14.962c-6.631,0-12.25,4.317-14.198,10.316
	c-1.25-1.895-3.382-3.133-5.803-3.133c-3.843,0-6.961,3.12-6.961,6.976c0,0.356,0.04,0.711,0.092,1.054
	c-4.264,1.709-7.277,5.881-7.277,10.764c0,4.738,2.843,8.789,6.896,10.58c1.302,2.697,4.04,4.578,7.224,4.578
	c1.079,0,2.105-0.223,3.053-0.605c2,3.58,5.816,6.002,10.198,6.002c4.83,0,8.974-2.947,10.751-7.145
	c1.633,1.406,3.738,2.275,6.053,2.275c4.555,0,8.316-3.303,9.094-7.633c1.947-2.039,3.145-4.791,3.145-7.83
	C60.207,30.051,57.141,25.919,52.852,24.288z"/>
</svg>
