<?xml version="1.0" encoding="utf-8"?>
<!-- Generator: Adobe Illustrator 16.0.0, SVG Export Plug-In . SVG Version: 6.00 Build 0)  -->
<!DOCTYPE svg PUBLIC "-//W3C//DTD SVG 1.0//EN" "http://www.w3.org/TR/2001/REC-SVG-20010904/DTD/svg10.dtd">
<svg version="1.0" id="Layer_1" xmlns="http://www.w3.org/2000/svg" xmlns:xlink="http://www.w3.org/1999/xlink" x="0px" y="0px"
	 width="64px" height="64px" viewBox="0 0 64 64" style="enable-background:new 0 0 64 64;" xml:space="preserve">
<path style="fill:#231F20;" d="M54.629,9.375C48.38,3.125,40.19,0,32,0C23.81,0,15.623,3.125,9.374,9.375
	c-12.499,12.497-12.499,32.754,0,45.254C15.623,60.875,23.812,64,32,64c8.19,0,16.379-3.125,22.628-9.371
	C67.125,42.131,67.125,21.868,54.629,9.375z M32.438,56.867c-0.146,0.002-0.29,0.021-0.438,0.021
	c-6.647,0-12.897-2.586-17.599-7.289C9.701,44.898,7.111,38.645,7.111,32c0-6.646,2.59-12.896,7.293-17.598
	c0.416-0.416,0.859-0.797,1.3-1.181c0.65,2.176-1.49,2.705-1.086,5.094c2.183,0.417,4.224-2.123,5.954-0.932
	c1.275,0.877,1.993,4.592,1.639,5.947c-0.512,1.953-2.08,3.119-2.305,5.401c-0.178,1.81-0.824,6.112,1.734,5.674
	c0.166,3.352,3.131,4.023,5.313,5.354c1.934,1.182,3.719,4.369,5.945,4.75c-2.473,2.334,0.514,5.033,1.231,7.318
	C35.016,54.654,33.559,55.502,32.438,56.867z M49.599,49.6c-1.922,1.922-4.112,3.471-6.476,4.654
	c3.491-2.797,5.957-6.652,5.235-10.715c-0.449-2.529-5.931-6.156-8.222-7.186c-2.113-0.947-3.818-0.691-5.488,0.666
	c-1.521,1.236-1.776,3.566-4.323,2.328c-0.198-0.203-0.393-0.393-0.591-0.594c0.124-0.777-0.24-1.801-0.103-2.57
	c-1.166-0.58-2.262-0.654-3.236-1.525c1.635-1.125,1.917-2.23,0.26-3.193c-0.82-0.478-4.115,1.436-2.082-1.924
	c1.676-2.77,6.892-2.346,8.607-0.248c-0.104-2.77,1.272-4.365,2.43-6.725c0.976-1.991,1.432-4.87,4.399-4.549
	c0.245-1.502,1.162-4.252-1.096-4.442c0.568-3.712-2.37-3.984-4.68-5.669c1.849-0.679,3.487,0.388,5.346,0.388
	c2.387,0.761,4.639,1.887,6.703,3.34c0.459,0.723,0.862,1.406,1.18,1.984c0.473,0.865,0.589,1.827,1.129,2.687
	c0.307,0.489,1.316,0.647,1.479,0.93c0.671,1.171,0.66,3.102,1.171,4.464c1.052,2.806,1.966,4.104,2.141,7.631
	c0.131,2.641-0.405,6.219,0.052,8.836c1.078,0.205,2.029,0.053,2.766-0.424C55.152,42.193,52.913,46.287,49.599,49.6z"/>
</svg>
