<?xml version="1.0" encoding="UTF-8" standalone="no"?>
<svg width="128px" height="115px" viewBox="0 0 128 115" version="1.1" xmlns="http://www.w3.org/2000/svg" xmlns:xlink="http://www.w3.org/1999/xlink" xmlns:sketch="http://www.bohemiancoding.com/sketch/ns">
    <!-- Generator: Sketch 3.3.1 (12002) - http://www.bohemiancoding.com/sketch -->
    <title>Imported Layers + Imported Layers</title>
    <desc>Created with Sketch.</desc>
    <defs></defs>
    <g id="Page-1" stroke="none" stroke-width="1" fill="none" fill-rule="evenodd" sketch:type="MSPage">
        <g id="Artboard-1-Copy-2" sketch:type="MSArtboardGroup" transform="translate(-444.000000, -65.000000)">
            <g id="Imported-Layers-+-Imported-Layers" sketch:type="MSLayerGroup" transform="translate(444.000000, 66.000000)">
                <path d="M110.561648,69.3128499 L98.4780109,56.0879305 L98.4780109,55.9527088 L98.3178483,55.8806926 L107.221661,39.0549668 C107.421001,38.6787975 107.454032,38.236741 107.313457,37.8349064 C107.172883,37.4330717 106.870994,37.1074668 106.479997,36.9366201 L65.7648898,19.1290999 C65.0366683,18.8111564 64.1859244,19.0992209 63.8022254,19.7933338 L55.4810663,34.8703701 L47.1606753,19.7933338 C46.7773604,19.0984547 45.9262323,18.8111564 45.1976268,19.1290999 L4.48251955,36.9366201 C4.09190709,37.1074668 3.79001782,37.4330717 3.64944342,37.8349064 C3.50848494,38.236741 3.54151609,38.6787975 3.74123927,39.0549668 L12.6304573,55.8538781 L12.4848898,55.9193822 L12.5098552,55.9297249 L12.5098552,56.0772047 L12.5014054,56.0695434 L0.400869028,69.3128499 C0.0636441141,69.681741 -0.0719372007,70.1915999 0.036758301,70.6784749 C0.145837886,71.165733 0.486135464,71.5690999 0.948187367,71.7602491 L12.5098552,76.5374467 L12.5098552,94.0304709 C12.5098552,94.6414588 12.8728137,95.1930717 13.4347272,95.4363176 L54.7670559,113.312789 C54.9210732,113.379443 55.0835403,113.412003 55.248696,113.426177 C55.3666095,113.454523 55.4868275,113.472527 55.6097341,113.472527 C55.8209798,113.472527 56.0264642,113.430007 56.2208102,113.346116 L97.5531389,95.4696443 C98.1150524,95.2263983 98.4780109,94.6747854 98.4780109,94.0637975 L98.4780109,76.5271039 L110.014329,71.7602491 C110.476381,71.5690999 110.816679,71.165733 110.925758,70.6784749 C111.034454,70.1915999 110.898872,69.681741 110.561648,69.3128499 L110.561648,69.3128499 Z M15.5825195,57.2103096 L53.3943431,72.9703499 L41.4896891,85.1947047 L15.5825195,74.4899668 L15.5825195,57.2103096 L15.5825195,57.2103096 Z M95.4053465,57.2283136 L95.4053465,74.4796241 L69.4728275,85.1947047 L57.5443604,72.9454507 L95.4053465,57.2283136 L95.4053465,57.2283136 Z M65.816741,22.4981523 L103.733419,39.0817814 L95.5105853,54.6204104 L57.5032635,37.5606322 L65.816741,22.4981523 L65.816741,22.4981523 Z M7.22948148,39.0817814 L45.1457756,22.4981523 L53.4412012,37.5280717 L15.4377202,54.5932128 L7.22948148,39.0817814 L7.22948148,39.0817814 Z M4.14529463,69.7640999 L12.5098552,60.6100072 L12.5098552,73.220491 L4.14529463,69.7640999 L4.14529463,69.7640999 Z M15.5825195,93.0249265 L15.5825195,77.8073055 L41.2769071,88.4235555 C41.4670282,88.5020838 41.6667514,88.5403902 41.8645541,88.5403902 C42.2720663,88.5403902 42.6718967,88.378737 42.9672566,88.075733 L53.8417998,76.9090193 L53.8417998,109.572547 L15.5825195,93.0249265 L15.5825195,93.0249265 Z M95.4053465,93.0582531 L57.1460663,109.605874 L57.1460663,76.9346846 L67.9956441,88.075733 C68.2906199,88.378737 68.6904503,88.5403902 69.0979625,88.5403902 C69.2957652,88.5403902 69.4954884,88.5020838 69.6856095,88.4235555 L95.4053465,77.7965797 L95.4053465,93.0582531 L95.4053465,93.0582531 Z M98.4780109,73.2097652 L98.4780109,60.6375878 L106.817222,69.7640999 L98.4780109,73.2097652 L98.4780109,73.2097652 Z" id="Imported-Layers" fill="#C1B294" sketch:type="MSShapeGroup"></path>
                <g id="Imported-Layers" transform="translate(57.000000, 0.000000)" sketch:type="MSShapeGroup">
                    <path d="M67.7195,34.1074459 C67.7195,52.8109784 52.6226207,67.9729177 34,67.9729177 C15.3770862,67.9729177 0.2805,52.8109784 0.2805,34.1074459 C0.2805,15.4042078 15.3770862,0.242268398 34,0.242268398 C52.6226207,0.242268398 67.7195,15.4042078 67.7195,34.1074459" id="Fill-1" fill="#C1B294"></path>
                    <path d="M44.8958276,13.4242597 C44.8958276,18.5566407 40.7642414,31.5528831 35.3435862,34.1610216 C40.7642414,36.7694545 44.8958276,49.765697 44.8958276,54.8974892 L21.9889138,54.8974892 C21.9889138,49.765697 26.1199138,36.7694545 31.5408621,34.1610216 C26.1199138,31.5528831 21.9889138,18.5566407 21.9889138,13.4242597 L44.8958276,13.4242597 M46.6415517,11.6715671 L20.2428966,11.6715671 L20.2428966,13.4242597 C20.2428966,16.352381 21.3977241,21.1650736 23.1156034,25.4005022 C24.0872414,27.7955152 25.1673276,29.8611255 26.3268448,31.5408139 C27.0434828,32.5781818 27.7826897,33.4533506 28.5403621,34.1610216 C27.7826897,34.8686926 27.0434828,35.7438615 26.3268448,36.7809351 C25.1673276,38.4609177 24.0872414,40.5265281 23.1156034,42.9215411 C21.3977241,47.156381 20.2428966,51.969368 20.2428966,54.8974892 L20.2428966,56.6504762 L46.6415517,56.6504762 L46.6415517,54.8974892 C46.6415517,51.9696623 45.4867241,47.156381 43.7685517,42.9215411 C42.7972069,40.5265281 41.7168276,38.4609177 40.5573103,36.7809351 C39.8415517,35.7438615 39.1017586,34.8686926 38.3440862,34.1610216 C39.1017586,33.4533506 39.8415517,32.5781818 40.5573103,31.5408139 C41.7168276,29.8611255 42.7972069,27.7955152 43.7685517,25.4005022 C45.4867241,21.1650736 46.6415517,16.352381 46.6415517,13.4242597 L46.6415517,11.6715671" id="Fill-2" fill="#FFFFFF"></path>
                    <path d="M17.9004138,11.4272381 L49.1994655,11.4272381 L49.1994655,13.4645887 L17.9004138,13.4645887 L17.9004138,11.4272381 Z" id="Fill-3" fill="#FFFFFF"></path>
                    <path d="M17.6278276,54.8512727 L48.9265862,54.8512727 L48.9265862,56.8886234 L17.6278276,56.8886234 L17.6278276,54.8512727 Z" id="Fill-4" fill="#FFFFFF"></path>
                    <path d="M35.1316724,28.8072727 C35.1316724,28.8072727 33.2775,27.1637922 30.6592069,27.132 C29.931431,27.1231688 29.1107414,27.5032035 28.3055862,28.0560346 C29.8983103,30.7757403 31.7061724,33.0153247 33.4425172,33.8510476 C34.7591379,33.2172641 36.1170862,31.7751342 37.3915,29.9294199 C36.0948103,29.4136797 35.1316724,28.8072727 35.1316724,28.8072727" id="Fill-5" fill="#FFFFFF"></path>
                    <path d="M42.3598966,49.2905801 C40.2340172,49.5752381 38.2116034,48.6473766 36.629431,45.1157922 C33.8880345,38.9975584 31.804069,40.19271 29.1259828,46.3842424 C28.6071897,47.5835152 25.8927586,49.2381818 24.0989655,49.6073247 C23.2392931,52.0553247 23.2961552,52.4927619 23.2961552,53.8992727 L43.2585517,53.8992727 C43.2585517,52.4191688 43.3013448,51.8910649 42.3598966,49.2905801" id="Fill-6" fill="#FFFFFF"></path>
                </g>
            </g>
        </g>
    </g>
</svg>