<?xml version="1.0" encoding="utf-8"?>
<!-- Generator: Adobe Illustrator 16.0.0, SVG Export Plug-In . SVG Version: 6.00 Build 0)  -->
<!DOCTYPE svg PUBLIC "-//W3C//DTD SVG 1.0//EN" "http://www.w3.org/TR/2001/REC-SVG-20010904/DTD/svg10.dtd">
<svg version="1.0" id="Layer_1" xmlns="http://www.w3.org/2000/svg" xmlns:xlink="http://www.w3.org/1999/xlink" x="0px" y="0px"
	 width="64px" height="64px" viewBox="0 0 64 64" style="enable-background:new 0 0 64 64;" xml:space="preserve">
<g>
	<path style="fill:#C0B193;" d="M32,2.313c-16.396,0-29.688,13.291-29.688,29.687c0,16.397,13.291,29.688,29.688,29.688
		c16.396,0,29.687-13.291,29.687-29.688C61.688,15.604,48.396,2.313,32,2.313z M47.396,47.396c-4.119,4.105-9.58,6.369-15.396,6.369
		c-5.816,0-11.278-2.264-15.396-6.369c-4.106-4.119-6.369-9.579-6.369-15.396c0-5.815,2.263-11.277,6.369-15.396
		c4.119-4.104,9.58-6.369,15.396-6.369c5.816,0,11.277,2.265,15.396,6.369c4.105,4.119,6.369,9.581,6.369,15.396
		C53.766,37.817,51.502,43.277,47.396,47.396z"/>
	<path style="fill:#C0B193;" d="M42.988,29.876l-15.462-9.435c-1.816-1.106-3.303-0.263-3.303,1.854L24.21,41.72
		c-0.013,2.118,1.474,2.947,3.277,1.827l15.515-9.631C44.805,32.798,44.805,30.981,42.988,29.876z"/>
</g>
</svg>
