<?xml version="1.0" encoding="utf-8"?>
<!-- Generator: Adobe Illustrator 16.0.0, SVG Export Plug-In . SVG Version: 6.00 Build 0)  -->
<!DOCTYPE svg PUBLIC "-//W3C//DTD SVG 1.0//EN" "http://www.w3.org/TR/2001/REC-SVG-20010904/DTD/svg10.dtd">
<svg version="1.0" id="Layer_1" xmlns="http://www.w3.org/2000/svg" xmlns:xlink="http://www.w3.org/1999/xlink" x="0px" y="0px"
	 width="64px" height="64px" viewBox="0 0 64 64" style="enable-background:new 0 0 64 64;" xml:space="preserve">
<g>
	<linearGradient id="SVGID_1_" gradientUnits="userSpaceOnUse" x1="22.3081" y1="60.9902" x2="22.3081" y2="3.0103">
		<stop  offset="0" style="stop-color:#3F3F3F"/>
		<stop  offset="1" style="stop-color:#747474"/>
	</linearGradient>
	<path style="fill:url(#SVGID_1_);" d="M34.132,49.133H10.471V14.076h23.661V49.133z M22.301,58.016
		c-1.776,0-3.224-1.447-3.224-3.224c0-1.79,1.448-3.225,3.224-3.225c1.79,0,3.224,1.435,3.224,3.225
		C25.525,56.568,24.091,58.016,22.301,58.016z M18.683,7.577h7.25c0.658,0,1.211,0.538,1.211,1.209s-0.553,1.212-1.211,1.212h-7.25
		c-0.671,0-1.211-0.541-1.211-1.212S18.011,7.577,18.683,7.577z M33.96,3.01H10.642c-2.329,0-4.237,1.909-4.237,4.237v49.506
		c0,2.342,1.908,4.237,4.237,4.237H33.96c2.343,0,4.25-1.896,4.25-4.237V7.247C38.21,4.919,36.303,3.01,33.96,3.01z"/>
	<linearGradient id="SVGID_2_" gradientUnits="userSpaceOnUse" x1="50.3496" y1="19.1172" x2="50.3496" y2="44.9487">
		<stop  offset="0" style="stop-color:#E78601"/>
		<stop  offset="1" style="stop-color:#D27A02"/>
	</linearGradient>
	<path style="fill:url(#SVGID_2_);" d="M47.198,44.198c0.526,0.5,1.211,0.75,2.066,0.75c0.895,0,1.618-0.25,2.132-0.75
		c0.526-0.501,0.789-1.158,0.789-1.987s-0.263-1.486-0.789-1.986c-0.514-0.475-1.237-0.724-2.132-0.724
		c-0.855,0-1.54,0.249-2.066,0.724c-0.526,0.5-0.789,1.157-0.789,1.986S46.672,43.697,47.198,44.198z M51.08,37.145
		c0-0.987,0.171-1.816,0.5-2.447c0.33-0.646,0.737-1.211,1.211-1.697c0.474-0.487,1-0.947,1.566-1.369
		c0.565-0.434,1.092-0.922,1.565-1.486c0.475-0.553,0.869-1.224,1.197-2.027c0.316-0.79,0.475-1.802,0.475-3.014
		c0-1.828-0.619-3.276-1.882-4.355c-1.264-1.079-3-1.631-5.238-1.631c-1.657,0-3.079,0.21-4.263,0.618
		c-1.171,0.395-2.211,0.908-3.106,1.526l1.776,3.422c0.303-0.211,0.659-0.422,1.054-0.619c0.395-0.21,0.803-0.381,1.224-0.539
		c0.434-0.158,0.855-0.276,1.29-0.356c0.42-0.092,0.828-0.131,1.21-0.131c1.184,0,2.014,0.25,2.475,0.749
		c0.46,0.502,0.697,1.172,0.697,2.002c0,0.645-0.158,1.184-0.475,1.657c-0.303,0.461-0.684,0.908-1.157,1.33
		c-0.46,0.434-0.96,0.88-1.487,1.342c-0.54,0.461-1.014,0.999-1.435,1.631c-0.408,0.632-0.736,1.383-0.974,2.251
		s-0.303,1.921-0.184,3.145H51.08z"/>
</g>
</svg>
