<?xml version="1.0" encoding="utf-8"?>
<!-- Generator: Adobe Illustrator 16.0.0, SVG Export Plug-In . SVG Version: 6.00 Build 0)  -->
<!DOCTYPE svg PUBLIC "-//W3C//DTD SVG 1.0//EN" "http://www.w3.org/TR/2001/REC-SVG-20010904/DTD/svg10.dtd">
<svg version="1.0" id="Layer_1" xmlns="http://www.w3.org/2000/svg" xmlns:xlink="http://www.w3.org/1999/xlink" x="0px" y="0px"
	 width="64px" height="64px" viewBox="0 0 64 64" style="enable-background:new 0 0 64 64;" xml:space="preserve">
<path style="fill-rule:evenodd;clip-rule:evenodd;fill:#EA9521;" d="M31.931,46.454c-2.119,0-3.895,1.751-3.895,4.001
	c0,2.064,1.776,3.816,3.895,3.816c2.277,0,4.054-1.752,4.054-3.816C35.984,48.205,34.208,46.454,31.931,46.454z M28.247,25.558
	l1.105,18.7h5.277l1.053-18.7H28.247z M60.171,60.193c-2.922,0-54.242,0-56.256,0c-2.619,0-4.566-2.725-3.04-5.436
	c1.237-2.156,25.963-45.453,28.082-49.15c1.395-2.421,4.698-2.383,6.092,0c1.554,2.659,26.411,46.124,28.148,49.269
	C64.461,57.18,63.053,60.193,60.171,60.193z"/>
</svg>
