<?xml version="1.0" encoding="utf-8"?>
<!-- Generator: Adobe Illustrator 16.0.0, SVG Export Plug-In . SVG Version: 6.00 Build 0)  -->
<!DOCTYPE svg PUBLIC "-//W3C//DTD SVG 1.0//EN" "http://www.w3.org/TR/2001/REC-SVG-20010904/DTD/svg10.dtd">
<svg version="1.0" id="Layer_1" xmlns="http://www.w3.org/2000/svg" xmlns:xlink="http://www.w3.org/1999/xlink" x="0px" y="0px"
	 width="64px" height="64px" viewBox="0 0 64 64" style="enable-background:new 0 0 64 64;" xml:space="preserve">
<g>
	<path style="fill:#373179;" d="M1.268,11.462C1.268,51.928,32,63.291,32,63.291s7.463-2.672,15.034-10.264L8.09,6.616
		C3.577,9.116,1.268,11.462,1.268,11.462z"/>
	<path style="fill:#373179;" d="M62.732,11.462c0,0-10.578-10.754-30.733-10.754c-10.741,0-18.76,3.054-23.909,5.907l38.943,46.412
		C54.826,45.215,62.732,32.19,62.732,11.462z"/>
	<linearGradient id="SVGID_1_" gradientUnits="userSpaceOnUse" x1="3.7231" y1="26.8682" x2="70.5062" y2="26.8682">
		<stop  offset="0" style="stop-color:#FFFFFF"/>
		<stop  offset="1" style="stop-color:#FFFFFF;stop-opacity:0"/>
	</linearGradient>
	<path style="opacity:0.29;fill:url(#SVGID_1_);" d="M62.732,11.462c0,0-10.578-10.754-30.733-10.754
		c-10.741,0-18.76,3.054-23.909,5.907l38.943,46.412C54.826,45.215,62.732,32.19,62.732,11.462z"/>
</g>
</svg>
