<?xml version="1.0" encoding="utf-8"?>
<!-- Generator: Adobe Illustrator 16.0.0, SVG Export Plug-In . SVG Version: 6.00 Build 0)  -->
<!DOCTYPE svg PUBLIC "-//W3C//DTD SVG 1.0//EN" "http://www.w3.org/TR/2001/REC-SVG-20010904/DTD/svg10.dtd">
<svg version="1.0" id="Layer_1" xmlns="http://www.w3.org/2000/svg" xmlns:xlink="http://www.w3.org/1999/xlink" x="0px" y="0px"
	 width="64px" height="64px" viewBox="0 0 64 64" style="enable-background:new 0 0 64 64;" xml:space="preserve">
<g>
	<linearGradient id="SVGID_1_" gradientUnits="userSpaceOnUse" x1="28.7349" y1="64" x2="28.7349" y2="-1.665">
		<stop  offset="0" style="stop-color:#3F3F3F"/>
		<stop  offset="1" style="stop-color:#747474"/>
	</linearGradient>
	<path style="fill:url(#SVGID_1_);" d="M52.086,45.39c-9.436-2.592-11.304-3.96-14.331-3.79c-3.211,0.197-2.079,4.764-4.842,5.328
		c-2.659,0.554-7.922-3-12.001-7.369c-4.198-4.249-7.541-9.658-6.896-12.302c0.658-2.751,5.159-1.461,5.474-4.672
		c0.277-3.026-1.026-4.948-3.263-14.515C14.318-0.049,1.172,2.359,0.606,7.78c0,0-3.079,15.924,15.581,35.345
		c0.171,0.185,0.342,0.343,0.513,0.526c0.158,0.173,0.316,0.355,0.487,0.526C35.847,63.602,51.81,61.075,51.81,61.075
		C57.23,60.694,60.1,47.599,52.086,45.39z"/>
	<linearGradient id="SVGID_2_" gradientUnits="userSpaceOnUse" x1="41.8096" y1="63.999" x2="41.8096" y2="-1.6656">
		<stop  offset="0" style="stop-color:#3F3F3F"/>
		<stop  offset="1" style="stop-color:#747474"/>
	</linearGradient>
	<path style="fill:url(#SVGID_2_);" d="M63.233,24.926c-0.026-0.039-0.052-0.065-0.079-0.092c-0.026-0.025-0.04-0.066-0.066-0.092
		l-6.908-6.605c-0.315-0.304-0.737-0.461-1.145-0.461c-0.421,0-0.855,0.171-1.172,0.486c-0.631,0.646-0.631,1.659,0.027,2.276
		l3.882,3.829h-8.659H46.98c2.658-0.193,4.318-1.613,4.318-4.735V11.98h-2.572v7.731c0,1.781-0.815,2.19-2.075,2.19
		c-1.188,0-2.199-0.428-2.199-2.244V11.98h-2.768v7.535c0,3.166,1.519,4.561,4.049,4.753H25.861l3.895-3.829
		c0.645-0.617,0.658-1.631,0.027-2.276c-0.329-0.315-0.75-0.486-1.171-0.486c-0.421,0-0.829,0.157-1.158,0.461l-6.909,6.605
		c-0.026,0.025-0.053,0.066-0.079,0.092c-0.027,0.026-0.053,0.053-0.079,0.092c-0.093,0.119-0.171,0.237-0.224,0.369
		c-0.053,0.144-0.092,0.289-0.105,0.434c-0.013,0.04-0.013,0.066-0.013,0.105c-0.013,0.146-0.013,0.29,0.013,0.421
		c0.013,0.014,0.013,0.028,0.013,0.04c0.026,0.132,0.079,0.251,0.132,0.382c0.026,0.026,0.039,0.052,0.052,0.092
		c0.066,0.119,0.158,0.249,0.264,0.355l6.816,6.869c0.658,0.658,1.724,0.658,2.382,0c0.671-0.645,0.671-1.711,0.013-2.368
		l-3.948-4.001h23.331h8.738l-3.935,4.001c-0.658,0.656-0.658,1.723,0,2.368c0.657,0.658,1.736,0.658,2.395,0l6.79-6.869
		c0,0,0,0,0.013,0c0.105-0.106,0.185-0.236,0.251-0.355c0.025-0.04,0.039-0.065,0.052-0.092c0.054-0.131,0.105-0.25,0.133-0.382
		c0-0.012,0.013-0.026,0.013-0.04c0.025-0.131,0.025-0.275,0.014-0.421c0-0.039,0-0.065,0-0.105
		c-0.026-0.145-0.054-0.29-0.119-0.434C63.404,25.164,63.325,25.045,63.233,24.926z"/>
	<linearGradient id="SVGID_3_" gradientUnits="userSpaceOnUse" x1="36.3457" y1="64.001" x2="36.3457" y2="-1.6651">
		<stop  offset="0" style="stop-color:#3F3F3F"/>
		<stop  offset="1" style="stop-color:#747474"/>
	</linearGradient>
	<polygon style="fill:url(#SVGID_3_);" points="40.124,21.634 35.335,21.634 35.335,18.962 39.45,18.962 39.45,16.612 
		35.335,16.612 35.335,14.384 40.035,14.384 40.035,11.98 32.568,11.98 32.568,24.04 40.124,24.04 	"/>
</g>
</svg>
