<?xml version="1.0" encoding="utf-8"?>
<!-- Generator: Adobe Illustrator 16.0.0, SVG Export Plug-In . SVG Version: 6.00 Build 0)  -->
<!DOCTYPE svg PUBLIC "-//W3C//DTD SVG 1.0//EN" "http://www.w3.org/TR/2001/REC-SVG-20010904/DTD/svg10.dtd">
<svg version="1.0" id="Layer_1" xmlns="http://www.w3.org/2000/svg" xmlns:xlink="http://www.w3.org/1999/xlink" x="0px" y="0px"
	 width="64px" height="64px" viewBox="0 0 64 64" style="enable-background:new 0 0 64 64;" xml:space="preserve">
<g>
	<path style="fill-rule:evenodd;clip-rule:evenodd;fill:#C0B193;" d="M14.497,1.767h35.005c5.133,0,9.291,4.158,9.291,9.29v33.504
		c0,5.132-4.158,9.291-9.291,9.291H39.145l-7.146,8.382l-8.264-8.382h-9.238c-5.131,0-9.29-4.159-9.29-9.291V11.056
		C5.207,5.925,9.366,1.767,14.497,1.767z"/>
	<path style="fill-rule:evenodd;clip-rule:evenodd;fill:#FFFFFF;" d="M26.552,51.076c-0.736-0.765-1.75-1.187-2.816-1.187h-9.238
		c-2.934,0-5.328-2.396-5.328-5.329V11.056c0-2.933,2.395-5.327,5.328-5.327h35.005c2.936,0,5.33,2.394,5.33,5.327v33.504
		c0,2.934-2.395,5.329-5.33,5.329H39.145c-1.156,0-2.262,0.514-3.012,1.396c0,0-2.277,2.657-4.344,5.091
		C29.354,53.916,26.552,51.076,26.552,51.076"/>
</g>
<path d="M38.619,37.646H25.368v-19.74h13.251V37.646z M32,42.646c-1,0-1.803-0.816-1.803-1.816c0-1.002,0.803-1.816,1.803-1.816
	s1.803,0.814,1.803,1.816C33.803,41.83,33,42.646,32,42.646z M29.961,14.248h4.066c0.368,0,0.671,0.314,0.671,0.686
	c0,0.381-0.303,0.683-0.671,0.683h-4.066c-0.369,0-0.672-0.302-0.672-0.683C29.289,14.563,29.592,14.248,29.961,14.248z
	 M38.526,11.682H25.46c-1.303,0-2.368,1.065-2.368,2.381v27.873c0,1.315,1.065,2.383,2.368,2.383h13.066
	c1.304,0,2.382-1.067,2.382-2.383V14.063C40.908,12.747,39.83,11.682,38.526,11.682z"/>
</svg>
