<?xml version="1.0" encoding="utf-8"?>
<!-- Generator: Adobe Illustrator 16.0.0, SVG Export Plug-In . SVG Version: 6.00 Build 0)  -->
<!DOCTYPE svg PUBLIC "-//W3C//DTD SVG 1.0//EN" "http://www.w3.org/TR/2001/REC-SVG-20010904/DTD/svg10.dtd">
<svg version="1.0" id="Layer_1" xmlns="http://www.w3.org/2000/svg" xmlns:xlink="http://www.w3.org/1999/xlink" x="0px" y="0px"
	 width="64px" height="64px" viewBox="0 0 64 64" style="enable-background:new 0 0 64 64;" xml:space="preserve">
<g>
	<path style="fill:none;" d="M24.574,29.542c-2.033,3.359,1.262,1.446,2.082,1.924c1.657,0.963,1.375,2.068-0.26,3.193
		c0.975,0.871,2.07,0.945,3.236,1.525c-0.138,0.77,0.227,1.793,0.103,2.57c0.198,0.201,0.393,0.391,0.591,0.594
		c2.271,1.104,2.721-0.628,3.871-1.893l-7.874-9.385C25.599,28.388,24.98,28.869,24.574,29.542z"/>
	<path style="fill:none;" d="M7.111,32c0,6.645,2.59,12.899,7.291,17.6c4.701,4.703,10.951,7.289,17.599,7.289
		c0.147,0,0.291-0.02,0.438-0.021c1.121-1.365,2.578-2.213,1.691-5.039c-0.717-2.285-3.704-4.984-1.231-7.318
		c-2.227-0.381-4.012-3.568-5.945-4.75c-2.182-1.33-5.146-2.002-5.313-5.354c-2.559,0.438-1.912-3.865-1.734-5.674
		c0.225-2.282,1.793-3.448,2.305-5.401c0.01-0.04,0.017-0.087,0.025-0.131l-4.663-5.557c-0.942,0.415-1.933,0.868-2.955,0.672
		c-0.249-1.472,0.467-2.238,0.902-3.119l-0.861-1.026c-0.084,0.08-0.174,0.15-0.255,0.232C9.701,19.104,7.111,25.354,7.111,32z"/>
	<path style="fill:none;" d="M43.123,54.254c1.192-0.597,2.339-1.288,3.431-2.072l-0.611-0.729
		C45.135,52.467,44.177,53.409,43.123,54.254z"/>
	<path style="fill:#373179;" d="M14.618,18.315c1.022,0.195,2.013-0.257,2.955-0.672l-2.053-2.446
		C15.085,16.077,14.369,16.843,14.618,18.315z"/>
	<path style="fill:#373179;" d="M43.123,54.254c1.054-0.845,2.012-1.787,2.819-2.801L34.196,37.455
		c-1.149,1.265-1.599,2.997-3.871,1.893c-0.198-0.203-0.393-0.393-0.591-0.594c0.124-0.777-0.24-1.801-0.103-2.57
		c-1.166-0.58-2.262-0.654-3.236-1.525c1.635-1.125,1.917-2.23,0.26-3.193c-0.82-0.478-4.115,1.436-2.082-1.924
		c0.407-0.672,1.025-1.153,1.749-1.471L22.236,23.2c-0.009,0.043-0.015,0.091-0.025,0.131c-0.512,1.953-2.08,3.119-2.305,5.401
		c-0.178,1.81-0.824,6.112,1.734,5.674c0.166,3.352,3.131,4.023,5.313,5.354c1.934,1.182,3.719,4.369,5.945,4.75
		c-2.473,2.334,0.514,5.033,1.231,7.318c0.887,2.826-0.57,3.674-1.691,5.039c-0.146,0.002-0.29,0.021-0.438,0.021
		c-6.647,0-12.897-2.586-17.599-7.289C9.701,44.898,7.111,38.645,7.111,32c0-6.646,2.59-12.896,7.293-17.598
		c0.082-0.082,0.171-0.152,0.255-0.232l-4.584-5.463C9.841,8.928,9.603,9.145,9.374,9.375c-12.499,12.497-12.499,32.754,0,45.254
		C15.623,60.875,23.812,64,32,64c6.741,0,13.479-2.122,19.138-6.354l-4.585-5.464C45.462,52.966,44.315,53.657,43.123,54.254z"/>
	<linearGradient id="SVGID_1_" gradientUnits="userSpaceOnUse" x1="0.0425" y1="20.1309" x2="92.5145" y2="20.1309">
		<stop  offset="0" style="stop-color:#FFFFFF"/>
		<stop  offset="1" style="stop-color:#FFFFFF;stop-opacity:0"/>
	</linearGradient>
	<path style="opacity:0.29;fill:url(#SVGID_1_);" d="M20.572,17.383c-0.92-0.633-1.929-0.211-2.999,0.259l4.663,5.557
		C22.52,21.754,21.81,18.235,20.572,17.383z"/>
	<linearGradient id="SVGID_2_" gradientUnits="userSpaceOnUse" x1="0.0425" y1="14.209" x2="92.5145" y2="14.209">
		<stop  offset="0" style="stop-color:#FFFFFF"/>
		<stop  offset="1" style="stop-color:#FFFFFF;stop-opacity:0"/>
	</linearGradient>
	<path style="opacity:0.29;fill:url(#SVGID_2_);" d="M15.704,13.221c-0.354,0.309-0.703,0.625-1.044,0.949l0.861,1.026
		C15.791,14.648,15.953,14.056,15.704,13.221z"/>
	<linearGradient id="SVGID_3_" gradientUnits="userSpaceOnUse" x1="0.0425" y1="29.9321" x2="92.5143" y2="29.9321">
		<stop  offset="0" style="stop-color:#FFFFFF"/>
		<stop  offset="1" style="stop-color:#FFFFFF;stop-opacity:0"/>
	</linearGradient>
	<path style="opacity:0.29;fill:url(#SVGID_3_);" d="M34.648,37.02c1.67-1.357,3.375-1.613,5.488-0.666
		c2.291,1.029,7.772,4.656,8.222,7.186c0.504,2.836-0.549,5.569-2.416,7.914l0.611,0.729c1.073-0.77,2.093-1.63,3.045-2.582
		c3.314-3.313,5.554-7.406,6.601-11.855c-0.736,0.477-1.688,0.629-2.766,0.424c-0.457-2.617,0.079-6.196-0.052-8.836
		c-0.175-3.526-1.089-4.825-2.141-7.631c-0.511-1.362-0.5-3.293-1.171-4.464c-0.162-0.282-1.172-0.44-1.479-0.93
		c-0.54-0.859-0.656-1.821-1.129-2.687c-0.317-0.578-0.721-1.262-1.18-1.984c-2.064-1.453-4.316-2.579-6.703-3.34
		c-1.858,0-3.497-1.066-5.346-0.388c2.31,1.685,5.248,1.957,4.68,5.669c2.258,0.19,1.341,2.94,1.096,4.442
		c-2.968-0.321-3.424,2.558-4.399,4.549c-1.157,2.359-2.534,3.955-2.43,6.725c-1.299-1.588-4.602-2.213-6.858-1.223l7.874,9.385
		C34.336,37.301,34.483,37.153,34.648,37.02z"/>
	<path style="fill:#373179;" d="M48.358,43.539c-0.449-2.529-5.931-6.156-8.222-7.186c-2.113-0.947-3.818-0.691-5.488,0.666
		c-0.165,0.134-0.313,0.281-0.452,0.436l11.746,13.998C47.81,49.108,48.862,46.375,48.358,43.539z"/>
	<linearGradient id="SVGID_4_" gradientUnits="userSpaceOnUse" x1="0.0425" y1="43.6211" x2="92.5145" y2="43.6211">
		<stop  offset="0" style="stop-color:#FFFFFF"/>
		<stop  offset="1" style="stop-color:#FFFFFF;stop-opacity:0"/>
	</linearGradient>
	<path style="opacity:0.29;fill:url(#SVGID_4_);" d="M48.358,43.539c-0.449-2.529-5.931-6.156-8.222-7.186
		c-2.113-0.947-3.818-0.691-5.488,0.666c-0.165,0.134-0.313,0.281-0.452,0.436l11.746,13.998
		C47.81,49.108,48.862,46.375,48.358,43.539z"/>
	<path style="fill:#373179;" d="M54.629,9.375C48.38,3.125,40.19,0,32,0c-7.89,0-15.771,2.909-21.925,8.708l4.584,5.463
		c0.342-0.324,0.69-0.64,1.044-0.949c0.25,0.835,0.087,1.427-0.184,1.975l2.053,2.446c1.07-0.471,2.079-0.893,2.999-0.259
		c1.238,0.852,1.948,4.371,1.664,5.816l4.086,4.871c2.256-0.99,5.56-0.365,6.858,1.223c-0.104-2.77,1.272-4.365,2.43-6.725
		c0.976-1.991,1.432-4.87,4.399-4.549c0.245-1.502,1.162-4.252-1.096-4.442c0.568-3.712-2.37-3.984-4.68-5.669
		c1.849-0.679,3.487,0.388,5.346,0.388c2.387,0.761,4.639,1.887,6.703,3.34c0.459,0.723,0.862,1.406,1.18,1.984
		c0.473,0.865,0.589,1.827,1.129,2.687c0.307,0.489,1.316,0.647,1.479,0.93c0.671,1.171,0.66,3.102,1.171,4.464
		c1.052,2.806,1.966,4.104,2.141,7.631c0.131,2.641-0.405,6.219,0.052,8.836c1.078,0.205,2.029,0.053,2.766-0.424
		c-1.047,4.449-3.286,8.543-6.601,11.855c-0.952,0.952-1.972,1.813-3.045,2.582l4.585,5.464c1.216-0.909,2.385-1.912,3.49-3.017
		C67.125,42.131,67.125,21.868,54.629,9.375z"/>
	<linearGradient id="SVGID_5_" gradientUnits="userSpaceOnUse" x1="0.0425" y1="28.8223" x2="92.5144" y2="28.8223">
		<stop  offset="0" style="stop-color:#FFFFFF"/>
		<stop  offset="1" style="stop-color:#FFFFFF;stop-opacity:0"/>
	</linearGradient>
	<path style="opacity:0.29;fill:url(#SVGID_5_);" d="M54.629,9.375C48.38,3.125,40.19,0,32,0c-7.89,0-15.771,2.909-21.925,8.708
		l4.584,5.463c0.342-0.324,0.69-0.64,1.044-0.949c0.25,0.835,0.087,1.427-0.184,1.975l2.053,2.446
		c1.07-0.471,2.079-0.893,2.999-0.259c1.238,0.852,1.948,4.371,1.664,5.816l4.086,4.871c2.256-0.99,5.56-0.365,6.858,1.223
		c-0.104-2.77,1.272-4.365,2.43-6.725c0.976-1.991,1.432-4.87,4.399-4.549c0.245-1.502,1.162-4.252-1.096-4.442
		c0.568-3.712-2.37-3.984-4.68-5.669c1.849-0.679,3.487,0.388,5.346,0.388c2.387,0.761,4.639,1.887,6.703,3.34
		c0.459,0.723,0.862,1.406,1.18,1.984c0.473,0.865,0.589,1.827,1.129,2.687c0.307,0.489,1.316,0.647,1.479,0.93
		c0.671,1.171,0.66,3.102,1.171,4.464c1.052,2.806,1.966,4.104,2.141,7.631c0.131,2.641-0.405,6.219,0.052,8.836
		c1.078,0.205,2.029,0.053,2.766-0.424c-1.047,4.449-3.286,8.543-6.601,11.855c-0.952,0.952-1.972,1.813-3.045,2.582l4.585,5.464
		c1.216-0.909,2.385-1.912,3.49-3.017C67.125,42.131,67.125,21.868,54.629,9.375z"/>
</g>
</svg>
