<?xml version="1.0" encoding="utf-8"?>
<!-- Generator: Adobe Illustrator 16.0.0, SVG Export Plug-In . SVG Version: 6.00 Build 0)  -->
<!DOCTYPE svg PUBLIC "-//W3C//DTD SVG 1.0//EN" "http://www.w3.org/TR/2001/REC-SVG-20010904/DTD/svg10.dtd">
<svg version="1.0" id="Layer_1" xmlns="http://www.w3.org/2000/svg" xmlns:xlink="http://www.w3.org/1999/xlink" x="0px" y="0px"
	 width="64px" height="64px" viewBox="0 0 64 64" style="enable-background:new 0 0 64 64;" xml:space="preserve">
<linearGradient id="SVGID_1_" gradientUnits="userSpaceOnUse" x1="32.0005" y1="63.7012" x2="32.0005" y2="0.2993">
	<stop  offset="0" style="stop-color:#3F3F3F"/>
	<stop  offset="1" style="stop-color:#747474"/>
</linearGradient>
<path style="fill:url(#SVGID_1_);" d="M42.98,29.974c0,1.039-0.854,1.896-1.895,1.896H22.914c-1.04,0-1.882-0.856-1.882-1.896V6.247
	c0-1.039,0.842-1.895,1.882-1.895h18.172c1.041,0,1.895,0.855,1.895,1.895V29.974z M43.705,57.793c0,0.855-0.684,1.552-1.514,1.552
	h-2.539c-0.83,0-1.514-0.696-1.514-1.552v-2.606c0-0.855,0.684-1.553,1.514-1.553h2.539c0.83,0,1.514,0.697,1.514,1.553V57.793z
	 M34.889,57.793c0,0.855-0.672,1.552-1.514,1.552h-2.526c-0.842,0-1.513-0.696-1.513-1.552v-2.606c0-0.855,0.671-1.553,1.513-1.553
	h2.526c0.842,0,1.514,0.697,1.514,1.553V57.793z M26.019,57.793c0,0.855-0.684,1.552-1.513,1.552h-2.526
	c-0.843,0-1.514-0.696-1.514-1.552v-2.606c0-0.855,0.671-1.553,1.514-1.553h2.526c0.829,0,1.513,0.697,1.513,1.553V57.793z
	 M43.705,49.317c0,0.856-0.684,1.554-1.514,1.554h-2.539c-0.83,0-1.514-0.697-1.514-1.554v-2.592c0-0.855,0.684-1.553,1.514-1.553
	h2.539c0.83,0,1.514,0.697,1.514,1.553V49.317z M34.889,49.317c0,0.856-0.672,1.554-1.514,1.554h-2.526
	c-0.842,0-1.513-0.697-1.513-1.554v-2.592c0-0.855,0.671-1.553,1.513-1.553h2.526c0.842,0,1.514,0.697,1.514,1.553V49.317z
	 M26.019,49.317c0,0.856-0.684,1.554-1.513,1.554h-2.526c-0.843,0-1.514-0.697-1.514-1.554v-2.592c0-0.855,0.671-1.553,1.514-1.553
	h2.526c0.829,0,1.513,0.697,1.513,1.553V49.317z M43.705,40.804c0,0.855-0.684,1.553-1.514,1.553h-2.539
	c-0.83,0-1.514-0.697-1.514-1.553v-2.592c0-0.855,0.684-1.553,1.514-1.553h2.539c0.83,0,1.514,0.697,1.514,1.553V40.804z
	 M34.889,40.804c0,0.855-0.672,1.553-1.514,1.553h-2.526c-0.842,0-1.513-0.697-1.513-1.553v-2.592c0-0.855,0.671-1.553,1.513-1.553
	h2.526c0.842,0,1.514,0.697,1.514,1.553V40.804z M26.019,40.804c0,0.855-0.684,1.553-1.513,1.553h-2.526
	c-0.843,0-1.514-0.697-1.514-1.553v-2.592c0-0.855,0.671-1.553,1.514-1.553h2.526c0.829,0,1.513,0.697,1.513,1.553V40.804z
	 M42.719,0.299H21.282c-2.277,0-4.159,1.868-4.159,4.158v55.085c0,2.29,1.881,4.159,4.159,4.159h21.437
	c2.289,0,4.158-1.869,4.158-4.159V4.457C46.877,1.642,45.008,0.299,42.719,0.299z"/>
</svg>
