<?xml version="1.0" encoding="utf-8"?>
<!-- Generator: Adobe Illustrator 16.0.0, SVG Export Plug-In . SVG Version: 6.00 Build 0)  -->
<!DOCTYPE svg PUBLIC "-//W3C//DTD SVG 1.0//EN" "http://www.w3.org/TR/2001/REC-SVG-20010904/DTD/svg10.dtd">
<svg version="1.0" id="Layer_1" xmlns="http://www.w3.org/2000/svg" xmlns:xlink="http://www.w3.org/1999/xlink" x="0px" y="0px"
	 width="64px" height="64px" viewBox="0 0 64 64" style="enable-background:new 0 0 64 64;" xml:space="preserve">
<g>
	<path style="fill:#C0B193;" d="M24.953,43.75c-0.013-0.035-0.025-0.07-0.037-0.106c-0.558-1.674-0.07-3.509,1.243-4.676
		c0.035-0.031,0.07-0.061,0.105-0.091c1.158-0.959,2.088-1.896,2.831-2.755c-0.352-0.403-0.632-0.873-0.819-1.396
		c-0.627-1.855-0.05-3.78,1.412-4.917c4.038-3.285,7.005-8.841,7.156-9.127c0.014-0.027,0.027-0.054,0.042-0.081
		c0.539-1.021,1.453-1.76,2.526-2.104c-5.396-5.491-8.956-12.376-8.99-12.465c-0.185-0.356-0.777-0.356-0.961,0
		c-0.053,0.104-4.83,9.382-11.738,14.987c-0.184,0.145-0.25,0.382-0.17,0.605c0.079,0.21,0.276,0.354,0.513,0.354h4.29
		c-0.724,1.777-3.145,6.713-9.37,11.896c-0.171,0.146-0.237,0.383-0.157,0.594c0.079,0.224,0.276,0.369,0.513,0.369h6.172
		c-1.369,2.118-5.448,8.186-12.12,15.672c-0.132,0.158-0.171,0.383-0.092,0.58c0.092,0.183,0.276,0.314,0.487,0.314l14.282-0.676
		c1.647-1.847,3.066-3.565,4.246-5.078C25.709,45.162,25.23,44.512,24.953,43.75z"/>
	<path style="fill:#C0B193;" d="M56.647,53.589c-4.697-5.237-7.579-9.474-8.54-10.962h4.355c0.159,0,0.303-0.104,0.356-0.248
		c0.052-0.158,0.013-0.316-0.119-0.422c-3.377-2.797-5.162-5.497-6.037-7.157c-0.257-0.487-0.439-0.89-0.556-1.173h0.487h2.54
		c0.157,0,0.303-0.104,0.354-0.249c0.053-0.159,0.014-0.329-0.118-0.422c-4.869-3.935-8.238-10.424-8.265-10.488
		c-0.131-0.25-0.552-0.25-0.684,0c-0.011,0.024-0.52,1.006-1.415,2.422c-1.431,2.264-3.854,5.646-6.85,8.066
		c-0.131,0.093-0.171,0.263-0.117,0.422c0.052,0.145,0.197,0.249,0.354,0.249h3.014c-0.5,1.238-2.211,4.698-6.593,8.33
		c-0.119,0.105-0.158,0.264-0.105,0.422c0.053,0.145,0.197,0.248,0.355,0.248h4.356c-0.975,1.488-3.843,5.725-8.541,10.962
		c-0.105,0.119-0.119,0.278-0.066,0.408c0.066,0.133,0.197,0.225,0.343,0.225l11.567-0.54l-0.912,3.449l-0.167,0.631
		c-0.025,0.118,0,0.237,0.066,0.328c0.079,0.092,0.185,0.145,0.303,0.145h9.751c0.118,0,0.236-0.053,0.303-0.145
		c0.079-0.091,0.104-0.224,0.065-0.328l-1.079-4.092l11.317,0.552c0.144,0,0.275-0.092,0.341-0.225
		C56.767,53.867,56.74,53.708,56.647,53.589z"/>
</g>
</svg>
