<?xml version="1.0" encoding="utf-8"?>
<!-- Generator: Adobe Illustrator 16.0.0, SVG Export Plug-In . SVG Version: 6.00 Build 0)  -->
<!DOCTYPE svg PUBLIC "-//W3C//DTD SVG 1.0//EN" "http://www.w3.org/TR/2001/REC-SVG-20010904/DTD/svg10.dtd">
<svg version="1.0" id="Layer_1" xmlns="http://www.w3.org/2000/svg" xmlns:xlink="http://www.w3.org/1999/xlink" x="0px" y="0px"
	 width="64px" height="64px" viewBox="0 0 64 64" style="enable-background:new 0 0 64 64;" xml:space="preserve">
<g>
	<linearGradient id="SVGID_1_" gradientUnits="userSpaceOnUse" x1="32.0005" y1="60.457" x2="32.0005" y2="40">
		<stop  offset="0" style="stop-color:#E78601"/>
		<stop  offset="1" style="stop-color:#D27A02"/>
	</linearGradient>
	<path style="fill:url(#SVGID_1_);" d="M57.635,48.509c-4.448-1.896-14.607-5.015-14.607-5.015s-2.46-0.814-3.236-3.014
		c-0.448-1.248-2.751,0.33-2.751,0.33c-5.724,4.237-10.119,0-10.119,0s-2.276-1.567-2.711-0.33
		c-0.776,2.199-3.237,3.014-3.237,3.014s-10.159,3.118-14.607,5.015C1.918,50.403,2.3,60.457,2.3,60.457h29.674h0.054H61.7
		C61.7,60.457,62.082,50.403,57.635,48.509z"/>
	<linearGradient id="SVGID_2_" gradientUnits="userSpaceOnUse" x1="32.0005" y1="39.5215" x2="32.0005" y2="8.1235">
		<stop  offset="0" style="stop-color:#3F3F3F"/>
		<stop  offset="1" style="stop-color:#747474"/>
	</linearGradient>
	<path style="fill:url(#SVGID_2_);" d="M43.159,15.636c0,0-1.184-7.513-11.159-7.513c-9.975,0-11.159,7.513-11.159,7.513
		s-0.145,5.646-0.145,9.146s0.224,3.356,0.816,3.645c0.592,0.304,1.79,2.014,1.79,2.014c1.184,9.448,8.685,9.079,8.698,9.079
		c0.014,0,7.514,0.369,8.698-9.079c0,0,1.197-1.71,1.789-2.014c0.593-0.289,0.816-0.145,0.816-3.645S43.159,15.636,43.159,15.636z"
		/>
	<linearGradient id="SVGID_3_" gradientUnits="userSpaceOnUse" x1="32.0005" y1="34.1904" x2="32.0005" y2="3.5435">
		<stop  offset="0" style="stop-color:#E78601"/>
		<stop  offset="1" style="stop-color:#D27A02"/>
	</linearGradient>
	<path style="fill:url(#SVGID_3_);" d="M48.634,17.598C47.186,9.609,40.316,3.543,32.053,3.543c-8.198,0-15.041,5.975-16.554,13.857
		c-0.316,0.42-0.513,0.946-0.513,1.525v4.948c0,1.395,1.131,2.527,2.526,2.527s2.527-1.133,2.527-2.527v-4.948
		c0-1.012-0.592-1.868-1.435-2.277c1.711-5.934,7.093-10.276,13.449-10.276c6.344,0,11.712,4.315,13.436,10.224
		c-0.895,0.382-1.526,1.276-1.526,2.329v4.948c0,0.908,0.474,1.685,1.185,2.146c-1.289,2.697-4.303,6.368-11.238,6.487
		c-0.118-0.224-0.303-0.368-0.513-0.368h-2.777c-0.381,0-0.684,0.459-0.684,1.025c0,0.566,0.303,1.026,0.684,1.026h2.777
		c0.184,0,0.342-0.104,0.46-0.263c7.804-0.105,11.199-4.448,12.633-7.527c1.395,0,2.527-1.133,2.527-2.527v-4.948
		C49.016,18.425,48.87,17.979,48.634,17.598z"/>
</g>
</svg>
