<?xml version="1.0" encoding="utf-8"?>
<!-- Generator: Adobe Illustrator 16.0.0, SVG Export Plug-In . SVG Version: 6.00 Build 0)  -->
<!DOCTYPE svg PUBLIC "-//W3C//DTD SVG 1.0//EN" "http://www.w3.org/TR/2001/REC-SVG-20010904/DTD/svg10.dtd">
<svg version="1.0" id="Layer_1" xmlns="http://www.w3.org/2000/svg" xmlns:xlink="http://www.w3.org/1999/xlink" x="0px" y="0px"
	 width="64px" height="64px" viewBox="0 0 64 64" style="enable-background:new 0 0 64 64;" xml:space="preserve">
<linearGradient id="SVGID_1_" gradientUnits="userSpaceOnUse" x1="32.0005" y1="52.2979" x2="32.0005" y2="11.7026">
	<stop  offset="0" style="stop-color:#3F3F3F"/>
	<stop  offset="1" style="stop-color:#747474"/>
</linearGradient>
<path style="fill-rule:evenodd;clip-rule:evenodd;fill:url(#SVGID_1_);" d="M43.646,37.047l-2.883,5.252h-0.013l-2.882-5.252H35
	v11.738h2.646v-6.83h0.053l2.079,4.028h1.724l2.132-4.106h0.053v6.908h2.855V37.047H43.646z M38.027,17.36
	c0-1.053-0.882-1.906-1.975-1.906c-1.078,0-1.961,0.854-1.961,1.906V25.6c0,1.053,0.883,1.906,1.961,1.906
	c1.093,0,1.975-0.854,1.975-1.906V17.36z M31,37.047h-2.842v11.738H31V37.047z M30.079,17.36c0-1.053-0.882-1.906-1.974-1.906
	c-1.08,0-1.961,0.854-1.961,1.906V25.6c0,1.053,0.881,1.906,1.961,1.906c1.092,0,1.974-0.854,1.974-1.906V17.36z M21.289,39.035
	c0.855,0,1.895,0.195,2.737,0.341v-2.223c-1.04-0.237-2.08-0.382-3.053-0.382c-2.421,0-4.33,0.881-4.33,3.33
	c0,4.314,5.08,3.34,5.08,5.461c0,0.829-0.421,1.248-1.763,1.248c-0.79,0-1.882-0.144-3.382-0.434v2.25
	c1.382,0.264,2.58,0.409,3.58,0.409c3.356,0,4.527-1.409,4.527-3.593c0-4.106-5.026-3.015-5.026-5.305
	C19.657,39.271,20.367,39.035,21.289,39.035z M22.473,17.36c0-1.053-0.882-1.906-1.974-1.906c-1.079,0-1.961,0.854-1.961,1.906V25.6
	c0,1.053,0.882,1.906,1.961,1.906c1.092,0,1.974-0.854,1.974-1.906V17.36z M48.199,35.573h1.618V48.97
	c0,1.829-1.526,3.328-3.421,3.328h-6.83H20.328h-3.421c-1.5,0-2.724-1.197-2.724-2.67V14.374c0-1.474,1.224-2.672,2.724-2.672h22.66
	l2.093,0.067l8.158,9.75v5.237h-1.618c-1.131,0-2.053,0.895-2.053,2.001v4.828C46.146,34.678,47.068,35.573,48.199,35.573z"/>
</svg>
