<?xml version="1.0" encoding="utf-8"?>
<!-- Generator: Adobe Illustrator 16.0.0, SVG Export Plug-In . SVG Version: 6.00 Build 0)  -->
<!DOCTYPE svg PUBLIC "-//W3C//DTD SVG 1.0//EN" "http://www.w3.org/TR/2001/REC-SVG-20010904/DTD/svg10.dtd">
<svg version="1.0" id="Layer_1" xmlns="http://www.w3.org/2000/svg" xmlns:xlink="http://www.w3.org/1999/xlink" x="0px" y="0px"
	 width="64px" height="64px" viewBox="0 0 64 64" style="enable-background:new 0 0 64 64;" xml:space="preserve">
<g>
	<linearGradient id="SVGID_1_" gradientUnits="userSpaceOnUse" x1="31.5552" y1="27.1187" x2="31.5552" y2="56.9116">
		<stop  offset="0" style="stop-color:#E78601"/>
		<stop  offset="1" style="stop-color:#D27A02"/>
	</linearGradient>
	<path style="fill:url(#SVGID_1_);" d="M42.517,56.911c-2.236,0-4.053-1.815-4.053-4.056c0-2.235,1.816-4.039,4.053-4.039
		c2.237,0,4.054,1.804,4.054,4.039C46.57,55.096,44.754,56.911,42.517,56.911z M31.555,56.911c-2.236,0-4.053-1.815-4.053-4.056
		c0-2.235,1.816-4.039,4.053-4.039c2.237,0,4.054,1.804,4.054,4.039C35.608,55.096,33.792,56.911,31.555,56.911z M20.581,56.911
		c-2.237,0-4.04-1.815-4.04-4.056c0-2.235,1.803-4.039,4.04-4.039c2.237,0,4.053,1.804,4.053,4.039
		C24.633,55.096,22.818,56.911,20.581,56.911z M42.517,46.04c-2.236,0-4.053-1.815-4.053-4.04c0-2.236,1.816-4.053,4.053-4.053
		c2.237,0,4.054,1.816,4.054,4.053C46.57,44.225,44.754,46.04,42.517,46.04z M31.555,46.04c-2.236,0-4.053-1.815-4.053-4.04
		c0-2.236,1.816-4.053,4.053-4.053c2.237,0,4.054,1.816,4.054,4.053C35.608,44.225,33.792,46.04,31.555,46.04z M20.581,46.04
		c-2.237,0-4.04-1.815-4.04-4.04c0-2.236,1.803-4.053,4.04-4.053c2.237,0,4.053,1.816,4.053,4.053
		C24.633,44.225,22.818,46.04,20.581,46.04z M42.517,35.224c-2.236,0-4.053-1.816-4.053-4.053c0-2.238,1.816-4.052,4.053-4.052
		c2.237,0,4.054,1.814,4.054,4.052C46.57,33.407,44.754,35.224,42.517,35.224z M31.555,35.224c-2.236,0-4.053-1.816-4.053-4.053
		c0-2.238,1.816-4.052,4.053-4.052c2.237,0,4.054,1.814,4.054,4.052C35.608,33.407,33.792,35.224,31.555,35.224z M20.581,35.224
		c-2.237,0-4.04-1.816-4.04-4.053c0-2.238,1.803-4.052,4.04-4.052c2.237,0,4.053,1.814,4.053,4.052
		C24.633,33.407,22.818,35.224,20.581,35.224z"/>
	<linearGradient id="SVGID_2_" gradientUnits="userSpaceOnUse" x1="32.0005" y1="26.8999" x2="32.0005" y2="7.0889">
		<stop  offset="0" style="stop-color:#3F3F3F"/>
		<stop  offset="1" style="stop-color:#747474"/>
	</linearGradient>
	<path style="fill:url(#SVGID_2_);" d="M60.964,17.485c0,0-7.277-10.396-28.398-10.396c-0.184,0-0.368,0.013-0.565,0.013
		s-0.381-0.013-0.566-0.013c-21.12,0-28.397,10.396-28.397,10.396c-2.737,3.263,3.066,12,8.672,8.671
		c6.619-3.921,8.409-4.236,9.961-6.039c1.632-1.922-1.54-3.763-0.368-5.632c1.145-1.804,6.014-2.843,10.698-2.79
		c4.685-0.053,9.554,0.986,10.698,2.79c1.171,1.87-2,3.71-0.368,5.632c1.553,1.803,3.342,2.118,9.948,6.039
		C57.896,29.485,63.7,20.748,60.964,17.485z"/>
</g>
</svg>
