<?xml version="1.0" encoding="utf-8"?>
<!-- Generator: Adobe Illustrator 16.0.0, SVG Export Plug-In . SVG Version: 6.00 Build 0)  -->
<!DOCTYPE svg PUBLIC "-//W3C//DTD SVG 1.0//EN" "http://www.w3.org/TR/2001/REC-SVG-20010904/DTD/svg10.dtd">
<svg version="1.0" id="Layer_1" xmlns="http://www.w3.org/2000/svg" xmlns:xlink="http://www.w3.org/1999/xlink" x="0px" y="0px"
	 width="64px" height="64px" viewBox="0 0 64 64" style="enable-background:new 0 0 64 64;" xml:space="preserve">
<g>
	<linearGradient id="SVGID_1_" gradientUnits="userSpaceOnUse" x1="32" y1="59.1992" x2="32" y2="38.7529">
		<stop  offset="0" style="stop-color:#E78601"/>
		<stop  offset="1" style="stop-color:#D27A02"/>
	</linearGradient>
	<path style="fill:url(#SVGID_1_);" d="M59.292,47.818c-4.738-2.027-15.555-5.344-15.555-5.344s-2.605-0.882-3.447-3.211
		c-0.461-1.328-2.935,0.355-2.935,0.355c-6.092,4.5-10.764,0-10.764,0s-2.421-1.671-2.882-0.355
		c-0.842,2.329-3.448,3.211-3.448,3.211S9.445,45.791,4.708,47.818c-4.75,2.013-4.343,11.381-4.343,11.381h31.608h0.054h31.608
		C63.635,59.199,64.042,49.831,59.292,47.818z"/>
	<linearGradient id="SVGID_2_" gradientUnits="userSpaceOnUse" x1="32.0015" y1="38.2393" x2="32.0015" y2="4.8008">
		<stop  offset="0" style="stop-color:#3F3F3F"/>
		<stop  offset="1" style="stop-color:#747474"/>
	</linearGradient>
	<path style="fill:url(#SVGID_2_);" d="M43.884,12.8c0,0-1.264-8-11.882-8c-10.62,0-11.883,8-11.883,8s-0.157,6.027-0.157,9.752
		c0,3.724,0.236,3.567,0.868,3.882c0.631,0.315,1.895,2.131,1.895,2.131c1.276,10.068,9.264,9.672,9.277,9.672
		c0.013,0,8,0.396,9.263-9.672c0,0,1.276-1.815,1.908-2.131s0.868-0.159,0.868-3.882C44.041,18.827,43.884,12.8,43.884,12.8z"/>
</g>
</svg>
