<?xml version="1.0" encoding="utf-8"?>
<!-- Generator: Adobe Illustrator 16.0.0, SVG Export Plug-In . SVG Version: 6.00 Build 0)  -->
<!DOCTYPE svg PUBLIC "-//W3C//DTD SVG 1.0//EN" "http://www.w3.org/TR/2001/REC-SVG-20010904/DTD/svg10.dtd">
<svg version="1.0" id="Layer_1" xmlns="http://www.w3.org/2000/svg" xmlns:xlink="http://www.w3.org/1999/xlink" x="0px" y="0px"
	 width="64px" height="64px" viewBox="0 0 64 64" style="enable-background:new 0 0 64 64;" xml:space="preserve">
<linearGradient id="SVGID_1_" gradientUnits="userSpaceOnUse" x1="32.0005" y1="63.6611" x2="32.0005" y2="0.3394">
	<stop  offset="0" style="stop-color:#4A4A4A"/>
	<stop  offset="1" style="stop-color:#666666"/>
</linearGradient>
<path style="fill:url(#SVGID_1_);" d="M53.812,55.924H10.373V8.024h3.698v19.844c0,2.289,1.881,4.146,4.21,4.146H41.64
	c2.315,0,4.211-1.857,4.211-4.146V8.024h0.329l7.632,6.908V55.924z M26.164,10.354c0-1.159,0.935-2.08,2.105-2.08h7.448
	c1.171,0,2.105,0.921,2.105,2.08v11.736c0,1.146-0.935,2.067-2.105,2.067H28.27c-1.171,0-2.105-0.922-2.105-2.067V10.354z
	 M59.747,11.288l-9.738-9.211c-1.172-1.105-2.737-1.738-4.369-1.738H8.636c-3.5,0-6.33,2.79-6.33,6.225v50.888
	c0,3.433,2.83,6.21,6.33,6.21h46.741c3.487,0,6.317-2.777,6.317-6.21V15.775C61.694,14.077,60.997,12.459,59.747,11.288z"/>
</svg>
