<?xml version="1.0" encoding="utf-8"?>
<!-- Generator: Adobe Illustrator 16.0.0, SVG Export Plug-In . SVG Version: 6.00 Build 0)  -->
<!DOCTYPE svg PUBLIC "-//W3C//DTD SVG 1.0//EN" "http://www.w3.org/TR/2001/REC-SVG-20010904/DTD/svg10.dtd">
<svg version="1.0" id="Layer_1" xmlns="http://www.w3.org/2000/svg" xmlns:xlink="http://www.w3.org/1999/xlink" x="0px" y="0px"
	 width="64px" height="64px" viewBox="0 0 64 64" style="enable-background:new 0 0 64 64;" xml:space="preserve">
<g>
	<linearGradient id="SVGID_1_" gradientUnits="userSpaceOnUse" x1="18.6689" y1="27.1309" x2="18.6689" y2="34.3423">
		<stop  offset="0" style="stop-color:#E78601"/>
		<stop  offset="1" style="stop-color:#D27A02"/>
	</linearGradient>
	<path style="fill:url(#SVGID_1_);" d="M21.524,34.342v-1.078c0-1.25-0.802-2.291-1.907-2.685c0.486-0.329,0.815-0.907,0.815-1.565
		c0-1.04-0.815-1.882-1.829-1.882c-1,0-1.815,0.843-1.815,1.882c0,0.67,0.342,1.263,0.854,1.592
		c-1.065,0.408-1.829,1.447-1.829,2.658v1.078H21.524z"/>
	<linearGradient id="SVGID_2_" gradientUnits="userSpaceOnUse" x1="32.0005" y1="47.1064" x2="32.0005" y2="16.894">
		<stop  offset="0" style="stop-color:#3F3F3F"/>
		<stop  offset="1" style="stop-color:#747474"/>
	</linearGradient>
	<path style="fill:url(#SVGID_2_);" d="M46.844,25.775H30.657c-0.539,0-0.986-0.447-0.986-0.986c0-0.554,0.447-1.001,0.986-1.001
		h16.187c0.552,0,1,0.447,1,1.001C47.844,25.328,47.396,25.775,46.844,25.775z M39.25,31.066h-8.593
		c-0.539,0-0.986-0.449-0.986-1.001c0-0.539,0.447-0.986,0.986-0.986h8.593c0.553,0,0.987,0.448,0.987,0.986
		C40.237,30.618,39.803,31.066,39.25,31.066z M16.985,32.711h-0.632c-0.514,0-0.921-0.422-0.921-0.922v-7.066
		c0-0.515,0.407-0.935,0.921-0.935h7.079c0.5,0,0.921,0.42,0.921,0.935v7.066c0,0.5-0.421,0.922-0.921,0.922h-0.631H16.985z
		 M52.58,16.894H11.419c-1.764,0-3.211,1.446-3.211,3.211v23.792c0,1.764,1.447,3.21,3.211,3.21h6.408
		c0-0.026-0.014-0.038-0.014-0.065v-4.014h-1.197c-0.895,0-1.605-0.723-1.605-1.605c0-0.895,0.711-1.605,1.605-1.605h5.619
		c0.882,0,1.605,0.711,1.605,1.605c0,0.883-0.724,1.605-1.605,1.605h-1.211v4.014c0,0.027-0.013,0.039-0.013,0.065h22.107
		c0-0.026-0.014-0.038-0.014-0.065v-4.014h-1.197c-0.895,0-1.605-0.723-1.605-1.605c0-0.895,0.711-1.605,1.605-1.605h5.619
		c0.882,0,1.605,0.711,1.605,1.605c0,0.883-0.724,1.605-1.605,1.605h-1.211v4.014c0,0.027-0.013,0.039-0.013,0.065h6.276
		c1.764,0,3.212-1.446,3.212-3.21V20.104C55.792,18.34,54.344,16.894,52.58,16.894z"/>
</g>
</svg>
