<?xml version="1.0" encoding="utf-8"?>
<!-- Generator: Adobe Illustrator 16.0.0, SVG Export Plug-In . SVG Version: 6.00 Build 0)  -->
<!DOCTYPE svg PUBLIC "-//W3C//DTD SVG 1.0//EN" "http://www.w3.org/TR/2001/REC-SVG-20010904/DTD/svg10.dtd">
<svg version="1.0" id="Layer_1" xmlns="http://www.w3.org/2000/svg" xmlns:xlink="http://www.w3.org/1999/xlink" x="0px" y="0px"
	 width="64px" height="64px" viewBox="0 0 64 64" style="enable-background:new 0 0 64 64;" xml:space="preserve">
<g>
	<defs>
		<path id="SVGID_1_" d="M16.301-2545.013c-2.725,0-4.935-2.21-4.935-4.935c0-2.724,2.21-4.936,4.935-4.936
			c2.724,0,4.934,2.212,4.934,4.936C21.235-2547.224,19.025-2545.002,16.301-2545.013z M50.778-2544.843h-9.146
			c0.829-7.949-1.776-16.185-7.856-22.265c-6.132-6.133-14.475-8.738-22.489-7.831v-9.146c10.356-0.882,21.029,2.619,28.938,10.528
			C48.08-2565.701,51.581-2555.133,50.778-2544.843z M36.132-2544.936h-8.277c0.882-4.38-0.355-9.105-3.75-12.5
			c-3.448-3.447-8.277-4.672-12.725-3.699v-8.317c6.58-0.895,13.475,1.185,18.515,6.226
			C34.882-2558.251,36.961-2551.436,36.132-2544.936z"/>
	</defs>
	<clipPath id="SVGID_2_">
		<use xlink:href="#SVGID_1_"  style="overflow:visible;"/>
	</clipPath>
	<g style="clip-path:url(#SVGID_2_);">
		<defs>
			<rect id="SVGID_3_" x="-0.667" y="-7663" width="63.334" height="15391.063"/>
		</defs>
		<clipPath id="SVGID_4_">
			<use xlink:href="#SVGID_3_"  style="overflow:visible;"/>
		</clipPath>
		<g transform="matrix(1 0 0 1 5.960464e-008 0)" style="clip-path:url(#SVGID_4_);">
			
				<image style="overflow:visible;" width="64" height="15553" xlink:href="AB386606.jpg"  transform="matrix(0.9896 0 0 0.9896 -0.667 -7663)">
			</image>
		</g>
	</g>
</g>
<g>
	<g>
		<linearGradient id="SVGID_5_" gradientUnits="userSpaceOnUse" x1="18.543" y1="38.6328" x2="18.543" y2="25.3682">
			<stop  offset="0" style="stop-color:#3F3F3F"/>
			<stop  offset="1" style="stop-color:#747474"/>
		</linearGradient>
		<polygon style="fill:url(#SVGID_5_);" points="13.549,28.014 17.01,28.014 17.01,38.633 20.063,38.633 20.063,28.014 
			23.537,28.014 23.537,25.368 13.549,25.368 		"/>
		<linearGradient id="SVGID_6_" gradientUnits="userSpaceOnUse" x1="18.7534" y1="50.2773" x2="18.7534" y2="13.7227">
			<stop  offset="0" style="stop-color:#3F3F3F"/>
			<stop  offset="1" style="stop-color:#747474"/>
		</linearGradient>
		<path style="fill:url(#SVGID_6_);" d="M31.683,19.08c-3.461-3.449-8.04-5.357-12.923-5.357c-4.882,0-9.475,1.908-12.922,5.357
			c-3.461,3.446-5.355,8.039-5.355,12.922c0,4.881,1.895,9.473,5.355,12.92c3.447,3.449,8.04,5.355,12.922,5.355
			c4.883,0,9.462-1.906,12.923-5.355c3.447-3.447,5.342-8.039,5.342-12.92C37.024,27.119,35.13,22.526,31.683,19.08z M27.84,30.461
			v-2.447h4.98c0.361,1.282,0.56,2.618,0.56,3.987c0,1.37-0.198,2.706-0.56,3.987h-4.98v-2.947h4.554v-2.58H27.84z M5.127,26.726
			v10.551c-0.641-1.662-0.986-3.439-0.986-5.276C4.141,30.166,4.486,28.387,5.127,26.726z M29.09,42.344
			c-2.764,2.75-6.422,4.275-10.33,4.275s-7.58-1.525-10.343-4.275c-1.104-1.104-1.999-2.359-2.688-3.711h7.596v-2.645H8.18V25.368
			H5.73c0.688-1.352,1.583-2.605,2.687-3.71c2.763-2.751,6.435-4.277,10.343-4.277c3.896,0,7.566,1.526,10.33,4.277
			c1.104,1.104,2.001,2.358,2.691,3.71h-6.994v13.265h6.995C31.092,39.984,30.194,41.24,29.09,42.344z"/>
	</g>
	<g>
		<path style="fill:#DB8002;" d="M53.623,16.621c8.493,8.492,8.511,22.299,0.058,30.816l1.768,1.768
			c9.443-9.508,9.426-24.869-0.057-34.352c-0.021-0.021-0.041-0.039-0.061-0.059l-1.768,1.768
			C53.583,16.582,53.603,16.602,53.623,16.621z"/>
		<path style="fill:#DB8002;" d="M49.38,20.863c6.154,6.153,6.172,16.152,0.059,22.331l1.768,1.768
			c7.1-7.163,7.082-18.728-0.059-25.866c-0.02-0.02-0.039-0.039-0.06-0.059l-1.769,1.768C49.34,20.825,49.36,20.844,49.38,20.863z"
			/>
		<path style="fill:#DB8002;" d="M40.424,29.82c1.216,1.215,1.231,3.178,0.056,4.416l1.769,1.768
			c2.153-2.217,2.138-5.758-0.056-7.951c-0.021-0.021-0.043-0.037-0.063-0.057l-1.768,1.768C40.382,29.783,40.403,29.8,40.424,29.82
			z"/>
		<path style="fill:#DB8002;" d="M45.138,25.105c3.814,3.814,3.83,10.006,0.057,13.846l1.77,1.769
			c4.756-4.821,4.738-12.585-0.059-17.382c-0.02-0.02-0.041-0.037-0.061-0.058l-1.77,1.77C45.097,25.07,45.118,25.086,45.138,25.105
			z"/>
	</g>
</g>
</svg>
