<?xml version="1.0" encoding="utf-8"?>
<!-- Generator: Adobe Illustrator 16.0.0, SVG Export Plug-In . SVG Version: 6.00 Build 0)  -->
<!DOCTYPE svg PUBLIC "-//W3C//DTD SVG 1.0//EN" "http://www.w3.org/TR/2001/REC-SVG-20010904/DTD/svg10.dtd">
<svg version="1.0" id="Layer_1" xmlns="http://www.w3.org/2000/svg" xmlns:xlink="http://www.w3.org/1999/xlink" x="0px" y="0px"
	 width="64px" height="64px" viewBox="0 0 64 64" style="enable-background:new 0 0 64 64;" xml:space="preserve">
<g id="_x30_1_x5F_icn-cart_1_" style="enable-background:new    ;">
	<g id="_x30_1_x5F_icn-cart">
		<g>
			<path style="fill:#FFFFFF;" d="M48.537,37.532H26.628l-7.506-21.351c-0.208-0.593-0.765-0.986-1.39-0.986h-6.259
				c-0.813,0-1.473,0.66-1.473,1.475c0,0.813,0.659,1.473,1.473,1.473h5.216l7.507,21.35c0.208,0.593,0.763,0.985,1.389,0.985
				h22.952c0.813,0,1.471-0.66,1.471-1.475S49.35,37.532,48.537,37.532z M50.868,20.172L24.48,19.18
				c-0.808-0.029-1.242,0.565-0.961,1.324l4.747,12.824c0.281,0.761,1.174,1.382,1.984,1.382h18.898c0.81,0,1.552-0.657,1.646-1.465
				l1.371-11.557C52.262,20.887,51.678,20.204,50.868,20.172z M44.105,43.077c-1.937,0-3.51,1.575-3.51,3.513
				c0,1.932,1.573,3.508,3.51,3.508c1.935,0,3.51-1.576,3.51-3.508C47.615,44.652,46.04,43.077,44.105,43.077z M29.497,43.077
				c-1.936,0-3.509,1.575-3.509,3.513c0,1.932,1.573,3.508,3.509,3.508c1.935,0,3.51-1.576,3.51-3.508
				C33.007,44.652,31.431,43.077,29.497,43.077z"/>
		</g>
	</g>
</g>
<g>
</g>
<g>
</g>
<g>
</g>
<g>
</g>
<g>
</g>
</svg>
