<?xml version="1.0" encoding="UTF-8" standalone="no"?>
<svg width="28px" height="28px" viewBox="0 0 28 28" version="1.1" xmlns="http://www.w3.org/2000/svg" xmlns:xlink="http://www.w3.org/1999/xlink" xmlns:sketch="http://www.bohemiancoding.com/sketch/ns">
    <!-- Generator: Sketch 3.3 (11970) - http://www.bohemiancoding.com/sketch -->
    <title>ico-popolna-pisarna-telefonija-no-circle</title>
    <desc>Created with Sketch.</desc>
    <defs>
        <linearGradient x1="0%" y1="50.0010787%" x2="100%" y2="50.0010787%" id="linearGradient-1">
            <stop stop-color="#A3CD3A" offset="0%"></stop>
            <stop stop-color="#9EC93B" offset="22.73%"></stop>
            <stop stop-color="#8FC13F" offset="50.03%"></stop>
            <stop stop-color="#77B343" offset="79.55%"></stop>
            <stop stop-color="#63A544" offset="100%"></stop>
        </linearGradient>
    </defs>
    <g id="Page-1" stroke="none" stroke-width="1" fill="none" fill-rule="evenodd" sketch:type="MSPage">
        <g id="ico-popolna-pisarna-telefonija-no-circle" sketch:type="MSLayerGroup" fill="url(#linearGradient-1)">
            <path d="M27.811,22.075 C27.653,22.711 27.373,23.637 26.978,24.849 C25.626,26.2 24.028,27.188 22.178,27.811 C18.637,26.155 14.616,23.075 10.109,18.569 C8.442,16.901 6.61,14.83 4.612,12.356 C2.263,9.441 0.726,7.199 0,5.633 C0.623,3.783 1.605,2.179 2.944,0.816 C3.523,0.579 4.454,0.306 5.735,0 L10.246,5.294 L9.345,9.497 C9.629,10.871 10.128,12.04 10.843,13.003 C11.183,13.481 12.062,14.428 13.48,15.847 C15.071,17.435 16.459,18.281 17.651,18.383 C18.184,18.441 19.801,18.159 22.503,17.547 L27.811,22.075 L27.811,22.075 Z" id="Shape" sketch:type="MSShapeGroup"></path>
        </g>
    </g>
</svg>