<?xml version="1.0" encoding="utf-8"?>
<!-- Generator: Adobe Illustrator 16.0.4, SVG Export Plug-In . SVG Version: 6.00 Build 0)  -->
<!DOCTYPE svg PUBLIC "-//W3C//DTD SVG 1.1//EN" "http://www.w3.org/Graphics/SVG/1.1/DTD/svg11.dtd">
<svg version="1.1" id="Layer_1" xmlns="http://www.w3.org/2000/svg" xmlns:xlink="http://www.w3.org/1999/xlink" x="0px" y="0px"
	 width="64px" height="64px" viewBox="0 0 64 64" enable-background="new 0 0 64 64" xml:space="preserve">
<g>
	<rect y="19.08" fill="#E5216C" width="64" height="1.462"/>
	<rect y="45.313" fill="#E5216C" width="64" height="1.462"/>
	<g>
		<path fill="#E5216C" d="M3.464,37.573v-8.212l-2.438,0.642v-1.059l2.855-1.139h0.946v9.769h2.406v1.122H0.946v-1.122H3.464z"/>
		<path fill="#E5216C" d="M19.329,29.072c-0.867-0.225-1.652-0.337-2.358-0.337c-2.277,0-3.641,1.267-3.641,4.507
			c0,3.689,1.572,4.539,3.593,4.539c0.513,0,1.042-0.047,1.588-0.128v-4.571h1.363v5.438c-1.059,0.208-2.149,0.369-3.192,0.369
			c-2.598,0-4.796-1.075-4.796-5.486c0-4.282,2.085-5.774,4.957-5.774c0.786,0,1.62,0.112,2.486,0.305V29.072z"/>
		<path fill="#E5216C" d="M29.179,35.504c0,2.23-1.235,3.191-3.256,3.191h-3.625V27.837h3.352c2.133,0,2.919,0.946,2.919,2.679
			c0,1.347-0.642,2.149-1.668,2.374v0.032C27.863,33.066,29.179,33.611,29.179,35.504z M27.142,30.66
			c-0.016-1.203-0.224-1.716-1.508-1.716h-1.989v3.545h2.117C26.901,32.489,27.157,31.863,27.142,30.66z M27.783,35.633
			c0-1.524-0.609-2.086-2.149-2.086h-1.989v4.01h2.47C27.174,37.557,27.783,37.044,27.783,35.633z"/>
		<path fill="#E5216C" d="M40.264,31.639v1.075h-6.688v-1.075H40.264z M40.264,34.093v1.074h-6.688v-1.074H40.264z"/>
		<path fill="#E5216C" d="M47.516,37.573v-8.212l-2.438,0.642v-1.059l2.855-1.139h0.946v9.769h2.405v1.122h-6.287v-1.122H47.516z"/>
		<path fill="#E5216C" d="M56.836,31.526c0.481-2.872,2.117-3.914,4.187-3.914c0.689,0,1.428,0.128,2.182,0.321v1.107
			c-0.771-0.225-1.492-0.369-2.134-0.369c-1.459,0-2.518,0.738-2.854,2.855h3.817v1.01h-3.914c-0.016,0.225-0.016,0.449-0.016,0.674
			c0,0.271,0,0.512,0.016,0.753h3.914v1.011h-3.802c0.354,2.069,1.363,2.839,2.888,2.839c0.674,0,1.427-0.144,2.262-0.385v1.059
			c-0.883,0.272-1.717,0.417-2.471,0.417c-2.134,0-3.689-1.154-4.09-3.93h-1.171v-1.011h1.074c-0.016-0.177-0.016-0.368-0.016-0.562
			c0-0.305,0.016-0.593,0.032-0.866h-1.091v-1.01H56.836z"/>
	</g>
</g>
</svg>
