<?xml version="1.0" encoding="UTF-8" standalone="no"?>
<svg width="68px" height="97px" viewBox="0 0 68 97" version="1.1" xmlns="http://www.w3.org/2000/svg" xmlns:xlink="http://www.w3.org/1999/xlink" xmlns:sketch="http://www.bohemiancoding.com/sketch/ns">
    <!-- Generator: Sketch 3.3.1 (12002) - http://www.bohemiancoding.com/sketch -->
    <title>Imported Layers</title>
    <desc>Created with Sketch.</desc>
    <defs></defs>
    <g id="Page-1" stroke="none" stroke-width="1" fill="none" fill-rule="evenodd" sketch:type="MSPage">
        <g id="Artboard-1" sketch:type="MSArtboardGroup" transform="translate(-143.000000, -152.000000)" fill="#ADADAD">
            <g id="Imported-Layers" sketch:type="MSLayerGroup" transform="translate(143.000000, 152.000000)">
                <path d="M62.213,96.756 L5.564,96.756 C2.531,96.756 0.064,94.289 0.064,91.256 L0.064,6.195 C0.064,3.162 2.531,0.695 5.564,0.695 L42.245,0.695 L67.713,26.163 L67.713,91.256 C67.713,94.289 65.246,96.756 62.213,96.756 L62.213,96.756 Z M5.564,3.695 C4.185,3.695 3.064,4.816 3.064,6.195 L3.064,91.256 C3.064,92.635 4.185,93.756 5.564,93.756 L62.213,93.756 C63.591,93.756 64.713,92.635 64.713,91.256 L64.713,27.405 L41.002,3.695 L5.564,3.695 L5.564,3.695 Z" id="Fill-1" sketch:type="MSShapeGroup"></path>
                <path d="M44.742,41.46 L23.446,41.46 C16.002,41.46 9.946,47.517 9.946,54.96 L9.946,73.374 C9.946,80.817 16.002,86.874 23.446,86.874 L44.742,86.874 C52.185,86.874 58.242,80.817 58.242,73.374 L58.242,54.96 C58.242,47.517 52.185,41.46 44.742,41.46 L44.742,41.46 Z M55.242,54.96 L55.242,57.932 L43.006,57.932 L43.006,44.46 L44.742,44.46 C50.531,44.46 55.242,49.171 55.242,54.96 L55.242,54.96 Z M43.006,60.932 L55.242,60.932 L55.242,70.903 L43.006,70.903 L43.006,60.932 Z M23.446,44.46 L40.006,44.46 L40.006,83.874 L28.182,83.874 L28.182,57.932 L12.946,57.932 L12.946,54.96 C12.946,49.171 17.657,44.46 23.446,44.46 L23.446,44.46 Z M12.946,60.932 L25.182,60.932 L25.182,70.903 L12.946,70.903 L12.946,60.932 Z M12.973,73.902 L25.182,73.902 L25.182,83.874 L23.446,83.874 C17.835,83.874 13.251,79.446 12.973,73.902 L12.973,73.902 Z M44.742,83.874 L43.006,83.874 L43.006,73.902 L55.215,73.902 C54.937,79.446 50.352,83.874 44.742,83.874 L44.742,83.874 Z" id="Fill-2" sketch:type="MSShapeGroup"></path>
            </g>
        </g>
    </g>
</svg>