<?xml version="1.0" encoding="UTF-8" standalone="no"?>
<svg width="128px" height="128px" viewBox="0 0 128 128" version="1.1" xmlns="http://www.w3.org/2000/svg" xmlns:xlink="http://www.w3.org/1999/xlink" xmlns:sketch="http://www.bohemiancoding.com/sketch/ns">
    <!-- Generator: Sketch 3.3 (11970) - http://www.bohemiancoding.com/sketch -->
    <title>ico-check</title>
    <desc>Created with Sketch.</desc>
    <defs>
        <path id="path-1" d="M94.41025,10.17 C90.795375,6.5925 84.926875,6.5925 81.3044375,10.185 L39.4838125,51.66 L19.723,32.07 C15.6921875,28.065 9.150625,28.065 5.127375,32.07 C1.089,36.0675 1.089,42.555 5.127375,46.5525 L30.6810625,71.9025 C30.8020625,72.015 30.960875,72.105 31.0894375,72.2325 C31.2104375,72.3675 31.3011875,72.5175 31.42975,72.6525 C35.0521875,76.23 40.913125,76.23 44.5355625,72.6375 L94.41025,23.175 C98.0326875,19.5825 98.0326875,13.77 94.41025,10.17 L94.41025,10.17 Z"></path>
    </defs>
    <g id="Page-1" stroke="none" stroke-width="1" fill="none" fill-rule="evenodd" sketch:type="MSPage">
        <g id="ico-check" sketch:type="MSArtboardGroup">
            <g id="Imported-Layers" sketch:type="MSLayerGroup" transform="translate(4.000000, 12.000000)">
                <path d="M117.09775,10.17 C113.482875,6.5925 107.614375,6.5925 103.991937,10.185 L62.1713125,51.66 L42.4105,32.07 C38.3796875,28.065 31.838125,28.065 27.814875,32.07 C23.7765,36.0675 23.7765,42.555 27.814875,46.5525 L53.3685625,71.9025 C53.4895625,72.015 53.648375,72.105 53.7769375,72.2325 C53.8979375,72.3675 53.9886875,72.5175 54.11725,72.6525 C57.7396875,76.23 63.600625,76.23 67.2230625,72.6375 L117.09775,23.175 C120.720187,19.5825 120.720187,13.77 117.09775,10.17" id="Fill-1" fill="#C1B293" sketch:type="MSShapeGroup"></path>
                <g id="Group-4" transform="translate(22.687500, 0.000000)">
                    <mask id="mask-2" sketch:name="Clip 3" fill="white">
                        <use xlink:href="#path-1"></use>
                    </mask>
                    <g id="Clip-3"></g>
                    <path d="M1.089,6.5925 L98.0326875,6.5925 L98.0326875,76.23 L1.089,76.23 L1.089,6.5925 Z" id="Fill-2" fill="#C1B293" sketch:type="MSShapeGroup" mask="url(#mask-2)"></path>
                </g>
                <path d="M94.576625,56.0475 L94.576625,84.78 C94.576625,88.1775 91.7860625,90.945 88.36025,90.945 L18.60375,90.945 C15.1779375,90.945 12.387375,88.1775 12.387375,84.78 L12.387375,15.6075 C12.387375,12.21 15.1779375,9.4425 18.60375,9.4425 L88.36025,9.4425 C89.918125,9.4425 91.2945,10.065 92.3910625,11.01 L98.6528125,4.8075 C98.8040625,4.65 99.0006875,4.545 99.1519375,4.4025 C96.3386875,1.7325 92.549875,0.0675 88.36025,0.0675 L18.60375,0.0675 C9.9598125,0.0675 2.93425,7.035 2.93425,15.6075 L2.93425,84.78 C2.93425,93.345 9.9598125,100.32 18.60375,100.32 L88.36025,100.32 C96.996625,100.32 104.02975,93.345 104.02975,84.78 L104.02975,46.665 L94.576625,56.0475" id="Fill-5" fill="#C1B294" sketch:type="MSShapeGroup"></path>
            </g>
        </g>
    </g>
</svg>