<?xml version="1.0" encoding="utf-8"?>
<!-- Generator: Adobe Illustrator 16.0.0, SVG Export Plug-In . SVG Version: 6.00 Build 0)  -->
<!DOCTYPE svg PUBLIC "-//W3C//DTD SVG 1.0//EN" "http://www.w3.org/TR/2001/REC-SVG-20010904/DTD/svg10.dtd">
<svg version="1.0" id="Layer_1" xmlns="http://www.w3.org/2000/svg" xmlns:xlink="http://www.w3.org/1999/xlink" x="0px" y="0px"
	 width="64px" height="64px" viewBox="0 0 64 64" style="enable-background:new 0 0 64 64;" xml:space="preserve">
<linearGradient id="SVGID_1_" gradientUnits="userSpaceOnUse" x1="32.0005" y1="61.7334" x2="32.0005" y2="2.2671">
	<stop  offset="0" style="stop-color:#00ADF7"/>
	<stop  offset="1" style="stop-color:#48C5FB"/>
</linearGradient>
<path style="fill:url(#SVGID_1_);" d="M49.719,22.913c0.026,0.381,0.026,0.777,0.026,1.185c0,12.081-9.198,26.017-26.016,26.017
	c-5.172,0-9.975-1.514-14.015-4.107c0.711,0.081,1.435,0.12,2.171,0.12c4.29,0,8.238-1.461,11.37-3.909
	c-4.014-0.078-7.383-2.724-8.554-6.355c0.565,0.118,1.132,0.17,1.724,0.17c0.829,0,1.646-0.116,2.408-0.327
	c-4.185-0.83-7.329-4.526-7.329-8.963c0-0.039,0-0.077,0-0.118c1.224,0.685,2.645,1.105,4.132,1.146
	c-2.448-1.646-4.066-4.435-4.066-7.606c0-1.684,0.46-3.25,1.237-4.605c4.514,5.54,11.251,9.172,18.857,9.554
	c-0.158-0.657-0.237-1.369-0.237-2.08c0-5.053,4.093-9.146,9.146-9.146c2.633,0,5.001,1.105,6.672,2.896
	c2.079-0.422,4.041-1.171,5.804-2.224c-0.672,2.131-2.132,3.922-4.014,5.054c1.854-0.211,3.605-0.711,5.25-1.436
	C53.063,20.007,51.509,21.623,49.719,22.913z M56.352,2.267H7.648c-2.961,0-5.382,2.422-5.382,5.383v48.702
	c0,2.96,2.421,5.382,5.382,5.382h48.703c2.961,0,5.382-2.422,5.382-5.382V7.649C61.733,4.688,59.313,2.267,56.352,2.267z"/>
</svg>
