<?xml version="1.0" encoding="utf-8"?>
<!-- Generator: Adobe Illustrator 16.0.0, SVG Export Plug-In . SVG Version: 6.00 Build 0)  -->
<!DOCTYPE svg PUBLIC "-//W3C//DTD SVG 1.0//EN" "http://www.w3.org/TR/2001/REC-SVG-20010904/DTD/svg10.dtd">
<svg version="1.0" id="Layer_1" xmlns="http://www.w3.org/2000/svg" xmlns:xlink="http://www.w3.org/1999/xlink" x="0px" y="0px"
	 width="64px" height="64px" viewBox="0 0 64 64" style="enable-background:new 0 0 64 64;" xml:space="preserve">
<linearGradient id="SVGID_1_" gradientUnits="userSpaceOnUse" x1="32.0005" y1="60.9902" x2="32.0005" y2="3.0107">
	<stop  offset="0" style="stop-color:#3F3F3F"/>
	<stop  offset="1" style="stop-color:#747474"/>
</linearGradient>
<path style="fill:url(#SVGID_1_);" d="M43.83,49.119H20.17V14.076h23.66V49.119z M32,58.015c-1.777,0-3.225-1.446-3.225-3.223
	c0-1.79,1.448-3.225,3.225-3.225s3.224,1.435,3.224,3.225C35.225,56.568,33.777,58.015,32,58.015z M28.381,7.575h7.251
	c0.657,0,1.197,0.541,1.197,1.211c0,0.657-0.54,1.211-1.197,1.211h-7.251c-0.671,0-1.21-0.554-1.21-1.211
	C27.171,8.116,27.71,7.575,28.381,7.575z M43.66,3.01H20.341c-2.329,0-4.237,1.907-4.237,4.237v49.505
	c0,2.33,1.908,4.238,4.237,4.238H43.66c2.328,0,4.236-1.908,4.236-4.238V7.247C47.896,4.917,45.988,3.01,43.66,3.01z"/>
</svg>
