<?xml version="1.0" encoding="utf-8"?>
<!-- Generator: Adobe Illustrator 16.0.0, SVG Export Plug-In . SVG Version: 6.00 Build 0)  -->
<!DOCTYPE svg PUBLIC "-//W3C//DTD SVG 1.0//EN" "http://www.w3.org/TR/2001/REC-SVG-20010904/DTD/svg10.dtd">
<svg version="1.0" id="Layer_1" xmlns="http://www.w3.org/2000/svg" xmlns:xlink="http://www.w3.org/1999/xlink" x="0px" y="0px"
	 width="64px" height="64px" viewBox="0 0 64 64" style="enable-background:new 0 0 64 64;" xml:space="preserve">
<path style="fill:#9299A9;" d="M22.732,34.637c-3.908-3.314-4.382-9.184-1.066-13.093c0.302-0.367,0.645-0.697,1-1.012
	c3.422-2.974,8.62-3,12.093-0.052c1.882,1.605,3.04,3.855,3.237,6.328c0.211,2.476-0.565,4.87-2.171,6.765
	c-0.316,0.367-0.646,0.697-1.001,1.012C31.391,37.559,26.193,37.586,22.732,34.637z M49.537,44.455l-7.856-8.422
	c1.895-2.869,2.776-6.25,2.487-9.726c-0.329-4.13-2.25-7.87-5.396-10.553c-5.791-4.908-14.448-4.856-20.173,0.106
	c-0.592,0.512-1.145,1.078-1.658,1.671c-5.527,6.513-4.724,16.304,1.776,21.83c4.566,3.871,10.922,4.645,16.211,2.369
	c0.065,0.066,0.119,0.157,0.185,0.236l7.961,8.527c0.961,1.027,2.316,1.502,3.619,1.383c0.947-0.078,1.882-0.475,2.632-1.172
	C51.115,49.049,51.208,46.246,49.537,44.455z"/>
</svg>
