<?xml version="1.0" encoding="utf-8"?>
<!-- Generator: Adobe Illustrator 16.0.0, SVG Export Plug-In . SVG Version: 6.00 Build 0)  -->
<!DOCTYPE svg PUBLIC "-//W3C//DTD SVG 1.0//EN" "http://www.w3.org/TR/2001/REC-SVG-20010904/DTD/svg10.dtd">
<svg version="1.0" id="Layer_1" xmlns="http://www.w3.org/2000/svg" xmlns:xlink="http://www.w3.org/1999/xlink" x="0px" y="0px"
	 width="64px" height="64px" viewBox="0 0 64 64" style="enable-background:new 0 0 64 64;" xml:space="preserve">
<linearGradient id="SVGID_1_" gradientUnits="userSpaceOnUse" x1="28.627" y1="63.665" x2="28.627" y2="25.6582">
	<stop  offset="0" style="stop-color:#3F3F3F"/>
	<stop  offset="1" style="stop-color:#747474"/>
</linearGradient>
<path style="fill:url(#SVGID_1_);" d="M25.438,28.444l-10.409,6.185c-0.619,0.368-1.685,0.474-2.369,0.236l-5.25-1.816
	c-0.684-0.237-0.737-0.723-0.105-1.093l10.304-5.921c0.632-0.356,1.71-0.486,2.408-0.277l5.29,1.619
	C26.003,27.588,26.069,28.063,25.438,28.444z M26.174,63.527l-13.159-7.095c-0.645-0.341-1.158-1.21-1.158-1.935v-5.79l6.422,4.093
	c0.224,0.146,0.461,0.211,0.711,0.211c0.355,0,0.724-0.145,0.974-0.435l6.751-7.58c0.026-0.026,0.026-0.053,0.053-0.078
	c0.329,0.408,0.552,0.935,0.552,1.408v16.515C27.319,63.553,26.806,63.868,26.174,63.527z M25.293,43.3l-5.869,6.593
	c-0.237,0.264-0.684,0.33-0.987,0.132L7.581,43.103c-0.303-0.185-0.342-0.553-0.079-0.802l5.856-5.566
	c0.263-0.25,0.737-0.304,1.053-0.132l10.751,5.896C25.478,42.669,25.543,43.036,25.293,43.3z M49.27,33.049l-5.237,1.816
	c-0.684,0.237-1.764,0.132-2.382-0.236l-10.41-6.185c-0.619-0.382-0.565-0.856,0.132-1.067l5.291-1.619
	c0.697-0.209,1.776-0.079,2.408,0.277l10.304,5.921C50.007,32.326,49.954,32.812,49.27,33.049z M50.138,43.103l-10.843,6.922
	c-0.303,0.198-0.75,0.132-1.001-0.132L32.425,43.3c-0.236-0.264-0.171-0.631,0.145-0.802l10.751-5.896
	c0.316-0.172,0.79-0.118,1.053,0.132l5.844,5.566C50.48,42.55,50.44,42.918,50.138,43.103z M44.598,56.433l-13.146,7.095
	c-0.645,0.341-1.158,0.025-1.158-0.686V46.327c0-0.514,0.25-1.067,0.619-1.487c0.039,0.053,0.052,0.12,0.092,0.157l6.751,7.58
	c0.263,0.29,0.618,0.435,0.986,0.435c0.236,0,0.487-0.064,0.697-0.211l6.316-4.026v5.724C45.756,55.223,45.243,56.092,44.598,56.433
	z"/>
<linearGradient id="SVGID_2_" gradientUnits="userSpaceOnUse" x1="48.4014" y1="0.335" x2="48.4014" y2="23.3779">
	<stop  offset="0" style="stop-color:#E78601"/>
	<stop  offset="1" style="stop-color:#D27A02"/>
</linearGradient>
<path style="fill:url(#SVGID_2_);" d="M39.664,10.849h2.592c-0.013,0.17-0.026,0.33-0.026,0.5s0,0.342,0,0.515v0.815h-1.554
	l-1.012,2.947h2.907c0.553,2.698,1.619,4.67,3.225,5.895c1.592,1.237,3.539,1.857,5.869,1.857c0.46,0,0.946-0.027,1.446-0.081
	c0.514-0.052,1.001-0.13,1.487-0.235c0.487-0.092,0.948-0.237,1.395-0.408c0.448-0.184,0.83-0.381,1.146-0.618l-0.854-3.146
	c-0.514,0.29-1.094,0.54-1.725,0.725c-0.646,0.183-1.408,0.29-2.303,0.29c-1.514,0-2.736-0.37-3.645-1.079
	c-0.922-0.725-1.593-1.79-2.014-3.198h5.947l0.816-2.947h-7.277v-0.815c0-0.199,0-0.37,0-0.526c0-0.159,0.014-0.318,0.04-0.488
	h7.882l0.815-2.947h-8.197c0.46-1.435,1.157-2.473,2.065-3.118c0.896-0.646,1.987-0.961,3.25-0.961c0.83,0,1.54,0.053,2.158,0.145
	c0.605,0.091,1.146,0.237,1.605,0.42l1.119-3.21c-0.579-0.223-1.29-0.422-2.145-0.593c-0.856-0.157-1.83-0.25-2.922-0.25
	c-1.04,0-2.039,0.145-2.987,0.42c-0.96,0.264-1.842,0.711-2.645,1.317c-0.803,0.592-1.5,1.37-2.105,2.316
	c-0.605,0.948-1.066,2.12-1.382,3.514h-1.962L39.664,10.849z"/>
</svg>
