<?xml version="1.0" encoding="utf-8"?>
<!-- Generator: Adobe Illustrator 16.0.0, SVG Export Plug-In . SVG Version: 6.00 Build 0)  -->
<!DOCTYPE svg PUBLIC "-//W3C//DTD SVG 1.0//EN" "http://www.w3.org/TR/2001/REC-SVG-20010904/DTD/svg10.dtd">
<svg version="1.0" id="Layer_1" xmlns="http://www.w3.org/2000/svg" xmlns:xlink="http://www.w3.org/1999/xlink" x="0px" y="0px"
	 width="64px" height="64px" viewBox="0 0 64 64" style="enable-background:new 0 0 64 64;" xml:space="preserve">
<g>
	<linearGradient id="SVGID_1_" gradientUnits="userSpaceOnUse" x1="24.6274" y1="58.8193" x2="24.6274" y2="5.1812">
		<stop  offset="0" style="stop-color:#3F3F3F"/>
		<stop  offset="1" style="stop-color:#747474"/>
	</linearGradient>
	<path style="fill:url(#SVGID_1_);" d="M32.146,11.801l7.541,6.79h-7.541V11.801z M42.175,45.961v8.384H7.079V9.655h20.318v11.173
		c0,1.236,1.066,2.237,2.382,2.237h12.396v2.21l4.751-4.264v-0.184c0-1.225-0.527-2.381-1.461-3.237l-12.41-11.16
		c-0.881-0.801-2.052-1.25-3.276-1.25h-22.7c-2.619,0-4.75,2.001-4.75,4.475v44.689c0,2.474,2.132,4.475,4.75,4.475h35.096
		c2.618,0,4.751-2.001,4.751-4.475V41.409L42.175,45.961z"/>
	<linearGradient id="SVGID_2_" gradientUnits="userSpaceOnUse" x1="44.8789" y1="48.0352" x2="44.8789" y2="15.9722">
		<stop  offset="0" style="stop-color:#E78601"/>
		<stop  offset="1" style="stop-color:#D27A02"/>
	</linearGradient>
	<path style="fill:url(#SVGID_2_);" d="M61.427,23.328l-2.185,2.053c-0.224,0.106-0.46,0.172-0.724,0.158
		c-1.487-0.026-3.369-1.604-3.961-2.211c-3.013-2.842-3.145-4.317-3.106-4.711c0-0.065,0.014-0.132,0.04-0.184l2.369-2.226
		c0.329-0.315,0.895-0.315,1.237,0l6.315,5.949C61.756,22.485,61.756,22.999,61.427,23.328z M55.769,28.645L41.503,42.054
		c-0.209,0.118-0.446,0.171-0.709,0.171c-1.487-0.026-3.37-1.617-3.962-2.21c-3.026-2.844-3.145-4.331-3.118-4.712
		c0.013-0.065,0.026-0.13,0.039-0.185l14.448-13.593c0.105-0.092,0.225-0.158,0.343-0.197c0.671,1.355,1.803,2.804,3.421,4.329
		c0,0,0,0,0.014,0c0.04,0.053,0.132,0.146,0.263,0.275c0.593,0.555,1.988,1.737,3.725,2.435
		C55.913,28.474,55.847,28.564,55.769,28.645z M37.017,45.252l-7.685,2.684c-0.921,0.316-1.448-0.145-1.171-1.025l2.448-7.738
		c0.105-0.314,0.263-0.525,0.46-0.658c0.697,1.197,1.737,2.475,3.146,3.804c0,0,0.013,0,0.013,0.014
		c0.039,0.038,0.131,0.13,0.264,0.263c0.526,0.486,1.697,1.5,3.185,2.197C37.542,44.988,37.319,45.146,37.017,45.252z"/>
</g>
</svg>
