<?xml version="1.0" encoding="utf-8"?>
<!-- Generator: Adobe Illustrator 16.0.0, SVG Export Plug-In . SVG Version: 6.00 Build 0)  -->
<!DOCTYPE svg PUBLIC "-//W3C//DTD SVG 1.0//EN" "http://www.w3.org/TR/2001/REC-SVG-20010904/DTD/svg10.dtd">
<svg version="1.0" id="Layer_1" xmlns="http://www.w3.org/2000/svg" xmlns:xlink="http://www.w3.org/1999/xlink" x="0px" y="0px"
	 width="64px" height="64px" viewBox="0 0 64 64" style="enable-background:new 0 0 64 64;" xml:space="preserve">
<path style="fill:#4F4A8A;" d="M37.982,32.204c-3.475,0-4.396,1.5-4.396,4.685c0,3.264,0.908,4.763,4.396,4.763
	c3.381,0,4.275-1.539,4.275-4.763S41.441,32.204,37.982,32.204z M34.258,24.387l-7.62,16.989h3.158l7.592-16.989H34.258z
	 M26.138,24.217c-3.474,0-4.396,1.499-4.396,4.685c0,3.249,0.895,4.764,4.396,4.764c3.382,0,4.277-1.54,4.277-4.764
	S29.586,24.217,26.138,24.217z M60.207,34.94c0,3.04-1.197,5.791-3.145,7.83c-0.777,4.329-4.539,7.633-9.094,7.633
	c-2.314,0-4.42-0.868-6.053-2.277c-1.777,4.198-5.922,7.146-10.751,7.146c-4.382,0-8.198-2.423-10.198-6.001
	c-0.947,0.382-1.974,0.605-3.053,0.605c-3.185,0-5.922-1.883-7.224-4.58c-4.053-1.804-6.896-5.855-6.896-10.579
	c0-4.882,3.014-9.054,7.277-10.764c-0.053-0.345-0.092-0.697-0.092-1.054c0-3.855,3.119-6.975,6.961-6.975
	c2.421,0,4.553,1.237,5.803,3.119c1.948-5.988,7.567-10.317,14.198-10.317c8.252,0,14.936,6.711,14.936,14.975
	c0,0.199-0.012,0.396-0.025,0.593C57.141,25.914,60.207,30.059,60.207,34.94z M26.046,31.375c-0.881,0-1.224-0.367-1.224-2.553
	c0-1.974,0.29-2.355,1.25-2.355c0.921,0,1.263,0.382,1.263,2.566C27.335,31.008,27.112,31.375,26.046,31.375z M37.889,39.375
	c-0.881,0-1.223-0.382-1.223-2.552c0-1.987,0.303-2.369,1.25-2.369c0.92,0,1.275,0.382,1.275,2.565
	C39.191,38.993,38.969,39.375,37.889,39.375z"/>
</svg>
