<?xml version="1.0" encoding="utf-8"?>
<!-- Generator: Adobe Illustrator 16.0.0, SVG Export Plug-In . SVG Version: 6.00 Build 0)  -->
<!DOCTYPE svg PUBLIC "-//W3C//DTD SVG 1.0//EN" "http://www.w3.org/TR/2001/REC-SVG-20010904/DTD/svg10.dtd">
<svg version="1.0" id="Layer_1" xmlns="http://www.w3.org/2000/svg" xmlns:xlink="http://www.w3.org/1999/xlink" x="0px" y="0px"
	 width="64px" height="64px" viewBox="0 0 64 64" style="enable-background:new 0 0 64 64;" xml:space="preserve">
<g>
	<linearGradient id="SVGID_1_" gradientUnits="userSpaceOnUse" x1="21.8887" y1="7.9233" x2="21.8887" y2="40.3618">
		<stop  offset="0" style="stop-color:#E78601"/>
		<stop  offset="1" style="stop-color:#D27A02"/>
	</linearGradient>
	<path style="fill:url(#SVGID_1_);" d="M23.447,9.068c-0.04-1.171-0.79-1.501-1.671-0.724L5.471,22.569
		c-0.882,0.763-0.895,2.04-0.013,2.816l16.331,14.554c0.869,0.776,1.58,0.448,1.58-0.723v-6.027c0-1.172,0.96-2.132,2.131-2.132
		h11.342c1.171,0,2.133-0.948,2.133-2.12v-8.869c0-1.17-0.948-2.133-2.133-2.133H25.855c-1.171,0-2.158-0.96-2.198-2.118
		L23.447,9.068z"/>
	<linearGradient id="SVGID_2_" gradientUnits="userSpaceOnUse" x1="42.1113" y1="56.0771" x2="42.1113" y2="23.6475">
		<stop  offset="0" style="stop-color:#3F3F3F"/>
		<stop  offset="1" style="stop-color:#747474"/>
	</linearGradient>
	<path style="fill:url(#SVGID_2_);" d="M40.554,54.941c0.039,1.157,0.789,1.487,1.671,0.724l16.304-14.226
		c0.882-0.776,0.896-2.04,0.014-2.815L42.211,24.07c-0.868-0.778-1.579-0.449-1.579,0.709v6.041c0,1.171-0.96,2.132-2.131,2.132
		H27.157c-1.171,0-2.131,0.948-2.131,2.119v8.869c0,1.171,0.947,2.132,2.131,2.132h10.987c1.171,0,2.158,0.947,2.198,2.119
		L40.554,54.941z"/>
</g>
</svg>
