<?xml version="1.0" encoding="utf-8"?>
<!-- Generator: Adobe Illustrator 16.0.4, SVG Export Plug-In . SVG Version: 6.00 Build 0)  -->
<!DOCTYPE svg PUBLIC "-//W3C//DTD SVG 1.1//EN" "http://www.w3.org/Graphics/SVG/1.1/DTD/svg11.dtd">
<svg version="1.1" id="Layer_1" xmlns="http://www.w3.org/2000/svg" xmlns:xlink="http://www.w3.org/1999/xlink" x="0px" y="0px"
	 width="64px" height="64px" viewBox="0 0 64 64" enable-background="new 0 0 64 64" xml:space="preserve">
<path fill="#E5216C" d="M62.5,24.65h-2.224h-1.5h-3.2h-1.5h-2.8h-1.5h-3h-1.5h-2.8h-1.5h-3.101h-1.5h-3.1h-1.5h-2.9h-1.5h-3h-1.5
	h-2.601h-1.5h-3.3h-1.5h-3h-1.5h-3.1h-1.5H1.5H0v1.6v11.5v1.601h1.5h61H64V37.75v-11.5v-1.6H62.5z M62.5,37.75h-61v-11.5h3.377V32
	h1.5v-5.75h3.1V32h1.5v-5.75h3v3.8h1.5v-3.8h3.3v5.3h1.5v-5.3h2.601v3.8h1.5v-3.8h3v5.3h1.5v-5.3h2.9v3.8h1.5v-3.8h3.1v5.3h1.5v-5.3
	h3.101v3.8h1.5v-3.8h2.8v5.3h1.5v-5.3h3v3.8h1.5v-3.8h2.8v5.3h1.5v-5.3h3.2v3.8h1.5v-3.8H62.5V37.75z"/>
</svg>
