<?xml version="1.0" encoding="utf-8"?>
<!-- Generator: Adobe Illustrator 16.0.0, SVG Export Plug-In . SVG Version: 6.00 Build 0)  -->
<!DOCTYPE svg PUBLIC "-//W3C//DTD SVG 1.0//EN" "http://www.w3.org/TR/2001/REC-SVG-20010904/DTD/svg10.dtd">
<svg version="1.0" id="Layer_1" xmlns="http://www.w3.org/2000/svg" xmlns:xlink="http://www.w3.org/1999/xlink" x="0px" y="0px"
	 width="64px" height="64px" viewBox="0 0 64 64" style="enable-background:new 0 0 64 64;" xml:space="preserve">
<linearGradient id="SVGID_1_" gradientUnits="userSpaceOnUse" x1="32.0005" y1="64" x2="32.0005" y2="3.128052e-004">
	<stop  offset="0" style="stop-color:#3F3F3F"/>
	<stop  offset="1" style="stop-color:#747474"/>
</linearGradient>
<path style="fill:url(#SVGID_1_);" d="M32,10.72c-13.842,0-25.104,11.262-25.104,25.104c0,6.203,2.28,12.158,6.421,16.767
	l0.574,0.64l36.166,0.051l0.577-0.638c4.171-4.617,6.469-10.592,6.469-16.819C57.104,21.981,45.841,10.72,32,10.72z M48.323,49.416
	l-9.567-0.015c-0.686-2.417-2.632-4.299-5.085-4.897l-5.074-15.828c-0.133-0.269-0.456-0.38-0.725-0.249l-0.335,0.163
	c-0.27,0.131-0.381,0.456-0.25,0.725l1.87,15.584c-1.885,0.836-3.332,2.476-3.908,4.486L15.64,49.37
	c-3.154-3.803-4.881-8.581-4.881-13.547c0-11.712,9.529-21.241,21.241-21.241s21.241,9.529,21.241,21.241
	C53.241,40.811,51.502,45.605,48.323,49.416z"/>
<linearGradient id="SVGID_2_" gradientUnits="userSpaceOnUse" x1="32.0005" y1="64" x2="32.0005" y2="5.683899e-004">
	<stop  offset="0" style="stop-color:#3F3F3F"/>
	<stop  offset="1" style="stop-color:#747474"/>
</linearGradient>
<path style="fill:url(#SVGID_2_);" d="M32,17.561c-0.399,0-0.723,0.322-0.723,0.722v3.865c0,0.4,0.323,0.723,0.723,0.723
	s0.724-0.322,0.724-0.723v-3.865C32.724,17.883,32.399,17.561,32,17.561z"/>
<linearGradient id="SVGID_3_" gradientUnits="userSpaceOnUse" x1="43.0137" y1="64" x2="43.0137" y2="5.798340e-004">
	<stop  offset="0" style="stop-color:#3F3F3F"/>
	<stop  offset="1" style="stop-color:#747474"/>
</linearGradient>
<path style="fill:url(#SVGID_3_);" d="M44.892,22.967c-0.283-0.282-0.74-0.282-1.022,0l-2.733,2.731
	c-0.282,0.285-0.282,0.741,0,1.023c0.284,0.282,0.74,0.284,1.023,0l2.733-2.732C45.174,23.708,45.174,23.25,44.892,22.967z"/>
<linearGradient id="SVGID_4_" gradientUnits="userSpaceOnUse" x1="47.5273" y1="64" x2="47.5273" y2="4.653931e-004">
	<stop  offset="0" style="stop-color:#3F3F3F"/>
	<stop  offset="1" style="stop-color:#747474"/>
</linearGradient>
<path style="fill:url(#SVGID_4_);" d="M44.872,35.905c0.002,0.4,0.324,0.724,0.725,0.725l3.864-0.001
	c0.399,0,0.722-0.321,0.723-0.724c0-0.399-0.323-0.722-0.723-0.722l-3.864-0.001C45.196,35.185,44.874,35.507,44.872,35.905z"/>
<linearGradient id="SVGID_5_" gradientUnits="userSpaceOnUse" x1="16.3076" y1="64" x2="16.3076" y2="5.607605e-004">
	<stop  offset="0" style="stop-color:#3F3F3F"/>
	<stop  offset="1" style="stop-color:#747474"/>
</linearGradient>
<path style="fill:url(#SVGID_5_);" d="M18.241,35.019l-3.864,0.001c-0.401,0.003-0.722,0.324-0.725,0.725
	c-0.001,0.4,0.325,0.723,0.725,0.723l3.864,0.002c0.401-0.004,0.722-0.326,0.722-0.725C18.963,35.345,18.641,35.021,18.241,35.019z"
	/>
<linearGradient id="SVGID_6_" gradientUnits="userSpaceOnUse" x1="17.52" y1="64" x2="17.52" y2="5.989075e-004">
	<stop  offset="0" style="stop-color:#3F3F3F"/>
	<stop  offset="1" style="stop-color:#747474"/>
</linearGradient>
<path style="fill:url(#SVGID_6_);" d="M19.584,29.86l-3.573-1.474c-0.371-0.151-0.789,0.022-0.945,0.393
	c-0.153,0.368,0.024,0.792,0.394,0.944L19.03,31.2c0.373,0.149,0.791-0.026,0.945-0.395C20.127,30.437,19.952,30.015,19.584,29.86z"
	/>
<linearGradient id="SVGID_7_" gradientUnits="userSpaceOnUse" x1="20.9126" y1="64" x2="20.9126" y2="5.836487e-004">
	<stop  offset="0" style="stop-color:#3F3F3F"/>
	<stop  offset="1" style="stop-color:#747474"/>
</linearGradient>
<path style="fill:url(#SVGID_7_);" d="M20.053,22.878c-0.284-0.282-0.737-0.279-1.022,0.003c-0.282,0.281-0.281,0.741,0.003,1.022
	l2.738,2.729c0.286,0.28,0.74,0.278,1.022-0.006c0.282-0.282,0.281-0.738,0-1.021L20.053,22.878z"/>
<linearGradient id="SVGID_8_" gradientUnits="userSpaceOnUse" x1="25.9707" y1="64" x2="25.9707" y2="5.760193e-004">
	<stop  offset="0" style="stop-color:#3F3F3F"/>
	<stop  offset="1" style="stop-color:#747474"/>
</linearGradient>
<path style="fill:url(#SVGID_8_);" d="M25.893,19.33c-0.156-0.369-0.575-0.54-0.946-0.39c-0.369,0.153-0.543,0.58-0.389,0.948
	l1.49,3.566c0.157,0.368,0.579,0.539,0.947,0.386c0.369-0.153,0.542-0.576,0.39-0.945L25.893,19.33z"/>
<linearGradient id="SVGID_9_" gradientUnits="userSpaceOnUse" x1="37.8857" y1="64" x2="37.8857" y2="5.912781e-004">
	<stop  offset="0" style="stop-color:#3F3F3F"/>
	<stop  offset="1" style="stop-color:#747474"/>
</linearGradient>
<path style="fill:url(#SVGID_9_);" d="M38.889,18.94c-0.369-0.153-0.794,0.026-0.943,0.397l-1.46,3.579
	c-0.149,0.371,0.029,0.791,0.398,0.941c0.37,0.151,0.791-0.025,0.942-0.395l1.459-3.58C39.436,19.511,39.257,19.095,38.889,18.94z"
	/>
<linearGradient id="SVGID_10_" gradientUnits="userSpaceOnUse" x1="46.3242" y1="64" x2="46.3242" y2="6.027222e-004">
	<stop  offset="0" style="stop-color:#3F3F3F"/>
	<stop  offset="1" style="stop-color:#747474"/>
</linearGradient>
<path style="fill:url(#SVGID_10_);" d="M43.88,30.848c0.156,0.367,0.578,0.542,0.946,0.386l3.56-1.509
	c0.369-0.158,0.536-0.578,0.385-0.947c-0.153-0.369-0.582-0.542-0.949-0.386l-3.56,1.507C43.895,30.057,43.725,30.479,43.88,30.848z
	"/>
</svg>
