<?xml version="1.0" encoding="utf-8"?>
<!-- Generator: Adobe Illustrator 16.0.0, SVG Export Plug-In . SVG Version: 6.00 Build 0)  -->
<!DOCTYPE svg PUBLIC "-//W3C//DTD SVG 1.0//EN" "http://www.w3.org/TR/2001/REC-SVG-20010904/DTD/svg10.dtd">
<svg version="1.0" id="Layer_1" xmlns="http://www.w3.org/2000/svg" xmlns:xlink="http://www.w3.org/1999/xlink" x="0px" y="0px"
	 width="64px" height="64px" viewBox="0 0 64 64" style="enable-background:new 0 0 64 64;" xml:space="preserve">
<path style="fill:#C0B193;" d="M38.258,44.061H25.849c-0.855,0-1.553-0.699-1.553-1.553v-0.697c0-0.855,0.697-1.553,1.553-1.553
	h12.409c0.854,0,1.552,0.697,1.552,1.553v0.697C39.81,43.361,39.112,44.061,38.258,44.061z M38.258,27.519H25.849
	c-0.855,0-1.553-0.683-1.553-1.539v-0.712c0-0.841,0.697-1.538,1.553-1.538h12.409c0.854,0,1.552,0.697,1.552,1.538v0.712
	C39.81,26.836,39.112,27.519,38.258,27.519z M51.153,35.572H13.019v13.396h38.135V35.572z M51.153,17.993H13.019V31.44h38.135
	V17.993z M53.693,58.219H10.334c-0.855,0-1.58-0.684-1.58-1.537V50.51c0-0.105,0.014-0.197,0.026-0.291V12.071
	c0-0.408,0.158-0.789,0.435-1.079l4.658-4.751c0.29-0.303,0.697-0.46,1.119-0.46h34.017c0.421,0,0.816,0.157,1.105,0.46l4.685,4.751
	c0.29,0.29,0.447,0.671,0.447,1.079v44.611C55.246,57.535,54.549,58.219,53.693,58.219z"/>
</svg>
