<?xml version="1.0" encoding="utf-8"?>
<!-- Generator: Adobe Illustrator 16.0.0, SVG Export Plug-In . SVG Version: 6.00 Build 0)  -->
<!DOCTYPE svg PUBLIC "-//W3C//DTD SVG 1.0//EN" "http://www.w3.org/TR/2001/REC-SVG-20010904/DTD/svg10.dtd">
<svg version="1.0" id="Layer_1" xmlns="http://www.w3.org/2000/svg" xmlns:xlink="http://www.w3.org/1999/xlink" x="0px" y="0px"
	 width="64px" height="64px" viewBox="0 0 64 64" style="enable-background:new 0 0 64 64;" xml:space="preserve">
<g>
	<linearGradient id="SVGID_1_" gradientUnits="userSpaceOnUse" x1="25.8257" y1="61.4375" x2="25.8257" y2="2.5629">
		<stop  offset="0" style="stop-color:#3F3F3F"/>
		<stop  offset="1" style="stop-color:#747474"/>
	</linearGradient>
	<path style="fill:url(#SVGID_1_);" d="M30.147,45.347c0-0.691,0.063-1.391,0.153-2.09c-1.445,0.372-2.942,0.582-4.475,0.582
		c-4.737,0-9.198-1.814-12.541-5.131c-3.355-3.305-5.198-7.699-5.198-12.383c0-4.674,1.842-9.067,5.198-12.385
		c3.342-3.303,7.803-5.119,12.541-5.119c4.738,0,9.2,1.816,12.541,5.119c3.355,3.317,5.198,7.711,5.198,12.385
		c0,1.053-0.106,2.087-0.291,3.1c1.001-0.193,1.995-0.291,2.968-0.291c0.459,0,0.909,0.03,1.359,0.067
		c0.063,0.005,0.124,0.019,0.187,0.025c0.133-0.955,0.212-1.921,0.212-2.902c0-5.845-2.304-11.346-6.488-15.477
		C37.313,6.717,31.748,4.44,25.826,4.44c-5.921,0-11.501,2.276-15.686,6.408c-4.185,4.131-6.488,9.632-6.488,15.477
		c0,5.855,2.303,11.342,6.488,15.488c4.198,4.131,9.764,6.408,15.686,6.408c1.539,0,3.051-0.164,4.524-0.464
		c-0.01-0.07-0.028-0.139-0.038-0.209C30.2,46.724,30.147,46.023,30.147,45.347z"/>
	<linearGradient id="SVGID_2_" gradientUnits="userSpaceOnUse" x1="34.7061" y1="61.4375" x2="34.7061" y2="2.5629">
		<stop  offset="0" style="stop-color:#3F3F3F"/>
		<stop  offset="1" style="stop-color:#747474"/>
	</linearGradient>
	<path style="fill:url(#SVGID_2_);" d="M40.142,28.795c0.479-1.131,0.588-2.297,0.426-3.518c-0.24-1.812-1.152-3.174-2.629-4.189
		c-0.947-0.65-2.01-0.854-3.145-0.818c-0.811,0.025-1.576,0.164-2.258,0.629c-0.324,0.222-0.643,0.453-0.994,0.7
		c0-0.34,0-0.667,0-0.997c-0.94,0-1.844,0-2.767,0c0,5.387,0,10.744,0,16.102c0.993,0,1.987,0,2.98,0c0-1.862,0-3.727,0-5.54
		c0.58,0.311,1.104,0.689,1.689,0.888C36.05,32.928,39.007,31.473,40.142,28.795z M31.616,26.243c0.01-1.737,1.359-3.095,3.07-3.086
		c1.658,0.008,2.979,1.387,2.969,3.103c-0.008,1.771-1.342,3.109-3.086,3.097C32.907,29.345,31.608,27.976,31.616,26.243z"/>
	<linearGradient id="SVGID_3_" gradientUnits="userSpaceOnUse" x1="24.8438" y1="61.4375" x2="24.8437" y2="2.563">
		<stop  offset="0" style="stop-color:#3F3F3F"/>
		<stop  offset="1" style="stop-color:#747474"/>
	</linearGradient>
	<path style="fill:url(#SVGID_3_);" d="M25.295,14.894c-0.133-0.034-0.268-0.062-0.402-0.091c-0.022,0-0.046,0-0.068,0
		c-0.09,0.021-0.178,0.046-0.268,0.061c-0.899,0.148-1.512,0.922-1.467,1.852c0.041,0.862,0.77,1.588,1.634,1.63
		c0.952,0.044,1.71-0.569,1.855-1.499C26.715,15.973,26.155,15.119,25.295,14.894z"/>
	<linearGradient id="SVGID_4_" gradientUnits="userSpaceOnUse" x1="15.9673" y1="61.4375" x2="15.9673" y2="2.563">
		<stop  offset="0" style="stop-color:#3F3F3F"/>
		<stop  offset="1" style="stop-color:#747474"/>
	</linearGradient>
	<path style="fill:url(#SVGID_4_);" d="M18.44,20.947c-0.797,2.188-1.618,4.365-2.461,6.626c-0.076-0.195-0.123-0.312-0.168-0.429
		c-0.787-2.08-1.58-4.158-2.356-6.243c-0.097-0.261-0.225-0.343-0.5-0.336c-0.876,0.019-1.755,0.006-2.632,0.008
		c-0.098,0-0.195,0.013-0.311,0.02c0.021,0.075,0.029,0.119,0.047,0.16c1.539,3.654,3.078,7.309,4.63,10.958
		c0.042,0.1,0.211,0.202,0.324,0.207c0.589,0.02,1.179-0.006,1.767,0.015c0.268,0.009,0.399-0.064,0.509-0.327
		c1.458-3.488,2.933-6.97,4.401-10.454c0.074-0.177,0.144-0.356,0.232-0.579c-1.004,0-1.958,0.013-2.912-0.008
		C18.701,20.558,18.552,20.637,18.44,20.947z"/>
	<linearGradient id="SVGID_5_" gradientUnits="userSpaceOnUse" x1="24.811" y1="61.4375" x2="24.811" y2="2.563">
		<stop  offset="0" style="stop-color:#3F3F3F"/>
		<stop  offset="1" style="stop-color:#747474"/>
	</linearGradient>
	<path style="fill:url(#SVGID_5_);" d="M23.338,31.902c0.998,0,1.975,0,2.945,0c0-3.782,0-7.538,0-11.313c-0.991,0-1.955,0-2.945,0
		C23.338,24.388,23.338,28.144,23.338,31.902z"/>
	<linearGradient id="SVGID_6_" gradientUnits="userSpaceOnUse" x1="46.2471" y1="61.4375" x2="46.2471" y2="2.5631">
		<stop  offset="0" style="stop-color:#3F3F3F"/>
		<stop  offset="1" style="stop-color:#747474"/>
	</linearGradient>
	<path style="fill:url(#SVGID_6_);" d="M47.433,31.195c-0.395-0.033-0.789-0.061-1.191-0.061c-1.209,0-2.376,0.17-3.496,0.458
		c-5.22,1.347-9.278,5.616-10.328,10.995c-0.174,0.894-0.27,1.814-0.27,2.759c0,0.657,0.06,1.3,0.146,1.934
		c0.939,6.927,6.822,12.279,13.948,12.279c7.79,0,14.106-6.371,14.106-14.213C60.348,37.895,54.663,31.805,47.433,31.195z
		 M40.962,46.773c-0.402-0.001-0.73-0.33-0.73-0.732v-3.896c0-0.403-0.33-0.733-0.73-0.733h-2.072c-0.4,0-0.51-0.242-0.244-0.545
		l4.996-5.607c0.268-0.3,0.703-0.297,0.967,0.005l4.887,5.599c0.262,0.303,0.15,0.56-0.25,0.573l-2.316,0.076
		c-0.4,0.012-0.729,0.353-0.729,0.754v3.774c0,0.403-0.33,0.731-0.732,0.732H40.962z M55.304,49.754l-4.887,5.599
		c-0.262,0.301-0.699,0.304-0.967,0.004l-4.996-5.607c-0.266-0.301-0.156-0.545,0.244-0.545h2.072c0.402,0,0.732-0.33,0.732-0.733
		v-3.896c0-0.401,0.328-0.73,0.729-0.732h3.047c0.4,0.002,0.73,0.329,0.73,0.732v3.775c0,0.401,0.328,0.742,0.729,0.754l2.316,0.075
		C55.454,49.193,55.567,49.45,55.304,49.754z"/>
</g>
</svg>
