<?xml version="1.0" encoding="utf-8"?>
<!-- Generator: Adobe Illustrator 16.0.0, SVG Export Plug-In . SVG Version: 6.00 Build 0)  -->
<!DOCTYPE svg PUBLIC "-//W3C//DTD SVG 1.1//EN" "http://www.w3.org/Graphics/SVG/1.1/DTD/svg11.dtd">
<svg version="1.1" id="Layer_1" xmlns="http://www.w3.org/2000/svg" xmlns:xlink="http://www.w3.org/1999/xlink" x="0px" y="0px"
	 width="64px" height="64px" viewBox="0 0 64 64" style="enable-background:new 0 0 64 64;" xml:space="preserve">
<g>
	<path style="fill:none;" d="M13.581,50.792h-0.005C13.577,50.792,13.579,50.792,13.581,50.792z"/>
	<linearGradient id="SVGID_1_" gradientUnits="userSpaceOnUse" x1="45.3691" y1="50.792" x2="45.3691" y2="13.2085">
		<stop  offset="0" style="stop-color:#3F3F3F"/>
		<stop  offset="1" style="stop-color:#747474"/>
	</linearGradient>
	<path style="fill:url(#SVGID_1_);" d="M34.71,26.043l21.411,0.026c0.881,0,1.605-0.592,1.605-1.314v-9.003l-12.305,5.251
		c-0.263,0.119-0.645,0.264-0.724,0.276c-0.066,0-0.185,0-0.264,0c-0.065-0.013-0.078-0.224-0.341-0.328l-11.081-5.106v8.502
		C33.013,25.069,33.829,26.043,34.71,26.043z"/>
	<linearGradient id="SVGID_2_" gradientUnits="userSpaceOnUse" x1="26.0972" y1="50.792" x2="26.0972" y2="13.2085">
		<stop  offset="0" style="stop-color:#3F3F3F"/>
		<stop  offset="1" style="stop-color:#747474"/>
	</linearGradient>
	<path style="fill:url(#SVGID_2_);" d="M29.328,42.756H27.17V40.65c0-0.396-0.316-0.711-0.711-0.711h-0.724
		c-0.395,0-0.723,0.315-0.723,0.711v2.105h-2.145c-0.395,0-0.724,0.329-0.724,0.723v0.712c0,0.394,0.329,0.724,0.724,0.724h2.145
		v2.198c0,0.394,0.329,0.723,0.723,0.723h0.724c0.395,0,0.711-0.329,0.711-0.723v-2.198h2.158c0.395,0,0.724-0.33,0.724-0.724
		v-0.712C30.052,43.085,29.723,42.756,29.328,42.756z"/>
	<linearGradient id="SVGID_3_" gradientUnits="userSpaceOnUse" x1="12.7192" y1="50.792" x2="12.7192" y2="13.2085">
		<stop  offset="0" style="stop-color:#3F3F3F"/>
		<stop  offset="1" style="stop-color:#747474"/>
	</linearGradient>
	<path style="fill:url(#SVGID_3_);" d="M17.761,44.992c-2.303-4.276-2.461-5.407-3.553-6.435c-1.158-1.079-2.382,0.896-3.513,0.106
		c-1.105-0.765-1.658-3.87-1.514-6.843c0.066-2.963,0.83-6.028,1.975-6.713c1.184-0.709,2.276,1.355,3.513,0.355
		c1.158-0.947,1.381-2.065,3.987-6.171c2.198-3.476-3.132-7.355-5.238-5.685c0,0-6.645,4.383-7.106,17.752c0,0.118,0,0.237,0,0.369
		c-0.013,0.116-0.013,0.235-0.026,0.354c-0.46,13.37,5.869,18.212,5.869,18.212c0.372,0.34,0.87,0.494,1.421,0.496h0.005
		C15.972,50.797,19.353,47.942,17.761,44.992z"/>
	<linearGradient id="SVGID_4_" gradientUnits="userSpaceOnUse" x1="45.1465" y1="50.792" x2="45.1465" y2="13.2085">
		<stop  offset="0" style="stop-color:#3F3F3F"/>
		<stop  offset="1" style="stop-color:#747474"/>
	</linearGradient>
	<path style="fill:url(#SVGID_4_);" d="M45.054,19.674l11.844-5.119c0.013-0.013,0.013-0.091,0.026-0.091
		c-0.264-0.172-0.605-0.276-0.962-0.276H34.395c-0.396,0-0.737,0.118-1.026,0.315l10.737,5.171
		C44.356,19.792,44.791,19.792,45.054,19.674z"/>
	<linearGradient id="SVGID_5_" gradientUnits="userSpaceOnUse" x1="48.0039" y1="50.792" x2="48.0039" y2="13.2085">
		<stop  offset="0" style="stop-color:#3F3F3F"/>
		<stop  offset="1" style="stop-color:#747474"/>
	</linearGradient>
	<path style="fill:url(#SVGID_5_);" d="M51.541,45.927l-1.579-0.039c-0.276-0.014-0.5-0.225-0.5-0.46v-2.305
		c0-0.236-0.224-0.434-0.5-0.434h-2.079c-0.276,0-0.5,0.197-0.5,0.434v2.369c0,0.251-0.224,0.449-0.5,0.449h-1.408
		c-0.276,0-0.355,0.144-0.172,0.328l3.409,3.408c0.184,0.184,0.486,0.184,0.658,0l3.342-3.408
		C51.883,46.085,51.817,45.941,51.541,45.927z"/>
	<linearGradient id="SVGID_6_" gradientUnits="userSpaceOnUse" x1="56.2646" y1="50.792" x2="56.2646" y2="13.2085">
		<stop  offset="0" style="stop-color:#3F3F3F"/>
		<stop  offset="1" style="stop-color:#747474"/>
	</linearGradient>
	<path style="fill:url(#SVGID_6_);" d="M54.791,37.939v1.225c0.936,0,1.158,0.433,1.158,4.604c0,4.382-0.236,4.818-1.158,4.818
		v1.224c1.553,0,2.947-0.382,2.947-6.015C57.738,38.282,56.344,37.939,54.791,37.939z"/>
	<linearGradient id="SVGID_7_" gradientUnits="userSpaceOnUse" x1="43.7266" y1="50.792" x2="43.7266" y2="13.2085">
		<stop  offset="0" style="stop-color:#3F3F3F"/>
		<stop  offset="1" style="stop-color:#747474"/>
	</linearGradient>
	<path style="fill:url(#SVGID_7_);" d="M45.186,44.624v-2.29c0-0.249,0.223-0.446,0.5-0.459l1.579-0.041
		c0.263-0.012,0.342-0.17,0.171-0.354l-3.342-3.395c-0.172-0.187-0.475-0.187-0.659-0.015l-3.407,3.409
		c-0.186,0.184-0.105,0.342,0.171,0.342h1.408c0.276,0,0.5,0.196,0.5,0.434v2.368c0,0.249,0.223,0.448,0.5,0.448h2.079
		C44.962,45.072,45.186,44.873,45.186,44.624z"/>
	<linearGradient id="SVGID_8_" gradientUnits="userSpaceOnUse" x1="26.0972" y1="50.792" x2="26.0972" y2="13.2085">
		<stop  offset="0" style="stop-color:#3F3F3F"/>
		<stop  offset="1" style="stop-color:#747474"/>
	</linearGradient>
	<path style="fill:url(#SVGID_8_);" d="M29.328,19.003H27.17v-2.105c0-0.394-0.316-0.71-0.711-0.71h-0.724
		c-0.395,0-0.723,0.316-0.723,0.71v2.105h-2.145c-0.395,0-0.724,0.329-0.724,0.723v0.712c0,0.407,0.329,0.724,0.724,0.724h2.145
		v2.197c0,0.396,0.329,0.725,0.723,0.725h0.724c0.395,0,0.711-0.328,0.711-0.725v-2.197h2.158c0.395,0,0.724-0.316,0.724-0.724
		v-0.712C30.052,19.332,29.723,19.003,29.328,19.003z"/>
	<linearGradient id="SVGID_9_" gradientUnits="userSpaceOnUse" x1="34.4658" y1="50.792" x2="34.4658" y2="13.2085">
		<stop  offset="0" style="stop-color:#3F3F3F"/>
		<stop  offset="1" style="stop-color:#747474"/>
	</linearGradient>
	<path style="fill:url(#SVGID_9_);" d="M32.999,43.795c0,5.633,1.383,6.015,2.935,6.015v-1.224c-0.921,0-1.145-0.437-1.145-4.818
		c0-4.171,0.211-4.604,1.145-4.604v-1.225C34.382,37.939,32.999,38.282,32.999,43.795z"/>
</g>
<g>
</g>
<g>
</g>
<g>
</g>
<g>
</g>
<g>
</g>
</svg>
