<?xml version="1.0" encoding="utf-8"?>
<!-- Generator: Adobe Illustrator 16.0.0, SVG Export Plug-In . SVG Version: 6.00 Build 0)  -->
<!DOCTYPE svg PUBLIC "-//W3C//DTD SVG 1.0//EN" "http://www.w3.org/TR/2001/REC-SVG-20010904/DTD/svg10.dtd">
<svg version="1.0" id="Layer_1" xmlns="http://www.w3.org/2000/svg" xmlns:xlink="http://www.w3.org/1999/xlink" x="0px" y="0px"
	 width="64px" height="64px" viewBox="0 0 64 64" style="enable-background:new 0 0 64 64;" xml:space="preserve">
<path style="fill:#A3A3A3;" d="M53.22,21.109c0.013,0.473,0.026,0.948,0.026,1.421c0,14.461-11.002,31.149-31.148,31.149
	c-6.172,0-11.936-1.816-16.778-4.923c0.855,0.104,1.725,0.159,2.619,0.159c5.119,0,9.843-1.751,13.593-4.686
	c-4.789-0.093-8.843-3.264-10.224-7.605c0.657,0.131,1.342,0.197,2.053,0.197c0.999,0,1.96-0.132,2.882-0.383
	c-5.001-1.012-8.777-5.434-8.777-10.738c0-0.052,0-0.091,0-0.145c1.474,0.83,3.158,1.316,4.961,1.37
	c-2.935-1.96-4.869-5.304-4.869-9.107c0-2.001,0.539-3.882,1.474-5.501c5.409,6.62,13.476,10.976,22.568,11.437
	c-0.184-0.804-0.276-1.633-0.276-2.5c0-6.042,4.896-10.936,10.948-10.936c3.146,0,5.988,1.329,7.988,3.447
	c2.487-0.488,4.829-1.396,6.948-2.657c-0.816,2.564-2.553,4.708-4.816,6.064c2.224-0.277,4.329-0.855,6.29-1.724
	C57.207,17.649,55.352,19.57,53.22,21.109z"/>
</svg>
