<?xml version="1.0" encoding="utf-8"?>
<!-- Generator: Adobe Illustrator 16.0.0, SVG Export Plug-In . SVG Version: 6.00 Build 0)  -->
<!DOCTYPE svg PUBLIC "-//W3C//DTD SVG 1.0//EN" "http://www.w3.org/TR/2001/REC-SVG-20010904/DTD/svg10.dtd">
<svg version="1.0" id="Layer_1" xmlns="http://www.w3.org/2000/svg" xmlns:xlink="http://www.w3.org/1999/xlink" x="0px" y="0px"
	 width="64px" height="64px" viewBox="0 0 64 64" style="enable-background:new 0 0 64 64;" xml:space="preserve">
<path style="fill:#C0B193;" d="M31.994,28.646c-1.421,0-2.58,1.13-2.58,2.538c0,1.395,1.158,2.526,2.58,2.526
	c1.42,0,2.579-1.132,2.579-2.526C34.572,29.775,33.414,28.646,31.994,28.646z M38.178,32.196h-0.617
	c-0.291,0-0.594,0.226-0.672,0.488l-0.355,0.842c-0.131,0.25-0.078,0.619,0.119,0.816l0.447,0.419c0.197,0.199,0.197,0.527,0,0.726
	l-0.738,0.71c-0.197,0.198-0.525,0.198-0.723,0l-0.434-0.435c-0.211-0.183-0.58-0.236-0.83-0.118L33.52,36
	c-0.277,0.079-0.5,0.382-0.5,0.659v0.604c0,0.276-0.223,0.514-0.513,0.514H31.48c-0.29,0-0.513-0.237-0.513-0.514v-0.604
	c0-0.277-0.224-0.58-0.5-0.659l-0.855-0.355c-0.25-0.118-0.619-0.064-0.816,0.118l-0.447,0.435c-0.197,0.198-0.526,0.198-0.724,0
	l-0.737-0.71c-0.197-0.198-0.197-0.526,0-0.726l0.447-0.419c0.198-0.197,0.25-0.566,0.118-0.816l-0.355-0.842
	c-0.079-0.263-0.382-0.488-0.671-0.488h-0.619c-0.276,0-0.513-0.236-0.513-0.512V30.67c0-0.275,0.237-0.501,0.513-0.501h0.619
	c0.289,0,0.592-0.222,0.671-0.486l0.355-0.855c0.132-0.235,0.08-0.604-0.118-0.802L26.9,27.592c-0.21-0.199-0.21-0.514,0-0.71
	l0.724-0.725c0.197-0.196,0.526-0.196,0.724,0l0.447,0.434c0.198,0.197,0.566,0.25,0.816,0.119l0.855-0.342
	c0.276-0.092,0.5-0.382,0.5-0.658v-0.62c0-0.274,0.223-0.498,0.513-0.498h1.026c0.29,0,0.513,0.224,0.513,0.498v0.62
	c0,0.276,0.223,0.566,0.5,0.658l0.855,0.342c0.25,0.131,0.619,0.078,0.816-0.119l0.447-0.434c0.197-0.196,0.525-0.196,0.723,0
	l0.738,0.725c0.197,0.196,0.197,0.511,0,0.71l-0.447,0.434c-0.197,0.198-0.25,0.566-0.119,0.802l0.355,0.855
	c0.078,0.265,0.381,0.486,0.672,0.486h0.617c0.277,0,0.514,0.226,0.514,0.501v1.015C38.691,31.974,38.455,32.196,38.178,32.196z
	 M41.047,18.815H22.953v24.869h18.094V18.815z M34.48,14.38H29.52c-0.46,0-0.829,0.369-0.829,0.828c0,0.448,0.369,0.831,0.829,0.831
	h4.961c0.461,0,0.83-0.383,0.83-0.831C35.311,14.749,34.941,14.38,34.48,14.38z M31.994,49.753c1.223,0,2.211-0.987,2.211-2.198
	c0-1.212-0.988-2.198-2.211-2.198c-1.211,0-2.198,0.986-2.198,2.198C29.796,48.766,30.783,49.753,31.994,49.753z M39.98,51.792
	H24.019c-1.592,0-2.908-1.303-2.908-2.896V15.104c0-1.593,1.315-2.896,2.908-2.896H39.98c1.594,0,2.908,1.303,2.908,2.896v33.793
	C42.889,50.489,41.574,51.792,39.98,51.792z"/>
</svg>
