<?xml version="1.0" encoding="utf-8"?>
<!-- Generator: Adobe Illustrator 16.0.0, SVG Export Plug-In . SVG Version: 6.00 Build 0)  -->
<!DOCTYPE svg PUBLIC "-//W3C//DTD SVG 1.0//EN" "http://www.w3.org/TR/2001/REC-SVG-20010904/DTD/svg10.dtd">
<svg version="1.0" id="Layer_1" xmlns="http://www.w3.org/2000/svg" xmlns:xlink="http://www.w3.org/1999/xlink" x="0px" y="0px"
	 width="64px" height="64px" viewBox="0 0 64 64" style="enable-background:new 0 0 64 64;" xml:space="preserve">
<linearGradient id="SVGID_1_" gradientUnits="userSpaceOnUse" x1="32.0005" y1="64" x2="32.0005" y2="9.765625e-004">
	<stop  offset="0" style="stop-color:#3F3F3F"/>
	<stop  offset="1" style="stop-color:#747474"/>
</linearGradient>
<path style="fill:url(#SVGID_1_);" d="M35.927,13.063C26.276,6.332,13.758,0.406,13.758,0.406c-0.774-0.541-2.033-0.541-2.809,0
	c0,0-3.833,10.217-4.911,24.805h6.937l0.238,2.428c0,0,0.004,0.103,0.064,0.432c0.057,0.331,0.161,0.832,0.335,1.431
	c0.344,1.206,0.963,2.826,2.02,4.404c2.17,3.131,5.722,6.244,13.503,6.306v0.005v5.371h-0.203c-9.265,0-14.949-4.356-17.767-8.7
	c-1.565-2.355-2.395-4.657-2.829-6.303l-2.549,0.002c-0.015,0.692-0.035,1.379-0.035,2.085c0,18.459,5.194,30.926,5.194,30.926
	c0.778,0.538,2.038,0.538,2.812,0c0,0,13.227-6.509,25.357-14.967c12.134-8.458,18.552-15.646,18.552-15.646
	c0.774-0.542,0.774-1.423,0-1.963C57.667,31.021,45.578,19.793,35.927,13.063 M23.244,26.319c-3.074,0-5.571-2.495-5.571-5.569
	c0.011-3.076,2.496-5.565,5.571-5.567c3.076,0,5.57,2.482,5.57,5.567C28.809,23.837,26.315,26.317,23.244,26.319"/>
</svg>
