<?xml version="1.0" encoding="utf-8"?>
<!-- Generator: Adobe Illustrator 16.0.0, SVG Export Plug-In . SVG Version: 6.00 Build 0)  -->
<!DOCTYPE svg PUBLIC "-//W3C//DTD SVG 1.0//EN" "http://www.w3.org/TR/2001/REC-SVG-20010904/DTD/svg10.dtd">
<svg version="1.0" id="Layer_1" xmlns="http://www.w3.org/2000/svg" xmlns:xlink="http://www.w3.org/1999/xlink" x="0px" y="0px"
	 width="64px" height="64px" viewBox="0 0 64 64" style="enable-background:new 0 0 64 64;" xml:space="preserve">
<g>
	<path style="fill:none;" d="M31.683,38.948h-0.799c-1.111,0-2.021,0.908-2.021,2.02v0.798c0,1.11,0.909,2.021,2.021,2.021h0.799
		c1.11,0,2.02-0.91,2.02-2.021v-0.798C33.702,39.856,32.793,38.948,31.683,38.948z"/>
	<path style="fill:none;" d="M30.847,37.003h0.872c0.639,0,1.204-0.327,1.537-0.821l-4.265-5.083v4.049
		C28.991,36.167,29.827,37.003,30.847,37.003z"/>
	<path style="fill:#373179;" d="M31.719,37.003h-0.872c-1.02,0-1.855-0.836-1.855-1.855v-4.049L13.857,13.063l-0.138,7.482
		l-6.643,1.295c-0.474,0.094-0.874,0.409-1.074,0.848c-0.201,0.439-0.178,0.949,0.064,1.368l4.623,8.05l-8.465,9.701
		c-0.358,0.41-0.465,0.985-0.277,1.498c0.189,0.512,0.641,0.883,1.182,0.964l14.446,2.194l4.79,6.917
		c0.285,0.413,0.75,0.646,1.23,0.646c0.172,0,0.345-0.029,0.514-0.091l11.675-4.263l10.008,1.45L33.256,36.182
		C32.923,36.676,32.357,37.003,31.719,37.003z M33.702,41.766c0,1.11-0.909,2.021-2.02,2.021h-0.799
		c-1.111,0-2.021-0.91-2.021-2.021v-0.798c0-1.111,0.909-2.02,2.021-2.02h0.799c1.11,0,2.02,0.908,2.02,2.02V41.766z"/>
	<path style="fill:#373179;" d="M60.486,39.281c-0.562,1.325-1.162,2.583-1.79,3.791l2.175-0.331
		c0.599-0.091,1.081-0.531,1.228-1.119c0.146-0.586-0.076-1.203-0.562-1.563L60.486,39.281z"/>
	<linearGradient id="SVGID_1_" gradientUnits="userSpaceOnUse" x1="6.2471" y1="29.7129" x2="73.0306" y2="29.7129">
		<stop  offset="0" style="stop-color:#FFFFFF"/>
		<stop  offset="1" style="stop-color:#FFFFFF;stop-opacity:0"/>
	</linearGradient>
	<path style="opacity:0.29;fill:url(#SVGID_1_);" d="M33.573,35.147V25.101c0-1.021-0.833-1.856-1.854-1.856h-0.872
		c-1.02,0-1.855,0.835-1.855,1.856v5.998l4.265,5.083C33.456,35.886,33.573,35.529,33.573,35.147z"/>
	<path style="fill:#373179;" d="M52.325,33.237l5.969-9.717c0.28-0.458,0.295-1.033,0.034-1.506
		c-0.26-0.471-0.752-0.768-1.293-0.773L42.688,21.06l-7.626-9.208c-0.283-0.341-0.701-0.54-1.144-0.542c-0.003,0-0.006,0-0.009,0
		c-0.439,0-0.857,0.193-1.142,0.528l-4.538,5.349l-12.095-7.012c-0.459-0.266-1.025-0.268-1.486-0.008
		c-0.462,0.26-0.751,0.745-0.761,1.275l-0.03,1.621l15.134,18.035v-5.998c0-1.021,0.836-1.856,1.855-1.856h0.872
		c1.021,0,1.854,0.835,1.854,1.856v10.047c0,0.382-0.117,0.738-0.317,1.034l12.537,14.941l2.797,0.405
		c0.555,0.079,1.102-0.154,1.43-0.605c0.326-0.451,0.373-1.048,0.124-1.545l-2.327-4.652l10.88-1.653
		c0.628-1.208,1.229-2.466,1.79-3.791L52.325,33.237z"/>
	<linearGradient id="SVGID_2_" gradientUnits="userSpaceOnUse" x1="6.2471" y1="30.7588" x2="73.0304" y2="30.7588">
		<stop  offset="0" style="stop-color:#FFFFFF"/>
		<stop  offset="1" style="stop-color:#FFFFFF;stop-opacity:0"/>
	</linearGradient>
	<path style="opacity:0.29;fill:url(#SVGID_2_);" d="M52.325,33.237l5.969-9.717c0.28-0.458,0.295-1.033,0.034-1.506
		c-0.26-0.471-0.752-0.768-1.293-0.773L42.688,21.06l-7.626-9.208c-0.283-0.341-0.701-0.54-1.144-0.542c-0.003,0-0.006,0-0.009,0
		c-0.439,0-0.857,0.193-1.142,0.528l-4.538,5.349l-12.095-7.012c-0.459-0.266-1.025-0.268-1.486-0.008
		c-0.462,0.26-0.751,0.745-0.761,1.275l-0.03,1.621l15.134,18.035v-5.998c0-1.021,0.836-1.856,1.855-1.856h0.872
		c1.021,0,1.854,0.835,1.854,1.856v10.047c0,0.382-0.117,0.738-0.317,1.034l12.537,14.941l2.797,0.405
		c0.555,0.079,1.102-0.154,1.43-0.605c0.326-0.451,0.373-1.048,0.124-1.545l-2.327-4.652l10.88-1.653
		c0.628-1.208,1.229-2.466,1.79-3.791L52.325,33.237z"/>
</g>
</svg>
