<?xml version="1.0" encoding="UTF-8" standalone="no"?>
<svg width="32px" height="32px" viewBox="0 0 32 32" version="1.1" xmlns="http://www.w3.org/2000/svg" xmlns:xlink="http://www.w3.org/1999/xlink">
    <!-- Generator: Sketch 39 (31667) - http://www.bohemiancoding.com/sketch -->
    <title>Zamrznitev </title>
    <desc>Created with Sketch.</desc>
    <defs></defs>
    <g id="DLABS-101-Pripraviti-nove-ikone-za-sklop-Blokada-kartice-SIM-in-Zamrznitev-naročniškega-razmerja" stroke="none" stroke-width="1" fill="none" fill-rule="evenodd">
        <g id="Zamrznitev-" fill="#727272">
            <g id="noun_385188" transform="translate(15.891079, 16.454064) scale(-1, 1) translate(-15.891079, -16.454064) translate(2.841304, 0.000000)">
                <path d="M24.7234202,0.334144784 L9.99250278,0.334144784 C9.82085557,0.334144784 9.65250223,0.374037206 9.49622641,0.451260152 L9.43364289,0.484198849 C9.33885263,0.537998721 9.25943378,0.596922391 9.19136047,0.664629713 L0.382820859,9.42412726 C0.314381566,9.49183458 0.254725925,9.57088746 0.199828097,9.66604369 C0.187750574,9.68727085 0.176771008,9.70776604 0.166157428,9.72935919 C0.119677267,9.82378345 0.0882025115,9.91381589 0.0691712642,10.0078742 C0.0545318432,10.0803393 0.0468461472,10.1550004 0.0468461472,10.2303934 L0.0468461472,30.7361963 C0.0468461472,31.3627636 0.556663983,31.8722154 1.18286522,31.8722154 L24.7230542,31.8722154 C25.3496214,31.8722154 25.8594392,31.3623976 25.8594392,30.7361963 L25.8594392,1.47052984 C25.8598052,0.84396262 25.3499874,0.334144784 24.7234202,0.334144784 L24.7234202,0.334144784 Z M3.93727228,9.0943743 L8.85611773,4.20261178 L8.85611773,9.0943743 L3.93727228,9.0943743 L3.93727228,9.0943743 Z M23.5874011,2.60691489 L23.5874011,29.6001773 L2.31961626,29.6001773 L2.31961626,11.3667784 L9.99250278,11.3667784 C10.61907,11.3667784 11.1288878,10.8569606 11.1288878,10.2307594 L11.1288878,2.60691489 L23.5874011,2.60691489 L23.5874011,2.60691489 Z" id="Shape"></path>
            </g>
            <g id="noun_156682" transform="translate(12.460295, 14.440305)">
                <path d="M12.2029808,7.58837335 C12.0511734,7.32486149 11.7140626,7.23451457 11.4507043,7.38662929 L9.75823604,8.36369746 L7.24803588,6.9143054 L9.75823604,5.46491334 L11.4507043,6.44198152 C11.5373636,6.49207182 11.6324738,6.51588776 11.7252791,6.51588776 C11.9159603,6.51588776 12.1009564,6.41709002 12.2034417,6.24023745 C12.3550955,5.97687924 12.2649022,5.63976844 12.0016977,5.48780737 L10.860069,4.82895089 L11.932401,4.21004373 C12.1959128,4.05777536 12.286567,3.72081821 12.1342987,3.45746 C11.982184,3.19379449 11.6447659,3.10360122 11.3815613,3.25571594 L10.3092294,3.8746231 L10.3092294,2.55660283 C10.3092294,2.2523734 10.0626191,2.00576317 9.75838969,2.00576317 C9.45446755,2.00576317 9.20724272,2.2523734 9.20724272,2.55660283 L9.20724272,4.51073919 L6.69704256,5.9599776 L6.69704256,3.06150078 L8.38935722,2.0844326 C8.65286908,1.93216423 8.74352331,1.59520708 8.59110129,1.33184887 C8.43898657,1.06849066 8.10202942,0.977990086 7.83867121,1.13010481 L6.69704256,1.78911494 L6.69704256,0.550839664 C6.69688891,0.246763877 6.45027868,-1.12745795e-13 6.14604925,-1.12745795e-13 C5.84166616,-1.12745795e-13 5.59520958,0.246763877 5.59520958,0.550839664 L5.59520958,1.78911494 L4.45373459,1.13010481 C4.19037638,0.977990086 3.85357288,1.06833701 3.70145816,1.33184887 C3.54903614,1.59520708 3.63953671,1.93231788 3.90304857,2.0844326 L5.59536323,3.06150078 L5.59536323,5.9599776 L3.08500942,4.51073919 L3.08500942,2.55660283 C3.08500942,2.2523734 2.83824554,2.00576317 2.53416976,2.00576317 C2.22994032,2.00576317 1.98302279,2.2523734 1.98302279,2.55660283 L1.98302279,3.8746231 L0.910844498,3.25571594 C0.647486288,3.10344757 0.310375487,3.19364084 0.158414419,3.4571527 C0.00614604925,3.72081821 0.0966466244,4.05762171 0.360004835,4.20973643 L1.43233678,4.82895089 L0.291015432,5.48780737 C0.0275035704,5.63992209 -0.0628433535,5.97687924 0.0892713653,6.24023745 C0.191295783,6.41709002 0.376599168,6.51588776 0.567126694,6.51588776 C0.660546643,6.51588776 0.75504215,6.49207182 0.842008747,6.44198152 L2.53447706,5.46491334 L5.04652104,6.91507366 L2.53755008,8.36385112 L0.845081771,7.38662929 C0.581723561,7.23451457 0.24461276,7.32470784 0.0924980411,7.58837335 C-0.0596166777,7.85188521 0.0308838975,8.18884236 0.294242108,8.34095708 L1.43556345,8.99981356 L0.36323151,9.61872072 C0.0998733002,9.77068179 0.0093727251,10.1077926 0.161641095,10.3713045 C0.263665513,10.5476961 0.448815246,10.6466475 0.639342773,10.6466475 C0.73260907,10.6466475 0.82741188,10.6231388 0.914224825,10.5730485 L1.98624946,9.95414136 L1.98655677,11.2717007 C1.98655677,11.5760838 2.23316699,11.822694 2.53739643,11.822694 C2.84147222,11.822694 3.08823609,11.5762374 3.08823609,11.2717007 L3.08823609,9.31817891 L5.59828261,7.86878685 L5.59828261,10.7672637 L3.9064289,11.7443319 C3.64260974,11.8959856 3.55226281,12.2334037 3.70453118,12.4966083 C3.8065556,12.6733072 3.99201264,12.7725659 4.18207921,12.7725659 C4.27565281,12.7725659 4.37060927,12.74875 4.45742222,12.6983523 L5.59843626,12.0396495 L5.59843626,13.2776175 C5.59843626,13.5818469 5.84520014,13.8287645 6.14927592,13.8287645 C6.45365901,13.8287645 6.70026924,13.5823079 6.70026924,13.2776175 L6.70026924,12.0396495 L7.84159058,12.6983523 C7.92855718,12.74875 8.02351364,12.7725659 8.11647263,12.7725659 C8.30700016,12.7725659 8.49214989,12.6733072 8.59448161,12.4966083 C8.74613538,12.2332501 8.65594211,11.8961393 8.39273755,11.7443319 L6.70026924,10.7672637 L6.70026924,7.87047701 L9.20708907,9.31817891 L9.20708907,11.2718543 C9.20708907,11.5762374 9.45354565,11.8228476 9.75823604,11.8228476 C10.0623118,11.8228476 10.3092294,11.5763911 10.3092294,11.2718543 L10.3092294,9.95429501 L11.3815613,10.5732022 C11.4685279,10.6232925 11.5633307,10.6468011 11.6564433,10.6468011 C11.8466636,10.6468011 12.0318133,10.5478497 12.1344523,10.3714581 C12.2861061,10.1076389 12.1956055,9.77083544 11.932401,9.61887437 L10.8602227,8.99996721 L12.001544,8.34111073 C12.2649022,8.18884236 12.3550955,7.85188521 12.2029808,7.58837335 L12.2029808,7.58837335 Z" id="Shape"></path>
            </g>
        </g>
    </g>
</svg>