<?xml version="1.0" encoding="utf-8"?>
<!-- Generator: Adobe Illustrator 16.0.0, SVG Export Plug-In . SVG Version: 6.00 Build 0)  -->
<!DOCTYPE svg PUBLIC "-//W3C//DTD SVG 1.1//EN" "http://www.w3.org/Graphics/SVG/1.1/DTD/svg11.dtd">
<svg version="1.1" id="Layer_1" xmlns="http://www.w3.org/2000/svg" xmlns:xlink="http://www.w3.org/1999/xlink" x="0px" y="0px"
	 width="64px" height="64px" viewBox="0 0 64 64" style="enable-background:new 0 0 64 64;" xml:space="preserve">
<g>
	<g>
		<path style="fill-rule:evenodd;clip-rule:evenodd;fill:#C0B193;" d="M14.497,1.767h35.005c5.133,0,9.291,4.158,9.291,9.29v33.504
			c0,5.132-4.158,9.291-9.291,9.291H39.145l-7.146,8.382l-8.264-8.382h-9.238c-5.131,0-9.29-4.159-9.29-9.291V11.056
			C5.207,5.925,9.366,1.767,14.497,1.767z"/>
		<path style="fill-rule:evenodd;clip-rule:evenodd;fill:#FFFFFF;" d="M26.552,51.076c-0.736-0.765-1.75-1.187-2.816-1.187h-9.238
			c-2.934,0-5.328-2.396-5.328-5.329V11.056c0-2.933,2.395-5.327,5.328-5.327h35.005c2.936,0,5.33,2.394,5.33,5.327v33.504
			c0,2.934-2.395,5.329-5.33,5.329H39.145c-1.156,0-2.262,0.514-3.012,1.396c0,0-2.277,2.657-4.344,5.091
			C29.354,53.916,26.552,51.076,26.552,51.076"/>
	</g>
	<g>
		<linearGradient id="SVGID_1_" gradientUnits="userSpaceOnUse" x1="32.0005" y1="41.416" x2="32.0005" y2="13.5415">
			<stop  offset="0" style="stop-color:#716140"/>
			<stop  offset="1" style="stop-color:#C0B193"/>
		</linearGradient>
		<path style="fill:url(#SVGID_1_);" d="M48.5,13.541h-33c-1.104,0-2,0.896-2,2v6.875c0,1.104,0.896,2,2,2h1.032l-1.032,8.75
			l6.042,0.021l-0.459,8.229h27.292l-1.359-17H48.5c1.105,0,2-0.896,2-2v-6.875C50.5,14.437,49.605,13.541,48.5,13.541z
			 M48.25,22.416h-1.395l-0.48-6h-2.5l1.75,22.75l-21.75,0.25l1.167-22.854l-2.292-0.021l-1.063,14.813l-3.313-0.063l1.5-14.75
			l-2.417,0.021l-0.69,5.854H15.5v-6.875h32.75V22.416z"/>
		<linearGradient id="SVGID_2_" gradientUnits="userSpaceOnUse" x1="34.4131" y1="41.417" x2="34.4131" y2="13.542">
			<stop  offset="0" style="stop-color:#716140"/>
			<stop  offset="1" style="stop-color:#C0B193"/>
		</linearGradient>
		<path style="fill:url(#SVGID_2_);" d="M30.479,26.996c-0.234-0.788-0.376-1.502-0.382-2.14c-0.011-1.444,0.711-2.407,2.67-2.757
			l0.027,3.602l0.958-0.007l-0.029-3.708c0.229-0.018,0.457-0.02,0.715-0.021c0.213-0.002,0.426-0.003,0.639,0.011l0.027,3.708
			l0.957-0.008l-0.027-3.617c2.01,0.304,2.717,1.302,2.727,2.685c0.006,0.608-0.127,1.293-0.334,2.023l1.049-0.008
			c0.176-0.716,0.293-1.415,0.289-2.069c-0.016-1.96-1.016-3.503-3.74-3.938l-0.01-1.125l-0.957,0.008l0.008,1.033
			c-0.258-0.013-0.531-0.026-0.82-0.024c-0.182,0.002-0.365,0.003-0.531,0.021l-0.008-1.019l-0.958,0.007l0.009,1.109
			c-2.627,0.4-3.709,1.884-3.693,3.904c0.006,0.715,0.148,1.504,0.413,2.338L30.479,26.996z"/>
	</g>
</g>
<g>
</g>
<g>
</g>
<g>
</g>
<g>
</g>
<g>
</g>
</svg>
