<?xml version="1.0" encoding="UTF-8" standalone="no"?>
<svg width="72px" height="41px" viewBox="0 0 72 41" version="1.1" xmlns="http://www.w3.org/2000/svg" xmlns:xlink="http://www.w3.org/1999/xlink" xmlns:sketch="http://www.bohemiancoding.com/sketch/ns">
    <!-- Generator: Sketch 3.3.2 (12043) - http://www.bohemiancoding.com/sketch -->
    <title>Imported Layers Copy</title>
    <desc>Created with Sketch.</desc>
    <defs></defs>
    <g id="Page-1" stroke="none" stroke-width="1" fill="none" fill-rule="evenodd" sketch:type="MSPage">
        <g id="zakaj-simobil-copy-4" sketch:type="MSArtboardGroup" transform="translate(-312.000000, -668.000000)" fill="#4F4A8A">
            <g id="Imported-Layers-Copy" sketch:type="MSLayerGroup" transform="translate(312.000000, 668.000000)">
                <path d="M28.4212717,24.0503784 C28.0209017,23.7561757 27.5486705,23.600625 27.0554913,23.600625 C26.3191214,23.600625 25.6166012,23.9568818 25.1766936,24.553875 L21.8166936,29.1115236 C21.4468439,29.6132196 21.2931329,30.2261419 21.3841387,30.837402 C21.4748671,31.4482466 21.8000462,31.9869257 22.2996069,32.354125 C22.7012254,32.6494358 23.1755376,32.805402 23.6712139,32.805402 C24.4199306,32.805402 25.1046936,32.4591182 25.5500116,31.8551993 L28.9037688,27.2940878 C29.665526,26.2606385 29.4488324,24.8058311 28.4212717,24.0503784" id="Fill-1" sketch:type="MSShapeGroup"></path>
                <path d="M22.5686012,24.3657736 C22.4777341,23.7549291 22.1526936,23.21625 21.6529942,22.8493277 C21.252763,22.5549865 20.7806705,22.3994358 20.2874913,22.3994358 C19.5509827,22.3994358 18.8484624,22.7555541 18.4085549,23.3522703 L16.9471908,25.5328885 C16.1862659,26.5653682 16.4028208,28.0200372 17.430104,28.7754899 C17.8318613,29.0706622 18.3063121,29.2267669 18.8022659,29.2267669 C19.5511214,29.2267669 20.2358844,28.8804831 20.6810636,28.2768412 L22.1349364,26.0930372 C22.5056185,25.5900946 22.6593295,24.9770338 22.5686012,24.3657736" id="Fill-2" sketch:type="MSShapeGroup"></path>
                <path d="M35.5496879,27.3226216 C35.4588208,26.711777 35.1336416,26.173098 34.6339422,25.8058986 C34.2338497,25.5118345 33.7616185,25.3564223 33.268578,25.3564223 C32.5209711,25.3564223 31.8360694,25.7035372 31.3896416,26.3091182 L26.6855029,32.6897432 C26.3155145,33.1915777 26.1619422,33.804777 26.2526705,34.4161757 C26.3435376,35.0270203 26.6687168,35.5655608 27.1684162,35.9326216 C27.5701734,36.2279324 28.0446243,36.3840372 28.5404393,36.3840372 C29.2892948,36.3840372 29.9737803,36.0377534 30.4188208,35.4338345 L35.1164393,29.0491926 C35.4868439,28.5468041 35.6404162,27.9338818 35.5496879,27.3226216" id="Fill-3" sketch:type="MSShapeGroup"></path>
                <path d="M63.0120694,0.468314189 L51.7437225,3.44233784 L53.1020116,7.45701351 L53.4104046,8.1722973 L45.1194451,8.1722973 C45.0233064,8.1722973 44.9314682,8.13240541 44.8658497,8.06217905 C44.8449017,8.03973986 43.2588208,6.8192973 40.1210636,5.16586149 C35.5750751,2.77027027 31.8728324,3.0472973 28.3352601,4.86958108 C24.3448786,6.92512162 21.8182197,9.90620946 20.7114451,11.1213885 C19.8918382,12.0214493 20.0495723,12.3979291 20.2164624,12.7965709 L20.2533642,12.8854966 C20.4288555,13.3184899 20.864185,13.6872128 21.4184046,13.8721284 C21.8921618,14.0300338 22.8683931,14.186277 24.0828208,13.4567264 C26.4370405,12.0422264 27.8172486,10.7694257 28.6419884,10.1745101 C29.2867977,9.70924324 29.6560925,9.49039189 29.9526936,9.35686486 C31.0061965,8.88259459 32.4581272,8.6069527 34.3542659,8.61457095 C34.8955838,8.61678716 35.4055491,8.6069527 36.2510983,8.66443581 C37.0888786,8.72136486 38.8073064,9.09590541 39.7474682,9.75689189 C40.0985896,9.95829054 42.7265202,11.8459527 45.649526,13.8411014 C50.5390058,17.1785845 57.2352832,21.7496689 59.3667052,23.436625 C60.2075376,24.1021824 60.4827746,25.050723 60.3745665,26.0061892 L61.3795145,28.848902 L71.8920694,25.5551892 L63.0120694,0.468314189" id="Fill-4" sketch:type="MSShapeGroup"></path>
                <path d="M39.3371098,40.3805676 C41.2586358,41.5539155 42.7240231,40.7549696 43.4547052,39.6161115 C44.0996532,38.6109189 44.2093873,37.1984966 43.2772717,36.5733851 C41.7680462,35.5173581 40.6618266,34.7409899 39.9845549,34.2617331 C39.8390289,34.1588176 39.7265202,34.0790338 39.6380116,34.0158716 C39.5396532,34.3110439 39.3956532,34.5967973 39.2007399,34.8610811 L36.6455029,38.3366622 C37.1217572,38.7373818 38.4615954,39.8461824 39.3371098,40.3805676" id="Fill-5" sketch:type="MSShapeGroup"></path>
                <path d="M38.1590289,31.2076486 C37.7590751,30.9135845 37.2867052,30.7580338 36.7936647,30.7580338 C36.0460578,30.7580338 35.3611561,31.1052872 34.9144509,31.7108682 L31.5543121,36.2685169 C30.7933873,37.3011351 31.0098035,38.7558041 32.0372254,39.5111182 C32.4388439,39.8062905 32.9134335,39.9623953 33.4092486,39.9623953 C34.1582428,39.9623953 34.8430058,39.6161115 35.288185,39.0121926 L38.6416647,34.4512196 C39.403422,33.4179088 39.1868671,31.9631014 38.1590289,31.2076486" id="Fill-6" sketch:type="MSShapeGroup"></path>
                <path d="M18.6278844,6.05484122 L19.7460347,3.10671959 L8.97669364,0.0910033784 L0.0966936416,25.1777399 L10.1102428,28.5134223 L11.4772717,24.9087466" id="Fill-7" sketch:type="MSShapeGroup"></path>
                <path d="M11.4772717,24.9087466 L11.7595838,24.1876453 L16.147422,25.4796993 C16.2181734,25.3457568 16.296,25.2143074 16.3886705,25.0886757 L17.8500347,22.9080574 C18.4443468,22.1019088 19.359815,21.6732095 20.2874913,21.6732095 C20.9045549,21.6732095 21.5273064,21.862973 22.064185,22.2577365 C22.8245549,22.8165 23.2411561,23.6600473 23.2812486,24.5306047 C23.3119075,25.0519696 22.9280462,26.1618784 22.6804162,26.6493074 L23.5516301,25.5560203 L24.6180347,24.1096622 C25.2123468,23.3032365 26.127815,22.8743986 27.0554913,22.8743986 C27.6728324,22.8743986 28.2954451,23.0641622 28.8326012,23.4589257 C29.5976879,24.0212905 30.0148439,24.8725946 30.0513295,25.7493851 C30.0545202,25.8119932 30.0529942,25.8748784 30.0523006,25.9374865 C30.0518844,25.9596486 30.0535491,25.9816723 30.052578,26.0036959 C30.0342659,26.5850372 29.8476763,27.1670709 29.4819884,27.6751385 L29.4905896,27.6828953 L30.8309827,25.8647669 C31.4254335,25.0587568 32.340763,24.6300574 33.268578,24.6300574 C33.8855029,24.6300574 34.5082543,24.8198209 35.0451329,25.2144459 C35.8859653,25.8323547 36.3085318,26.7991791 36.2653873,27.7650338 C36.2455491,28.3552399 36.0535491,28.9464155 35.6753757,29.4591926 L34.540578,31.042402 C35.1308671,30.3823851 35.956578,30.0316689 36.7936647,30.0316689 C37.4107283,30.0316689 38.0334798,30.2215709 38.5703584,30.6161959 C39.3774798,31.2094493 39.7960231,32.1244696 39.7901965,33.0512635 C39.7903353,33.0673311 39.7906127,33.0831216 39.7903353,33.0990507 C39.7895029,33.1371419 39.7886705,33.1752331 39.7863121,33.2133243 C39.785341,33.2316081 39.7854798,33.2497534 39.7842312,33.2680372 C39.9444624,33.3854966 40.7367399,33.9524324 44.6449942,36.6843345 C46.8108208,38.1978716 48.1864509,36.6524764 48.556578,36.1428851 C49.5450173,34.7817128 49.403237,33.2633277 48.6507746,32.6980541 C44.4199769,29.6995135 39.572948,26.157723 39.5180116,26.1176926 L39.9276763,25.5587905 C39.9899653,25.604223 46.7528324,30.4175676 51.2463815,33.5661182 C52.5083931,34.4501115 53.5456647,34.2736453 54.1938035,33.9701622 C55.2005549,33.4985236 55.9677225,32.3847365 56.0595607,31.2615304 C56.0959075,30.8177331 56.1747052,29.807 55.422659,29.2915912 C52.8259422,27.5375946 43.8470289,21.5834527 43.7339653,21.5056081 L44.1282312,20.935902 C44.2471214,21.0177635 53.8240925,27.4896689 55.5969017,28.6696655 C56.2353295,29.094902 56.9056647,29.1039054 57.5139884,28.863723 C58.0242312,28.6430709 58.4774566,28.295125 58.8456416,27.8448176 C58.8503584,27.838723 58.8552139,27.8327669 58.8600694,27.8268108 C58.9008555,27.7762534 58.9408092,27.7247264 58.9793757,27.6716757 C60.0894798,26.1488581 59.7978728,24.6615 58.9359538,23.9793209 C56.8235376,22.3076014 50.1389133,17.7445507 45.2580347,14.4128851 C41.4597919,11.8201892 39.4668208,10.4363007 39.2082312,10.2873986 C38.6821734,9.98488514 37.632,9.41601014 36.2366705,9.35672635 C35.745711,9.33581081 35.2899884,9.30048986 34.4875838,9.31060135 C32.214104,9.33927365 30.9883006,9.65605405 30.1580116,10.0184054 C29.9643468,10.1030372 29.5949133,10.3414189 29.0483237,10.7359054 C28.2147052,11.3371926 26.8196532,12.6206588 24.4404624,14.0502568 C23.3636532,14.6968378 22.2117919,14.8669324 21.198659,14.529098 C20.4545202,14.2808818 19.860763,13.7635338 19.6103584,13.1452095 L19.5765087,13.0637635 C19.3793757,12.5930946 19.081526,11.8818277 20.198289,10.6555676 C21.092948,9.67309122 24.3357225,6.19349324 27.8150289,4.50168919 C25.0444855,4.15886824 18.2191908,6.91431757 18.1686936,6.92844595 L17.9496416,6.26607432" id="Fill-8" sketch:type="MSShapeGroup"></path>
            </g>
        </g>
    </g>
</svg>