<?xml version="1.0" encoding="utf-8"?>
<!-- Generator: Adobe Illustrator 16.0.0, SVG Export Plug-In . SVG Version: 6.00 Build 0)  -->
<!DOCTYPE svg PUBLIC "-//W3C//DTD SVG 1.0//EN" "http://www.w3.org/TR/2001/REC-SVG-20010904/DTD/svg10.dtd">
<svg version="1.0" id="Layer_1" xmlns="http://www.w3.org/2000/svg" xmlns:xlink="http://www.w3.org/1999/xlink" x="0px" y="0px"
	 width="64px" height="64px" viewBox="0 0 64 64" style="enable-background:new 0 0 64 64;" xml:space="preserve">
<path style="fill:#C0B193;" d="M51.029,44.521H12.972c-1.513,0-2.737-1.237-2.737-2.75V22.689l20.002,10.832
	c0.447,0.234,1.105,0.552,1.237,0.564c0.119,0.025,0.316,0.025,0.448,0c0.117-0.013,0.776-0.315,1.223-0.554l20.621-10.974v19.213
	C53.766,43.284,52.542,44.521,51.029,44.521z M52.621,20.072L32.514,30.756c-0.448,0.237-1.171,0.237-1.619,0L11.235,20.11
	c0.474-0.395,1.079-0.631,1.737-0.631h38.058c0.617,0,1.184,0.211,1.645,0.565C52.66,20.044,52.646,20.059,52.621,20.072z"/>
</svg>
