<?xml version="1.0" encoding="utf-8"?>
<!-- Generator: Adobe Illustrator 16.0.0, SVG Export Plug-In . SVG Version: 6.00 Build 0)  -->
<!DOCTYPE svg PUBLIC "-//W3C//DTD SVG 1.0//EN" "http://www.w3.org/TR/2001/REC-SVG-20010904/DTD/svg10.dtd">
<svg version="1.0" id="Layer_1" xmlns="http://www.w3.org/2000/svg" xmlns:xlink="http://www.w3.org/1999/xlink" x="0px" y="0px"
	 width="64px" height="64px" viewBox="0 0 64 64" style="enable-background:new 0 0 64 64;" xml:space="preserve">
<g>
	<linearGradient id="SVGID_1_" gradientUnits="userSpaceOnUse" x1="25.3364" y1="56.4766" x2="25.3364" y2="7.5239">
		<stop  offset="0" style="stop-color:#3F3F3F"/>
		<stop  offset="1" style="stop-color:#747474"/>
	</linearGradient>
	<path style="fill:url(#SVGID_1_);" d="M32.133,13.563l6.816,6.199h-6.816V13.563z M41.187,44.752v7.645H9.486V11.602h18.357v10.199
		c0,1.133,0.961,2.041,2.145,2.041h11.199v2.024l4.29-3.894v-0.172c0-1.105-0.474-2.17-1.329-2.947L32.949,8.654
		c-0.79-0.723-1.856-1.131-2.961-1.131H9.486c-2.369,0-4.29,1.828-4.29,4.078v40.795c0,2.25,1.921,4.08,4.29,4.08h31.701
		c2.368,0,4.29-1.83,4.29-4.08V40.594L41.187,44.752z"/>
	<linearGradient id="SVGID_2_" gradientUnits="userSpaceOnUse" x1="43.6318" y1="17.3608" x2="43.6318" y2="46.6323">
		<stop  offset="0" style="stop-color:#E78601"/>
		<stop  offset="1" style="stop-color:#D27A02"/>
	</linearGradient>
	<path style="fill:url(#SVGID_2_);" d="M58.583,24.078l-1.987,1.881c-0.197,0.094-0.408,0.145-0.644,0.145
		c-1.343-0.025-3.041-1.473-3.581-2.013c-2.723-2.592-2.842-3.948-2.802-4.304c0-0.064,0.014-0.119,0.025-0.171l2.146-2.04
		c0.303-0.287,0.803-0.287,1.119,0l5.71,5.449C58.872,23.315,58.886,23.789,58.583,24.078z M53.464,28.936l-12.883,12.25
		c-0.197,0.104-0.408,0.145-0.646,0.145c-1.342-0.027-3.039-1.475-3.579-2.014c-2.724-2.593-2.842-3.949-2.802-4.29
		c0-0.079,0.013-0.132,0.025-0.186l13.054-12.396c0.093-0.09,0.198-0.145,0.316-0.184c0.592,1.237,1.619,2.553,3.079,3.949h0.014
		c0.04,0.052,0.118,0.129,0.237,0.248c0.539,0.501,1.788,1.593,3.368,2.225C53.596,28.776,53.543,28.868,53.464,28.936z
		 M36.528,44.093L29.58,46.54c-0.829,0.29-1.303-0.13-1.053-0.935l2.211-7.066c0.092-0.275,0.237-0.473,0.421-0.592
		c0.619,1.094,1.565,2.25,2.842,3.473c0.04,0.041,0.132,0.135,0.251,0.238c0.474,0.462,1.525,1.383,2.868,2.027
		C37.002,43.855,36.805,44.001,36.528,44.093z"/>
</g>
</svg>
