<?xml version="1.0" encoding="utf-8"?>
<!-- Generator: Adobe Illustrator 16.0.0, SVG Export Plug-In . SVG Version: 6.00 Build 0)  -->
<!DOCTYPE svg PUBLIC "-//W3C//DTD SVG 1.1//EN" "http://www.w3.org/Graphics/SVG/1.1/DTD/svg11.dtd">
<svg version="1.1" id="Layer_1" xmlns="http://www.w3.org/2000/svg" xmlns:xlink="http://www.w3.org/1999/xlink" x="0px" y="0px"
	 width="73.558px" height="73.253px" viewBox="0 0 73.558 73.253" enable-background="new 0 0 73.558 73.253" xml:space="preserve">
<path fill="#E31469" d="M72.987,1.301l-0.226-0.746l-0.76-0.178C71.936,0.361,70.37,0,68.404,0c-2.883,0-5.189,0.783-6.672,2.265
	l-12.49,12.491l-35.28-6.188l-7.045,7.044l27.827,13.644L21.397,42.604c-1.05,1.049-2.729,3.195-3.481,4.174l-14.648,0.8L0,53.844
	l15.998,3.536l3.367,15.873l6.202-3.364l1.09-13.738c1.039-0.952,3.838-3.531,5.148-4.842L44.271,38.84l13.59,27.715l7.044-7.046
	l-6.164-35.135l12.551-12.551C73.46,9.653,74.174,5.227,72.987,1.301"/>
</svg>
