<?xml version="1.0" encoding="utf-8"?>
<!-- Generator: Adobe Illustrator 16.0.0, SVG Export Plug-In . SVG Version: 6.00 Build 0)  -->
<!DOCTYPE svg PUBLIC "-//W3C//DTD SVG 1.0//EN" "http://www.w3.org/TR/2001/REC-SVG-20010904/DTD/svg10.dtd">
<svg version="1.0" id="Layer_1" xmlns="http://www.w3.org/2000/svg" xmlns:xlink="http://www.w3.org/1999/xlink" x="0px" y="0px"
	 width="64px" height="64px" viewBox="0 0 64 64" style="enable-background:new 0 0 64 64;" xml:space="preserve">
<linearGradient id="SVGID_1_" gradientUnits="userSpaceOnUse" x1="32.0005" y1="63.6738" x2="32.0005" y2="0.3267">
	<stop  offset="0" style="stop-color:#4A4A4A"/>
	<stop  offset="1" style="stop-color:#666666"/>
</linearGradient>
<path style="fill:url(#SVGID_1_);" d="M15.472,63.674V37.251h33.359v26.423H15.472z M15.182,11.222L15.156,0.326h33.662v10.896
	H15.182z M55.634,20.091c-2.198,0-3.988,1.843-3.988,4.104c0,2.277,1.79,4.107,3.988,4.107c2.211,0,3.987-1.83,3.987-4.107
	C59.621,21.934,57.845,20.091,55.634,20.091z M57.489,47.752h-4.948V37.251c0-2.105-1.658-3.817-3.71-3.817H15.472
	c-2.053,0-3.711,1.712-3.711,3.817v10.501H6.51c-3.395,0-6.171-2.856-6.171-6.369V21.972c0-3.499,3.526-6.803,6.921-6.803h49.479
	c3.395,0,6.922,3.304,6.922,6.803v19.411C63.661,44.896,60.885,47.752,57.489,47.752z"/>
</svg>
