<?xml version="1.0" encoding="utf-8"?>
<!-- Generator: Adobe Illustrator 16.0.4, SVG Export Plug-In . SVG Version: 6.00 Build 0)  -->
<!DOCTYPE svg PUBLIC "-//W3C//DTD SVG 1.1//EN" "http://www.w3.org/Graphics/SVG/1.1/DTD/svg11.dtd">
<svg version="1.1" id="Layer_1" xmlns="http://www.w3.org/2000/svg" xmlns:xlink="http://www.w3.org/1999/xlink" x="0px" y="0px"
	 width="46px" height="55px" viewBox="0 0 46 55" enable-background="new 0 0 46 55" xml:space="preserve">
<rect fill="#66BB30" width="46" height="3.995"/>
<g id="Page-1">
	<g id="Simobil-korporativni-logo">
		<g id="Clip-2">
		</g>
		<defs>
			<filter id="Adobe_OpacityMaskFilter" filterUnits="userSpaceOnUse" x="0.138" y="15.151" width="45.862" height="39.849">
				<feColorMatrix  type="matrix" values="1 0 0 0 0  0 1 0 0 0  0 0 1 0 0  0 0 0 1 0"/>
			</filter>
		</defs>
		<mask maskUnits="userSpaceOnUse" x="0.138" y="15.151" width="45.862" height="39.849" id="mask-2_1_">
			<g filter="url(#Adobe_OpacityMaskFilter)">
				<path id="path-1_1_" fill="#FFFFFF" d="M0.138,15.151H46v39.851H0.138V15.151z"/>
			</g>
		</mask>
		<path id="Fill-1" mask="url(#mask-2_1_)" d="M42.384,38.065c0,3.456-2.83,6.366-6.288,6.366
			c-0.394,0-0.744-0.043-1.102-0.08c0.827-1.812,1.416-3.774,1.611-5.856c1.89-0.868,3.501-2.241,4.719-3.89
			C41.989,35.587,42.384,36.805,42.384,38.065L42.384,38.065z M36.096,31.657c1.493,0,2.87,0.551,3.932,1.452
			c-0.867,1.337-2.005,2.437-3.38,3.223c-0.042-1.61-0.277-3.181-0.709-4.675H36.096z M41.716,27.453
			c0,0.783-0.118,1.532-0.277,2.278c-1.53-1.022-3.416-1.612-5.38-1.612c-0.515,0-0.984,0.04-1.457,0.117
			c-2.083-3.969-5.619-7.073-9.863-8.646c1.769-1.531,4.086-2.513,6.683-2.513C37.116,17.078,41.716,21.752,41.716,27.453
			L41.716,27.453z M23.716,20.614c4.049,1.335,7.467,4.205,9.51,7.936c-3.575,1.062-6.366,4.089-6.995,7.862
			c-3.064-1.807-5.069-5.15-5.069-8.959C21.161,24.857,22.106,22.419,23.716,20.614L23.716,20.614z M21.633,20.063
			c-1.533,2.042-2.435,4.597-2.435,7.348c0,4.874,2.828,9.04,6.916,11.006c0.116,3.85,2.437,7.11,5.7,8.645
			c-3.066,4.008-7.941,6.603-13.365,6.603c-9.312,0-16.938-7.589-16.938-16.938c0-9.353,7.626-16.978,16.938-16.978
			C19.55,19.749,20.61,19.863,21.633,20.063L21.633,20.063z M31.421,37.788c-0.553,0-1.063-0.037-1.576-0.118
			c0.201-2.79,2.123-5.148,4.757-5.815c0.473,1.531,0.75,3.182,0.75,4.872v0.314C34.129,37.549,32.794,37.788,31.421,37.788
			L31.421,37.788z M30.003,39.556c0.475,0.077,0.944,0.077,1.418,0.077c1.296,0,2.592-0.194,3.772-0.588
			c-0.235,1.729-0.748,3.381-1.456,4.912C31.892,43.211,30.478,41.562,30.003,39.556L30.003,39.556z M46,38.065
			c0-2.715-1.102-5.191-2.908-6.997c0.352-1.141,0.587-2.359,0.587-3.657c0-6.761-5.5-12.261-12.258-12.261
			c-3.501,0-6.603,1.455-8.843,3.774c-1.337-0.315-2.751-0.473-4.167-0.473c-10.104,0-18.273,8.175-18.273,18.275
			C0.138,46.829,8.308,55,18.411,55c6.014,0,11.398-2.944,14.698-7.428c0.944,0.272,1.926,0.432,2.949,0.432
			C41.559,48.004,46,43.564,46,38.065L46,38.065z"/>
	</g>
</g>
</svg>
