<?xml version="1.0" encoding="utf-8"?>
<!-- Generator: Adobe Illustrator 16.0.4, SVG Export Plug-In . SVG Version: 6.00 Build 0)  -->
<!DOCTYPE svg PUBLIC "-//W3C//DTD SVG 1.1//EN" "http://www.w3.org/Graphics/SVG/1.1/DTD/svg11.dtd">
<svg version="1.1" id="Layer_1" xmlns="http://www.w3.org/2000/svg" xmlns:xlink="http://www.w3.org/1999/xlink" x="0px" y="0px"
	 width="13.995px" height="13.981px" viewBox="0 0 13.995 13.981" enable-background="new 0 0 13.995 13.981" xml:space="preserve">
<g>
	<rect x="3.033" fill="#C0B193" width="7.969" height="1.982"/>
	<path fill="#C0B193" d="M9.978,8.001H4.019c-0.553,0-1,0.447-1,1v1.896v2.083v1h1h5.959h1v-1v-2.083V9.001
		C10.978,8.449,10.53,8.001,9.978,8.001z"/>
	<path fill="#C0B193" d="M12.995,3.074H1c-0.553,0-1,0.448-1,1v1.103v1.387v3.387h1.992V8.259c0-0.695,0.562-1.258,1.258-1.258
		h7.494c0.695,0,1.258,0.562,1.258,1.258v1.691h1.993V6.564V5.177V4.074C13.995,3.522,13.548,3.074,12.995,3.074z M12.009,6.01
		c-0.556,0-1.007-0.451-1.007-1.007s0.451-1.007,1.007-1.007s1.007,0.451,1.007,1.007S12.564,6.01,12.009,6.01z"/>
</g>
</svg>
