<?xml version="1.0" encoding="utf-8"?>
<!-- Generator: Adobe Illustrator 16.0.4, SVG Export Plug-In . SVG Version: 6.00 Build 0)  -->
<!DOCTYPE svg PUBLIC "-//W3C//DTD SVG 1.1//EN" "http://www.w3.org/Graphics/SVG/1.1/DTD/svg11.dtd">
<svg version="1.1" id="Layer_1" xmlns="http://www.w3.org/2000/svg" xmlns:xlink="http://www.w3.org/1999/xlink" x="0px" y="0px"
	 width="14.92px" height="14.901px" viewBox="0 0 14.92 14.901" enable-background="new 0 0 14.92 14.901" xml:space="preserve">
<path fill="#C0B193" d="M12.436,9.934c-0.921,0-1.715,0.507-2.144,1.252L4.931,7.811c0.017-0.119,0.036-0.237,0.036-0.36
	c0-0.188-0.025-0.37-0.065-0.547l5.605-2.875c0.455,0.567,1.146,0.938,1.929,0.938c1.371,0,2.483-1.112,2.483-2.483
	S13.807,0,12.436,0S9.952,1.112,9.952,2.483c0,0.229,0.041,0.445,0.099,0.656L4.486,5.994c-0.452-0.62-1.178-1.026-2.002-1.026
	C1.112,4.967,0,6.079,0,7.451c0,1.372,1.112,2.483,2.483,2.483c0.885,0,1.656-0.466,2.096-1.163l5.399,3.398
	c-0.009,0.083-0.025,0.163-0.025,0.248c0,1.372,1.111,2.483,2.482,2.483s2.484-1.111,2.484-2.483S13.807,9.934,12.436,9.934z"/>
</svg>
