<?xml version="1.0" encoding="utf-8"?>
<!-- Generator: Adobe Illustrator 16.0.4, SVG Export Plug-In . SVG Version: 6.00 Build 0)  -->
<!DOCTYPE svg PUBLIC "-//W3C//DTD SVG 1.1//EN" "http://www.w3.org/Graphics/SVG/1.1/DTD/svg11.dtd">
<svg version="1.1" id="Layer_1" xmlns="http://www.w3.org/2000/svg" xmlns:xlink="http://www.w3.org/1999/xlink" x="0px" y="0px"
	 width="135.12px" height="135px" viewBox="0 0 135.12 135" enable-background="new 0 0 135.12 135" xml:space="preserve">
<rect x="0.016" width="6" height="6"/>
<rect x="129.061" y="129.061" width="6" height="6"/>
<polygon fill="#4F4A8A" points="0,0 35.52,0 135.12,99.601 135.12,135 "/>
<g>
	<path fill="#FFFFFF" d="M41.429,23.422l0.46,0.46c0.561,0.561,1.097,0.745,1.566,0.275c0.51-0.511,0.217-1.055-0.285-1.557
		c-0.352-0.352-0.795-0.679-1.146-0.946l0.979-0.979c0.469,0.335,1.105,0.787,1.633,1.314c0.914,0.913,1.499,2.051,0.352,3.198
		c-0.661,0.662-1.355,0.771-2.177,0.285l-0.042,0.042c0.637,0.804,0.612,1.701-0.258,2.571c-1.349,1.348-2.764,0.87-3.994-0.36
		c-0.428-0.427-0.83-0.946-1.198-1.499l1.063-1.063c0.285,0.502,0.611,0.963,0.955,1.306c0.585,0.585,1.214,0.812,1.791,0.234
		c0.562-0.561,0.443-1.063-0.184-1.691l-0.553-0.552L41.429,23.422z"/>
	<path fill="#FFFFFF" d="M48.233,31.499c-2.009,2.009-3.407,2.537-4.974,0.971c-1.607-1.607-1.072-2.981,0.945-4.999
		c2.002-2.001,3.375-2.52,4.975-0.92C50.787,28.158,50.26,29.473,48.233,31.499z M46.81,30.209c1.716-1.716,1.784-2.151,1.306-2.628
		c-0.518-0.519-0.938-0.368-2.52,1.214c-1.725,1.725-1.783,2.135-1.307,2.612C44.809,31.926,45.177,31.842,46.81,30.209z"/>
	<path fill="#FFFFFF" d="M48.959,38.136c-0.971-0.971-1.012-2.135,0.68-3.826c1.381-1.381,2.854-1.616,3.968-0.502
		c0.302,0.301,0.586,0.703,0.821,1.206l0.016,0.017l1.926-1.925l1.256,1.256l-6.111,6.112L50.441,39.4l0.109-0.292l-0.018-0.017
		C49.863,38.823,49.328,38.505,48.959,38.136z M52.844,35.055c-0.468-0.468-1.037-0.302-1.9,0.561
		c-0.846,0.846-1.08,1.465-0.568,1.977c0.2,0.201,0.51,0.377,0.954,0.552l2.102-2.102C53.238,35.6,53.055,35.265,52.844,35.055z"/>
	<path fill="#FFFFFF" d="M55.061,44.02l2.922-2.922c0.293-0.293,0.234-0.552-0.025-0.812c-0.225-0.226-0.594-0.444-1.029-0.695
		l-3.148,3.148l-1.264-1.265l4.277-4.278l1.098,1.098l-0.242,0.36l0.017,0.017c0.812,0.326,1.465,0.694,1.884,1.113
		c0.695,0.696,0.736,1.524-0.193,2.454l-3.039,3.039L55.061,44.02z"/>
	<path fill="#FFFFFF" d="M60.082,45.492c-0.661,0.795-0.51,1.348,0.018,1.875c0.343,0.343,0.854,0.687,1.406,1.072l-0.93,0.93
		c-0.645-0.411-1.289-0.854-1.783-1.349c-1.055-1.054-1.432-2.353,0.368-4.152c1.54-1.541,2.956-1.549,4.145-0.36
		c1.063,1.063,1.272,2.328-0.293,3.894l-0.511,0.511L60.082,45.492z M62.359,44.47c-0.344-0.343-0.678-0.443-1.456,0.201
		l1.163,1.164C62.611,45.291,62.729,44.838,62.359,44.47z"/>
	<path fill="#FFFFFF" d="M63.773,52.732l-1.374-1.374l2.897-5.659l1.238,1.239l-2.084,3.776l0.017,0.017l3.802-2.059l1.163,1.164
		L63.773,52.732z"/>
	<path fill="#FFFFFF" d="M68.242,57.202l2.922-2.922c0.294-0.293,0.234-0.553-0.025-0.812c-0.225-0.226-0.594-0.443-1.029-0.695
		l-3.148,3.148l-1.264-1.264l4.279-4.278l1.096,1.096l-0.242,0.36l0.017,0.017c0.812,0.327,1.465,0.694,1.884,1.113
		c0.695,0.696,0.736,1.524-0.193,2.454l-3.039,3.039L68.242,57.202z"/>
	<path fill="#FFFFFF" d="M76.17,56.572l-4.279,4.278l-1.256-1.256l3.315-3.315l-0.478-0.477l0.963-0.963L76.17,56.572z
		 M75.893,53.951c0.419-0.418,1.072-0.418,1.466-0.025c0.419,0.418,0.419,1.072,0,1.49c-0.394,0.394-1.047,0.394-1.466-0.025
		C75.5,54.998,75.5,54.344,75.893,53.951z"/>
	<path fill="#FFFFFF" d="M79.961,60.363l-0.15,0.268l0.016,0.017c0.637,0.318,1.173,0.654,1.566,1.047
		c0.92,0.92,0.996,2.102-0.645,3.742c-1.474,1.474-2.973,1.482-3.986,0.469c-0.285-0.285-0.604-0.737-0.787-1.156l-0.033-0.034
		l-1.633,1.633l-1.264-1.264l5.818-5.819L79.961,60.363z M77.541,64.724c0.428,0.428,0.963,0.344,1.9-0.594
		c0.93-0.929,0.971-1.541,0.511-2.001c-0.2-0.201-0.511-0.376-0.88-0.544l-2.135,2.135C77.131,64.147,77.323,64.507,77.541,64.724z"
		/>
	<path fill="#FFFFFF" d="M85.351,67.779c-0.637-0.637-1.13-0.997-1.608-1.273l-3.098,3.097l-1.264-1.264l4.279-4.278l1.096,1.096
		l-0.293,0.411l0.018,0.017c0.812,0.226,1.456,0.602,1.976,1.088L85.351,67.779z"/>
	<path fill="#FFFFFF" d="M85.424,70.834c-0.661,0.795-0.51,1.348,0.018,1.875c0.343,0.343,0.854,0.688,1.406,1.072l-0.93,0.93
		c-0.645-0.411-1.289-0.855-1.783-1.35c-1.055-1.055-1.432-2.352,0.369-4.152c1.54-1.54,2.955-1.549,4.145-0.359
		c1.062,1.062,1.271,2.326-0.294,3.893l-0.511,0.511L85.424,70.834z M87.701,69.812c-0.343-0.343-0.678-0.443-1.456,0.201
		l1.163,1.163C87.953,70.633,88.07,70.181,87.701,69.812z"/>
	<path fill="#FFFFFF" d="M92.539,72.941l-4.278,4.278l-1.256-1.256l3.315-3.315l-0.478-0.478l0.963-0.963L92.539,72.941z
		 M92.263,70.32c0.419-0.418,1.071-0.418,1.466-0.025c0.418,0.419,0.418,1.072,0,1.49c-0.395,0.395-1.047,0.395-1.466-0.024
		C91.869,71.367,91.869,70.714,92.263,70.32z"/>
	<path fill="#FFFFFF" d="M89.004,77.963l0.896-0.896l4.17-0.687l-1.684-1.683l0.955-0.954l3.24,3.24l-0.812,0.812l-4.254,0.736
		l1.834,1.834l-0.971,0.971L89.004,77.963z"/>
	<path fill="#FFFFFF" d="M93.115,82.074l6.111-6.112l1.264,1.264l-3.231,3.231l0.478,0.478l2.185-0.611l1.356,1.356l-3.006,0.695
		l-1.097,3.759l-1.356-1.356l0.913-2.922l-0.436-0.436l-1.917,1.918L93.115,82.074z"/>
	<path fill="#FFFFFF" d="M103.076,83.479l-2.847,2.847c-0.343,0.343-0.335,0.603-0.05,0.888c0.2,0.2,0.543,0.426,1.029,0.694
		l3.148-3.147l1.264,1.264l-4.278,4.278l-1.097-1.097l0.242-0.36l-0.017-0.017c-0.846-0.327-1.481-0.695-1.884-1.097
		c-0.736-0.737-0.695-1.583,0.209-2.487l3.023-3.021L103.076,83.479z"/>
	<path fill="#FFFFFF" d="M106.565,93.062c-0.812,0.812-1.834,0.879-3.132-0.418c-0.393-0.395-0.804-0.888-1.239-1.541l0.93-0.93
		c0.427,0.695,0.778,1.147,1.063,1.433c0.51,0.511,0.82,0.468,1.062,0.226c0.653-0.653-1.516-2.219,0.042-3.776
		c0.946-0.946,2.026-0.536,2.998,0.436c0.359,0.36,0.712,0.796,1.029,1.28l-0.87,0.871c-0.368-0.469-0.67-0.87-0.946-1.146
		c-0.352-0.352-0.645-0.478-0.921-0.201C105.87,90.007,108.089,91.539,106.565,93.062z"/>
</g>
</svg>
