<?xml version="1.0" encoding="utf-8"?>
<!-- Generator: Adobe Illustrator 16.0.4, SVG Export Plug-In . SVG Version: 6.00 Build 0)  -->
<!DOCTYPE svg PUBLIC "-//W3C//DTD SVG 1.1//EN" "http://www.w3.org/Graphics/SVG/1.1/DTD/svg11.dtd">
<svg version="1.1" id="Layer_1" xmlns="http://www.w3.org/2000/svg" xmlns:xlink="http://www.w3.org/1999/xlink" x="0px" y="0px"
	 width="135.12px" height="135px" viewBox="0 0 135.12 135" enable-background="new 0 0 135.12 135" xml:space="preserve">
<rect x="0.016" width="6" height="6"/>
<rect x="129.061" y="129.061" width="6" height="6"/>
<polygon fill="#4F4A8A" points="0,0 35.52,0 135.12,99.601 135.12,135 "/>
<g>
	<path fill="#FFFFFF" d="M42.186,21.073c-0.334-0.452-0.661-0.829-0.945-1.113c-0.57-0.569-1.113-0.712-2.219,0.125
		c0.275,0.227,0.619,0.536,0.828,0.746c1.188,1.188,1.516,2.017,0.009,3.524c-1.398,1.398-2.63,1.44-3.952,0.117
		c-1.541-1.541-1.238-2.712,0.703-4.655c2.42-2.419,4.02-2.445,5.518-0.946c0.344,0.343,0.679,0.762,1.014,1.248L42.186,21.073z
		 M38.652,21.642c-0.15-0.151-0.452-0.418-0.703-0.603l-0.143,0.143c-1.432,1.432-1.389,1.758-0.87,2.277
		c0.478,0.477,0.694,0.544,1.599-0.36C39.188,22.446,39.248,22.237,38.652,21.642z"/>
	<path fill="#FFFFFF" d="M42.77,31.083l2.922-2.922c0.293-0.293,0.275-0.511,0.05-0.737c-0.192-0.192-0.544-0.394-0.997-0.662
		l-3.147,3.148l-1.264-1.264l4.278-4.278l1.097,1.097l-0.243,0.36c0.838,0.369,1.475,0.72,1.876,1.122
		c0.368,0.369,0.527,0.779,0.41,1.265c0.946,0.377,1.625,0.771,2.035,1.181c0.687,0.686,0.618,1.44-0.286,2.344l-3.039,3.039
		l-1.256-1.256l2.922-2.922c0.294-0.293,0.276-0.511,0.051-0.737c-0.193-0.193-0.544-0.394-0.996-0.661l-3.148,3.148L42.77,31.083z"
		/>
	<path fill="#FFFFFF" d="M50.227,34.991c-0.662,0.795-0.511,1.348,0.017,1.875c0.343,0.343,0.854,0.688,1.407,1.072l-0.93,0.93
		c-0.645-0.411-1.289-0.854-1.783-1.349c-1.055-1.055-1.432-2.352,0.368-4.152c1.54-1.541,2.955-1.55,4.144-0.361
		c1.064,1.063,1.273,2.328-0.293,3.894l-0.51,0.511L50.227,34.991z M52.504,33.969c-0.344-0.343-0.678-0.443-1.457,0.201
		l1.164,1.164C52.755,34.79,52.873,34.338,52.504,33.969z"/>
	<path fill="#FFFFFF" d="M55.843,41.695c-0.812,0.812-1.833,0.879-3.131-0.418c-0.394-0.394-0.805-0.888-1.239-1.541l0.93-0.93
		c0.426,0.695,0.777,1.147,1.062,1.432c0.51,0.51,0.82,0.468,1.063,0.226c0.653-0.653-1.516-2.219,0.042-3.776
		c0.945-0.946,2.025-0.536,2.997,0.435c0.36,0.36,0.712,0.795,1.03,1.281l-0.871,0.871c-0.369-0.469-0.67-0.87-0.947-1.147
		c-0.351-0.351-0.644-0.477-0.92-0.201C55.147,38.64,57.366,40.172,55.843,41.695z"/>
	<path fill="#FFFFFF" d="M58.193,42.958c-0.661,0.795-0.51,1.348,0.018,1.875c0.343,0.343,0.854,0.687,1.406,1.072l-0.93,0.93
		c-0.645-0.41-1.289-0.854-1.783-1.349c-1.055-1.055-1.432-2.353,0.369-4.152c1.54-1.541,2.955-1.55,4.145-0.36
		c1.062,1.063,1.272,2.328-0.293,3.894l-0.512,0.511L58.193,42.958z M60.471,41.937c-0.343-0.343-0.678-0.444-1.456,0.201
		l1.163,1.164C60.723,42.757,60.84,42.306,60.471,41.937z"/>
	<path fill="#FFFFFF" d="M62.537,50.685c-0.535-0.285-1.029-0.628-1.414-1.013c-1.047-1.047-1.314-2.453,0.352-4.119
		c1.725-1.725,3.248-1.256,4.312-0.193c0.31,0.31,0.577,0.662,0.804,1.038l-0.938,0.938c-0.259-0.359-0.51-0.678-0.753-0.921
		c-0.511-0.511-1.055-0.603-2.093,0.436c-1.005,1.005-0.972,1.591-0.461,2.102c0.269,0.268,0.67,0.52,1.122,0.804L62.537,50.685z"/>
	<path fill="#FFFFFF" d="M66.035,50.8c-0.661,0.795-0.51,1.348,0.018,1.875c0.343,0.343,0.854,0.688,1.406,1.072l-0.93,0.93
		c-0.645-0.411-1.289-0.854-1.783-1.349c-1.055-1.055-1.432-2.352,0.369-4.152c1.54-1.541,2.954-1.55,4.144-0.361
		c1.063,1.063,1.272,2.328-0.293,3.894l-0.511,0.511L66.035,50.8z M68.312,49.778c-0.343-0.343-0.678-0.443-1.456,0.201l1.163,1.164
		C68.564,50.599,68.682,50.147,68.312,49.778z"/>
	<path fill="#FFFFFF" d="M69.726,58.041l-1.373-1.373l2.897-5.66l1.239,1.239l-2.085,3.776l0.017,0.017l3.802-2.06l1.163,1.164
		L69.726,58.041z"/>
	<path fill="#FFFFFF" d="M80.7,56.791L78.69,58.8l0.008,0.008c0.604,0.336,1.14,0.671,1.524,1.056
		c0.871,0.871,0.972,1.959-0.728,3.659c-1.591,1.591-2.989,1.515-3.952,0.552c-0.368-0.368-0.688-0.821-0.913-1.449l-0.009-0.009
		l-0.318,0l-0.979-0.979l6.112-6.112L80.7,56.791z M76.271,62.81c0.428,0.428,0.972,0.353,1.918-0.594
		c0.946-0.946,0.987-1.507,0.535-1.959c-0.21-0.21-0.526-0.393-0.904-0.586l-2.143,2.144C75.869,62.241,76.054,62.593,76.271,62.81z
		"/>
	<path fill="#FFFFFF" d="M84.09,65.874c-0.637-0.637-1.131-0.997-1.608-1.273l-3.098,3.098l-1.265-1.265l4.278-4.278l1.097,1.097
		l-0.292,0.411l0.017,0.017c0.812,0.226,1.456,0.602,1.976,1.088L84.09,65.874z"/>
	<path fill="#FFFFFF" d="M84.163,68.928c-0.661,0.795-0.511,1.348,0.017,1.875c0.343,0.343,0.854,0.687,1.406,1.072l-0.929,0.929
		c-0.645-0.41-1.289-0.854-1.784-1.349c-1.054-1.054-1.432-2.352,0.369-4.152c1.54-1.541,2.956-1.548,4.144-0.361
		c1.063,1.063,1.273,2.328-0.292,3.894l-0.511,0.511L84.163,68.928z M86.44,67.906c-0.343-0.343-0.678-0.443-1.457,0.201
		l1.164,1.164C86.691,68.727,86.81,68.275,86.44,67.906z"/>
	<path fill="#FFFFFF" d="M85.282,73.597l0.896-0.896l4.171-0.687l-1.683-1.683l0.954-0.954l3.24,3.24l-0.812,0.812l-4.253,0.735
		L89.629,76l-0.972,0.972L85.282,73.597z"/>
	<path fill="#FFFFFF" d="M94.768,74.525l-0.15,0.268l0.017,0.017c0.637,0.318,1.173,0.653,1.565,1.046
		c0.921,0.921,0.997,2.103-0.645,3.744c-1.474,1.474-2.973,1.48-3.985,0.468c-0.284-0.284-0.604-0.736-0.787-1.154l-0.034-0.034
		l-1.633,1.633l-1.264-1.264l5.819-5.819L94.768,74.525z M92.348,78.887c0.428,0.428,0.963,0.344,1.9-0.594
		c0.93-0.93,0.972-1.54,0.511-2.001c-0.201-0.201-0.511-0.378-0.879-0.545l-2.135,2.135C91.938,78.31,92.13,78.669,92.348,78.887z"
		/>
	<path fill="#FFFFFF" d="M100.275,76.365l1.265,1.265l-4.873,4.873c-0.318,0.318-0.36,0.478-0.085,0.753
		c0.084,0.084,0.186,0.168,0.318,0.268l-0.854,0.854c-0.385-0.234-0.693-0.477-0.92-0.703c-0.745-0.745-0.703-1.457,0.067-2.228
		L100.275,76.365z"/>
	<path fill="#FFFFFF" d="M100.006,88.32l-1.047-1.047l0.201-0.334l-0.025-0.025c-0.661-0.159-1.213-0.461-1.581-0.829
		c-0.688-0.688-0.779-1.633,0.05-2.462c1.18-1.18,2.185-0.979,3.315,0.151l0.561,0.561l0.293-0.293
		c0.293-0.293,0.142-0.628-0.193-0.963c-0.401-0.401-1.063-0.796-1.557-1.088l0.972-0.972c0.687,0.435,1.373,0.904,1.875,1.406
		c0.862,0.862,1.197,1.834,0.143,2.889L100.006,88.32z M99.01,84.762c-0.243,0.243-0.317,0.554,0,0.871
		c0.15,0.15,0.385,0.301,0.72,0.452l0.93-0.93l-0.377-0.377C99.729,84.226,99.42,84.352,99.01,84.762z"/>
	<path fill="#FFFFFF" d="M103.906,92.053c-0.536-0.284-1.03-0.628-1.415-1.013c-1.047-1.047-1.314-2.453,0.352-4.119
		c1.725-1.725,3.248-1.256,4.312-0.192c0.31,0.31,0.578,0.66,0.804,1.038l-0.938,0.938c-0.259-0.36-0.511-0.679-0.753-0.921
		c-0.512-0.512-1.056-0.603-2.094,0.436c-1.005,1.005-0.972,1.591-0.461,2.102c0.268,0.268,0.671,0.519,1.122,0.804L103.906,92.053z
		 M108.067,86.737l-1.282-1.282l0.729-2.068l0.821,0.821l-0.185,1.188l1.197-0.176l0.788,0.788L108.067,86.737z"/>
	<path fill="#FFFFFF" d="M107.137,95.451l2.922-2.922c0.293-0.293,0.234-0.553-0.025-0.812c-0.227-0.227-0.594-0.443-1.029-0.695
		l-3.148,3.148l-1.264-1.264l4.278-4.278l1.096,1.096l-0.242,0.361l0.016,0.016c0.813,0.327,1.466,0.694,1.885,1.113
		c0.695,0.695,0.736,1.523-0.193,2.453l-3.039,3.039L107.137,95.451z"/>
	<path fill="#FFFFFF" d="M115.415,99.526c-1.474,1.474-2.915,1.54-4.396,0.059s-1.264-2.805,0.235-4.304
		c1.474-1.474,2.838-1.633,4.346-0.125C117.165,96.722,116.922,98.02,115.415,99.526z M114.108,98.22
		c1.071-1.071,1.14-1.456,0.512-2.084c-0.62-0.62-1.03-0.577-2.06,0.452c-1.055,1.055-1.098,1.465-0.478,2.085
		C112.702,99.292,113.096,99.232,114.108,98.22z"/>
</g>
</svg>
