<?xml version="1.0" encoding="utf-8"?>
<!-- Generator: Adobe Illustrator 16.0.4, SVG Export Plug-In . SVG Version: 6.00 Build 0)  -->
<!DOCTYPE svg PUBLIC "-//W3C//DTD SVG 1.1//EN" "http://www.w3.org/Graphics/SVG/1.1/DTD/svg11.dtd">
<svg version="1.1" id="Layer_1" xmlns="http://www.w3.org/2000/svg" xmlns:xlink="http://www.w3.org/1999/xlink" x="0px" y="0px"
	 width="135.121px" height="135px" viewBox="0 0 135.121 135" enable-background="new 0 0 135.121 135" xml:space="preserve">
<rect x="0.016" width="6" height="6"/>
<rect x="129.061" y="129.061" width="6" height="6"/>
<polygon fill="#4F4A8A" points="0,0 86.79,0 135.121,48.631 135.121,135 "/>
<g>
	<path fill="#FFFFFF" d="M84.91,20.301c-0.336-0.453-0.662-0.829-0.947-1.114c-0.569-0.569-1.113-0.711-2.219,0.126
		c0.277,0.227,0.62,0.537,0.829,0.746c1.188,1.188,1.516,2.018,0.009,3.524c-1.398,1.398-2.629,1.44-3.953,0.117
		c-1.54-1.541-1.238-2.712,0.704-4.655c2.419-2.419,4.02-2.444,5.518-0.946c0.343,0.343,0.679,0.762,1.014,1.248L84.91,20.301z
		 M81.377,20.87c-0.151-0.151-0.453-0.419-0.704-0.603L80.53,20.41c-1.432,1.432-1.39,1.758-0.871,2.276
		c0.478,0.478,0.695,0.545,1.6-0.359C81.912,21.674,81.971,21.464,81.377,20.87z"/>
	<path fill="#FFFFFF" d="M85.492,30.312l2.922-2.922c0.294-0.293,0.277-0.511,0.051-0.737c-0.192-0.192-0.544-0.394-0.996-0.662
		l-3.148,3.148l-1.265-1.265l4.278-4.278l1.098,1.097l-0.242,0.36c0.836,0.368,1.473,0.719,1.875,1.121
		c0.369,0.369,0.527,0.779,0.41,1.265c0.945,0.376,1.624,0.77,2.035,1.18c0.686,0.687,0.619,1.44-0.285,2.345l-3.039,3.039
		l-1.257-1.256l2.922-2.922c0.294-0.293,0.276-0.51,0.05-0.737c-0.191-0.192-0.543-0.394-0.996-0.661l-3.147,3.148L85.492,30.312z"
		/>
	<path fill="#FFFFFF" d="M92.949,34.219c-0.66,0.796-0.51,1.348,0.018,1.875c0.344,0.343,0.854,0.687,1.406,1.072l-0.93,0.93
		c-0.645-0.41-1.288-0.854-1.783-1.349c-1.054-1.054-1.432-2.353,0.369-4.152c1.54-1.541,2.955-1.549,4.145-0.36
		c1.062,1.063,1.272,2.328-0.293,3.894l-0.512,0.511L92.949,34.219z M95.227,33.197c-0.343-0.343-0.678-0.443-1.456,0.201
		l1.163,1.164C95.479,34.018,95.596,33.566,95.227,33.197z"/>
	<path fill="#FFFFFF" d="M98.566,40.923c-0.812,0.812-1.834,0.879-3.131-0.418c-0.395-0.394-0.805-0.887-1.24-1.541l0.93-0.93
		c0.427,0.695,0.778,1.147,1.062,1.432c0.512,0.511,0.821,0.469,1.064,0.226c0.652-0.653-1.516-2.219,0.041-3.776
		c0.946-0.946,2.026-0.536,2.998,0.436c0.359,0.36,0.711,0.795,1.029,1.281l-0.871,0.871c-0.367-0.469-0.669-0.871-0.945-1.147
		c-0.352-0.352-0.645-0.478-0.921-0.201C97.871,37.868,100.09,39.4,98.566,40.923z"/>
	<path fill="#FFFFFF" d="M100.918,42.187c-0.662,0.795-0.512,1.348,0.016,1.875c0.344,0.343,0.854,0.687,1.408,1.072l-0.93,0.93
		c-0.646-0.411-1.289-0.854-1.784-1.349c-1.054-1.054-1.432-2.353,0.368-4.152c1.541-1.541,2.956-1.549,4.145-0.36
		c1.063,1.063,1.273,2.328-0.293,3.894l-0.511,0.511L100.918,42.187z M103.194,41.165c-0.343-0.343-0.678-0.443-1.456,0.201
		l1.164,1.164C103.445,41.985,103.562,41.533,103.194,41.165z"/>
	<path fill="#FFFFFF" d="M105.261,49.913c-0.536-0.285-1.03-0.628-1.415-1.014c-1.046-1.046-1.314-2.453,0.352-4.119
		c1.725-1.725,3.249-1.256,4.312-0.192c0.31,0.31,0.577,0.661,0.805,1.039l-0.938,0.938c-0.26-0.36-0.511-0.679-0.754-0.922
		c-0.511-0.511-1.055-0.603-2.093,0.436c-1.005,1.005-0.972,1.591-0.461,2.102c0.268,0.268,0.67,0.52,1.122,0.804L105.261,49.913z"
		/>
	<path fill="#FFFFFF" d="M108.76,50.028c-0.662,0.795-0.512,1.348,0.016,1.875c0.344,0.343,0.854,0.687,1.407,1.072l-0.93,0.93
		c-0.645-0.41-1.288-0.854-1.783-1.349c-1.054-1.054-1.432-2.353,0.368-4.152c1.541-1.541,2.956-1.549,4.145-0.36
		c1.063,1.063,1.273,2.328-0.293,3.894l-0.511,0.511L108.76,50.028z M111.036,49.006c-0.343-0.343-0.678-0.443-1.456,0.201
		l1.163,1.163C111.287,49.827,111.404,49.375,111.036,49.006z"/>
	<path fill="#FFFFFF" d="M112.449,57.269l-1.373-1.374l2.897-5.659l1.239,1.239l-2.085,3.776l0.017,0.017l3.801-2.06l1.164,1.164
		L112.449,57.269z"/>
	<path fill="#FFFFFF" d="M70.73,23.412l-2.009,2.009l0.009,0.009c0.603,0.334,1.139,0.669,1.523,1.055
		c0.871,0.871,0.972,1.959-0.728,3.659c-1.591,1.591-2.989,1.516-3.952,0.552c-0.368-0.368-0.688-0.82-0.912-1.448l-0.009-0.008
		h-0.318l-0.979-0.98l6.111-6.112L70.73,23.412z M66.303,29.433c0.427,0.427,0.971,0.351,1.917-0.595
		c0.946-0.946,0.987-1.506,0.535-1.959c-0.209-0.209-0.526-0.393-0.903-0.586l-2.145,2.144C65.9,28.863,66.084,29.215,66.303,29.433
		z"/>
	<path fill="#FFFFFF" d="M74.121,32.495c-0.637-0.637-1.131-0.997-1.608-1.273l-3.098,3.098l-1.264-1.264l4.278-4.278l1.097,1.097
		l-0.293,0.41l0.017,0.017c0.812,0.227,1.457,0.603,1.977,1.088L74.121,32.495z"/>
	<path fill="#FFFFFF" d="M74.194,35.549c-0.661,0.796-0.511,1.348,0.017,1.875c0.344,0.343,0.854,0.687,1.407,1.072l-0.93,0.93
		c-0.645-0.41-1.29-0.854-1.784-1.348c-1.055-1.055-1.431-2.353,0.369-4.153c1.541-1.541,2.955-1.549,4.145-0.36
		c1.063,1.063,1.273,2.328-0.293,3.894l-0.511,0.511L74.194,35.549z M76.472,34.528c-0.343-0.343-0.678-0.443-1.457,0.201
		l1.163,1.164C76.723,35.348,76.84,34.896,76.472,34.528z"/>
	<path fill="#FFFFFF" d="M75.314,40.219l0.896-0.896l4.168-0.687l-1.682-1.683L79.651,36l3.241,3.241l-0.812,0.812l-4.254,0.736
		l1.834,1.834l-0.971,0.971L75.314,40.219z"/>
	<path fill="#FFFFFF" d="M84.799,41.147l-0.15,0.268l0.017,0.017c0.636,0.318,1.173,0.653,1.566,1.047
		c0.921,0.92,0.996,2.102-0.646,3.743c-1.473,1.474-2.972,1.482-3.985,0.468c-0.284-0.285-0.603-0.737-0.787-1.155l-0.034-0.034
		l-1.632,1.632l-1.265-1.264l5.819-5.819L84.799,41.147z M82.379,45.509c0.428,0.428,0.963,0.343,1.9-0.594
		c0.93-0.93,0.972-1.541,0.512-2.001c-0.201-0.201-0.512-0.377-0.879-0.545l-2.136,2.135C81.969,44.932,82.162,45.292,82.379,45.509
		z"/>
	<path fill="#FFFFFF" d="M90.307,42.988l1.264,1.264l-4.872,4.873c-0.318,0.318-0.36,0.478-0.084,0.754
		c0.083,0.083,0.185,0.167,0.317,0.267L86.078,51c-0.385-0.233-0.694-0.477-0.921-0.703c-0.745-0.745-0.703-1.456,0.067-2.227
		L90.307,42.988z"/>
	<path fill="#FFFFFF" d="M90.038,54.943l-1.047-1.047l0.2-0.335l-0.024-0.024c-0.661-0.159-1.214-0.461-1.583-0.83
		c-0.686-0.686-0.778-1.632,0.051-2.461c1.181-1.181,2.186-0.979,3.316,0.151l0.561,0.561l0.293-0.293
		c0.293-0.293,0.142-0.628-0.193-0.963c-0.402-0.402-1.062-0.794-1.557-1.088l0.971-0.971c0.688,0.436,1.373,0.904,1.875,1.406
		c0.863,0.863,1.198,1.834,0.144,2.889L90.038,54.943z M89.041,51.385c-0.242,0.243-0.318,0.552,0,0.87
		c0.151,0.151,0.385,0.302,0.721,0.453l0.929-0.929l-0.377-0.377C89.762,50.849,89.452,50.974,89.041,51.385z"/>
	<path fill="#FFFFFF" d="M93.937,58.674c-0.536-0.285-1.029-0.628-1.415-1.013c-1.047-1.047-1.314-2.453,0.352-4.119
		c1.725-1.725,3.25-1.256,4.312-0.192c0.31,0.309,0.578,0.661,0.804,1.038l-0.938,0.938c-0.259-0.36-0.51-0.678-0.752-0.921
		c-0.512-0.511-1.055-0.603-2.094,0.436c-1.004,1.004-0.972,1.59-0.461,2.101c0.268,0.268,0.67,0.519,1.122,0.803L93.937,58.674z
		 M98.099,53.358l-1.282-1.282l0.729-2.068l0.821,0.821l-0.185,1.188l1.197-0.176l0.787,0.788L98.099,53.358z"/>
	<path fill="#FFFFFF" d="M97.168,62.072l2.922-2.922c0.293-0.293,0.234-0.553-0.025-0.812c-0.227-0.226-0.594-0.443-1.03-0.695
		l-3.147,3.148l-1.264-1.264l4.277-4.278l1.097,1.096l-0.242,0.36l0.017,0.016c0.812,0.327,1.465,0.695,1.883,1.113
		c0.695,0.695,0.737,1.524-0.192,2.454l-3.039,3.039L97.168,62.072z"/>
	<path fill="#FFFFFF" d="M105.446,66.148c-1.474,1.474-2.915,1.54-4.396,0.058c-1.481-1.481-1.265-2.804,0.235-4.303
		c1.473-1.473,2.838-1.632,4.346-0.125C107.195,63.343,106.953,64.641,105.446,66.148z M104.14,64.841
		c1.071-1.072,1.14-1.457,0.511-2.084c-0.619-0.62-1.029-0.578-2.059,0.452c-1.056,1.055-1.098,1.465-0.479,2.085
		C102.733,65.914,103.127,65.854,104.14,64.841z"/>
	<path fill="#FFFFFF" d="M109.338,66.64l-1.65,0.779l-0.293-1.7l1.816,0.26L109.338,66.64z M109.254,65.937l-1.299-1.315
		l1.525-0.803l0.351,1.825L109.254,65.937z M108.559,68.289l0.787-1.641l0.662,0.109l0.259,1.833L108.559,68.289z M110.711,64.028
		l1.23,1.23l-1.607,0.854l-0.47-0.469L110.711,64.028z M110.041,66.724l0.301-0.569l1.8,0.326l-0.795,1.533L110.041,66.724z"/>
	<path fill="#FFFFFF" d="M45.322,23.347l0.46,0.46c0.561,0.561,1.097,0.745,1.565,0.276c0.51-0.511,0.217-1.055-0.285-1.557
		c-0.352-0.352-0.795-0.679-1.146-0.947l0.979-0.979c0.469,0.335,1.105,0.787,1.633,1.314c0.913,0.913,1.499,2.051,0.352,3.198
		c-0.661,0.662-1.356,0.771-2.177,0.285l-0.043,0.042c0.637,0.804,0.613,1.7-0.258,2.571c-1.348,1.348-2.764,0.87-3.994-0.36
		c-0.428-0.427-0.83-0.946-1.197-1.499l1.062-1.063c0.285,0.502,0.611,0.963,0.955,1.306c0.586,0.585,1.214,0.812,1.791,0.235
		c0.562-0.561,0.444-1.064-0.184-1.692l-0.553-0.552L45.322,23.347z"/>
	<path fill="#FFFFFF" d="M52.127,31.424c-2.01,2.01-3.408,2.537-4.975,0.972c-1.607-1.607-1.072-2.981,0.946-5
		c2.001-2.001,3.375-2.52,4.974-0.92C54.68,28.083,54.152,29.398,52.127,31.424z M50.703,30.134
		c1.716-1.716,1.783-2.151,1.306-2.628c-0.519-0.519-0.938-0.368-2.521,1.214c-1.725,1.725-1.783,2.134-1.306,2.612
		C48.701,31.851,49.07,31.767,50.703,30.134z"/>
	<path fill="#FFFFFF" d="M52.853,38.061c-0.972-0.971-1.013-2.135,0.679-3.826c1.381-1.382,2.854-1.617,3.969-0.503
		c0.301,0.301,0.586,0.703,0.82,1.206l0.016,0.017l1.926-1.926l1.256,1.256l-6.111,6.112l-1.072-1.072l0.109-0.292l-0.018-0.017
		C53.757,38.748,53.221,38.43,52.853,38.061z M56.737,34.98c-0.468-0.468-1.038-0.302-1.901,0.561
		c-0.846,0.846-1.08,1.465-0.568,1.976c0.201,0.201,0.511,0.377,0.954,0.553l2.102-2.102C57.131,35.524,56.947,35.19,56.737,34.98z"
		/>
	<path fill="#FFFFFF" d="M58.953,43.944l2.922-2.922c0.293-0.293,0.235-0.552-0.024-0.812c-0.226-0.226-0.595-0.444-1.03-0.695
		l-3.147,3.148l-1.265-1.265l4.278-4.278l1.098,1.098l-0.243,0.36l0.018,0.017c0.811,0.326,1.464,0.695,1.883,1.113
		c0.695,0.696,0.736,1.524-0.192,2.454l-3.039,3.039L58.953,43.944z"/>
	<path fill="#FFFFFF" d="M63.976,45.417c-0.661,0.795-0.511,1.348,0.017,1.875c0.344,0.343,0.854,0.687,1.406,1.073l-0.929,0.929
		c-0.646-0.411-1.29-0.854-1.784-1.349c-1.055-1.054-1.432-2.353,0.369-4.153c1.54-1.541,2.955-1.549,4.145-0.36
		c1.062,1.063,1.271,2.328-0.293,3.894l-0.512,0.511L63.976,45.417z M66.252,44.395c-0.343-0.343-0.678-0.443-1.456,0.202
		l1.163,1.164C66.504,45.215,66.621,44.763,66.252,44.395z"/>
	<path fill="#FFFFFF" d="M67.666,52.657l-1.373-1.374l2.896-5.659l1.239,1.239l-2.085,3.776l0.017,0.017l3.802-2.06l1.164,1.164
		L67.666,52.657z"/>
	<path fill="#FFFFFF" d="M72.136,57.126l2.922-2.922c0.293-0.293,0.234-0.553-0.025-0.812c-0.226-0.226-0.594-0.443-1.03-0.695
		l-3.147,3.148l-1.264-1.264l4.278-4.278l1.096,1.096l-0.242,0.36l0.018,0.017c0.812,0.327,1.464,0.695,1.883,1.113
		c0.695,0.696,0.736,1.524-0.193,2.453l-3.039,3.039L72.136,57.126z"/>
	<path fill="#FFFFFF" d="M80.062,56.497l-4.278,4.278l-1.257-1.256l3.316-3.315l-0.478-0.477l0.963-0.963L80.062,56.497z
		 M79.786,53.875c0.419-0.418,1.071-0.418,1.466-0.025c0.418,0.418,0.418,1.072,0,1.49c-0.395,0.394-1.047,0.394-1.466-0.025
		C79.393,54.922,79.393,54.269,79.786,53.875z"/>
	<path fill="#FFFFFF" d="M83.854,60.288l-0.15,0.268l0.016,0.017c0.637,0.318,1.174,0.653,1.566,1.047
		c0.921,0.92,0.996,2.102-0.645,3.743c-1.474,1.474-2.973,1.482-3.986,0.468c-0.284-0.285-0.603-0.737-0.787-1.155l-0.033-0.034
		l-1.633,1.632l-1.264-1.264l5.818-5.819L83.854,60.288z M81.434,64.649c0.428,0.428,0.963,0.343,1.9-0.594
		c0.93-0.93,0.971-1.541,0.511-2.001c-0.2-0.201-0.511-0.377-0.88-0.544l-2.135,2.135C81.023,64.072,81.216,64.432,81.434,64.649z"
		/>
	<path fill="#FFFFFF" d="M89.244,67.704c-0.637-0.637-1.131-0.997-1.608-1.273l-3.098,3.098l-1.264-1.264l4.278-4.278l1.096,1.096
		l-0.292,0.411l0.017,0.017c0.812,0.226,1.456,0.603,1.977,1.088L89.244,67.704z"/>
	<path fill="#FFFFFF" d="M89.317,70.758c-0.661,0.796-0.511,1.348,0.017,1.875c0.344,0.343,0.854,0.688,1.406,1.073l-0.929,0.929
		c-0.646-0.411-1.29-0.854-1.784-1.349c-1.055-1.055-1.432-2.352,0.369-4.152c1.541-1.541,2.955-1.55,4.145-0.36
		c1.062,1.063,1.271,2.327-0.293,3.894l-0.512,0.51L89.317,70.758z M91.594,69.736c-0.342-0.342-0.678-0.443-1.456,0.202
		l1.163,1.163C91.846,70.557,91.963,70.105,91.594,69.736z"/>
	<path fill="#FFFFFF" d="M96.432,72.867l-4.277,4.277l-1.256-1.256l3.314-3.314l-0.477-0.479l0.963-0.963L96.432,72.867z
		 M96.156,70.246c0.418-0.419,1.071-0.419,1.465-0.025c0.418,0.418,0.418,1.072,0,1.49c-0.394,0.394-1.047,0.394-1.465-0.025
		C95.762,71.292,95.762,70.638,96.156,70.246z"/>
	<path fill="#FFFFFF" d="M92.897,77.888l0.896-0.896l4.17-0.687l-1.684-1.684l0.955-0.954l3.24,3.241l-0.812,0.812l-4.254,0.736
		l1.834,1.834l-0.972,0.972L92.897,77.888z"/>
	<path fill="#FFFFFF" d="M97.008,81.999l6.111-6.112l1.264,1.264l-3.231,3.232l0.478,0.478l2.186-0.612l1.356,1.357l-3.007,0.695
		l-1.096,3.758l-1.356-1.355l0.912-2.922l-0.436-0.436l-1.917,1.917L97.008,81.999z"/>
	<path fill="#FFFFFF" d="M106.969,83.404l-2.846,2.846c-0.344,0.344-0.336,0.604-0.051,0.888c0.201,0.2,0.544,0.427,1.029,0.694
		l3.148-3.147l1.264,1.265l-4.277,4.277l-1.098-1.096l0.242-0.361l-0.016-0.016c-0.847-0.328-1.482-0.695-1.885-1.098
		c-0.736-0.736-0.694-1.582,0.21-2.486l3.022-3.022L106.969,83.404z"/>
	<path fill="#FFFFFF" d="M110.458,92.988c-0.812,0.812-1.834,0.879-3.132-0.418c-0.393-0.395-0.803-0.889-1.238-1.541l0.929-0.93
		c0.427,0.695,0.778,1.146,1.063,1.432c0.511,0.51,0.82,0.469,1.063,0.227c0.653-0.654-1.516-2.219,0.042-3.777
		c0.945-0.945,2.025-0.535,2.998,0.436c0.359,0.361,0.711,0.797,1.029,1.281l-0.871,0.871c-0.368-0.469-0.67-0.871-0.946-1.146
		c-0.352-0.352-0.645-0.479-0.921-0.201C109.764,89.931,111.982,91.464,110.458,92.988z"/>
</g>
</svg>
