<?xml version="1.0" encoding="utf-8"?>
<!-- Generator: Adobe Illustrator 16.0.4, SVG Export Plug-In . SVG Version: 6.00 Build 0)  -->
<!DOCTYPE svg PUBLIC "-//W3C//DTD SVG 1.1//EN" "http://www.w3.org/Graphics/SVG/1.1/DTD/svg11.dtd">
<svg version="1.1" id="Layer_1" xmlns="http://www.w3.org/2000/svg" xmlns:xlink="http://www.w3.org/1999/xlink" x="0px" y="0px"
	 width="80.809px" height="51.179px" viewBox="0 0 80.809 51.179" enable-background="new 0 0 80.809 51.179" xml:space="preserve">
<polygon fill="#E78601" points="0,0 29.629,0 80.809,51.179 50.998,51.179 "/>
<g>
	<path fill="#FFFFFF" d="M29.393,22.215L32,12.652l-0.033-0.033l-6.086,6.086l-0.869-0.87l7.45-7.45l1.023,1.023l-2.432,8.859
		l0.033,0.033l5.646-5.646l0.892,0.892l-7.45,7.45L29.393,22.215z"/>
	<path fill="#FFFFFF" d="M35.201,20.695c2.641-2.641,4.689-3.169,6.955-0.902c2.201,2.2,1.75,4.17-0.836,6.757
		c-2.652,2.652-4.666,3.191-6.955,0.902C32.175,25.263,32.615,23.282,35.201,20.695z M36.279,21.642
		c-2.068,2.069-2.74,3.423-1.111,5.051c1.674,1.674,2.961,1.002,5.062-1.1c2.059-2.058,2.773-3.389,1.102-5.062
		C39.67,18.869,38.381,19.54,36.279,21.642z"/>
	<path fill="#FFFFFF" d="M42.066,32.448l0.023,0.022l8.057-4.402l0.891,0.892l-9.773,5.129l-0.881-0.881l5.129-9.773l0.926,0.925
		L42.066,32.448z"/>
	<path fill="#FFFFFF" d="M47.744,33.239c2.643-2.642,4.689-3.169,6.955-0.902c2.201,2.201,1.752,4.171-0.836,6.758
		c-2.652,2.652-4.666,3.191-6.955,0.902C44.719,37.806,45.158,35.825,47.744,33.239z M48.824,34.185
		c-2.07,2.069-2.742,3.423-1.113,5.052c1.674,1.674,2.961,1.002,5.064-1.101c2.057-2.058,2.773-3.389,1.1-5.062
		C52.213,31.413,50.926,32.083,48.824,34.185z"/>
	<path fill="#FFFFFF" d="M51.926,43.693c0.33-0.33,0.924-0.331,1.254-0.001c0.354,0.353,0.352,0.947,0.021,1.277
		c-0.352,0.352-0.945,0.353-1.299,0C51.572,44.639,51.574,44.044,51.926,43.693z M54.424,43.043l-0.615-0.616l5.084-5.613
		l1.145,1.145L54.424,43.043z"/>
</g>
</svg>
