<?xml version="1.0" encoding="utf-8"?>
<!-- Generator: Adobe Illustrator 16.0.4, SVG Export Plug-In . SVG Version: 6.00 Build 0)  -->
<!DOCTYPE svg PUBLIC "-//W3C//DTD SVG 1.1//EN" "http://www.w3.org/Graphics/SVG/1.1/DTD/svg11.dtd">
<svg version="1.1" id="Layer_1" xmlns="http://www.w3.org/2000/svg" xmlns:xlink="http://www.w3.org/1999/xlink" x="0px" y="0px"
	 width="80.722px" height="51.268px" viewBox="0 0 80.722 51.268" enable-background="new 0 0 80.722 51.268" xml:space="preserve">
<polygon fill="#4F4A8A" points="0,0 29.454,0 80.722,51.268 51.438,51.268 "/>
<g>
	<path fill="#FFFFFF" d="M37.724,17.891c-0.756,0.756-1.502,0.663-2.187-0.021l-1.229-1.229l3.682-3.682l1.137,1.137
		c0.723,0.723,0.669,1.31,0.081,1.897c-0.456,0.457-0.946,0.511-1.37,0.239l-0.011,0.011C38.104,16.619,38.365,17.249,37.724,17.891
		z M37.206,17.46c0.517-0.517,0.501-0.913-0.021-1.436l-0.674-0.674l-1.359,1.359l0.838,0.838
		C36.348,17.907,36.728,17.939,37.206,17.46z M38.675,15.558c0.403-0.413,0.506-0.658,0.07-1.093l-0.674-0.674l-1.202,1.202
		l0.718,0.718C37.973,16.096,38.272,15.971,38.675,15.558z"/>
	<path fill="#FFFFFF" d="M42.189,19.203c-0.56,0.56-1.157,0.561-1.69,0.245l-0.757,2.626l-0.527-0.528l0.735-2.539l-0.582-0.582
		l-1.638,1.637l-0.468-0.468l3.682-3.682l1.212,1.212C42.994,17.963,42.832,18.562,42.189,19.203z M41.707,18.698
		c0.375-0.375,0.586-0.653,0.08-1.159l-0.767-0.767l-1.277,1.278l0.729,0.729C40.945,19.252,41.331,19.073,41.707,18.698z"/>
	<path fill="#FFFFFF" d="M40.277,22.61l3.682-3.682l2.007,2.007l-0.402,0.402l-1.544-1.544l-1.169,1.169l1.358,1.358l-0.396,0.396
		l-1.358-1.358l-1.311,1.31l1.565,1.565l-0.403,0.404L40.277,22.61z"/>
	<path fill="#FFFFFF" d="M42.797,25.129l0.387-0.387l4.644-1.141l-1.696-1.697l0.402-0.402l2.181,2.182l-0.407,0.406l-4.622,1.133
		L45.462,27l-0.397,0.396L42.797,25.129z"/>
	<path fill="#FFFFFF" d="M22.295,17.688l1.29-4.725l-0.017-0.017l-3.008,3.007l-0.43-0.43l3.682-3.682l0.507,0.507l-1.202,4.377
		l0.017,0.017l2.789-2.79l0.44,0.44l-3.682,3.682L22.295,17.688z"/>
	<path fill="#FFFFFF" d="M26.3,19.647l-1.337-1.337l-1.35,0.695l-0.439-0.439l4.91-2.453l0.445,0.445l-2.463,4.9l-0.457-0.457
		L26.3,19.647z M25.452,18.06l1.099,1.099l1.136-2.235l-0.01-0.01L25.452,18.06z"/>
	<path fill="#FFFFFF" d="M31.484,21.559c-0.56,0.56-1.157,0.56-1.69,0.246l-0.756,2.627l-0.528-0.529l0.735-2.539l-0.582-0.582
		l-1.638,1.637l-0.468-0.468l3.682-3.682l1.213,1.213C32.29,20.319,32.126,20.917,31.484,21.559z M31.001,21.053
		c0.375-0.375,0.587-0.652,0.082-1.157l-0.768-0.768l-1.277,1.278l0.729,0.729C30.24,21.608,30.625,21.428,31.001,21.053z"/>
	<path fill="#FFFFFF" d="M31.178,22.948c1.305-1.305,2.317-1.565,3.438-0.445c1.087,1.087,0.863,2.06-0.414,3.337
		c-1.311,1.311-2.305,1.578-3.437,0.447C29.683,25.205,29.899,24.227,31.178,22.948z M31.711,23.416
		c-1.022,1.023-1.354,1.691-0.55,2.496c0.826,0.826,1.464,0.494,2.502-0.543c1.017-1.018,1.369-1.676,0.543-2.502
		C33.385,22.045,32.75,22.377,31.711,23.416z"/>
	<path fill="#FFFFFF" d="M38.499,27.365c-0.206-0.348-0.424-0.65-0.652-0.879c-0.67-0.67-1.463-0.725-2.616,0.428
		c-1.137,1.137-1.152,1.902-0.445,2.609c0.245,0.246,0.571,0.486,0.974,0.725l-0.381,0.381c-0.435-0.25-0.788-0.518-1.065-0.795
		c-0.94-0.939-0.963-2.049,0.354-3.365c1.452-1.451,2.626-1.289,3.534-0.381c0.245,0.244,0.474,0.549,0.685,0.891L38.499,27.365z
		 M38.543,25.896l-0.386-0.385l0.206-1.295l0.397,0.398l-0.044,0.738l0.745-0.037l0.381,0.381L38.543,25.896z"/>
	<path fill="#FFFFFF" d="M38.115,33.508l1.289-4.727l-0.017-0.016l-3.008,3.008l-0.43-0.43l3.682-3.682l0.507,0.506l-1.202,4.377
		l0.017,0.016l2.789-2.789l0.44,0.441l-3.682,3.682L38.115,33.508z"/>
	<path fill="#FFFFFF" d="M43.045,31.074l0.462,0.463l-3.682,3.682l-0.462-0.463L43.045,31.074z"/>
	<path fill="#FFFFFF" d="M42.85,38.242l1.289-4.727L44.122,33.5l-3.008,3.008l-0.43-0.43l3.682-3.682l0.507,0.506l-1.202,4.377
		l0.017,0.016l2.789-2.789l0.44,0.441l-3.682,3.682L42.85,38.242z"/>
	<path fill="#FFFFFF" d="M44.086,39.479l3.682-3.682l2.007,2.008l-0.402,0.402l-1.544-1.545l-1.169,1.17l1.359,1.359l-0.397,0.396
		l-1.359-1.359l-1.311,1.311l1.566,1.566l-0.402,0.402L44.086,39.479z"/>
</g>
</svg>
