<?xml version="1.0" encoding="utf-8"?>
<!-- Generator: Adobe Illustrator 16.0.4, SVG Export Plug-In . SVG Version: 6.00 Build 0)  -->
<!DOCTYPE svg PUBLIC "-//W3C//DTD SVG 1.1//EN" "http://www.w3.org/Graphics/SVG/1.1/DTD/svg11.dtd">
<svg version="1.1" id="Layer_1" xmlns="http://www.w3.org/2000/svg" xmlns:xlink="http://www.w3.org/1999/xlink" x="0px" y="0px"
	 width="80.722px" height="51.268px" viewBox="0 0 80.722 51.268" enable-background="new 0 0 80.722 51.268" xml:space="preserve">
<polygon fill="#4F4A8A" points="0,0 29.454,0 80.722,51.268 51.438,51.268 "/>
<g>
	<path fill="#FFFFFF" d="M27.9,21.257l2.593-9.508l-0.033-0.033l-6.051,6.05l-0.863-0.864l7.406-7.407l1.018,1.017l-2.418,8.808
		l0.033,0.032l5.612-5.613l0.887,0.887l-7.407,7.407L27.9,21.257z"/>
	<path fill="#FFFFFF" d="M33.678,19.748c2.626-2.626,4.661-3.151,6.915-0.897c2.188,2.188,1.738,4.146-0.832,6.717
		c-2.637,2.637-4.639,3.174-6.914,0.898C30.669,24.289,31.106,22.319,33.678,19.748z M34.75,20.688
		c-2.058,2.057-2.724,3.403-1.104,5.022c1.662,1.663,2.942,0.997,5.032-1.094c2.046-2.046,2.757-3.369,1.095-5.032
		C38.12,17.932,36.839,18.599,34.75,20.688z"/>
	<path fill="#FFFFFF" d="M40.507,31.434l0.021,0.021l8.008-4.375l0.887,0.887l-9.715,5.098l-0.876-0.875l5.099-9.716l0.92,0.92
		L40.507,31.434z"/>
	<path fill="#FFFFFF" d="M46.153,32.223c2.625-2.625,4.66-3.152,6.914-0.898c2.188,2.189,1.738,4.148-0.832,6.719
		c-2.637,2.637-4.639,3.172-6.914,0.896C43.144,36.764,43.581,34.795,46.153,32.223z M47.224,33.164
		c-2.057,2.057-2.723,3.402-1.105,5.021c1.664,1.664,2.943,0.996,5.033-1.094c2.047-2.047,2.758-3.369,1.094-5.033
		C50.595,30.406,49.313,31.074,47.224,33.164z"/>
	<path fill="#FFFFFF" d="M50.312,42.617c0.328-0.328,0.92-0.328,1.248,0c0.35,0.35,0.35,0.941,0.021,1.27
		c-0.35,0.35-0.941,0.35-1.291,0C49.962,43.559,49.962,42.967,50.312,42.617z M52.794,41.973l-0.611-0.613l5.055-5.58l1.137,1.139
		L52.794,41.973z"/>
</g>
</svg>
