<?xml version="1.0" encoding="utf-8"?>
<!-- Generator: Adobe Illustrator 16.0.4, SVG Export Plug-In . SVG Version: 6.00 Build 0)  -->
<!DOCTYPE svg PUBLIC "-//W3C//DTD SVG 1.1//EN" "http://www.w3.org/Graphics/SVG/1.1/DTD/svg11.dtd">
<svg version="1.1" id="Layer_1" xmlns="http://www.w3.org/2000/svg" xmlns:xlink="http://www.w3.org/1999/xlink" x="0px" y="0px"
	 width="74.999px" height="75px" viewBox="0 0 74.999 75" enable-background="new 0 0 74.999 75" xml:space="preserve">
<polygon fill="#E68603" points="0,0 36.999,0 74.999,38 74.999,75 "/>
<g>
	<path fill="#FFFFFF" d="M30.071,14.362l-1.528-1.529l-1.337,0.752l-1.198-1.198l6.791-3.611l1.391,1.391l-3.611,6.791l-1.252-1.252
		L30.071,14.362z M29.841,12.103l0.96,0.96l1.215-2.151L32,10.896L29.841,12.103z"/>
	<path fill="#FFFFFF" d="M36.611,17.26l-1.321,4.409l-1.374-1.375l1.044-3.334l-0.515-0.515l-2.189,2.189l-1.199-1.199l5.201-5.201
		l1.199,1.199l-1.975,1.974l0.484,0.484l3.126-0.822l1.253,1.252L36.611,17.26z"/>
	<path fill="#FFFFFF" d="M41.992,20.044l-4.164,4.164l-1.198-1.198l4.164-4.164l-1.36-1.36l1.037-1.037l3.918,3.917l-1.037,1.037
		L41.992,20.044z"/>
	<path fill="#FFFFFF" d="M45.767,28.259c-1.452,1.452-2.889,1.229-4.202-0.085c-1.261-1.26-1.429-2.612,0.046-4.087l3.25-3.25
		l1.198,1.198l-3.312,3.311c-0.783,0.784-0.53,1.405-0.016,1.92c0.546,0.546,1.076,0.723,1.845-0.045l3.334-3.334l1.114,1.114
		L45.767,28.259z"/>
	<path fill="#FFFFFF" d="M48.344,32.634l-1.529-1.529l-1.337,0.752l-1.198-1.198l6.791-3.611l1.391,1.391l-3.61,6.792l-1.252-1.252
		L48.344,32.634z M48.112,30.375l0.96,0.96l1.214-2.151l-0.015-0.015L48.112,30.375z"/>
	<path fill="#FFFFFF" d="M49.329,35.708l5.201-5.201l1.198,1.198l-4.164,4.164l2.021,2.021l-1.037,1.037L49.329,35.708z"/>
	<path fill="#FFFFFF" d="M55.899,42.279l1.605-5.047l-0.03-0.03l-3.326,3.326l-1.114-1.114l5.201-5.201l1.46,1.46l-1.43,4.517
		l0.039,0.039l2.974-2.973l1.113,1.113L57.19,43.57L55.899,42.279z"/>
	<path fill="#FFFFFF" d="M60.458,41.736c1.844-1.844,3.334-2.211,5.001-0.544c1.644,1.644,1.321,3.011-0.53,4.862
		c-1.836,1.836-3.318,2.166-4.954,0.53C58.3,44.91,58.567,43.626,60.458,41.736z M61.772,42.943
		c-1.245,1.245-1.615,1.812-0.777,2.65c0.853,0.853,1.43,0.445,2.651-0.776c1.236-1.236,1.62-1.79,0.768-2.643
		S62.971,41.745,61.772,42.943z"/>
</g>
</svg>
