<?xml version="1.0" encoding="utf-8"?>
<!-- Generator: Adobe Illustrator 16.0.4, SVG Export Plug-In . SVG Version: 6.00 Build 0)  -->
<!DOCTYPE svg PUBLIC "-//W3C//DTD SVG 1.1//EN" "http://www.w3.org/Graphics/SVG/1.1/DTD/svg11.dtd">
<svg version="1.1" id="Layer_1" xmlns="http://www.w3.org/2000/svg" xmlns:xlink="http://www.w3.org/1999/xlink" x="0px" y="0px"
	 width="73.947px" height="74px" viewBox="0 0 73.947 74" enable-background="new 0 0 73.947 74" xml:space="preserve">
<polygon fill="#E68603" points="0,0 35.161,0 73.947,38.787 73.947,74 "/>
<g>
	<path fill="#FFFFFF" d="M28.745,13.626c-0.717,0.717-1.606,1.317-3.15-0.227l-1.793-1.793l4.667-4.667l1.71,1.71
		c1.131,1.131,1.125,1.896,0.338,2.682c-0.586,0.586-1.158,0.592-1.682,0.289l-0.014,0.014
		C29.233,12.088,29.489,12.881,28.745,13.626z M27.635,12.544c0.407-0.407,0.421-0.683-0.062-1.166l-0.703-0.703l-1.082,1.083
		l0.778,0.779C26.945,12.916,27.29,12.889,27.635,12.544z M29.269,10.386c0.289-0.29,0.324-0.518-0.062-0.904l-0.57-0.571
		l-0.883,0.883l0.682,0.682C28.759,10.799,28.993,10.661,29.269,10.386z"/>
	<path fill="#FFFFFF" d="M34.529,15.632c-0.737,0.738-1.289,0.945-2.026,0.718l-0.965,2.993l-1.229-1.228l0.876-2.558l-0.579-0.579
		l-1.717,1.717l-1.082-1.083l4.667-4.667l1.91,1.91C35.522,13.992,35.315,14.846,34.529,15.632z M33.296,14.688
		c0.42-0.42,0.447-0.641,0.103-0.986l-0.758-0.758l-1.138,1.137l0.73,0.73C32.579,15.157,32.813,15.17,33.296,14.688z"/>
	<path fill="#FFFFFF" d="M31.978,19.783l4.668-4.667l2.903,2.903l-0.931,0.931l-1.827-1.827l-0.862,0.862l1.6,1.6l-0.91,0.91
		l-1.6-1.6l-1.034,1.034l1.861,1.861l-0.931,0.931L31.978,19.783z"/>
	<path fill="#FFFFFF" d="M35.351,23.155l0.916-0.917l4.619-1.021l-1.724-1.724l0.931-0.931l2.993,2.993L42.141,22.5l-4.584,1
		l1.833,1.833l-0.931,0.931L35.351,23.155z"/>
	<path fill="#FFFFFF" d="M45.457,26.933c-1.192,1.192-2.199,1.165-3.42-0.055l-0.413-0.414l-1.482,1.482l-1.076-1.076l4.668-4.667
		l1.503,1.503C46.471,24.94,46.512,25.877,45.457,26.933z M44.265,25.864c0.447-0.448,0.448-0.82,0.048-1.22l-0.434-0.434
		l-1.345,1.344l0.406,0.407C43.396,26.416,43.74,26.388,44.265,25.864z"/>
	<path fill="#FFFFFF" d="M42.845,30.649l4.667-4.667l1.076,1.076l-3.737,3.737l1.813,1.813l-0.931,0.931L42.845,30.649z"/>
	<path fill="#FFFFFF" d="M49.442,35.372L48.07,34l-1.2,0.675L45.795,33.6l6.096-3.24l1.247,1.247l-3.24,6.095l-1.124-1.124
		L49.442,35.372z M49.235,33.345l0.861,0.861l1.089-1.931l-0.014-0.014L49.235,33.345z"/>
	<path fill="#FFFFFF" d="M56.937,37.198c-0.255-0.393-0.503-0.724-0.752-0.973c-0.73-0.73-1.502-0.757-2.668,0.408
		c-1.158,1.159-1.206,1.869-0.435,2.64c0.276,0.276,0.649,0.552,1.11,0.862l-0.896,0.896c-0.537-0.346-0.972-0.696-1.31-1.034
		c-1.503-1.503-1.165-2.944,0.324-4.434c1.744-1.744,3.352-1.654,4.641-0.365c0.303,0.303,0.599,0.682,0.868,1.116L56.937,37.198z
		 M57.626,35.241l-1.056-1.056l0.373-1.626l0.752,0.752v0.827l0.834,0.007l0.724,0.724L57.626,35.241z"/>
	<path fill="#FFFFFF" d="M56.509,44.313l1.441-4.529l-0.027-0.027l-2.985,2.985l-1-1l4.668-4.668l1.311,1.311l-1.283,4.055
		l0.034,0.034l2.669-2.669l1,1l-4.668,4.668L56.509,44.313z"/>
	<path fill="#FFFFFF" d="M60.597,43.823c1.654-1.654,2.993-1.985,4.489-0.489c1.476,1.476,1.186,2.703-0.476,4.364
		c-1.648,1.648-2.979,1.945-4.447,0.477C58.659,46.671,58.9,45.52,60.597,43.823z M61.776,44.907
		c-1.116,1.116-1.447,1.627-0.696,2.378c0.765,0.765,1.282,0.399,2.378-0.696c1.11-1.11,1.455-1.607,0.69-2.372
		S62.853,43.831,61.776,44.907z"/>
</g>
</svg>
